<?xml version="1.0" encoding="UTF-8" standalone="no"?>
<svg
   width="126.29794"
   height="48.937988"
   viewBox="0 0 63.148968 24.468994"
   fill="none"
   version="1.1"
   id="svg1328"
   xmlns="http://www.w3.org/2000/svg"
   xmlns:svg="http://www.w3.org/2000/svg">
  <defs
     id="defs1332">
    <mask
       id="mask0_849_2598-5"
       maskUnits="userSpaceOnUse"
       x="3"
       y="14"
       width="8"
       height="8">
      <circle
         cx="6.6606398"
         cy="17.9606"
         r="3.5"
         transform="rotate(-6,6.66064,17.9606)"
         fill="#53b4ef"
         id="circle1207-9" />
    </mask>
    <mask
       id="path-11-inside-4_849_2598-2"
       fill="#ffffff">
      <path
         d="m 4.10774,18.9475 c -0.10452,0.0358 -0.16092,0.15 -0.11684,0.2513 0.14781,0.3397 0.3693,0.6423 0.64838,0.8859 0.08324,0.0727 0.20915,0.0535 0.27492,-0.0353 C 4.97997,19.9606 4.96056,19.836 4.87844,19.762 4.66322,19.5683 4.49037,19.3321 4.3708,19.0684 4.32517,18.9678 4.21225,18.9116 4.10774,18.9475 Z"
         id="path1216-2" />
    </mask>
    <mask
       id="path-12-inside-5_849_2598-8"
       fill="#ffffff">
      <path
         d="M 7.68394,17.8794 C 7.76981,17.9489 7.89652,17.9361 7.95897,17.845 8.13302,17.5909 8.25865,17.3068 8.3295,17.0072 8.35492,16.8996 8.27915,16.7972 8.16993,16.7805 8.06072,16.7638 7.95955,16.8391 7.9325,16.9462 7.87443,17.1761 7.77781,17.3946 7.64678,17.5923 7.58572,17.6844 7.59807,17.8099 7.68394,17.8794 Z"
         id="path1221-9" />
    </mask>
    <mask
       id="mask2_849_2598-6"
       maskUnits="userSpaceOnUse"
       x="43"
       y="4"
       width="19"
       height="19">
      <circle
         cx="52.650398"
         cy="13.3153"
         r="8.75"
         transform="rotate(-6,52.6504,13.3153)"
         fill="#d2e1fb"
         id="circle1283-1" />
    </mask>
    <mask
       id="mask3_849_2598-0"
       maskUnits="userSpaceOnUse"
       x="43"
       y="4"
       width="19"
       height="19">
      <circle
         cx="52.650398"
         cy="13.3153"
         r="8.75"
         transform="rotate(-6,52.6504,13.3153)"
         fill="#89bff2"
         id="circle1290-6" />
    </mask>
    <mask
       id="mask4_849_2598-1"
       maskUnits="userSpaceOnUse"
       x="42"
       y="3"
       width="21"
       height="21">
      <circle
         cx="52.649799"
         cy="13.3154"
         r="9.25"
         transform="rotate(-6,52.6498,13.3154)"
         fill="#89bff2"
         stroke="#332d57"
         id="circle1305-5" />
    </mask>
    <mask
       id="mask2_849_2598"
       maskUnits="userSpaceOnUse"
       x="43"
       y="4"
       width="19"
       height="19">
      <circle
         cx="52.650398"
         cy="13.3153"
         r="8.75"
         transform="rotate(-6,52.6504,13.3153)"
         fill="#d2e1fb"
         id="circle1283" />
    </mask>
    <mask
       id="mask3_849_2598"
       maskUnits="userSpaceOnUse"
       x="43"
       y="4"
       width="19"
       height="19">
      <circle
         cx="52.650398"
         cy="13.3153"
         r="8.75"
         transform="rotate(-6,52.6504,13.3153)"
         fill="#89bff2"
         id="circle1290" />
    </mask>
    <mask
       id="mask4_849_2598"
       maskUnits="userSpaceOnUse"
       x="42"
       y="3"
       width="21"
       height="21">
      <circle
         cx="52.649799"
         cy="13.3154"
         r="9.25"
         transform="rotate(-6,52.6498,13.3154)"
         fill="#89bff2"
         stroke="#332d57"
         id="circle1305" />
    </mask>
  </defs>
  <g
     style="mix-blend-mode:luminosity"
     id="g1242"
     transform="translate(-1.9602596,-0.98660096)">
    <circle
       cx="6.6605701"
       cy="17.960501"
       r="4.5"
       transform="rotate(-6,6.66057,17.9605)"
       fill="#ffffff"
       fill-opacity="0.3"
       id="circle1184"
       style="fill:#ffffff;fill-opacity:0.996078;stroke:#ffffff;stroke-width:0.4;stroke-linecap:butt;stroke-miterlimit:4;stroke-dasharray:none;stroke-dashoffset:4;stroke-opacity:1;paint-order:normal" />
    <mask
       id="path-2-inside-1_849_2598"
       fill="#ffffff">
      <path
         d="m 7.07563,13.3794 c 0.00998,-0.11 -0.07118,-0.2077 -0.18154,-0.2131 -1.13343,-0.0554 -2.25018,0.2929 -3.15128,0.9826 -0.08775,0.0672 -0.09896,0.1937 -0.02821,0.2786 0.07076,0.0848 0.19667,0.0959 0.28467,0.029 0.81924,-0.6221 1.83099,-0.9376 2.85867,-0.8913 0.11038,0.0049 0.20771,-0.0757 0.21769,-0.1858 z"
         id="path1186" />
    </mask>
    <mask
       id="path-3-inside-2_849_2598"
       fill="#ffffff">
      <path
         d="m 2.0109,17.0205 c -0.11169,-0.0225 -0.22098,0.0497 -0.23889,0.1622 -0.11359,0.7139 -0.06957,1.4449 0.13002,2.1414 0.19959,0.6965 0.54939,1.3399 1.02384,1.8853 0.07479,0.0859 0.20573,0.0893 0.28851,0.011 C 3.29716,21.1421 3.3004,21.0118 3.22594,20.9255 2.79677,20.4284 2.48008,19.8433 2.29871,19.2104 2.11734,18.5775 2.07612,17.9135 2.17686,17.2645 2.19434,17.1519 2.12259,17.0431 2.0109,17.0205 Z"
         id="path1191" />
    </mask>
    <mask
       id="path-4-inside-3_849_2598"
       fill="#ffffff">
      <path
         d="m 8.30503,13.6648 c 0.03951,-0.1032 -0.01199,-0.2193 -0.11674,-0.2545 -0.14768,-0.0496 -0.2977,-0.092 -0.4495,-0.127 -0.10767,-0.0248 -0.21231,0.0472 -0.23263,0.1558 -0.02032,0.1086 0.05138,0.2127 0.15896,0.2379 0.12819,0.0301 0.25498,0.0659 0.37996,0.1073 0.10488,0.0348 0.22044,-0.0163 0.25995,-0.1195 z"
         id="path1196" />
    </mask>
    <circle
       cx="6.6607199"
       cy="17.9606"
       r="3.7"
       transform="rotate(-6,6.66072,17.9606)"
       fill="#1a8cd0"
       id="circle1201"
       style="opacity:1;fill:#ffffff;fill-opacity:0.996078" />
    <circle
       cx="3.26631"
       cy="15.8035"
       r="0.85000002"
       transform="rotate(-6,3.26631,15.8035)"
       fill="#faaf78"
       stroke="#332d57"
       stroke-width="0.4"
       id="circle1203"
       style="fill:#ffffff;fill-opacity:0.996078;stroke:#ffffff;stroke-opacity:0.996078" />
    <path
       fill-rule="evenodd"
       clip-rule="evenodd"
       d="m 10.1411,17.5947 c 0.2021,1.9225 -1.19252,3.6447 -3.11493,3.8467 -1.92241,0.2021 -3.64462,-1.1925 -3.84668,-3.115 -0.20205,-1.9224 1.19257,-3.6446 3.11498,-3.8466 0.72208,-0.0759 1.41591,0.0734 2.01155,0.3914 0.08436,0.0451 0.18929,0.0303 0.25408,-0.04 C 8.64591,14.738 8.62603,14.5895 8.51467,14.5292 7.84638,14.1673 7.06558,13.9965 6.25266,14.082 c -2.14211,0.2251 -3.69612,2.1441 -3.47098,4.2863 0.22515,2.1421 2.14419,3.6961 4.2863,3.4709 2.14211,-0.2251 3.69612,-2.1442 3.47102,-4.2863 -0.0538,-0.5118 -0.2044,-0.9901 -0.4315,-1.4186 -0.063,-0.1187 -0.22332,-0.1339 -0.3144,-0.035 -0.06032,0.0654 -0.0705,0.1623 -0.02927,0.2412 0.19833,0.3796 0.32987,0.8024 0.37727,1.2542 z"
       fill="#332d57"
       id="path1205"
       style="fill:#ffffff;fill-opacity:0.996078" />
    <mask
       id="mask0_849_2598"
       maskUnits="userSpaceOnUse"
       x="3"
       y="14"
       width="8"
       height="8">
      <circle
         cx="6.6606398"
         cy="17.9606"
         r="3.5"
         transform="rotate(-6,6.66064,17.9606)"
         fill="#53b4ef"
         id="circle1207" />
    </mask>
    <g
       mask="url(#mask0_849_2598)"
       id="g1212">
      <circle
         cx="4.2985826"
         cy="18.595394"
         r="3.5"
         transform="rotate(-6)"
         fill="#53B4EF"
         id="circle1210"
         style="fill:#ffffff;fill-opacity:0.996078" />
    </g>
    <path
       fill-rule="evenodd"
       clip-rule="evenodd"
       d="M 5.21955,15.5503 C 5.20408,15.4031 5.04384,15.32 4.92198,15.404 4.30181,15.8313 3.85099,16.4759 3.66836,17.2159 3.63621,17.3461 3.74676,17.4626 3.88018,17.4486 3.9692,17.4392 4.04099,17.3727 4.0633,17.286 4.22408,16.6613 4.60483,16.1164 5.12631,15.7492 5.19059,15.704 5.22776,15.6284 5.21955,15.5503 Z"
       fill="#ffffff"
       id="path1214"
       style="fill:#ffffff;fill-opacity:0.996078" />
    <mask
       id="path-11-inside-4_849_2598"
       fill="#ffffff">
      <path
         d="m 4.10774,18.9475 c -0.10452,0.0358 -0.16092,0.15 -0.11684,0.2513 0.14781,0.3397 0.3693,0.6423 0.64838,0.8859 0.08324,0.0727 0.20915,0.0535 0.27492,-0.0353 C 4.97997,19.9606 4.96056,19.836 4.87844,19.762 4.66322,19.5683 4.49037,19.3321 4.3708,19.0684 4.32517,18.9678 4.21225,18.9116 4.10774,18.9475 Z"
         id="path1216" />
    </mask>
    <path
       d="m 4.10774,18.9475 c -0.10452,0.0358 -0.16092,0.15 -0.11684,0.2513 0.14781,0.3397 0.3693,0.6423 0.64838,0.8859 0.08324,0.0727 0.20915,0.0535 0.27492,-0.0353 C 4.97997,19.9606 4.96056,19.836 4.87844,19.762 4.66322,19.5683 4.49037,19.3321 4.3708,19.0684 4.32517,18.9678 4.21225,18.9116 4.10774,18.9475 Z"
       stroke="#332d57"
       stroke-width="0.8"
       mask="url(#path-11-inside-4_849_2598)"
       id="path1219"
       style="fill:#ffffff;fill-opacity:0.996078;stroke:#ffffff;stroke-opacity:0.996078" />
    <mask
       id="path-12-inside-5_849_2598"
       fill="#ffffff">
      <path
         d="M 7.68394,17.8794 C 7.76981,17.9489 7.89652,17.9361 7.95897,17.845 8.13302,17.5909 8.25865,17.3068 8.3295,17.0072 8.35492,16.8996 8.27915,16.7972 8.16993,16.7805 8.06072,16.7638 7.95955,16.8391 7.9325,16.9462 7.87443,17.1761 7.77781,17.3946 7.64678,17.5923 7.58572,17.6844 7.59807,17.8099 7.68394,17.8794 Z"
         id="path1221" />
    </mask>
    <path
       d="M 7.68394,17.8794 C 7.76981,17.9489 7.89652,17.9361 7.95897,17.845 8.13302,17.5909 8.25865,17.3068 8.3295,17.0072 8.35492,16.8996 8.27915,16.7972 8.16993,16.7805 8.06072,16.7638 7.95955,16.8391 7.9325,16.9462 7.87443,17.1761 7.77781,17.3946 7.64678,17.5923 7.58572,17.6844 7.59807,17.8099 7.68394,17.8794 Z"
       stroke="#332d57"
       stroke-width="0.8"
       mask="url(#path-12-inside-5_849_2598)"
       id="path1224"
       style="fill:#ffffff;fill-opacity:0.996078;stroke:#ffffff;stroke-opacity:1" />
    <circle
       cx="3.70858"
       cy="17.9188"
       r="0.2"
       transform="rotate(-6,3.70858,17.9188)"
       fill="#ffffff"
       id="circle1226"
       style="fill:#ffffff;fill-opacity:0.996078" />
    <circle
       cx="4.0173998"
       cy="18.6406"
       r="0.15000001"
       transform="rotate(-6,4.0174,18.6406)"
       fill="#332d57"
       id="circle1228"
       style="fill:#ffffff;fill-opacity:0.996078" />
    <circle
       cx="7.4270601"
       cy="18.080999"
       r="0.15000001"
       transform="rotate(-6,7.42706,18.081)"
       fill="#332d57"
       id="circle1230"
       style="fill:#ffffff;fill-opacity:0.996078" />
    <circle
       cx="4.9359002"
       cy="18.2927"
       r="0.25"
       transform="rotate(-6,4.9359,18.2927)"
       fill="#332d57"
       id="circle1232"
       style="fill:#ffffff;fill-opacity:0.996078" />
    <circle
       cx="10.2694"
       cy="21.5026"
       r="0.25"
       transform="rotate(-6,10.2694,21.5026)"
       fill="#faaf78"
       id="circle1234"
       style="fill:#ffffff;fill-opacity:0.996078" />
    <circle
       cx="8.9693098"
       cy="15.0534"
       r="0.55000001"
       transform="rotate(-6,8.96931,15.0534)"
       fill="#b8deff"
       stroke="#332d57"
       stroke-width="0.4"
       id="circle1238"
       style="fill:#ffffff;fill-opacity:0.996078;stroke:#ffffff;stroke-opacity:0.996078" />
    <circle
       cx="5.2653899"
       cy="21.4254"
       r="0.40000001"
       transform="rotate(-6,5.26539,21.4254)"
       fill="#b8deff"
       stroke="#332d57"
       stroke-width="0.4"
       id="circle1240"
       style="fill:#ffffff;fill-opacity:0.996078;stroke:#ffffff;stroke-opacity:0.996078" />
  </g>
  <circle
     cx="22.086838"
     cy="17.372269"
     r="9"
     transform="rotate(-6)"
     fill="#B341FF"
     fill-opacity="0.3"
     id="circle1244"
     style="fill:#ffffff;fill-opacity:0.996078;stroke:#ffffff;stroke-opacity:0.996078" />
  <circle
     cx="22.086838"
     cy="17.372269"
     r="7.4000001"
     transform="rotate(-6)"
     fill="#8C12DC"
     stroke="#332D57"
     stroke-width="0.8"
     id="circle1246"
     style="fill:#ffffff;fill-opacity:0.996078;stroke:#ffffff;stroke-opacity:0.996078" />
  <mask
     id="mask1_849_2598"
     maskUnits="userSpaceOnUse"
     x="18"
     y="8"
     width="15"
     height="15">
    <circle
       cx="25.742201"
       cy="15.9551"
       r="7"
       transform="rotate(-6,25.7422,15.9551)"
       fill="#b341ff"
       id="circle1248" />
  </mask>
  <g
     mask="url(#mask1_849_2598)"
     id="g1253"
     style="fill:#ffffff;fill-opacity:0.996078"
     transform="translate(-1.9602596,-0.98660096)">
    <circle
       cx="24.1509"
       cy="16.122299"
       r="7"
       transform="rotate(-6,24.1509,16.1223)"
       fill="#b341ff"
       id="circle1251"
       style="fill:#ffffff;fill-opacity:0.996078" />
  </g>
  <path
     fill-rule="evenodd"
     clip-rule="evenodd"
     d="m 20.86234,10.151999 c -0.031,-0.2944 -0.3515,-0.4605 -0.5952,-0.2925 -1.2399,0.8546 -2.1412,2.1436 -2.5065,3.6231 -0.0643,0.2605 0.1568,0.4934 0.4237,0.4654 0.178,-0.0188 0.3216,-0.1517 0.3662,-0.3251 0.3215,-1.2492 1.0828,-2.3388 2.1253,-3.073 0.1286,-0.0906 0.2029,-0.2416 0.1865,-0.3979 z m 3.5675,10.9825 -0.0049,5e-4 0.0098,-0.001 z"
     fill="white"
     id="path1255"
     style="fill:#ffffff;fill-opacity:0.996078" />
  <circle
     cx="16.186573"
     cy="16.67239"
     r="0.40000001"
     transform="rotate(-6)"
     fill="white"
     id="circle1257"
     style="fill:#ffffff;fill-opacity:0.996078" />
  <path
     fill-rule="evenodd"
     clip-rule="evenodd"
     d="m 30.32864,8.529939 c -0.0786,-0.60759 -0.2954,-0.99651 -0.5832,-1.22953 -0.2877,-0.23302 -0.7132,-0.36426 -1.3239,-0.31483 -0.6163,0.04989 -1.3701,0.28253 -2.2186,0.71617 -0.2211,0.11301 -0.4463,0.23848 -0.6746,0.37599 -0.0838,0.05051 -0.1836,0.06662 -0.2793,0.0461 -0.3395,-0.07277 -0.458,-0.53485 -0.161,-0.71471 2.1161,-1.28172 4.0467,-1.63268 5.1609,-0.73043 1.9616,1.58848 0.6497,6.46 -2.9302,10.8808 -3.5799,4.4208 -8.0722,6.7169 -10.0338,5.1284 -1.0255,-0.8305 -1.1564,-2.5582 -0.5361,-4.6498 0.0995,-0.3357 0.581,-0.3324 0.7336,-0.0173 0.042,0.0866 0.0507,0.1855 0.0236,0.2778 -0.0216,0.0736 -0.0421,0.1466 -0.0616,0.219 -0.2478,0.9201 -0.3186,1.7059 -0.2393,2.3191 0.0786,0.6075 0.2955,0.9965 0.5833,1.2295 0.2877,0.233 0.7132,0.3643 1.3239,0.3148 0.6163,-0.0499 1.3701,-0.2825 2.2186,-0.7162 1.6948,-0.8662 3.6296,-2.4644 5.3661,-4.6087 1.7365,-2.1444 2.8974,-4.3692 3.3924,-6.2072 0.2478,-0.92 0.3186,-1.7058 0.2392,-2.31896 z"
     fill="#332D57"
     id="path1259"
     style="fill:#ffffff;fill-opacity:0.996078;stroke:#bbc3cf;stroke-width:0;stroke-miterlimit:4;stroke-dasharray:none;stroke-opacity:1" />
  <path
     fill-rule="evenodd"
     clip-rule="evenodd"
     d="m 21.52464,19.179999 c -0.0726,0.1475 -0.2294,0.2351 -0.3929,0.2179 -4.3585,-0.4589 -7.5821,-2.1724 -7.6187,-4.2725 -0.0236,-1.3479 1.2706,-2.5825 3.3482,-3.4554 0.3185,-0.1339 0.6211,0.2265 0.4851,0.5442 -0.0395,0.0923 -0.1131,0.1669 -0.2056,0.2061 -0.1129,0.0479 -0.2232,0.0968 -0.3306,0.1467 -0.8641,0.4016 -1.5115,0.8525 -1.9303,1.3074 -0.4149,0.4508 -0.5734,0.8669 -0.567,1.2371 0.0065,0.3702 0.1795,0.7805 0.6099,1.2165 0.4343,0.4401 1.0971,0.868 1.9747,1.2392 1.1614,0.4913 2.6367,0.8568 4.3025,1.0335 0.2793,0.0296 0.4489,0.3275 0.3247,0.5793 z m 1.0112,-0.2419 c 0.0703,-0.1426 0.2179,-0.2303 0.3769,-0.2263 0.3169,0.008 0.6387,0.0093 0.9645,0.0036 2.7589,-0.0481 5.2094,-0.5888 6.9355,-1.3911 0.8641,-0.4016 1.5115,-0.8524 1.9303,-1.3073 0.4149,-0.4508 0.5734,-0.8669 0.5669,-1.2371 -0.0064,-0.3702 -0.1794,-0.7806 -0.6098,-1.2166 -0.4343,-0.44 -1.0971,-0.868 -1.9747,-1.2392 -0.0979,-0.0414 -0.1981,-0.0819 -0.3004,-0.1215 -0.1619,-0.0627 -0.2934,-0.1852 -0.3704,-0.3408 -0.1359,-0.2744 0.1177,-0.6042 0.4056,-0.5002 2.212,0.7997 3.6254,2.0178 3.6496,3.4043 0.0441,2.5238 -4.531,4.6501 -10.2186,4.7494 -0.3422,0.006 -0.6806,0.0045 -1.0144,-0.0042 -0.2896,-0.0075 -0.4691,-0.3131 -0.341,-0.573 z"
     fill="#332D57"
     id="path1261"
     style="fill:#ffffff;fill-opacity:0.996078;stroke:#bbc3cf;stroke-width:0;stroke-miterlimit:4;stroke-dasharray:none;stroke-opacity:1" />
  <circle
     cx="14.686577"
     cy="9.6721792"
     r="0.69999999"
     transform="rotate(-6)"
     fill="#F7931B"
     id="circle1263"
     style="fill:#ffffff;fill-opacity:0.996078" />
  <circle
     cx="16.186762"
     cy="8.9722071"
     r="0.30000001"
     transform="rotate(-6)"
     fill="#FECD64"
     id="circle1265"
     style="fill:#ffffff;fill-opacity:0.996078" />
  <circle
     cx="28.486675"
     cy="25.172264"
     r="0.5"
     transform="rotate(-6)"
     fill="#F7931B"
     id="circle1267"
     style="fill:#ffffff;fill-opacity:0.996078" />
  <circle
     cx="-18.872278"
     cy="21.686853"
     r="0.40000001"
     transform="rotate(-96)"
     fill="#332D57"
     id="circle1273"
     style="fill:#ffffff;fill-opacity:0.996078" />
  <circle
     cx="-17.872124"
     cy="20.686417"
     r="0.5"
     transform="rotate(-96)"
     fill="#332D57"
     id="circle1275"
     style="fill:#ffffff;fill-opacity:0.996078" />
  <circle
     cx="-19.272268"
     cy="20.386721"
     r="0.2"
     transform="rotate(-96)"
     fill="#332D57"
     id="circle1277"
     style="fill:#ffffff;fill-opacity:0.996078" />
  <g
     id="circle1279"
     transform="rotate(-6)">
    <path
       style="color:#000000;mix-blend-mode:luminosity;fill:#c0c0c0;fill-opacity:0.996078;-inkscape-stroke:none"
       d="m 60.373753,17.559723 a 11.25,11.25 0 0 1 -11.25,11.25 11.25,11.25 0 0 1 -11.25,-11.25 11.25,11.25 0 0 1 11.25,-11.2500001 11.25,11.25 0 0 1 11.25,11.2500001 z"
       id="path3436" />
    <path
       style="color:#000000;mix-blend-mode:luminosity;fill:#ffffff;-inkscape-stroke:none"
       d="m 49.123047,5.8105469 c -6.483417,0 -11.75,5.2665831 -11.75,11.7500001 0,6.483417 5.266583,11.75 11.75,11.75 6.483417,0 11.75,-5.266583 11.75,-11.75 0,-6.483417 -5.266583,-11.7500001 -11.75,-11.7500001 z m 0,1 c 5.942977,0 10.75,4.8070221 10.75,10.7500001 0,5.942977 -4.807023,10.75 -10.75,10.75 -5.942978,0 -10.75,-4.807023 -10.75,-10.75 0,-5.942978 4.807022,-10.7500001 10.75,-10.7500001 z"
       id="path3438" />
  </g>
  <g
     id="circle1281"
     transform="rotate(-6)">
    <path
       style="color:#000000;mix-blend-mode:luminosity;fill:#c0c0c0;fill-opacity:0.996078;-inkscape-stroke:none"
       d="m 58.373146,17.559761 a 9.25,9.25 0 0 1 -9.25,9.25 9.25,9.25 0 0 1 -9.25,-9.25 9.25,9.25 0 0 1 9.25,-9.25 9.25,9.25 0 0 1 9.25,9.25 z"
       id="path3430" />
    <path
       style="color:#000000;mix-blend-mode:luminosity;fill:#ffffff;-inkscape-stroke:none"
       d="m 49.123047,7.8105469 c -5.378849,0 -9.75,4.3711511 -9.75,9.7500001 0,5.378848 4.371151,9.75 9.75,9.75 5.378848,0 9.75,-4.371152 9.75,-9.75 0,-5.378849 -4.371152,-9.7500001 -9.75,-9.7500001 z m 0,1 c 4.838409,0 8.75,3.9115911 8.75,8.7500001 0,4.838409 -3.911591,8.75 -8.75,8.75 -4.838409,0 -8.75,-3.911591 -8.75,-8.75 0,-4.838409 3.911591,-8.7500001 8.75,-8.7500001 z"
       id="path3432" />
  </g>
  <g
     mask="url(#mask2_849_2598)"
     id="g1288"
     style="mix-blend-mode:luminosity;fill:#c0c0c0;fill-opacity:0.996078"
     transform="translate(-1.9602596,-0.98660096)">
    <circle
       cx="50.661098"
       cy="13.5244"
       r="8.75"
       transform="rotate(-6,50.6611,13.5244)"
       fill="#d2e1fb"
       id="circle1286"
       style="fill:#c0c0c0;fill-opacity:0.996078" />
  </g>
  <g
     mask="url(#mask3_849_2598)"
     id="g1297"
     style="mix-blend-mode:luminosity;fill:#c0c0c0;fill-opacity:0.996078"
     transform="translate(-1.9602596,-0.98660096)">
    <g
       id="circle1293"
       transform="rotate(-96,54.3135,5.22215)">
      <path
         style="color:#000000;stroke-width:0.75;-inkscape-stroke:none"
         d="m 55.438499,5.2221498 a 1.125,1.125 0 0 1 -1.125,1.125 1.125,1.125 0 0 1 -1.125,-1.125 1.125,1.125 0 0 1 1.125,-1.125 1.125,1.125 0 0 1 1.125,1.125 z"
         id="path3422" />
      <path
         style="color:#000000;fill:#ffffff;fill-opacity:1;-inkscape-stroke:none"
         d="m 54.314453,3.7226563 c -0.823984,-1e-7 -1.5,0.6760154 -1.5,1.4999999 0,0.8239846 0.676016,1.5 1.5,1.5 0.823985,0 1.5,-0.6760154 1.5,-1.5 0,-0.8239845 -0.676015,-1.4999999 -1.5,-1.4999999 z m 0,0.7499999 c 0.418655,0 0.75,0.3313452 0.75,0.75 0,0.4186549 -0.331345,0.7500001 -0.75,0.75 -0.418655,0 -0.75,-0.3313451 -0.75,-0.75 0,-0.4186548 0.331345,-0.7499999 0.75,-0.75 z"
         id="path3424" />
    </g>
  </g>
  <path
     fill-rule="evenodd"
     clip-rule="evenodd"
     d="m 47.08674,6.303349 c -0.0387,-0.36795 -0.4393,-0.57559 -0.744,-0.36564 -1.55,1.06823 -2.6768,2.67961 -3.1334,4.52919 -0.0803,0.3256 0.196,0.6167 0.5296,0.5817 0.2225,-0.0234 0.402,-0.1896 0.4578,-0.4063 0.4019,-1.5617 1.3536,-2.92375 2.6569,-3.84156 0.1607,-0.11314 0.2536,-0.30196 0.2331,-0.49739 z"
     fill="#ffffff"
     id="path1299"
     style="mix-blend-mode:luminosity;fill:#c0c0c0;fill-opacity:0.996078" />
  <circle
     cx="41.794369"
     cy="16.6847"
     r="0.5"
     transform="rotate(-6)"
     fill="#ffffff"
     id="circle1301"
     style="mix-blend-mode:luminosity;fill:#c0c0c0;fill-opacity:0.996078" />
  <g
     id="path1303">
    <path
       style="color:#000000;clip-rule:evenodd;mix-blend-mode:luminosity;fill:#c0c0c0;fill-opacity:0.996078;fill-rule:evenodd;stroke-width:0;-inkscape-stroke:none"
       d="m 41.84744,11.392399 c 0.0997,-0.0771 0.1648,-0.1897 0.1828,-0.3145 0.0616,-0.4268 -0.4181,-0.766 -0.76,-0.5032 -2.2587,1.7362 -3.4429,3.6621 -2.9749,5.2941 0.8697,3.0329 7.1157,3.9028 13.9509,1.9428 6.8352,-1.96 11.6713,-6.0075 10.8016,-9.04045 -0.1872,-0.65277 -0.6234,-1.20533 -1.2609,-1.65105 -0.2349,-0.1642 -0.5529,-0.06237 -0.6796,0.19467 l -0.1798,0.36467 c -0.017,0.03454 -0.0041,0.0763 0.0291,0.09577 0.6608,0.3872 1.0023,0.82666 1.1299,1.27159 0.1276,0.4449 0.0708,0.9986 -0.2843,1.6771 -0.3584,0.6847 -0.9943,1.4385 -1.9077,2.203 -1.8245,1.5271 -4.6084,2.9727 -7.9239,3.9234 -3.3155,0.9507 -6.4424,1.2 -8.799,0.8718 -1.1796,-0.1643 -2.1183,-0.4666 -2.7852,-0.8574 -0.6607,-0.3872 -1.0023,-0.8266 -1.1298,-1.2715 -0.1276,-0.4449 -0.0708,-0.9986 0.2843,-1.6771 0.3584,-0.6848 0.9943,-1.4386 1.9077,-2.203 0.1282,-0.1074 0.2612,-0.2143 0.3988,-0.3207 z m 18.3314,-4.45579 c -0.1124,0.22803 -0.3767,0.33519 -0.6213,0.26589 -0.4158,-0.11779 -0.8786,-0.21398 -1.386,-0.28464 -0.153,-0.02131 -0.3093,-0.04018 -0.4686,-0.05658 -0.1252,-0.0129 -0.2404,-0.07478 -0.3216,-0.17106 -0.278,-0.32992 -0.0491,-0.87105 0.3803,-0.82812 0.7773,0.07772 1.493,0.21058 2.1317,0.39644 0.288,0.08379 0.4181,0.40909 0.2855,0.67807 z"
       id="path3412" />
    <path
       style="color:#000000;clip-rule:evenodd;mix-blend-mode:luminosity;fill:#bbc3cf;fill-rule:evenodd;-inkscape-stroke:none"
       d="m 41.84744,11.392399 c 0.0997,-0.0771 0.1648,-0.1897 0.1828,-0.3145 0.0616,-0.4268 -0.4181,-0.766 -0.76,-0.5032 -2.258698,1.736198 -3.4429,3.662102 -2.9749,5.2941 0.869699,3.032897 7.115707,3.902798 13.9509,1.9428 6.835193,-1.959998 11.671299,-6.007503 10.8016,-9.04045 -0.1872,-0.6527693 -0.623401,-1.2053304 -1.2609,-1.65105 -0.2349,-0.1641998 -0.5529,-0.06237 -0.6796,0.19467 l -0.1798,0.36467 c -0.017,0.03454 -0.0041,0.0763 0.0291,0.09577 0.660799,0.3871996 1.0023,0.8266604 1.1299,1.27159 0.1276,0.4448996 0.0708,0.998601 -0.2843,1.6771 -0.3584,0.684699 -0.994301,1.438501 -1.9077,2.203 -1.824498,1.527098 -4.608403,2.972701 -7.9239,3.9234 -3.315497,0.950699 -6.442402,1.2 -8.799,0.8718 -1.179599,-0.1643 -2.118301,-0.4666 -2.7852,-0.8574 -0.660699,-0.3872 -1.0023,-0.8266 -1.1298,-1.2715 -0.1276,-0.4449 -0.0708,-0.998601 0.2843,-1.6771 0.3584,-0.684799 0.994301,-1.438601 1.9077,-2.203 0.1282,-0.1074 0.2612,-0.2143 0.3988,-0.3207 z m 18.3314,-4.45579 c -0.1124,0.2280298 -0.3767,0.3351899 -0.6213,0.26589 -0.4158,-0.1177899 -0.878601,-0.2139801 -1.386,-0.28464 -0.153,-0.02131 -0.3093,-0.04018 -0.4686,-0.05658 -0.1252,-0.0129 -0.2404,-0.07478 -0.3216,-0.17106 -0.278,-0.3299197 -0.0491,-0.87105 0.3803,-0.82812 0.777299,0.07772 1.493001,0.2105802 2.1317,0.39644 0.288,0.08379 0.4181,0.4090903 0.2855,0.67807 z"
       id="path3414" />
  </g>
  <g
     mask="url(#mask4_849_2598)"
     id="g1312"
     style="mix-blend-mode:luminosity;fill:#c0c0c0;fill-opacity:0.996078"
     transform="translate(-1.9602596,-0.98660096)">
    <path
       fill-rule="evenodd"
       clip-rule="evenodd"
       d="m 54.1187,14.7402 c -0.0579,0.3655 0.285,0.666 0.6373,0.5528 5.1129,-1.6431 8.9484,-4.4388 9.8233,-6.9785 0.1347,-0.39076 -0.26,-0.69515 -0.6458,-0.54703 -0.1643,0.06303 -0.287,0.20009 -0.3523,0.36341 -0.0445,0.11124 -0.0976,0.22623 -0.1598,0.34504 -0.3584,0.68475 -0.9943,1.43855 -1.9076,2.20298 -1.6612,1.3904 -4.1176,2.7132 -7.0465,3.6565 -0.183,0.0589 -0.3185,0.2149 -0.3486,0.4048 z m -10.9795,1.2436 c 0.0176,-0.1108 -0.0932,-0.1984 -0.198,-0.1582 -0.1286,0.0494 -0.1286,0.2302 0.0032,0.2706 0.0037,0.0012 0.0075,0.0023 0.0113,0.0035 0.0837,0.0255 0.1699,-0.0295 0.1835,-0.1159 z"
       fill="#332d57"
       id="path1308"
       style="fill:#c0c0c0;fill-opacity:0.996078" />
    <path
       fill-rule="evenodd"
       clip-rule="evenodd"
       d="m 57.3487,18.8459 c -0.0625,0.3949 0.3344,0.7018 0.6957,0.5305 3.407,-1.615 5.8291,-3.7185 6.5019,-5.6708 0.1346,-0.3908 -0.26,-0.6955 -0.6458,-0.5473 -0.1642,0.063 -0.287,0.2 -0.3523,0.3634 -0.0445,0.1112 -0.0976,0.2262 -0.1597,0.345 -0.3584,0.6848 -0.9943,1.4386 -1.9077,2.203 -1.011,0.8462 -2.3165,1.6673 -3.8439,2.3932 -0.1531,0.0727 -0.2616,0.2155 -0.2882,0.383 z m -11.21,2.6996 c 0.0467,-0.2952 -0.1752,-0.5641 -0.4733,-0.5856 -0.3135,-0.0227 -0.6164,-0.0545 -0.9075,-0.095 -0.168,-0.0234 -0.331,-0.0496 -0.4892,-0.0784 -0.1052,-0.0192 -0.2137,-0.0103 -0.3136,0.0281 -0.4905,0.1882 -0.4682,0.8415 0.0479,0.9396 0.5069,0.0963 1.0494,0.165 1.6219,0.2053 0.2528,0.0178 0.4741,-0.1637 0.5138,-0.414 z"
       fill="#332d57"
       id="path1310"
       style="fill:#c0c0c0;fill-opacity:0.996078" />
  </g>
  <g
     id="circle1295"
     transform="rotate(-96)">
    <path
       style="color:#000000;mix-blend-mode:luminosity;fill:#c0c0c0;fill-opacity:0.996078;stroke-width:0.75;-inkscape-stroke:none"
       d="m -25.131891,51.508129 a 1.25,1.25 0 0 1 -1.25,1.25 1.25,1.25 0 0 1 -1.25,-1.25 1.25,1.25 0 0 1 1.25,-1.25 1.25,1.25 0 0 1 1.25,1.25 z"
       id="path3402" />
    <path
       style="color:#000000;mix-blend-mode:luminosity;fill:#ffffff;-inkscape-stroke:none"
       d="m -26.382812,49.882812 c -0.893021,0 -1.625,0.73198 -1.625,1.625 0,0.893021 0.731979,1.625 1.625,1.625 0.89302,0 1.625,-0.731979 1.625,-1.625 0,-0.89302 -0.73198,-1.625 -1.625,-1.625 z m 0,0.75 c 0.48769,0 0.875,0.38731 0.875,0.875 0,0.487691 -0.38731,0.875 -0.875,0.875 -0.487691,0 -0.875,-0.387309 -0.875,-0.875 0,-0.48769 0.387309,-0.874999 0.875,-0.875 z"
       id="path3404" />
  </g>
  <g
     id="circle1314"
     transform="rotate(-6)">
    <path
       style="color:#000000;mix-blend-mode:luminosity;fill:#c0c0c0;fill-opacity:0.996078;-inkscape-stroke:none"
       d="m 57.62389,7.6847425 a 1.25,1.25 0 0 1 -1.25,1.25 1.25,1.25 0 0 1 -1.25,-1.25 1.25,1.25 0 0 1 1.25,-1.25 1.25,1.25 0 0 1 1.25,1.25 z"
       id="path3396" />
    <path
       style="color:#000000;mix-blend-mode:luminosity;fill:#ffffff;-inkscape-stroke:none"
       d="m 56.373047,5.9355469 c -0.960575,0 -1.75,0.7894249 -1.75,1.75 0,0.960575 0.789425,1.75 1.75,1.75 0.960575,0 1.75,-0.789425 1.75,-1.75 0,-0.9605751 -0.789425,-1.75 -1.75,-1.75 z m 0,1 c 0.420135,0 0.75,0.3298645 0.75,0.75 0,0.4201354 -0.329865,0.75 -0.75,0.75 -0.420136,0 -0.75,-0.3298646 -0.75,-0.75 0,-0.4201355 0.329864,-0.75 0.75,-0.75 z"
       id="path3398" />
  </g>
  <circle
     cx="-19.684673"
     cy="49.248219"
     r="0.5"
     transform="rotate(-96)"
     fill="#332d57"
     id="circle1318"
     style="mix-blend-mode:luminosity;fill:#c0c0c0;fill-opacity:0.996078" />
  <g
     id="circle1320"
     transform="rotate(-96)">
    <path
       style="color:#000000;mix-blend-mode:luminosity;fill:#c0c0c0;fill-opacity:0.996078;stroke-width:0.75;-inkscape-stroke:none"
       d="m -19.559713,43.248249 a 0.875,0.875 0 0 1 -0.875,0.875 0.875,0.875 0 0 1 -0.875,-0.875 0.875,0.875 0 0 1 0.875,-0.875 0.875,0.875 0 0 1 0.875,0.875 z"
       id="path3388" />
    <path
       style="color:#000000;mix-blend-mode:luminosity;fill:#ffffff;-inkscape-stroke:none"
       d="m -20.435547,41.998047 c -0.685913,0 -1.25,0.564086 -1.25,1.25 0,0.685913 0.564087,1.25 1.25,1.25 0.685914,0 1.25,-0.564087 1.25,-1.25 0,-0.685914 -0.564086,-1.25 -1.25,-1.25 z m 0,0.75 c 0.280584,0 0.5,0.219416 0.5,0.5 0,0.280584 -0.219416,0.5 -0.5,0.5 -0.280584,0 -0.5,-0.219416 -0.5,-0.5 0,-0.280584 0.219416,-0.5 0.5,-0.5 z"
       id="path3390" />
  </g>
  <circle
     cx="46.498405"
     cy="15.059604"
     r="1.625"
     transform="rotate(-6)"
     fill="#86b7e5"
     id="circle1322"
     style="mix-blend-mode:luminosity;fill:#c0c0c0;fill-opacity:0.996078" />
  <path
     fill-rule="evenodd"
     clip-rule="evenodd"
     d="m 49.18554,9.972899 c 0.0794,0.7553 -0.4685,1.4319 -1.2237,1.5112 -0.7553,0.0794 -1.4318,-0.4685 -1.5112,-1.2237 -0.0794,-0.7552 0.4685,-1.43182 1.2237,-1.5112 0.3015,-0.03168 0.5905,0.03659 0.8339,0.17811 0.1303,0.07577 0.287,0.10729 0.4277,0.05328 0.2621,-0.10061 0.3461,-0.42944 0.1178,-0.59276 -0.4078,-0.29171 -0.9199,-0.44105 -1.4578,-0.38452 -1.1671,0.12268 -2.0139,1.16829 -1.8912,2.33549 0.1227,1.1672 1.1683,2.0139 2.3355,1.8912 1.1672,-0.1226 2.0139,-1.1683 1.8912,-2.3355 -0.0202,-0.1925 -0.2237,-0.294 -0.4044,-0.2246 l -0.2151,0.0826 c -0.0879,0.0337 -0.1362,0.1268 -0.1264,0.2204 z"
     fill="#332d57"
     id="path1324"
     style="mix-blend-mode:luminosity;fill:#c0c0c0;fill-opacity:0.996078" />
  <g
     id="g39481"
     transform="translate(11.869104,3.5051722)">
    <path
       style="color:#000000;mix-blend-mode:luminosity;fill:#e83962;fill-opacity:0.771938;stroke-width:0.75;-inkscape-stroke:none"
       d="m 41.983856,16.104979 a 1.25,1.25 0 0 1 1.373813,1.112492 1.25,1.25 0 0 1 -1.112492,1.373813 1.25,1.25 0 0 1 -1.373813,-1.112492 1.25,1.25 0 0 1 1.112492,-1.373813 z"
       id="path2516" />
    <path
       style="color:#000000;mix-blend-mode:luminosity;fill:#37383a;-inkscape-stroke:none"
       d="m 40.498195,17.517043 c 0.09335,0.888128 0.897829,1.539585 1.785957,1.446239 0.888129,-0.09335 1.539585,-0.897828 1.446239,-1.785956 -0.09335,-0.888128 -0.897828,-1.539586 -1.785957,-1.44624 -0.888128,0.09335 -1.539585,0.897829 -1.446239,1.785957 z m 0.745891,-0.0784 c -0.05098,-0.48502 0.293726,-0.910692 0.778745,-0.961669 0.485019,-0.05098 0.910691,0.293725 0.961669,0.778744 0.05098,0.485018 -0.293725,0.910691 -0.778745,0.961669 -0.485018,0.05098 -0.910691,-0.293726 -0.961669,-0.778744 z"
       id="path2518" />
    <path
       style="color:#000000;mix-blend-mode:luminosity;fill:#92a8d4;-inkscape-stroke:none"
       d="M 48.019762,7.8567391 A 9.25,9.25 0 0 1 39.787323,18.022955 9.25,9.25 0 0 1 29.621107,9.7905157 9.25,9.25 0 0 1 37.853546,-0.37570035 9.25,9.25 0 0 1 48.019762,7.8567391 Z"
       id="path2510" />
    <path
       style="color:#000000;mix-blend-mode:luminosity;fill:#37383a;-inkscape-stroke:none"
       d="M 37.801466,-0.8721223 C 32.452083,-0.30987948 28.561787,4.494236 29.12403,9.8436183 29.686273,15.193001 34.490388,19.083297 39.839771,18.521054 45.189153,17.958812 49.07945,13.154696 48.517207,7.8053133 47.954964,2.455931 43.150848,-1.434365 37.801466,-0.8721223 Z m 0.104528,0.99452189 c 4.811904,-0.50575146 9.110939,2.97553871 9.616691,7.78744211 0.505751,4.8119033 -2.975539,9.1109393 -7.787443,9.6166903 -4.811903,0.505752 -9.110939,-2.975538 -9.61669,-7.7874422 C 29.6128,4.9271864 33.094091,0.62815105 37.905994,0.12239959 Z"
       id="path2512" />
    <circle
       cx="35.685799"
       cy="12.83311"
       transform="rotate(-6)"
       fill="#d2e1fb"
       id="circle1286-9"
       style="mix-blend-mode:luminosity;fill:#c0c7ff;fill-opacity:1"
       r="8.75" />
    <g
       id="circle1293-9"
       transform="rotate(-96,45.376613,9.202271)"
       style="mix-blend-mode:luminosity">
      <path
         style="color:#000000;fill:#c5e0ef;stroke-width:0.75;-inkscape-stroke:none"
         d="m 55.438499,5.2221498 a 1.125,1.125 0 0 1 -1.125,1.125 1.125,1.125 0 0 1 -1.125,-1.125 1.125,1.125 0 0 1 1.125,-1.125 1.125,1.125 0 0 1 1.125,1.125 z"
         id="path2502" />
      <path
         style="color:#000000;fill:#37383a;-inkscape-stroke:none"
         d="m 54.314453,3.7226563 c -0.823984,-1e-7 -1.5,0.6760154 -1.5,1.4999999 0,0.8239846 0.676016,1.5 1.5,1.5 0.823985,0 1.5,-0.6760154 1.5,-1.5 0,-0.8239845 -0.676015,-1.4999999 -1.5,-1.4999999 z m 0,0.7499999 c 0.418655,0 0.75,0.3313452 0.75,0.75 0,0.4186549 -0.331345,0.7500001 -0.75,0.75 -0.418655,0 -0.75,-0.3313451 -0.75,-0.75 0,-0.4186548 0.331345,-0.7499999 0.75,-0.75 z"
         id="path2504" />
    </g>
    <path
       fill-rule="evenodd"
       clip-rule="evenodd"
       d="m 35.217636,2.7981768 c -0.0387,-0.36795 -0.4393,-0.57559 -0.744,-0.36564 -1.55,1.06823 -2.6768,2.67961 -3.1334,4.52919 -0.0803,0.3256 0.196,0.6167 0.5296,0.5817 0.2225,-0.0234 0.402,-0.1896 0.4578,-0.4063 0.4019,-1.5617 1.3536,-2.92375 2.6569,-3.84156 0.1607,-0.11314 0.2536,-0.30196 0.2331,-0.49739 z"
       fill="#ffffff"
       id="path1299-1"
       style="mix-blend-mode:luminosity" />
    <circle
       cx="30.356672"
       cy="11.958071"
       r="0.5"
       transform="rotate(-6)"
       fill="#ffffff"
       id="circle1301-7"
       style="mix-blend-mode:luminosity" />
    <path
       style="color:#000000;clip-rule:evenodd;mix-blend-mode:luminosity;fill:#37383a;fill-rule:evenodd;stroke-width:0;-inkscape-stroke:none"
       d="m 29.978336,7.8872268 c 0.0997,-0.0771 0.1648,-0.1897 0.1828,-0.3145 0.0616,-0.4268 -0.4181,-0.766 -0.76,-0.5032 -2.2587,1.7362 -3.4429,3.6621002 -2.9749,5.2941002 0.8697,3.0329 7.1157,3.9028 13.9509,1.9428 6.8352,-1.96 11.6713,-6.0075002 10.8016,-9.0404502 -0.1872,-0.65277 -0.6234,-1.20533 -1.2609,-1.65105 -0.2349,-0.1642 -0.5529,-0.06237 -0.6796,0.19467 l -0.1798,0.36467 c -0.017,0.03454 -0.0041,0.0763 0.0291,0.09577 0.6608,0.3872 1.0023,0.82666 1.1299,1.27159 0.1276,0.4449 0.0708,0.9986 -0.2843,1.6771 -0.3584,0.6847 -0.9943,1.4385 -1.9077,2.203 -1.8245,1.5271002 -4.6084,2.9727002 -7.9239,3.9234002 -3.3155,0.9507 -6.4424,1.2 -8.799,0.8718 -1.1796,-0.1643 -2.1183,-0.4666 -2.7852,-0.8574 -0.6607,-0.3872 -1.0023,-0.8266 -1.1298,-1.2715 -0.1276,-0.4449 -0.0708,-0.9986 0.2843,-1.6771 0.3584,-0.6848002 0.9943,-1.4386002 1.9077,-2.2030002 0.1282,-0.1074 0.2612,-0.2143 0.3988,-0.3207 z m 18.3314,-4.45579 c -0.1124,0.22803 -0.3767,0.33519 -0.6213,0.26589 -0.4158,-0.11779 -0.8786,-0.21398 -1.386,-0.28464 -0.153,-0.02131 -0.3093,-0.04018 -0.4686,-0.05658 -0.1252,-0.0129 -0.2404,-0.07478 -0.3216,-0.17106 -0.278,-0.32992 -0.0491,-0.87105 0.3803,-0.82812 0.7773,0.07772 1.493,0.21058 2.1317,0.39644 0.288,0.08379 0.4181,0.40909 0.2855,0.67807 z"
       id="path2492" />
    <path
       style="color:#000000;clip-rule:evenodd;mix-blend-mode:luminosity;fill:#000000;fill-opacity:1;fill-rule:evenodd;-inkscape-stroke:none"
       d="m 29.978336,7.8872268 c 0.0997,-0.0771 0.1648,-0.1897001 0.1828,-0.3145 0.0616,-0.4267996 -0.4181,-0.7659997 -0.76,-0.5032 -2.258698,1.7361983 -3.4429,3.6621022 -2.9749,5.2941002 0.869699,3.032897 7.115707,3.902798 13.9509,1.9428 6.835193,-1.959998 11.671299,-6.0075032 10.8016,-9.0404502 -0.1872,-0.6527693 -0.623401,-1.2053304 -1.2609,-1.65105 -0.2349,-0.1641998 -0.5529,-0.06237 -0.6796,0.19467 l -0.1798,0.36467 c -0.017,0.03454 -0.0041,0.0763 0.0291,0.09577 0.660799,0.3871996 1.0023,0.8266604 1.1299,1.27159 0.1276,0.4448996 0.0708,0.9986007 -0.2843,1.6771 -0.3584,0.6846993 -0.994301,1.4385008 -1.9077,2.203 -1.824498,1.5270982 -4.608403,2.9727012 -7.9239,3.9234002 -3.315497,0.950699 -6.442402,1.2 -8.799,0.8718 -1.179599,-0.1643 -2.118301,-0.4666 -2.7852,-0.8574 -0.660699,-0.3872 -1.0023,-0.8266 -1.1298,-1.2715 -0.1276,-0.4449 -0.0708,-0.998601 0.2843,-1.6771 0.3584,-0.6847995 0.994301,-1.438601 1.9077,-2.2030002 0.1282,-0.1073999 0.2612,-0.2143001 0.3988,-0.3207 z m 18.3314,-4.45579 c -0.1124,0.2280298 -0.3767,0.3351899 -0.6213,0.26589 -0.4158,-0.1177899 -0.878601,-0.2139801 -1.386,-0.28464 -0.153,-0.02131 -0.3093,-0.04018 -0.4686,-0.05658 -0.1252,-0.0129 -0.2404,-0.07478 -0.3216,-0.17106 -0.278,-0.3299197 -0.0491,-0.87105 0.3803,-0.82812 0.777299,0.07772 1.493001,0.2105802 2.1317,0.39644 0.288,0.08379 0.4181,0.4090903 0.2855,0.67807 z"
       id="path2494" />
    <path
       fill-rule="evenodd"
       clip-rule="evenodd"
       d="m 40.289336,10.248427 c -0.0579,0.3655 0.285,0.666 0.6373,0.5528 5.1129,-1.6431002 8.9484,-4.4388002 9.8233,-6.9785002 0.1347,-0.39076 -0.26,-0.69515 -0.6458,-0.54703 -0.1643,0.06303 -0.287,0.20009 -0.3523,0.36341 -0.0445,0.11124 -0.0976,0.22623 -0.1598,0.34504 -0.3584,0.68475 -0.9943,1.43855 -1.9076,2.20298 -1.6612,1.3904 -4.1176,2.7132 -7.0465,3.6565 -0.183,0.0589 -0.3185,0.2149002 -0.3486,0.4048002 z m -10.9795,1.2436 c 0.0176,-0.1108 -0.0932,-0.1984 -0.198,-0.1582 -0.1286,0.0494 -0.1286,0.2302 0.0032,0.2706 0.0037,0.0012 0.0075,0.0023 0.0113,0.0035 0.0837,0.0255 0.1699,-0.0295 0.1835,-0.1159 z"
       fill="#332d57"
       id="path1308-1"
       style="mix-blend-mode:luminosity;fill:#37383a;fill-opacity:1" />
    <path
       fill-rule="evenodd"
       clip-rule="evenodd"
       d="m 43.519336,14.354127 c -0.0625,0.3949 0.3344,0.7018 0.6957,0.5305 3.407,-1.615 5.8291,-3.7185 6.5019,-5.6708002 0.1346,-0.3908 -0.26,-0.6955 -0.6458,-0.5473 -0.1642,0.063 -0.287,0.2 -0.3523,0.3634 -0.0445,0.1112 -0.0976,0.2262 -0.1597,0.345 -0.3584,0.6848002 -0.9943,1.4386002 -1.9077,2.2030002 -1.011,0.8462 -2.3165,1.6673 -3.8439,2.3932 -0.1531,0.0727 -0.2616,0.2155 -0.2882,0.383 z m -11.21,2.6996 c 0.0467,-0.2952 -0.1752,-0.5641 -0.4733,-0.5856 -0.3135,-0.0227 -0.6164,-0.0545 -0.9075,-0.095 -0.168,-0.0234 -0.331,-0.0496 -0.4892,-0.0784 -0.1052,-0.0192 -0.2137,-0.0103 -0.3136,0.0281 -0.4905,0.1882 -0.4682,0.8415 0.0479,0.9396 0.5069,0.0963 1.0494,0.165 1.6219,0.2053 0.2528,0.0178 0.4741,-0.1637 0.5138,-0.414 z"
       fill="#332d57"
       id="path1310-5"
       style="mix-blend-mode:luminosity;fill:#37383a;fill-opacity:1" />
    <path
       style="color:#000000;mix-blend-mode:luminosity;fill:#e83962;fill-opacity:0.807848;-inkscape-stroke:none"
       d="m 46.242389,-1.8858641 a 1.25,1.25 0 0 1 -1.112492,1.37381291 1.25,1.25 0 0 1 -1.373813,-1.11249181 1.25,1.25 0 0 1 1.112492,-1.3738129 1.25,1.25 0 0 1 1.373813,1.1124918 z"
       id="path2482" />
    <path
       style="color:#000000;mix-blend-mode:luminosity;fill:#37383a;-inkscape-stroke:none"
       d="m 44.815759,-3.4946822 c -0.955313,0.1004074 -1.657896,0.9680251 -1.557489,1.9233381 0.100408,0.95531288 0.968025,1.65789595 1.923338,1.55748852 0.955313,-0.10040743 1.657896,-0.96802526 1.557489,-1.92333812 -0.100408,-0.955313 -0.968025,-1.6578959 -1.923338,-1.5574885 z m 0.104528,0.9945219 c 0.417834,-0.043916 0.780372,0.2496611 0.824288,0.6674951 0.04392,0.4178338 -0.249662,0.7803717 -0.667495,0.8242877 -0.417835,0.0439162 -0.780372,-0.2496612 -0.824288,-0.6674951 -0.04392,-0.4178339 0.249661,-0.7803716 0.667495,-0.8242877 z"
       id="path2484" />
    <circle
       cx="-14.958045"
       cy="37.810524"
       r="0.5"
       transform="rotate(-96)"
       fill="#332d57"
       id="circle1318-7"
       style="mix-blend-mode:luminosity;fill:#37383a;fill-opacity:1" />
    <path
       style="color:#000000;mix-blend-mode:luminosity;fill:#d2e1fb;stroke-width:0.75;-inkscape-stroke:none"
       d="m 33.186774,11.426719 a 0.875,0.875 0 0 1 0.961669,0.778745 0.875,0.875 0 0 1 -0.778744,0.961669 0.875,0.875 0 0 1 -0.961669,-0.778745 0.875,0.875 0 0 1 0.778744,-0.961669 z"
       id="path2474" />
    <path
       style="color:#000000;mix-blend-mode:luminosity;fill:#37383a;-inkscape-stroke:none"
       d="m 32.035169,12.428482 c 0.0717,0.682156 0.691657,1.184189 1.373813,1.112491 0.682156,-0.0717 1.184189,-0.691656 1.112492,-1.373813 -0.0717,-0.682155 -0.691658,-1.184189 -1.373813,-1.112491 -0.682157,0.0717 -1.184189,0.691657 -1.112492,1.373813 z m 0.745892,-0.0784 c -0.02933,-0.279046 0.165949,-0.520196 0.444996,-0.549525 0.279047,-0.02933 0.520196,0.165951 0.549525,0.444997 0.02933,0.279047 -0.165949,0.520196 -0.444996,0.549525 -0.279047,0.02933 -0.520196,-0.16595 -0.549525,-0.444997 z"
       id="path2476" />
    <circle
       cx="35.060711"
       cy="10.332974"
       r="1.625"
       transform="rotate(-6)"
       fill="#86b7e5"
       id="circle1322-7"
       style="mix-blend-mode:luminosity;fill:#92a8d4;fill-opacity:1" />
    <path
       fill-rule="evenodd"
       clip-rule="evenodd"
       d="m 37.316436,6.4677268 c 0.0794,0.7553 -0.4685,1.4319 -1.2237,1.5112 -0.7553,0.0794 -1.4318,-0.4685 -1.5112,-1.2237 -0.0794,-0.7552 0.4685,-1.43182 1.2237,-1.5112 0.3015,-0.03168 0.5905,0.03659 0.8339,0.17811 0.1303,0.07577 0.287,0.10729 0.4277,0.05328 0.2621,-0.10061 0.3461,-0.42944 0.1178,-0.59276 -0.4078,-0.29171 -0.9199,-0.44105 -1.4578,-0.38452 -1.1671,0.12268 -2.0139,1.16829 -1.8912,2.33549 0.1227,1.1672 1.1683,2.0139 2.3355,1.8912 1.1672,-0.1226 2.0139,-1.1683 1.8912,-2.3355 -0.0202,-0.1925 -0.2237,-0.294 -0.4044,-0.2246 l -0.2151,0.0826 c -0.0879,0.0337 -0.1362,0.1268 -0.1264,0.2204 z"
       fill="#332d57"
       id="path1324-3"
       style="mix-blend-mode:luminosity;fill:#37383a;fill-opacity:1" />
  </g>
</svg>
