  <svg width="153" height="139" viewBox="0 0 153 139" fill="none" xmlns="http://www.w3.org/2000/svg">
  <circle cx="76.7949" cy="70.625" r="67.5" fill="white" fill-opacity="0.3"/>
  <circle cx="76.7949" cy="70.625" r="55.5" fill="#89BFF2" stroke="#004955" stroke-width="6"/>
  <mask id="mask0_348_25124" style="mask-type:alpha" maskUnits="userSpaceOnUse" x="24" y="18" width="106" height="106">
  <circle cx="76.7949" cy="70.625" r="52.5" fill="#D2E1FB"/>
  </mask>
  <g mask="url(#mask0_348_25124)">
  <circle cx="64.7949" cy="70.625" r="52.5" fill="#D2E1FB"/>
  </g>
  <mask id="mask1_348_25124" style="mask-type:alpha" maskUnits="userSpaceOnUse" x="24" y="18" width="106" height="106">
  <circle cx="76.7949" cy="70.625" r="52.5" fill="#89BFF2"/>
  </mask>
  <g mask="url(#mask1_348_25124)">
  <circle cx="91.7949" cy="23.375" r="6.75" transform="rotate(-90 91.7949 23.375)" fill="#C5E0EF" stroke="#004955" stroke-width="4.5"/>
  <circle cx="82.0449" cy="120.875" r="7.5" transform="rotate(-90 82.0449 120.875)" stroke="#004955" stroke-width="4.5"/>
  </g>
  <path fill-rule="evenodd" clip-rule="evenodd" d="M59.0703 32.4105C59.0703 30.1906 56.8097 28.7003 54.8602 29.7622C44.9418 35.1645 37.2084 44.0726 33.3245 54.8222C32.6407 56.7148 34.1072 58.6251 36.1196 58.6251C37.4623 58.6251 38.6374 57.7461 39.1061 56.4879C42.4836 47.4218 49.0157 39.8917 57.3678 35.2323C58.3974 34.6579 59.0703 33.5895 59.0703 32.4105ZM77.0703 117.125L77.0236 117.125H77.1169L77.0703 117.125Z" fill="white"/>
  <circle cx="32.8203" cy="65.375" r="3" fill="white"/>
  <path fill-rule="evenodd" clip-rule="evenodd" d="M24.6149 59.4905C25.2582 59.093 25.7173 58.4618 25.903 57.7287C26.5385 55.2207 23.8886 52.8955 21.6837 54.2492C7.11599 63.1931 -1.15814 73.9423 0.610823 83.9746C3.89815 102.618 40.6236 111.726 82.6395 104.317C124.655 96.9086 156.051 75.7893 152.764 57.146C152.056 53.1326 149.799 49.5611 146.273 46.5012C144.974 45.3743 143.013 45.7825 142.096 47.2367L140.796 49.298C140.671 49.4947 140.723 49.7536 140.91 49.8915C144.61 52.6164 146.373 55.453 146.855 58.1878C147.337 60.9227 146.651 64.1911 144.106 68.017C141.538 71.8783 137.271 75.9775 131.341 79.9661C119.496 87.9341 101.978 94.8146 81.5976 98.4082C61.2174 102.002 42.4021 101.528 28.5462 98.0917C21.61 96.3716 16.1982 93.979 12.4643 91.229C8.76461 88.5041 7.0019 85.6676 6.51967 82.9327C6.03744 80.1978 6.72368 76.9295 9.26831 73.1036C11.8364 69.2423 16.1036 65.1431 22.0331 61.1544C22.866 60.5942 23.7269 60.0393 24.6149 59.4905ZM136.792 44.3987C135.978 45.6888 134.334 46.1625 132.918 45.5957C130.511 44.6324 127.811 43.7685 124.828 43.0289C123.929 42.8058 123.008 42.5952 122.068 42.3974C121.329 42.2419 120.681 41.8005 120.257 41.1751C118.804 39.032 120.51 35.9466 123.045 36.472C127.633 37.423 131.82 38.6644 135.514 40.1734C137.18 40.8539 137.752 42.8768 136.792 44.3987Z" fill="#004955"/>
  <mask id="mask2_348_25124" style="mask-type:alpha" maskUnits="userSpaceOnUse" x="18" y="12" width="118" height="118">
  <circle cx="76.7949" cy="70.625" r="55.5" fill="#89BFF2" stroke="#332D57" stroke-width="6"/>
  </mask>
  <g mask="url(#mask2_348_25124)">
  <path fill-rule="evenodd" clip-rule="evenodd" d="M84.6659 80.0483C84.0911 82.1933 85.9486 84.2014 88.1222 83.7467C119.662 77.1491 144.303 62.8723 151.117 48.2663C152.165 46.019 150.001 43.9551 147.606 44.597C146.586 44.8701 145.768 45.611 145.276 46.5445C144.94 47.1803 144.552 47.833 144.106 48.5029C141.538 52.3642 137.271 56.4634 131.342 60.452C120.557 67.7067 105.069 74.06 86.9999 77.8517C85.871 78.0886 84.9644 78.9341 84.6659 80.0483ZM18.3701 80.5828C18.5442 79.933 17.938 79.3414 17.2881 79.5155C16.4899 79.7294 16.3768 80.8077 17.1372 81.1313C17.159 81.1406 17.1808 81.1499 17.2027 81.1591C17.6857 81.3639 18.2343 81.0895 18.3701 80.5828Z" fill="#004955"/>
  <path fill-rule="evenodd" clip-rule="evenodd" d="M101.362 106.574C100.741 108.891 102.916 110.971 105.18 110.176C126.524 102.676 142.298 91.6429 147.537 80.4148C148.586 78.1675 146.422 76.1019 144.027 76.7438C143.007 77.0169 142.189 77.7578 141.697 78.6913C141.361 79.3271 140.973 79.9799 140.527 80.6497C137.959 84.511 133.692 88.6102 127.762 92.5989C121.198 97.0144 112.892 101.096 103.322 104.469C102.362 104.807 101.625 105.592 101.362 106.574ZM32.7769 115.651C33.241 113.919 32.0853 112.175 30.3201 111.86C28.4645 111.528 26.6781 111.149 24.9673 110.724C23.9798 110.48 23.0233 110.221 22.098 109.95C21.4823 109.769 20.8289 109.755 20.2091 109.921C17.1642 110.737 16.887 114.648 19.9054 115.558C22.8689 116.45 26.062 117.2 29.4516 117.799C30.9487 118.064 32.3834 117.12 32.7769 115.651Z" fill="#004955"/>
  </g>
  <circle cx="135.295" cy="111.125" r="4.5" fill="#004955"/>
  <circle cx="77.5449" cy="83.375" r="3" transform="rotate(-90 77.5449 83.375)" fill="#004955"/>
  <circle cx="41.5449" cy="87.875" r="5.25" transform="rotate(-90 41.5449 87.875)" fill="#D2E1FB" stroke="#004955" stroke-width="4.5"/>
  </svg>
