<?xml version="1.0" encoding="UTF-8" standalone="no"?>
<!-- Created with Inkscape (http://www.inkscape.org/) -->

<svg
   width="5.4497385mm"
   height="5.0273972mm"
   viewBox="0 0 5.4497385 5.0273972"
   version="1.1"
   id="svg1795"
   inkscape:version="1.1.2 (0a00cf5339, 2022-02-04)"
   sodipodi:docname="atom-incomplete.svg"
   xmlns:inkscape="http://www.inkscape.org/namespaces/inkscape"
   xmlns:sodipodi="http://sodipodi.sourceforge.net/DTD/sodipodi-0.dtd"
   xmlns="http://www.w3.org/2000/svg"
   xmlns:svg="http://www.w3.org/2000/svg">
  <sodipodi:namedview
     id="namedview1797"
     pagecolor="#ffffff"
     bordercolor="#666666"
     borderopacity="1.0"
     inkscape:pageshadow="2"
     inkscape:pageopacity="0.0"
     inkscape:pagecheckerboard="0"
     inkscape:document-units="mm"
     showgrid="false"
     fit-margin-top="0"
     fit-margin-left="0"
     fit-margin-right="0"
     fit-margin-bottom="0"
     inkscape:zoom="8"
     inkscape:cx="-1.25"
     inkscape:cy="14.8125"
     inkscape:window-width="1920"
     inkscape:window-height="1172"
     inkscape:window-x="0"
     inkscape:window-y="0"
     inkscape:window-maximized="1"
     inkscape:current-layer="layer1" />
  <defs
     id="defs1792">
    <mask
       id="mask1_849_2598"
       maskUnits="userSpaceOnUse"
       x="18"
       y="8"
       width="15"
       height="15">
      <circle
         cx="25.742201"
         cy="15.9551"
         r="7"
         transform="rotate(-6,25.7422,15.9551)"
         fill="#b341ff"
         id="circle1248" />
    </mask>
  </defs>
  <g
     inkscape:label="Layer 1"
     inkscape:groupmode="layer"
     id="layer1"
     transform="translate(-56.414296,-43.771629)">
    <circle
       cx="53.969246"
       cy="52.212677"
       r="2.3812499"
       transform="rotate(-6.0000003)"
       fill="#B341FF"
       fill-opacity="0.3"
       id="circle1244"
       style="fill:#8f9591;fill-opacity:0.74902;stroke:#929292;stroke-width:0.264583;stroke-opacity:0.994814" />
    <circle
       cx="53.969246"
       cy="52.212677"
       r="1.9579166"
       transform="rotate(-6.0000003)"
       fill="#8C12DC"
       stroke="#332D57"
       stroke-width="0.211667"
       id="circle1246"
       style="fill:#0bfeb8;fill-opacity:0.752392;stroke:#37383a;stroke-opacity:1" />
    <g
       mask="url(#mask1_849_2598)"
       id="g1253"
       transform="matrix(0.26458333,0,0,0.26458333,52.320402,42.0639)">
      <circle
         cx="24.1509"
         cy="16.122299"
         r="7"
         transform="rotate(-6,24.1509,16.1223)"
         fill="#b341ff"
         id="circle1251"
         style="fill:#0bfeb8;fill-opacity:1" />
    </g>
    <path
       fill-rule="evenodd"
       clip-rule="evenodd"
       d="m 58.358882,45.010988 c -0.0082,-0.07789 -0.093,-0.121841 -0.15748,-0.07739 -0.328057,0.226113 -0.566526,0.567161 -0.663179,0.958612 -0.01701,0.06892 0.04149,0.130546 0.112104,0.123137 0.0471,-0.005 0.08509,-0.04014 0.09689,-0.08602 0.08506,-0.330517 0.286491,-0.618807 0.562319,-0.813064 0.03402,-0.02397 0.05368,-0.06392 0.04934,-0.105278 z m 0.943901,2.905786 -0.0013,1.33e-4 0.0026,-2.65e-4 z"
       fill="#ffffff"
       id="path1255"
       style="stroke-width:0.264583" />
    <circle
       cx="52.408134"
       cy="52.0275"
       r="0.10583333"
       transform="rotate(-6.0000003)"
       fill="#ffffff"
       id="circle1257"
       style="stroke-width:0.264583" />
    <path
       fill-rule="evenodd"
       clip-rule="evenodd"
       d="m 60.863507,44.581818 c -0.0208,-0.160758 -0.07816,-0.26366 -0.154305,-0.325313 -0.07612,-0.06165 -0.188701,-0.09638 -0.350282,-0.0833 -0.163063,0.0132 -0.362506,0.07475 -0.587005,0.189487 -0.0585,0.0299 -0.118083,0.0631 -0.178488,0.09948 -0.02217,0.01336 -0.04858,0.01763 -0.0739,0.0122 -0.08983,-0.01925 -0.121179,-0.141513 -0.0426,-0.189101 0.559885,-0.339122 1.07069,-0.43198 1.365488,-0.193259 0.519007,0.420285 0.1719,1.709208 -0.775282,2.878878 -0.947182,1.16967 -2.135769,1.77718 -2.654776,1.356889 -0.27133,-0.219736 -0.305964,-0.676857 -0.141843,-1.23026 0.02633,-0.08882 0.153723,-0.08795 0.194098,-0.0046 0.01111,0.02291 0.01341,0.04908 0.0062,0.0735 -0.0057,0.01947 -0.01114,0.03879 -0.0163,0.05794 -0.06556,0.243443 -0.0843,0.451353 -0.06331,0.613595 0.0208,0.160735 0.07818,0.263658 0.154332,0.325306 0.07612,0.06165 0.188701,0.09639 0.350282,0.08329 0.163062,-0.0132 0.362505,-0.07474 0.587004,-0.189494 0.448416,-0.229182 0.960332,-0.652039 1.419781,-1.219385 0.459449,-0.567373 0.766604,-1.156018 0.897572,-1.642322 0.06556,-0.243417 0.0843,-0.451326 0.06329,-0.613558 z"
       fill="#332D57"
       id="path1259"
       style="fill:#37383a;fill-opacity:1;stroke:#bbc3cf;stroke-width:0;stroke-miterlimit:4;stroke-dasharray:none;stroke-opacity:1" />
    <path
       fill-rule="evenodd"
       clip-rule="evenodd"
       d="m 58.534115,47.399646 c -0.01921,0.03903 -0.06069,0.0622 -0.103955,0.05765 -1.153186,-0.121417 -2.006097,-0.574781 -2.015781,-1.130432 -0.0062,-0.356632 0.33618,-0.683287 0.885878,-0.914242 0.08427,-0.03543 0.164333,0.05993 0.12835,0.143987 -0.01045,0.02442 -0.02992,0.04416 -0.0544,0.05453 -0.02987,0.01267 -0.05906,0.02561 -0.08747,0.03881 -0.228627,0.106256 -0.399918,0.225557 -0.510725,0.345916 -0.109776,0.119274 -0.151712,0.229367 -0.150019,0.327316 0.0017,0.09795 0.04749,0.206507 0.161369,0.321866 0.114909,0.116443 0.290275,0.229658 0.522473,0.327871 0.307287,0.12999 0.697627,0.226695 1.13837,0.273447 0.0739,0.0078 0.118771,0.08665 0.08591,0.153273 z m 0.267547,-0.064 c 0.0186,-0.03773 0.05765,-0.06093 0.09972,-0.05987 0.08385,0.0021 0.16899,0.0025 0.255191,9.53e-4 0.729959,-0.01273 1.37832,-0.155787 1.835017,-0.368062 0.228627,-0.106257 0.399918,-0.225531 0.510726,-0.34589 0.109775,-0.119274 0.151712,-0.229367 0.149992,-0.327316 -0.0017,-0.09795 -0.04747,-0.206534 -0.161343,-0.321892 -0.114908,-0.116417 -0.290274,-0.229658 -0.522473,-0.327872 -0.0259,-0.01095 -0.05241,-0.02167 -0.07948,-0.03215 -0.04284,-0.01659 -0.07763,-0.049 -0.098,-0.09017 -0.03596,-0.0726 0.03114,-0.159861 0.107315,-0.132344 0.585258,0.211587 0.95922,0.533876 0.965623,0.900721 0.01167,0.667755 -1.198827,1.230339 -2.703671,1.256612 -0.09054,0.0016 -0.180075,0.0012 -0.268393,-0.0011 -0.07662,-0.002 -0.124116,-0.08284 -0.09022,-0.151607 z"
       fill="#332D57"
       id="path1261"
       style="fill:#37383a;fill-opacity:1;stroke:#bbc3cf;stroke-width:0;stroke-miterlimit:4;stroke-dasharray:none;stroke-opacity:1" />
    <circle
       cx="52.011261"
       cy="50.175362"
       r="0.18520832"
       transform="rotate(-6.0000003)"
       fill="#F7931B"
       id="circle1263"
       style="fill:#fbc82b;fill-opacity:1;stroke-width:0.264583" />
    <circle
       cx="52.408184"
       cy="49.990158"
       r="0.079374999"
       transform="rotate(-6.0000003)"
       fill="#FECD64"
       id="circle1265"
       style="fill:#f7931b;fill-opacity:1;stroke-width:0.264583" />
    <circle
       cx="55.662533"
       cy="54.276424"
       r="0.13229166"
       transform="rotate(-6.0000003)"
       fill="#f7931b"
       id="circle1267"
       style="stroke-width:0.264583" />
    <circle
       cx="-52.60955"
       cy="53.863415"
       r="0.10583333"
       transform="rotate(-96)"
       fill="#332D57"
       id="circle1273"
       style="fill:#37383a;fill-opacity:1;stroke-width:0.264583" />
    <circle
       cx="-52.344929"
       cy="53.598717"
       r="0.13229166"
       transform="rotate(-96)"
       fill="#332D57"
       id="circle1275"
       style="fill:#37383a;fill-opacity:1;stroke-width:0.264583" />
    <circle
       cx="-52.715382"
       cy="53.519421"
       r="0.052916665"
       transform="rotate(-96)"
       fill="#332D57"
       id="circle1277"
       style="fill:#37383a;fill-opacity:1;stroke-width:0.264583" />
  </g>
</svg>
