<svg width="156" height="135" viewBox="0 0 156 135" fill="none" xmlns="http://www.w3.org/2000/svg">
<ellipse cx="77.7602" cy="67.5" rx="67.5" ry="67.5" fill="#B341FF" fill-opacity="0.3"/>
<path d="M133.26 67.5C133.26 98.1518 108.412 123 77.7597 123C47.1079 123 22.2598 98.1518 22.2598 67.5C22.2598 36.8482 47.1079 12 77.7597 12C108.412 12 133.26 36.8482 133.26 67.5Z" fill="#8C12DC" stroke="#004955" stroke-width="6"/>
<mask id="mask0_348_24970" style="mask-type:alpha" maskUnits="userSpaceOnUse" x="25" y="15" width="106" height="105">
<ellipse cx="77.7597" cy="67.5" rx="52.5" ry="52.5" fill="#B341FF"/>
</mask>
<g mask="url(#mask0_348_24970)">
<ellipse cx="65.7597" cy="67.5" rx="52.5" ry="52.5" fill="#B341FF"/>
</g>
<path fill-rule="evenodd" clip-rule="evenodd" d="M59.7596 29.2855C59.7596 27.0656 57.499 25.5753 55.5495 26.6372C45.6312 32.0395 37.8979 40.9476 34.0139 51.6971C33.3301 53.5897 34.7967 55.5001 36.809 55.5001C38.1517 55.5001 39.3268 54.6211 39.7955 53.3629C43.173 44.2968 49.7051 36.7667 58.0572 32.1073C59.0867 31.5329 59.7596 30.4645 59.7596 29.2855Z" fill="white"/>
<ellipse cx="33.5098" cy="62.25" rx="3" ry="3" fill="white"/>
<path fill-rule="evenodd" clip-rule="evenodd" d="M131.639 24.6087C131.529 20.0151 130.217 16.9442 128.253 14.9805C126.289 13.0168 123.218 11.7043 118.625 11.5943C113.989 11.4833 108.183 12.6275 101.515 15.1969C99.7772 15.8665 97.9992 16.6258 96.1885 17.4725C95.5234 17.7835 94.7665 17.8254 94.0686 17.5974C91.5936 16.7884 91.072 13.2489 93.428 12.1401C110.217 4.23891 124.892 3.13462 132.496 10.7379C145.882 24.1241 132.277 59.4318 102.109 89.5998C71.9415 119.768 36.6338 133.372 23.2476 119.986C16.2493 112.988 16.628 99.9977 22.8939 84.8831C23.8995 82.4573 27.4881 82.8595 28.3799 85.3293C28.6249 86.008 28.6121 86.7522 28.3379 87.4196C28.1193 87.9517 27.9089 88.4804 27.7066 89.0054C25.1372 95.6737 23.993 101.479 24.104 106.115C24.214 110.709 25.5266 113.78 27.4902 115.743C29.4539 117.707 32.5248 119.019 37.1184 119.129C41.7543 119.24 47.5597 118.096 54.2281 115.527C67.5491 110.394 83.2335 99.9904 97.8668 85.3571C112.5 70.7238 122.904 55.0394 128.037 41.7184C130.606 35.05 131.75 29.2446 131.639 24.6087Z" fill="#004955"/>
<path fill-rule="evenodd" clip-rule="evenodd" d="M57.6228 97.1443C56.9651 98.187 55.727 98.7179 54.5212 98.4613C22.3712 91.6216 -0.330016 76.3137 1.04296 60.6206C1.9242 50.5479 12.5451 42.3538 28.7259 37.4715C31.2066 36.7229 33.1807 39.6483 31.9177 41.911C31.5507 42.5687 30.9431 43.0677 30.2227 43.2874C29.3427 43.5558 28.4821 43.8342 27.6416 44.1225C20.8818 46.4406 15.6991 49.2957 12.2191 52.3607C8.77094 55.3976 7.26216 58.377 7.02012 61.1435C6.77809 63.91 7.74658 67.1061 10.615 70.6957C13.5099 74.3184 18.118 78.0301 24.3726 81.4868C32.6509 86.0619 43.3685 89.9444 55.6551 92.5683C57.7145 93.0082 58.7463 95.3632 57.6228 97.1443ZM65.3548 96.1327C65.9911 95.124 67.1603 94.5856 68.343 94.7401C70.7011 95.0482 73.0999 95.3103 75.5344 95.5233C96.1503 97.3269 114.853 95.2149 128.356 90.5842C135.116 88.2661 140.299 85.411 143.779 82.346C147.227 79.3091 148.736 76.3297 148.978 73.5632C149.22 70.7967 148.251 67.6006 145.383 64.011C142.488 60.3883 137.88 56.6766 131.625 53.2199C130.927 52.834 130.212 52.4532 129.479 52.0775C128.321 51.4832 127.436 50.4663 126.984 49.2453C126.185 47.0925 128.335 44.8307 130.401 45.8328C146.274 53.5317 155.861 63.725 154.955 74.0861C153.305 92.9451 117.513 105.219 75.0115 101.5C72.4547 101.277 69.9319 101 67.4486 100.674C65.2943 100.391 64.1956 97.9704 65.3548 96.1327Z" fill="#004955"/>
<ellipse cx="74.7598" cy="78.75" rx="3" ry="3" transform="rotate(-90 74.7598 78.75)" fill="#004955"/>
<ellipse cx="67.2598" cy="71.25" rx="3.75" ry="3.75" transform="rotate(-90 67.2598 71.25)" fill="#004955"/>
<ellipse cx="65.0098" cy="81.75" rx="1.5" ry="1.5" transform="rotate(-90 65.0098 81.75)" fill="#004955"/>
</svg>
