<?xml version="1.0" encoding="UTF-8" standalone="no"?>
<!-- Created with Inkscape (http://www.inkscape.org/) -->

<svg
   width="332.54889mm"
   height="292.80905mm"
   viewBox="0 0 332.54889 292.80905"
   version="1.1"
   id="svg41"
   sodipodi:docname="checkbox-checked.svg"
   inkscape:version="1.1.2 (0a00cf5339, 2022-02-04)"
   xmlns:inkscape="http://www.inkscape.org/namespaces/inkscape"
   xmlns:sodipodi="http://sodipodi.sourceforge.net/DTD/sodipodi-0.dtd"
   xmlns="http://www.w3.org/2000/svg"
   xmlns:svg="http://www.w3.org/2000/svg">
  <sodipodi:namedview
     id="namedview43"
     pagecolor="#ffffff"
     bordercolor="#666666"
     borderopacity="1.0"
     inkscape:pageshadow="2"
     inkscape:pageopacity="0"
     inkscape:pagecheckerboard="true"
     inkscape:document-units="mm"
     showgrid="false"
     lock-margins="false"
     scale-x="0.3"
     inkscape:zoom="0.64052329"
     inkscape:cx="505.83641"
     inkscape:cy="484.75989"
     inkscape:window-width="1920"
     inkscape:window-height="1172"
     inkscape:window-x="0"
     inkscape:window-y="0"
     inkscape:window-maximized="1"
     inkscape:current-layer="layer1" />
  <defs
     id="defs38" />
  <g
     inkscape:label="Layer 1"
     inkscape:groupmode="layer"
     id="layer1"
     transform="translate(205.88724,145.16359)">
    <path
       d="m 24.776599,85.500198 c -10.946695,10.946695 -23.6925572,19.540362 -37.88128,25.541112 -14.682612,6.21242 -30.285974,9.3592 -46.379698,9.3592 -16.090195,0 -31.697085,-3.14678 -46.376171,-9.3592 -14.18872,-6.00075 -26.93458,-14.594417 -37.88128,-25.541112 -4.10633,-4.106333 -7.88105,-8.463139 -11.31005,-13.056306 -5.71853,-7.651751 -10.48456,-15.95614 -14.23459,-24.824974 -1.55222,-3.672417 -2.91394,-7.39775 -4.08164,-11.176001 -0.2928,-0.945444 -0.5715,-1.894416 -0.83961,-2.846917 -2.413,-8.558389 -3.84881,-17.363723 -4.28978,-26.3454457 -0.0988,-1.9967223 -0.14816,-4.0005002 -0.14816,-6.0113337 0,-0.91722224 0.0141,-1.83444452 0.0353,-2.748139 0.007,-0.2892778 0.0176,-0.5785556 0.0247,-0.8678334 0.0176,-0.6350001 0.0423,-1.2700001 0.0705,-1.9014724 0.0141,-0.3280833 0.0317,-0.6561667 0.0494,-0.9807222 0.0318,-0.620889 0.0706,-1.2453057 0.11289,-1.8626668 0.0212,-0.3033889 0.0388,-0.6032501 0.0635,-0.9031112 0.0635,-0.8537223 0.13758,-1.7039168 0.22225,-2.5541116 0.0141,-0.144639 0.0282,-0.292805 0.0423,-0.437444 0.0811,-0.790222 0.16934,-1.580445 0.26459,-2.367139 0.0423,-0.335139 0.0882,-0.670278 0.13053,-1.005417 0.0741,-0.564444 0.15169,-1.125361 0.23283,-1.68275 0.0529,-0.370417 0.10936,-0.740833 0.16581,-1.11125 0.0847,-0.53975 0.17286,-1.083028 0.26458,-1.622778 0.06,-0.356306 0.11642,-0.716139 0.18344,-1.072444 0.11995,-0.687917 0.254,-1.379362 0.38806,-2.067278 0.0811,-0.41275 0.1658,-0.8255 0.254,-1.23825 0.127,-0.610306 0.254,-1.217084 0.39158,-1.823862 0.0882,-0.391583 0.17992,-0.786694 0.27517,-1.178278 0.11289,-0.479777 0.22578,-0.956027 0.34572,-1.435805 0.10231,-0.409222 0.20814,-0.821972 0.31397,-1.231195 0.11995,-0.469194 0.24695,-0.934861 0.37395,-1.400528 0.10936,-0.402166 0.21872,-0.804333 0.33514,-1.2065 0.15875,-0.567972 0.33161,-1.132416 0.50094,-1.696861 0.17286,-0.5715 0.34925,-1.143 0.52917,-1.710972 1.10419,-3.467806 2.36361,-6.896806 3.78883,-10.269362 6.00075,-14.188723 14.59442,-26.934585 25.54464,-37.88128 1.25236,-1.252361 2.52942,-2.472972 3.82764,-3.661834 0.37395,-0.338666 0.74789,-0.673805 1.12183,-1.008944 0.30339,-0.271639 0.60678,-0.543278 0.91017,-0.807861 0.37395,-0.328084 0.75142,-0.652639 1.13242,-0.977195 0.31044,-0.264583 0.62441,-0.532694 0.93839,-0.79375 0.37747,-0.3175 0.75494,-0.631472 1.13594,-0.941917 0.32456,-0.261055 0.64911,-0.522111 0.97367,-0.779639 0.37747,-0.303388 0.75847,-0.606777 1.143,-0.906639 0.33514,-0.261055 0.6738,-0.518583 1.01247,-0.776111 0.37747,-0.28575 0.75494,-0.575027 1.13594,-0.860778 0.35984,-0.268111 0.7232,-0.529166 1.08656,-0.790222 0.36689,-0.268111 0.73025,-0.536222 1.10067,-0.797278 0.53269,-0.377472 1.07597,-0.747889 1.61572,-1.118305 0.47978,-0.328084 0.96308,-0.649111 1.44639,-0.970139 0.4445,-0.292806 0.889,-0.589139 1.34055,-0.878417 0.3422,-0.22225 0.68792,-0.433917 1.03364,-0.652639 0.42334,-0.264583 0.84667,-0.532693 1.27353,-0.793753 0.35278,-0.21519 0.70908,-0.42333 1.06186,-0.635 0.43039,-0.25752 0.85725,-0.51152 1.28764,-0.762 0.35631,-0.20461 0.71261,-0.40569 1.06892,-0.60677 0.44097,-0.25048 0.88194,-0.49389 1.32291,-0.73731 0.35278,-0.19403 0.70909,-0.38806 1.06187,-0.57856 0.45861,-0.24341 0.91722,-0.4833 1.37583,-0.72319 0.34572,-0.17992 0.69144,-0.35631 1.04069,-0.53269 0.48684,-0.24695 0.97367,-0.48684 1.46403,-0.72673 0.32808,-0.15875 0.65264,-0.32103 0.98072,-0.47978 0.54681,-0.26105 1.09714,-0.51505 1.651,-0.76905 0.27517,-0.127 0.55034,-0.25753 0.8255,-0.381 0.83256,-0.37395 1.66864,-0.74083 2.51178,-1.09714 14.679086,-6.20889 30.285976,-9.35919 46.376171,-9.35919 16.093724,0 31.697086,3.1503 46.379698,9.35919 0.843139,0.35631 1.675694,0.72319 2.50825,1.09714 0.278694,0.12347 0.553861,0.254 0.8290277,0.381 0.5503333,0.254 1.1006667,0.508 1.6474723,0.76905 0.3316111,0.15875 0.6561667,0.32103 0.9842501,0.47978 0.4903611,0.23989 0.9771945,0.47978 1.4640278,0.72673 0.3457223,0.17638 0.6914445,0.35277 1.0406946,0.53269 0.4586111,0.23989 0.9172222,0.47978 1.3723056,0.72319 0.3563056,0.1905 0.7090834,0.38453 1.0618612,0.57856 0.4445,0.24342 0.8854722,0.48683 1.3264445,0.73731 0.35630558,0.20108 0.71261115,0.40216 1.06538895,0.60677 0.43038892,0.25048 0.86077785,0.50448 1.28763895,0.762 0.3563056,0.21167 0.7090834,0.41981 1.0618612,0.635 0.4268611,0.26106 0.8501945,0.52917 1.2735279,0.793753 0.3457222,0.215195 0.6949722,0.430389 1.0371667,0.652639 0.4480278,0.28575 0.8925278,0.582083 1.3370279,0.878417 0.4903611,0.324555 0.9807222,0.652639 1.4675556,0.98425 0.5326945,0.363361 1.0689167,0.73025 1.5980834,1.104194 0.3704167,0.264584 0.7337779,0.532695 1.1006666,0.797278 0.363361,0.264584 0.726722,0.525639 1.083028,0.790222 0.384528,0.285751 0.762,0.575028 1.139472,0.864306 0.338667,0.254 0.677334,0.511528 1.012473,0.772583 0.384527,0.299862 0.762,0.599723 1.143,0.903112 0.324555,0.261055 0.649111,0.522111 0.973666,0.783166 0.381,0.310445 0.758473,0.624417 1.135945,0.941917 0.313972,0.261056 0.627944,0.529167 0.941917,0.79375 0.377472,0.324556 0.751416,0.649111 1.125361,0.977195 0.306917,0.264583 0.610305,0.536222 0.913694,0.807861 0.373945,0.335139 0.747889,0.670278 1.118306,1.008944 1.30175,1.188862 2.578806,2.409473 3.831167,3.661834 10.946695,10.946695 19.540362,23.692557 25.541113,37.88128 1.42875,3.376084 2.688166,6.805084 3.792361,10.27289 0.179917,0.567972 0.356306,1.132416 0.525639,1.700389 0.172861,0.567972 0.342194,1.135944 0.504472,1.703916 0.116417,0.402167 0.22225,0.804334 0.335139,1.2065 0.127,0.465667 0.250472,0.931334 0.373944,1.400528 0.105834,0.409223 0.211667,0.821973 0.313973,1.234723 0.119944,0.47625 0.232833,0.9525 0.345722,1.432277 0.09172,0.391584 0.186972,0.786695 0.275167,1.178278 0.137583,0.606778 0.264583,1.213556 0.391583,1.823862 0.08467,0.41275 0.169333,0.8255 0.254,1.23825 0.134056,0.687916 0.264583,1.379361 0.388056,2.067278 0.0635,0.356305 0.123472,0.716138 0.183444,1.072444 0.09172,0.53975 0.179917,1.083028 0.264583,1.622778 0.05645,0.370417 0.112889,0.740833 0.165806,1.11125 0.08114,0.557389 0.15875,1.118306 0.229306,1.68275 0.04586,0.335139 0.09172,0.670278 0.130527,1.005417 0.09525,0.786694 0.186973,1.576917 0.264584,2.367139 0.01764,0.144639 0.03175,0.292805 0.04586,0.437444 0.08467,0.8501948 0.155222,1.7003893 0.22225,2.5541116 0.02117,0.2998611 0.04233,0.5997223 0.05997,0.9031112 0.04586,0.6173611 0.08467,1.2417778 0.116417,1.8626668 0.01764,0.3245555 0.03528,0.6526389 0.04939,0.9807222 0.02822,0.6314723 0.04939,1.2664723 0.07056,1.9014724 0.0071,0.2892778 0.01764,0.5785556 0.02469,0.8678334 0.02117,0.91369448 0.03175,1.83091676 0.03175,2.748139 0,2.0108335 -0.04939,4.0146114 -0.144639,6.0113337 C 59.063073,16.729694 57.482629,26.014806 54.822684,35.017695 53.55974,39.286306 52.067489,43.48789 50.317712,47.618918 46.945156,55.598752 42.7471,63.123502 37.772933,70.129669 33.906488,75.576559 29.567321,80.709476 24.776599,85.500198 Z M 86.738492,-6.1408909 c -0.05997,-1.224139 -0.134056,-2.448278 -0.225778,-3.6688892 -0.04586,-0.6103059 -0.09525,-1.2170829 -0.148167,-1.8273889 -1.319389,-15.215307 -4.988278,-30.00728 -10.953751,-44.114864 -0.148166,-0.345722 -0.296333,-0.687917 -0.4445,-1.033639 -0.0035,0 -0.0035,0.0035 -0.0071,0.0035 -7.351889,-17.018001 -17.744723,-32.32503 -30.917446,-45.501278 -0.04939,-0.0494 -0.102306,-0.0952 -0.151695,-0.14464 0,0 0.0035,0 0.0035,0 -0.215195,-0.21167 -0.433917,-0.41981 -0.645584,-0.62795 -0.617361,-0.6103 -1.234722,-1.21708 -1.862666,-1.81328 -0.218723,-0.21166 -0.448028,-0.41627 -0.670278,-0.62441 -0.635,-0.59973 -1.273528,-1.19945 -1.922639,-1.78506 -0.218722,-0.20108 -0.4445,-0.39511 -0.66675,-0.59267 -0.656167,-0.58913 -1.308806,-1.17475 -1.975556,-1.74977 -0.22225,-0.19403 -0.455083,-0.381 -0.680861,-0.57503 -0.66675,-0.56797 -1.3335,-1.13947 -2.010833,-1.69686 -0.225778,-0.18697 -0.458612,-0.36689 -0.687917,-0.55034 -0.680861,-0.55738 -1.361723,-1.11125 -2.053167,-1.651 -0.232833,-0.18344 -0.472722,-0.35983 -0.705556,-0.54327 -0.691444,-0.5327 -1.382889,-1.06892 -2.081389,-1.59103 -0.250472,-0.18345 -0.504472,-0.36336 -0.751416,-0.54681 -0.694973,-0.508 -1.386417,-1.01952 -2.088445,-1.51694 -0.261055,-0.18697 -0.529167,-0.36336 -0.79375,-0.55033 -0.694972,-0.48331 -1.386417,-0.97014 -2.088445,-1.44287 -0.289277,-0.19402 -0.582083,-0.381 -0.874888,-0.5715 -0.680862,-0.45508 -1.365251,-0.90663 -2.053167,-1.34761 -0.321028,-0.20461 -0.649111,-0.40216 -0.970139,-0.60677 -0.66675,-0.41628 -1.3335,-0.83962 -2.007306,-1.24531 -0.352778,-0.2152 -0.712611,-0.41981 -1.068917,-0.63147 -0.649111,-0.38453 -1.298222,-0.77259 -1.950861,-1.15006 -0.398639,-0.22578 -0.804333,-0.4445 -1.2065,-0.67028 -0.617361,-0.34572 -1.234722,-0.6985 -1.862667,-1.03716 -0.4586109,-0.25048 -0.9278053,-0.48684 -1.3899443,-0.73025 -0.5715,-0.30339 -1.143,-0.61031 -1.7215556,-0.90664 -0.5397501,-0.27517 -1.0900834,-0.53975 -1.6333612,-0.81139 -0.5080001,-0.25047 -1.0124723,-0.50447 -1.5204724,-0.75142 -0.6738056,-0.32455 -1.3546667,-0.635 -2.0320001,-0.94544 -0.3915833,-0.17992 -0.7761111,-0.36689 -1.1676945,-0.54328 -1.07244451,-0.48683 -2.1519446,-0.95956 -3.242028,-1.41817 -18.0586959,-7.63764 -37.2321689,-11.51114 -56.9912539,-11.51114 -19.755556,0 -38.932558,3.8735 -56.991248,11.51114 -1.08656,0.45861 -2.16606,0.93134 -3.24203,1.41817 -0.39864,0.17992 -0.79375,0.37042 -1.18886,0.55386 -0.67028,0.31045 -1.34408,0.61383 -2.00731,0.93486 -0.52564,0.25047 -1.04069,0.51506 -1.5628,0.77259 -0.52917,0.26458 -1.06539,0.52211 -1.59456,0.79022 -0.58208,0.29986 -1.15711,0.60678 -1.73214,0.91369 -0.45861,0.23989 -0.92075,0.47625 -1.37936,0.7232 -0.62794,0.34219 -1.25236,0.69497 -1.87678,1.04422 -0.39511,0.22225 -0.79375,0.43744 -1.18886,0.66322 -0.65616,0.37747 -1.30528,0.76906 -1.95791,1.15358 -0.35278,0.21167 -0.71262,0.41275 -1.06187,0.62795 -0.6738,0.40569 -1.34055,0.82903 -2.0073,1.24531 -0.32103,0.20461 -0.64911,0.40216 -0.97014,0.60677 -0.69497,0.44098 -1.37936,0.89959 -2.06728,1.35467 -0.28575,0.1905 -0.57503,0.37394 -0.86078,0.56444 -0.70202,0.47273 -1.397,0.95956 -2.09197,1.44639 -0.26458,0.18345 -0.52917,0.36336 -0.79375,0.54681 -0.70203,0.50094 -1.40053,1.01247 -2.0955,1.524 -0.24342,0.17992 -0.49389,0.3563 -0.74083,0.53975 -0.6985,0.52211 -1.39347,1.05833 -2.08492,1.59455 -0.23283,0.17992 -0.46919,0.35631 -0.70203,0.53975 -0.69497,0.54328 -1.37936,1.10067 -2.06375,1.65453 -0.22577,0.18345 -0.45508,0.36336 -0.67733,0.54681 -0.68086,0.56091 -1.35114,1.13241 -2.02142,1.70744 -0.22577,0.1905 -0.45155,0.37395 -0.67027,0.56445 -0.67028,0.57855 -1.32645,1.16769 -1.98614,1.75683 -0.21873,0.19756 -0.44098,0.38806 -0.6597,0.58561 -0.64911,0.58914 -1.28764,1.19239 -1.92969,1.79211 -0.21872,0.20814 -0.4445,0.40923 -0.66323,0.61736 -0.62794,0.59973 -1.24883,1.21003 -1.86619,1.82034 -0.21167,0.20814 -0.42686,0.40922 -0.63853,0.62089 0,0 0,0 0,0 -0.0494,0.0494 -0.0988,0.0953 -0.14816,0.14464 -13.17273,13.176248 -23.56556,28.483277 -30.91745,45.501278 -0.004,0 -0.004,-0.0035 -0.007,-0.0035 -0.14816,0.345722 -0.29986,0.687917 -0.4445,1.033639 -5.969,14.107584 -9.63789,28.899557 -10.95727,44.114864 -0.0529,0.610306 -0.0988,1.217083 -0.14464,1.8273889 -0.0917,1.2206112 -0.16581,2.4447502 -0.22931,3.6688892 -0.11994,2.4518057 -0.17992,4.9106669 -0.17992,7.3801115 0,2.4694446 0.06,4.9318337 0.17992,7.3801116 0.0635,1.2276668 0.13758,2.4482778 0.22931,3.6688888 0.0459,0.610306 0.0917,1.220612 0.14464,1.827389 1.31938,15.218835 4.98827,30.00728 10.95727,44.114864 7.37306,17.434279 17.92817,33.090558 31.36901,46.531396 13.44083,13.44083 29.09711,23.99594 46.53139,31.37253 18.05869,7.63764 37.235692,11.50761 56.991248,11.50761 19.759085,0 38.932558,-3.86997 56.9912539,-11.50761 C 14.944682,128.75781 30.597433,118.2027 44.041795,104.76187 57.482629,91.321032 68.034213,75.664753 75.410796,58.230474 81.376269,44.12289 85.045158,29.334445 86.364547,14.11561 c 0.05292,-0.606777 0.102306,-1.217083 0.148167,-1.827389 0.09172,-1.220611 0.165805,-2.441222 0.225778,-3.6688888 0.119944,-2.4482779 0.183444,-4.910667 0.183444,-7.3801116 0,-2.4694446 -0.0635,-4.9283058 -0.183444,-7.3801115"
       style="fill:#d0f3fe;fill-opacity:1;fill-rule:nonzero;stroke:none;stroke-width:0.0352778"
       id="path22" />
    <path
       d="m -123.66179,-52.51356 v 0 c 8.29381,-5.076472 19.21581,-2.448277 24.295807,5.834945 l 44.400615,72.49231 6.720417,-11.557 c 19.169946,-29.869697 81.470505,-106.115563 164.655511,-130.460755 12.65414,-3.71123 13.62781,-1.1677 2.72697,5.34811 C 42.796416,-65.128894 -16.653699,18.652306 -40.512062,64.83092 l -1.315861,2.582334 c -3.81,7.454196 -14.869584,8.889996 -21.844001,5.880806 -5.909028,-2.582334 -8.561919,-8.060973 -11.705169,-13.211529 L -129.4932,-28.231864 c -5.06589,-8.279694 -2.44828,-19.201695 5.83141,-24.281696 v 0"
       style="fill:rgb(255, 23, 132);fill-opacity:1;fill-rule:evenodd;stroke:none;stroke-width:0.0352778"
       id="path16" />
  </g>
</svg>
