<?xml version="1.0" encoding="UTF-8" standalone="no"?>
<!-- Created with Inkscape (http://www.inkscape.org/) -->

<svg
   width="80.793221mm"
   height="61.955276mm"
   viewBox="0 0 80.79322 61.955277"
   version="1.1"
   id="svg878"
   fill="currentColor"
   inkscape:version="1.1.2 (0a00cf5339, 2022-02-04)"
   sodipodi:docname="circled-pen.svg"
   xmlns:inkscape="http://www.inkscape.org/namespaces/inkscape"
   xmlns:sodipodi="http://sodipodi.sourceforge.net/DTD/sodipodi-0.dtd"
   xmlns="http://www.w3.org/2000/svg"
   xmlns:svg="http://www.w3.org/2000/svg">
  <sodipodi:namedview
     id="namedview880"
     pagecolor="#ffffff"
     bordercolor="#666666"
     borderopacity="1.0"
     inkscape:pageshadow="2"
     inkscape:pageopacity="0.0"
     inkscape:pagecheckerboard="0"
     inkscape:document-units="mm"
     showgrid="false"
     inkscape:zoom="0.64052329"
     inkscape:cx="85.867292"
     inkscape:cy="127.23971"
     inkscape:window-width="1920"
     inkscape:window-height="1172"
     inkscape:window-x="0"
     inkscape:window-y="0"
     inkscape:window-maximized="1"
     inkscape:current-layer="layer1" />
  <defs
     id="defs875" />
  <g
     inkscape:label="Layer 1"
     inkscape:groupmode="layer"
     id="layer1"
     transform="translate(-81.997069,-15.484625)">
    <path
       d="m 161.12048,41.442928 c -0.22274,-1.264025 -1.75724,-3.340348 -2.5771,-4.498025 -1.06219,-1.50103 -2.13816,-2.768094 -3.11401,-3.748523 -2.54083,-2.548307 -5.1027,-3.85791 -8.05564,-4.947726 -8.8218,-3.258308 -16.55893,-3.507468 -25.99163,-2.698207 -2.1933,0.187374 -4.31985,0.722155 -6.44422,1.049303 -7.21909,1.110072 -14.80894,3.368707 -21.695008,7.196232 -3.399141,1.88996 -6.748945,4.662104 -8.48443,8.246548 -1.769584,3.652303 -1.916143,9.095308 -0.322864,12.74356 3.892506,8.917049 12.083093,13.624732 20.944082,15.593694 7.13347,1.586108 14.88075,2.484498 22.33928,1.199203 7.77848,-1.337962 13.92668,-3.242102 20.19169,-7.046332 2.98269,-1.811972 5.99584,-3.913616 8.48516,-6.897444 2.35146,-2.81671 4.74574,-6.829584 5.37042,-11.244557 0.19154,-1.363283 0.23798,-2.126965 -0.32286,-3.748523 0.0617,0.555037 -0.28949,0.928775 -0.5369,0.598589 0.14366,-0.853825 0.29892,-1.319731 0.21403,-1.797792 z M 127.07393,19.702304 c -4.03108,-1.223511 -9.535,-1.54053 -15.03603,-1.499004 -5.23619,0.0395 -10.35195,1.177934 -15.036021,2.39942 12.340661,-7.171923 30.378231,-6.076031 42.745741,-1.200217 3.46661,1.366323 7.23505,3.423402 10.9556,5.397428 3.73434,1.982129 7.2249,4.41396 9.34347,7.796847 1.24284,1.982129 1.48155,3.972361 2.04093,7.047345 0.26047,1.429118 0.5681,3.023329 0.64428,4.347112 0.84961,14.660868 -7.74366,21.335487 -14.60651,25.639047 -7.3272,4.593233 -17.06753,7.574023 -26.42115,7.796847 -4.50849,0.106349 -9.24407,-0.460843 -13.63937,-1.349104 C 103.71455,75.196853 99.261927,73.969293 95.283082,71.578987 88.333163,67.405071 81.177917,59.429965 82.07323,44.441949 82.930814,30.063663 95.64585,25.969763 104.09038,23.300927 c 7.69141,-2.43183 14.74145,-3.432517 22.98355,-3.598623"
       style="fill-opacity:1;fill-rule:evenodd;stroke:none;stroke-width:0.00857235"
       id="path26" />
  </g>
</svg>
