<svg width="372" height="136" viewBox="0 0 372 136" fill="none" xmlns="http://www.w3.org/2000/svg">
<g opacity="0.4">
<mask id="path-1-outside-1_8312_6447" maskUnits="userSpaceOnUse" x="-218" y="-1" width="591" height="139" fill="black">
<rect fill="white" x="-218" y="-1" width="591" height="139"/>
<path d="M-202.05 136L-216.6 136L-216.6 0.199991L-128.33 0.19999L-128.33 8.92999L-132.21 12.81L-202.05 12.81L-202.05 67.13L-147.73 67.13L-147.73 79.74L-202.05 79.74L-202.05 136ZM-82.6566 136L-97.2066 136L-97.2066 0.19999L-37.0666 0.199989C-32.0226 0.199989 -27.5606 1.16999 -23.2926 2.72199C-19.0246 4.27399 -15.5326 6.60199 -12.4286 9.31799C-9.51863 12.228 -7.19064 15.526 -5.63864 19.406C-4.08664 23.286 -3.11664 27.554 -3.11664 32.21L-3.11664 50.64C-3.11664 57.624 -4.47464 63.056 -7.19064 67.13C-9.90664 71.204 -13.0106 74.308 -16.1146 76.248C-19.9946 78.964 -24.4566 80.71 -29.3066 81.68L0.763361 130.18L0.763361 136L-13.7866 136L-43.8566 82.65L-82.6566 82.65L-82.6566 136ZM-37.0666 12.81L-82.6566 12.81L-82.6566 70.04L-37.0666 70.04C-34.3506 70.04 -31.8286 69.652 -29.5006 68.488C-27.1726 67.518 -25.2326 66.16 -23.4866 64.414C-21.7406 62.668 -20.3826 60.534 -19.2186 58.206C-18.2486 55.878 -17.6666 53.356 -17.6666 50.64L-17.6666 32.21C-17.6666 29.494 -18.2486 26.972 -19.2186 24.644C-20.3826 22.316 -21.7406 20.376 -23.4866 18.63C-25.2326 16.884 -27.1726 15.526 -29.5006 14.362C-31.8286 13.392 -34.3506 12.81 -37.0666 12.81ZM49.3164 101.08L37.6764 136L23.1264 136L23.1264 130.18L70.6564 0.199989L87.1464 0.199989L134.676 130.18L134.676 136L120.126 136L108.486 101.08L49.3164 101.08ZM103.636 88.47L79.3864 17.66L78.4164 17.66L54.1664 88.47L103.636 88.47ZM253.107 123.39L253.107 136L196.847 136C191.803 136 187.147 135.224 182.879 133.672C178.611 132.12 175.119 129.792 172.209 126.882C169.105 124.166 166.777 120.674 165.225 116.794C163.673 112.914 162.897 108.646 162.897 103.99L162.897 32.21C162.897 27.554 163.673 23.286 165.225 19.406C166.777 15.526 169.105 12.228 172.209 9.31799C175.119 6.60199 178.611 4.27399 182.879 2.72199C187.147 1.16999 191.803 0.199988 196.847 0.199988L253.107 0.199987L253.107 8.92999L249.227 12.81L196.847 12.81C194.131 12.81 191.609 13.392 189.281 14.362C186.953 15.526 184.819 16.884 183.073 18.63C181.327 20.376 179.969 22.316 178.999 24.644C177.835 26.972 177.447 29.494 177.447 32.21L177.447 103.99C177.447 106.706 177.835 109.228 178.999 111.556C179.969 113.884 181.327 116.018 183.073 117.764C184.819 119.51 186.953 120.868 189.281 121.838C191.609 123.002 194.131 123.39 196.847 123.39L253.107 123.39ZM328.782 12.81L328.782 136L314.232 136L314.232 12.81L271.552 12.81L271.552 0.199987L371.462 0.199987L371.462 8.92999L367.582 12.81L328.782 12.81Z"/>
</mask>
<path d="M-202.05 136L-202.05 137.137L-200.913 137.137L-200.913 136L-202.05 136ZM-216.6 136L-217.737 136L-217.737 137.137L-216.6 137.137L-216.6 136ZM-216.6 0.199991L-216.6 -0.936935L-217.737 -0.936935L-217.737 0.199991L-216.6 0.199991ZM-128.33 0.19999L-127.193 0.19999L-127.193 -0.936935L-128.33 -0.936935L-128.33 0.19999ZM-128.33 8.92999L-127.526 9.73392L-127.193 9.40092L-127.193 8.92999L-128.33 8.92999ZM-132.21 12.81L-132.21 13.9469L-131.739 13.9469L-131.406 13.6139L-132.21 12.81ZM-202.05 12.81L-202.05 11.6731L-203.187 11.6731L-203.187 12.81L-202.05 12.81ZM-202.05 67.13L-203.187 67.13L-203.187 68.2669L-202.05 68.2669L-202.05 67.13ZM-147.73 67.13L-146.593 67.13L-146.593 65.9931L-147.73 65.9931L-147.73 67.13ZM-147.73 79.74L-147.73 80.8769L-146.593 80.8769L-146.593 79.74L-147.73 79.74ZM-202.05 79.74L-202.05 78.6031L-203.187 78.6031L-203.187 79.74L-202.05 79.74ZM-202.05 134.863L-216.6 134.863L-216.6 137.137L-202.05 137.137L-202.05 134.863ZM-215.463 136L-215.463 0.199991L-217.737 0.199991L-217.737 136L-215.463 136ZM-216.6 1.33692L-128.33 1.33692L-128.33 -0.936935L-216.6 -0.936935L-216.6 1.33692ZM-129.467 0.199991L-129.467 8.92999L-127.193 8.92999L-127.193 0.19999L-129.467 0.199991ZM-129.134 8.12607L-133.014 12.0061L-131.406 13.6139L-127.526 9.73392L-129.134 8.12607ZM-132.21 11.6731L-202.05 11.6731L-202.05 13.9469L-132.21 13.9469L-132.21 11.6731ZM-203.187 12.81L-203.187 67.13L-200.913 67.13L-200.913 12.81L-203.187 12.81ZM-202.05 68.2669L-147.73 68.2669L-147.73 65.9931L-202.05 65.9931L-202.05 68.2669ZM-148.867 67.13L-148.867 79.74L-146.593 79.74L-146.593 67.13L-148.867 67.13ZM-147.73 78.6031L-202.05 78.6031L-202.05 80.8769L-147.73 80.8769L-147.73 78.6031ZM-203.187 79.74L-203.187 136L-200.913 136L-200.913 79.74L-203.187 79.74ZM-82.6566 136L-82.6566 137.137L-81.5197 137.137L-81.5197 136L-82.6566 136ZM-97.2066 136L-98.3436 136L-98.3436 137.137L-97.2066 137.137L-97.2066 136ZM-97.2066 0.19999L-97.2066 -0.936935L-98.3436 -0.936935L-98.3436 0.19999L-97.2066 0.19999ZM-23.2926 2.72199L-22.9041 1.65352V1.65352L-23.2926 2.72199ZM-12.4286 9.31799L-11.6247 8.51406L-11.6515 8.48729L-11.68 8.46236L-12.4286 9.31799ZM-5.63864 19.406L-6.69424 19.8282L-6.69424 19.8282L-5.63864 19.406ZM-16.1146 76.248L-16.7172 75.2839L-16.7423 75.2996L-16.7666 75.3166L-16.1146 76.248ZM-29.3066 81.68L-29.5296 80.5652L-31.1363 80.8865L-30.2729 82.2791L-29.3066 81.68ZM0.763368 130.18L1.90028 130.18L1.90028 129.856L1.72963 129.581L0.763368 130.18ZM0.763368 136L0.763368 137.137L1.90028 137.137L1.90028 136L0.763368 136ZM-13.7866 136L-14.7771 136.558L-14.4509 137.137L-13.7866 137.137L-13.7866 136ZM-43.8566 82.65L-42.8662 82.0917L-43.1924 81.5131L-43.8566 81.5131L-43.8566 82.65ZM-82.6566 82.65L-82.6566 81.5131L-83.7936 81.5131L-83.7936 82.65L-82.6566 82.65ZM-82.6566 12.81L-82.6566 11.6731L-83.7936 11.6731L-83.7936 12.81L-82.6566 12.81ZM-82.6566 70.04L-83.7936 70.04L-83.7936 71.1769L-82.6566 71.1769L-82.6566 70.04ZM-29.5006 68.488L-29.9379 67.4385L-29.9741 67.4536L-30.0091 67.4711L-29.5006 68.488ZM-19.2186 58.206L-18.2017 58.7144L-18.1842 58.6794L-18.1692 58.6433L-19.2186 58.206ZM-19.2186 24.644L-18.1692 24.2067L-18.1842 24.1706L-18.2017 24.1355L-19.2186 24.644ZM-29.5006 14.362L-28.9922 13.3451L-29.0272 13.3276L-29.0634 13.3125L-29.5006 14.362ZM-82.6566 134.863L-97.2066 134.863L-97.2066 137.137L-82.6566 137.137L-82.6566 134.863ZM-96.0697 136L-96.0697 0.19999L-98.3436 0.19999L-98.3436 136L-96.0697 136ZM-97.2066 1.33692L-37.0666 1.33691L-37.0666 -0.936936L-97.2066 -0.936935L-97.2066 1.33692ZM-37.0666 1.33691C-32.177 1.33691 -27.847 2.27563 -23.6812 3.79047L-22.9041 1.65352C-27.2743 0.0643478 -31.8683 -0.936936 -37.0666 -0.936936L-37.0666 1.33691ZM-23.6812 3.79047C-19.5758 5.28332 -16.203 7.52616 -13.1773 10.1736L-11.68 8.46236C-14.8623 5.67782 -18.4734 3.26467 -22.9041 1.65352L-23.6812 3.79047ZM-13.2326 10.1219C-10.4144 12.9401 -8.18076 16.112 -6.69424 19.8282L-4.58302 18.9838C-6.20053 14.94 -8.62286 11.5159 -11.6247 8.51406L-13.2326 10.1219ZM-6.69424 19.8282C-5.18916 23.5909 -4.25356 27.7159 -4.25356 32.21L-1.97971 32.21C-1.97971 27.3921 -2.9841 22.9811 -4.58302 18.9838L-6.69424 19.8282ZM-4.25356 32.21L-4.25355 50.64L-1.97971 50.64L-1.97971 32.21L-4.25356 32.21ZM-4.25355 50.64C-4.25355 57.4873 -5.58621 62.6737 -8.13663 66.4993L-6.24466 67.7606C-3.36307 63.4383 -1.97971 57.7607 -1.97971 50.64L-4.25355 50.64ZM-8.13663 66.4993C-10.7837 70.4699 -13.7783 73.4471 -16.7172 75.2839L-15.5121 77.2121C-12.2429 75.1689 -9.02962 71.9381 -6.24466 67.7606L-8.13663 66.4993ZM-16.7666 75.3166C-20.4961 77.9272 -24.8054 79.6203 -29.5296 80.5652L-29.0837 82.7948C-24.1078 81.7997 -19.4932 80.0008 -15.4627 77.1794L-16.7666 75.3166ZM-30.2729 82.2791L-0.20291 130.779L1.72963 129.581L-28.3404 81.0809L-30.2729 82.2791ZM-0.373565 130.18L-0.373565 136L1.90028 136L1.90028 130.18L-0.373565 130.18ZM0.763368 134.863L-13.7866 134.863L-13.7866 137.137L0.763368 137.137L0.763368 134.863ZM-12.7962 135.442L-42.8662 82.0917L-44.8471 83.2082L-14.7771 136.558L-12.7962 135.442ZM-43.8566 81.5131L-82.6566 81.5131L-82.6566 83.7869L-43.8566 83.7869L-43.8566 81.5131ZM-83.7936 82.65L-83.7936 136L-81.5197 136L-81.5197 82.65L-83.7936 82.65ZM-37.0666 11.6731L-82.6566 11.6731L-82.6566 13.9469L-37.0666 13.9469L-37.0666 11.6731ZM-83.7936 12.81L-83.7936 70.04L-81.5197 70.04L-81.5197 12.81L-83.7936 12.81ZM-82.6566 71.1769L-37.0666 71.1769L-37.0666 68.9031L-82.6566 68.9031L-82.6566 71.1769ZM-37.0666 71.1769C-34.2451 71.1769 -31.5312 70.7744 -28.9922 69.5049L-30.0091 67.4711C-32.1261 68.5296 -34.4562 68.9031 -37.0666 68.9031L-37.0666 71.1769ZM-29.0634 69.5375C-26.5856 68.5051 -24.5236 67.0588 -22.6827 65.2179L-24.2906 63.6101C-25.9417 65.2612 -27.7597 66.5309 -29.9379 67.4385L-29.0634 69.5375ZM-22.6827 65.2179C-20.8197 63.3549 -19.3969 61.1048 -18.2017 58.7144L-20.2355 57.6975C-21.3683 59.9632 -22.6616 61.9811 -24.2906 63.6101L-22.6827 65.2179ZM-18.1692 58.6433C-17.1482 56.193 -16.5297 53.5227 -16.5297 50.64L-18.8036 50.64C-18.8036 53.1892 -19.3491 55.563 -20.2681 57.7687L-18.1692 58.6433ZM-16.5297 50.64L-16.5297 32.21L-18.8036 32.21L-18.8036 50.64L-16.5297 50.64ZM-16.5297 32.21C-16.5297 29.3272 -17.1482 26.657 -18.1692 24.2067L-20.2681 25.0813C-19.3491 27.2869 -18.8036 29.6607 -18.8036 32.21L-16.5297 32.21ZM-18.2017 24.1355C-19.4141 21.7108 -20.8409 19.6679 -22.6827 17.8261L-24.2906 19.4339C-22.6404 21.0841 -21.3512 22.9212 -20.2355 25.1524L-18.2017 24.1355ZM-22.6827 17.8261C-24.5245 15.9843 -26.5675 14.5575 -28.9922 13.3451L-30.0091 15.3789C-27.7778 16.4945 -25.9408 17.7837 -24.2906 19.4339L-22.6827 17.8261ZM-29.0634 13.3125C-31.5137 12.2916 -34.1839 11.6731 -37.0666 11.6731L-37.0666 13.9469C-34.5174 13.9469 -32.1436 14.4924 -29.9379 15.4115L-29.0634 13.3125ZM49.3164 101.08L49.3164 99.9431L48.4969 99.9431L48.2378 100.72L49.3164 101.08ZM37.6764 136L37.6764 137.137L38.4959 137.137L38.755 136.36L37.6764 136ZM23.1264 136L21.9895 136L21.9895 137.137L23.1264 137.137L23.1264 136ZM23.1264 130.18L22.0586 129.79L21.9895 129.979L21.9895 130.18L23.1264 130.18ZM70.6564 0.199989L70.6564 -0.936937L69.8616 -0.936937L69.5886 -0.190466L70.6564 0.199989ZM87.1464 0.199989L88.2142 -0.190466L87.9412 -0.936937L87.1464 -0.936937L87.1464 0.199989ZM134.676 130.18L135.813 130.18L135.813 129.979L135.744 129.79L134.676 130.18ZM134.676 136L134.676 137.137L135.813 137.137L135.813 136L134.676 136ZM120.126 136L119.048 136.36L119.307 137.137L120.126 137.137L120.126 136ZM108.486 101.08L109.565 100.72L109.306 99.9431L108.486 99.9431L108.486 101.08ZM103.636 88.47L103.636 89.6069L105.228 89.6069L104.712 88.1016L103.636 88.47ZM79.3864 17.66L80.462 17.2916L80.1988 16.5231L79.3864 16.5231L79.3864 17.66ZM78.4164 17.66L78.4164 16.5231L77.604 16.5231L77.3408 17.2916L78.4164 17.66ZM54.1664 88.47L53.0908 88.1016L52.5753 89.6069L54.1664 89.6069L54.1664 88.47ZM48.2378 100.72L36.5978 135.64L38.755 136.36L50.395 101.44L48.2378 100.72ZM37.6764 134.863L23.1264 134.863L23.1264 137.137L37.6764 137.137L37.6764 134.863ZM24.2633 136L24.2633 130.18L21.9895 130.18L21.9895 136L24.2633 136ZM24.1942 130.57L71.7242 0.590443L69.5886 -0.190466L22.0586 129.79L24.1942 130.57ZM70.6564 1.33691L87.1464 1.33691L87.1464 -0.936937L70.6564 -0.936937L70.6564 1.33691ZM86.0786 0.590443L133.609 130.57L135.744 129.79L88.2142 -0.190466L86.0786 0.590443ZM133.539 130.18L133.539 136L135.813 136L135.813 130.18L133.539 130.18ZM134.676 134.863L120.126 134.863L120.126 137.137L134.676 137.137L134.676 134.863ZM121.205 135.64L109.565 100.72L107.408 101.44L119.048 136.36L121.205 135.64ZM108.486 99.9431L49.3164 99.9431L49.3164 102.217L108.486 102.217L108.486 99.9431ZM104.712 88.1016L80.462 17.2916L78.3108 18.0284L102.561 88.8384L104.712 88.1016ZM79.3864 16.5231L78.4164 16.5231L78.4164 18.7969L79.3864 18.7969L79.3864 16.5231ZM77.3408 17.2916L53.0908 88.1016L55.242 88.8384L79.492 18.0284L77.3408 17.2916ZM54.1664 89.6069L103.636 89.6069L103.636 87.3331L54.1664 87.3331L54.1664 89.6069ZM253.107 123.39L254.244 123.39L254.244 122.253L253.107 122.253L253.107 123.39ZM253.107 136L253.107 137.137L254.244 137.137L254.244 136L253.107 136ZM182.879 133.672L182.491 134.74L182.879 133.672ZM172.209 126.882L173.013 126.078L172.987 126.051L172.958 126.026L172.209 126.882ZM165.225 116.794L166.281 116.372L166.281 116.372L165.225 116.794ZM165.225 19.406L166.281 19.8282L166.281 19.8282L165.225 19.406ZM172.209 9.31799L171.434 8.48683L171.432 8.48856L172.209 9.31799ZM253.107 0.199988L254.244 0.199988L254.244 -0.936938L253.107 -0.936938L253.107 0.199988ZM253.107 8.92999L253.911 9.73392L254.244 9.40092L254.244 8.92999L253.107 8.92999ZM249.227 12.81L249.227 13.9469L249.698 13.9469L250.031 13.6139L249.227 12.81ZM189.281 14.362L188.844 13.3125L188.808 13.3276L188.773 13.3451L189.281 14.362ZM183.073 18.63L183.877 19.4339L183.073 18.63ZM178.999 24.644L180.016 25.1524L180.034 25.1174L180.049 25.0813L178.999 24.644ZM178.999 111.556L180.049 111.119L180.034 111.083L180.016 111.048L178.999 111.556ZM183.073 117.764L183.877 116.96L183.877 116.96L183.073 117.764ZM189.281 121.838L189.79 120.821L189.755 120.804L189.719 120.789L189.281 121.838ZM251.97 123.39L251.97 136L254.244 136L254.244 123.39L251.97 123.39ZM253.107 134.863L196.847 134.863L196.847 137.137L253.107 137.137L253.107 134.863ZM196.847 134.863C191.921 134.863 187.398 134.106 183.268 132.604L182.491 134.74C186.896 136.342 191.685 137.137 196.847 137.137L196.847 134.863ZM183.268 132.604C179.163 131.111 175.811 128.876 173.013 126.078L171.405 127.686C174.427 130.708 178.06 133.129 182.491 134.74L183.268 132.604ZM172.958 126.026C170.006 123.444 167.775 120.108 166.281 116.372L164.17 117.216C165.779 121.24 168.204 124.888 171.461 127.738L172.958 126.026ZM166.281 116.372C164.788 112.641 164.034 108.518 164.034 103.99L161.76 103.99C161.76 108.774 162.558 113.187 164.17 117.216L166.281 116.372ZM164.034 103.99L164.034 32.21L161.76 32.21L161.76 103.99L164.034 103.99ZM164.034 32.21C164.034 27.6821 164.788 23.5594 166.281 19.8282L164.17 18.9838C162.558 23.0125 161.76 27.4258 161.76 32.21L164.034 32.21ZM166.281 19.8282C167.766 16.115 169.994 12.9531 172.987 10.1474L171.432 8.48856C168.216 11.5029 165.788 14.937 164.17 18.9838L166.281 19.8282ZM172.985 10.1491C175.798 7.52396 179.161 5.28383 183.268 3.79047L182.491 1.65351C178.062 3.26415 174.441 5.68001 171.434 8.48683L172.985 10.1491ZM183.268 3.79047C187.428 2.2778 191.952 1.33691 196.847 1.33691L196.847 -0.936937C191.654 -0.936937 186.867 0.0621729 182.491 1.65351L183.268 3.79047ZM196.847 1.33691L253.107 1.33691L253.107 -0.936938L196.847 -0.936937L196.847 1.33691ZM251.97 0.199988L251.97 8.92999L254.244 8.92999L254.244 0.199988L251.97 0.199988ZM252.303 8.12606L248.423 12.0061L250.031 13.6139L253.911 9.73392L252.303 8.12606ZM249.227 11.6731L196.847 11.6731L196.847 13.9469L249.227 13.9469L249.227 11.6731ZM196.847 11.6731C193.965 11.6731 191.294 12.2916 188.844 13.3125L189.719 15.4115C191.924 14.4924 194.298 13.9469 196.847 13.9469L196.847 11.6731ZM188.773 13.3451C186.383 14.5403 184.132 15.9631 182.269 17.8261L183.877 19.4339C185.506 17.8049 187.524 16.5117 189.79 15.3789L188.773 13.3451ZM182.269 17.8261C180.429 19.6669 178.982 21.729 177.95 24.2067L180.049 25.0813C180.956 22.903 182.226 21.0851 183.877 19.4339L182.269 17.8261ZM177.982 24.1355C176.713 26.6745 176.31 29.3884 176.31 32.21L178.584 32.21C178.584 29.5996 178.958 27.2695 180.016 25.1524L177.982 24.1355ZM176.31 32.21L176.31 103.99L178.584 103.99L178.584 32.21L176.31 32.21ZM176.31 103.99C176.31 106.812 176.713 109.525 177.982 112.064L180.016 111.048C178.958 108.931 178.584 106.6 178.584 103.99L176.31 103.99ZM177.95 111.993C178.969 114.439 180.405 116.703 182.269 118.568L183.877 116.96C182.25 115.333 180.97 113.329 180.049 111.119L177.95 111.993ZM182.269 118.568C184.134 120.433 186.398 121.868 188.844 122.887L189.719 120.789C187.509 119.868 185.505 118.587 183.877 116.96L182.269 118.568ZM188.773 122.855C191.312 124.124 194.026 124.527 196.847 124.527L196.847 122.253C194.237 122.253 191.907 121.88 189.79 120.821L188.773 122.855ZM196.847 124.527L253.107 124.527L253.107 122.253L196.847 122.253L196.847 124.527ZM328.782 12.81L328.782 11.6731L327.646 11.6731L327.646 12.81L328.782 12.81ZM328.782 136L328.782 137.137L329.919 137.137L329.919 136L328.782 136ZM314.232 136L313.096 136L313.096 137.137L314.232 137.137L314.232 136ZM314.232 12.81L315.369 12.81L315.369 11.6731L314.232 11.6731L314.232 12.81ZM271.552 12.81L270.416 12.81L270.416 13.9469L271.552 13.9469L271.552 12.81ZM271.552 0.199988L271.552 -0.936938L270.416 -0.936938L270.416 0.199988L271.552 0.199988ZM371.463 0.199987L372.599 0.199987L372.599 -0.936939L371.463 -0.936939L371.463 0.199987ZM371.463 8.92999L372.266 9.73392L372.599 9.40092L372.599 8.92999L371.463 8.92999ZM367.582 12.81L367.582 13.9469L368.053 13.9469L368.386 13.6139L367.582 12.81ZM327.646 12.81L327.646 136L329.919 136L329.919 12.81L327.646 12.81ZM328.782 134.863L314.232 134.863L314.232 137.137L328.782 137.137L328.782 134.863ZM315.369 136L315.369 12.81L313.096 12.81L313.096 136L315.369 136ZM314.232 11.6731L271.552 11.6731L271.552 13.9469L314.232 13.9469L314.232 11.6731ZM272.689 12.81L272.689 0.199988L270.416 0.199988L270.416 12.81L272.689 12.81ZM271.552 1.33691L371.463 1.33691L371.463 -0.936939L271.552 -0.936938L271.552 1.33691ZM370.326 0.199987L370.326 8.92999L372.599 8.92999L372.599 0.199987L370.326 0.199987ZM370.659 8.12606L366.779 12.0061L368.386 13.6139L372.266 9.73392L370.659 8.12606ZM367.582 11.6731L328.782 11.6731L328.782 13.9469L367.582 13.9469L367.582 11.6731Z" fill="#A2EAC4" mask="url(#path-1-outside-1_8312_6447)"/>
</g>
</svg>
