<?xml version="1.0" encoding="UTF-8" standalone="no"?>
<!-- Created with Inkscape (http://www.inkscape.org/) -->

<svg
   width="241.73288"
   height="249.12881"
   viewBox="0 0 64.065005 66.351839"
   version="1.1"
   id="svg7261"
   inkscape:version="1.1.2 (0a00cf5339, 2022-02-04)"
   sodipodi:docname="line-corner-vector-2.svg"
   xmlns:inkscape="http://www.inkscape.org/namespaces/inkscape"
   xmlns:sodipodi="http://sodipodi.sourceforge.net/DTD/sodipodi-0.dtd"
   xmlns="http://www.w3.org/2000/svg"
   xmlns:svg="http://www.w3.org/2000/svg">
  <sodipodi:namedview
     id="namedview7263"
     borderopacity="1.0"
     inkscape:pageshadow="2"
     inkscape:pageopacity="0"
     inkscape:pagecheckerboard="true"
     inkscape:document-units="mm"
     showgrid="false"
     inkscape:zoom="11.313709"
     inkscape:cx="-19.754796"
     inkscape:cy="233.12427"
     inkscape:window-width="1920"
     inkscape:window-height="1172"
     inkscape:window-x="0"
     inkscape:window-y="0"
     inkscape:window-maximized="1"
     inkscape:current-layer="layer1"
     units="px"
     width="220.36638px"
     pagecolor="#ffffff"
     bordercolor="#666666" />
  <defs
     id="defs7258" />
  <g
     inkscape:label="Layer 1"
     inkscape:groupmode="layer"
     id="layer1"
     transform="translate(-45.244326,-64.989753)">
    <path
       id="path2514"
       style="fill:#fefefe;fill-opacity:0.75;fill-rule:evenodd;stroke:#d0f3fe;stroke-width:0.25"
       d="m 84.055181,70.385689 11.934974,5.205079 v -2.734376 c 3.878831,0.01972 7.763835,-0.03935 11.638835,0.0293 0.99034,0.22593 0.98762,0.960174 1.04579,1.680591 l 0.0486,24.32846 c -17.610379,0.01607 -41.447245,0.0076 -59.054593,0.04107 -2.009703,0.04431 -4.379912,1.294161 -4.447281,3.470461 0.01834,6.49409 0.02649,22.09044 0.07782,28.5719 0.350217,0.34941 0.188001,0.24062 0.557717,0.13263 l -0.0011,-12.09598 0.02239,-16.87072 c 0.06805,-1.48382 1.957517,-2.840623 4.502511,-2.779916 l 58.810386,-0.01362 c -0.005,-8.5904 0.0106,-17.181558 -0.008,-25.771484 -0.24547,-1.136135 -1.66225,-1.24256 -2.6247,-1.164063 H 95.12355 v 2.232422 C 91.865446,73.226688 88.606513,71.80777 85.348996,70.38572 88.606521,68.963689 91.86544,67.544741 95.12355,66.124002 v 2.232421 c 3.012459,0.41049 23.17864,0.0058 8.80905,-0.414813 -2.6475,-0.0096 -5.295,-0.01898 -7.942498,-0.02855 v -2.732422 l -11.934973,5.205078 z"
       sodipodi:nodetypes="cccccccccccccccccccccccccc" />
  </g>
</svg>
