<?xml version="1.0" encoding="UTF-8" standalone="no"?>
<!-- Created with Inkscape (http://www.inkscape.org/) -->

<svg
style="color: #d0f3fe"
   width="32.358227"
   height="20.452446"
   viewBox="0 0 12.842171 8.1170645"
   version="1.1"
   id="svg426"
   inkscape:version="1.1.2 (0a00cf5339, 2022-02-04)"
   sodipodi:docname="lower-scale-icon.svg"
   xmlns:inkscape="http://www.inkscape.org/namespaces/inkscape"
   xmlns:sodipodi="http://sodipodi.sourceforge.net/DTD/sodipodi-0.dtd"
   xmlns="http://www.w3.org/2000/svg"
   xmlns:svg="http://www.w3.org/2000/svg">
  <sodipodi:namedview
     id="namedview428"
     pagecolor="#ffffff"
     bordercolor="#666666"
     borderopacity="1.0"
     inkscape:pageshadow="2"
     inkscape:pageopacity="0.0"
     inkscape:pagecheckerboard="0"
     inkscape:document-units="mm"
     showgrid="false"
     inkscape:zoom="10.248373"
     inkscape:cx="12.489788"
     inkscape:cy="19.076199"
     inkscape:window-width="1920"
     inkscape:window-height="1172"
     inkscape:window-x="0"
     inkscape:window-y="0"
     inkscape:window-maximized="1"
     inkscape:current-layer="layer1"
     units="px"
     scale-x="1.5" />
  <defs
     id="defs423" />
  <g
     inkscape:label="Layer 1"
     inkscape:groupmode="layer"
     id="layer1"
     transform="translate(31.618584,9.4284909)">
    <path
       d="m -31.618584,-2.6138822 2.23132,1.2883445 v -0.6353528 h 0.998714 c 1.152878,0 2.450395,-0.307975 3.191228,-1.4714362 0.741186,1.1634612 2.037997,1.4714362 3.191228,1.4714362 h 0.998714 v 0.649464 l 2.230967,-1.2883446 -2.230967,-1.2883445 v 0.6353528 h -0.998714 c -1.780822,0 -2.507192,-0.7690556 -2.507192,-2.6539474 v -2.8758446 c 0,-0.3566583 -0.288925,-0.6459361 -0.645936,-0.6459361 -0.0127,0 -0.0254,0.00318 -0.0381,0.00388 -0.01305,-7.055e-4 -0.02505,-0.00388 -0.03845,-0.00388 -0.356305,0 -0.645583,0.2892778 -0.645583,0.6459361 v 2.8758446 c 0,1.8848918 -0.72637,2.6539474 -2.507192,2.6539474 h -0.998714 v -0.6494639 l -2.23132,1.2883445"
       style="fill:currentColor;fill-opacity:1;fill-rule:nonzero;stroke:none;stroke-width:0.0352778"
       id="path284" />
  </g>
</svg>
