<svg width="327" height="238" viewBox="0 0 327 238" fill="none" xmlns="http://www.w3.org/2000/svg">
<path d="M157.973 141.24C156.709 141.24 155.581 140.96 154.589 140.4C153.597 139.824 152.813 139.04 152.237 138.048C151.661 137.056 151.373 135.928 151.373 134.664C151.373 133.4 151.661 132.272 152.237 131.28C152.813 130.288 153.597 129.512 154.589 128.952C155.581 128.376 156.709 128.088 157.973 128.088C159.221 128.088 160.341 128.376 161.333 128.952C162.325 129.512 163.101 130.288 163.661 131.28C164.237 132.272 164.525 133.4 164.525 134.664C164.525 135.928 164.237 137.056 163.661 138.048C163.101 139.04 162.325 139.824 161.333 140.4C160.341 140.96 159.221 141.24 157.973 141.24ZM157.973 138.624C158.661 138.624 159.269 138.448 159.797 138.096C160.341 137.744 160.765 137.272 161.069 136.68C161.389 136.088 161.541 135.416 161.525 134.664C161.541 133.896 161.389 133.216 161.069 132.624C160.765 132.032 160.341 131.568 159.797 131.232C159.269 130.88 158.661 130.704 157.973 130.704C157.285 130.704 156.661 130.88 156.101 131.232C155.557 131.568 155.133 132.04 154.829 132.648C154.525 133.24 154.373 133.912 154.373 134.664C154.373 135.416 154.525 136.088 154.829 136.68C155.133 137.272 155.557 137.744 156.101 138.096C156.661 138.448 157.285 138.624 157.973 138.624ZM167.166 141V128.352H170.07L170.118 132.384L169.71 131.472C169.886 130.832 170.19 130.256 170.622 129.744C171.054 129.232 171.55 128.832 172.11 128.544C172.686 128.24 173.286 128.088 173.91 128.088C174.182 128.088 174.438 128.112 174.678 128.16C174.934 128.208 175.142 128.264 175.302 128.328L174.51 131.568C174.334 131.472 174.118 131.392 173.862 131.328C173.606 131.264 173.35 131.232 173.094 131.232C172.694 131.232 172.31 131.312 171.942 131.472C171.59 131.616 171.278 131.824 171.006 132.096C170.734 132.368 170.518 132.688 170.358 133.056C170.214 133.408 170.142 133.808 170.142 134.256V141H167.166Z" fill="white"/>
<path d="M1.52062 18V16.816H3.32862V7.984H1.52062V6.8H6.38462V7.984H4.57662V16.816H6.38462V18H1.52062ZM9.51 18V7.456H10.71V18H9.51ZM7.622 10.8V9.648H12.822V10.8H7.622ZM13.8635 9.968L13.4155 9.392C13.7675 9.21067 14.0502 9.008 14.2635 8.784C14.4768 8.56 14.5835 8.34667 14.5835 8.144C14.5835 8.016 14.5462 7.89867 14.4715 7.792C14.3968 7.67467 14.2902 7.55733 14.1515 7.44C13.9915 7.312 13.8742 7.18933 13.7995 7.072C13.7248 6.95467 13.6875 6.832 13.6875 6.704C13.6875 6.48 13.7622 6.304 13.9115 6.176C14.0608 6.03733 14.2582 5.968 14.5035 5.968C14.7595 5.968 14.9835 6.032 15.1755 6.16C15.3675 6.288 15.5168 6.46933 15.6235 6.704C15.7408 6.928 15.7995 7.19467 15.7995 7.504C15.7995 7.77067 15.7515 8.02667 15.6555 8.272C15.5702 8.50667 15.4422 8.73067 15.2715 8.944C15.1115 9.14667 14.9088 9.33867 14.6635 9.52C14.4288 9.69067 14.1622 9.84 13.8635 9.968ZM20.2196 18.16C19.505 18.16 18.865 18.0267 18.2996 17.76C17.7343 17.4933 17.2863 17.1413 16.9556 16.704L17.8036 15.968C18.113 16.3413 18.4756 16.624 18.8916 16.816C19.3183 17.008 19.793 17.104 20.3156 17.104C20.5823 17.104 20.8223 17.0773 21.0356 17.024C21.249 16.96 21.4356 16.8693 21.5956 16.752C21.7556 16.6347 21.8783 16.496 21.9636 16.336C22.049 16.176 22.0916 16 22.0916 15.808C22.0916 15.456 21.937 15.1627 21.6276 14.928C21.489 14.832 21.2916 14.736 21.0356 14.64C20.7796 14.5333 20.4703 14.432 20.1076 14.336C19.5103 14.1653 19.0143 13.9947 18.6196 13.824C18.225 13.6427 17.9156 13.4347 17.6916 13.2C17.5316 13.008 17.409 12.8 17.3236 12.576C17.249 12.352 17.2116 12.1067 17.2116 11.84C17.2116 11.4987 17.281 11.184 17.4196 10.896C17.569 10.608 17.7716 10.3573 18.0276 10.144C18.2943 9.92 18.6036 9.75467 18.9556 9.648C19.3183 9.53067 19.7076 9.472 20.1236 9.472C20.5183 9.472 20.9076 9.52533 21.2916 9.632C21.6756 9.73867 22.033 9.89333 22.3636 10.096C22.6943 10.2987 22.977 10.5387 23.2116 10.816L22.4756 11.616C22.273 11.4027 22.049 11.2107 21.8036 11.04C21.5583 10.8693 21.297 10.736 21.0196 10.64C20.753 10.544 20.4756 10.496 20.1876 10.496C19.9316 10.496 19.6916 10.528 19.4676 10.592C19.2543 10.656 19.0676 10.7467 18.9076 10.864C18.7583 10.9707 18.641 11.104 18.5556 11.264C18.481 11.424 18.4436 11.6 18.4436 11.792C18.4436 11.952 18.4756 12.096 18.5396 12.224C18.6036 12.352 18.6943 12.464 18.8116 12.56C18.961 12.6773 19.169 12.7893 19.4356 12.896C19.713 12.992 20.0543 13.0933 20.4596 13.2C20.929 13.328 21.3236 13.4613 21.6436 13.6C21.9743 13.728 22.2463 13.8827 22.4596 14.064C22.7476 14.2773 22.9503 14.5227 23.0676 14.8C23.1956 15.0773 23.2596 15.392 23.2596 15.744C23.2596 16.2133 23.1263 16.6293 22.8596 16.992C22.6036 17.3547 22.2463 17.6427 21.7876 17.856C21.329 18.0587 20.8063 18.16 20.2196 18.16ZM30.1362 18V7.456H31.3362V18H30.1362ZM28.2482 10.8V9.648H33.4482V10.8H28.2482ZM34.9218 18V9.648H36.1218V18H34.9218ZM35.5138 7.84C35.2151 7.84 34.9858 7.76533 34.8258 7.616C34.6764 7.456 34.6018 7.24267 34.6018 6.976C34.6018 6.70933 34.6818 6.496 34.8418 6.336C35.0018 6.176 35.2258 6.096 35.5138 6.096C35.8018 6.096 36.0258 6.176 36.1858 6.336C36.3458 6.48533 36.4258 6.69867 36.4258 6.976C36.4258 7.232 36.3458 7.44 36.1858 7.6C36.0258 7.76 35.8018 7.84 35.5138 7.84ZM38.4064 18V9.648H39.6064L39.6384 11.552L39.3984 11.632C39.4837 11.312 39.6224 11.024 39.8144 10.768C40.017 10.5013 40.257 10.272 40.5344 10.08C40.8117 9.888 41.1157 9.744 41.4464 9.648C41.777 9.54133 42.1237 9.488 42.4864 9.488C42.9237 9.488 43.313 9.56267 43.6544 9.712C44.0064 9.85067 44.2997 10.096 44.5344 10.448C44.7797 10.7893 44.9664 11.2427 45.0944 11.808L44.8064 11.664L44.9184 11.392C45.025 11.1467 45.1797 10.912 45.3824 10.688C45.5957 10.4533 45.8357 10.2453 46.1024 10.064C46.3797 9.88267 46.6784 9.744 46.9984 9.648C47.329 9.54133 47.665 9.488 48.0064 9.488C48.593 9.488 49.089 9.616 49.4944 9.872C49.8997 10.1173 50.2037 10.496 50.4064 11.008C50.6197 11.52 50.7264 12.1707 50.7264 12.96V18H49.4944V13.024C49.4944 12.4693 49.425 12.016 49.2864 11.664C49.1477 11.312 48.9397 11.0507 48.6624 10.88C48.3957 10.6987 48.0544 10.608 47.6384 10.608C47.2757 10.608 46.9397 10.672 46.6304 10.8C46.3317 10.9173 46.0704 11.088 45.8464 11.312C45.633 11.5253 45.4624 11.7707 45.3344 12.048C45.217 12.3253 45.1584 12.624 45.1584 12.944V18H43.9424V13.008C43.9424 12.4747 43.8677 12.032 43.7184 11.68C43.5797 11.328 43.3717 11.0613 43.0944 10.88C42.817 10.6987 42.4757 10.608 42.0704 10.608C41.7184 10.608 41.393 10.672 41.0944 10.8C40.7957 10.9173 40.5344 11.0827 40.3104 11.296C40.097 11.5093 39.9264 11.7547 39.7984 12.032C39.681 12.3093 39.6224 12.608 39.6224 12.928V18H38.4064ZM56.3605 18.16C55.5285 18.16 54.7872 17.9787 54.1365 17.616C53.4965 17.2533 52.9952 16.7467 52.6325 16.096C52.2698 15.4453 52.0885 14.6987 52.0885 13.856C52.0885 13.2053 52.1898 12.6187 52.3925 12.096C52.5952 11.5627 52.8778 11.0987 53.2405 10.704C53.6138 10.3093 54.0565 10.0053 54.5685 9.792C55.0805 9.568 55.6352 9.456 56.2325 9.456C56.7978 9.456 57.3098 9.55733 57.7685 9.76C58.2378 9.96267 58.6378 10.2453 58.9685 10.608C59.3098 10.96 59.5658 11.3813 59.7365 11.872C59.9072 12.3627 59.9818 12.9013 59.9605 13.488L59.9445 14.048H52.9845L52.8085 13.04H59.0325L58.7445 13.312V12.928C58.7232 12.544 58.6112 12.176 58.4085 11.824C58.2058 11.4613 57.9178 11.168 57.5445 10.944C57.1818 10.72 56.7445 10.608 56.2325 10.608C55.6352 10.608 55.1178 10.7307 54.6805 10.976C54.2432 11.2107 53.9072 11.5627 53.6725 12.032C53.4378 12.5013 53.3205 13.0827 53.3205 13.776C53.3205 14.4373 53.4485 15.0133 53.7045 15.504C53.9605 15.984 54.3232 16.3573 54.7925 16.624C55.2725 16.8907 55.8485 17.024 56.5205 17.024C56.9152 17.024 57.3045 16.96 57.6885 16.832C58.0832 16.6933 58.5152 16.4267 58.9845 16.032L59.6085 16.896C59.3632 17.1413 59.0698 17.36 58.7285 17.552C58.3872 17.7333 58.0138 17.8827 57.6085 18C57.2032 18.1067 56.7872 18.16 56.3605 18.16ZM66.6612 18V7.456H67.8612V18H66.6612ZM64.7732 10.8V9.648H69.9732V10.8H64.7732ZM74.7446 18.16C73.9126 18.16 73.1713 17.9733 72.5206 17.6C71.8806 17.2267 71.374 16.7093 71.0006 16.048C70.638 15.3867 70.4566 14.6347 70.4566 13.792C70.4566 12.96 70.638 12.2187 71.0006 11.568C71.374 10.9173 71.8806 10.4053 72.5206 10.032C73.1713 9.65867 73.9126 9.472 74.7446 9.472C75.566 9.472 76.2966 9.65867 76.9366 10.032C77.5873 10.4053 78.094 10.9173 78.4566 11.568C78.83 12.2187 79.0166 12.96 79.0166 13.792C79.0166 14.6347 78.83 15.3867 78.4566 16.048C78.094 16.7093 77.5873 17.2267 76.9366 17.6C76.2966 17.9733 75.566 18.16 74.7446 18.16ZM74.7446 17.024C75.3313 17.024 75.854 16.8853 76.3126 16.608C76.7713 16.32 77.1286 15.936 77.3846 15.456C77.6406 14.9653 77.7686 14.4107 77.7686 13.792C77.7686 13.1733 77.6406 12.624 77.3846 12.144C77.1286 11.664 76.7713 11.2907 76.3126 11.024C75.854 10.7467 75.3313 10.608 74.7446 10.608C74.158 10.608 73.63 10.7467 73.1606 11.024C72.702 11.2907 72.3393 11.6693 72.0726 12.16C71.8166 12.64 71.694 13.184 71.7046 13.792C71.694 14.4107 71.8166 14.9653 72.0726 15.456C72.3393 15.936 72.702 16.32 73.1606 16.608C73.63 16.8853 74.158 17.024 74.7446 17.024Z" fill="white"/>
<mask id="path-3-outside-1_8312_6657" maskUnits="userSpaceOnUse" x="0" y="34" width="125" height="39" fill="black">
<rect fill="white" y="34" width="125" height="39"/>
<path d="M19.92 65.44L10.08 41.92H9.84L6.48 70H2.88V68.56L7.2 36.4H11.52L21.6 60.64H21.84L31.92 36.4H36.24L40.56 68.56V70H36.96L33.6 41.92H33.36L23.52 65.44H19.92ZM66.9731 70H64.8131L64.3331 66.64H64.0931C63.7091 67.36 63.1811 67.984 62.6051 68.56C62.0771 69.088 61.4531 69.52 60.7331 69.904C59.9651 70.288 59.1011 70.48 58.0931 70.48H54.2531C51.9491 70.48 50.1731 69.856 48.9251 68.56C47.6771 67.312 47.0531 65.68 47.0531 63.76V62.32C47.0531 61.36 47.1971 60.496 47.5811 59.68C47.9171 58.864 48.3971 58.144 49.0211 57.52C49.6451 56.944 50.4131 56.464 51.2771 56.128C52.1411 55.792 53.1491 55.6 54.2531 55.6H63.6131V52.24C63.6131 51.184 63.2291 50.272 62.5091 49.504C61.7411 48.784 60.8291 48.4 59.7731 48.4H49.2131V45.52H59.7731C60.8291 45.52 61.8371 45.712 62.7011 46.048C63.5651 46.384 64.3331 46.864 64.9571 47.44C65.5811 48.064 66.0611 48.784 66.4451 49.6C66.7811 50.416 66.9731 51.28 66.9731 52.24V70ZM54.2531 67.6H58.0931C58.9571 67.6 59.7731 67.408 60.4451 66.928C61.1171 66.496 61.7411 66.016 62.2211 65.44C62.7491 64.816 63.2291 64.096 63.6131 63.28V58.48H54.2531C53.1491 58.48 52.2371 58.864 51.5171 59.584C50.7491 60.352 50.4131 61.264 50.4131 62.32V63.76C50.4131 64.864 50.7491 65.776 51.5171 66.496C52.2371 67.264 53.1491 67.6 54.2531 67.6ZM86.4262 55.84L92.1862 45.52H95.5462V46.96L89.3062 57.28L96.0262 68.56V70H92.6662L86.4262 58.72H79.9462V70H76.5862V36.4H79.9462V55.84H86.4262ZM121.449 70H109.929C107.625 70 105.849 69.376 104.601 68.08C103.353 66.832 102.729 65.2 102.729 63.28V51.76C102.729 50.8 102.873 49.936 103.257 49.12C103.593 48.304 104.073 47.584 104.697 46.96C105.321 46.384 106.089 45.904 106.953 45.568C107.817 45.232 108.825 45.04 109.929 45.04H115.209C116.265 45.04 117.273 45.232 118.137 45.568C119.001 45.904 119.769 46.384 120.393 46.96C121.017 47.584 121.497 48.304 121.881 49.12C122.217 49.936 122.409 50.8 122.409 51.76V59.2H106.089V63.28C106.089 64.384 106.425 65.296 107.193 66.016C107.913 66.784 108.825 67.12 109.929 67.12H121.449V70ZM106.089 51.76V56.32H119.049V51.76C119.049 50.704 118.665 49.792 117.945 49.024C117.177 48.304 116.265 47.92 115.209 47.92H109.929C108.825 47.92 107.913 48.304 107.193 49.024C106.425 49.792 106.089 50.704 106.089 51.76Z"/>
</mask>
<path d="M19.92 65.44L10.08 41.92H9.84L6.48 70H2.88V68.56L7.2 36.4H11.52L21.6 60.64H21.84L31.92 36.4H36.24L40.56 68.56V70H36.96L33.6 41.92H33.36L23.52 65.44H19.92ZM66.9731 70H64.8131L64.3331 66.64H64.0931C63.7091 67.36 63.1811 67.984 62.6051 68.56C62.0771 69.088 61.4531 69.52 60.7331 69.904C59.9651 70.288 59.1011 70.48 58.0931 70.48H54.2531C51.9491 70.48 50.1731 69.856 48.9251 68.56C47.6771 67.312 47.0531 65.68 47.0531 63.76V62.32C47.0531 61.36 47.1971 60.496 47.5811 59.68C47.9171 58.864 48.3971 58.144 49.0211 57.52C49.6451 56.944 50.4131 56.464 51.2771 56.128C52.1411 55.792 53.1491 55.6 54.2531 55.6H63.6131V52.24C63.6131 51.184 63.2291 50.272 62.5091 49.504C61.7411 48.784 60.8291 48.4 59.7731 48.4H49.2131V45.52H59.7731C60.8291 45.52 61.8371 45.712 62.7011 46.048C63.5651 46.384 64.3331 46.864 64.9571 47.44C65.5811 48.064 66.0611 48.784 66.4451 49.6C66.7811 50.416 66.9731 51.28 66.9731 52.24V70ZM54.2531 67.6H58.0931C58.9571 67.6 59.7731 67.408 60.4451 66.928C61.1171 66.496 61.7411 66.016 62.2211 65.44C62.7491 64.816 63.2291 64.096 63.6131 63.28V58.48H54.2531C53.1491 58.48 52.2371 58.864 51.5171 59.584C50.7491 60.352 50.4131 61.264 50.4131 62.32V63.76C50.4131 64.864 50.7491 65.776 51.5171 66.496C52.2371 67.264 53.1491 67.6 54.2531 67.6ZM86.4262 55.84L92.1862 45.52H95.5462V46.96L89.3062 57.28L96.0262 68.56V70H92.6662L86.4262 58.72H79.9462V70H76.5862V36.4H79.9462V55.84H86.4262ZM121.449 70H109.929C107.625 70 105.849 69.376 104.601 68.08C103.353 66.832 102.729 65.2 102.729 63.28V51.76C102.729 50.8 102.873 49.936 103.257 49.12C103.593 48.304 104.073 47.584 104.697 46.96C105.321 46.384 106.089 45.904 106.953 45.568C107.817 45.232 108.825 45.04 109.929 45.04H115.209C116.265 45.04 117.273 45.232 118.137 45.568C119.001 45.904 119.769 46.384 120.393 46.96C121.017 47.584 121.497 48.304 121.881 49.12C122.217 49.936 122.409 50.8 122.409 51.76V59.2H106.089V63.28C106.089 64.384 106.425 65.296 107.193 66.016C107.913 66.784 108.825 67.12 109.929 67.12H121.449V70ZM106.089 51.76V56.32H119.049V51.76C119.049 50.704 118.665 49.792 117.945 49.024C117.177 48.304 116.265 47.92 115.209 47.92H109.929C108.825 47.92 107.913 48.304 107.193 49.024C106.425 49.792 106.089 50.704 106.089 51.76Z" fill="#322B33"/>
<path d="M19.92 65.44L18.075 66.2119C18.3862 66.9558 19.1137 67.44 19.92 67.44V65.44ZM10.08 41.92L11.925 41.1481C11.6138 40.4042 10.8863 39.92 10.08 39.92V41.92ZM9.84 41.92V39.92C8.82734 39.92 7.97448 40.6769 7.85417 41.6824L9.84 41.92ZM6.48 70V72C7.49266 72 8.34552 71.2431 8.46583 70.2376L6.48 70ZM2.88 70H0.88C0.88 71.1046 1.77543 72 2.88 72V70ZM2.88 68.56L0.897804 68.2937C0.885948 68.382 0.88 68.4709 0.88 68.56H2.88ZM7.2 36.4V34.4C6.19834 34.4 5.35116 35.141 5.2178 36.1337L7.2 36.4ZM11.52 36.4L13.3667 35.6321C13.0565 34.8861 12.3279 34.4 11.52 34.4V36.4ZM21.6 60.64L19.7533 61.4079C20.0635 62.1539 20.7921 62.64 21.6 62.64V60.64ZM21.84 60.64V62.64C22.6479 62.64 23.3765 62.1539 23.6867 61.4079L21.84 60.64ZM31.92 36.4V34.4C31.1121 34.4 30.3835 34.8861 30.0733 35.6321L31.92 36.4ZM36.24 36.4L38.2222 36.1337C38.0888 35.141 37.2417 34.4 36.24 34.4V36.4ZM40.56 68.56H42.56C42.56 68.4709 42.5541 68.382 42.5422 68.2937L40.56 68.56ZM40.56 70V72C41.6646 72 42.56 71.1046 42.56 70H40.56ZM36.96 70L34.9742 70.2376C35.0945 71.2431 35.9473 72 36.96 72V70ZM33.6 41.92L35.5858 41.6824C35.4655 40.6769 34.6127 39.92 33.6 39.92V41.92ZM33.36 41.92V39.92C32.5537 39.92 31.8262 40.4042 31.515 41.1481L33.36 41.92ZM23.52 65.44V67.44C24.3263 67.44 25.0538 66.9558 25.365 66.2119L23.52 65.44ZM21.765 64.6681L11.925 41.1481L8.23496 42.6919L18.075 66.2119L21.765 64.6681ZM10.08 39.92H9.84V43.92H10.08V39.92ZM7.85417 41.6824L4.49417 69.7624L8.46583 70.2376L11.8258 42.1576L7.85417 41.6824ZM6.48 68H2.88V72H6.48V68ZM4.88 70V68.56H0.88V70H4.88ZM4.8622 68.8263L9.1822 36.6663L5.2178 36.1337L0.897804 68.2937L4.8622 68.8263ZM7.2 38.4H11.52V34.4H7.2V38.4ZM9.67331 37.1679L19.7533 61.4079L23.4467 59.8721L13.3667 35.6321L9.67331 37.1679ZM21.6 62.64H21.84V58.64H21.6V62.64ZM23.6867 61.4079L33.7667 37.1679L30.0733 35.6321L19.9933 59.8721L23.6867 61.4079ZM31.92 38.4H36.24V34.4H31.92V38.4ZM34.2578 36.6663L38.5778 68.8263L42.5422 68.2937L38.2222 36.1337L34.2578 36.6663ZM38.56 68.56V70H42.56V68.56H38.56ZM40.56 68H36.96V72H40.56V68ZM38.9458 69.7624L35.5858 41.6824L31.6142 42.1576L34.9742 70.2376L38.9458 69.7624ZM33.6 39.92H33.36V43.92H33.6V39.92ZM31.515 41.1481L21.675 64.6681L25.365 66.2119L35.205 42.6919L31.515 41.1481ZM23.52 63.44H19.92V67.44H23.52V63.44ZM66.9731 70V72C68.0777 72 68.9731 71.1046 68.9731 70H66.9731ZM64.8131 70L62.8332 70.2828C62.974 71.2681 63.8178 72 64.8131 72V70ZM64.3331 66.64L66.313 66.3572C66.1723 65.3719 65.3284 64.64 64.3331 64.64V66.64ZM64.0931 66.64V64.64C63.3545 64.64 62.676 65.0471 62.3284 65.6988L64.0931 66.64ZM62.6051 68.56L64.0193 69.9742L62.6051 68.56ZM60.7331 69.904L61.6276 71.6929C61.6432 71.685 61.6588 71.677 61.6743 71.6687L60.7331 69.904ZM48.9251 68.56L50.3658 67.1727C50.357 67.1637 50.3482 67.1547 50.3393 67.1458L48.9251 68.56ZM47.5811 59.68L49.3908 60.5316C49.4047 60.5019 49.418 60.4719 49.4305 60.4415L47.5811 59.68ZM49.0211 57.52L47.6646 56.0504C47.645 56.0685 47.6258 56.0869 47.6069 56.1058L49.0211 57.52ZM63.6131 55.6V57.6C64.7177 57.6 65.6131 56.7046 65.6131 55.6H63.6131ZM62.5091 49.504L63.9682 48.1361C63.9388 48.1047 63.9084 48.0743 63.877 48.0449L62.5091 49.504ZM49.2131 48.4H47.2131C47.2131 49.5046 48.1086 50.4 49.2131 50.4V48.4ZM49.2131 45.52V43.52C48.1086 43.52 47.2131 44.4154 47.2131 45.52H49.2131ZM62.7011 46.048L61.9762 47.912L62.7011 46.048ZM64.9571 47.44L66.3713 46.0258C66.3525 46.0069 66.3333 45.9885 66.3137 45.9704L64.9571 47.44ZM66.4451 49.6L68.2945 48.8385C68.282 48.8081 68.2687 48.7781 68.2548 48.7484L66.4451 49.6ZM60.4451 66.928L59.3636 65.2456C59.3362 65.2633 59.3092 65.2816 59.2826 65.3005L60.4451 66.928ZM62.2211 65.44L60.6944 64.1481C60.6911 64.1519 60.6879 64.1558 60.6847 64.1596L62.2211 65.44ZM63.6131 63.28L65.4228 64.1316C65.5481 63.8652 65.6131 63.5744 65.6131 63.28H63.6131ZM63.6131 58.48H65.6131C65.6131 57.3754 64.7177 56.48 63.6131 56.48V58.48ZM51.5171 66.496L52.9762 65.1281C52.9468 65.0967 52.9164 65.0663 52.885 65.0369L51.5171 66.496ZM66.9731 68H64.8131V72H66.9731V68ZM66.793 69.7172L66.313 66.3572L62.3532 66.9228L62.8332 70.2828L66.793 69.7172ZM64.3331 64.64H64.0931V68.64H64.3331V64.64ZM62.3284 65.6988C62.0739 66.176 61.696 66.6407 61.1909 67.1458L64.0193 69.9742C64.6663 69.3273 65.3443 68.544 65.8578 67.5812L62.3284 65.6988ZM61.1909 67.1458C60.8368 67.4999 60.3866 67.8222 59.7919 68.1393L61.6743 71.6687C62.5197 71.2178 63.3175 70.6761 64.0193 69.9742L61.1909 67.1458ZM59.8387 68.1151C59.3864 68.3413 58.8361 68.48 58.0931 68.48V72.48C59.3661 72.48 60.5438 72.2347 61.6276 71.6929L59.8387 68.1151ZM58.0931 68.48H54.2531V72.48H58.0931V68.48ZM54.2531 68.48C52.3124 68.48 51.1277 67.964 50.3658 67.1727L47.4845 69.9473C49.2185 71.748 51.5859 72.48 54.2531 72.48V68.48ZM50.3393 67.1458C49.5111 66.3176 49.0531 65.2164 49.0531 63.76H45.0531C45.0531 66.1436 45.8431 68.3064 47.5109 69.9742L50.3393 67.1458ZM49.0531 63.76V62.32H45.0531V63.76H49.0531ZM49.0531 62.32C49.0531 61.5656 49.1651 61.0111 49.3908 60.5316L45.7715 58.8284C45.2291 59.9809 45.0531 61.1544 45.0531 62.32H49.0531ZM49.4305 60.4415C49.6659 59.8697 49.9981 59.3715 50.4353 58.9342L47.6069 56.1058C46.7962 56.9165 46.1683 57.8583 45.7318 58.9185L49.4305 60.4415ZM50.3777 58.9896C50.8101 58.5905 51.3616 58.2411 52.002 57.992L50.5522 54.264C49.4647 54.6869 48.4802 55.2975 47.6646 56.0504L50.3777 58.9896ZM52.002 57.992C52.6184 57.7523 53.3787 57.6 54.2531 57.6V53.6C52.9195 53.6 51.6639 53.8317 50.5522 54.264L52.002 57.992ZM54.2531 57.6H63.6131V53.6H54.2531V57.6ZM65.6131 55.6V52.24H61.6131V55.6H65.6131ZM65.6131 52.24C65.6131 50.6456 65.0144 49.2521 63.9682 48.1361L61.05 50.8719C61.4438 51.2919 61.6131 51.7224 61.6131 52.24H65.6131ZM63.877 48.0449C62.761 46.9987 61.3676 46.4 59.7731 46.4V50.4C60.2907 50.4 60.7212 50.5693 61.1412 50.9631L63.877 48.0449ZM59.7731 46.4H49.2131V50.4H59.7731V46.4ZM51.2131 48.4V45.52H47.2131V48.4H51.2131ZM49.2131 47.52H59.7731V43.52H49.2131V47.52ZM59.7731 47.52C60.5936 47.52 61.3546 47.6703 61.9762 47.912L63.426 44.184C62.3196 43.7537 61.0647 43.52 59.7731 43.52V47.52ZM61.9762 47.912C62.6167 48.1611 63.1682 48.5105 63.6006 48.9096L66.3137 45.9704C65.4981 45.2175 64.5136 44.6069 63.426 44.184L61.9762 47.912ZM63.5429 48.8542C63.9794 49.2907 64.3341 49.8111 64.6355 50.4516L68.2548 48.7484C67.7882 47.7569 67.1829 46.8373 66.3713 46.0258L63.5429 48.8542ZM64.5958 50.3615C64.8401 50.9548 64.9731 51.5609 64.9731 52.24H68.9731C68.9731 50.9991 68.7222 49.8772 68.2945 48.8385L64.5958 50.3615ZM64.9731 52.24V70H68.9731V52.24H64.9731ZM54.2531 69.6H58.0931V65.6H54.2531V69.6ZM58.0931 69.6C59.2427 69.6 60.5033 69.3442 61.6076 68.5555L59.2826 65.3005C59.0429 65.4717 58.6715 65.6 58.0931 65.6V69.6ZM61.5266 68.6104C62.2761 68.1285 63.0912 67.52 63.7576 66.7204L60.6847 64.1596C60.391 64.512 59.9581 64.8635 59.3636 65.2456L61.5266 68.6104ZM63.7479 66.7319C64.3796 65.9853 64.9582 65.1188 65.4228 64.1316L61.8035 62.4284C61.5001 63.0732 61.1186 63.6467 60.6944 64.1481L63.7479 66.7319ZM65.6131 63.28V58.48H61.6131V63.28H65.6131ZM63.6131 56.48H54.2531V60.48H63.6131V56.48ZM54.2531 56.48C52.6344 56.48 51.2089 57.0638 50.1029 58.1698L52.9313 60.9982C53.2653 60.6642 53.6639 60.48 54.2531 60.48V56.48ZM50.1029 58.1698C48.9264 59.3463 48.4131 60.7829 48.4131 62.32H52.4131C52.4131 61.7451 52.5719 61.3577 52.9313 60.9982L50.1029 58.1698ZM48.4131 62.32V63.76H52.4131V62.32H48.4131ZM48.4131 63.76C48.4131 65.3177 48.9109 66.7942 50.1492 67.9551L52.885 65.0369C52.5873 64.7578 52.4131 64.4103 52.4131 63.76H48.4131ZM50.058 67.8639C51.219 69.1022 52.6954 69.6 54.2531 69.6V65.6C53.6028 65.6 53.2553 65.4258 52.9762 65.1281L50.058 67.8639ZM86.4262 55.84V57.84C87.1512 57.84 87.8193 57.4477 88.1726 56.8147L86.4262 55.84ZM92.1862 45.52V43.52C91.4613 43.52 90.7932 43.9123 90.4398 44.5453L92.1862 45.52ZM95.5462 45.52H97.5462C97.5462 44.4154 96.6508 43.52 95.5462 43.52V45.52ZM95.5462 46.96L97.2577 47.9948C97.4465 47.6827 97.5462 47.3248 97.5462 46.96H95.5462ZM89.3062 57.28L87.5948 56.2452C87.2125 56.8774 87.2099 57.6689 87.588 58.3036L89.3062 57.28ZM96.0262 68.56H98.0262C98.0262 68.1996 97.9289 67.846 97.7445 67.5364L96.0262 68.56ZM96.0262 70V72C97.1308 72 98.0262 71.1046 98.0262 70H96.0262ZM92.6662 70L90.9162 70.9681C91.2684 71.6048 91.9386 72 92.6662 72V70ZM86.4262 58.72L88.1763 57.7519C87.8241 57.1152 87.1539 56.72 86.4262 56.72V58.72ZM79.9462 58.72V56.72C78.8417 56.72 77.9462 57.6154 77.9462 58.72H79.9462ZM79.9462 70V72C81.0508 72 81.9462 71.1046 81.9462 70H79.9462ZM76.5863 70H74.5863C74.5863 71.1046 75.4817 72 76.5863 72V70ZM76.5863 36.4V34.4C75.4817 34.4 74.5863 35.2954 74.5863 36.4H76.5863ZM79.9462 36.4H81.9462C81.9462 35.2954 81.0508 34.4 79.9462 34.4V36.4ZM79.9462 55.84H77.9462C77.9462 56.9446 78.8417 57.84 79.9462 57.84V55.84ZM88.1726 56.8147L93.9326 46.4947L90.4398 44.5453L84.6799 54.8653L88.1726 56.8147ZM92.1862 47.52H95.5462V43.52H92.1862V47.52ZM93.5462 45.52V46.96H97.5462V45.52H93.5462ZM93.8348 45.9252L87.5948 56.2452L91.0177 58.3148L97.2577 47.9948L93.8348 45.9252ZM87.588 58.3036L94.308 69.5836L97.7445 67.5364L91.0245 56.2564L87.588 58.3036ZM94.0262 68.56V70H98.0262V68.56H94.0262ZM96.0262 68H92.6662V72H96.0262V68ZM94.4163 69.0319L88.1763 57.7519L84.6762 59.6881L90.9162 70.9681L94.4163 69.0319ZM86.4262 56.72H79.9462V60.72H86.4262V56.72ZM77.9462 58.72V70H81.9462V58.72H77.9462ZM79.9462 68H76.5863V72H79.9462V68ZM78.5863 70V36.4H74.5863V70H78.5863ZM76.5863 38.4H79.9462V34.4H76.5863V38.4ZM77.9462 36.4V55.84H81.9462V36.4H77.9462ZM79.9462 57.84H86.4262V53.84H79.9462V57.84ZM121.449 70V72C122.554 72 123.449 71.1046 123.449 70H121.449ZM104.601 68.08L106.042 66.6927C106.033 66.6837 106.024 66.6747 106.016 66.6658L104.601 68.08ZM103.257 49.12L105.067 49.9716C105.081 49.9419 105.094 49.9119 105.107 49.8815L103.257 49.12ZM104.697 46.96L103.341 45.4904C103.321 45.5085 103.302 45.5269 103.283 45.5458L104.697 46.96ZM106.953 45.568L107.678 47.432L107.678 47.432L106.953 45.568ZM118.137 45.568L117.412 47.432L117.412 47.432L118.137 45.568ZM120.393 46.96L121.808 45.5458C121.789 45.5269 121.77 45.5085 121.75 45.4904L120.393 46.96ZM121.881 49.12L123.731 48.3585C123.718 48.3281 123.705 48.2981 123.691 48.2684L121.881 49.12ZM122.409 59.2V61.2C123.514 61.2 124.409 60.3046 124.409 59.2H122.409ZM106.089 59.2V57.2C104.985 57.2 104.089 58.0954 104.089 59.2H106.089ZM107.193 66.016L108.652 64.6481C108.623 64.6167 108.593 64.5863 108.561 64.5569L107.193 66.016ZM121.449 67.12H123.449C123.449 66.0154 122.554 65.12 121.449 65.12V67.12ZM106.089 56.32H104.089C104.089 57.4246 104.985 58.32 106.089 58.32V56.32ZM119.049 56.32V58.32C120.154 58.32 121.049 57.4246 121.049 56.32H119.049ZM117.945 49.024L119.404 47.6561C119.375 47.6247 119.345 47.5943 119.313 47.5649L117.945 49.024ZM107.193 49.024L108.608 50.4382V50.4382L107.193 49.024ZM121.449 68H109.929V72H121.449V68ZM109.929 68C107.989 68 106.804 67.484 106.042 66.6927L103.161 69.4673C104.895 71.268 107.262 72 109.929 72V68ZM106.016 66.6658C105.187 65.8376 104.729 64.7364 104.729 63.28H100.729C100.729 65.6636 101.519 67.8264 103.187 69.4942L106.016 66.6658ZM104.729 63.28V51.76H100.729V63.28H104.729ZM104.729 51.76C104.729 51.0056 104.841 50.4511 105.067 49.9716L101.448 48.2684C100.905 49.4209 100.729 50.5944 100.729 51.76H104.729ZM105.107 49.8815C105.342 49.3097 105.674 48.8115 106.112 48.3742L103.283 45.5458C102.472 46.3565 101.845 47.2983 101.408 48.3585L105.107 49.8815ZM106.054 48.4296C106.486 48.0305 107.038 47.6811 107.678 47.432L106.228 43.704C105.141 44.1269 104.156 44.7375 103.341 45.4904L106.054 48.4296ZM107.678 47.432C108.295 47.1923 109.055 47.04 109.929 47.04V43.04C108.596 43.04 107.34 43.2717 106.228 43.704L107.678 47.432ZM109.929 47.04H115.209V43.04H109.929V47.04ZM115.209 47.04C116.03 47.04 116.791 47.1903 117.412 47.432L118.862 43.704C117.756 43.2737 116.501 43.04 115.209 43.04V47.04ZM117.412 47.432C118.053 47.6811 118.604 48.0305 119.037 48.4296L121.75 45.4904C120.934 44.7375 119.95 44.1269 118.862 43.704L117.412 47.432ZM118.979 48.3742C119.416 48.8107 119.77 49.3311 120.072 49.9716L123.691 48.2684C123.224 47.2769 122.619 46.3573 121.808 45.5458L118.979 48.3742ZM120.032 49.8815C120.276 50.4748 120.409 51.0809 120.409 51.76H124.409C124.409 50.5191 124.158 49.3972 123.731 48.3585L120.032 49.8815ZM120.409 51.76V59.2H124.409V51.76H120.409ZM122.409 57.2H106.089V61.2H122.409V57.2ZM104.089 59.2V63.28H108.089V59.2H104.089ZM104.089 63.28C104.089 64.8377 104.587 66.3142 105.825 67.4751L108.561 64.5569C108.264 64.2778 108.089 63.9303 108.089 63.28H104.089ZM105.734 67.3839C106.895 68.6222 108.372 69.12 109.929 69.12V65.12C109.279 65.12 108.932 64.9458 108.652 64.6481L105.734 67.3839ZM109.929 69.12H121.449V65.12H109.929V69.12ZM119.449 67.12V70H123.449V67.12H119.449ZM104.089 51.76V56.32H108.089V51.76H104.089ZM106.089 58.32H119.049V54.32H106.089V58.32ZM121.049 56.32V51.76H117.049V56.32H121.049ZM121.049 51.76C121.049 50.1656 120.451 48.7721 119.404 47.6561L116.486 50.3919C116.88 50.8119 117.049 51.2424 117.049 51.76H121.049ZM119.313 47.5649C118.197 46.5187 116.804 45.92 115.209 45.92V49.92C115.727 49.92 116.157 50.0893 116.577 50.4831L119.313 47.5649ZM115.209 45.92H109.929V49.92H115.209V45.92ZM109.929 45.92C108.311 45.92 106.885 46.5038 105.779 47.6098L108.608 50.4382C108.942 50.1042 109.34 49.92 109.929 49.92V45.92ZM105.779 47.6098C104.603 48.7863 104.089 50.2229 104.089 51.76H108.089C108.089 51.1851 108.248 50.7977 108.608 50.4382L105.779 47.6098Z" fill="#A2EAC4" mask="url(#path-3-outside-1_8312_6657)"/>
<path d="M13.6667 109.916C13.6667 108.648 12.4145 106.756 11.1469 105.167C9.51713 103.117 7.56963 101.328 5.33683 99.9633C3.66267 98.94 1.63317 97.9577 1.42602e-07 97.9577M1.42602e-07 97.9577C1.63317 97.9577 3.66438 96.9754 5.33683 95.9521C7.56963 94.5854 9.51713 92.7968 11.1469 90.7502C12.4145 89.1598 13.6667 87.2635 13.6667 85.9993M1.42602e-07 97.9577L41 97.9577" stroke="#8F9998" stroke-width="1.5"/>
<path d="M73.5 97L111.103 97.234L131.111 97.8264L124.162 98.5L93.5082 98.9397H53.4918L22.8375 98.5L15.8887 97.8264L35.8969 97.234L73.5 97Z" fill="#00B197"/>
<mask id="path-7-outside-2_8312_6657" maskUnits="userSpaceOnUse" x="195" y="162" width="132" height="39" fill="black">
<rect fill="white" x="195" y="162" width="132" height="39"/>
<path d="M213.4 182.16H201.4V194.88H213.4C214.072 194.88 214.696 194.784 215.272 194.496C215.848 194.256 216.328 193.92 216.76 193.488C217.192 193.056 217.528 192.528 217.816 191.952C218.056 191.376 218.2 190.752 218.2 190.08V186.96C218.2 186.288 218.056 185.664 217.816 185.088C217.528 184.512 217.192 184.032 216.76 183.6C216.328 183.168 215.848 182.832 215.272 182.544C214.696 182.304 214.072 182.16 213.4 182.16ZM216.04 180V180.24C217.096 180.48 218.056 180.864 218.92 181.44C219.688 181.968 220.36 182.64 220.936 183.504C221.512 184.368 221.8 185.52 221.8 186.96V190.08C221.8 191.232 221.56 192.288 221.176 193.248C220.792 194.208 220.216 195.072 219.496 195.744C218.728 196.464 217.864 197.04 216.808 197.424C215.752 197.808 214.648 198 213.4 198H197.8V164.4H211.72C212.968 164.4 214.072 164.64 215.128 165.024C216.184 165.408 217.048 165.984 217.816 166.656C218.536 167.376 219.112 168.192 219.496 169.152C219.88 170.112 220.12 171.168 220.12 172.32V174.24C220.12 175.488 219.88 176.448 219.496 177.168C219.064 177.936 218.584 178.512 218.104 178.896C217.48 179.424 216.808 179.808 216.04 180ZM211.72 167.52H201.4V179.04H211.72C212.392 179.04 213.016 178.944 213.592 178.656C214.168 178.416 214.648 178.08 215.08 177.648C215.512 177.216 215.848 176.688 216.136 176.112C216.376 175.536 216.52 174.912 216.52 174.24V172.32C216.52 171.648 216.376 171.024 216.136 170.448C215.848 169.872 215.512 169.392 215.08 168.96C214.648 168.528 214.168 168.192 213.592 167.904C213.016 167.664 212.392 167.52 211.72 167.52ZM243.419 173.04V176.16H238.859C237.947 176.16 237.131 176.4 236.459 176.784C235.787 177.216 235.211 177.696 234.731 178.176C234.155 178.8 233.723 179.472 233.339 180.24V198H229.979V173.52H232.139L232.619 176.88H232.859C233.243 176.208 233.723 175.536 234.347 174.96C234.827 174.48 235.451 174 236.219 173.616C236.939 173.232 237.803 173.04 238.859 173.04H243.419ZM267.904 198H256.384C254.08 198 252.304 197.376 251.056 196.08C249.808 194.832 249.184 193.2 249.184 191.28V179.76C249.184 178.8 249.328 177.936 249.712 177.12C250.048 176.304 250.528 175.584 251.152 174.96C251.776 174.384 252.544 173.904 253.408 173.568C254.272 173.232 255.28 173.04 256.384 173.04H261.664C262.72 173.04 263.728 173.232 264.592 173.568C265.456 173.904 266.224 174.384 266.848 174.96C267.472 175.584 267.952 176.304 268.336 177.12C268.672 177.936 268.864 178.8 268.864 179.76V187.2H252.544V191.28C252.544 192.384 252.88 193.296 253.648 194.016C254.368 194.784 255.28 195.12 256.384 195.12H267.904V198ZM252.544 179.76V184.32H265.504V179.76C265.504 178.704 265.12 177.792 264.4 177.024C263.632 176.304 262.72 175.92 261.664 175.92H256.384C255.28 175.92 254.368 176.304 253.648 177.024C252.88 177.792 252.544 178.704 252.544 179.76ZM295.735 198H293.575L293.095 194.64H292.855C292.471 195.36 291.943 195.984 291.367 196.56C290.839 197.088 290.215 197.52 289.495 197.904C288.727 198.288 287.863 198.48 286.855 198.48H283.015C280.711 198.48 278.935 197.856 277.687 196.56C276.439 195.312 275.815 193.68 275.815 191.76V190.32C275.815 189.36 275.959 188.496 276.343 187.68C276.679 186.864 277.159 186.144 277.783 185.52C278.407 184.944 279.175 184.464 280.039 184.128C280.903 183.792 281.911 183.6 283.015 183.6H292.375V180.24C292.375 179.184 291.991 178.272 291.271 177.504C290.503 176.784 289.591 176.4 288.535 176.4H277.975V173.52H288.535C289.591 173.52 290.599 173.712 291.463 174.048C292.327 174.384 293.095 174.864 293.719 175.44C294.343 176.064 294.823 176.784 295.207 177.6C295.543 178.416 295.735 179.28 295.735 180.24V198ZM283.015 195.6H286.855C287.719 195.6 288.535 195.408 289.207 194.928C289.879 194.496 290.503 194.016 290.983 193.44C291.511 192.816 291.991 192.096 292.375 191.28V186.48H283.015C281.911 186.48 280.999 186.864 280.279 187.584C279.511 188.352 279.175 189.264 279.175 190.32V191.76C279.175 192.864 279.511 193.776 280.279 194.496C280.999 195.264 281.911 195.6 283.015 195.6ZM315.188 183.84L320.948 173.52H324.308V174.96L318.068 185.28L324.788 196.56V198H321.428L315.188 186.72H308.708V198H305.348V164.4H308.708V183.84H315.188Z"/>
</mask>
<path d="M213.4 182.16H201.4V194.88H213.4C214.072 194.88 214.696 194.784 215.272 194.496C215.848 194.256 216.328 193.92 216.76 193.488C217.192 193.056 217.528 192.528 217.816 191.952C218.056 191.376 218.2 190.752 218.2 190.08V186.96C218.2 186.288 218.056 185.664 217.816 185.088C217.528 184.512 217.192 184.032 216.76 183.6C216.328 183.168 215.848 182.832 215.272 182.544C214.696 182.304 214.072 182.16 213.4 182.16ZM216.04 180V180.24C217.096 180.48 218.056 180.864 218.92 181.44C219.688 181.968 220.36 182.64 220.936 183.504C221.512 184.368 221.8 185.52 221.8 186.96V190.08C221.8 191.232 221.56 192.288 221.176 193.248C220.792 194.208 220.216 195.072 219.496 195.744C218.728 196.464 217.864 197.04 216.808 197.424C215.752 197.808 214.648 198 213.4 198H197.8V164.4H211.72C212.968 164.4 214.072 164.64 215.128 165.024C216.184 165.408 217.048 165.984 217.816 166.656C218.536 167.376 219.112 168.192 219.496 169.152C219.88 170.112 220.12 171.168 220.12 172.32V174.24C220.12 175.488 219.88 176.448 219.496 177.168C219.064 177.936 218.584 178.512 218.104 178.896C217.48 179.424 216.808 179.808 216.04 180ZM211.72 167.52H201.4V179.04H211.72C212.392 179.04 213.016 178.944 213.592 178.656C214.168 178.416 214.648 178.08 215.08 177.648C215.512 177.216 215.848 176.688 216.136 176.112C216.376 175.536 216.52 174.912 216.52 174.24V172.32C216.52 171.648 216.376 171.024 216.136 170.448C215.848 169.872 215.512 169.392 215.08 168.96C214.648 168.528 214.168 168.192 213.592 167.904C213.016 167.664 212.392 167.52 211.72 167.52ZM243.419 173.04V176.16H238.859C237.947 176.16 237.131 176.4 236.459 176.784C235.787 177.216 235.211 177.696 234.731 178.176C234.155 178.8 233.723 179.472 233.339 180.24V198H229.979V173.52H232.139L232.619 176.88H232.859C233.243 176.208 233.723 175.536 234.347 174.96C234.827 174.48 235.451 174 236.219 173.616C236.939 173.232 237.803 173.04 238.859 173.04H243.419ZM267.904 198H256.384C254.08 198 252.304 197.376 251.056 196.08C249.808 194.832 249.184 193.2 249.184 191.28V179.76C249.184 178.8 249.328 177.936 249.712 177.12C250.048 176.304 250.528 175.584 251.152 174.96C251.776 174.384 252.544 173.904 253.408 173.568C254.272 173.232 255.28 173.04 256.384 173.04H261.664C262.72 173.04 263.728 173.232 264.592 173.568C265.456 173.904 266.224 174.384 266.848 174.96C267.472 175.584 267.952 176.304 268.336 177.12C268.672 177.936 268.864 178.8 268.864 179.76V187.2H252.544V191.28C252.544 192.384 252.88 193.296 253.648 194.016C254.368 194.784 255.28 195.12 256.384 195.12H267.904V198ZM252.544 179.76V184.32H265.504V179.76C265.504 178.704 265.12 177.792 264.4 177.024C263.632 176.304 262.72 175.92 261.664 175.92H256.384C255.28 175.92 254.368 176.304 253.648 177.024C252.88 177.792 252.544 178.704 252.544 179.76ZM295.735 198H293.575L293.095 194.64H292.855C292.471 195.36 291.943 195.984 291.367 196.56C290.839 197.088 290.215 197.52 289.495 197.904C288.727 198.288 287.863 198.48 286.855 198.48H283.015C280.711 198.48 278.935 197.856 277.687 196.56C276.439 195.312 275.815 193.68 275.815 191.76V190.32C275.815 189.36 275.959 188.496 276.343 187.68C276.679 186.864 277.159 186.144 277.783 185.52C278.407 184.944 279.175 184.464 280.039 184.128C280.903 183.792 281.911 183.6 283.015 183.6H292.375V180.24C292.375 179.184 291.991 178.272 291.271 177.504C290.503 176.784 289.591 176.4 288.535 176.4H277.975V173.52H288.535C289.591 173.52 290.599 173.712 291.463 174.048C292.327 174.384 293.095 174.864 293.719 175.44C294.343 176.064 294.823 176.784 295.207 177.6C295.543 178.416 295.735 179.28 295.735 180.24V198ZM283.015 195.6H286.855C287.719 195.6 288.535 195.408 289.207 194.928C289.879 194.496 290.503 194.016 290.983 193.44C291.511 192.816 291.991 192.096 292.375 191.28V186.48H283.015C281.911 186.48 280.999 186.864 280.279 187.584C279.511 188.352 279.175 189.264 279.175 190.32V191.76C279.175 192.864 279.511 193.776 280.279 194.496C280.999 195.264 281.911 195.6 283.015 195.6ZM315.188 183.84L320.948 173.52H324.308V174.96L318.068 185.28L324.788 196.56V198H321.428L315.188 186.72H308.708V198H305.348V164.4H308.708V183.84H315.188Z" fill="white"/>
<path d="M201.4 182.16V180.16H199.4V182.16H201.4ZM201.4 194.88H199.4V196.88H201.4V194.88ZM215.272 194.496L214.503 192.65L214.439 192.676L214.378 192.707L215.272 194.496ZM216.76 193.488L218.174 194.902L218.174 194.902L216.76 193.488ZM217.816 191.952L219.605 192.846L219.636 192.785L219.662 192.721L217.816 191.952ZM217.816 185.088L219.662 184.319L219.636 184.255L219.605 184.194L217.816 185.088ZM216.76 183.6L218.174 182.186L218.174 182.186L216.76 183.6ZM215.272 182.544L216.166 180.755L216.105 180.724L216.041 180.698L215.272 182.544ZM216.04 180L215.555 178.06L214.04 178.438V180H216.04ZM216.04 180.24H214.04V181.836L215.597 182.19L216.04 180.24ZM218.92 181.44L220.053 179.792L220.041 179.784L220.029 179.776L218.92 181.44ZM220.936 183.504L219.272 184.613L219.272 184.613L220.936 183.504ZM221.176 193.248L219.319 192.505L219.319 192.505L221.176 193.248ZM219.496 195.744L218.131 194.282L218.128 194.285L219.496 195.744ZM216.808 197.424L217.491 199.304L216.808 197.424ZM197.8 198H195.8V200H197.8V198ZM197.8 164.4V162.4H195.8V164.4H197.8ZM215.128 165.024L215.811 163.144V163.144L215.128 165.024ZM217.816 166.656L219.23 165.242L219.183 165.195L219.133 165.151L217.816 166.656ZM219.496 169.152L221.353 168.409L221.353 168.409L219.496 169.152ZM219.496 177.168L221.239 178.149L221.25 178.129L221.261 178.109L219.496 177.168ZM218.104 178.896L216.855 177.334L216.833 177.351L216.812 177.369L218.104 178.896ZM201.4 167.52V165.52H199.4V167.52H201.4ZM201.4 179.04H199.4V181.04H201.4V179.04ZM213.592 178.656L212.823 176.81L212.759 176.836L212.698 176.867L213.592 178.656ZM215.08 177.648L213.666 176.234L213.666 176.234L215.08 177.648ZM216.136 176.112L217.925 177.006L217.956 176.945L217.982 176.881L216.136 176.112ZM216.136 170.448L217.982 169.679L217.956 169.615L217.925 169.554L216.136 170.448ZM215.08 168.96L213.666 170.374L213.666 170.374L215.08 168.96ZM213.592 167.904L214.486 166.115L214.425 166.084L214.361 166.058L213.592 167.904ZM213.4 180.16H201.4V184.16H213.4V180.16ZM199.4 182.16V194.88H203.4V182.16H199.4ZM201.4 196.88H213.4V192.88H201.4V196.88ZM213.4 196.88C214.258 196.88 215.219 196.758 216.166 196.285L214.378 192.707C214.173 192.81 213.886 192.88 213.4 192.88V196.88ZM216.041 196.342C216.881 195.992 217.575 195.501 218.174 194.902L215.346 192.074C215.081 192.339 214.815 192.52 214.503 192.65L216.041 196.342ZM218.174 194.902C218.812 194.264 219.262 193.532 219.605 192.846L216.027 191.058C215.794 191.524 215.572 191.848 215.346 192.074L218.174 194.902ZM219.662 192.721C219.992 191.93 220.2 191.045 220.2 190.08H216.2C216.2 190.459 216.12 190.822 215.97 191.183L219.662 192.721ZM220.2 190.08V186.96H216.2V190.08H220.2ZM220.2 186.96C220.2 185.995 219.992 185.11 219.662 184.319L215.97 185.857C216.12 186.218 216.2 186.581 216.2 186.96H220.2ZM219.605 184.194C219.232 183.447 218.775 182.786 218.174 182.186L215.346 185.014C215.609 185.278 215.824 185.577 216.027 185.982L219.605 184.194ZM218.174 182.186C217.574 181.585 216.913 181.128 216.166 180.755L214.378 184.333C214.783 184.536 215.082 184.751 215.346 185.014L218.174 182.186ZM216.041 180.698C215.25 180.368 214.365 180.16 213.4 180.16V184.16C213.779 184.16 214.142 184.24 214.503 184.39L216.041 180.698ZM214.04 180V180.24H218.04V180H214.04ZM215.597 182.19C216.455 182.385 217.181 182.684 217.811 183.104L220.029 179.776C218.931 179.044 217.737 178.575 216.483 178.29L215.597 182.19ZM217.787 183.088C218.341 183.469 218.834 183.957 219.272 184.613L222.6 182.395C221.886 181.323 221.035 180.467 220.053 179.792L217.787 183.088ZM219.272 184.613C219.559 185.044 219.8 185.767 219.8 186.96H223.8C223.8 185.273 223.465 183.692 222.6 182.395L219.272 184.613ZM219.8 186.96V190.08H223.8V186.96H219.8ZM219.8 190.08C219.8 190.947 219.621 191.752 219.319 192.505L223.033 193.991C223.499 192.824 223.8 191.517 223.8 190.08H219.8ZM219.319 192.505C219.035 193.215 218.619 193.827 218.131 194.282L220.861 197.206C221.813 196.317 222.549 195.201 223.033 193.991L219.319 192.505ZM218.128 194.285C217.527 194.849 216.89 195.266 216.125 195.544L217.491 199.304C218.838 198.814 219.929 198.079 220.864 197.203L218.128 194.285ZM216.125 195.544C215.302 195.843 214.431 196 213.4 196V200C214.865 200 216.202 199.773 217.491 199.304L216.125 195.544ZM213.4 196H197.8V200H213.4V196ZM199.8 198V164.4H195.8V198H199.8ZM197.8 166.4H211.72V162.4H197.8V166.4ZM211.72 166.4C212.696 166.4 213.568 166.585 214.445 166.904L215.811 163.144C214.576 162.695 213.24 162.4 211.72 162.4V166.4ZM214.445 166.904C215.214 167.184 215.869 167.61 216.499 168.161L219.133 165.151C218.227 164.358 217.154 163.632 215.811 163.144L214.445 166.904ZM216.402 168.07C216.96 168.629 217.37 169.223 217.639 169.895L221.353 168.409C220.854 167.161 220.112 166.123 219.23 165.242L216.402 168.07ZM217.639 169.895C217.941 170.648 218.12 171.453 218.12 172.32H222.12C222.12 170.883 221.819 169.576 221.353 168.409L217.639 169.895ZM218.12 172.32V174.24H222.12V172.32H218.12ZM218.12 174.24C218.12 175.236 217.929 175.857 217.731 176.227L221.261 178.109C221.831 177.039 222.12 175.74 222.12 174.24H218.12ZM217.753 176.187C217.416 176.787 217.09 177.146 216.855 177.334L219.353 180.458C220.078 179.878 220.712 179.085 221.239 178.149L217.753 176.187ZM216.812 177.369C216.368 177.745 215.964 177.957 215.555 178.06L216.525 181.94C217.652 181.659 218.592 181.103 219.396 180.423L216.812 177.369ZM211.72 165.52H201.4V169.52H211.72V165.52ZM199.4 167.52V179.04H203.4V167.52H199.4ZM201.4 181.04H211.72V177.04H201.4V181.04ZM211.72 181.04C212.578 181.04 213.539 180.918 214.486 180.445L212.698 176.867C212.493 176.97 212.206 177.04 211.72 177.04V181.04ZM214.361 180.502C215.201 180.152 215.895 179.661 216.494 179.062L213.666 176.234C213.401 176.499 213.135 176.68 212.823 176.81L214.361 180.502ZM216.494 179.062C217.132 178.424 217.582 177.692 217.925 177.006L214.347 175.218C214.114 175.684 213.892 176.008 213.666 176.234L216.494 179.062ZM217.982 176.881C218.312 176.09 218.52 175.205 218.52 174.24H214.52C214.52 174.619 214.44 174.982 214.29 175.343L217.982 176.881ZM218.52 174.24V172.32H214.52V174.24H218.52ZM218.52 172.32C218.52 171.355 218.312 170.47 217.982 169.679L214.29 171.217C214.44 171.578 214.52 171.941 214.52 172.32H218.52ZM217.925 169.554C217.552 168.807 217.095 168.146 216.494 167.546L213.666 170.374C213.929 170.638 214.144 170.937 214.347 171.342L217.925 169.554ZM216.494 167.546C215.894 166.945 215.233 166.488 214.486 166.115L212.698 169.693C213.103 169.896 213.402 170.111 213.666 170.374L216.494 167.546ZM214.361 166.058C213.57 165.728 212.685 165.52 211.72 165.52V169.52C212.099 169.52 212.462 169.6 212.823 169.75L214.361 166.058ZM243.419 173.04H245.419V171.04H243.419V173.04ZM243.419 176.16V178.16H245.419V176.16H243.419ZM236.459 176.784L235.466 175.048L235.421 175.073L235.377 175.102L236.459 176.784ZM234.731 178.176L233.317 176.762L233.288 176.79L233.261 176.819L234.731 178.176ZM233.339 180.24L231.55 179.346L231.339 179.768V180.24H233.339ZM233.339 198V200H235.339V198H233.339ZM229.979 198H227.979V200H229.979V198ZM229.979 173.52V171.52H227.979V173.52H229.979ZM232.139 173.52L234.119 173.237L233.873 171.52H232.139V173.52ZM232.619 176.88L230.639 177.163L230.884 178.88H232.619V176.88ZM232.859 176.88V178.88H234.019L234.595 177.872L232.859 176.88ZM234.347 174.96L235.703 176.43L235.733 176.402L235.761 176.374L234.347 174.96ZM236.219 173.616L237.113 175.405L237.137 175.393L237.16 175.381L236.219 173.616ZM241.419 173.04V176.16H245.419V173.04H241.419ZM243.419 174.16H238.859V178.16H243.419V174.16ZM238.859 174.16C237.591 174.16 236.434 174.495 235.466 175.048L237.451 178.52C237.828 178.305 238.303 178.16 238.859 178.16V174.16ZM235.377 175.102C234.576 175.617 233.89 176.188 233.317 176.762L236.145 179.59C236.532 179.204 236.997 178.815 237.54 178.466L235.377 175.102ZM233.261 176.819C232.529 177.613 231.997 178.451 231.55 179.346L235.128 181.134C235.449 180.493 235.78 179.987 236.2 179.533L233.261 176.819ZM231.339 180.24V198H235.339V180.24H231.339ZM233.339 196H229.979V200H233.339V196ZM231.979 198V173.52H227.979V198H231.979ZM229.979 175.52H232.139V171.52H229.979V175.52ZM230.159 173.803L230.639 177.163L234.599 176.597L234.119 173.237L230.159 173.803ZM232.619 178.88H232.859V174.88H232.619V178.88ZM234.595 177.872C234.911 177.32 235.272 176.828 235.703 176.43L232.99 173.49C232.174 174.244 231.575 175.096 231.122 175.888L234.595 177.872ZM235.761 176.374C236.102 176.033 236.553 175.685 237.113 175.405L235.324 171.827C234.349 172.315 233.552 172.927 232.933 173.546L235.761 176.374ZM237.16 175.381C237.524 175.187 238.046 175.04 238.859 175.04V171.04C237.559 171.04 236.354 171.277 235.278 171.851L237.16 175.381ZM238.859 175.04H243.419V171.04H238.859V175.04ZM267.904 198V200H269.904V198H267.904ZM251.056 196.08L252.497 194.693L252.484 194.679L252.471 194.666L251.056 196.08ZM249.712 177.12L251.522 177.972L251.543 177.927L251.562 177.881L249.712 177.12ZM251.152 174.96L249.796 173.49L249.766 173.518L249.738 173.546L251.152 174.96ZM253.408 173.568L254.133 175.432L254.133 175.432L253.408 173.568ZM264.592 173.568L263.867 175.432V175.432L264.592 173.568ZM266.848 174.96L268.263 173.546L268.234 173.518L268.205 173.49L266.848 174.96ZM268.336 177.12L270.186 176.358L270.167 176.313L270.146 176.268L268.336 177.12ZM268.864 187.2V189.2H270.864V187.2H268.864ZM252.544 187.2V185.2H250.544V187.2H252.544ZM253.648 194.016L255.107 192.648L255.063 192.601L255.016 192.557L253.648 194.016ZM267.904 195.12H269.904V193.12H267.904V195.12ZM252.544 184.32H250.544V186.32H252.544V184.32ZM265.504 184.32V186.32H267.504V184.32H265.504ZM264.4 177.024L265.859 175.656L265.815 175.609L265.768 175.565L264.4 177.024ZM253.648 177.024L255.063 178.438V178.438L253.648 177.024ZM267.904 196H256.384V200H267.904V196ZM256.384 196C254.444 196 253.259 195.484 252.497 194.693L249.616 197.467C251.35 199.268 253.717 200 256.384 200V196ZM252.471 194.666C251.642 193.838 251.184 192.736 251.184 191.28H247.184C247.184 193.664 247.974 195.826 249.642 197.494L252.471 194.666ZM251.184 191.28V179.76H247.184V191.28H251.184ZM251.184 179.76C251.184 179.006 251.296 178.451 251.522 177.972L247.903 176.268C247.36 177.421 247.184 178.594 247.184 179.76H251.184ZM251.562 177.881C251.797 177.31 252.129 176.812 252.567 176.374L249.738 173.546C248.927 174.356 248.3 175.298 247.863 176.358L251.562 177.881ZM252.509 176.43C252.941 176.03 253.493 175.681 254.133 175.432L252.683 171.704C251.596 172.127 250.611 172.738 249.796 173.49L252.509 176.43ZM254.133 175.432C254.75 175.192 255.51 175.04 256.384 175.04V171.04C255.051 171.04 253.795 171.272 252.683 171.704L254.133 175.432ZM256.384 175.04H261.664V171.04H256.384V175.04ZM261.664 175.04C262.485 175.04 263.246 175.19 263.867 175.432L265.317 171.704C264.211 171.274 262.956 171.04 261.664 171.04V175.04ZM263.867 175.432C264.508 175.681 265.059 176.03 265.492 176.43L268.205 173.49C267.389 172.738 266.405 172.127 265.317 171.704L263.867 175.432ZM265.434 176.374C265.871 176.811 266.225 177.331 266.527 177.972L270.146 176.268C269.679 175.277 269.074 174.357 268.263 173.546L265.434 176.374ZM266.487 177.881C266.731 178.475 266.864 179.081 266.864 179.76H270.864C270.864 178.519 270.613 177.397 270.186 176.358L266.487 177.881ZM266.864 179.76V187.2H270.864V179.76H266.864ZM268.864 185.2H252.544V189.2H268.864V185.2ZM250.544 187.2V191.28H254.544V187.2H250.544ZM250.544 191.28C250.544 192.838 251.042 194.314 252.28 195.475L255.016 192.557C254.719 192.278 254.544 191.93 254.544 191.28H250.544ZM252.189 195.384C253.35 196.622 254.827 197.12 256.384 197.12V193.12C255.734 193.12 255.387 192.946 255.107 192.648L252.189 195.384ZM256.384 197.12H267.904V193.12H256.384V197.12ZM265.904 195.12V198H269.904V195.12H265.904ZM250.544 179.76V184.32H254.544V179.76H250.544ZM252.544 186.32H265.504V182.32H252.544V186.32ZM267.504 184.32V179.76H263.504V184.32H267.504ZM267.504 179.76C267.504 178.166 266.906 176.772 265.859 175.656L262.941 178.392C263.335 178.812 263.504 179.242 263.504 179.76H267.504ZM265.768 175.565C264.652 174.519 263.259 173.92 261.664 173.92V177.92C262.182 177.92 262.612 178.089 263.032 178.483L265.768 175.565ZM261.664 173.92H256.384V177.92H261.664V173.92ZM256.384 173.92C254.766 173.92 253.34 174.504 252.234 175.61L255.063 178.438C255.397 178.104 255.795 177.92 256.384 177.92V173.92ZM252.234 175.61C251.058 176.786 250.544 178.223 250.544 179.76H254.544C254.544 179.185 254.703 178.798 255.063 178.438L252.234 175.61ZM295.735 198V200H297.735V198H295.735ZM293.575 198L291.595 198.283L291.84 200H293.575V198ZM293.095 194.64L295.075 194.357L294.83 192.64H293.095V194.64ZM292.855 194.64V192.64H291.655L291.09 193.699L292.855 194.64ZM291.367 196.56L292.781 197.974L291.367 196.56ZM289.495 197.904L290.389 199.693L290.413 199.681L290.436 199.669L289.495 197.904ZM277.687 196.56L279.128 195.173L279.115 195.159L279.101 195.146L277.687 196.56ZM276.343 187.68L278.153 188.532L278.174 188.487L278.192 188.441L276.343 187.68ZM277.783 185.52L276.426 184.05L276.397 184.078L276.369 184.106L277.783 185.52ZM292.375 183.6V185.6H294.375V183.6H292.375ZM291.271 177.504L292.73 176.136L292.686 176.089L292.639 176.045L291.271 177.504ZM277.975 176.4H275.975V178.4H277.975V176.4ZM277.975 173.52V171.52H275.975V173.52H277.975ZM291.463 174.048L290.738 175.912H290.738L291.463 174.048ZM293.719 175.44L295.133 174.026L295.105 173.998L295.076 173.97L293.719 175.44ZM295.207 177.6L297.056 176.838L297.038 176.793L297.017 176.748L295.207 177.6ZM289.207 194.928L288.125 193.246L288.084 193.272L288.045 193.301L289.207 194.928ZM290.983 193.44L289.456 192.148L289.451 192.154L289.447 192.16L290.983 193.44ZM292.375 191.28L294.185 192.132L294.375 191.727V191.28H292.375ZM292.375 186.48H294.375V184.48H292.375V186.48ZM280.279 194.496L281.738 193.128L281.694 193.081L281.647 193.037L280.279 194.496ZM295.735 196H293.575V200H295.735V196ZM295.555 197.717L295.075 194.357L291.115 194.923L291.595 198.283L295.555 197.717ZM293.095 192.64H292.855V196.64H293.095V192.64ZM291.09 193.699C290.836 194.176 290.458 194.641 289.953 195.146L292.781 197.974C293.428 197.327 294.106 196.544 294.62 195.581L291.09 193.699ZM289.953 195.146C289.599 195.5 289.148 195.822 288.554 196.139L290.436 199.669C291.282 199.218 292.079 198.676 292.781 197.974L289.953 195.146ZM288.601 196.115C288.148 196.341 287.598 196.48 286.855 196.48V200.48C288.128 200.48 289.306 200.235 290.389 199.693L288.601 196.115ZM286.855 196.48H283.015V200.48H286.855V196.48ZM283.015 196.48C281.074 196.48 279.89 195.964 279.128 195.173L276.246 197.947C277.98 199.748 280.348 200.48 283.015 200.48V196.48ZM279.101 195.146C278.273 194.318 277.815 193.216 277.815 191.76H273.815C273.815 194.144 274.605 196.306 276.273 197.974L279.101 195.146ZM277.815 191.76V190.32H273.815V191.76H277.815ZM277.815 190.32C277.815 189.566 277.927 189.011 278.153 188.532L274.533 186.828C273.991 187.981 273.815 189.154 273.815 190.32H277.815ZM278.192 188.441C278.428 187.87 278.76 187.372 279.197 186.934L276.369 184.106C275.558 184.917 274.93 185.858 274.494 186.919L278.192 188.441ZM279.14 186.99C279.572 186.59 280.123 186.241 280.764 185.992L279.314 182.264C278.227 182.687 277.242 183.298 276.426 184.05L279.14 186.99ZM280.764 185.992C281.38 185.752 282.141 185.6 283.015 185.6V181.6C281.681 181.6 280.426 181.832 279.314 182.264L280.764 185.992ZM283.015 185.6H292.375V181.6H283.015V185.6ZM294.375 183.6V180.24H290.375V183.6H294.375ZM294.375 180.24C294.375 178.646 293.776 177.252 292.73 176.136L289.812 178.872C290.206 179.292 290.375 179.722 290.375 180.24H294.375ZM292.639 176.045C291.523 174.999 290.129 174.4 288.535 174.4V178.4C289.053 178.4 289.483 178.569 289.903 178.963L292.639 176.045ZM288.535 174.4H277.975V178.4H288.535V174.4ZM279.975 176.4V173.52H275.975V176.4H279.975ZM277.975 175.52H288.535V171.52H277.975V175.52ZM288.535 175.52C289.355 175.52 290.117 175.67 290.738 175.912L292.188 172.184C291.081 171.754 289.827 171.52 288.535 171.52V175.52ZM290.738 175.912C291.379 176.161 291.93 176.51 292.362 176.91L295.076 173.97C294.26 173.218 293.275 172.607 292.188 172.184L290.738 175.912ZM292.305 176.854C292.741 177.291 293.096 177.811 293.397 178.452L297.017 176.748C296.55 175.757 295.945 174.837 295.133 174.026L292.305 176.854ZM293.358 178.361C293.602 178.955 293.735 179.561 293.735 180.24H297.735C297.735 178.999 297.484 177.877 297.056 176.838L293.358 178.361ZM293.735 180.24V198H297.735V180.24H293.735ZM283.015 197.6H286.855V193.6H283.015V197.6ZM286.855 197.6C288.005 197.6 289.265 197.344 290.369 196.555L288.045 193.301C287.805 193.472 287.433 193.6 286.855 193.6V197.6ZM290.289 196.61C291.038 196.129 291.853 195.52 292.519 194.72L289.447 192.16C289.153 192.512 288.72 192.863 288.125 193.246L290.289 196.61ZM292.51 194.732C293.142 193.985 293.72 193.119 294.185 192.132L290.565 190.428C290.262 191.073 289.881 191.647 289.456 192.148L292.51 194.732ZM294.375 191.28V186.48H290.375V191.28H294.375ZM292.375 184.48H283.015V188.48H292.375V184.48ZM283.015 184.48C281.396 184.48 279.971 185.064 278.865 186.17L281.693 188.998C282.027 188.664 282.426 188.48 283.015 188.48V184.48ZM278.865 186.17C277.688 187.346 277.175 188.783 277.175 190.32H281.175C281.175 189.745 281.334 189.358 281.693 188.998L278.865 186.17ZM277.175 190.32V191.76H281.175V190.32H277.175ZM277.175 191.76C277.175 193.318 277.673 194.794 278.911 195.955L281.647 193.037C281.349 192.758 281.175 192.41 281.175 191.76H277.175ZM278.82 195.864C279.981 197.102 281.457 197.6 283.015 197.6V193.6C282.365 193.6 282.017 193.426 281.738 193.128L278.82 195.864ZM315.188 183.84V185.84H316.362L316.935 184.815L315.188 183.84ZM320.948 173.52V171.52H319.774L319.202 172.545L320.948 173.52ZM324.308 173.52H326.308V171.52H324.308V173.52ZM324.308 174.96L326.02 175.995L326.308 175.518V174.96H324.308ZM318.068 185.28L316.357 184.245L315.736 185.272L316.35 186.304L318.068 185.28ZM324.788 196.56H326.788V196.009L326.506 195.536L324.788 196.56ZM324.788 198V200H326.788V198H324.788ZM321.428 198L319.678 198.968L320.249 200H321.428V198ZM315.188 186.72L316.938 185.752L316.367 184.72H315.188V186.72ZM308.708 186.72V184.72H306.708V186.72H308.708ZM308.708 198V200H310.708V198H308.708ZM305.348 198H303.348V200H305.348V198ZM305.348 164.4V162.4H303.348V164.4H305.348ZM308.708 164.4H310.708V162.4H308.708V164.4ZM308.708 183.84H306.708V185.84H308.708V183.84ZM316.935 184.815L322.695 174.495L319.202 172.545L313.442 182.865L316.935 184.815ZM320.948 175.52H324.308V171.52H320.948V175.52ZM322.308 173.52V174.96H326.308V173.52H322.308ZM322.597 173.925L316.357 184.245L319.78 186.315L326.02 175.995L322.597 173.925ZM316.35 186.304L323.07 197.584L326.506 195.536L319.786 184.256L316.35 186.304ZM322.788 196.56V198H326.788V196.56H322.788ZM324.788 196H321.428V200H324.788V196ZM323.178 197.032L316.938 185.752L313.438 187.688L319.678 198.968L323.178 197.032ZM315.188 184.72H308.708V188.72H315.188V184.72ZM306.708 186.72V198H310.708V186.72H306.708ZM308.708 196H305.348V200H308.708V196ZM307.348 198V164.4H303.348V198H307.348ZM305.348 166.4H308.708V162.4H305.348V166.4ZM306.708 164.4V183.84H310.708V164.4H306.708ZM308.708 185.84H315.188V181.84H308.708V185.84Z" fill="#00B197" mask="url(#path-7-outside-2_8312_6657)"/>
<path d="M313.333 214C313.333 215.268 314.586 217.16 315.853 218.749C317.483 220.799 319.43 222.588 321.663 223.953C323.337 224.976 325.367 225.958 327 225.958M327 225.958C325.367 225.958 323.336 226.941 321.663 227.964C319.43 229.331 317.483 231.119 315.853 233.166C314.586 234.756 313.333 236.652 313.333 237.917M327 225.958L286 225.958" stroke="white" stroke-width="1.5"/>
<path d="M252.5 227L214.254 226.766L193.904 226.174L200.971 225.5L232.15 225.06L272.85 225.06L304.029 225.5L311.096 226.174L290.746 226.766L252.5 227Z" fill="#00B197"/>
</svg>
