<svg id="Layer_1" data-name="Layer 1" xmlns="http://www.w3.org/2000/svg" viewBox="0 0 120 86.97"><defs><style>.cls-1,.cls-2{fill:#232426;}.cls-2{stroke:#000;stroke-miterlimit:10;stroke-width:6px;}</style></defs><title>tree</title><path class="cls-1" d="M64.1,77.27A1.58,1.58,0,0,1,63,76.79l-5.45-5.45a1.62,1.62,0,0,1,1.14-2.76,1.62,1.62,0,0,1,1.15.48l4.43,4.43,4.18-4.43a1.61,1.61,0,0,1,2.28,2.28l-5.45,5.45A1.58,1.58,0,0,1,64.1,77.27Z" transform="translate(-4 -20.18)"/><path class="cls-1" d="M64.1,77.27a1.63,1.63,0,0,1-1.62-1.62V60.39a1.62,1.62,0,0,1,3.24,0V75.65A1.63,1.63,0,0,1,64.1,77.27Z" transform="translate(-4 -20.18)"/><path class="cls-1" d="M27.78,72.26a1.61,1.61,0,0,1-1.62-1.62v-7.7a1.62,1.62,0,1,1,3.24,0v6.27L35.48,69a1.62,1.62,0,1,1,0,3.23Z" transform="translate(-4 -20.18)"/><path class="cls-1" d="M27.78,72.26a1.59,1.59,0,0,1-1.15-.47,1.62,1.62,0,0,1,0-2.29L37.42,58.71a1.62,1.62,0,0,1,2.76,1.15A1.57,1.57,0,0,1,39.71,61L28.92,71.79A1.57,1.57,0,0,1,27.78,72.26Z" transform="translate(-4 -20.18)"/><path class="cls-1" d="M92.37,72.26a1.62,1.62,0,1,1,0-3.23h6.28l-.19-6.09a1.62,1.62,0,0,1,3.24,0v7.7a1.62,1.62,0,0,1-1.62,1.62Z" transform="translate(-4 -20.18)"/><path class="cls-1" d="M100.08,72.26a1.61,1.61,0,0,1-1.15-.47L88.15,61a1.61,1.61,0,0,1,0-2.29,1.57,1.57,0,0,1,1.14-.47,1.61,1.61,0,0,1,1.15.47L101.22,69.5a1.61,1.61,0,0,1,0,2.29A1.57,1.57,0,0,1,100.08,72.26Z" transform="translate(-4 -20.18)"/><path class="cls-1" d="M64.15,52.53A16.18,16.18,0,1,1,80.32,36.35,16.2,16.2,0,0,1,64.15,52.53Zm0-30.31A14.13,14.13,0,1,0,78.27,36.35,14.15,14.15,0,0,0,64.15,22.22Z" transform="translate(-4 -20.18)"/><path class="cls-1" d="M64.15,42.85a6.5,6.5,0,1,1,6.49-6.5A6.51,6.51,0,0,1,64.15,42.85Zm0-11a4.45,4.45,0,1,0,4.45,4.45A4.46,4.46,0,0,0,64.15,31.9Z" transform="translate(-4 -20.18)"/><path class="cls-2" d="M18.14,97.91A11.14,11.14,0,1,1,29.27,86.78,11.15,11.15,0,0,1,18.14,97.91Zm0-20.86a9.73,9.73,0,1,0,9.73,9.73A9.73,9.73,0,0,0,18.14,77.05Z" transform="translate(-4 -20.18)"/><path class="cls-2" d="M64.1,104.15A11.14,11.14,0,1,1,75.24,93,11.16,11.16,0,0,1,64.1,104.15Zm0-20.87A9.73,9.73,0,1,0,73.83,93,9.75,9.75,0,0,0,64.1,83.28Z" transform="translate(-4 -20.18)"/><path class="cls-2" d="M109.86,97.91A11.14,11.14,0,1,1,121,86.78,11.14,11.14,0,0,1,109.86,97.91Zm0-20.86a9.73,9.73,0,1,0,9.73,9.73A9.74,9.74,0,0,0,109.86,77.05Z" transform="translate(-4 -20.18)"/></svg>