<svg xmlns="http://www.w3.org/2000/svg" width="371" height="308" fill="none" viewBox="0 0 371 308">
  <path fill="#8AF5D1" fill-opacity=".05" fill-rule="evenodd" d="M299.938 99.784c17.055 53.019-5.504 118.258-48.448 147.517-42.876 29.192-106.136 22.471-144.256-7.874-38.187-30.278-51.233-84.044-36.624-133.602C85.15 56.2 127.415 10.851 176.814 8.543c49.467-2.376 106.137 38.289 123.124 91.24Z" clip-rule="evenodd"/>
  <path fill="#84AAA3" fill-rule="evenodd" d="M154.999 81.42s-3.164 4.805-4.458 10.849c-.552 2.581-1.285 5.843.192 9.386.356.855 2.18 5.39 6.503 6.597 5.416 1.513 10.286-3.431 11.304-4.464 3.164-3.212 4.039-6.85 4.859-10.258.414-1.722 2.098-8.724.071-16.548-.432-1.667-1.123-3.723-1.334-6.91-.17-2.58-.293-4.838.849-7.03 1.081-2.077 2.148-1.888 5.159-4.667 1.683-1.552 4.401-4.06 5.924-7.78 1.091-2.663.277-2.794 1.714-7.495 1.058-3.462 1.586-5.193 2.997-6.425 2.217-1.934 4.515-1.377 5.462-3.212.546-1.06-.432-1.547-.295-3.99.068-1.225.141-2.555 1.108-3.637.772-.865 2.173-1.638 3.396-1.291 1.029.291 1.128 1.145 1.971 1.597 1.362.728 3.153-.363 5.706-1.873 2.629-1.556 2.633-1.59 4.635-2.573 2.703-1.327 3.574-1.304 4.331-2.19 1.694-1.984-.437-7.236-3.089-10.62-4.526-5.78-12.523-8.607-19.884-8.06-10.189.758-16.297 7.767-17.615 9.369-4.326 5.26-5.433 11.092-5.996 14.054-1.417 7.465.766 9.057-1.312 15.74-.809 2.605-2.163 6.962-5.809 11.056-2.794 3.139-5.193 4.166-6.745 8.057-.403 1.01-1.234 3.16-1.029 5.896.132 1.752.745 3.42 1.972 6.758 1.146 3.12 1.578 3.706 1.501 5.069-.107 1.908-1.084 3.071-2.088 4.596Z" clip-rule="evenodd"/>
  <path fill="#84AAA3" d="M195.892 46.793a.76.76 0 0 1 1.498.239l-.012.072-1.29 6.164-.532 2.535a.76.76 0 0 1-.454.546c-2.412.992-5.088 1.57-8.13 1.438a19.04 19.04 0 0 1-6.412-1.412.758.758 0 1 1 .574-1.405 17.524 17.524 0 0 0 5.904 1.3 17.332 17.332 0 0 0 6.969-1.12l.147-.058 1.738-8.3Z"/>
  <path fill="#84AAA3" d="M213.942 16.16a.76.76 0 0 1 .841.668c.984 8.629.021 16.148-2.593 22.224-2.161 5.015-5.812 8.444-10.16 9.23a7.288 7.288 0 0 1-1.693.082c-1.048-.051-2.282-.265-3.61-.607l-2.48-.656-.472-.129-.397-.111a54.78 54.78 0 0 1-1.695-.513.76.76 0 0 1 .462-1.447l.575.181c.278.086.542.165.808.242l.456.13.787.216 2.061.545c1.343.36 2.579.583 3.584.633.521.028.974.008 1.342-.06 3.797-.686 7.063-3.753 9.037-8.336 2.506-5.824 3.435-13.077 2.479-21.452a.76.76 0 0 1 .668-.84Zm-45.304 86.636a.76.76 0 0 1 .877.619 317.07 317.07 0 0 1 4.552 61.978l-.018.641.56-.467a86.898 86.898 0 0 1 2.594-2.061l.667-.505a87.74 87.74 0 0 1 3.818-2.704.759.759 0 1 1 .844 1.262 86.169 86.169 0 0 0-8.792 6.739.76.76 0 0 1-1.258-.596 315.43 315.43 0 0 0-4.463-64.028.76.76 0 0 1 .619-.878Zm19.453-4.646a.759.759 0 0 1 .807.707 356.048 356.048 0 0 0 10.919 66.96.76.76 0 0 1-.562.932l-.07.013-12.008 1.629a.76.76 0 0 1-.824-.517 158.905 158.905 0 0 1-4.968-19.323 159.134 159.134 0 0 1-2.393-18.034.76.76 0 0 1 1.514-.113 157.432 157.432 0 0 0 2.37 17.862 157.313 157.313 0 0 0 4.639 18.262l.088.273 10.529-1.429-.17-.655a357.682 357.682 0 0 1-4.178-18.098l-.308-1.531a357.358 357.358 0 0 1-6.092-46.13.759.759 0 0 1 .707-.808Zm6.136-43.078a.758.758 0 0 1 1.034.287 76.233 76.233 0 0 0 4.104 6.484 59.365 59.365 0 0 0 2.183 2.895l.218.268c.528.65 4.794 5.61 7.424 8.764l3.501 4.236c3.087 3.757 3.914 4.858 4.374 5.74.43.825.778 1.62 1.058 2.413l.101.298c.92 2.783 1.046 4.234.815 11.195l-.15 4.225c-.025.747-.046 1.451-.064 2.164l-.025 1.198-.006.402c-.104 7.79.098 17.085.853 26.047a160.185 160.185 0 0 0 1.884 14.475.76.76 0 0 1-.598.877 122.534 122.534 0 0 0-9.837 2.404 125.405 125.405 0 0 0-10.951 3.712.759.759 0 1 1-.553-1.414 126.662 126.662 0 0 1 11.084-3.757 124.92 124.92 0 0 1 9.064-2.251l.168-.035-.12-.711a161.561 161.561 0 0 1-1.582-12.353l-.071-.82c-.739-8.753-.951-17.81-.867-25.499l.03-1.955.028-1.075c.024-.836.052-1.683.086-2.621l.108-3.029c.226-6.763.108-8.147-.737-10.702a16.286 16.286 0 0 0-.902-2.166l-.213-.414c-.44-.801-1.42-2.07-4.676-6.024l-3.142-3.797c-2.463-2.946-6.212-7.313-7.117-8.394l-.144-.174a60.387 60.387 0 0 1-2.464-3.246 78.043 78.043 0 0 1-4.185-6.612.76.76 0 0 1 .287-1.035Z"/>
  <path fill="#84AAA3" d="M217.498 146.244a.76.76 0 0 1 .756.686l.003.073v81.598l-.002.062-.008.062-10.859 65.296a.759.759 0 0 1-1.506-.176l.009-.073 10.848-65.233v-81.536c0-.395.301-.719.686-.755l.073-.004Zm-28.153 36.698a.76.76 0 0 1 .817.613l.01.072 4.353 46.323.003.093-2.176 73.808a.76.76 0 0 1-1.516.028l-.002-.073 2.175-73.763-4.349-46.274a.76.76 0 0 1 .612-.817l.073-.01Z"/>
  <path fill="#84AAA3" fill-rule="evenodd" d="M189.416 293.896h22.005l18.026 4.316a5.664 5.664 0 0 1 4.345 5.508v3.028l-44.376-.534v-12.318Zm-35.171-23.886-10.607 11.578 29.633 25.002h9.003v-2.66l-6.841-4.834-6.429-17.847-14.759-11.239Z" clip-rule="evenodd"/>
  <path fill="#84AAA3" d="M192.754 225.021a.76.76 0 0 1 1.226.892l-.046.063-37.691 46.603a.759.759 0 0 1-1.226-.892l.046-.063 37.691-46.603Zm-.299 31.986a.76.76 0 0 1 1.058 1.086l-.056.055-26.017 22.865a.76.76 0 0 1-1.058-1.086l.055-.054 26.018-22.866Zm4.73-91.445a.76.76 0 0 1 1.038.276l.516.896c.357.624.743 1.308 1.176 2.081l.524.947c3.789 6.898 4.544 9.221 3.956 10.866-1.23 3.442-6.308 5.45-10.827 4.927-1.066-.122-1.938-.293-2.962-.676-1.582-.594-2.857-1.522-3.661-2.873-.889-1.492-.94-3.107-.254-7.197a76.563 76.563 0 0 1 1.677-7.641.76.76 0 1 1 1.465.399 75.097 75.097 0 0 0-1.55 6.937l-.094.555c-.631 3.759-.589 5.08.061 6.17.606 1.02 1.604 1.746 2.889 2.228.882.33 1.649.48 2.603.59 3.896.451 8.277-1.281 9.223-3.93l.024-.075c.344-1.15-.477-3.427-4.4-10.488l-.756-1.342c-.331-.585-.635-1.116-.923-1.612a.76.76 0 0 1 .275-1.038Z"/>
  <path fill="#84AAA3" d="M177.752 163.151a.759.759 0 0 1 .95.498 78.06 78.06 0 0 0 4.18 10.621 77.855 77.855 0 0 0 7.473 12.449.759.759 0 0 1-1.224.899 79.478 79.478 0 0 1-7.617-12.69 79.472 79.472 0 0 1-4.261-10.827.758.758 0 0 1 .499-.95Z"/>
  <path fill="#84AAA3" d="M186.618 177.477a.76.76 0 0 1 .805 1.287 129.1 129.1 0 0 0-1.671 1.065l-.544.355c-11.453 7.468-21.97 16.555-30.895 26.705l-.781.896a306.036 306.036 0 0 0-3.407 4.009l-4.312 5.171c-4.531 5.417-7.224 8.473-10.417 11.724-4.393 4.473-8.667 8.074-13.207 10.993l-.849.539c-9.255 5.73-21.818 7.905-31.66 5.184a.76.76 0 0 1 .405-1.463c9.417 2.603 21.548.504 30.446-5.006l.389-.246c8.23-5.188 13.995-11.026 24.684-23.843l3.175-3.811a302.966 302.966 0 0 1 3.895-4.578c8.958-10.298 19.538-19.528 31.073-27.131l.63-.413c.726-.478 1.473-.956 2.241-1.437Z"/>
  <path fill="#84AAA3" d="M92.15 223.542a.758.758 0 0 1 .819.694c1.024 12.576-1.759 23.55-8.857 32.08l-.467.554c-1.626 1.914-3.22 3.574-6.02 6.314l-2.64 2.568c-7.328 7.146-10.364 10.802-12.818 16.263-3.386 7.549-3.307 16.309-.014 24.444a.76.76 0 0 1-1.407.569c-3.443-8.504-3.526-17.693.036-25.635l.188-.413c2.586-5.596 5.827-9.397 13.498-16.843l1.257-1.221c3.586-3.488 5.307-5.273 7.22-7.572 6.821-8.197 9.505-18.778 8.51-30.984a.758.758 0 0 1 .695-.818Z"/>
  <path fill="#84AAA3" d="M115.781 195.281c3.056-1.541 4.775-1.73 5.929-1.177 1.922.907 2.924 3.587 2.869 6.256a5.998 5.998 0 0 1-.076.91 7.182 7.182 0 0 1-.305 1.37c-.657 2.025-1.968 3.566-4.488 5.691l-2.038 1.691-.444.377c-2.971 2.55-4.553 4.572-5.38 7.381l-.059.207c-.412 1.488-.26 3.186.771 9.454l3.92 23.523.208 1.169c1.901 10.797 2.689 18.441 2.187 27.573-.476 8.591-2.306 17.567-6.228 27.32a.758.758 0 1 1-1.408-.566c3.856-9.59 5.653-18.405 6.12-26.838.486-8.827-.257-16.269-2.067-26.663l-.544-3.12-3.808-22.9c-.958-5.881-1.09-7.581-.633-9.287l.019-.07c.928-3.347 2.74-5.647 6.142-8.531l.882-.734c.512-.424 1.152-.953 1.382-1.147l.397-.339c2.056-1.777 3.111-3.075 3.625-4.659.119-.367.199-.721.247-1.118a4.87 4.87 0 0 0 .06-.723c.044-2.138-.751-4.265-2.003-4.856-.231-.111-.504-.16-1.021-.104-.852.094-2.025.486-3.571 1.265a20.235 20.235 0 0 0-2.799 1.691l-.612.457c-.296.227-.55.436-.958.791l-1.082.954c-1.366 1.214-2.286 1.91-3.591 2.624-1.183.647-2.139.992-3.249 1.214l-.224.042c-.221.04-.434.075-.735.119l-.534.08c-1.326.199-1.933.327-3.001.654-3.854 1.18-7.226 3.464-10.11 6.48a30.233 30.233 0 0 0-2.806 3.398 24.066 24.066 0 0 0-1.264 1.957c-1.806 3.125-3.06 6.932-3.517 10.343-.397 2.977-.07 5.153.553 5.447.387.182 1.434-.362 2.806-1.599.477-.43.981-.93 1.513-1.493l.358-.383a66.58 66.58 0 0 0 1.824-2.08 30.105 30.105 0 0 0 2.533-3.441 31.038 31.038 0 0 0 2.416-4.645.759.759 0 0 1 1.4.589 32.508 32.508 0 0 1-2.533 4.868 31.582 31.582 0 0 1-2.66 3.614l-.616.72a49.391 49.391 0 0 1-1.618 1.801c-.558.59-1.09 1.117-1.6 1.577l-.28.248c-1.703 1.481-3.062 2.13-4.191 1.597-2.9-1.368-1.652-10.936 2.18-17.717l.117-.204c.337-.588.766-1.267 1.341-2.078a31.81 31.81 0 0 1 2.947-3.569c3.05-3.19 6.636-5.618 10.762-6.881l.317-.096c.918-.27 1.563-.403 2.697-.577l1.068-.161c.131-.021.246-.04.362-.061 1.05-.191 1.9-.485 3.015-1.095 1.12-.613 1.93-1.212 3.101-2.241l1.325-1.168c.535-.465.819-.693 1.267-1.028l.148-.11c.956-.715 2-1.363 3.245-1.993Z"/>
  <path fill="#84AAA3" d="M107.62 269.252a.759.759 0 0 1 .805.71 55.819 55.819 0 0 1-1.206 15.686c-1.841 8.299-5.347 15.414-9.887 21.547a.758.758 0 1 1-1.22-.903c4.421-5.973 7.834-12.898 9.625-20.972a54.382 54.382 0 0 0 1.173-15.263.758.758 0 0 1 .71-.805Zm-13.202 7.144a.758.758 0 0 1 .78.738c.135 4.79-.529 9.73-2.426 14.834-1.565 4.208-3.775 7.928-6.467 11.205a42.139 42.139 0 0 1-2.622 2.896c-.429.423-.858.833-1.289 1.232a.759.759 0 1 1-1.03-1.115 55.48 55.48 0 0 0 1.247-1.192 40.28 40.28 0 0 0 2.522-2.786 37.469 37.469 0 0 0 6.216-10.769c1.823-4.905 2.461-9.654 2.331-14.263a.759.759 0 0 1 .738-.78Z"/>
  <path fill="#84AAA3" d="M370.21 305.984a.76.76 0 0 1 .073 1.515l-.073.004H.76a.76.76 0 0 1-.074-1.515l.073-.004H370.21Z"/>
  <path fill="#84AAA3" fill-rule="evenodd" d="m37.06 138.689 26.946-20.524a.761.761 0 0 1 .92 0l26.946 20.524c.4.304.4.904 0 1.208L64.925 160.42a.758.758 0 0 1-.92 0L37.06 139.897a.759.759 0 0 1 0-1.208Zm53.1.604-25.695-19.57-25.694 19.57 25.694 19.569 25.694-19.569Z" clip-rule="evenodd"/>
  <path fill="#84AAA3" d="M91.412 138.534c.395 0 .72.3.756.685l.003.074v29.855a.757.757 0 0 1-.239.553l-.06.051-26.947 20.523a.758.758 0 0 1-.855.044l-.064-.044-26.947-20.523a.761.761 0 0 1-.295-.526l-.004-.078v-29.855a.759.759 0 0 1 1.515-.074l.003.074v29.479l26.187 19.945 26.188-19.945v-29.479a.76.76 0 0 1 .686-.756l.073-.003Z"/>
  <path fill="#84AAA3" d="M64.466 159.057a.76.76 0 0 1 .756.686l.003.073v29.855a.759.759 0 0 1-1.515.073l-.003-.073v-29.855a.76.76 0 0 1 .76-.759Z"/>
  <path fill="#84AAA3" fill-rule="evenodd" d="m64.466 159.816 26.946-20.524v29.856l-26.946 20.523v-29.855ZM75.03 20.678 101.975.155a.76.76 0 0 1 .92 0l26.947 20.523a.76.76 0 0 1 0 1.208l-26.947 20.523a.76.76 0 0 1-.92 0L75.029 21.886a.76.76 0 0 1 0-1.208Zm53.1.604-25.694-19.57-25.694 19.57 25.694 19.569 25.694-19.57Z" clip-rule="evenodd"/>
  <path fill="#84AAA3" d="M129.383 20.523a.76.76 0 0 1 .755.686l.004.073v29.856a.76.76 0 0 1-.24.553l-.059.051-26.947 20.523a.76.76 0 0 1-.855.044l-.065-.044-26.947-20.523a.761.761 0 0 1-.294-.526l-.004-.078V21.282a.76.76 0 0 1 1.514-.073l.004.073v29.48l26.187 19.944 26.188-19.945V21.282a.76.76 0 0 1 .686-.756l.073-.003Z"/>
  <path fill="#84AAA3" d="M102.436 41.045a.76.76 0 0 1 .756.687l.003.072V71.66a.758.758 0 0 1-1.514.074l-.004-.074V41.805c0-.42.34-.76.759-.76Z"/>
  <path fill="#84AAA3" fill-rule="evenodd" d="M102.436 41.805 75.49 21.282v29.856l26.946 20.523V41.805Zm176.179 19.919L305.562 41.2a.76.76 0 0 1 .92 0l26.947 20.523a.76.76 0 0 1 0 1.208l-26.947 20.523a.76.76 0 0 1-.92 0l-26.947-20.523a.76.76 0 0 1 0-1.208Zm53.101.604-25.694-19.57-25.694 19.57 25.694 19.57 25.694-19.57Z" clip-rule="evenodd"/>
  <path fill="#84AAA3" fill-rule="evenodd" d="m279.076 62.328 26.946 20.524 26.947-20.524-26.947-20.523-26.946 20.523Z" clip-rule="evenodd"/>
  <path fill="#84AAA3" d="M332.969 61.57c.394 0 .719.3.755.685l.004.073v29.856a.76.76 0 0 1-.24.553l-.059.05-26.947 20.524a.76.76 0 0 1-.855.044l-.065-.044-26.947-20.524a.763.763 0 0 1-.295-.525l-.004-.078V62.328a.759.759 0 0 1 1.515-.073l.004.073v29.48l26.187 19.945 26.188-19.946V62.328a.76.76 0 0 1 .686-.756l.073-.003Z"/>
  <path fill="#84AAA3" d="M306.022 82.092a.76.76 0 0 1 .756.686l.003.073v29.856a.759.759 0 0 1-1.514.073l-.004-.073V82.851a.76.76 0 0 1 .759-.759Zm-61.445 18.178a.76.76 0 0 1 1.02 1.122l-.057.052-7.542 6.187a6.35 6.35 0 0 1-6.291 1.023l-.162-.064-6.079-2.511-7.408.213a.76.76 0 0 1-.775-.664l-.006-.073a.76.76 0 0 1 .664-.775l.073-.005 7.571-.218a.75.75 0 0 1 .236.03l.075.027 6.228 2.573a4.836 4.836 0 0 0 4.784-.63l.127-.1 7.542-6.187Zm-13.744-8.067a4.266 4.266 0 0 1 3.584-.064l.143.066 5.862 2.849a.76.76 0 0 1-.596 1.394l-.068-.03-5.862-2.848a2.748 2.748 0 0 0-2.273-.058l-.127.057-7.446 3.614a.74.74 0 0 1-.246.071l-.085.005h-5.394a.76.76 0 0 1-.074-1.514l.074-.004h5.219l7.289-3.538Z"/>
  <path fill="#84AAA3" d="M258.752 85.61a.759.759 0 0 1 .937 1.192l-.057.045-25.316 18.005a.76.76 0 0 1-.938-1.192l.058-.045 25.316-18.005Zm-7.108-43.827c10.132-5.586 19.842-5.932 29.102-.068a.76.76 0 0 1-.813 1.282c-8.755-5.545-17.879-5.22-27.556.116-7.88 4.345-15.721 11.694-24.472 22.163a.76.76 0 0 1-1.165-.973l.757-.901c8.56-10.125 16.297-17.29 24.147-21.619Z"/>
  <path fill="#8AF5D1" d="M161.397 132.486a.76.76 0 0 1 .833 1.269c-16.686 10.953-35.036 17.478-52.337 17.79a.759.759 0 1 1-.027-1.517c16.989-.307 35.069-6.736 51.531-17.542ZM61.323 35.104a.76.76 0 0 1 .707 1.344c-23.183 12.2-31.747 42.693-20.767 68.484a.76.76 0 0 1-1.396.595c-11.274-26.48-2.47-57.831 21.456-70.423Z"/>
  <path fill="#84AAA3" d="M251.85 166.816a.76.76 0 0 1 .756.686l.003.073v59.906a.759.759 0 0 1-1.515.073l-.003-.073v-59.906a.76.76 0 0 1 .759-.759Zm21.138 0a.76.76 0 0 1 .756.686l.003.073v59.906a.759.759 0 0 1-1.514.073l-.004-.073v-59.906a.76.76 0 0 1 .759-.759Zm21.137 0a.76.76 0 0 1 .756.686l.003.073v59.906a.758.758 0 0 1-1.514.073l-.004-.073v-59.906a.76.76 0 0 1 .759-.759Zm21.142 0a.76.76 0 0 1 .756.686l.003.073v59.906a.759.759 0 0 1-1.514.073l-.004-.073v-59.906a.76.76 0 0 1 .759-.759Zm21.137 0a.76.76 0 0 1 .756.686l.003.073v59.906a.758.758 0 0 1-1.514.073l-.004-.073v-59.906a.76.76 0 0 1 .759-.759Zm21.138 0a.76.76 0 0 1 .756.686l.003.073v59.906a.759.759 0 0 1-1.514.073l-.004-.073v-59.906a.76.76 0 0 1 .759-.759Z"/>
  <path fill="#84AAA3" d="M357.542 166.816a.76.76 0 0 1 .073 1.515l-.073.003H251.85a.76.76 0 0 1-.073-1.515l.073-.003h105.692Zm0 11.983a.759.759 0 0 1 .073 1.514l-.073.004H251.85a.76.76 0 0 1-.073-1.515l.073-.003h105.692Zm0 11.978a.76.76 0 0 1 .073 1.515l-.073.003H251.85a.76.76 0 0 1-.073-1.514l.073-.004h105.692Zm0 11.983a.76.76 0 0 1 .073 1.515l-.073.003H251.85a.759.759 0 0 1-.073-1.514l.073-.004h105.692Zm0 11.979a.76.76 0 0 1 .073 1.515l-.073.003H251.85a.76.76 0 0 1-.073-1.515l.073-.003h105.692Zm0 11.983a.76.76 0 0 1 .073 1.514l-.073.004H251.85a.76.76 0 0 1-.073-1.515l.073-.003h105.692Z"/>
  <path fill="#84AAA3" fill-rule="evenodd" d="M272.988 191.536h21.137v-11.978h-21.137v11.978Zm42.279 11.981h21.138v-11.978h-21.138v11.978Zm-63.417 23.959h21.138v-11.978H251.85v11.978Zm-.82 35.697h107.402v-23.241H251.03v23.241Z" clip-rule="evenodd"/>
  <path fill="#fff" fill-rule="evenodd" d="M266.17 249.488v-1.39c.643-.029 1.093-.073 1.351-.13.41-.091.744-.272 1.001-.544.176-.187.31-.435.4-.746.053-.187.079-.325.079-.416h1.706v10.394h-2.093v-7.168h-2.444Zm11.894 4.813c.196.634.597.95 1.204.95s1.004-.316 1.193-.95c.189-.633.284-1.547.284-2.741 0-1.252-.095-2.179-.284-2.782-.189-.602-.586-.903-1.193-.903-.607 0-1.008.301-1.204.903-.196.603-.294 1.53-.294 2.782 0 1.194.098 2.108.294 2.741Zm3.989-6.713c.533.932.799 2.256.799 3.972 0 1.716-.266 3.037-.799 3.964s-1.461 1.391-2.785 1.391c-1.323 0-2.252-.464-2.785-1.391-.533-.927-.799-2.248-.799-3.964 0-1.716.266-3.04.799-3.972.533-.931 1.462-1.397 2.785-1.397 1.324 0 2.252.466 2.785 1.397Zm4.263 1.9v-1.39c.643-.029 1.094-.073 1.352-.13a1.907 1.907 0 0 0 1-.544c.176-.187.31-.435.401-.746.052-.187.078-.325.078-.416h1.706v10.394h-2.093v-7.168h-2.444Zm11.894 4.813c.197.634.598.95 1.205.95.607 0 1.004-.316 1.193-.95.189-.633.284-1.547.284-2.741 0-1.252-.095-2.179-.284-2.782-.189-.602-.586-.903-1.193-.903-.607 0-1.008.301-1.205.903-.196.603-.294 1.53-.294 2.782 0 1.194.098 2.108.294 2.741Zm3.99-6.713c.533.932.799 2.256.799 3.972 0 1.716-.266 3.037-.799 3.964s-1.462 1.391-2.785 1.391c-1.324 0-2.252-.464-2.785-1.391-.533-.927-.799-2.248-.799-3.964 0-1.716.266-3.04.799-3.972.533-.931 1.461-1.397 2.785-1.397 1.323 0 2.252.466 2.785 1.397Zm4.262 1.9v-1.39c.643-.029 1.093-.073 1.352-.13a1.907 1.907 0 0 0 1-.544c.177-.187.31-.435.401-.746.052-.187.078-.325.078-.416h1.706v10.394h-2.093v-7.168h-2.444Zm11.895 4.813c.196.634.597.95 1.204.95.606 0 1.004-.316 1.193-.95.189-.633.283-1.547.283-2.741 0-1.252-.094-2.179-.283-2.782-.189-.602-.587-.903-1.193-.903-.607 0-1.008.301-1.204.903-.197.603-.295 1.53-.295 2.782 0 1.194.098 2.108.295 2.741Zm3.988-6.713c.533.932.8 2.256.8 3.972 0 1.716-.267 3.037-.8 3.964-.532.927-1.461 1.391-2.784 1.391-1.324 0-2.252-.464-2.785-1.391-.534-.927-.799-2.248-.799-3.964 0-1.716.265-3.04.799-3.972.533-.931 1.461-1.397 2.785-1.397 1.323 0 2.252.466 2.784 1.397Zm4.263 1.9v-1.39c.644-.029 1.094-.073 1.352-.13a1.91 1.91 0 0 0 1.001-.544c.176-.187.31-.435.4-.746.053-.187.079-.325.079-.416h1.706v10.394h-2.093v-7.168h-2.445Zm11.895 4.813c.196.634.597.95 1.204.95s1.004-.316 1.193-.95c.189-.633.284-1.547.284-2.741 0-1.252-.095-2.179-.284-2.782-.189-.602-.586-.903-1.193-.903-.607 0-1.008.301-1.204.903-.197.603-.295 1.53-.295 2.782 0 1.194.098 2.108.295 2.741Zm3.989-6.713c.533.932.799 2.256.799 3.972 0 1.716-.266 3.037-.799 3.964s-1.462 1.391-2.785 1.391c-1.323 0-2.252-.464-2.785-1.391-.533-.927-.799-2.248-.799-3.964 0-1.716.266-3.04.799-3.972.533-.931 1.462-1.397 2.785-1.397 1.323 0 2.252.466 2.785 1.397Z" clip-rule="evenodd"/>
  <path fill="#84AAA3" d="M49.344 240.464a.758.758 0 0 1 1.12-.058l.053.058 4.99 6.072a.76.76 0 0 1-1.12 1.022l-.053-.058-4.404-5.359-4.404 5.359a.759.759 0 0 1-1.12.059l-.053-.059-4.403-5.359-4.403 5.359a.76.76 0 0 1-1.12.059l-.053-.059-4.405-5.359-4.406 5.359a.76.76 0 0 1-1.12.059l-.052-.059-4.406-5.359-4.407 5.359a.759.759 0 0 1-1.12.059l-.053-.059-4.994-6.072a.76.76 0 0 1 1.12-1.022l.052.058 4.408 5.359 4.408-5.359a.759.759 0 0 1 1.12-.058l.053.058 4.405 5.359 4.406-5.359a.758.758 0 0 1 1.12-.058l.053.058 4.404 5.359 4.404-5.359a.758.758 0 0 1 1.12-.058l.053.058 4.402 5.359 4.405-5.359Z"/>
  <path fill="#8AF5D1" d="M9.515 252.788a.759.759 0 0 1 1.016.046l.052.058 4.408 5.359 4.408-5.359a.76.76 0 0 1 1.12-.058l.053.058 4.405 5.359 4.406-5.359a.76.76 0 0 1 1.12-.058l.053.058 4.404 5.359 4.404-5.359a.76.76 0 0 1 1.12-.058l.053.058 4.402 5.359 4.405-5.359a.76.76 0 0 1 1.12-.058l.053.058 4.99 6.073a.759.759 0 0 1-1.12 1.021l-.053-.058-4.404-5.359-4.404 5.359a.758.758 0 0 1-1.12.058l-.053-.058-4.403-5.358-4.403 5.358a.758.758 0 0 1-1.12.058l-.053-.058-4.405-5.359-4.406 5.36a.76.76 0 0 1-1.12.057l-.052-.058-4.406-5.359-4.407 5.36a.76.76 0 0 1-1.12.058l-.053-.058-4.994-6.073a.759.759 0 0 1 .104-1.068Z"/>
  <path fill="#84AAA3" d="M274.891 290.432a.76.76 0 0 1 .755.686l.004.073v15.045a.76.76 0 0 1-1.515.072l-.003-.072v-15.045c0-.419.339-.759.759-.759Z"/>
  <path fill="#84AAA3" d="M279.272 296.979a.758.758 0 0 1 1.361.668l-.033.066-4.895 8.866-.068.133-.086.152a.759.759 0 0 1-1.354-.683l.033-.065.069-.12.064-.126 4.909-8.891Z"/>
  <path fill="#84AAA3" d="M267.32 297.154a.758.758 0 0 1 1.015.067l.051.058 7.015 8.886.081.101a.758.758 0 0 1-1.131 1.01l-.052-.058-.056-.072-.034-.04-7.014-8.887a.758.758 0 0 1 .125-1.065Zm-240.431-6.997a.759.759 0 0 1 1.499.23l-.011.072-3.165 15.595v.182a.758.758 0 0 1-.686.755l-.073.004a.759.759 0 0 1-.756-.686l-.003-.073v-.258l.003-.076.012-.075 3.18-15.67Z"/>
  <path fill="#84AAA3" d="M30.322 300.397a.76.76 0 0 1 1.037 1.107l-.057.053-6.106 5.161-.083.146a.758.758 0 0 1-.97.319l-.065-.032a.76.76 0 0 1-.32-.97l.034-.065.068-.117.05-.101a.779.779 0 0 1 .133-.188l.056-.053 6.223-5.26Z"/>
  <path fill="#84AAA3" d="M16.882 297.154a.758.758 0 0 1 1.016.067l.05.058 7.015 8.886.081.101a.759.759 0 0 1-1.131 1.01l-.052-.058-.056-.072-.034-.04-7.014-8.887a.758.758 0 0 1 .125-1.065Z"/>
  <path fill="#8AF5D1" d="M350.383 37.174a.76.76 0 0 1 1.261.842l-.041.06-10.982 14.85a.76.76 0 0 1-1.261-.841l.04-.061 10.983-14.85Zm-6.717 29.824a.759.759 0 0 1 .908-.465l.07.022 17.286 6.506a.758.758 0 0 1-.465 1.443l-.07-.023-17.286-6.505a.759.759 0 0 1-.443-.978Zm20.651-14.45a.759.759 0 0 1 .498 1.433l-.068.023-19.391 5.724a.759.759 0 0 1-.499-1.432l.069-.024 19.391-5.724Z"/>
  <path fill="#84AAA3" d="M26.238 142.325a.76.76 0 0 1 .296 1.487l-.072.014-18.266 2.735a.759.759 0 0 1-.296-1.488l.071-.014 18.267-2.734Zm-.453-30.31a.76.76 0 0 1 .971.313l.034.065 7.623 16.824a.76.76 0 0 1-1.35.691l-.033-.064-7.623-16.824a.76.76 0 0 1 .378-1.005ZM8.911 124.807a.76.76 0 0 1 .964-.336l.066.032 17.758 9.664a.76.76 0 0 1-.66 1.366l-.066-.032-17.758-9.664a.76.76 0 0 1-.304-1.03Z"/>
  <path fill="#84AAA3" fill-rule="evenodd" d="M101.505 209.6a1.472 1.472 0 1 1-2.943 0 1.472 1.472 0 0 1 2.943 0Zm22.315-9.253a5.52 5.52 0 0 1-.071.835c-.835.156-1.73.237-2.667.237-4.002 0-7.337-1.518-8.091-3.537a20.855 20.855 0 0 1 3.132-1.923c3.613-1.822 4.848-1.366 5.263-1.168 1.802.849 2.475 3.602 2.434 5.556ZM88.175 306.744h-5.158c.045-.443.094-.886.144-1.329a44.869 44.869 0 0 0 2.811-3.105 5.741 5.741 0 0 1 1.722 2.209c.349.802.47 1.572.481 2.225Zm14.074 0h-5.158c.045-.443.094-.886.144-1.329a44.971 44.971 0 0 0 2.812-3.105 5.755 5.755 0 0 1 1.721 2.209c.349.802.47 1.572.481 2.225Zm14.348-.001h-5.158c1.032-1.969 1.642-3.254 2.445-4.859.653.515 1.8 1.655 2.231 2.635.349.802.471 1.572.482 2.224Zm79.869-259.839a43.804 43.804 0 0 1-4.934-1.457c.074.84.382 2.23.983 3.341.999 1.841 2.307 2.666 3.012 3.341.469-2.438.472-3.07.939-5.225Z" clip-rule="evenodd"/>
  <path fill="#84AAA3" fill-rule="evenodd" d="M191.848 49.15c-.582-1.075-.972-2.505-1.072-3.636a.76.76 0 0 1 1.014-.78 42.82 42.82 0 0 0 4.848 1.43.76.76 0 0 1 .57.9 40.832 40.832 0 0 0-.432 2.282l-.21 1.3c-.048.289-.087.518-.129.749l-.164.877a.76.76 0 0 1-1.27.406 5.311 5.311 0 0 0-.216-.195l-.62-.53a11.271 11.271 0 0 1-1.134-1.108 9.098 9.098 0 0 1-1.185-1.695Zm.997-2.455-.349-.114.062.237c.157.57.371 1.14.625 1.608.286.528.614.99.988 1.416a9.4 9.4 0 0 0 .539.54l.312.29.301-1.842c.074-.444.146-.843.231-1.27l.018-.092-.44-.111a43.57 43.57 0 0 1-1.168-.322l-.587-.175a46.87 46.87 0 0 1-.532-.165Z" clip-rule="evenodd"/>
</svg>
