<svg xmlns="http://www.w3.org/2000/svg" width="428" height="308" fill="none" viewBox="0 0 428 308">
  <path fill="#8AF5D1" fill-opacity=".05" fill-rule="evenodd" d="M297.35 11.066c-39.557-27.269-91.688-2.406-116.435 55.531l-.019.044c-1.164 2.728-3.143 4.83-5.753 6.08-12.615 6.039-24.809 14.116-36.017 24.208-52.006 46.827-63.128 119.256-24.843 161.777 38.286 42.52 111.481 39.029 163.487-7.797 26.682-24.025 42.603-54.789 46.61-84.795.161-1.207.455-2.351.883-3.408 23.28-57.381 11.046-124.785-27.913-151.64Z" clip-rule="evenodd"/>
  <path fill="#84AAA3" fill-rule="evenodd" d="M271.536 49.348c-3.485-1.149-7.289-1.532-11.202-1.132-4.415.45-7.541 2.146-11.716 3.608-3.57 1.25-8.714 1.158-11.887 3.407-1.54 1.092-4.019 3.463-4.174 7.827-.105 2.935 1.288 6.205 3.75 7.619 5.473 3.144 11.841-2.102 14.428-6.633 4.552 2.976 7.137 7.499 6.206 12.963-.439 2.574-1.292 5.09-1.39 7.698-.17 4.555 2.162 9.125 5.95 11.66 1.062.71 2.247 1.287 3.08 2.256 1.317 1.533 1.488 3.704 1.737 5.71.48 3.865 1.532 7.805 3.772 11.042 2.231 3.226 6.362 4.622 8.27 8.049 1.734 3.113.961 7.019 1.731 10.395.857 3.76 2.043 7.448 4.04 10.771 2.333 3.882 5.822 7.183 10.093 8.693 4.973 1.758 10.414.723 14.252-2.902 1.935-1.828 3.421-4.166 4.067-6.748.816-3.257.27-6.735-.927-9.872-3.237-8.487-14.661-15.027-18.82-23.012-5.024-9.646-3.026-20.813-3.084-31.21-.038-6.726-1.878-14.093-5.349-19.874-3.084-5.134-7.596-8.589-12.827-10.315Z" clip-rule="evenodd"/>
  <path fill="#84AAA3" d="M239.604 71.073a.77.77 0 0 1 .663.863c-.699 5.3-.708 10.08-.239 14.533l.058.524c.504 4.373 1.339 6.602 3.065 8.323 1.208 1.203 2.684 2.006 4.329 2.484 1.103.321 2.003.441 3.031.494 3.373.192 6.522-1.045 9.371-3.289a.77.77 0 1 1 .952 1.21c-3.121 2.457-6.619 3.831-10.406 3.616-1.132-.059-2.14-.193-3.378-.553-1.878-.546-3.58-1.471-4.986-2.872-2.093-2.088-3.035-4.736-3.567-9.776-.481-4.568-.471-9.469.244-14.895a.77.77 0 0 1 .789-.669l.074.007Z"/>
  <path fill="#84AAA3" d="M251.34 98.317a.77.77 0 0 1 .903.608 90.077 90.077 0 0 1 1.02 6.458 90.899 90.899 0 0 1 .29 19.04.781.781 0 0 1-.2.453 225.57 225.57 0 0 0-11.622 13.697c-2.197 2.809-4.489 6.065-6.978 9.859l-.509.778a336.626 336.626 0 0 0-3.5 5.508l-4.079 6.601a.77.77 0 0 1-1.309-.81l3.788-6.133.585-.937a316.998 316.998 0 0 1 3.482-5.462l.255-.39c2.51-3.826 4.827-7.115 7.053-9.962a228.07 228.07 0 0 1 10.899-12.915l.623-.682.034-.391a89.32 89.32 0 0 0-.259-17.381l-.081-.689a88.312 88.312 0 0 0-1.003-6.347.77.77 0 0 1 .608-.903Zm40.696 52.981a.77.77 0 0 1 .836.697 169.646 169.646 0 0 0 4.26 25.43c2.148 8.72 4.874 16.86 8.281 25.19l.368.894c1.519 3.668 2.842 6.654 4.97 11.258l3.262 7.032c1.561 3.393 2.348 5.209 3.154 7.275l.27.702c2.751 7.278 2.965 11.979.193 15.867-2.865 4.02-8.325 6.158-15.457 6.894-2.549.262-5.169.326-7.751.241a56.729 56.729 0 0 1-4.202-.285c-2.015-.223-3.626-.559-5.382-1.094l-.353-.109c-.903-.286-4.516-1.569-5.497-1.894-2.671-.886-5.472-1.673-9.023-2.49l-.79-.18c-5.396-1.219-8.004-1.569-12.887-1.951l-.713-.055c-1.979-.15-2.879-.312-3.904-.792-.54-.252-1.07-.587-1.648-1.04-2.304-1.805-3.69-4.144-4.472-7.326l-.064-.268c-.552-2.384-.765-4.712-.947-9.602l-.116-3.329c-.324-8.938-.719-13.637-1.952-20.438l-.062-.342a112.898 112.898 0 0 0-6.585-22.535.77.77 0 0 1 1.426-.58 114.442 114.442 0 0 1 6.673 22.838l.124.689c1.18 6.591 1.579 11.289 1.897 19.857l.143 4.037c.176 4.613.384 6.839.899 9.058.695 2.996 1.914 5.106 3.985 6.73.491.384.924.658 1.351.857l.172.077c.749.32 1.522.447 3.196.574l1.05.082c4.858.387 7.546.765 13.172 2.048l.397.091c3.299.759 5.967 1.494 8.481 2.306l.682.223c1.005.334 4.604 1.612 5.476 1.887 1.802.57 3.393.914 5.439 1.141l.418.043c1.005.1 2.218.185 3.666.234 2.518.083 5.069.021 7.543-.234 6.734-.694 11.816-2.686 14.362-6.256 2.43-3.41 2.2-7.703-.484-14.703l-.408-1.043c-.883-2.214-1.849-4.372-3.954-8.905l-2.179-4.692c-2.135-4.619-3.465-7.619-4.993-11.31-3.607-8.711-6.477-17.192-8.722-26.304a171.398 171.398 0 0 1-4.298-25.659.77.77 0 0 1 .697-.836Z"/>
  <path fill="#84AAA3" d="M250.451 241.295a.768.768 0 0 1-.294 1.047l-17.432 9.814c-21.195 11.959-25.715 14.768-32.987 20.626a41.26 41.26 0 0 1-1.303 1.004l-.392.287c-.397.289-.816.584-1.291.913l-2.111 1.443-.502.348c-3.599 2.517-5.424 4.321-6.79 7.111l-.092.192c-.201.418-.385.829-.594 1.36a20.604 20.604 0 0 0-1.395 5.885c-.231 2.831.193 5.585 1.426 8.169 1.261 2.647 3.092 4.631 5.213 6.152l.251.176h90.707v-28.166c0-.4.305-.728.696-.766l.074-.003c.4 0 .729.305.766.696l.003.073v28.936c0 .4-.304.729-.695.766l-.074.003h-91.716a.767.767 0 0 1-.43-.131c-2.518-1.701-4.703-3.964-6.184-7.074-1.357-2.844-1.823-5.867-1.571-8.956a22.081 22.081 0 0 1 1.498-6.325c.196-.498.372-.9.556-1.291l.08-.168c1.547-3.26 3.59-5.268 7.64-8.075l2.13-1.456a68.265 68.265 0 0 0 1.881-1.336 37.48 37.48 0 0 0 1.254-.966l.889-.712c6.871-5.463 11.902-8.542 32.303-20.053l17.438-9.817a.77.77 0 0 1 1.048.294Z"/>
  <path fill="#84AAA3" d="M308.186 250.244a.77.77 0 0 1 1.494.371c-2.057 8.279-5.896 15.443-12.035 20.771l-.41.35c-.08.065-.178.142-.386.305-1.169.869-2.926 1.864-5.111 2.92l-.254.127c-.153.075-.33.159-.605.289l-.753.351c-.895.411-1.85.832-2.865 1.264l-1.333.561c-.53.222-1.087.448-1.728.706l-.281.112a155.53 155.53 0 0 1-5.987 2.246l-1.025.345c-.141.046-.26.084-.365.116l-.061.019a115.691 115.691 0 0 1-27.258 4.828.77.77 0 0 1-.088-1.536 114.228 114.228 0 0 0 26.213-4.559l.686-.206a47.22 47.22 0 0 0 1.397-.462l.612-.216c1.468-.522 3.2-1.172 4.935-1.857l.371-.147c.754-.302 1.388-.559 1.987-.81l.445-.186c1.483-.62 2.84-1.215 4.075-1.789l.741-.35c.18-.086.307-.149.455-.224l.521-.255c1.876-.928 3.37-1.788 4.343-2.511l.33-.261c.039-.031.07-.057.107-.089 6.039-5.122 9.815-12.102 11.833-20.223Zm-110.039-23.956a.77.77 0 0 1 1.212-.622 242.071 242.071 0 0 0 20.206 12.729 241.38 241.38 0 0 0 18.447 9.38.77.77 0 0 1-.639 1.4 242.599 242.599 0 0 1-18.563-9.439 243.554 243.554 0 0 1-18.393-11.462l-.748-.517-.004.358c-.066 4.83-.213 9.646-.443 14.463l-.091 1.807a424.455 424.455 0 0 1-2.688 30.499.768.768 0 1 1-1.527-.191 423.664 423.664 0 0 0 3.231-48.405Z"/>
  <path fill="#84AAA3" d="M179.075 204.168c4.314-8.169 14.227-11.029 24.776-8.739 14.011 3.033 27.936 8.014 40.977 14.636a.768.768 0 1 1-.696 1.372c-12.925-6.562-26.725-11.499-40.607-14.504-9.945-2.159-19.151.497-23.09 7.954-1.744 3.301-2.597 7.093-3.059 12.416-.872 10.009-1.229 19.274-1.015 28.081l.215 8.03c.082 3.258.125 5.504.157 8.139l.017 1.589a323.13 323.13 0 0 1-.074 11.013l-.014.516h18.058c.4 0 .729.305.766.695l.004.075a.77.77 0 0 1-.695.766l-.075.003h-18.849a.77.77 0 0 1-.769-.792c.123-4.105.152-8.361.101-13.094l-.048-3.429a752.748 752.748 0 0 0-.164-7.255l-.145-5.333c-.263-9.132.09-18.739.997-29.137l.068-.742c.493-5.127 1.388-8.899 3.164-12.26Z"/>
  <path fill="#84AAA3" d="M176.18 275.102a.77.77 0 0 1 1.435.537l-.022.069-5.836 15.57a.767.767 0 0 1-.352.412l-.071.035-21.029 8.916a5.9 5.9 0 0 0-3.592 5.118l-.002.063h48.969c.4 0 .728.306.766.696l.003.074a.77.77 0 0 1-.695.766l-.074.003h-49.744a.769.769 0 0 1-.766-.695l-.004-.074v-.518a7.44 7.44 0 0 1 4.38-6.781l.157-.069 20.724-8.787 2.225-5.921 3.5-9.347.028-.067Z"/>
  <path fill="#84AAA3" d="M170.518 290.209a.769.769 0 0 1 .948-.534c1.768.493 3.618.843 5.533 1.021 2.539.237 5.008.154 7.39-.195a.77.77 0 0 1 .223 1.523 32.816 32.816 0 0 1-13.56-.867.77.77 0 0 1-.534-.948Zm114.939-14.008a.77.77 0 0 1 1.076-.166 192.442 192.442 0 0 1 6.696 5.152l.686.552a314.41 314.41 0 0 1 5.07 4.198l4.574 3.865c11.154 9.421 12.946 10.825 20.054 15.929.608.436.3 1.395-.448 1.395l-2.942.007a189.43 189.43 0 0 0-4.631.072l-2.502.076c-1.763.05-3.289.073-5.768.079l-1.554.002c-2.219 0-3.739-1.154-5.579-3.594l-.217-.292-.795-1.089c-2.573-3.477-6.231-5.836-11.437-7.747l-.593-.213a33.96 33.96 0 0 0-.472-.162l-1.877-.62a31.12 31.12 0 0 1-1.441-.516.77.77 0 0 1 .556-1.435l.229.087c.42.159.858.31 1.474.514l1.556.513c.283.095.512.175.761.264 5.531 1.986 9.488 4.467 12.314 8.176l.291.392c.202.276.555.763.714.979l.038.051c1.634 2.204 2.841 3.153 4.478 3.153l2.508-.006a185.5 185.5 0 0 0 5.054-.083l1.949-.06c1.42-.041 2.713-.065 4.447-.077l1.06-.006-1.8-1.311c-4.386-3.222-7.287-5.591-15.723-12.714l-4.95-4.184a337.695 337.695 0 0 0-5.104-4.233l-.262-.213a193.01 193.01 0 0 0-7.325-5.66.77.77 0 0 1-.165-1.075Z"/>
  <path fill="#84AAA3" d="M308.205 305.822a.77.77 0 0 1 .074 1.536l-.074.003h-24.57a.769.769 0 0 1-.074-1.535l.074-.004h24.57Zm-74.09-149.49a.769.769 0 0 1 1.069.201 75.485 75.485 0 0 1 5.541 9.521c1.579 3.233 2.782 6.197 3.807 9.312a.77.77 0 1 1-1.462.48c-1.003-3.048-2.18-5.947-3.728-9.116a73.96 73.96 0 0 0-5.428-9.328.77.77 0 0 1 .201-1.07Z"/>
  <path fill="#84AAA3" d="M138.397 116.55c-1.507-2.153 1.106-4.94 3.284-3.429.09.061.173.127.247.197a44.138 44.138 0 0 1 8.825 11.418l.317.597c.646 1.238 1.225 2.47 2.069 4.376l1.178 2.682c2.692 6.092 4.261 8.862 6.912 11.58l.136.138c2.737 2.768 6.047 5.047 11.204 7.943l1.033.575c.862.476 4.175 2.274 4.955 2.704l.595.329c.289.161.565.316.832.467l2.388 1.364c.864.488 1.746.973 3.082 1.696l5.245 2.824c5.46 2.953 8.6 4.796 12.065 7.174a5.963 5.963 0 0 0 6.018.443l.16-.082 38.126-19.949a.77.77 0 0 1 .778 1.327l-.064.038-38.122 19.946a7.501 7.501 0 0 1-7.767-.454l-.611-.416c-3.181-2.147-6.229-3.922-11.322-6.676l-5.815-3.134a159.627 159.627 0 0 1-2.917-1.616l-1.741-.997c-.431-.246-.884-.5-1.374-.771l-2.091-1.144a1027.91 1027.91 0 0 1-3.163-1.725l-.709-.393c-5.465-3.051-8.958-5.437-11.88-8.391l-.281-.288c-2.734-2.841-4.358-5.729-7.079-11.887l-1.072-2.444c-.992-2.244-1.609-3.552-2.362-4.961l-.078-.146a42.622 42.622 0 0 0-8.168-10.69l-.351-.331a.706.706 0 0 0-.071-.056c-.74-.513-1.693.504-1.151 1.279l.162.226c.073.102.151.21.242.331l.678.903c.934 1.254 1.378 1.958 1.771 2.907l.144.354c.932 2.353 1.4 4.642 1.892 8.571l.257 2.127c.877 7.154 1.81 10.289 4.661 13.481l.125.139c1.723 1.894 3.52 3.286 6.945 5.533l2.056 1.335.413.271c2.124 1.407 4.099 2.901 7.011 5.247l2.482 2.01c8.35 6.763 16.39 13.376 24.191 19.901l2.458 2.06c2.849 2.392 5.63 4.745 8.357 7.069a5.952 5.952 0 0 0 6.004 1.029l.16-.064 40.346-16.932a.77.77 0 0 1 .663 1.387l-.067.032-40.347 16.932a7.486 7.486 0 0 1-7.757-1.212 1506.577 1506.577 0 0 0-10.805-9.12 1955.212 1955.212 0 0 0-22.611-18.62l-4.036-3.271c-2.878-2.318-4.822-3.788-6.898-5.164l-2.478-1.612c-3.522-2.312-5.394-3.762-7.226-5.775-1.854-2.038-3.082-4.399-3.894-7.242l-.125-.452c-.456-1.691-.722-3.265-1.072-6.084l-.303-2.52c-.503-4.08-.96-6.334-1.898-8.651l-.07-.169c-.318-.768-.694-1.376-1.485-2.445l-.809-1.08a29.11 29.11 0 0 1-.397-.549Zm131.883-.315a.77.77 0 0 1 1.021 1.152c-2.004 1.777-4.769 3.549-8.08 5.159l-.364.174c-2.71 1.271-4.983 1.773-9.63 2.26a.77.77 0 0 1-.161-1.531l.868-.094c4.001-.453 6.007-.946 8.443-2.111l.171-.082c3.192-1.552 5.841-3.25 7.732-4.927Z"/>
  <path fill="#84AAA3" fill-rule="evenodd" d="m29.732 192.345 13.743-47.481a.77.77 0 0 1 .954-.526l47.482 13.744a.77.77 0 0 1 .525.953l-13.743 47.482a.77.77 0 0 1-.954.525l-47.482-13.744a.77.77 0 0 1-.525-.953Zm61.012-32.999L44.74 146.03l-13.316 46.004 46.004 13.315 13.316-46.003Z" clip-rule="evenodd"/>
  <path fill="#84AAA3" d="M51.11 166.592a.77.77 0 0 1 .997.236l.039.062 7.803 13.8a.77.77 0 0 1-1.3.82l-.04-.062-7.432-13.143-15.556 8.405a.77.77 0 0 1-1.004-.247l-.038-.064a.77.77 0 0 1 .247-1.005l.063-.038 16.22-8.764Z"/>
  <path fill="#84AAA3" d="M68.32 175.311a.77.77 0 0 1 .996.236l.04.062 8.297 14.67a.77.77 0 0 1-1.3.821l-.04-.063-7.926-14.013-23.643 12.775a.768.768 0 0 1-1.005-.248l-.038-.063a.77.77 0 0 1 .248-1.005l.063-.038 24.308-13.134Z"/>
  <path fill="#84AAA3" fill-rule="evenodd" d="M80.407 167.756a4.408 4.408 0 1 1-8.468-2.452 4.408 4.408 0 0 1 8.468 2.452Z" clip-rule="evenodd"/>
  <path fill="#84AAA3" d="M140.206 61.778a.77.77 0 0 1 .918.478l.022.07 15.212 57.89a.769.769 0 0 1-1.466.461l-.022-.07-15.018-57.145-56.4 14.82 14.822 56.401 36.348-9.551a.77.77 0 0 1 .918.478l.022.071a.77.77 0 0 1-.478.917l-.071.022-37.092 9.748a.771.771 0 0 1-.918-.479l-.022-.07-15.212-57.89a.77.77 0 0 1 .477-.916l.071-.023 57.889-15.212Z"/>
  <path fill="#84AAA3" fill-rule="evenodd" d="m113.893 112.176-5.774-21.973a.77.77 0 0 1 .947-.938l21.916 5.986a.77.77 0 0 1 .339 1.29l-16.142 15.987a.77.77 0 0 1-1.286-.352Zm15.398-15.791L109.946 91.1l5.097 19.395 14.248-14.111Z" clip-rule="evenodd"/>
  <path fill="#8AF5D1" fill-rule="evenodd" d="M59.845 109.724c0 5.421-4.395 9.817-9.817 9.817-5.422 0-9.817-4.396-9.817-9.817 0-5.422 4.395-9.817 9.817-9.817 5.422 0 9.817 4.395 9.817 9.817Zm74.804 69.506a6.35 6.35 0 1 1-12.7 0 6.35 6.35 0 0 1 12.7 0Zm62.023-85.538a7.399 7.399 0 1 1-14.797-.001 7.399 7.399 0 0 1 14.797.001Z" clip-rule="evenodd"/>
  <path fill="#84AAA3" d="M165.874 182.906a.768.768 0 0 1 1 .263l.038.064 4.874 9.357a.77.77 0 0 1-1.328.775l-.037-.064-4.519-8.674-32.979 17.179 17.179 32.98 14.88-7.751a.769.769 0 0 1 1 .263l.038.064a.77.77 0 0 1-.263 1.001l-.064.037-15.562 8.107a.77.77 0 0 1-1.001-.263l-.037-.064-17.891-34.345a.771.771 0 0 1 .264-1.001l.064-.037 34.344-17.891Z"/>
  <path fill="#84AAA3" d="M146.977 209.823a.77.77 0 0 1 1.001.262l.037.064 3.9 7.489a.769.769 0 0 1-1.328.775l-.037-.064-3.9-7.489a.768.768 0 0 1 .327-1.037Zm2.843-5.184a.77.77 0 0 1 1 .264l.038.064 6.934 13.311a.769.769 0 0 1-1.328.775l-.037-.063-6.934-13.312a.771.771 0 0 1 .327-1.039Zm5.877.641a.77.77 0 0 1 1.001.263l.037.064 3.901 7.488a.77.77 0 0 1-1.328.775l-.037-.064-3.901-7.488a.769.769 0 0 1 .327-1.038Zm2.844-5.183a.769.769 0 0 1 1 .263l.037.064 6.935 13.312a.77.77 0 0 1-1.328.775l-.038-.064-6.934-13.312a.77.77 0 0 1 .328-1.038Zm5.876.641a.77.77 0 0 1 1.001.262l.037.064 3.901 7.489a.77.77 0 0 1-1.328.775l-.037-.064-3.901-7.489a.769.769 0 0 1 .327-1.037Z"/>
  <path fill="#84AAA3" fill-rule="evenodd" d="M191.919 306.592h-45.983v-.518c0-2.678 1.6-5.095 4.068-6.141l21.029-8.917c.067-.185.144-.385.226-.6 1.673.467 3.576.852 5.669 1.047 2.812.261 5.367.123 7.573-.2-.211 2.58.072 5.571 1.498 8.562 1.713 3.596 4.386 5.73 5.92 6.767Zm131.246-.236c-10.342 0-7.573.236-17.397.236-2.842 0-4.479-2.642-5.972-4.663-3.037-4.105-7.408-6.44-12.123-8.132-1.329-.477-2.714-.873-4.038-1.386v-14.754a145.14 145.14 0 0 0 2.443-1.001c12.923 9.481 21.239 18.32 37.087 29.7Z" clip-rule="evenodd"/>
  <path fill="#84AAA3" d="M427.23 305.822a.77.77 0 0 1 .075 1.536l-.075.003H.77a.77.77 0 0 1-.075-1.535l.075-.004h426.46Z"/>
  <path fill="#84AAA3" fill-rule="evenodd" d="M19.11 244.441h98.861a.77.77 0 0 1 .77.77v61.381a.77.77 0 0 1-.77.77H19.11a.77.77 0 0 1-.77-.77v-61.381a.77.77 0 0 1 .77-.77Zm98.091 61.381v-59.841H19.879v59.841H117.2Z" clip-rule="evenodd"/>
  <path fill="#84AAA3" d="M50.028 244.442c.4 0 .729.305.766.696l.003.073v61.381a.77.77 0 0 1-1.535.074l-.004-.074v-61.381a.77.77 0 0 1 .77-.769Z"/>
  <path fill="#84AAA3" fill-rule="evenodd" d="M8.85 227.036h30.917a.77.77 0 0 1 .663.379l10.261 17.406a.77.77 0 0 1-.663 1.16H19.11a.77.77 0 0 1-.663-.379l-10.26-17.405a.77.77 0 0 1 .662-1.161Zm39.831 17.405-9.354-15.866H10.196l9.353 15.866h29.132Zm48.573-17.405h30.917a.77.77 0 0 1 .663 1.161l-10.261 17.405a.768.768 0 0 1-.662.379H86.993a.77.77 0 0 1-.663-1.16l10.26-17.406a.77.77 0 0 1 .663-.379Zm20.217 17.405 9.353-15.866h-29.13l-9.355 15.866h29.132Z" clip-rule="evenodd"/>
  <path fill="#84AAA3" fill-rule="evenodd" d="M19.11 306.592h30.918v-61.381H19.11v61.381Zm57.872-62.15h13.156a.77.77 0 0 1 .77.77v14.784a.77.77 0 0 1-1.087.701l-6.26-2.832-6.261 2.832a.77.77 0 0 1-1.084-.635l-.003-.066v-14.784a.77.77 0 0 1 .77-.77Zm12.386 14.361v-12.822H77.752v12.822l5.491-2.483a.768.768 0 0 1 .558-.03l.077.03 5.49 2.483Zm-12.386 32.028h13.156a.77.77 0 0 1 .77.769v14.783a.77.77 0 0 1-.77.77H76.982a.77.77 0 0 1-.77-.77V291.6a.77.77 0 0 1 .77-.769Zm12.386 14.783V292.37H77.75v13.244h11.617Zm162.12-206.541c1.323-.054 3.3-.243 5.349-1.28 1.81-.915 3.889-2.807 4.923-3.546 0 1.678-.916 4.836-2.75 7.098-2.455 3.03-5.513 3.987-6.386 4.221-.425-2.665-.17-1.244-.457-2.842-.268-1.493-.278-1.838-.679-3.651Z" clip-rule="evenodd"/>
  <path fill="#84AAA3" fill-rule="evenodd" d="m261.136 93.753.177-.132a.77.77 0 0 1 1.216.626c0 2.152-1.167 5.419-2.921 7.583-2.048 2.527-4.481 3.86-6.784 4.48a.77.77 0 0 1-.96-.623c-.096-.6-.164-1.035-.211-1.349l-.071-.484-.265-1.517-.193-1.159a33.113 33.113 0 0 0-.229-1.204l-.158-.735a.77.77 0 0 1 .72-.935c1.869-.076 3.437-.39 5.032-1.197.325-.164.678-.373 1.059-.623.417-.275.861-.595 1.353-.971.143-.11.478-.376.858-.676.495-.393 1.065-.845 1.377-1.084Zm-.435 2.444.045-.179-.76.6-.369.284c-.434.327-.836.613-1.224.868-.426.28-.828.517-1.209.71-1.507.763-2.978 1.138-4.61 1.292l-.147.012.066.331c.054.274.101.531.148.802l.237 1.413.197 1.109.169 1.124.127-.046c.398-.151.818-.337 1.26-.568l.222-.12a11.927 11.927 0 0 0 3.559-2.968c1.054-1.3 1.877-3.09 2.289-4.664Zm92.27 119.086h60.282a.77.77 0 0 1 .77.77v90.937a.77.77 0 0 1-.77.769h-60.282a.77.77 0 0 1-.77-.769v-90.937a.77.77 0 0 1 .77-.77Zm59.513 90.936v-89.397h-58.743v89.397h58.743Z" clip-rule="evenodd"/>
  <path fill="#84AAA3" fill-rule="evenodd" d="M352.971 280.693h60.282v-13.665h-60.282v13.665Zm0-24.679h60.282v-13.665h-60.282v13.665Zm13.639 37.827a3.38 3.38 0 1 1-6.76 0 3.38 3.38 0 0 1 6.76 0Zm13.255 0a3.38 3.38 0 1 1-6.76 0 3.38 3.38 0 0 1 6.76 0Zm13.254 0a3.38 3.38 0 1 1-6.76 0 3.38 3.38 0 0 1 6.76 0Zm13.254 0a3.38 3.38 0 1 1-6.76 0 3.38 3.38 0 0 1 6.76 0Zm-39.763-64.64a3.38 3.38 0 1 1-6.76 0 3.38 3.38 0 0 1 6.76 0Zm13.255 0a3.38 3.38 0 1 1-6.76 0 3.38 3.38 0 0 1 6.76 0Zm13.254 0a3.38 3.38 0 1 1-6.76 0 3.38 3.38 0 0 1 6.76 0Zm13.254 0a3.38 3.38 0 1 1-6.76 0 3.38 3.38 0 0 1 6.76 0Zm-23.601-89.352a76.836 76.836 0 0 1 5.094-10.786c1.872-3.271 3.886-6.634 6.636-9.248 2.275-2.162 6.844-5.213 10.159-3.784 1.863.804 2.515 3.078 2.49 4.944-.074 5.471-5.006 9.683-9.227 12.435-3.614 2.356-7.666 4.283-11.789 5.545-.423.129-3.253.606-3.363.894Zm0 36.256a87.013 87.013 0 0 1 5.774-12.226c2.123-3.709 4.406-7.52 7.523-10.484 2.578-2.45 7.758-5.909 11.515-4.289 2.112.91 2.851 3.489 2.822 5.605-.083 6.201-5.673 10.975-10.458 14.095-4.097 2.671-8.69 4.855-13.364 6.285-.48.147-3.687.687-3.812 1.014Z" clip-rule="evenodd"/>
  <path fill="#84AAA3" fill-rule="evenodd" d="M383.452 176.105a87.237 87.237 0 0 0-5.774-12.226c-2.123-3.709-4.406-7.52-7.523-10.484-2.578-2.45-7.758-5.909-11.515-4.289-2.111.91-2.851 3.489-2.823 5.605.084 6.201 5.674 10.975 10.459 14.095 4.097 2.671 8.69 4.855 13.364 6.285.48.147 3.688.687 3.812 1.014Zm-.68 27.377a87.066 87.066 0 0 1 5.774-12.226c2.123-3.709 4.406-7.52 7.523-10.483 2.578-2.451 7.758-5.91 11.515-4.289 2.112.91 2.851 3.488 2.822 5.604-.083 6.201-5.673 10.976-10.458 14.095-4.097 2.671-8.69 4.855-13.364 6.285-.48.147-3.687.687-3.812 1.014Z" clip-rule="evenodd"/>
  <path fill="#84AAA3" fill-rule="evenodd" d="M383.452 203.482a87.29 87.29 0 0 0-5.774-12.226c-2.123-3.709-4.406-7.52-7.523-10.483-2.578-2.451-7.758-5.91-11.515-4.289-2.111.91-2.851 3.488-2.823 5.604.084 6.201 5.674 10.976 10.459 14.095 4.097 2.671 8.69 4.855 13.364 6.285.48.147 3.688.687 3.812 1.014Zm-.68-52.902a72.455 72.455 0 0 0-4.807-10.178c-1.767-3.087-3.668-6.261-6.263-8.728-2.147-2.04-6.459-4.919-9.587-3.571-1.758.758-2.374 2.905-2.35 4.666.069 5.163 4.724 9.138 8.707 11.735 3.411 2.224 7.235 4.042 11.126 5.232.399.123 3.07.572 3.174.844Z" clip-rule="evenodd"/>
  <path fill="#84AAA3" d="M382.772 113.098c.4 0 .729.305.766.695l.004.074v102.221a.77.77 0 0 1-1.536.074l-.004-.074V113.867a.77.77 0 0 1 .77-.769Z"/>
</svg>
