<?xml version="1.0" encoding="UTF-8" standalone="no"?>
<svg
   width="42.911507mm"
   height="48.116619mm"
   viewBox="0 0 12.873452 14.434986"
   version="1.1"
   id="svg2089"
   xmlns="http://www.w3.org/2000/svg"
   xmlns:svg="http://www.w3.org/2000/svg">
  <defs
     id="defs2086">
    <mask
       id="mask0_849_2598"
       maskUnits="userSpaceOnUse"
       x="3"
       y="14"
       width="8"
       height="8">
      <circle
         cx="6.6606398"
         cy="17.9606"
         r="3.5"
         transform="rotate(-6,6.66064,17.9606)"
         fill="#53b4ef"
         id="circle1207" />
    </mask>
    <mask
       id="path-11-inside-4_849_2598"
       fill="#ffffff">
      <path
         d="m 4.10774,18.9475 c -0.10452,0.0358 -0.16092,0.15 -0.11684,0.2513 0.14781,0.3397 0.3693,0.6423 0.64838,0.8859 0.08324,0.0727 0.20915,0.0535 0.27492,-0.0353 C 4.97997,19.9606 4.96056,19.836 4.87844,19.762 4.66322,19.5683 4.49037,19.3321 4.3708,19.0684 4.32517,18.9678 4.21225,18.9116 4.10774,18.9475 Z"
         id="path1216" />
    </mask>
    <mask
       id="path-12-inside-5_849_2598"
       fill="#ffffff">
      <path
         d="M 7.68394,17.8794 C 7.76981,17.9489 7.89652,17.9361 7.95897,17.845 8.13302,17.5909 8.25865,17.3068 8.3295,17.0072 8.35492,16.8996 8.27915,16.7972 8.16993,16.7805 8.06072,16.7638 7.95955,16.8391 7.9325,16.9462 7.87443,17.1761 7.77781,17.3946 7.64678,17.5923 7.58572,17.6844 7.59807,17.8099 7.68394,17.8794 Z"
         id="path1221" />
    </mask>
    <mask
       id="mask0_849_2598-5"
       maskUnits="userSpaceOnUse"
       x="3"
       y="14"
       width="8"
       height="8">
      <circle
         cx="6.6606398"
         cy="17.9606"
         r="3.5"
         transform="rotate(-6,6.66064,17.9606)"
         fill="#53b4ef"
         id="circle1207-6" />
    </mask>
    <mask
       id="path-11-inside-4_849_2598-2"
       fill="#ffffff">
      <path
         d="m 4.10774,18.9475 c -0.10452,0.0358 -0.16092,0.15 -0.11684,0.2513 0.14781,0.3397 0.3693,0.6423 0.64838,0.8859 0.08324,0.0727 0.20915,0.0535 0.27492,-0.0353 C 4.97997,19.9606 4.96056,19.836 4.87844,19.762 4.66322,19.5683 4.49037,19.3321 4.3708,19.0684 4.32517,18.9678 4.21225,18.9116 4.10774,18.9475 Z"
         id="path1216-9" />
    </mask>
    <mask
       id="path-12-inside-5_849_2598-1"
       fill="#ffffff">
      <path
         d="M 7.68394,17.8794 C 7.76981,17.9489 7.89652,17.9361 7.95897,17.845 8.13302,17.5909 8.25865,17.3068 8.3295,17.0072 8.35492,16.8996 8.27915,16.7972 8.16993,16.7805 8.06072,16.7638 7.95955,16.8391 7.9325,16.9462 7.87443,17.1761 7.77781,17.3946 7.64678,17.5923 7.58572,17.6844 7.59807,17.8099 7.68394,17.8794 Z"
         id="path1221-2" />
    </mask>
    <mask
       id="mask2_849_2598"
       maskUnits="userSpaceOnUse"
       x="43"
       y="4"
       width="19"
       height="19">
      <circle
         cx="52.650398"
         cy="13.3153"
         r="8.75"
         transform="rotate(-6,52.6504,13.3153)"
         fill="#d2e1fb"
         id="circle1283" />
    </mask>
    <mask
       id="mask3_849_2598"
       maskUnits="userSpaceOnUse"
       x="43"
       y="4"
       width="19"
       height="19">
      <circle
         cx="52.650398"
         cy="13.3153"
         r="8.75"
         transform="rotate(-6,52.6504,13.3153)"
         fill="#89bff2"
         id="circle1290" />
    </mask>
    <mask
       id="mask4_849_2598"
       maskUnits="userSpaceOnUse"
       x="42"
       y="3"
       width="21"
       height="21">
      <circle
         cx="52.649799"
         cy="13.3154"
         r="9.25"
         transform="rotate(-6,52.6498,13.3154)"
         fill="#89bff2"
         stroke="#332d57"
         id="circle1305" />
    </mask>
  </defs>
  <g
     id="layer1"
     transform="translate(-50.791699,-29.94017)">
    <g
       style="mix-blend-mode:luminosity"
       id="g1242"
       transform="matrix(1.3229167,0,0,1.3229167,48.394927,12.405118)">
      <mask
         id="path-2-inside-1_849_2598"
         fill="#ffffff">
        <path
           d="m 7.07563,13.3794 c 0.00998,-0.11 -0.07118,-0.2077 -0.18154,-0.2131 -1.13343,-0.0554 -2.25018,0.2929 -3.15128,0.9826 -0.08775,0.0672 -0.09896,0.1937 -0.02821,0.2786 0.07076,0.0848 0.19667,0.0959 0.28467,0.029 0.81924,-0.6221 1.83099,-0.9376 2.85867,-0.8913 0.11038,0.0049 0.20771,-0.0757 0.21769,-0.1858 z"
           id="path1186" />
      </mask>
      <mask
         id="path-3-inside-2_849_2598"
         fill="#ffffff">
        <path
           d="m 2.0109,17.0205 c -0.11169,-0.0225 -0.22098,0.0497 -0.23889,0.1622 -0.11359,0.7139 -0.06957,1.4449 0.13002,2.1414 0.19959,0.6965 0.54939,1.3399 1.02384,1.8853 0.07479,0.0859 0.20573,0.0893 0.28851,0.011 C 3.29716,21.1421 3.3004,21.0118 3.22594,20.9255 2.79677,20.4284 2.48008,19.8433 2.29871,19.2104 2.11734,18.5775 2.07612,17.9135 2.17686,17.2645 2.19434,17.1519 2.12259,17.0431 2.0109,17.0205 Z"
           id="path1191" />
      </mask>
      <mask
         id="path-4-inside-3_849_2598"
         fill="#ffffff">
        <path
           d="m 8.30503,13.6648 c 0.03951,-0.1032 -0.01199,-0.2193 -0.11674,-0.2545 -0.14768,-0.0496 -0.2977,-0.092 -0.4495,-0.127 -0.10767,-0.0248 -0.21231,0.0472 -0.23263,0.1558 -0.02032,0.1086 0.05138,0.2127 0.15896,0.2379 0.12819,0.0301 0.25498,0.0659 0.37996,0.1073 0.10488,0.0348 0.22044,-0.0163 0.25995,-0.1195 z"
           id="path1196" />
      </mask>
      <mask
         id="mask9801"
         maskUnits="userSpaceOnUse"
         x="3"
         y="14"
         width="8"
         height="8">
        <circle
           cx="6.6606398"
           cy="17.9606"
           r="3.5"
           transform="rotate(-6,6.66064,17.9606)"
           fill="#53b4ef"
           id="circle9799" />
      </mask>
      <mask
         id="mask9808"
         fill="#ffffff">
        <path
           d="m 4.10774,18.9475 c -0.10452,0.0358 -0.16092,0.15 -0.11684,0.2513 0.14781,0.3397 0.3693,0.6423 0.64838,0.8859 0.08324,0.0727 0.20915,0.0535 0.27492,-0.0353 C 4.97997,19.9606 4.96056,19.836 4.87844,19.762 4.66322,19.5683 4.49037,19.3321 4.3708,19.0684 4.32517,18.9678 4.21225,18.9116 4.10774,18.9475 Z"
           id="path9806" />
      </mask>
      <mask
         id="mask9813"
         fill="#ffffff">
        <path
           d="M 7.68394,17.8794 C 7.76981,17.9489 7.89652,17.9361 7.95897,17.845 8.13302,17.5909 8.25865,17.3068 8.3295,17.0072 8.35492,16.8996 8.27915,16.7972 8.16993,16.7805 8.06072,16.7638 7.95955,16.8391 7.9325,16.9462 7.87443,17.1761 7.77781,17.3946 7.64678,17.5923 7.58572,17.6844 7.59807,17.8099 7.68394,17.8794 Z"
           id="path9811" />
      </mask>
      <g
         style="mix-blend-mode:luminosity"
         id="g1326"
         transform="matrix(0.38995023,0,0,0.38995023,-13.846512,12.870117)">
        <circle
           cx="52.650398"
           cy="13.3153"
           transform="rotate(-6,52.6504,13.3153)"
           fill="#ffffff"
           fill-opacity="0.3"
           id="circle1279"
           style="fill:#ffffff;fill-opacity:1;stroke:currentColor;stroke-width:1;stroke-miterlimit:4;stroke-dasharray:none;stroke-opacity:1"
           r="10.5" />
        <circle
           cx="52.649799"
           cy="13.3154"
           r="9.25"
           transform="rotate(-6,52.6498,13.3154)"
           fill="#89bff2"
           stroke="#332d57"
           id="circle1281"
           style="fill:#92a8d4;fill-opacity:1;stroke:#37383a;stroke-opacity:1" />
        <mask
           id="mask1005"
           maskUnits="userSpaceOnUse"
           x="43"
           y="4"
           width="19"
           height="19">
          <circle
             cx="52.650398"
             cy="13.3153"
             r="8.75"
             transform="rotate(-6,52.6504,13.3153)"
             fill="#d2e1fb"
             id="circle1003" />
        </mask>
        <g
           mask="url(#mask2_849_2598)"
           id="g1288">
          <circle
             cx="50.661098"
             cy="13.5244"
             r="8.75"
             transform="rotate(-6,50.6611,13.5244)"
             fill="#d2e1fb"
             id="circle1286"
             style="fill:#c0c7ce;fill-opacity:1" />
        </g>
        <mask
           id="mask1011"
           maskUnits="userSpaceOnUse"
           x="43"
           y="4"
           width="19"
           height="19">
          <circle
             cx="52.650398"
             cy="13.3153"
             r="8.75"
             transform="rotate(-6,52.6504,13.3153)"
             fill="#89bff2"
             id="circle1009" />
        </mask>
        <g
           mask="url(#mask3_849_2598)"
           id="g1297">
          <circle
             cx="54.313499"
             cy="5.2221498"
             r="1.125"
             transform="rotate(-96,54.3135,5.22215)"
             fill="#c5e0ef"
             stroke="#332d57"
             strokeWidth="0.75"
             id="circle1293"
             style="stroke:#37383a;stroke-opacity:1" />
        </g>
        <path
           fill-rule="evenodd"
           clip-rule="evenodd"
           d="M 49.047,7.28995 C 49.0083,6.922 48.6077,6.71436 48.303,6.92431 c -1.55,1.06823 -2.6768,2.67961 -3.1334,4.52919 -0.0803,0.3256 0.196,0.6167 0.5296,0.5817 0.2225,-0.0234 0.402,-0.1896 0.4578,-0.4063 0.4019,-1.5617 1.3536,-2.92375 2.6569,-3.84156 0.1607,-0.11314 0.2536,-0.30196 0.2331,-0.49739 z"
           fill="#ffffff"
           id="path1299" />
        <circle
           cx="45.269699"
           cy="13.2112"
           r="0.5"
           transform="rotate(-6,45.2697,13.2112)"
           fill="#ffffff"
           id="circle1301" />
        <path
           fill-rule="evenodd"
           clip-rule="evenodd"
           d="m 43.8077,12.379 c 0.0997,-0.0771 0.1648,-0.1897 0.1828,-0.3145 0.0616,-0.4268 -0.4181,-0.766 -0.76,-0.5032 -2.2587,1.7362 -3.4429,3.6621 -2.9749,5.2941 0.8697,3.0329 7.1157,3.9028 13.9509,1.9428 6.8352,-1.96 11.6713,-6.0075 10.8016,-9.04045 C 64.8209,9.10498 64.3847,8.55242 63.7472,8.1067 63.5123,7.9425 63.1943,8.04433 63.0676,8.30137 l -0.1798,0.36467 c -0.017,0.03454 -0.0041,0.0763 0.0291,0.09577 0.6608,0.3872 1.0023,0.82666 1.1299,1.27159 0.1276,0.4449 0.0708,0.9986 -0.2843,1.6771 -0.3584,0.6847 -0.9943,1.4385 -1.9077,2.203 -1.8245,1.5271 -4.6084,2.9727 -7.9239,3.9234 -3.3155,0.9507 -6.4424,1.2 -8.799,0.8718 -1.1796,-0.1643 -2.1183,-0.4666 -2.7852,-0.8574 -0.6607,-0.3872 -1.0023,-0.8266 -1.1298,-1.2715 -0.1276,-0.4449 -0.0708,-0.9986 0.2843,-1.6771 0.3584,-0.6848 0.9943,-1.4386 1.9077,-2.203 0.1282,-0.1074 0.2612,-0.2143 0.3988,-0.3207 z M 62.1391,7.92321 C 62.0267,8.15124 61.7624,8.2584 61.5178,8.1891 61.102,8.07131 60.6392,7.97512 60.1318,7.90446 59.9788,7.88315 59.8225,7.86428 59.6632,7.84788 59.538,7.83498 59.4228,7.7731 59.3416,7.67682 59.0636,7.3469 59.2925,6.80577 59.7219,6.8487 c 0.7773,0.07772 1.493,0.21058 2.1317,0.39644 0.288,0.08379 0.4181,0.40909 0.2855,0.67807 z"
           fill="#332d57"
           id="path1303"
           style="fill:#37383a;fill-opacity:1;stroke:#bbc3cf;stroke-width:0;stroke-miterlimit:4;stroke-dasharray:none;stroke-opacity:1" />
        <mask
           id="mask1020"
           maskUnits="userSpaceOnUse"
           x="42"
           y="3"
           width="21"
           height="21">
          <circle
             cx="52.649799"
             cy="13.3154"
             r="9.25"
             transform="rotate(-6,52.6498,13.3154)"
             fill="#89bff2"
             stroke="#332d57"
             id="circle1018" />
        </mask>
        <g
           mask="url(#mask4_849_2598)"
           id="g1312">
          <path
             fill-rule="evenodd"
             clip-rule="evenodd"
             d="m 54.1187,14.7402 c -0.0579,0.3655 0.285,0.666 0.6373,0.5528 5.1129,-1.6431 8.9484,-4.4388 9.8233,-6.9785 0.1347,-0.39076 -0.26,-0.69515 -0.6458,-0.54703 -0.1643,0.06303 -0.287,0.20009 -0.3523,0.36341 -0.0445,0.11124 -0.0976,0.22623 -0.1598,0.34504 -0.3584,0.68475 -0.9943,1.43855 -1.9076,2.20298 -1.6612,1.3904 -4.1176,2.7132 -7.0465,3.6565 -0.183,0.0589 -0.3185,0.2149 -0.3486,0.4048 z m -10.9795,1.2436 c 0.0176,-0.1108 -0.0932,-0.1984 -0.198,-0.1582 -0.1286,0.0494 -0.1286,0.2302 0.0032,0.2706 0.0037,0.0012 0.0075,0.0023 0.0113,0.0035 0.0837,0.0255 0.1699,-0.0295 0.1835,-0.1159 z"
             fill="#332d57"
             id="path1308"
             style="fill:#37383a;fill-opacity:1" />
          <path
             fill-rule="evenodd"
             clip-rule="evenodd"
             d="m 57.3487,18.8459 c -0.0625,0.3949 0.3344,0.7018 0.6957,0.5305 3.407,-1.615 5.8291,-3.7185 6.5019,-5.6708 0.1346,-0.3908 -0.26,-0.6955 -0.6458,-0.5473 -0.1642,0.063 -0.287,0.2 -0.3523,0.3634 -0.0445,0.1112 -0.0976,0.2262 -0.1597,0.345 -0.3584,0.6848 -0.9943,1.4386 -1.9077,2.203 -1.011,0.8462 -2.3165,1.6673 -3.8439,2.3932 -0.1531,0.0727 -0.2616,0.2155 -0.2882,0.383 z m -11.21,2.6996 c 0.0467,-0.2952 -0.1752,-0.5641 -0.4733,-0.5856 -0.3135,-0.0227 -0.6164,-0.0545 -0.9075,-0.095 -0.168,-0.0234 -0.331,-0.0496 -0.4892,-0.0784 -0.1052,-0.0192 -0.2137,-0.0103 -0.3136,0.0281 -0.4905,0.1882 -0.4682,0.8415 0.0479,0.9396 0.5069,0.0963 1.0494,0.165 1.6219,0.2053 0.2528,0.0178 0.4741,-0.1637 0.5138,-0.414 z"
             fill="#332d57"
             id="path1310"
             style="fill:#37383a;fill-opacity:1" />
        </g>
        <circle
           transform="rotate(-96)"
           stroke="#332d57"
           strokeWidth="0.75"
           id="circle1295"
           style="fill:#e83962;fill-opacity:0.996784;stroke:#37383a;stroke-opacity:1"
           r="1.25"
           cy="53.354523"
           cx="-27.567991" />
        <circle
           cx="58.828602"
           cy="2.7365699"
           r="1.25"
           transform="rotate(-6,58.8286,2.73657)"
           fill="#f7931b"
           stroke="#332d57"
           id="circle1314"
           style="fill:#e83962;fill-opacity:1;stroke:#37383a;stroke-opacity:1" />
        <circle
           cx="52.9963"
           cy="15.4156"
           r="0.5"
           transform="rotate(-96,52.9963,15.4156)"
           fill="#332d57"
           id="circle1318"
           style="fill:#37383a;fill-opacity:1" />
        <circle
           cx="47.107601"
           cy="16.7887"
           r="0.875"
           transform="rotate(-96,47.1076,16.7887)"
           fill="#d2e1fb"
           stroke="#332d57"
           strokeWidth="0.75"
           id="circle1320"
           style="stroke:#37383a;stroke-opacity:1" />
        <circle
           cx="49.778099"
           cy="11.1033"
           r="1.625"
           transform="rotate(-6,49.7781,11.1033)"
           fill="#86b7e5"
           id="circle1322"
           style="fill:#92a8d4;fill-opacity:1" />
        <path
           fill-rule="evenodd"
           clip-rule="evenodd"
           d="m 51.1458,10.9595 c 0.0794,0.7553 -0.4685,1.4319 -1.2237,1.5112 -0.7553,0.0794 -1.4318,-0.4685 -1.5112,-1.2237 -0.0794,-0.7552 0.4685,-1.43182 1.2237,-1.5112 0.3015,-0.03168 0.5905,0.03659 0.8339,0.17811 0.1303,0.07577 0.287,0.10729 0.4277,0.05328 C 51.1583,9.86658 51.2423,9.53775 51.014,9.37443 50.6062,9.08272 50.0941,8.93338 49.5562,8.98991 48.3891,9.11259 47.5423,10.1582 47.665,11.3254 c 0.1227,1.1672 1.1683,2.0139 2.3355,1.8912 1.1672,-0.1226 2.0139,-1.1683 1.8912,-2.3355 -0.0202,-0.1925 -0.2237,-0.294 -0.4044,-0.2246 l -0.2151,0.0826 c -0.0879,0.0337 -0.1362,0.1268 -0.1264,0.2204 z"
           fill="#332d57"
           id="path1324"
           style="fill:#37383a;fill-opacity:1" />
      </g>
    </g>
  </g>
</svg>
