<svg width="24" height="24" viewBox="0 0 24 24" fill="none" xmlns="http://www.w3.org/2000/svg">
<path fill-rule="evenodd" clip-rule="evenodd" d="M14.25 2H8C5.23858 2 3 4.23858 3 7V17C3 19.7614 5.23858 22 8 22H16C18.7614 22 21 19.7614 21 17V8.75H18C15.9289 8.75 14.25 7.07107 14.25 5V2ZM15.75 5V2.81066L20.1893 7.25H18C16.7574 7.25 15.75 6.24264 15.75 5ZM12.728 8.73998C12.3817 8.22047 11.6183 8.22047 11.272 8.73998L9.37596 11.584C9.1462 11.9286 9.23933 12.3943 9.58397 12.624C9.92862 12.8538 10.3943 12.7607 10.624 12.416L11.25 11.4771V15C11.25 15.4142 11.5858 15.75 12 15.75C12.4142 15.75 12.75 15.4142 12.75 15V11.4771L13.376 12.416C13.6057 12.7607 14.0714 12.8538 14.416 12.624C14.7607 12.3943 14.8538 11.9286 14.624 11.584L12.728 8.73998Z" fill="rgba(255,255,255,0.8)"/>
</svg>
