<svg width="20" height="20" viewBox="0 0 20 20" fill="none" xmlns="http://www.w3.org/2000/svg">
<path fill-rule="evenodd" clip-rule="evenodd" d="M18.3334 9.99996C18.3334 14.6023 14.6025 18.3333 10.0001 18.3333C5.39771 18.3333 1.66675 14.6023 1.66675 9.99996C1.66675 5.39759 5.39771 1.66663 10.0001 1.66663C14.6025 1.66663 18.3334 5.39759 18.3334 9.99996ZM9.16675 6.66663C9.16675 6.20639 9.53984 5.83329 10.0001 5.83329C10.4603 5.83329 10.8334 6.20639 10.8334 6.66663C10.8334 7.12686 10.4603 7.49996 10.0001 7.49996C9.53984 7.49996 9.16675 7.12686 9.16675 6.66663ZM9.25008 14.1666C9.25008 14.5808 9.58587 14.9166 10.0001 14.9166C10.4143 14.9166 10.7501 14.5808 10.7501 14.1666V9.16663C10.7501 8.75241 10.4143 8.41663 10.0001 8.41663C9.58587 8.41663 9.25008 8.75241 9.25008 9.16663L9.25008 14.1666Z" fill="white"/>
</svg>
