<?xml version="1.0" encoding="UTF-8"?>
<!-- Uploaded to: SVG Find, www.svgrepo.com, Generator: SVG Find Mixer Tools -->
<svg fill="currentColor" stroke="currentColor" version="1.1" viewBox="144 144 512 512" xmlns="http://www.w3.org/2000/svg">
 <g>
  <path d="m400 286.84c-30.012 0-58.797 11.922-80.02 33.141-21.219 21.223-33.141 50.008-33.141 80.02s11.922 58.793 33.141 80.016c21.223 21.223 50.008 33.145 80.02 33.145s58.793-11.922 80.016-33.145 33.145-50.004 33.145-80.016c-0.035156-30.004-11.969-58.766-33.184-79.98-21.215-21.215-49.977-33.148-79.977-33.18zm59.039 127.92-44.281-0.003907v44.281c0 5.2734-2.8125 10.145-7.3789 12.781-4.5664 2.6367-10.195 2.6367-14.762 0-4.5664-2.6367-7.3789-7.5078-7.3789-12.781v-44.281h-44.281c-5.2734 0-10.145-2.8125-12.781-7.3789s-2.6367-10.195 0-14.762c2.6367-4.5664 7.5078-7.3789 12.781-7.3789h44.281v-44.281c0-5.2734 2.8125-10.145 7.3789-12.781 4.5664-2.6367 10.195-2.6367 14.762 0s7.3789 7.5078 7.3789 12.781v44.281h44.281c5.2734 0 10.145 2.8125 12.781 7.3789 2.6367 4.5664 2.6367 10.195 0 14.762-2.6367 4.5664-7.5078 7.3789-12.781 7.3789z"/>
  <path d="m578.1 221.89c-47.469-46.102-111.17-71.676-177.34-71.191-66.172 0.48438-129.49 26.984-176.29 73.773-46.789 46.793-73.289 110.11-73.773 176.29-0.48438 66.168 25.09 129.87 71.191 177.34 47.469 46.102 111.17 71.676 177.34 71.191 66.172-0.48438 129.49-26.984 176.29-73.773 46.789-46.793 73.289-110.11 73.773-176.29 0.48438-66.168-25.09-129.87-71.191-177.34zm-178.1 320.79c-78.672 0-142.68-63.961-142.68-142.68s64.008-142.68 142.68-142.68 142.68 64.008 142.68 142.68c0.003907 78.668-63.957 142.68-142.68 142.68z"/>
 </g>
</svg>
