<svg width="52" height="52" viewBox="0 0 52 52" fill="none" xmlns="http://www.w3.org/2000/svg">
<circle cx="26" cy="26" r="26" fill="#213230"/>
<g clip-path="url(#clip0_243_3770)">
<path d="M25.7217 19.5835C26.139 20.2616 26.4097 21.0289 26.5065 21.8268L30.141 17.4425C30.736 16.7245 31.5497 16.2252 32.4461 16.0119C31.64 14.4812 30.0344 13.4492 28.1876 13.4492C26.8132 13.4567 25.7025 13.7918 24.7149 14.4877C25.3542 15.2676 25.7622 16.1967 25.9049 17.2041C26.0192 18.0129 25.9558 18.8195 25.7217 19.5835Z" fill="#02B197"/>
<path d="M13.0308 23.6211H20.9453L19.2773 21.9373H16.2295C15.7854 21.9373 15.4256 21.5774 15.4256 21.1334C15.4256 20.6893 15.7854 20.3295 16.2295 20.3295H17.6694L14.9679 17.6273C14.654 17.3134 14.654 16.8043 14.9684 16.4904C15.2823 16.1765 15.7915 16.1765 16.1054 16.4904L18.8064 19.192V17.752C18.8064 17.308 19.1662 16.9481 19.6103 16.9481C20.0544 16.9481 20.4147 17.308 20.4147 17.752V20.8003L23.2793 23.6211H24.7411C25.1354 22.313 24.8176 20.849 23.8502 19.8236C24.6569 18.3383 24.4151 16.468 23.1776 15.2304C21.9394 13.9917 20.0708 13.75 18.586 14.5572C17.1135 13.1218 14.6969 13.1086 13.2157 14.5249C12.4462 15.2528 12.0147 16.2366 12.0005 17.2938C11.9858 18.3312 12.3746 19.3079 13.0943 20.0489C12.4867 21.1667 12.473 22.5016 13.0308 23.6211Z" fill="#02B197"/>
<path d="M31.4043 18.4892L27.1502 23.6211H36.3952L36.4723 23.5571C37.0405 23.0857 37.3861 22.3923 37.4206 21.6545C37.4511 21.0008 37.2343 20.3598 36.8216 19.8588C37.8606 19.5008 38.8732 19.7902 38.9388 19.8098C39.3705 19.9422 39.8284 19.7012 39.9627 19.2696C40.0975 18.8371 39.856 18.3772 39.4235 18.2425C39.3518 18.2202 38.2709 17.8953 36.9854 18.1263C37.2164 16.8407 36.8915 15.7597 36.8692 15.6879C36.7345 15.2554 36.2741 15.0119 35.8414 15.1466C35.4089 15.2813 35.1668 15.7392 35.3015 16.1717C35.3186 16.2289 35.6101 17.2385 35.2569 18.278C34.7368 17.7756 34.0295 17.5067 33.3059 17.5405C32.5681 17.5754 31.8752 17.921 31.4043 18.4892Z" fill="#02B197"/>
<path d="M39.1793 25.2617H12.8203C12.3675 25.2617 12 25.5984 12 26.0127C12 29.2874 13.394 32.3656 15.9244 34.6811C16.148 34.8858 16.3777 35.0819 16.614 35.2695H35.3855C35.6218 35.0819 35.8515 34.8858 36.0751 34.6811C38.6055 32.3656 39.9995 29.2874 39.9995 26.0122C39.9996 25.5979 39.6321 25.2617 39.1793 25.2617Z" fill="#02B197"/>
<path d="M36.117 36.9102H15.8827C15.4299 36.9102 15.0624 37.2777 15.0624 37.7305C15.0624 38.1833 15.4299 38.5508 15.8827 38.5508H36.117C36.5698 38.5508 36.9373 38.1833 36.9373 37.7305C36.9373 37.2777 36.5698 36.9102 36.117 36.9102Z" fill="#02B197"/>
</g>
<defs>
<clipPath id="clip0_243_3770">
<rect width="28" height="28" fill="white" transform="translate(12 12)"/>
</clipPath>
</defs>
</svg>
