<svg width="52" height="52" viewBox="0 0 52 52" fill="none" xmlns="http://www.w3.org/2000/svg">
<circle cx="26" cy="26" r="26" fill="#213230"/>
<path d="M36.9857 32.9344H31.4994C31.028 32.9359 30.561 32.8438 30.1255 32.6636C29.6899 32.4834 29.2944 32.2185 28.9619 31.8844C28.4899 31.4115 22.333 25.2584 22.0975 25.0156L16.5719 19.49C16.4873 19.4119 16.3764 19.3686 16.2613 19.3686C16.1462 19.3686 16.0353 19.4119 15.9507 19.49L14.1744 21.2706C13.9041 21.5419 13.7523 21.9092 13.7523 22.2922C13.7523 22.6751 13.9041 23.0425 14.1744 23.3138L26.8882 36.0231C27.0428 36.1803 27.2096 36.3252 27.3869 36.4563C28.1542 37.0273 29.086 37.3344 30.0425 37.3313H35.8C36.4497 37.3308 37.0726 37.0726 37.532 36.6132C37.9914 36.1538 38.2496 35.5309 38.25 34.8813V34.2163C38.2505 33.8791 38.118 33.5554 37.8813 33.3154C37.6446 33.0754 37.3227 32.9385 36.9857 32.9344Z" fill="#02B197"/>
<path d="M22.7144 24.3988L22.9944 24.6788C23.0907 23.1722 23.3359 19.5821 23.4275 18.125L23.5194 16.7469C23.5414 16.3537 23.444 15.963 23.24 15.6261C23.0361 15.2893 22.735 15.0219 22.3764 14.8592C22.0178 14.6964 21.6184 14.6459 21.2305 14.7142C20.8427 14.7825 20.4845 14.9665 20.2031 15.2419L16.8256 18.6194C16.9595 18.6778 17.0812 18.7609 17.1844 18.8644L22.7144 24.3988Z" fill="#02B197"/>
<path d="M31.4994 32.0594H36.1763C34.4532 30.1094 33.0677 27.8855 32.0769 25.4794C31.6984 25.8624 30.8772 26.6757 30.4931 27.0631C30.4106 27.1444 30.2993 27.1897 30.1835 27.189C30.0677 27.1884 29.9569 27.1419 29.8753 27.0597C29.7937 26.9776 29.748 26.8664 29.7482 26.7506C29.7483 26.6348 29.7944 26.5238 29.8763 26.4419L31.74 24.5781C31.3638 23.5412 31.0444 22.6269 30.7731 21.8394C30.3229 22.2896 28.7098 23.9027 28.2313 24.3812C28.1913 24.4228 28.1434 24.4558 28.0904 24.4783C28.0374 24.5009 27.9804 24.5125 27.9228 24.5125C27.8652 24.5125 27.8082 24.5009 27.7552 24.4783C27.7022 24.4558 27.6543 24.4228 27.6144 24.3812C27.5738 24.3408 27.5416 24.2927 27.5197 24.2398C27.4977 24.1868 27.4864 24.1301 27.4864 24.0728C27.4864 24.0155 27.4977 23.9588 27.5197 23.9058C27.5416 23.8529 27.5738 23.8048 27.6144 23.7644C28.1165 23.2623 29.9992 21.3794 30.4669 20.9119C30.0008 19.4784 29.7397 17.9836 28.0037 17.9588C27.6042 17.9594 27.2134 18.0758 26.8787 18.294C26.5441 18.5122 26.2799 18.8228 26.1181 19.1881C25.8616 19.8136 25.1773 19.944 24.5606 19.8881C24.3445 19.9141 24.1414 19.7067 24.1801 20.0325L24.1756 20.1244C24.1263 20.7798 23.86 24.9434 23.8169 25.5056L29.5788 31.2675C29.8306 31.5199 30.1301 31.7199 30.4598 31.8558C30.7894 31.9918 31.1428 32.0609 31.4994 32.0594Z" fill="#02B197"/>
<path d="M26.2713 36.64L26.0875 36.4563H14.1875C14.0727 36.458 13.9631 36.5049 13.8825 36.5868C13.8019 36.6686 13.7568 36.7789 13.7568 36.8938C13.7568 37.0086 13.8019 37.1189 13.8825 37.2007C13.9631 37.2826 14.0727 37.3295 14.1875 37.3313H27.1157C26.8075 37.1356 26.524 36.9035 26.2713 36.64Z" fill="#02B197"/>
<path d="M20.75 33.8101C20.8646 33.8078 20.9737 33.7607 21.0539 33.6789C21.1341 33.5971 21.1791 33.4871 21.1791 33.3725C21.1791 33.258 21.1341 33.148 21.0539 33.0662C20.9737 32.9844 20.8645 32.9373 20.75 32.9351H14.1875C14.073 32.9373 13.9639 32.9844 13.8836 33.0662C13.8034 33.148 13.7585 33.258 13.7585 33.3726C13.7585 33.4872 13.8034 33.5972 13.8837 33.679C13.9639 33.7608 14.073 33.8078 14.1876 33.8101H20.75Z" fill="#02B197"/>
</svg>
