<svg xmlns="http://www.w3.org/2000/svg" width="30" height="30" fill="none"><path fill="url(#a)" d="M15 30a15 15 0 1 0 0-30 15 15 0 0 0 0 30Z"/><path fill="#F26536" d="M11.7 24.6c-.2 1 .7 1.8 1.6 2.1.7.3 1.7.3 2-.4.4-.7-.2-1.4-.7-2-.5-.6-1.4-1.2-2.1-.8-.5.2-.6.7-.8 1.2"/><path fill="#EE3026" d="M14.5 24.7h-.1c-.4-.5-1-1-1.6-.7-.3.2-.5.5-.6.9v.3l.2-.4c.5-.6 1.4-.4 2.1 0Z"/><path fill="#EF4423" d="M13.4 26.4c.6.2 1.3.2 1.6-.3.2-.5-.2-1-.5-1.4-.7-.3-1.6-.5-2.1.1l-.2.4c0 .5.6 1 1.2 1.2Z"/><path fill="#F26536" d="M6.9 17.6c-.3-.5-1-.6-1.6-.4-.5.2-1 .6-.9 1 .2.5.7.7 1.2.7s1.2 0 1.4-.4l-.1-.9"/><path fill="#EE3026" d="M5.5 18.7c.4 0 1 0 1-.3.2-.2.1-.5 0-.7v-.1.2c0 .5-.6.7-1 .9Z"/><path fill="#EF4423" d="M5.3 17.4c-.3.1-.7.4-.6.8.1.3.4.4.8.5.4-.2 1-.4 1-.9v-.2c-.3-.3-.8-.3-1.2-.2ZM24 12.2c1.7-.9 3.2.7 3 2.2.8-1.7-.9-4-2.9-3-.5.3-1.1 1-1 1.7.1-.4.5-.8.9-1Z"/><path fill="#F26536" d="M24.2 14.2c.4.4.7 1 1.2 1.3.4.2 1 0 1.3-.4l.4-.7c0-1.5-1.4-3-3.1-2.2-.4.1-.8.5-1 .9l.1.3c.2.5.8.5 1.1.8Z"/><path fill="#EF4423" d="M25.7 19.7c0 .9-1 1.2-1.6.9.6.6 1.9.3 1.8-.7 0-.3-.1-.6-.4-.7l.2.5Z"/><path fill="#F26536" d="M24.8 19.4c-.3.1-.6.1-.8.3-.2.1-.1.4 0 .6l.1.3c.7.3 1.6 0 1.6-.9l-.2-.5h-.2l-.5.2Z"/><path fill="#EF4423" d="M16.6 17.1c.4-.3 1 0 1 .5.1-.6-.5-1.1-1-.7-.2.1-.3.3-.2.5 0 0 0-.2.2-.3Z"/><path fill="#F26536" d="m16.8 17.7.4.3c.1 0 .3 0 .4-.2v-.2c0-.5-.6-.8-1-.5l-.2.3v.1c.1.2.3.1.4.2Z"/><path fill="#EF4423" d="M7.1 14.1c-.1-.6.5-.9.9-.7-.4-.3-1.2 0-1.1.6 0 .2.2.4.4.5A.7.7 0 0 1 7 14Z"/><path fill="#F26536" d="m7.7 14.2.5-.2v-.4l-.2-.2c-.4-.2-1 .1-.9.7 0 .1 0 .3.2.3l.4-.2Z"/><path fill="#EF4423" d="M23.1 21.6c.4.2.5.7.2 1 .4-.3.5-1 0-1h-.5.3Z"/><path fill="#F26536" d="M22.8 22v.4l.4.2h.1c.3-.4.2-.8-.2-1h-.3v.4Z"/><path fill="#EF4423" d="M19.3 11.4c-.3-.8.5-1.3 1.2-1.2-.8-.4-1.9.2-1.6 1.1.1.3.4.6.7.6a1 1 0 0 1-.3-.5Z"/><path fill="#F26536" d="m20.2 11.5.6-.5c.2-.2 0-.4 0-.6-.2 0-.2-.2-.3-.2-.7-.1-1.5.4-1.2 1.2 0 .2.1.4.3.5h.2c.2 0 .3-.3.4-.4Z"/><path fill="#EF4423" d="M25.5 6.6c.4-.6 1.1-.2 1.4.4-.1-.8-1-1.4-1.5-.7 0 .2-.1.6 0 .8l.1-.5Z"/><path fill="#F26536" d="m26 7.4.6.3c.2 0 .3-.1.3-.3V7c-.3-.6-1-1-1.4-.4v.6c.2.2.4.1.5.2ZM17 4.3c.6.1 1.2.2 1.7.6.7.6.6 1.8 1.1 2.5a2 2 0 0 0 2.7.5c.8-.6 1-1.7.7-2.6-.3-1-1-1.6-2-2-.8-.5-1.7-.7-2.7-.9-.7-.1-2-.4-2.5.4-.4.8.3 1.3 1 1.5Z"/><path fill="#EF4423" d="M18.5 3.1c1 .2 1.9.5 2.8.9.8.4 1.6 1.1 1.9 2l.1.5-.1-1.2c-.3-1-1-1.6-2-2-.8-.5-1.7-.7-2.7-.9-.7-.1-2-.4-2.5.4-.2.3-.2.6 0 .8.4-.9 1.8-.6 2.5-.5Z"/><path fill="#F26536" d="M17 4.3c.6.1 1.2.2 1.7.6.7.6.6 1.8 1.1 2.5a2 2 0 0 0 2.7.5c.5-.4.7-.9.8-1.4l-.1-.5c-.3-.9-1-1.6-2-2-.8-.5-1.7-.7-2.7-.9-.7-.1-2-.4-2.5.5.1.3.6.6 1 .7Z"/><path fill="#EF4423" d="M5.8 8.7c1 .3 1.4 1.7.8 2.6l-1.4 1.3c-.3.4-.4 1-.9 1.2-.6.3-1.3-.2-1.6-.8-.5-1-.5-2.3 0-3.4.6-1.5 1.8-1.5 3.1-1Z"/><path fill="#EE3026" d="M2.9 10.4C3.5 9 4.7 9 6 9.4c.3.1.6.4.7.7 0-.6-.4-1.2-1-1.4-1.4-.6-2.5-.6-3.2 1-.4 1-.4 2.2 0 3.2a4 4 0 0 1 .3-2.5Z"/><path fill="#EF4423" d="M4.3 13.8c.5-.3.6-.8.9-1.2l1.4-1.3.3-1.2c-.2-.3-.5-.6-.8-.7-1.4-.5-2.6-.5-3.2 1a4 4 0 0 0-.2 2.5c.3.7 1 1.2 1.7.9Z"/><path fill="#F26536" d="M4 23a3 3 0 0 0 1.3 1.6c.3.2.6.2 1 .2.3 0 .6-.2.9-.5.5-.5 1-1.2 1-2 0-.7-.4-1.4-1-1.8a3 3 0 0 0-1.5-.4c-2-.1-2.4 1.3-1.7 3Z"/><path fill="#EF4423" d="M4.6 22.9c.2.4.5.8 1 1 .1.2.3.2.5.2.3 0 .5-.2.7-.3.4-.4.7-.9.7-1.4 0-.5-.2-1-.7-1.4-.3-.2-.7-.2-1-.2-1.5-.1-1.7 1-1.2 2Z"/><path fill="#EE3026" d="M6 21.4c.4 0 .8 0 1.1.3l.4.3c-.1-.4-.3-.7-.7-1-.3-.2-.7-.2-1-.2-1.3-.1-1.6.7-1.4 1.7 0-.7.5-1.2 1.6-1.1Z"/><path fill="#EF4423" d="m5.5 24 .6.1c.3 0 .5-.2.7-.3.4-.4.7-.9.7-1.4V22l-.4-.3c-.3-.3-.7-.3-1.1-.3-1 0-1.5.4-1.6 1l.2.5c.2.4.5.9 1 1Z"/><path fill="#F15F32" d="M19 26.2A14.3 14.3 0 0 1 8 2.8a14.3 14.3 0 1 0 18.4 21.4c-2.1 1.3-4.6 2-7.3 2Z" opacity=".2" style="mix-blend-mode:multiply"/><path fill="#F26536" d="m20.3 21.5 1 1.1c.5.8 1.1 1.7 1 2.8-.1 1.1-1.2 2-2.3 2.3h-1c-.3-.1-.4-.3-.5-.4-.4-.5-.6-1.1-.5-1.7 0-.4.2-.8 0-1.2-.5-1.1-2.6-.5-1.8-2.3.7-1.5 3-1.5 4-.6Z"/><path fill="#EE3026" d="M18.9 22.5c.8 0 1.7.5 2.3 1.2-.5-.9-1.6-2-2.6-1.8-.9 0-.9.6-.7 1.2.1-.3.4-.5 1-.6Z"/><path fill="#EF4423" d="m18.8 25.9-.2-.6c0 .5-.1 1 .2 1.3V26Z"/><path fill="#EF4423" d="m20.3 27 .9-.6c.6-.6.6-1.8.1-2.6v-.1c-.7-.7-1.6-1.2-2.4-1.2-.6 0-.9.3-1 .6l.6 1.4v.8l.3.6v.8c.4.3 1 .4 1.5.2Z"/><path fill="#F26536" d="m9.6 20.6.7.4c.4.1 1-.1 1.4-.2.7-.1 1.5.2 2.2 0 .7-.3 1.2-1.2 1-2 0-.9-.6-1.6-1.2-2.1-1.4-1.2-3.7-1.5-5.2-.3-1.6 1.2 0 3.2 1 4.2Z"/><path fill="#EF4423" d="M14.3 18.5c0-.3-.2-.6-.4-.8-.7-.7-1.5-1-2.3-1.1-.3 0-.6.2-.8.4-.5.4-1 1.3-1.5 1.7l.4.6c.1.3.2.7.6 1 .4.2.9-.2 1.3-.4.5-.1 1-.2 1.6 0 .2 0 .6.2.8 0l.1-.2c.2-.4.3-.8.2-1.2Z"/><path fill="#EE3026" d="M10.8 17c.2-.2.5-.4.8-.4H10c-1.4.3-1.2 1.2-.8 2 .6-.3 1-1.2 1.5-1.6Z"/><path fill="#F26536" d="M20.7 18h-.3c-.2 0-.3.2-.4.3l-.7.4c-.2.2-.2.6 0 .9.1.2.5.3.8.4.6.1 1.5-.2 1.7-.8.3-.7-.5-1.1-1-1.2Z"/><path fill="#EF4423" d="m19.5 19.5.3.2h1l.2-.3.1-.8-.2-.2-.3-.2c-.2 0-.3.2-.5.4l-.4.2c-.1 0-.3 0-.3.2v.1l.1.4Z"/><path fill="#EE3026" d="m21 19.4-.2.3.5-.3c.4-.4.1-.6-.2-.8l-.1.8Z"/><path fill="#F47B53" d="M7.1 4.8c-.2.6 0 1.4.4 2l.4.3H9l.9.3c.7.2 1.3-.3 1.8-.8l.4-.4c.3-.5.2-1.2-.2-1.7-1-1.7-4.1-2-4.9.2Z"/><path fill="#F26536" d="M11.2 4.8c-.9-.4-2-.4-2.8-.1l-.4.1c-.2.4-.3 1 0 1.3.2.5.6.3 1 .5.5.1.8.5 1.3.5.2 0 .5-.1.7-.3.6-.6.6-1.4.2-2Z"/><path fill="#F04E2B" d="M11.2 4.8c-.4-.9-1.5-1.4-2.4-.9a2 2 0 0 0-.8.9l.4-.1c.9-.3 2-.3 2.8 0Z"/><path fill="#F5EB00" d="M18.5 9.8c1.7 1.5 3.9 2.7 6.2 2.9.5 0 1.1 0 1.6-.3.7-.5.8-1.5.7-2.3 0-1.3 0-2.7-.7-4a8.9 8.9 0 0 0-2.7-2.9c-2.2-1.6-5.3-3.4-8.1-3-3.3.5-1.4 3.8-.3 5.5 1 1.5 2 2.9 3.3 4Z" opacity=".3" style="mix-blend-mode:overlay"/><path fill="#FAA21B" d="M11.8 3.5a8 8 0 0 0 1 4.4c2 3.7 5 6.7 8.5 8.7 1 .6 2 1.1 3.2 1.2a4 4 0 0 0 3.2-.8c.8-.8 1.2-2 1.2-3.3.1-1.7-.4-3.5-1.3-5-.6-1-1.4-1.7-2.1-2.5C23 4 12.6-3.9 11.8 3.5Z" opacity=".3" style="mix-blend-mode:overlay"/><path fill="#F26536" d="M3 9.8c-1 3-1 6.4 0 9.4a7.7 7.7 0 0 0 3 4.1c1.5.9 3.1 1 4.7 1.6 1.2.4 2.3 1.2 3.6 1.6 1.1.4 2.3.6 3.5.5 1.4 0 3-.8 3.3-2.2.2-1.2-.8-2.3-1.8-3l-4.7-3.4a9 9 0 0 1-3.4-4.7c-.4-1.7 0-3.4.6-5 .4-1.3 1.1-2.6.9-4-.5-2.5-3.4-3-5.1-1.6-2.1 1.7-3.8 4-4.6 6.7Z" opacity=".4" style="mix-blend-mode:multiply"/><defs><radialGradient id="a" cx="0" cy="0" r="1" gradientTransform="translate(8 25.4) scale(28.61)" gradientUnits="userSpaceOnUse"><stop offset=".2" stop-color="#F78F2F"/><stop offset=".7" stop-color="#FBAB22"/></radialGradient></defs></svg>