<svg xmlns="http://www.w3.org/2000/svg" id="Layer_1" data-name="Layer 1" viewBox="0 0 120 87"><defs><style>.cls-1,.cls-2{fill:#232426}.cls-2{stroke:#000;stroke-miterlimit:10;stroke-width:6px}</style></defs><path d="M60.1 57a1.6 1.6 0 0 1-1.1-.4l-5.5-5.4a1.6 1.6 0 0 1 1.2-2.8 1.6 1.6 0 0 1 1.1.5l4.5 4.4 4.1-4.4a1.6 1.6 0 0 1 2.3 2.3l-5.4 5.4a1.6 1.6 0 0 1-1.2.5Z" class="cls-1"/><path d="M60.1 57a1.6 1.6 0 0 1-1.6-1.5V40.2a1.6 1.6 0 0 1 3.2 0v15.3a1.6 1.6 0 0 1-1.6 1.6ZM23.8 52a1.6 1.6 0 0 1-1.6-1.5v-7.7a1.6 1.6 0 1 1 3.2 0V49l6-.2a1.6 1.6 0 1 1 0 3.3Z" class="cls-1"/><path d="M23.8 52a1.6 1.6 0 0 1-1.2-.4 1.6 1.6 0 0 1 0-2.3l10.8-10.8a1.6 1.6 0 0 1 2.8 1.2 1.6 1.6 0 0 1-.5 1.1L25 51.6a1.6 1.6 0 0 1-1.1.5ZM88.4 52a1.6 1.6 0 1 1 0-3.1h6.2l-.1-6.1a1.6 1.6 0 0 1 3.2 0v7.7a1.6 1.6 0 0 1-1.6 1.6Z" class="cls-1"/><path d="M96 52a1.6 1.6 0 0 1-1-.4L84.1 40.8a1.6 1.6 0 0 1 0-2.3 1.6 1.6 0 0 1 1-.4 1.6 1.6 0 0 1 1.2.4l10.8 10.8a1.6 1.6 0 0 1 0 2.3 1.6 1.6 0 0 1-1.1.5ZM60.2 32.4a16.2 16.2 0 1 1 16.1-16.2 16.2 16.2 0 0 1-16.1 16.2Zm0-30.4a14.1 14.1 0 1 0 14 14.2A14.2 14.2 0 0 0 60.3 2Z" class="cls-1"/><path d="M60.2 22.7a6.5 6.5 0 1 1 6.4-6.5 6.5 6.5 0 0 1-6.4 6.5Zm0-11a4.5 4.5 0 1 0 4.4 4.4 4.5 4.5 0 0 0-4.4-4.4Z" class="cls-1"/><path d="M14.1 77.7a11.1 11.1 0 1 1 11.2-11.1A11.2 11.2 0 0 1 14 77.7Zm0-20.8a9.7 9.7 0 1 0 9.8 9.7 9.7 9.7 0 0 0-9.8-9.7ZM60.1 84a11.1 11.1 0 1 1 11.1-11.2A11.2 11.2 0 0 1 60.1 84Zm0-20.9a9.7 9.7 0 1 0 9.7 9.7 9.8 9.8 0 0 0-9.7-9.7ZM105.9 77.7A11.1 11.1 0 1 1 117 66.6a11.1 11.1 0 0 1-11.1 11.1Zm0-20.8a9.7 9.7 0 1 0 9.7 9.7 9.7 9.7 0 0 0-9.7-9.7Z" class="cls-2"/></svg>