<svg width="24" height="24" viewBox="0 0 24 24" fill="none" xmlns="http://www.w3.org/2000/svg">
<path d="M3 7C3 4.23858 5.23858 2 8 2H14.584C14.8503 2 15.1056 2.1062 15.2933 2.29507L20.7093 7.74449C20.8955 7.93184 21 8.18526 21 8.44942V17C21 19.7614 18.7614 22 16 22H8C5.23858 22 3 19.7614 3 17V7Z" stroke="white" stroke-width="1.5"/>
<path d="M10 12L11.896 9.15601C11.9455 9.08179 12.0545 9.08179 12.104 9.15601L14 12" stroke="white" stroke-width="1.5" stroke-linecap="round"/>
<path d="M12 10V15" stroke="white" stroke-width="1.5" stroke-linecap="round"/>
<path d="M15 2.24142C15 2.15233 15.1077 2.10771 15.1707 2.17071L20.8293 7.82929C20.8923 7.89229 20.8477 8 20.7586 8H18C16.3431 8 15 6.65685 15 5V2.24142Z" stroke="white" stroke-width="1.5"/>
</svg>
