<svg xmlns="http://www.w3.org/2000/svg" width="428" height="370" fill="none" viewBox="0 0 428 370">
  <path fill="#8AF5D1" fill-opacity=".05" fill-rule="evenodd" d="M267.179 66.328c30.924 0 64.732 10.733 84.834 35.38 9.289 11.389 13.94 24.757 13.955 38.045.007 15.003-5.897 29.903-17.729 41.77-10.942 10.97-24.915 18.397-39.187 24.495l-1.574.669c-1.608.69-3.245 1.462-4.258 2.862-.764 1.046-1.096 2.334-1.384 3.592l-.054.236c-3.007 13.214-8.529 24.499-15.901 34.018h-.006c-13.13 16.962-32.172 28.305-53.387 34.946-16.248 5.087-33.778 7.42-50.924 7.42-28.839 0-55.311-6.758-76.048-18.035l-.007-.008a114.217 114.217 0 0 1-10.299-6.28c-21.12-14.473-34.124-34.239-34.124-56.029 0-41.542 47.268-75.722 107.894-79.918 6.76-35.697 48.145-63.163 98.199-63.163ZM134.005 67.98c10.486 0 18.986 5.79 18.986 12.933s-8.5 12.932-18.986 12.932-18.986-5.789-18.986-12.932c0-7.143 8.5-12.933 18.986-12.933Z" clip-rule="evenodd"/>
  <path fill="#84AAA3" fill-rule="evenodd" d="M208.763 69.467a5.793 5.793 0 0 0-2.336-.187c-2.458.299-4.504 2.22-4.931 4.66a5.744 5.744 0 0 0 1.571 5.078 1.69 1.69 0 0 1 .318 1.964c-1.739 3.392-4.392 7.745-7.153 14.017-8.062 18.314-13.512 37.954-35.768 43.064-19.292 4.43-32.067-14-23.043-31.066 7.687-14.537 24.124-17.908 34.472-29.45 9.428-10.518 10.781-26.734 24.298-34.084 3.901-2.121 8.465-2.865 12.747-1.686 10.051 2.766 11.493 13.471 6.78 21.282-1.745 2.89-3.661 4.856-5.138 6.027-.512.405-1.19.565-1.817.38Z" clip-rule="evenodd"/>
  <path fill="#84AAA3" d="M215.939 53.617a.825.825 0 0 1 1.156.16l.779 1.02 1.564 2.024c2.03 2.645 3.062 4.115 4.129 5.964 1.738 3.008 3.078 6.347 4.02 9.926.17.648.328 1.307.473 1.98.998 4.604.894 7.647-1.315 9.755-1.838 1.755-5.283 3.083-9.915 4.103-2.38.524-4.924.932-7.468 1.238l-.747.087c-.487.054-.951.103-1.388.144l-.891.08-.374.03a.825.825 0 1 1-.116-1.647l.481-.039c.131-.01.273-.023.426-.037l.643-.062c.553-.056 1.144-.12 1.768-.195 2.495-.3 4.989-.7 7.311-1.212l.587-.132c4.055-.94 7.06-2.136 8.543-3.552 1.632-1.557 1.721-4.154.842-8.211a45.488 45.488 0 0 0-.457-1.91c-.905-3.442-2.19-6.643-3.853-9.52l-.175-.301c-.995-1.689-2.025-3.134-4.016-5.72l-1.479-1.914-.525-.686-.164-.217a.825.825 0 0 1 .161-1.156Z"/>
  <path fill="#84AAA3" d="M213.756 88.014a.826.826 0 0 1 1.634.221l-.01.08-2.777 15.014a.826.826 0 0 1-1.635-.221l.011-.079 2.777-15.015Zm56.04-42.532a.827.827 0 0 1 1.121-.163l.064.05 8.369 7.196c.3.258.372.688.183 1.027l-.044.07-25.649 36.804a.805.805 0 0 1-.12.137l-.071.057-36.311 26.537a.826.826 0 0 1-1.036-1.283l.062-.05 36.199-26.455 25.145-36.079-7.153-6.15-23.916 30.12a.824.824 0 0 1-.265.22l-.08.035-24.65 9.66a.825.825 0 0 1-.675-1.504l.073-.033 24.443-9.58 24.311-30.616Z"/>
  <path fill="#84AAA3" d="M278.038 27.657a.826.826 0 0 1 1.299-.348l.057.052 1.43 1.423a4.79 4.79 0 0 1 1.277 4.518l-.042.162-1.049 3.766.68.612a6.752 6.752 0 0 1 1.058 8.836l-.103.145-4.273 5.9a.826.826 0 0 1-1.38-.903l.043-.066 4.272-5.9a5.1 5.1 0 0 0-.604-6.676l-.117-.109-1.061-.955a.827.827 0 0 1-.26-.759l.017-.076 1.186-4.258a3.139 3.139 0 0 0-.711-2.965l-.098-.102-.522-.52-6.689 17.91a.825.825 0 0 1-.986.508l-.076-.024a.827.827 0 0 1-.509-.986l.025-.076 7.136-19.109Zm-81.137 72.689c2.934-.806 5.121-1.06 7.948-.54l.285.058c.341.073.717.167 1.171.302.882.262 1.793.607 2.706 1.047 2.437 1.177 4.521 2.851 6.018 5.117l.157.244c.073.116.193.321.343.605.247.465.493.987.723 1.555.387.96.689 1.954.87 2.962l.049.29c.717 4.549-.073 14.268-1.921 27.458a554.56 554.56 0 0 1-1.94 12.701l-.3 1.813c-.145.873-.288 1.716-.427 2.526l-.487 2.8-.162.914 47.285 4.615a.827.827 0 0 1 .731.67c.55 2.936.495 6.114-.683 9.563-1.26 3.664-3.328 6.315-5.734 8.328a.822.822 0 0 1-.438.187l-5.11.577c-7.489.85-15.009 1.734-23.214 2.738l-18.99 2.363c-3.82.467-6.287.743-8.253.914l-.874.071c-4.285.328-6.32.105-8.373-.862l-.173-.084c-5.234-2.58-7.872-8.349-8.654-17.408l-.06-.745c-.474-6.238-.23-11.905.887-25.55l.679-8.213c.097-1.21.179-2.278.257-3.351l.051-.692c.276-3.85.462-7.209.561-10.372a.826.826 0 0 1 1.65.052l-.037 1.07a262.24 262.24 0 0 1-.482 8.728l-.13 1.796a649.53 649.53 0 0 1-.432 5.45l-.5 6.022c-1.084 13.289-1.318 18.866-.858 24.935l.032.404c.704 8.732 3.112 14.1 7.765 16.393l.148.071c1.749.824 3.531 1.018 7.564.709l.837-.069c1.418-.123 3.107-.302 5.394-.571l19.534-2.423 4.479-.549c7.723-.938 14.876-1.774 22.028-2.584l3.84-.433.018-.014c2.038-1.756 3.796-4.035 4.916-7.113l.11-.311a16.746 16.746 0 0 0 .756-7.913l-.031-.202-47.547-4.64a.825.825 0 0 1-.732-.97l.297-1.661.344-1.965c.189-1.094.386-2.255.59-3.473a561.344 561.344 0 0 0 2.233-14.471l.229-1.657c1.692-12.425 2.377-21.573 1.653-25.568-.16-.89-.428-1.777-.776-2.637a15.2 15.2 0 0 0-.54-1.188l-.111-.213a8.124 8.124 0 0 0-.281-.498c-1.326-2.103-3.232-3.661-5.496-4.754a16.44 16.44 0 0 0-2.458-.951 12.697 12.697 0 0 0-1.29-.32c-2.528-.465-4.491-.237-7.21.51a22.484 22.484 0 0 0-4.021 1.526.824.824 0 1 1-.728-1.481 24.078 24.078 0 0 1 4.315-1.638Z"/>
  <path fill="#84AAA3" d="M274.739 159.263a.826.826 0 0 1 1.328.278l.026.071.843 2.638a6.865 6.865 0 0 1-1.635 6.887l-.129.129-2.302 2.23a7.674 7.674 0 0 0-1.735 2.535l-.089.222a8.683 8.683 0 0 1-7.178 5.511l-.135.012-8.558 1.811a.825.825 0 0 1-.958-.559l-.02-.077a.824.824 0 0 1 .559-.958l.077-.021 8.604-1.82.101-.015a7.03 7.03 0 0 0 5.901-4.311l.067-.167a9.316 9.316 0 0 1 2.036-3.17l.18-.179 2.301-2.23a5.214 5.214 0 0 0 1.39-5.161l-.05-.167-.444-1.387-5.119 4.84a.82.82 0 0 1-.354.198l-.081.017-9.787 1.585a.824.824 0 0 1-.341-1.613l.078-.017 9.534-1.543 5.89-5.569Zm-131.052-23.46a.827.827 0 0 1 1.572.501l-.024.076-22.464 60.297c-2.079 5.58.903 11.779 6.55 13.591 11.364 3.644 23.381 5.566 35.22 4.749 15.351-1.059 28.962-6.676 40.093-17.811l.444-.45.001-8.362c0-.43.327-.782.746-.822l.079-.004c.43 0 .782.328.822.746l.004.08v8.699a.825.825 0 0 1-.234.575c-11.554 11.901-25.79 17.889-41.842 18.996-12.072.833-24.289-1.121-35.837-4.824-6.481-2.079-9.931-9.137-7.664-15.545l.071-.195 22.463-60.297Z"/>
  <path fill="#84AAA3" d="M124.697 208.925a.826.826 0 0 1 1.595.426c-1.978 7.403-1.941 14.976 1.046 22.171 3.563 8.591 10.461 14.461 19.524 18.098 3.278 1.315 6.642 2.252 9.938 2.872 1.215.228 2.355.4 3.402.525l.609.068c.446.046.825.078 1.13.097 5.069.325 9.208-.296 16.483-2.289 15.277-4.189 31.197-10.503 48.283-20.038a.826.826 0 0 1 1.228.733l-.146 8.927c-.139 7.821-.312 15.813-.574 26.696l-.93 37.557a4052.582 4052.582 0 0 0-.623 29.104l-.113 6.965 13.735 7.378.128-.796a1448.445 1448.445 0 0 1 4.847-28.54l1.481-8.133c1.552-8.44 3.799-20.561 3.911-21.17l.68-3.724c1.716-9.453 3.049-17.215 4.344-25.419a.825.825 0 1 1 1.631.257l-.3 1.89c-1.306 8.162-2.675 16.044-4.454 25.781l-5.28 28.657-.035.195a1466.143 1466.143 0 0 0-5.504 32.41.825.825 0 0 1-1.206.597l-15.201-8.166a.825.825 0 0 1-.432-.663l-.003-.077.146-8.93c.171-9.595.392-19.446.767-34.584l.854-34.562c.249-10.534.41-18.346.543-26.431l.061-3.818-.335.185c-16.347 8.971-31.647 15.024-46.356 19.114l-.711.197-.814.22c-6.942 1.864-11.123 2.45-16.21 2.125l-.369-.026c-1.27-.098-2.964-.312-4.972-.69a54.697 54.697 0 0 1-10.248-2.962c-9.442-3.79-16.682-9.948-20.434-18.998-3.141-7.568-3.18-15.502-1.116-23.229Z"/>
  <path fill="#84AAA3" d="M245.545 182.793a.825.825 0 0 1 1.053.348l.036.071 47.436 106.825a.826.826 0 0 1-.315 1.034l-.068.038-14.504 7.32a.828.828 0 0 1-1.026-.233l-.045-.065-61.298-97.594-11.172-3.738a.825.825 0 0 1-.542-.968l.021-.077a.825.825 0 0 1 .968-.542l.077.021 11.452 3.832a.821.821 0 0 1 .39.278l.047.066 61.055 97.207 13.132-6.628-47.117-106.105a.826.826 0 0 1 .348-1.054l.072-.036Zm23.007-41.656a.824.824 0 0 1 .864-.341l.076.021 13.998 4.599c.489.16.708.718.476 1.163l-.038.066-10.008 15.631a.825.825 0 0 1-1.43-.822l.04-.069 9.433-14.734-12.396-4.072-15.575 22.875a.827.827 0 0 1-1.08.259l-.067-.041a.826.826 0 0 1-.259-1.08l.041-.067 15.925-23.388Zm11.381-126.166c7.785 0 14.096 6.311 14.096 14.097a14.08 14.08 0 0 1-5.976 11.524.826.826 0 1 1-.952-1.349 12.428 12.428 0 0 0 5.277-10.175c0-6.874-5.572-12.446-12.445-12.446-6.874 0-12.446 5.572-12.446 12.446 0 2.118.529 4.158 1.525 5.974a.826.826 0 0 1-1.447.794 14.03 14.03 0 0 1-1.729-6.768c0-7.786 6.311-14.097 14.097-14.097Z"/>
  <path fill="#84AAA3" fill-rule="evenodd" d="m224.716 340.348-.637 13.707 30.042 14.312.256-2.117a12.47 12.47 0 0 0-5.574-11.947l-8.885-5.788-15.202-8.167Z" clip-rule="evenodd"/>
  <path fill="#84AAA3" fill-rule="evenodd" d="m223.255 354.016.637-13.707a.825.825 0 0 1 1.215-.688l15.201 8.167.06.035 8.886 5.788a13.295 13.295 0 0 1 5.942 12.738l-.256 2.117a.825.825 0 0 1-1.174.646L223.724 354.8a.825.825 0 0 1-.469-.784Zm16.241-4.791-14.016-7.53-.551 11.85 28.51 13.582.119-.976a11.646 11.646 0 0 0-5.021-11.034l-.185-.123-8.856-5.769Zm38.999-51.276 5.516 8.49 30.548-14.641a10.861 10.861 0 0 0-12.984-4.374l-8.576 3.205-14.504 7.32Z" clip-rule="evenodd"/>
  <path fill="#84AAA3" fill-rule="evenodd" d="m292.627 289.893.083-.037 8.576-3.205a11.685 11.685 0 0 1 13.97 4.707.825.825 0 0 1-.341 1.185l-30.548 14.642a.828.828 0 0 1-1.049-.295l-5.515-8.491a.824.824 0 0 1 .32-1.186l14.504-7.32Zm-8.32 15.489 29.018-13.908-.054-.071a10.035 10.035 0 0 0-11.407-3.205l-8.534 3.189-13.642 6.884 4.619 7.111Z" clip-rule="evenodd"/>
  <path fill="#84AAA3" d="M251.027 196.732a.825.825 0 0 1 .926-.611l.078.016 6.149 1.569c7.808 1.992 12.666 9.751 11.082 17.623l-.05.239-2.758 12.667a.825.825 0 0 1-1.627-.273l.013-.079 2.759-12.666c1.527-7.014-2.716-13.978-9.618-15.856l-.21-.055-6.148-1.57a.825.825 0 0 1-.596-1.004ZM143.428 177.5a.825.825 0 0 1 .914.726c.409 3.571 1.619 7.154 4.204 10.517 2.302 2.994 5.233 5.117 8.547 6.519 2.201.931 4.142 1.398 5.93 1.633a.826.826 0 1 1-.216 1.637c-1.923-.253-4.001-.753-6.357-1.75-3.563-1.506-6.725-3.797-9.212-7.033-2.793-3.632-4.096-7.491-4.536-11.335a.825.825 0 0 1 .726-.914Zm8.333-18.5a.825.825 0 1 1 1.574.496c-1.081 3.427-1.434 7.193-.442 11.317.883 3.673 2.696 6.805 5.152 9.435 1.631 1.746 3.213 2.963 4.751 3.906a.826.826 0 0 1-.864 1.408c-1.654-1.015-3.348-2.318-5.094-4.187-2.64-2.827-4.596-6.207-5.55-10.175-1.072-4.455-.691-8.511.473-12.2Z"/>
  <path fill="#84AAA3" fill-rule="evenodd" d="M106.927 270.95h104.394v-17.374H106.927v17.374Z" clip-rule="evenodd"/>
  <path fill="#84AAA3" d="M279.933 5.777c12.862 0 23.291 10.427 23.291 23.29a23.279 23.279 0 0 1-11.533 20.11.826.826 0 0 1-.835-1.425 21.627 21.627 0 0 0 10.717-18.684c0-11.952-9.69-21.64-21.64-21.64-11.951 0-21.64 9.688-21.64 21.64 0 4.664 1.479 9.104 4.179 12.784a.827.827 0 0 1-1.332.977 23.187 23.187 0 0 1-4.498-13.761c0-12.864 10.428-23.29 23.291-23.29Z"/>
  <path fill="#84AAA3" fill-rule="evenodd" d="M30.446 68.151h12.69c16.815 0 30.446 13.631 30.446 30.446v29.621c0 .456-.37.826-.825.826h-42.31C13.631 129.044 0 115.412 0 98.597c0-16.815 13.631-30.446 30.446-30.446Zm41.485 30.446c0-15.744-12.635-28.536-28.32-28.79l-.475-.005h-12.69c-15.903 0-28.795 12.892-28.795 28.795 0 15.904 12.892 28.796 28.795 28.796h41.485V98.597Z" clip-rule="evenodd"/>
  <path fill="#84AAA3" d="M48.288 89.65a.826.826 0 0 1 .08 1.646l-.08.004H25.294a.825.825 0 0 1-.08-1.647l.08-.004h22.994Zm0 14.269a.826.826 0 0 1 .08 1.647l-.08.004H25.294a.826.826 0 0 1-.08-1.647l.08-.004h22.994Z"/>
  <path fill="#84AAA3" fill-rule="evenodd" d="M43.052 172.003h42.31c16.359 0 29.621-13.262 29.621-29.621 0-16.359-13.262-29.62-29.62-29.62h-12.69c-16.36 0-29.621 13.261-29.621 29.62v29.621Z" clip-rule="evenodd"/>
  <path fill="#8AF5D1" fill-rule="evenodd" d="M70.645 142.382a3.877 3.877 0 1 1-7.754 0 3.877 3.877 0 0 1 7.754 0Zm12.249 0a3.877 3.877 0 1 1-7.753 0 3.877 3.877 0 0 1 7.753 0Zm12.25 0a3.877 3.877 0 1 1-7.755 0 3.877 3.877 0 0 1 7.755 0Z" clip-rule="evenodd"/>
  <path fill="#84AAA3" fill-rule="evenodd" d="M325.296 68.894h36.725a8.292 8.292 0 0 1 0 16.585h-36.725a8.293 8.293 0 1 1 0-16.585Zm36.725 1.651h-36.725a6.642 6.642 0 1 0 0 13.283h36.725a6.641 6.641 0 1 0 0-13.282Zm-36.725 87.704h36.725a8.293 8.293 0 0 1 0 16.585h-36.725a8.292 8.292 0 1 1 0-16.585Zm36.725 1.651h-36.725a6.642 6.642 0 0 0 0 13.283h36.725a6.641 6.641 0 0 0 0-13.283Zm37.029-75.246h-11.916a7.467 7.467 0 1 1 0-14.934h11.916a7.467 7.467 0 1 1 0 14.934Z" clip-rule="evenodd"/>
  <path fill="#84AAA3" fill-rule="evenodd" d="M387.134 68.894h11.916a8.292 8.292 0 0 1 8.292 8.293 8.292 8.292 0 0 1-8.292 8.292h-11.916a8.293 8.293 0 1 1 0-16.585Zm11.916 1.651h-11.916a6.642 6.642 0 1 0 0 13.283h11.916a6.641 6.641 0 0 0 6.641-6.641 6.64 6.64 0 0 0-6.641-6.641Zm-21.452 73.678h-52.302a7.466 7.466 0 1 1 0-14.933h52.302a7.466 7.466 0 1 1 0 14.933Z" clip-rule="evenodd"/>
  <path fill="#84AAA3" fill-rule="evenodd" d="M325.296 128.464h52.302a8.292 8.292 0 0 1 8.292 8.293 8.292 8.292 0 0 1-8.292 8.292h-52.302a8.291 8.291 0 0 1-8.292-8.292 8.292 8.292 0 0 1 8.292-8.293Zm52.302 1.651h-52.302a6.641 6.641 0 0 0 0 13.283h52.302a6.641 6.641 0 0 0 0-13.283Zm-4.711-31.435h46.821a8.293 8.293 0 0 1 0 16.584h-46.821a8.293 8.293 0 1 1 0-16.585Zm46.821 1.65h-46.821a6.642 6.642 0 1 0 0 13.283h46.821a6.641 6.641 0 0 0 0-13.283Zm-73.609 14.109h-22.013a7.467 7.467 0 1 1 0-14.934h22.013a7.466 7.466 0 0 1 7.466 7.467 7.466 7.466 0 0 1-7.466 7.467Z" clip-rule="evenodd"/>
  <path fill="#84AAA3" fill-rule="evenodd" d="M324.086 98.68h22.013a8.293 8.293 0 0 1 0 16.584h-22.013a8.292 8.292 0 0 1-8.292-8.292 8.292 8.292 0 0 1 8.292-8.293Zm22.013 1.65h-22.013a6.641 6.641 0 0 0 0 13.283h22.013a6.641 6.641 0 0 0 0-13.283Z" clip-rule="evenodd"/>
  <path fill="#84AAA3" d="M225.893 17.315c.288-.82 1.466-.686 1.593.138l.009.08.919 13.374 2.999-6.694a.826.826 0 0 1 1.217-.346l.062.046 2.702 2.229h4.834l3.268-7.773c.31-.74 1.369-.64 1.559.108l.016.079 1.992 12.25 2.837-5.273a.826.826 0 0 1 1.046-.37l.072.034a.825.825 0 0 1 .37 1.046l-.034.072-3.988 7.415c-.362.671-1.347.53-1.527-.183l-.015-.075-1.921-11.812-2.366 5.627a.824.824 0 0 1-.684.502l-.076.004h-5.679a.829.829 0 0 1-.46-.14l-.065-.049-2.096-1.728-3.906 8.72c-.341.76-1.446.59-1.568-.202l-.009-.078-.872-12.677-1.969 5.602a.826.826 0 0 1-.699.548l-.08.004h-6.513a.825.825 0 0 1-.08-1.647l.08-.004h5.928l3.104-8.827Zm105.356-.27c.235-.829 1.404-.779 1.595.025l.015.08 1.643 11.129.494-1.56a.828.828 0 0 1 .711-.573l.076-.004h4.331a.825.825 0 0 1 .08 1.648l-.08.003h-3.726l-1.393 4.397c-.256.808-1.398.743-1.587-.047l-.016-.082-1.605-10.872-1.707 6.005a.823.823 0 0 1-.716.596l-.078.003h-2.064l-1.484 4.41c-.25.743-1.28.744-1.551.041l-.026-.078-2.411-8.493-.835 3.488a.826.826 0 0 1-.727.63l-.076.002h-3.668a.824.824 0 0 1-.765-.516l-.026-.074-1.807-6.08-1.562 10.934c-.104.734-1.036.958-1.47.39l-.044-.065-3.151-4.972a.826.826 0 0 1 1.348-.949l.046.065 1.953 3.082 1.779-12.454c.122-.85 1.281-.962 1.583-.195l.026.077 2.705 9.106h2.402l1.42-5.92c.191-.799 1.288-.848 1.57-.112l.026.079 2.545 8.964.824-2.448a.826.826 0 0 1 .707-.56l.076-.003h2.034l2.586-9.097Z"/>
  <path fill="#84AAA3" fill-rule="evenodd" d="M286.243 124.246c0 5.417-4.391 9.808-9.808 9.808s-9.809-4.391-9.809-9.808c0-5.416 4.392-9.808 9.809-9.808 5.417 0 9.808 4.392 9.808 9.808Z" clip-rule="evenodd"/>
  <path fill="#8AF5D1" fill-rule="evenodd" d="M282.229 122.153a3.7 3.7 0 1 1-7.402-.002 3.7 3.7 0 0 1 7.402.002Z" clip-rule="evenodd"/>
  <path fill="#84AAA3" fill-rule="evenodd" d="m351.447 222.295-16.328 16.328-16.328-16.328 16.328-16.328 16.328 16.328Z" clip-rule="evenodd"/>
  <path fill="#84AAA3" fill-rule="evenodd" d="m318.208 221.711 16.328-16.328a.824.824 0 0 1 1.167 0l16.328 16.328a.826.826 0 0 1 0 1.167l-16.328 16.328a.824.824 0 0 1-1.167 0l-16.328-16.328a.824.824 0 0 1 0-1.167Zm32.071.584-15.16-15.161-15.161 15.161 15.161 15.161 15.16-15.161Z" clip-rule="evenodd"/>
  <path fill="#8AF5D1" fill-rule="evenodd" d="m367.775 222.295-16.328 16.328-16.328-16.328 16.328-16.328 16.328 16.328Z" clip-rule="evenodd"/>
  <path fill="#84AAA3" fill-rule="evenodd" d="m334.536 221.711 16.327-16.328a.825.825 0 0 1 1.168 0l16.328 16.328a.826.826 0 0 1 0 1.167l-16.328 16.328a.825.825 0 0 1-1.168 0l-16.327-16.328a.824.824 0 0 1 0-1.167Zm32.071.584-15.16-15.161-15.161 15.161 15.161 15.161 15.16-15.161Z" clip-rule="evenodd"/>
  <path fill="#8AF5D1" fill-rule="evenodd" d="m384.103 222.295-16.328 16.328-16.328-16.328 16.328-16.328 16.328 16.328Z" clip-rule="evenodd"/>
  <path fill="#84AAA3" fill-rule="evenodd" d="m350.863 221.711 16.328-16.328a.825.825 0 0 1 1.168 0l16.328 16.328a.827.827 0 0 1 0 1.167l-16.328 16.328a.825.825 0 0 1-1.168 0l-16.328-16.328a.826.826 0 0 1 0-1.167Zm32.072.584-15.161-15.161-15.16 15.161 15.16 15.161 15.161-15.161Zm-93.032-75.894a6.104 6.104 0 1 1-12.208 0 6.104 6.104 0 0 1 12.208 0Z" clip-rule="evenodd"/>
  <path fill="#8AF5D1" fill-rule="evenodd" d="M287.893 145.243a1.65 1.65 0 1 1-3.301 0 1.65 1.65 0 0 1 3.301 0Z" clip-rule="evenodd"/>
  <path fill="#84AAA3" fill-rule="evenodd" d="M261.116 134.828a3.903 3.903 0 1 1-7.807 0 3.903 3.903 0 0 1 7.807 0Z" clip-rule="evenodd"/>
  <path fill="#8AF5D1" fill-rule="evenodd" d="M256.656 133.851a.977.977 0 1 1-1.954 0 .977.977 0 0 1 1.954 0Z" clip-rule="evenodd"/>
  <path fill="#84AAA3" fill-rule="evenodd" d="M29.546 176.639a.825.825 0 0 0-1.167.016c-13.612 13.99-20.76 33.826-18.036 51.985l.087.557c1.606 9.829 6.55 18.85 13.528 25.524l.168.158-.05.514c-1.489 16.429 5.03 34.116 17.497 48.542 17.43 20.168 45.386 29.69 73.462 26.059 21.83-2.823 42.527-13.995 57.523-30.805a.826.826 0 0 0-1.232-1.099c-14.736 16.518-35.072 27.495-56.502 30.266-27.548 3.563-54.95-5.77-72.002-25.501l-.497-.581C30.807 288.687 24.663 272.27 25.62 256.92l.044-.651.324.277c5.687 4.811 12.519 8.13 19.893 9.247 9.658 1.462 20.211-1.7 28.16-8.232 8.309-6.829 12.748-16.432 11.607-26.575-.77-6.853-4.865-11.9-11.197-14.612-5.659-2.425-12.714-2.755-18.932-.987-11.076 3.15-20.73 11.557-26.4 22.521l-.31.613c-2.247 4.509-3.7 9.277-4.414 14.183l-.017.116-.051-.051c-6.438-6.47-10.953-15.063-12.35-24.374-2.646-17.627 4.32-36.955 17.586-50.589a.826.826 0 0 0-.016-1.167Zm26.424 40.336c5.863-1.667 12.529-1.355 17.83.916 5.809 2.488 9.506 7.045 10.207 13.279 1.074 9.557-3.118 18.625-11.016 25.116-7.596 6.242-17.682 9.264-26.864 7.875l-.516-.082c-7.217-1.203-13.886-4.617-19.375-9.503l-.376-.339.073-.589c.678-5.204 2.206-10.25 4.652-14.981 5.47-10.575 14.766-18.672 25.385-21.692Z" clip-rule="evenodd"/>
  <path fill="#84AAA3" d="M356.318 280.059a22.216 22.216 0 0 1 19.746 12.031 22.094 22.094 0 0 1 2.467 10.181c0 1.923-.244 3.815-.723 5.643a.825.825 0 1 1-1.597-.418 20.6 20.6 0 0 0 .669-5.225 20.44 20.44 0 0 0-2.283-9.423 20.565 20.565 0 0 0-18.279-11.138c-11.244 0-20.381 9.023-20.563 20.221l-.002.469.003.108a.826.826 0 0 1-1.649.08l-.003-.082-.002-.118-.001-.117c0-12.267 9.948-22.212 22.217-22.212Z"/>
  <path fill="#84AAA3" d="M377.805 291.448c9.124 0 16.521 7.398 16.521 16.52 0 9.123-7.397 16.521-16.521 16.521a.825.825 0 1 1 0-1.651c8.212 0 14.87-6.659 14.87-14.87 0-8.21-6.658-14.869-14.87-14.869-.784 0-1.566.063-2.347.185a.825.825 0 1 1-.256-1.631 16.852 16.852 0 0 1 2.603-.205Zm-42.929 10.277a.825.825 0 0 1 .112 1.647c-5.095.344-9.074 4.585-9.074 9.718 0 5.385 4.36 9.748 9.743 9.748a.825.825 0 1 1 0 1.651c-6.294 0-11.394-5.102-11.394-11.399 0-6.003 4.653-10.963 10.613-11.365Zm11.532 16.167c.429 0 .781.327.821.745l.004.08v12.395a.826.826 0 0 1-1.647.079l-.004-.079v-12.395c0-.456.37-.825.826-.825Zm10.357 0c.429 0 .782.327.822.745l.003.08v20.205a.825.825 0 0 1-1.647.08l-.004-.08v-20.205c0-.456.37-.825.826-.825Zm10.358 0c.429 0 .781.327.821.745l.004.08v12.395a.825.825 0 0 1-1.647.079l-.004-.079v-12.395c0-.456.37-.825.826-.825ZM108.746 14.304c1.357 0 2.679.2 3.935.592a.826.826 0 0 1-.492 1.576 11.524 11.524 0 0 0-3.443-.517c-6.444 0-11.668 5.225-11.668 11.674 0 6.445 5.226 11.673 11.668 11.673a.825.825 0 1 1 0 1.651c-7.354 0-13.319-5.968-13.319-13.324 0-7.36 5.963-13.325 13.319-13.325Zm34.134 4.972a.826.826 0 0 1 1.04-.532 11.386 11.386 0 0 1 7.869 10.83c0 6.285-5.095 11.38-11.38 11.38a11.34 11.34 0 0 1-7.689-2.99.824.824 0 1 1 1.115-1.216 9.693 9.693 0 0 0 6.574 2.555c5.373 0 9.729-4.356 9.729-9.73a9.735 9.735 0 0 0-6.727-9.258.825.825 0 0 1-.531-1.04Z"/>
  <path fill="#84AAA3" d="M128.174 0c9.16 0 16.592 7.432 16.592 16.592 0 1.044-.098 2.082-.289 3.091a.826.826 0 0 1-1.622-.307c.172-.909.26-1.844.26-2.784 0-8.248-6.693-14.941-14.941-14.941-7.93 0-14.467 6.198-14.915 14.08a.824.824 0 1 1-1.648-.093C112.109 6.883 119.368 0 128.174 0Zm-17.276 39.3a.825.825 0 0 1 .08 1.648l-.08.004h-2.149a.826.826 0 0 1-.079-1.647l.079-.004h2.149Zm6.618-8.851c.43 0 .782.327.822.746l.004.08v20.724a.826.826 0 0 1-1.647.08l-.004-.08V31.274c0-.455.37-.825.825-.825Zm9.002-7.287c.429 0 .782.328.822.746l.004.08v20.724a.826.826 0 0 1-1.648.08l-.003-.08V23.988c0-.457.369-.826.825-.826ZM268.1 148.089a.825.825 0 0 1 .973-.534l.076.022 6.323 2.173a.827.827 0 0 1-.461 1.584l-.076-.022-6.323-2.174a.826.826 0 0 1-.512-1.049Zm-3.161 4.384a.826.826 0 0 1 .973-.535l.076.022 6.323 2.175a.826.826 0 0 1-.461 1.584l-.076-.023-6.323-2.174a.825.825 0 0 1-.512-1.049Z"/>
</svg>
