<svg xmlns="http://www.w3.org/2000/svg" width="428" height="386" fill="none" viewBox="0 0 428 386">
  <path fill="#8AF5D1" fill-opacity=".05" fill-rule="evenodd" d="M319.549 39.753c-45.326-31.246-105.058-2.757-133.415 63.63l-.021.049c-1.334 3.126-3.601 5.535-6.591 6.966-14.455 6.92-28.427 16.175-41.27 27.739-59.59 53.656-72.334 136.648-28.466 185.369 43.869 48.721 127.738 44.721 187.329-8.934 30.572-27.528 48.814-62.778 53.406-97.161a15.999 15.999 0 0 1 1.013-3.905c26.673-65.749 12.655-142.982-31.985-173.753Z" clip-rule="evenodd"/>
  <path fill="#84AAA3" fill-rule="evenodd" d="m189.613 9.458.071-.11c1.926-2.903 5.096-2.694 8.166-2.838 3.828-.18 7.651-.566 11.276-1.888 5.89-2.148 11.812-5.267 18.283-4.505 4.934.581 7.79 3.979 7.67 8.941-.006.24-.017.48-.035.72-.014.207 2.35 1.83 2.599 2.065 1.12 1.06 2.215 2.303 2.939 3.673 3.411 6.457.274 14.165-3.261 19.812-.175.278-2.064 3.005-2.03 3.04-1.402-1.373-2.096-1.78-4.123-5.203 1.589-1.247 2.201-3.4 2.005-4.666-.262-1.694-1.21-3.107-5.246-1.957-.693-.772-1.532-2.977-2.174-4.815a11.462 11.462 0 0 1-.611-2.93 48.596 48.596 0 0 1-11.476 4.273c-8.445 1.966-22.039 3.252-24.822-7.724-.499-1.972-.318-4.172.769-5.888Z" clip-rule="evenodd"/>
  <path fill="#84AAA3" d="M235.986 34.54a.883.883 0 0 1 .86.904 20.616 20.616 0 0 1-1.468 7.158c-1.573 3.949-3.963 6.753-6.716 8.858l-.112.084.001 12.247c0 .24-.098.468-.268.633l-.067.059-9.012 7.125a.882.882 0 0 1-1.048.034l-.071-.054-8.359-7.126a.884.884 0 0 1-.306-.585l-.004-.086V55.77a.882.882 0 0 1 1.76-.085l.004.085-.001 7.615 7.499 6.391 8.109-6.41V51.1a.88.88 0 0 1 .292-.655l.072-.059c2.705-1.962 5.067-4.617 6.589-8.437a18.825 18.825 0 0 0 1.342-6.549.882.882 0 0 1 .904-.86Z"/>
  <path fill="#84AAA3" d="M227.427 62.944a.88.88 0 0 1 1.061.528l.027.08 4.102 14.5c.208.732-.542 1.352-1.211 1.044l-.069-.035-12.677-7.132-12.525 7.13c-.674.384-1.466-.227-1.296-.96l.02-.073 4.597-14.5a.882.882 0 0 1 1.703.45l-.022.082-3.917 12.353 11.001-6.262a.882.882 0 0 1 .786-.043l.083.041 11.248 6.328-3.519-12.443a.88.88 0 0 1 .527-1.061l.081-.027Z"/>
  <path fill="#84AAA3" d="M209.905 60.868a.883.883 0 0 1 .786 1.58l-1.335.654a468.38 468.38 0 0 1-5.328 2.528l-16.924 7.898-.743.353-.367.516c-1.36 1.87-4.387 5.702-10.155 12.9l-10.85 13.532-1.613 2.03.366.45a212.81 212.81 0 0 0 5.04 5.94l.872.984a209.228 209.228 0 0 0 6.704 7.172l.28.284 6.976-8.742c.535-.669 1.614-.26 1.57.596l-4.35 84.37h52.614c.458 0 .835.35.878.798l.004.084c0 .459-.35.836-.797.878l-.085.004h-53.542a.883.883 0 0 1-.881-.927l4.256-82.558-5.885 7.373a.882.882 0 0 1-1.314.07 209.252 209.252 0 0 1-7.745-8.228 214.029 214.029 0 0 1-6.776-7.987.881.881 0 0 1-.006-1.1l4.389-5.51 11.463-14.296c4.562-5.715 6.815-8.608 7.63-9.82a.893.893 0 0 1 .351-.302l4.212-1.985 13.669-6.368c3.168-1.486 5.213-2.462 6.636-3.17Zm16.959-.811a.882.882 0 0 1 1.086-.476l.079.032 25.926 11.602c.157.07.289.185.382.328l.042.074 18.687 36.449a.882.882 0 0 1-.187 1.051l-.064.054-1.712 1.299-.07.059-14.637 11.122a.882.882 0 0 1-1.241-.175l-.048-.072-7.639-12.667 3.057 54.232a.882.882 0 0 1-1.76.084l-3.257-57.765c-.05-.89 1.088-1.269 1.59-.573l.045.068 8.967 14.869 13.789-10.477.068-.057 1.192-.905-18.207-35.515-25.643-11.476a.882.882 0 0 1-.476-1.086l.031-.079Z"/>
  <path fill="#84AAA3" d="M270.501 108.938c.372 0 .691.232.82.558l.01.03 8.145 19.554a7.697 7.697 0 0 1-.318 6.593l-.108.196-34.848 60.827a7.208 7.208 0 0 1-9.136 3.025l-.17-.077-.607-.283a3.007 3.007 0 0 1-1.498-3.892l.056-.123 3.79-7.97h-2.599a2.735 2.735 0 0 1-2.733-2.609l-.003-.126c0-1.08.635-2.054 1.614-2.495l.119-.05 8.521-3.357 7.266-16.1.017-.045 14.198-31.493-6.389-10.882a.882.882 0 0 1 .243-1.16l.071-.046a.881.881 0 0 1 1.161.242l.046.071 6.619 11.276a.882.882 0 0 1 .078.721l-.034.088-14.37 31.875-.015.04-7.431 16.465a.883.883 0 0 1-.402.423l-.078.035-8.854 3.488a.972.972 0 0 0 .271 1.872l.085.003h3.995c.622 0 1.04.623.826 1.191l-.03.07-4.39 9.231c-.282.594-.052 1.3.514 1.616l.083.043.607.283a5.443 5.443 0 0 0 6.945-2.087l.083-.14 34.848-60.827a5.93 5.93 0 0 0 .402-5.05l-.073-.183-8.161-19.594a.873.873 0 0 1-.064-.252l-.004-.093c0-.486.395-.882.882-.882ZM114.351 71.1a.883.883 0 0 1 .868-.484l.083.012 21.032 3.923a5.086 5.086 0 0 1 3.458 2.352l.089.15 18.293 32.3 5.095-5.094a.881.881 0 0 1 1.18-.06l.067.06a.881.881 0 0 1 .06 1.18l-.06.067-5.914 5.914a.88.88 0 0 1-1.344-.115l-.047-.074-18.864-33.308a3.33 3.33 0 0 0-2.173-1.606l-.154-.031-20.389-3.803-.948 1.896 18.636 7.99a.881.881 0 0 1 .426.386l.037.076 17.2 40.027c2.513 5.842 10.107 7.301 14.607 2.861l.135-.135 8.671-8.901a.882.882 0 0 1 1.323 1.163l-.06.067-8.671 8.901c-5.304 5.449-14.406 3.83-17.532-3.049l-.093-.211L132.3 83.85l-19.171-8.218a.881.881 0 0 1-.475-1.129l.034-.076 1.663-3.327Z"/>
  <path fill="#84AAA3" d="m247.321 188.587.085.004a.88.88 0 0 1 .803.872l-.004.085-15.143 168.773a.882.882 0 0 1-.794.799l-.085.004h-15.537a.88.88 0 0 1-.873-.764l-.007-.082-5.479-136.911-13.918 56.141-6.714 80.807a.882.882 0 0 1-.798.806l-.081.003h-16.095a.882.882 0 0 1-.878-.797l-.004-.084v-83.928l.008-.119 10.834-79.52a.882.882 0 0 1 1.755.153l-.007.085-10.827 79.459v82.987h14.402l6.654-80.068a.556.556 0 0 1 .008-.07l.015-.069 15.424-62.218c.238-.962 1.612-.851 1.73.089l.007.087 5.691 142.249h13.884l15.072-167.97a.882.882 0 0 1 .789-.798l.083-.005Z"/>
  <path fill="#84AAA3" d="M228.903 357.361c.459 0 .835.35.878.796l.004.086v10.092l6.238 8.932a.878.878 0 0 1 .154.415l.004.09v6.607a.881.881 0 0 1-.796.877l-.085.004h-23.221a.881.881 0 0 1-.877-.797l-.004-.084v-6.607c0-.185.058-.365.165-.514l.057-.072 7.531-8.48v-10.463c0-.459.35-.836.797-.878l.085-.004c.458 0 .835.35.878.796l.003.086v10.799a.88.88 0 0 1-.164.513l-.058.072-7.531 8.479v5.39h21.457v-5.447l-6.237-8.931a.869.869 0 0 1-.155-.415l-.005-.09v-10.37c0-.488.395-.882.882-.882Z"/>
  <path fill="#84AAA3" d="M235.298 376.892a.881.881 0 0 1 .086 1.76l-.086.003h-23.22a.882.882 0 0 1-.085-1.759l.085-.004h23.22Zm-50.594-19.531c.458 0 .835.35.877.796l.005.086-.001 10.092 6.238 8.932a.889.889 0 0 1 .154.415l.004.09v6.607a.881.881 0 0 1-.797.877l-.084.004h-23.221a.881.881 0 0 1-.877-.797l-.004-.084v-6.607a.88.88 0 0 1 .148-.49l.052-.07 6.965-8.486.001-10.483a.88.88 0 0 1 .796-.878l.085-.004c.459 0 .835.35.878.796l.004.086v10.799a.884.884 0 0 1-.148.489l-.052.07-6.966 8.486v5.409h21.456v-5.448l-6.236-8.93a.878.878 0 0 1-.154-.415l-.005-.09v-10.37c0-.488.395-.882.882-.882Z"/>
  <path fill="#84AAA3" d="M191.099 376.892a.882.882 0 0 1 .085 1.76l-.085.003h-23.221a.88.88 0 0 1-.085-1.759l.085-.004h23.221Zm9.055-355.789a.882.882 0 1 1 1.702.463c-2.398 8.827-2.503 17.503.207 24.458 1.377 3.53 3.7 6.454 6.604 8.1 3.053 1.73 7.214 1.636 11.529.105a.88.88 0 1 1 .589 1.662c-4.751 1.685-9.415 1.792-12.988-.233-3.282-1.86-5.861-5.105-7.377-8.994-2.865-7.35-2.755-16.398-.266-25.56Z"/>
  <path fill="#84AAA3" fill-rule="evenodd" d="M400.534 242.493H242.57l3.868-38.551h154.096v38.551ZM115.837 71.304a9.646 9.646 0 0 1-9.646 9.646 9.646 9.646 0 0 1-9.647-9.646c0-5.328 4.319-9.646 9.647-9.646a9.646 9.646 0 0 1 9.646 9.646Z" clip-rule="evenodd"/>
  <path fill="#84AAA3" d="M106.58 73.776c.458 0 .834.35.877.797l.004.085v79.104a.88.88 0 0 1-.797.877l-.084.005H65.092a.882.882 0 0 1-.877-.798l-.005-.084v-44.438a.882.882 0 0 1 1.76-.085l.004.085v43.555h39.723l.001-78.22c0-.46.35-.836.797-.879l.085-.004Z"/>
  <path fill="#8AF5D1" fill-rule="evenodd" d="m55.258 104.553 10.262-17.55 10.122 17.55H55.258Z" clip-rule="evenodd"/>
  <path fill="#84AAA3" d="M105.211 39.21a.88.88 0 0 1 .878.796l.004.085v13.078a.881.881 0 0 1-1.759.085l-.004-.085V40.091c0-.487.395-.882.881-.882Zm19.463 6.858a.881.881 0 0 1 1.308 1.18l-.061.067-10.62 10.62a.882.882 0 0 1-1.308-1.18l.061-.066 10.62-10.62Zm221.6-.258a.88.88 0 0 1 .877.797l.005.084v24.225c0 .459-.35.836-.797.878l-.085.004h-75.433a.882.882 0 0 1-.084-1.76l.084-.004h74.551v-22.46h-98.065a.883.883 0 0 1-.878-.797l-.004-.086c0-.458.35-.834.797-.877l.085-.004h98.947Z"/>
  <path fill="#84AAA3" d="M346.274 70.035c.458 0 .835.35.878.797l.004.085v92.052c0 .458-.35.835-.797.877l-.085.005h-72.6a.882.882 0 0 1-.086-1.76l.086-.004h71.718v-91.17c0-.459.35-.835.797-.878l.085-.004Zm-17.669-15.934a.88.88 0 0 1 1.179-.06l.067.06 7.512 7.512a.882.882 0 0 1-1.18 1.307l-.067-.06-7.511-7.512a.88.88 0 0 1 0-1.247Z"/>
  <path fill="#84AAA3" d="M336.116 54.101a.881.881 0 0 1 1.308 1.18l-.061.067-7.512 7.512a.88.88 0 0 1-1.307-1.18l.061-.067 7.511-7.512Z"/>
  <path fill="#8AF5D1" fill-rule="evenodd" d="M319.12 96.333a3.875 3.875 0 1 1-7.75 0 3.875 3.875 0 0 1 7.75 0Z" clip-rule="evenodd"/>
  <path fill="#84AAA3" fill-rule="evenodd" d="M299.575 96.333a3.875 3.875 0 1 1-7.75 0 3.875 3.875 0 0 1 7.75 0Z" clip-rule="evenodd"/>
  <path fill="#8AF5D1" fill-rule="evenodd" d="M280.031 96.333a3.875 3.875 0 1 1-7.75 0 3.875 3.875 0 0 1 7.75 0Z" clip-rule="evenodd"/>
  <path fill="#84AAA3" fill-rule="evenodd" d="M319.12 115.567a3.874 3.874 0 1 1-7.749.001 3.874 3.874 0 0 1 7.749-.001Zm-19.545 0a3.874 3.874 0 1 1-7.749.001 3.874 3.874 0 0 1 7.749-.001Zm-19.544 0a3.874 3.874 0 1 1-7.749.001 3.874 3.874 0 0 1 7.749-.001Zm39.089 19.235a3.874 3.874 0 1 1-7.749.001 3.874 3.874 0 0 1 7.749-.001Z" clip-rule="evenodd"/>
  <path fill="#8AF5D1" fill-rule="evenodd" d="M299.575 134.802a3.874 3.874 0 1 1-7.749.001 3.874 3.874 0 0 1 7.749-.001Z" clip-rule="evenodd"/>
  <path fill="#84AAA3" d="M408.066 93.447c2.404 0 4.394.688 6.18 2.01 1.278.947 2.141 1.871 3.857 3.98l.534.656c3.188 3.871 4.988 5.111 8.481 5.111a.882.882 0 0 1 0 1.764c-2.405 0-4.395-.688-6.181-2.01l-.25-.189c-1.147-.886-2.004-1.823-3.606-3.792l-.534-.655c-3.189-3.87-4.989-5.111-8.481-5.111-3.493 0-5.293 1.24-8.481 5.111l-.867 1.062c-1.501 1.826-2.331 2.69-3.524 3.574-1.786 1.322-3.776 2.01-6.181 2.01-2.405 0-4.395-.688-6.18-2.01l-.25-.189c-1.147-.886-2.004-1.823-3.606-3.792l-.174-.214c-3.417-4.218-5.219-5.552-8.84-5.552-3.557 0-5.358 1.287-8.659 5.329l-.688.844c-1.501 1.826-2.331 2.691-3.523 3.574-1.786 1.322-3.776 2.01-6.181 2.01-2.404 0-4.394-.688-6.18-2.01l-.25-.189c-1.146-.886-2.004-1.823-3.605-3.792l-.357-.437-.354-.431c-3.079-3.703-4.876-4.898-8.303-4.898a.882.882 0 1 1 0-1.764c2.404 0 4.394.688 6.18 2.01l.25.19c1.105.853 1.942 1.755 3.436 3.583l.343.422c3.417 4.218 5.219 5.552 8.84 5.552 3.492 0 5.292-1.24 8.48-5.11l1.041-1.275c1.392-1.682 2.204-2.513 3.349-3.362 1.786-1.322 3.776-2.01 6.181-2.01 2.405 0 4.395.688 6.18 2.01 1.278.947 2.14 1.871 3.856 3.98l.534.656c3.188 3.871 4.988 5.111 8.48 5.111 3.493 0 5.293-1.24 8.481-5.111l1.025-1.254c1.402-1.696 2.215-2.53 3.366-3.382 1.785-1.322 3.776-2.01 6.181-2.01Zm0 20.651c2.404 0 4.394.688 6.18 2.011l.251.189c1.023.791 1.817 1.622 3.115 3.192l1.025 1.254c3.188 3.871 4.988 5.111 8.481 5.111a.882.882 0 0 1 0 1.764c-2.405 0-4.395-.688-6.181-2.01l-.25-.189c-1.147-.886-2.004-1.823-3.606-3.791l-.174-.215c-3.418-4.218-5.22-5.552-8.841-5.552-3.558 0-5.359 1.287-8.66 5.329l-.688.844c-1.501 1.826-2.331 2.69-3.524 3.574-1.786 1.322-3.776 2.01-6.181 2.01-2.405 0-4.395-.688-6.18-2.01l-.25-.189c-1.147-.886-2.004-1.823-3.606-3.791l-.174-.215c-3.417-4.218-5.219-5.552-8.84-5.552-3.557 0-5.358 1.287-8.659 5.329l-.688.844c-1.501 1.826-2.331 2.69-3.523 3.574-1.786 1.322-3.776 2.01-6.181 2.01-2.404 0-4.394-.688-6.18-2.01l-.25-.189c-1.146-.886-2.004-1.823-3.605-3.791l-.357-.439-.354-.43c-3.079-3.703-4.876-4.898-8.303-4.898a.882.882 0 0 1 0-1.764c2.404 0 4.394.688 6.18 2.011l.25.189c1.105.853 1.942 1.755 3.436 3.583l.343.423c3.417 4.217 5.219 5.551 8.84 5.551 3.492 0 5.292-1.24 8.48-5.11l1.041-1.274c1.392-1.683 2.204-2.514 3.349-3.362 1.786-1.323 3.776-2.011 6.181-2.011 2.405 0 4.395.688 6.18 2.011l.251.189c1.146.885 2.004 1.822 3.605 3.79l.534.656c3.188 3.871 4.988 5.111 8.48 5.111 3.493 0 5.293-1.24 8.481-5.111l1.025-1.254c1.402-1.696 2.215-2.53 3.366-3.381 1.785-1.323 3.776-2.011 6.181-2.011Zm16.172 269.399a.882.882 0 0 1 .084 1.76l-.084.004H22.044a.882.882 0 0 1-.085-1.76l.085-.004h402.194Z"/>
  <path fill="#84AAA3" fill-rule="evenodd" d="M167.878 384.378h23.221v-6.604h-23.221v6.604Zm44.201 0H235.3v-6.604h-23.221v6.604Zm-1.613-328.56a16.468 16.468 0 0 0 10.257-.92 12.356 12.356 0 0 1-4.382 5.13 12.353 12.353 0 0 1-6.043 2.023l.168-6.233Z" clip-rule="evenodd"/>
  <path fill="#84AAA3" fill-rule="evenodd" d="M215.826 55.279a15.46 15.46 0 0 0 4.548-1.191c.741-.32 1.487.442 1.151 1.176-.933 2.038-2.381 3.963-4.696 5.499a12.906 12.906 0 0 1-6.476 2.168.881.881 0 0 1-.936-.904l.168-6.233a.88.88 0 0 1 1.08-.835c1.593.37 3.304.515 5.161.32Zm2.892 1.307.05-.07-.267.07c-.791.204-1.62.355-2.49.447a17.19 17.19 0 0 1-4.471-.109l-.221-.037-.113 4.186a11.092 11.092 0 0 0 4.403-1.621l.245-.159a11.18 11.18 0 0 0 2.864-2.707Z" clip-rule="evenodd"/>
  <path fill="#8AF5D1" fill-rule="evenodd" d="M366.847 304.878c0 5.328-4.319 9.647-9.646 9.647-5.328 0-9.646-4.319-9.646-9.647a9.645 9.645 0 0 1 9.646-9.646 9.646 9.646 0 0 1 9.646 9.646Z" clip-rule="evenodd"/>
  <path fill="#84AAA3" fill-rule="evenodd" d="M360.69 370.299h18.892v-18.893H360.69v18.893Zm-67.35-101.085h73.507V256.35H293.34v12.864Zm12.162 44.315 10.262-17.55 10.121 17.55h-20.383Z" clip-rule="evenodd"/>
  <path fill="#84AAA3" d="M378.756 247.526c.459 0 .836.35.879.798l.003.084v79.104a.88.88 0 0 1-.796.877l-.086.005h-41.487a.883.883 0 0 1-.878-.797l-.004-.085v-43.556h-41.578v76.015h75.326c.459 0 .836.35.879.798l.003.084c0 .459-.35.836-.796.878l-.086.004h-76.208a.883.883 0 0 1-.878-.797l-.004-.085v-77.779c0-.459.35-.835.797-.878l.085-.004h43.342c.458 0 .835.35.878.797l.004.085v43.556h39.723v-78.222c0-.458.35-.835.798-.878l.084-.004Z"/>
  <path fill="#84AAA3" fill-rule="evenodd" d="M151.243 342.062v42.895H0c1.303-1.44 12.91-17.92 27.877-17.92 15.122 0 23.002 9.433 35.664-.508 4.379-3.437 11.107-8.24 16.534-8.24 5.237 0 10.153 2.344 15.151 3.895 5.28 1.639 10.25 1.603 15.5-.326 4.223-1.552 8.185-3.953 12.133-6.322 9.041-5.426 18.379-11.137 28.384-13.474Z" clip-rule="evenodd"/>
  <path fill="#84AAA3" d="M115.96 312.322c13.66 0 24.732 11.075 24.732 24.737 0 13.662-11.072 24.737-24.732 24.737a24.682 24.682 0 0 1-19.677-9.747.882.882 0 0 1 1.402-1.069 22.918 22.918 0 0 0 18.275 9.053c12.686 0 22.968-10.286 22.968-22.974s-10.282-22.973-22.968-22.973c-11.522 0-21.215 8.527-22.758 19.83a.882.882 0 0 1-1.748-.239c1.662-12.174 12.1-21.355 24.506-21.355Zm-94.327 33.03a.883.883 0 0 1 .904-.656l.084.009 11.315 1.753 15.379 2.374a.882.882 0 0 1-.185 1.752l-.085-.009-15.378-2.374-10.531-1.632-7.217 27.362-1.722 6.52a.882.882 0 0 1-1.723-.367l.018-.083 1.722-6.52 7.419-28.129Z"/>
  <path fill="#84AAA3" d="M52.885 286.768a.884.884 0 0 1 .961-.083l.075.045 34.043 22.873a.884.884 0 0 1 .376.889l-.02.085-6.678 23.461a.883.883 0 0 1-1.716-.4l.02-.083 6.503-22.845-32.98-22.159-31.264 24.522 12.245 33.464 14.864 2.296c.453.07.772.472.746.921l-.009.084a.882.882 0 0 1-.921.746l-.085-.009-15.378-2.374a.88.88 0 0 1-.66-.488l-.034-.081-12.644-34.554a.883.883 0 0 1 .218-.94l.066-.057 32.272-25.313Z"/>
  <path fill="#84AAA3" fill-rule="evenodd" d="M49.18 332.913h47.804c.486 0 .881.395.881.882v41.511a.882.882 0 0 1-.881.881H49.18a.882.882 0 0 1-.882-.881v-41.511c0-.487.395-.882.882-.882Zm46.921 41.51v-39.747h-46.04v39.747h46.04Z" clip-rule="evenodd"/>
</svg>
