<svg xmlns="http://www.w3.org/2000/svg" width="428" height="399" fill="none" viewBox="0 0 428 399">
  <path fill="#8AF5D1" fill-opacity=".05" fill-rule="evenodd" d="M315.698 13.782c-49.266-33.962-114.191-2.997-145.012 69.16l-.023.054c-1.45 3.398-3.915 6.016-7.165 7.572-15.711 7.521-30.898 17.581-44.856 30.15-64.77 58.319-78.622 148.525-30.94 201.481 47.681 52.956 138.841 48.609 203.611-9.71 33.23-29.921 53.058-68.235 58.049-105.606.2-1.504.566-2.929 1.1-4.245 28.992-71.464 13.756-155.41-34.764-188.856Z" clip-rule="evenodd"/>
  <path fill="#84AAA3" d="M161.788 263.751c.674 0 1.226.522 1.274 1.183l.004.095v8.752a1.278 1.278 0 0 1-2.553.095l-.003-.095v-8.752c0-.705.572-1.278 1.278-1.278Z"/>
  <path fill="#84AAA3" fill-rule="evenodd" d="M107.568 296.909h169.494v-24.008H107.568v24.008Zm147.15-148.493h101.633v-24.008H254.718v24.008Z" clip-rule="evenodd"/>
  <path fill="#84AAA3" d="M320.141 94.231a.96.96 0 0 1 .952.847c.487 4.16.381 8.487-.559 13-1.789 8.601-5.909 15.257-11.132 20.603a.958.958 0 1 1-1.371-1.339c4.989-5.108 8.922-11.461 10.627-19.655a38.23 38.23 0 0 0 .631-11.431l-.011-.108h-47.142l-.011.107a38.24 38.24 0 0 0 .527 10.917l.104.515c1.705 8.194 5.638 14.547 10.628 19.655a.958.958 0 1 1-1.372 1.339c-5.223-5.346-9.342-12.002-11.133-20.603a40.233 40.233 0 0 1-.557-13 .958.958 0 0 1 .862-.843l.09-.004h48.867Z"/>
  <path fill="#84AAA3" d="M266.058 62.003c1.388-1.773 3.401-1.507 5.329-.067 6.709 5.011 11.801 13.687 15.703 24.776a91.13 91.13 0 0 1 2.453 8.25.959.959 0 1 1-1.861.46 88.943 88.943 0 0 0-2.401-8.075c-3.786-10.76-8.706-19.143-15.041-23.875-1.203-.899-2.101-1.017-2.672-.288-.301.386-.489.911-.648 1.737-.583 3.046-.283 6.403.773 9.965 1.177 3.972 2.985 7.902 5.815 13.022 1.25 2.26 2.555 4.472 4.02 6.769a.958.958 0 1 1-1.616 1.031 125.871 125.871 0 0 1-4.082-6.873l-.53-.967c-2.591-4.77-4.297-8.564-5.445-12.438-1.137-3.835-1.464-7.493-.818-10.87.212-1.1.49-1.877 1.021-2.557Z"/>
  <path fill="#84AAA3" d="M289.465 54.695c1.548-2.125 3.344-3.127 5.303-2.34 2.142.86 3.255 3.036 3.78 6.232.111.676.193 1.383.261 2.177l.03.373.102 1.492c.648 9.556.382 19.128-.648 32.636a.958.958 0 0 1-1.912-.146l.155-2.087c.878-12.107 1.091-20.991.525-29.777l-.091-1.377a52.744 52.744 0 0 0-.071-.952 26.37 26.37 0 0 0-.242-2.028c-.427-2.598-1.26-4.224-2.603-4.764-1.759-.707-3.89 2.217-5.246 6.067-1.549 4.396-2.189 9.286-2.185 15.264l.006.999c.027 2.323.126 4.468.355 8.072l.158 2.43a.959.959 0 0 1-1.913.124l-.222-3.455c-.199-3.256-.282-5.293-.298-7.61-.046-6.431.612-11.692 2.29-16.46.59-1.673 1.455-3.484 2.466-4.87Zm27.885 23.91c1.66-.2 2.996.423 3.58 2.001.294.79.314 1.614.161 2.68-.251 1.693-.772 3.378-1.607 5.415a45.038 45.038 0 0 1-3.61 7.005.959.959 0 1 1-1.618-1.028 43.007 43.007 0 0 0 3.455-6.706c.781-1.904 1.26-3.451 1.484-4.962.11-.771.097-1.309-.062-1.736-.242-.655-.701-.869-1.553-.766-.796.097-1.776.486-2.704 1.014a22.663 22.663 0 0 0-4.994 3.86.96.96 0 0 1-1.373-1.338 24.592 24.592 0 0 1 5.417-4.187c1.132-.644 2.329-1.119 3.424-1.252Z"/>
  <path fill="#84AAA3" d="M307.505 62.662c1.469-1.09 2.947-1.347 4.203-.306 1.086.899 1.381 2.134 1.515 4.383.328 5.498-.731 11.007-3.12 18.279-.32.955-.641 1.896-.963 2.822l-1.745 4.938-.057.149a.958.958 0 1 1-1.799-.66l.08-.213 1.392-3.93c.426-1.211.851-2.45 1.273-3.71 2.318-7.057 3.336-12.353 3.026-17.561-.101-1.684-.32-2.603-.824-3.02-.429-.355-.996-.256-1.839.368-.715.531-1.342 1.212-2.211 2.294-1.171 1.454-2.169 3.105-3.315 5.38l-.182.364c-1.345 2.702-2.603 5.597-3.926 8.976a.959.959 0 0 1-1.785-.7c1.343-3.427 2.622-6.372 3.995-9.129 1.279-2.578 2.383-4.434 3.72-6.092.968-1.206 1.675-1.973 2.562-2.632Zm-31.162 40.512a.955.955 0 0 1 .815-.046l.096.046 4.275 2.309 4.273-2.309a.955.955 0 0 1 .815-.046l.096.046 4.273 2.308 4.273-2.308a.955.955 0 0 1 .815-.046l.097.046 4.27 2.308 4.271-2.308a.956.956 0 0 1 .815-.046l.097.046 4.269 2.308 4.27-2.308a.955.955 0 0 1 .815-.046l.097.046 4.727 2.555a.959.959 0 0 1-.829 1.727l-.083-.04-4.271-2.31-4.269 2.31a.959.959 0 0 1-.815.045l-.097-.045-4.271-2.31-4.27 2.31a.959.959 0 0 1-.815.045l-.097-.045-4.271-2.31-4.271 2.31a.957.957 0 0 1-.814.045l-.097-.045-4.274-2.311-4.272 2.311a.96.96 0 0 1-.815.045l-.097-.045-4.275-2.31-4.276 2.31a.958.958 0 0 1-1.251-.309l-.047-.079a.958.958 0 0 1 .308-1.251l.079-.048 4.731-2.555Zm1.933 8.795a.96.96 0 0 1 .905-.046l.085.046 3.744 2.256 3.742-2.256a.962.962 0 0 1 .906-.046l.085.046 3.737 2.256 3.742-2.256a.96.96 0 0 1 .905-.046l.085.046 3.738 2.256 3.741-2.256a.96.96 0 0 1 .905-.046l.085.046 3.739 2.256 3.738-2.256a.962.962 0 0 1 .906-.046l.085.046 4.23 2.556a.958.958 0 0 1-.91 1.684l-.081-.044-3.735-2.256-3.737 2.257a.959.959 0 0 1-.906.045l-.085-.045-3.74-2.257-3.739 2.257a.959.959 0 0 1-.906.045l-.084-.045-3.74-2.257-3.74 2.257a.959.959 0 0 1-.906.045l-.084-.045-3.739-2.257-3.741 2.257a.959.959 0 0 1-.906.045l-.085-.045-3.745-2.258-3.744 2.258a.958.958 0 0 1-1.264-.249l-.052-.077a.958.958 0 0 1 .249-1.264l.077-.052 4.24-2.555Z"/>
  <path fill="#84AAA3" fill-rule="evenodd" d="M84.461 96.291c0 9.175-7.438 16.613-16.612 16.613-9.175 0-16.613-7.438-16.613-16.612 0-9.175 7.438-16.613 16.613-16.613 9.174 0 16.612 7.438 16.612 16.612Z" clip-rule="evenodd"/>
  <path fill="#8AF5D1" fill-rule="evenodd" d="M37.226 71.272a8.388 8.388 0 1 1-16.776 0 8.388 8.388 0 0 1 16.776 0Z" clip-rule="evenodd"/>
  <path fill="#84AAA3" fill-rule="evenodd" d="M116.425 62.798a8.389 8.389 0 1 1-16.777 0 8.389 8.389 0 0 1 16.777 0Z" clip-rule="evenodd"/>
  <path fill="#8AF5D1" fill-rule="evenodd" d="M51.218 145.276a8.389 8.389 0 1 1-16.778 0 8.389 8.389 0 0 1 16.778 0Z" clip-rule="evenodd"/>
  <path fill="#84AAA3" fill-rule="evenodd" d="M112.929 121.504a8.388 8.388 0 1 1-16.776 0 8.388 8.388 0 0 1 16.776 0Z" clip-rule="evenodd"/>
  <path fill="#84AAA3" d="M107.219 61.817a1.277 1.277 0 0 1 1.714 1.892l-.078.07-38.893 32.414 35.302 24.258c.553.379.713 1.116.386 1.688l-.056.089a1.278 1.278 0 0 1-1.688.385l-.089-.056-36.692-25.213a1.278 1.278 0 0 1-.172-1.965l.078-.07 40.188-33.492Z"/>
  <path fill="#8AF5D1" d="M27.762 70.582a1.278 1.278 0 0 1 1.675-.438l.09.053 39.01 25.02c.525.335.727.996.492 1.563l-.043.093-25.019 48.985a1.277 1.277 0 0 1-1.719.556c-.599-.305-.853-1.018-.599-1.629l.042-.09 24.492-47.953-38.035-24.394a1.279 1.279 0 0 1-.44-1.675l.054-.09Z"/>
  <path fill="#84AAA3" fill-rule="evenodd" d="M292.576 225.809c9.309-16.131 26.521-26.279 45.505-26.279 18.989 0 36.192 10.143 45.515 26.279a.96.96 0 0 1 0 .959c-9.322 16.124-26.535 26.267-45.515 26.267-18.978 0-36.181-10.141-45.505-26.267a.956.956 0 0 1 0-.959Zm88.812.033c-9.006-14.857-25.044-24.203-42.759-24.392l-.548-.003c-17.927 0-34.211 9.39-43.298 24.394l-.267.446.268.447c9.007 14.848 25.045 24.192 42.748 24.382l.549.002c17.923 0 34.209-9.385 43.307-24.384l.267-.447-.267-.445Z" clip-rule="evenodd"/>
  <path fill="#8AF5D1" stroke="#84AAA3" stroke-width="2" d="M338.086 242.855c9.152 0 16.571-7.42 16.571-16.572s-7.419-16.571-16.571-16.571c-9.152 0-16.571 7.419-16.571 16.571 0 9.152 7.419 16.572 16.571 16.572Zm10.85-19.946a3.223 3.223 0 1 1-6.446 0 3.223 3.223 0 0 1 6.446 0Z"/>
  <path fill="#8AF5D1" d="M414.905 225.324a.96.96 0 0 1 .092 1.913l-.092.004h-11.183a.957.957 0 0 1-.093-1.912l.093-.005h11.183Z"/>
  <path fill="#84AAA3" d="M399.183 200.009a.958.958 0 0 1 1.703.877l-.043.082-5.592 9.685a.958.958 0 0 1-1.702-.876l.042-.083 5.592-9.685Zm-5.241 41.554a.959.959 0 0 1 1.26.273l.05.077 5.591 9.685a.958.958 0 0 1-1.61 1.036l-.05-.077-5.591-9.685a.958.958 0 0 1 .35-1.309ZM324.333 11.457c8.174 0 14.816 6.56 14.949 14.703l.002.247v83.428a.959.959 0 0 1-1.913.092l-.004-.092V26.407c0-7.124-5.716-12.913-12.813-13.031l-.221-.002H159.668c-7.124 0-12.913 5.715-13.031 12.81l-.002.223v52.929a.96.96 0 0 1-1.913.092l-.004-.092V26.407c0-8.174 6.56-14.816 14.703-14.948l.247-.002h164.665Z"/>
  <path fill="#84AAA3" d="M254.39 30.625a.958.958 0 0 1 .092 1.913l-.092.004h-24.778a.959.959 0 0 1-.093-1.912l.093-.005h24.778Zm83.935 236.546c.498 0 .908.38.954.866l.004.092v114.977c0 8.175-6.56 14.817-14.703 14.949l-.247.002H159.668c-8.174 0-14.817-6.561-14.948-14.703l-.003-.248v-63.145a.959.959 0 0 1 1.913-.092l.004.092v63.145c0 7.124 5.716 12.913 12.812 13.032l.222.002h164.665c7.124 0 12.913-5.716 13.032-12.812l.001-.222V268.129c0-.529.43-.958.959-.958Z"/>
  <path fill="#84AAA3" d="M254.39 376.974a.958.958 0 0 1 .092 1.912l-.092.004h-24.778a.958.958 0 0 1-.093-1.912l.093-.004h24.778Zm83.696-216.749c.498 0 .908.38.954.866l.005.093v26.715a.96.96 0 0 1-1.913.092l-.004-.092v-26.715c0-.53.429-.959.958-.959Z"/>
  <path fill="#84AAA3" fill-rule="evenodd" d="M387.442 349.944c6.807 6.151 7.341 16.655 1.19 23.464-6.15 6.808-16.654 7.342-23.463 1.191-6.808-6.15-7.342-16.655-1.191-23.464 6.15-6.808 16.656-7.341 23.464-1.191Zm-1.529-38.605a8.387 8.387 0 0 1 .601 11.847 8.388 8.388 0 1 1-12.448-11.247 8.388 8.388 0 0 1 11.847-.6Zm39.321 34.382a8.388 8.388 0 1 1-11.245 12.448 8.388 8.388 0 0 1 11.245-12.448Z" clip-rule="evenodd"/>
  <path fill="#84AAA3" d="m380.308 316.285.096.005c.67.059 1.174.628 1.164 1.291l-.005.095-3.826 42.941 41.578-9.914a1.279 1.279 0 0 1 1.514.855l.025.092a1.277 1.277 0 0 1-.854 1.513l-.092.026-43.306 10.325a1.278 1.278 0 0 1-1.574-1.263l.005-.093 3.984-44.709a1.278 1.278 0 0 1 1.291-1.164Z"/>
  <path fill="#84AAA3" fill-rule="evenodd" d="M141.498 141.473c-5.486 5.11-4.97 14.263.482 19.207 7.901 7.164 22.649 1.897 24.575-8.557.061-.337.108-.678.14-1.02.514-5.69-3.177-10.998-2.35-16.66.262-1.801 1.412-3.328 2.492-4.793 2.416-3.274 5.784-7.875 4.997-12.195-.426-2.351-2.1-4.268-3.854-5.889-2.295-2.12-7.957-6.472-4.443-10.023.533-.538 1.279-.927 2.014-1.096.608-.14 1.276-.099 1.811.22 1.758 1.048 2.209 3.152 4.626 3.222a3.98 3.98 0 0 0 3.226-1.539c1.146-1.504 1.058-3.615.587-5.446-.261-1.016-.625-2.072-.369-3.089.402-1.587 2.211-2.454 3.848-2.43 1.637.026 3.18.706 4.745 1.187 4.353 1.339 9.305 1.092 13.199-1.27 2.059-1.249 3.869-3.271 3.983-5.676.096-2.05-1.055-3.964-2.454-5.465-3.608-3.872-8.926-5.76-14.184-6.367-5.174-.599-10.515-.07-15.359 1.844-4.844 1.914-9.169 5.249-11.983 9.632-2.371 3.693-3.581 8.031-3.815 12.395-.238 4.45.826 8.639 1.589 12.971.62 3.522-.774 7.497-3.275 9.998-1.901 1.9-4.179 3.384-6.131 5.233-2.046 1.939-3.71 4.439-3.865 7.33-.108 2.033.82 3.128 1.488 4.888.541 1.426-.69 2.445-1.629 3.304a7.537 7.537 0 0 0-.091.084Z" clip-rule="evenodd"/>
  <path fill="#84AAA3" d="M197.641 89.954a.958.958 0 0 1 1.143.728c1.117 5.028 1.426 9.69 1.183 14.068-.424 8.024-1.755 13.798-5.925 19.864-1.302 1.893-2.599 3.325-3.868 4.371-.875.722-1.563 1.138-2.286 1.477-2.585 1.19-5.387 1.401-8.261.877a19.044 19.044 0 0 1-4.937-1.618.959.959 0 0 1 .829-1.729 17.196 17.196 0 0 0 4.451 1.462c2.514.457 4.925.276 7.111-.731.58-.271 1.134-.607 1.873-1.217 1.129-.93 2.306-2.23 3.509-3.977 3.921-5.706 5.183-11.179 5.59-18.883.233-4.214-.064-8.702-1.14-13.548a.959.959 0 0 1 .728-1.144Z"/>
  <path fill="#84AAA3" d="M181.772 129.686a.96.96 0 0 1 1.095.801c.662 4.274.086 8.532-2.345 12.306a15.89 15.89 0 0 1-2.296 2.842 15.834 15.834 0 0 1-5.286 3.477 15.914 15.914 0 0 1-6.235 1.124.959.959 0 1 1 .039-1.917c1.82.037 3.668-.265 5.487-.988a13.94 13.94 0 0 0 4.647-3.058 14.075 14.075 0 0 0 2.032-2.518c2.145-3.33 2.659-7.125 2.062-10.975a.958.958 0 0 1 .8-1.094Zm-39.664 5.841a.958.958 0 1 1 .736 1.77 140.082 140.082 0 0 0-7.997 3.62 130.257 130.257 0 0 0-6.467 3.404c-2.259 1.269-3.589 3.288-3.979 5.735a67.75 67.75 0 0 0-.755 7.674l-.039.991c-.165 4.679.006 8.352.73 16.906l.604 6.947a237.702 237.702 0 0 0 5.275 33.515.959.959 0 0 1-1.867.432 239.463 239.463 0 0 1-5.209-32.541l-.715-8.218c-.78-9.22-.924-12.83-.693-18.115a69.81 69.81 0 0 1 .776-7.891c.479-3.009 2.147-5.54 4.933-7.106a132.284 132.284 0 0 1 6.56-3.454 143.168 143.168 0 0 1 8.107-3.669Z"/>
  <path fill="#84AAA3" d="M181.097 130.908a.959.959 0 0 1 1.219-.593l1.057.361c.426.143.869.289 1.372.453l4.034 1.311c1.308.433 2.255.762 3.554 1.231l1.211.441c4.976 1.826 6.52 2.594 8.855 4.38 4.215 3.231 6.201 6.921 8.274 13.286 2.584 7.901 5.164 16.392 7.666 25.085l.951 3.327a864.481 864.481 0 0 1 3.061 11.041l.705 2.63.938 1.212a291.638 291.638 0 0 0 5.418 6.743l1.115 1.337a298.263 298.263 0 0 0 8.814 10.056.958.958 0 1 1-1.413 1.294 297.834 297.834 0 0 1-8.87-10.119 289.21 289.21 0 0 1-7.638-9.504.962.962 0 0 1-.166-.338l-.494-1.849a891.899 891.899 0 0 0-3.847-13.852c-2.488-8.694-5.057-17.207-7.633-25.15l-.429-1.319c-1.962-6.024-3.794-9.427-7.618-12.358l-.365-.276c-1.958-1.452-3.472-2.172-8.013-3.837l-1.944-.704a140.008 140.008 0 0 0-4.099-1.384l-2.914-.944c-.815-.267-1.481-.49-2.208-.742a.958.958 0 0 1-.593-1.219Zm-61.331 83.929c2.83-.627 5.915-.439 9.37.439 2.489.633 4.934 1.533 8.219 2.955l1.784.786 2.731 1.221c.598.264 1.099.483 1.575.685l.178.075c14.023 5.918 27.617 11.037 41.017 15.398a.958.958 0 1 1-.593 1.823c-12.973-4.222-26.124-9.151-39.664-14.822l-1.87-.787c-.308-.132-.628-.271-.979-.425l-3.782-1.687-1.145-.502c-3.205-1.388-5.57-2.258-7.943-2.862-3.187-.81-5.98-.98-8.482-.425-3.699.821-6.552 3.414-7.405 6.873-1.507 6.099 1.752 12.285 8.566 19.284 3.274 3.363 7.315 6.706 12.72 10.673l1.131.825c.643.467 1.312.947 2.034 1.462l4.829 3.417a.957.957 0 0 1-1.028 1.615l-.07-.044c-.16-.113-2.908-2.052-3.713-2.622l-1.132-.806a317.602 317.602 0 0 1-2.368-1.705l-.318-.232c-5.734-4.185-9.996-7.69-13.459-11.246-7.238-7.435-10.769-14.137-9.053-21.081 1.035-4.193 4.465-7.311 8.85-8.285Z"/>
  <path fill="#84AAA3" fill-rule="evenodd" d="M124.142 275.559c-4.159-3.117-5.123-9.822-1.333-13.634 2.08-2.094 5.611-2.616 8.433-2.752 3.494-.169 7.154.929 10.648.719 3.567-.214 6.826-1.825 10.385-2.083 1.832-.132 3.746-.007 5.371.848 1.319.695 2.36 1.824 3.233 3.033.512.709 1.711 2.492.908 3.339-.318.336-.856.97-1.313.895a189.695 189.695 0 0 1-6.727-1.249c-2.198-.444-4.418-.784-6.668-.932-2.95-.194-6.795-.08-8.475 2.776-1.838 3.125.095 6.658 2.939 8.335" clip-rule="evenodd"/>
  <path fill="#84AAA3" d="M145.632 178.419a.96.96 0 0 1 1.001.915l1.05 23.093 38.743 19.903c.358.184.56.57.513.964l-.014.091-1.644 7.595a.96.96 0 0 1-.996.754l-.088-.01-31.208-4.828a.958.958 0 0 1 .201-1.905l.092.01 30.316 4.691 1.297-5.994-38.582-19.819a.958.958 0 0 1-.519-.809l-1.075-23.649a.959.959 0 0 1 .913-1.002Z"/>
  <path fill="#84AAA3" d="M185.045 223.011a.957.957 0 0 1 1.022-.784l.091.012 11.144 2.021a.982.982 0 0 1 .298.106l.088.057 9.942 7.101a.958.958 0 0 1-1.036 1.61l-.077-.05-9.769-6.977-10.931-1.982a.958.958 0 0 1-.785-1.022l.013-.092Zm-1.638 7.563a.958.958 0 0 1 1.048-.749l.091.015 11.339 2.452c.181.04.347.13.476.26l.062.068 5.686 6.912a.959.959 0 0 1-1.415 1.29l-.066-.073-5.474-6.654-11.013-2.381a.96.96 0 0 1-.75-1.049l.016-.091Z"/>
  <path fill="#84AAA3" d="M273.284 204.151c.802-.212 1.462.621 1.108 1.343l-.041.074-13.605 22.826a.958.958 0 0 1-1.69-.899l.044-.082 12.404-20.812-50.915 13.414-19.893 31.027a.959.959 0 0 1-.951.43l-.092-.018-31.184-7.932c-.899-.229-.969-1.458-.147-1.807l.088-.034 27.111-8.796a.958.958 0 0 1 .677 1.791l-.086.033-23.957 7.772 27.3 6.944 19.722-30.759a.953.953 0 0 1 .465-.378l.097-.031 53.545-14.106Z"/>
  <path fill="#84AAA3" d="M251.401 237.39a.959.959 0 0 1 .543 1.837l-.089.026-50.881 12.396-38.644 13.203a.96.96 0 0 1-1.183-.511l-.034-.086a.958.958 0 0 1 .511-1.183l.086-.034 38.679-13.215.083-.024 50.929-12.409Zm-51.894-61.801c0-1.127 1.583-1.312 1.876-.277l.023.095 5.525 28.463 17.719 13.474a.96.96 0 0 1 .235 1.267l-.053.076a.957.957 0 0 1-1.266.235l-.076-.052-18.01-13.695a.954.954 0 0 1-.336-.483l-.025-.097-3.696-19.039v18.709l6.565 21.033a.959.959 0 0 1-.542 1.169l-.087.032a.96.96 0 0 1-1.169-.543l-.031-.087-6.609-21.172a1.023 1.023 0 0 1-.039-.189l-.004-.096v-28.823Z"/>
  <path fill="#84AAA3" d="m237.625 240.767.092.001.754.048c8.312.585 13.376 2.565 17.499 7.776 1.759 2.219 2.986 4.439 3.554 7.499.772 4.154-.239 8.217-2.49 12.036a25.69 25.69 0 0 1-2.701 3.75 21.288 21.288 0 0 1-1.648 1.728.96.96 0 1 1-1.302-1.407l.229-.217c.359-.347.787-.796 1.27-1.356a23.877 23.877 0 0 0 2.501-3.472c2.035-3.451 2.934-7.066 2.257-10.712-.5-2.69-1.59-4.663-3.172-6.659-3.842-4.855-8.593-6.612-16.864-7.1a.96.96 0 0 1 .021-1.915Z"/>
  <path fill="#84AAA3" fill-rule="evenodd" d="M248.917 233.785a7.727 7.727 0 0 1 7.727-7.728 7.727 7.727 0 0 1 7.727 7.728 7.727 7.727 0 0 1-15.454 0Zm13.537 0a5.81 5.81 0 1 0-11.62 0 5.81 5.81 0 0 0 11.62 0Z" clip-rule="evenodd"/>
  <path fill="#84AAA3" d="M168.706 241.635c.498 0 .908.379.954.866l.005.092-.001 3.954 24.243 5.645a.957.957 0 0 1 .733 1.059l-.017.091a.959.959 0 0 1-1.06.733l-.091-.016-24.984-5.817a.956.956 0 0 1-.736-.845l-.004-.088v-4.716c0-.529.429-.958.958-.958Zm83.444-2.582a.96.96 0 0 1 1.746.788l-.038.085-1.517 2.968a.957.957 0 0 1-.511.459l-.096.031-3.967 1.052a.959.959 0 0 1-.58-1.825l.089-.028 3.552-.942 1.322-2.588Z"/>
  <path fill="#84AAA3" fill-rule="evenodd" d="M182.226 130.81a16.338 16.338 0 0 1-4.039-.374 15.422 15.422 0 0 1-4.039-1.498c.17 1.444.601 3.485 1.753 5.743 1.399 2.745 3.27 4.651 4.576 5.786.597-1 1.284-2.413 1.677-4.181.507-2.281.317-4.213.072-5.476ZM34.444 283.953h44.462c.529 0 .958.429.958.958v10.155c0 .53-.43.958-.958.958H34.443a.958.958 0 0 1-.958-.958v-10.155c0-.529.429-.958.959-.958Zm43.503 10.155v-8.239H35.4v8.239h42.546Z" clip-rule="evenodd"/>
  <path fill="#84AAA3" d="M75.74 294.112a.958.958 0 0 1 1.011.799l.01.091 3.24 47.622.754 11.028 3.003 44.107a.96.96 0 0 1-.87 1.02l-.086.003H30.549a.958.958 0 0 1-.959-.936l.002-.087 3.003-44.107.754-11.028 3.24-47.622a.957.957 0 0 1 1.913.038l-.001.093-3.24 47.622-.754 11.027-2.933 43.084h50.202l-2.933-43.083-.755-11.029-3.239-47.621a.957.957 0 0 1 .892-1.021Zm-51.032-50.753.232.155.427.292a26.521 26.521 0 0 1 3.62 3l.555.553c3.627 3.645 5.674 6.533 6.758 10.738.677 2.626.631 4.354.074 7.358l-.174.913c-.434 2.323-.467 3.717.047 5.597.974 3.559 3.567 6.556 7.508 9.111a.96.96 0 0 1-1.042 1.608c-4.302-2.789-7.199-6.136-8.315-10.213-.58-2.119-.567-3.734-.14-6.138l.171-.912c.567-2.954.63-4.459.015-6.846-1.027-3.982-3.06-6.719-6.803-10.402a24.552 24.552 0 0 0-3.568-2.93l-1.537-1.029c-1.425-.971-2.315-1.777-3.222-3.045-.17-.238-.338-.49-.504-.757-2.48-3.995-3.501-8.79-1.35-11.287 1.433-1.661 3.868-2.037 6.924-1.574 1.041.158 2.098.408 3.128.717.668.201 1.223.395 1.61.545 10.067 3.9 18.001 16.397 17.397 27.921-.086 1.622-.294 2.905-.711 4.713l-.384 1.622c-.04.173-.075.329-.107.481-.468 2.169-.52 3.789-.052 5.959.924 4.28 3.369 7.858 6.873 11.016a.958.958 0 1 1-1.283 1.424c-3.778-3.404-6.442-7.305-7.464-12.035-.506-2.344-.474-4.168-.02-6.426l.107-.504.378-1.611c.451-1.904.665-3.146.748-4.739.562-10.704-6.886-22.435-16.174-26.033l-.253-.096a22.924 22.924 0 0 0-1.216-.4 21.17 21.17 0 0 0-2.865-.659c-2.464-.374-4.304-.089-5.184.931-1.411 1.638-.55 5.677 1.527 9.023.144.233.289.45.435.655.71.994 1.396 1.637 2.512 2.417l.526.358.796.529Zm21.347-66.392c2.61-4.413 9.264-5.459 13.735-2.479 3.995 2.663 6.127 7.835 5.812 13.164-.248 4.187-1.742 8.24-4.504 13.161l-1.102 1.926c-3.128 5.453-4.183 8.404-3.57 11.751.267 1.447.757 2.583 2.026 4.945l.517.959a35.51 35.51 0 0 1 4.256 18.155c-.14 3.783-.685 6.78-2.186 12.934l-.863 3.522c-.225.938-.393 1.664-.567 2.449-1.657 7.522-1.228 14.442 1.08 23.589a.959.959 0 0 1-1.858.469c-2.332-9.239-2.805-16.355-1.188-24.035l.094-.435c.189-.855.371-1.638.624-2.686l.985-4.021c1.342-5.562 1.835-8.383 1.963-11.856a33.594 33.594 0 0 0-3.432-16.022l-.2-.4a40.461 40.461 0 0 0-.255-.489l-.935-1.745c-1.163-2.2-1.654-3.402-1.946-4.987-.697-3.804.362-6.975 3.435-12.424l1.223-2.136c2.779-4.875 4.256-8.787 4.489-12.737.278-4.694-1.581-9.203-4.96-11.456-3.603-2.401-9.005-1.552-11.023 1.86-.98 1.655-1.241 3.823-.863 6.22l.045.267c.223 1.265.513 2.292 1.199 4.367l.585 1.769c.094.289.17.534.254.806 1.65 5.389 2.08 10.718 1.06 15.576l-.076.35c-.368 1.61-.903 2.969-2.07 5.495l-.63 1.358c-1.425 3.1-1.975 4.734-2.123 6.72-.21 2.817.56 5.11 2.862 9.548l1.09 2.084c.436.842.674 1.327.97 1.974.192.417.365.815.522 1.204 2.567 6.363 3.895 11.594 4.012 16.942.095 4.375-.5 8.672-1.791 12.62a.959.959 0 0 1-1.822-.596c1.22-3.736 1.787-7.818 1.696-11.983-.11-5.079-1.386-10.1-3.873-16.266-.108-.27-.226-.545-.354-.831l-.13-.289a41.97 41.97 0 0 0-1.01-2.044l-1.02-1.949c-2.405-4.64-3.27-7.167-3.078-10.348l.014-.208c.174-2.343.808-4.173 2.421-7.657l.613-1.319c1.11-2.417 1.579-3.661 1.902-5.198.92-4.387.565-9.238-.887-14.185l-.194-.643a46.3 46.3 0 0 0-.165-.52l-.76-2.301c-.601-1.845-.88-2.869-1.105-4.143-.515-2.916-.221-5.636 1.056-7.796Zm42.752 33.931c3.522-2.34 8.345-2.335 11.212.336 3.281 3.057 3.522 8.743 1.55 13.828-2.28 5.882-5.671 11.57-10.06 17.115l-.675.842c-1.394 1.722-2.667 3.189-5.076 5.882l-2.41 2.693c-2.084 2.336-3.276 3.722-4.563 5.321l-1.69 2.121-.173.22c-3.137 4.005-4.98 6.95-6.073 10.139-1.371 4.004-1.27 7.943.58 12.095a.958.958 0 1 1-1.751.78c-2.053-4.607-2.167-9.046-.642-13.496 1.106-3.232 2.886-6.162 5.8-9.955l.808-1.038 1.648-2.069c1.391-1.728 2.667-3.203 5.021-5.839l2.81-3.14c2.016-2.264 3.159-3.597 4.465-5.222 4.48-5.568 7.916-11.267 10.194-17.142 1.719-4.434 1.512-9.327-1.07-11.732-2.166-2.019-6.014-2.023-8.844-.142-2.505 1.664-4.326 4.502-5.597 8.289-.857 2.554-1.365 4.891-2.045 9.074l-.543 3.419c-1.009 6.218-1.755 9.222-3.373 12.714l-.18.384c-1.213 2.537-2.569 4.567-5.425 8.378l-1.188 1.58c-1.171 1.563-1.82 2.46-2.52 3.497l-.09.136c-4.534 6.76-5.86 13.25-2.619 18.31a.958.958 0 1 1-1.614 1.034c-3.704-5.782-2.306-12.911 2.462-20.144l.366-.547c.653-.964 1.28-1.831 2.324-3.225l1.337-1.78c2.924-3.901 4.22-5.863 5.408-8.429l.176-.385c1.492-3.33 2.187-6.386 3.225-12.96l.309-1.957c.704-4.375 1.223-6.83 2.101-9.492l.072-.216c1.393-4.156 3.437-7.34 6.353-9.277Z"/>
  <path fill="#84AAA3" fill-rule="evenodd" d="M28.396 197.612c-4.252-7.05-16.093-9.075-27.79-4.442a.958.958 0 1 0 .706 1.782c10.916-4.324 21.752-2.471 25.443 3.65l.119.203c1.521 2.665 1.968 6.326 1.118 9.495l-.015.052-.208-.162a12.16 12.16 0 0 0-2.816-1.603 27.924 27.924 0 0 0-.611-.241l-.316-.116c-1.496-.532-2.866-.763-4.228-.552a5.55 5.55 0 0 0-2.097.771c-2.182 1.355-3.49 4.135-2.756 6.621.748 2.53 3.373 4.02 6.003 4.094 2.207.062 4.14-1.012 5.794-2.802.466-.503.884-1.038 1.258-1.587l.12-.176c.188-.285.332-.524.498-.811l.043-.077.085.104a17.466 17.466 0 0 1 1.952 3.045c1.065 2.082 1.703 4.103 2.115 6.019a.96.96 0 0 0 1.874-.403c-.444-2.066-1.129-4.233-2.282-6.488l-.155-.297c-.78-1.471-1.68-2.781-2.718-3.897l.061-.172c1.338-3.943.825-8.658-1.197-12.01Zm-5.012 10.424.097.035c.095.034.185.068.283.106l.473.187.247.104a10.508 10.508 0 0 1 2.713 1.73l.065.058-.069.14a12.456 12.456 0 0 1-1.858 2.665c-1.315 1.422-2.77 2.231-4.333 2.187-1.883-.053-3.742-1.108-4.219-2.721-.471-1.595.436-3.522 1.93-4.45a3.63 3.63 0 0 1 1.38-.504c.988-.154 2.068.028 3.291.463Z" clip-rule="evenodd"/>
  <path fill="#84AAA3" d="M92.734 191.464a.959.959 0 0 1 .453 1.863 28.15 28.15 0 0 0-2.997.911 33.01 33.01 0 0 0-5.159 2.386c-4.637 2.654-8.473 6.34-11.053 11.241-2.685 5.099-3.437 10.2-3.097 15.113a.96.96 0 0 1-1.913.132c-.362-5.238.44-10.682 3.313-16.138 2.763-5.248 6.863-9.187 11.798-12.012a34.858 34.858 0 0 1 5.459-2.524 30.03 30.03 0 0 1 3.196-.972Z"/>
  <path fill="#84AAA3" fill-rule="evenodd" d="M79.798 353.717H33.551l.755-12.675h44.739l.753 12.675Zm-31.656-21.733a3.507 3.507 0 1 1-7.014 0 3.507 3.507 0 0 1 7.014 0Z" clip-rule="evenodd"/>
  <path fill="#8AF5D1" fill-rule="evenodd" d="M60.182 331.984a3.507 3.507 0 1 1-7.014 0 3.507 3.507 0 0 1 7.014 0Z" clip-rule="evenodd"/>
  <path fill="#84AAA3" fill-rule="evenodd" d="M72.223 331.984a3.507 3.507 0 1 1-7.015 0 3.507 3.507 0 0 1 7.015 0Zm-24.081 53.612a3.507 3.507 0 1 1-7.014 0 3.507 3.507 0 0 1 7.014 0Zm12.04 0a3.507 3.507 0 1 1-7.014 0 3.507 3.507 0 0 1 7.014 0Z" clip-rule="evenodd"/>
  <path fill="#8AF5D1" fill-rule="evenodd" d="M72.223 385.596a3.507 3.507 0 1 1-7.015 0 3.507 3.507 0 0 1 7.015 0Z" clip-rule="evenodd"/>
  <path fill="#84AAA3" d="M37.087 369.181a.962.962 0 0 1 .806-.044l.096.044 4.337 2.315 4.335-2.315a.959.959 0 0 1 .807-.044l.095.044 4.335 2.315 4.333-2.315a.959.959 0 0 1 .807-.044l.096.045 4.332 2.314 4.333-2.314a.955.955 0 0 1 .807-.045l.096.045 4.332 2.314 4.33-2.314a.955.955 0 0 1 .807-.045l.096.044 4.785 2.556a.959.959 0 0 1-.82 1.731l-.083-.04-4.334-2.315-4.33 2.315a.957.957 0 0 1-.807.044l-.096-.044-4.332-2.315-4.332 2.315a.955.955 0 0 1-.807.044l-.096-.044-4.332-2.315-4.333 2.315a.959.959 0 0 1-.807.045l-.096-.045-4.335-2.315-4.334 2.315a.957.957 0 0 1-.806.045l-.096-.045-4.338-2.315-4.337 2.315a.958.958 0 0 1-1.25-.315l-.047-.079a.96.96 0 0 1 .315-1.25l.08-.047 4.788-2.556Zm3.005-56.814a.96.96 0 0 1 .94-.049l.088.049 3.509 2.229 3.506-2.229a.958.958 0 0 1 .94-.049l.088.049 3.502 2.229 3.505-2.229a.958.958 0 0 1 .941-.049l.088.049 3.502 2.229 3.505-2.229a.958.958 0 0 1 .94-.049l.088.049 3.502 2.229 3.502-2.229a.96.96 0 0 1 .942-.049l.087.05 4.014 2.556a.958.958 0 0 1-.95 1.663l-.08-.047-3.5-2.228-3.5 2.228a.954.954 0 0 1-.94.05l-.09-.05-3.502-2.228-3.503 2.229a.956.956 0 0 1-.941.049l-.089-.05-3.502-2.228-3.504 2.229a.957.957 0 0 1-.942.049l-.088-.05-3.502-2.228-3.505 2.229a.955.955 0 0 1-.94.049l-.088-.049-3.51-2.23-3.508 2.23a.959.959 0 0 1-1.27-.219l-.053-.076a.96.96 0 0 1 .22-1.27l.075-.053 4.023-2.556Z"/>
</svg>
