<?xml version="1.0" encoding="UTF-8" standalone="no"?>
<!-- Created with Inkscape (http://www.inkscape.org/) -->

<svg
   width="10.347714mm"
   height="9.1087904mm"
   viewBox="0 0 10.347714 9.1087904"
   version="1.1"
   id="svg41"
   xmlns="http://www.w3.org/2000/svg"
   xmlns:svg="http://www.w3.org/2000/svg">
  <defs
     id="defs38" />
  <g
     id="layer1"
     transform="translate(205.89041,145.16412)">
    <path
       d="m -198.71202,-137.9884 c -0.34052,0.34051 -0.737,0.60784 -1.17837,0.79449 -0.45673,0.19325 -0.9421,0.29114 -1.44272,0.29114 -0.50052,0 -0.98599,-0.0979 -1.44261,-0.29114 -0.44137,-0.18665 -0.83786,-0.45398 -1.17838,-0.79449 -0.12773,-0.12774 -0.24515,-0.26327 -0.35181,-0.40615 -0.17789,-0.23802 -0.32614,-0.49634 -0.44279,-0.77222 -0.0483,-0.11424 -0.0907,-0.23012 -0.12697,-0.34765 -0.009,-0.0294 -0.0178,-0.0589 -0.0261,-0.0886 -0.075,-0.26622 -0.11972,-0.54012 -0.13343,-0.81952 -0.003,-0.0622 -0.005,-0.12444 -0.005,-0.18699 0,-0.0285 4.4e-4,-0.057 9.5e-4,-0.0855 2.1e-4,-0.009 5.5e-4,-0.018 7.6e-4,-0.027 5.5e-4,-0.0198 9.5e-4,-0.0395 0.002,-0.0591 4.3e-4,-0.0102 9.5e-4,-0.0204 0.002,-0.0305 9.5e-4,-0.0193 0.002,-0.0388 0.004,-0.058 6.6e-4,-0.009 9.5e-4,-0.0188 0.002,-0.0281 0.002,-0.0265 0.005,-0.053 0.007,-0.0795 4.3e-4,-0.005 8.8e-4,-0.009 9.4e-4,-0.0136 0.003,-0.0245 0.006,-0.0492 0.009,-0.0736 9.5e-4,-0.0104 0.003,-0.0208 0.004,-0.0313 0.002,-0.0175 0.005,-0.035 0.008,-0.0524 0.002,-0.0116 0.004,-0.023 0.005,-0.0346 0.003,-0.0168 0.006,-0.0337 0.009,-0.0505 0.002,-0.0111 0.004,-0.0223 0.006,-0.0333 0.004,-0.0214 0.008,-0.0429 0.012,-0.0643 0.003,-0.0129 0.005,-0.0257 0.008,-0.0386 0.004,-0.0189 0.008,-0.0379 0.0122,-0.0567 0.003,-0.0122 0.006,-0.0244 0.009,-0.0367 0.004,-0.0149 0.007,-0.0297 0.0108,-0.0446 0.003,-0.0127 0.007,-0.0256 0.01,-0.0383 0.004,-0.0146 0.008,-0.0291 0.0117,-0.0436 0.004,-0.0125 0.007,-0.025 0.0104,-0.0375 0.005,-0.0177 0.0103,-0.0352 0.0155,-0.0528 0.006,-0.0178 0.0109,-0.0355 0.0165,-0.0532 0.0343,-0.10787 0.0735,-0.21454 0.11785,-0.31944 0.18667,-0.44137 0.45399,-0.83786 0.79461,-1.17836 0.0389,-0.0389 0.0787,-0.0769 0.11907,-0.11392 0.0117,-0.0105 0.0233,-0.0209 0.0349,-0.0314 0.009,-0.009 0.0189,-0.0169 0.0283,-0.0251 0.0117,-0.0102 0.0234,-0.0203 0.0352,-0.0304 0.01,-0.009 0.0194,-0.0166 0.0292,-0.0247 0.0118,-0.01 0.0235,-0.0196 0.0353,-0.0293 0.0101,-0.009 0.0202,-0.0162 0.0303,-0.0242 0.0117,-0.009 0.0236,-0.0189 0.0355,-0.0282 0.0104,-0.009 0.0209,-0.0161 0.0315,-0.0242 0.0117,-0.009 0.0235,-0.0179 0.0353,-0.0268 0.0112,-0.009 0.0225,-0.0165 0.0338,-0.0246 0.0115,-0.009 0.0227,-0.0167 0.0342,-0.0248 0.0166,-0.0117 0.0334,-0.0233 0.0503,-0.0348 0.0149,-0.0102 0.0299,-0.0202 0.045,-0.0302 0.0138,-0.009 0.0277,-0.0184 0.0417,-0.0274 0.0106,-0.007 0.0214,-0.0135 0.0322,-0.0203 0.0132,-0.009 0.0263,-0.0166 0.0396,-0.0247 0.011,-0.007 0.0221,-0.0132 0.0331,-0.0197 0.0134,-0.008 0.0266,-0.0159 0.0401,-0.0237 0.0111,-0.007 0.0222,-0.0126 0.0333,-0.0189 0.0137,-0.008 0.0275,-0.0153 0.0411,-0.0229 0.011,-0.006 0.0221,-0.012 0.0331,-0.018 0.0143,-0.008 0.0285,-0.0151 0.0428,-0.0225 0.0108,-0.006 0.0215,-0.0111 0.0324,-0.0166 0.0152,-0.008 0.0303,-0.0152 0.0456,-0.0226 0.0102,-0.005 0.0203,-0.01 0.0305,-0.015 0.017,-0.009 0.0341,-0.016 0.0513,-0.0239 0.009,-0.004 0.0172,-0.008 0.0257,-0.0118 0.0259,-0.0117 0.0519,-0.023 0.0781,-0.0341 0.45661,-0.19313 0.94209,-0.29113 1.44261,-0.29113 0.50062,0 0.986,0.098 1.44272,0.29113 0.0262,0.0111 0.0521,0.0224 0.0781,0.0341 0.009,0.004 0.0172,0.008 0.0258,0.0118 0.0171,0.008 0.0342,0.0158 0.0513,0.0239 0.0103,0.005 0.0204,0.01 0.0306,0.015 0.0152,0.008 0.0304,0.0149 0.0456,0.0226 0.0107,0.006 0.0215,0.011 0.0324,0.0166 0.0143,0.008 0.0285,0.015 0.0427,0.0225 0.0111,0.006 0.0221,0.0119 0.0331,0.018 0.0138,0.008 0.0276,0.0152 0.0412,0.0229 0.0111,0.007 0.0222,0.0125 0.0332,0.0189 0.0134,0.008 0.0268,0.0157 0.0401,0.0237 0.0111,0.007 0.0221,0.0131 0.0331,0.0197 0.0133,0.009 0.0264,0.0165 0.0396,0.0247 0.0107,0.007 0.0216,0.0134 0.0323,0.0203 0.0139,0.009 0.0278,0.0181 0.0416,0.0274 0.0153,0.0101 0.0305,0.0203 0.0457,0.0306 0.0166,0.0113 0.0333,0.0227 0.0497,0.0344 0.0115,0.009 0.0228,0.0166 0.0342,0.0248 0.0113,0.009 0.0226,0.0164 0.0337,0.0246 0.0119,0.009 0.0237,0.0179 0.0354,0.0269 0.0105,0.008 0.021,0.0159 0.0315,0.0241 0.0119,0.009 0.0237,0.0187 0.0355,0.0281 0.01,0.009 0.0202,0.0163 0.0303,0.0243 0.0119,0.01 0.0236,0.0194 0.0353,0.0293 0.01,0.009 0.0195,0.0165 0.0293,0.0247 0.0118,0.0101 0.0234,0.0202 0.035,0.0304 0.01,0.009 0.0189,0.0167 0.0284,0.0251 0.0117,0.0104 0.0233,0.0208 0.0348,0.0314 0.0405,0.0369 0.0802,0.0749 0.11917,0.11392 0.34052,0.3405 0.60784,0.73699 0.79451,1.17836 0.0444,0.10502 0.0836,0.21168 0.11797,0.31955 0.006,0.0177 0.0111,0.0352 0.0164,0.0529 0.006,0.0177 0.0106,0.0353 0.0157,0.053 0.004,0.0125 0.007,0.025 0.0104,0.0375 0.004,0.0145 0.008,0.029 0.0117,0.0436 0.003,0.0127 0.007,0.0256 0.01,0.0384 0.004,0.0148 0.008,0.0297 0.0107,0.0445 0.003,0.0122 0.006,0.0245 0.009,0.0367 0.005,0.0189 0.009,0.0378 0.0122,0.0567 0.003,0.0129 0.006,0.0257 0.008,0.0385 0.004,0.0214 0.009,0.0429 0.012,0.0643 0.002,0.0111 0.004,0.0223 0.006,0.0333 0.003,0.0168 0.006,0.0337 0.009,0.0505 0.002,0.0116 0.004,0.023 0.005,0.0346 0.003,0.0173 0.005,0.0348 0.008,0.0524 9.5e-4,0.0104 0.003,0.0208 0.004,0.0313 0.003,0.0244 0.006,0.0491 0.009,0.0736 5.5e-4,0.005 9.5e-4,0.009 0.002,0.0136 0.003,0.0264 0.005,0.0529 0.007,0.0795 6.6e-4,0.009 9.5e-4,0.0187 0.002,0.0281 0.002,0.0192 0.003,0.0386 0.004,0.058 5.5e-4,0.01 9.4e-4,0.0203 0.002,0.0305 8.8e-4,0.0196 0.002,0.0394 0.002,0.0591 2.1e-4,0.009 5.5e-4,0.018 7.6e-4,0.027 6.6e-4,0.0284 9.5e-4,0.0569 9.5e-4,0.0854 0,0.0625 -0.002,0.12489 -0.005,0.18699 -0.0146,0.29487 -0.0637,0.5837 -0.1465,0.86375 -0.0393,0.13278 -0.0857,0.26348 -0.14013,0.39198 -0.10491,0.24823 -0.2355,0.4823 -0.39022,0.70024 -0.12028,0.16943 -0.25526,0.3291 -0.40428,0.47813 z m 1.92743,-2.85066 c -0.002,-0.0381 -0.004,-0.0762 -0.007,-0.11413 -0.002,-0.0189 -0.003,-0.0379 -0.005,-0.0568 -0.041,-0.47329 -0.15517,-0.93343 -0.34074,-1.37227 -0.005,-0.0108 -0.009,-0.0214 -0.0138,-0.0321 -1e-4,0 -1e-4,10e-5 -2.2e-4,10e-5 -0.2287,-0.52937 -0.55198,-1.00552 -0.96174,-1.41539 -0.002,-0.002 -0.003,-0.003 -0.005,-0.005 0,0 1.1e-4,0 1.1e-4,0 -0.007,-0.007 -0.0136,-0.0131 -0.0201,-0.0195 -0.0192,-0.0189 -0.0384,-0.0379 -0.058,-0.0564 -0.007,-0.007 -0.0139,-0.013 -0.0208,-0.0194 -0.0197,-0.0187 -0.0396,-0.0373 -0.0598,-0.0555 -0.007,-0.007 -0.0138,-0.0123 -0.0207,-0.0185 -0.0204,-0.0184 -0.0407,-0.0366 -0.0615,-0.0545 -0.007,-0.006 -0.0141,-0.0119 -0.0212,-0.0179 -0.0207,-0.0177 -0.0415,-0.0354 -0.0625,-0.0528 -0.007,-0.006 -0.0143,-0.0114 -0.0214,-0.0171 -0.0212,-0.0173 -0.0423,-0.0346 -0.0639,-0.0513 -0.008,-0.006 -0.0147,-0.0112 -0.022,-0.0169 -0.0215,-0.0166 -0.043,-0.0332 -0.0647,-0.0494 -0.008,-0.006 -0.0157,-0.0113 -0.0234,-0.0171 -0.0216,-0.0158 -0.0431,-0.0317 -0.065,-0.0472 -0.009,-0.006 -0.0165,-0.0113 -0.0247,-0.0172 -0.0216,-0.0151 -0.0431,-0.0302 -0.065,-0.0449 -0.009,-0.006 -0.0181,-0.0118 -0.0272,-0.0178 -0.0212,-0.0141 -0.0424,-0.0282 -0.0639,-0.0419 -0.01,-0.007 -0.0202,-0.0125 -0.0302,-0.0188 -0.0207,-0.013 -0.0415,-0.0262 -0.0624,-0.0387 -0.011,-0.007 -0.0222,-0.0131 -0.0333,-0.0196 -0.0202,-0.0119 -0.0403,-0.0241 -0.0607,-0.0358 -0.0124,-0.007 -0.025,-0.0138 -0.0375,-0.0208 -0.0192,-0.0107 -0.0384,-0.0217 -0.058,-0.0323 -0.0143,-0.008 -0.0289,-0.0152 -0.0432,-0.0227 -0.0178,-0.009 -0.0355,-0.0189 -0.0535,-0.0282 -0.0168,-0.009 -0.0339,-0.0168 -0.0508,-0.0252 -0.0158,-0.008 -0.0315,-0.0157 -0.0473,-0.0234 -0.0209,-0.0101 -0.0422,-0.0198 -0.0632,-0.0295 -0.0122,-0.006 -0.0242,-0.0114 -0.0364,-0.0169 -0.0334,-0.0152 -0.067,-0.0298 -0.10086,-0.0442 -0.56174,-0.23758 -1.15816,-0.35807 -1.77281,-0.35807 -0.61453,0 -1.21106,0.12049 -1.77281,0.35807 -0.0338,0.0143 -0.0674,0.029 -0.10085,0.0442 -0.0124,0.006 -0.0247,0.0115 -0.0369,0.0172 -0.0208,0.01 -0.0418,0.0191 -0.0624,0.0291 -0.0164,0.008 -0.0324,0.016 -0.0486,0.0241 -0.0165,0.009 -0.0332,0.0162 -0.0496,0.0245 -0.0181,0.009 -0.036,0.0189 -0.0539,0.0284 -0.0143,0.008 -0.0286,0.0148 -0.0429,0.0225 -0.0195,0.0106 -0.0389,0.0216 -0.0583,0.0325 -0.0123,0.007 -0.0247,0.0137 -0.037,0.0207 -0.0205,0.0117 -0.0406,0.024 -0.0609,0.0359 -0.011,0.007 -0.0222,0.0129 -0.0331,0.0195 -0.0209,0.0126 -0.0417,0.0258 -0.0624,0.0387 -0.01,0.007 -0.0202,0.0125 -0.0302,0.0188 -0.0216,0.0137 -0.0429,0.0279 -0.0643,0.0422 -0.009,0.006 -0.0179,0.0117 -0.0268,0.0175 -0.0219,0.0147 -0.0435,0.0298 -0.0651,0.045 -0.009,0.006 -0.0165,0.0113 -0.0247,0.0171 -0.0219,0.0155 -0.0436,0.0315 -0.0652,0.0474 -0.008,0.006 -0.0153,0.0111 -0.023,0.0168 -0.0217,0.0162 -0.0434,0.033 -0.0649,0.0496 -0.008,0.006 -0.0146,0.0111 -0.0219,0.0168 -0.0216,0.0169 -0.0429,0.0342 -0.0642,0.0514 -0.007,0.006 -0.0141,0.0113 -0.021,0.0171 -0.0212,0.0174 -0.0421,0.0352 -0.0629,0.0531 -0.007,0.006 -0.014,0.0117 -0.0208,0.0175 -0.0208,0.018 -0.0413,0.0363 -0.0618,0.0547 -0.007,0.006 -0.0137,0.012 -0.0206,0.0182 -0.0202,0.0183 -0.0401,0.0371 -0.0601,0.0558 -0.007,0.007 -0.0138,0.0127 -0.0207,0.0192 -0.0195,0.0187 -0.0388,0.0376 -0.0581,0.0567 -0.007,0.007 -0.0133,0.0127 -0.0199,0.0193 0,0 0,0 0,0 -0.002,0.002 -0.003,0.003 -0.005,0.005 -0.40977,0.40987 -0.73305,0.88602 -0.96174,1.4154 -1.3e-4,0 -1.3e-4,-1.1e-4 -2.2e-4,-1.1e-4 -0.005,0.0107 -0.009,0.0214 -0.0138,0.0321 -0.18567,0.43884 -0.2998,0.89897 -0.34084,1.37226 -0.002,0.0189 -0.003,0.0379 -0.005,0.0568 -0.003,0.038 -0.005,0.0761 -0.008,0.11413 -0.004,0.0763 -0.006,0.15276 -0.006,0.22957 0,0.0768 0.002,0.15341 0.006,0.22957 0.002,0.0382 0.005,0.0762 0.008,0.11412 0.002,0.019 0.003,0.038 0.005,0.0568 0.041,0.47341 0.15517,0.93343 0.34084,1.37228 0.22935,0.54232 0.55769,1.02934 0.97579,1.44743 0.4181,0.41811 0.90512,0.74644 1.44744,0.97591 0.56175,0.23758 1.15828,0.35796 1.77282,0.35796 0.61464,0 1.21106,-0.12038 1.77282,-0.35796 0.54242,-0.22947 1.02933,-0.5578 1.44754,-0.97591 0.41811,-0.41809 0.74633,-0.90511 0.9758,-1.44743 0.18556,-0.43885 0.29968,-0.89887 0.34073,-1.37228 0.002,-0.0189 0.003,-0.0379 0.005,-0.0568 0.003,-0.038 0.005,-0.076 0.007,-0.11412 0.004,-0.0762 0.006,-0.15275 0.006,-0.22957 0,-0.0768 -0.002,-0.1533 -0.006,-0.22957"
       style="fill:#c0c7ce;fill-opacity:1;fill-rule:nonzero;stroke:none;stroke-width:0.00109738"
       id="path22" />
    <path
       d="m -203.32946,-142.28157 v 0 c 0.25799,-0.15792 0.59774,-0.0762 0.75576,0.1815 l 1.38116,2.25501 0.20905,-0.35951 c 0.59631,-0.92914 2.53428,-3.30091 5.1219,-4.0582 0.39364,-0.11545 0.42392,-0.0364 0.0849,0.16635 -2.37473,1.42243 -4.22403,4.02859 -4.96619,5.46506 l -0.0409,0.0803 c -0.11852,0.23189 -0.46255,0.27654 -0.6795,0.18294 -0.18381,-0.0803 -0.26633,-0.25075 -0.3641,-0.41097 l -1.68338,-2.74718 c -0.15759,-0.25755 -0.0762,-0.5973 0.1814,-0.75532 v 0"
       style="fill:#0bfeb8;fill-opacity:1;fill-rule:evenodd;stroke:none;stroke-width:0.00109738"
       id="path16" />
  </g>
</svg>
