<svg xmlns="http://www.w3.org/2000/svg" width="68" height="70" fill="none" xmlns:v="https://vecta.io/nano"><g clip-path="url(#C)"><mask id="A" maskUnits="userSpaceOnUse" x="0" y="2" width="69" height="68"><path d="M34.007 69.738c18.778 0 34-15.017 34-33.542s-15.222-33.542-34-33.542-34 15.017-34 33.542 15.222 33.542 34 33.542z" fill="#fff"/></mask><g mask="url(#A)"><path d="M34.007 69.738c18.778 0 34-15.017 34-33.542s-15.222-33.542-34-33.542-34 15.017-34 33.542 15.222 33.542 34 33.542z" fill="url(#B)"/><path d="M34.37 15.655c3.348 3.821 8.286 6.322 10.621 10.813 2.047 3.938 2.099 9.312 5.92 11.638 2.387 1.451 5.603 1.065 7.983-.408s4.028-3.857 5.263-6.351c4.679-9.465 3.77-21.394-2.299-30.056-5.13-7.335-17.015-13.789-26.076-9.26-8.714 4.36-6.822 17.449-1.412 23.625z" fill="#9469ad"/><path d="M24.28 18.222a2.44 2.44 0 0 1-1.131-.839c-.244-.328-.399-.773-.458-1.24-.17.707-.037 1.531.34 2.034.236.321.576.569.953.707.369.131.806.153 1.153-.037.296-.16.495-.452.65-.751l-.14.088c-.414.219-.924.197-1.367.037z" fill="#775ea9"/><path d="M26.099 17.092c.044-1.05-1.286-2.581-2.439-2.151-.525.197-.835.664-.968 1.21.059.474.214.919.458 1.239.281.379.68.678 1.131.839.444.16.954.182 1.367-.037l.14-.087c.015-.022.022-.044.037-.066.148-.299.266-.613.281-.941l-.007-.007z" fill="#986eb0"/><path d="M8.766 34.329c-2.077 1.473-3.252 4.419-2.025 6.636.606 1.086 1.752 2.093 1.486 3.303-.096.452-.384.831-.613 1.232-1.648 2.895-.111 6.482 1.523 9.384.902 1.604 1.87 3.23 3.333 4.346s3.563 1.626 5.211.78c.717-.372 1.301-.977 2.018-1.349 2.565-1.327 5.543.612 7.864 2.319 2.299 1.692 4.893 3.325 7.761 3.303s5.876-2.421 5.433-5.221c-.052-.335-.163-.685-.429-.897-.347-.284-.85-.262-1.301-.262-3.082 0-6.061-2.034-7.155-4.878 1.981-1.436 4.058-2.982 4.649-5.469.325-1.385-.022-2.895-1.123-3.806-3.208-2.661-8.293 2.399-11.087-.263-.82-.78-.998-1.874-.887-3.019.222-2.246-2.254-3.894-4.25-2.807l-.044.022c1.072-.598-2.336-4.55-3.126-4.885-2.07-.868-5.558.343-7.229 1.531h-.007z" fill="#7159a6"/><path d="M39.544 30.414c-.17-.109-.318-.226-.458-.357.148.386.392.744.717 1.006.569.459 1.338.656 2.069.569.599-.073 1.19-.328 1.589-.78.066-.073.111-.153.163-.233-.421.204-.917.328-1.412.372-.946.088-1.937-.109-2.676-.569l.007-.007z" fill="#775ea9"/><path d="M43.328 27.84c-1.367-1.407-4.22-.809-4.368 1.32-.022.313.037.62.148.911a3.18 3.18 0 0 0 .458.357c.739.452 1.737.642 2.683.547.495-.051.983-.175 1.404-.387.525-.838.377-2.027-.318-2.749h-.007z" fill="#9469ad"/><path d="M45.545 15.407c.451-.022.917-.102 1.271-.379.362-.277.569-.722.665-1.167.251-1.13-.103-2.362-.865-3.245-1.419-1.633-5.174-2.406-6.068.168-.983 2.815 2.668 4.725 4.996 4.616v.007zm8.596 10.53c.081.233.207.474.407.62.214.153.488.19.746.168.658-.044 1.279-.43 1.641-.977.673-1.021.495-3.143-1.064-3.216-1.7-.073-2.166 2.18-1.73 3.405zm6.209 6.832c.044.197.118.394.266.525.155.139.37.19.577.197a1.74 1.74 0 0 0 1.382-.627c.621-.744.673-2.435-.547-2.625-1.338-.212-1.907 1.531-1.678 2.53zm-3.526-14.343c.126.037.259.051.377.015.126-.044.222-.139.288-.255a1.07 1.07 0 0 0 .067-.948c-.229-.562-1.16-1.108-1.641-.496-.525.663.281 1.502.909 1.684zm-6.829-1.611c.007.35.222.729.576.78.192.022.384-.051.569-.022.177.029.34.16.51.124.074-.015.14-.066.207-.109a1.24 1.24 0 0 0 .436-.693c.059-.27 0-.569-.192-.773-.17-.19-.429-.284-.68-.343-.754-.153-1.441.219-1.419 1.035h-.007zm-15.359-5.681a1.39 1.39 0 0 0 1.471-.496c.473-.656.325-1.823-.155-2.45s-1.493-.664-2.232-.605c-1.301.109-2.786 1.138-1.87 2.559.362.562.784.452 1.375.496.547.044.902.335 1.412.489v.007zm5.891-3.23c-.103.16-.296.233-.473.306l-.532.204c-.037.015-.066.029-.103.029-.747.051-.953-1.152-.31-1.451.517-.241 1.922.153 1.419.919v-.007z" fill="#ab84bc"/><path d="M49.995 11.856c.022.379.067.802.37 1.035.185.146.436.182.665.248.754.197 1.404.664 2.084 1.043.177.102.377.204.584.182.34-.029.576-.379.584-.715 0-.335-.163-.649-.355-.926-.732-1.072-4.11-3.777-3.932-.86v-.007zm-2.018 10.267c.118.43.362.817.606 1.188.126.19.266.387.466.51.259.16.584.175.887.153a1.81 1.81 0 0 0 .399-.058c.251-.073.458-.241.658-.401.288-.226.577-.459.798-.751s.37-.649.34-1.014c-.214-2.377-4.856-2.239-4.154.365v.007z" fill="#ab84bc"/><path d="M52.486 43.138c-1.515.7-2.823 1.947-3.304 3.529-.207.671-.259 1.386-.466 2.056-.54 1.772-2.225 3.15-4.095 3.347-1.234.131-2.764-.095-3.467.919-.562.817-.17 1.918.281 2.8a27.25 27.25 0 0 0 2.04 3.347c.207.284.436.583.776.685.916.263 1.589-1.05 2.535-1.094.791-.036 1.301.78 1.936 1.239.769.562 1.892.612 2.713.109s1.271-1.517 1.094-2.45c-.2-1.05-1.064-1.837-1.501-2.815s-.066-2.501 1.013-2.494c.325 1.021.857 1.969 1.567 2.778 1.101-.416 1.885-1.538 1.877-2.698 1.205.08 2.336.868 2.809 1.962.089.197.155.408.325.547.355.292.894.066 1.264-.204 2.203-1.582 3.282-4.236 4.25-6.752.303-.78.606-1.597.51-2.428s-.732-1.663-1.574-1.692c-.71-.022-1.301.496-1.892.882s-1.441.649-1.966.175c-.458-.416-.377-1.13-.488-1.735-.37-2.071-5.107-.554-6.253-.022l.015.007z" fill="#8369ae"/><path d="M14.398 21.372c-.199.569-.199 1.298.281 1.67.473.372 1.257.263 1.619.744.296.394.133.941 0 1.407-.303 1.028-.214 2.443.813 2.785.584.19 1.205-.073 1.818-.139 1.013-.102 2.062.43 2.572 1.305.436.744.473 1.648.82 2.435s1.249 1.488 2.033 1.116c.347-.16.569-.496.769-.817.517-.831.99-1.684 1.412-2.567.273-.569.525-1.181.458-1.808-.089-.868-.776-1.575-1.545-1.991-.776-.423-1.648-.62-2.469-.933-.273-.102-.569-.241-.695-.503-.096-.204-.074-.445-.067-.671.17-4.258-6.216-6.555-7.813-2.034h-.007z" fill="#7159a6"/><path opacity=".51" d="M57.615 57.349c-16.083 8.072-35.759 1.757-43.949-14.109-6.105-11.827-4.095-25.623 3.991-35.226C2.639 16.494-3.149 35.212 4.79 50.597c8.182 15.867 27.858 22.188 43.949 14.109 4.095-2.056 7.554-4.849 10.318-8.123-.473.262-.946.518-1.434.766h-.007z" fill="#6d55a4"/></g></g><defs><radialGradient id="B" cx="0" cy="0" r="1" gradientUnits="userSpaceOnUse" gradientTransform="translate(51.2512 13.3511) scale(66.4774 65.5813)"><stop stop-color="#8b5fa8"/><stop offset=".29" stop-color="#8660a8"/><stop offset=".58" stop-color="#7a63ab"/><stop offset=".82" stop-color="#6b67af"/></radialGradient><clipPath id="C"><path fill="#fff" d="M0 0h68v70H0z"/></clipPath></defs></svg>