<?xml version="1.0" encoding="UTF-8" standalone="no"?>
<svg
   style="transform: scale(0.94) translateY(7px)"
   width="42.99712mm"
   height="42.99712mm"
   viewBox="0 0 12.899136 12.899136"
   version="1.1"
   id="svg2089"
   xmlns="http://www.w3.org/2000/svg"
   xmlns:svg="http://www.w3.org/2000/svg">
  <defs
     id="defs2086">
    <mask
       id="mask0_849_2598"
       maskUnits="userSpaceOnUse"
       x="3"
       y="14"
       width="8"
       height="8">
      <circle
         cx="6.6606398"
         cy="17.9606"
         r="3.5"
         transform="rotate(-6,6.66064,17.9606)"
         fill="#53b4ef"
         id="circle1207" />
    </mask>
    <mask
       id="path-11-inside-4_849_2598"
       fill="#ffffff">
      <path
         d="m 4.10774,18.9475 c -0.10452,0.0358 -0.16092,0.15 -0.11684,0.2513 0.14781,0.3397 0.3693,0.6423 0.64838,0.8859 0.08324,0.0727 0.20915,0.0535 0.27492,-0.0353 C 4.97997,19.9606 4.96056,19.836 4.87844,19.762 4.66322,19.5683 4.49037,19.3321 4.3708,19.0684 4.32517,18.9678 4.21225,18.9116 4.10774,18.9475 Z"
         id="path1216" />
    </mask>
    <mask
       id="path-12-inside-5_849_2598"
       fill="#ffffff">
      <path
         d="M 7.68394,17.8794 C 7.76981,17.9489 7.89652,17.9361 7.95897,17.845 8.13302,17.5909 8.25865,17.3068 8.3295,17.0072 8.35492,16.8996 8.27915,16.7972 8.16993,16.7805 8.06072,16.7638 7.95955,16.8391 7.9325,16.9462 7.87443,17.1761 7.77781,17.3946 7.64678,17.5923 7.58572,17.6844 7.59807,17.8099 7.68394,17.8794 Z"
         id="path1221" />
    </mask>
    <mask
       id="mask0_849_2598-5"
       maskUnits="userSpaceOnUse"
       x="3"
       y="14"
       width="8"
       height="8">
      <circle
         cx="6.6606398"
         cy="17.9606"
         r="3.5"
         transform="rotate(-6,6.66064,17.9606)"
         fill="#53b4ef"
         id="circle1207-6" />
    </mask>
    <mask
       id="path-11-inside-4_849_2598-2"
       fill="#ffffff">
      <path
         d="m 4.10774,18.9475 c -0.10452,0.0358 -0.16092,0.15 -0.11684,0.2513 0.14781,0.3397 0.3693,0.6423 0.64838,0.8859 0.08324,0.0727 0.20915,0.0535 0.27492,-0.0353 C 4.97997,19.9606 4.96056,19.836 4.87844,19.762 4.66322,19.5683 4.49037,19.3321 4.3708,19.0684 4.32517,18.9678 4.21225,18.9116 4.10774,18.9475 Z"
         id="path1216-9" />
    </mask>
    <mask
       id="path-12-inside-5_849_2598-1"
       fill="#ffffff">
      <path
         d="M 7.68394,17.8794 C 7.76981,17.9489 7.89652,17.9361 7.95897,17.845 8.13302,17.5909 8.25865,17.3068 8.3295,17.0072 8.35492,16.8996 8.27915,16.7972 8.16993,16.7805 8.06072,16.7638 7.95955,16.8391 7.9325,16.9462 7.87443,17.1761 7.77781,17.3946 7.64678,17.5923 7.58572,17.6844 7.59807,17.8099 7.68394,17.8794 Z"
         id="path1221-2" />
    </mask>
    <mask
       id="path-2-inside-1_849_2598"
       fill="#ffffff">
      <path
         d="m 7.07563,13.3794 c 0.00998,-0.11 -0.07118,-0.2077 -0.18154,-0.2131 -1.13343,-0.0554 -2.25018,0.2929 -3.15128,0.9826 -0.08775,0.0672 -0.09896,0.1937 -0.02821,0.2786 0.07076,0.0848 0.19667,0.0959 0.28467,0.029 0.81924,-0.6221 1.83099,-0.9376 2.85867,-0.8913 0.11038,0.0049 0.20771,-0.0757 0.21769,-0.1858 z"
         id="path1186" />
    </mask>
    <mask
       id="path-3-inside-2_849_2598"
       fill="#ffffff">
      <path
         d="m 2.0109,17.0205 c -0.11169,-0.0225 -0.22098,0.0497 -0.23889,0.1622 -0.11359,0.7139 -0.06957,1.4449 0.13002,2.1414 0.19959,0.6965 0.54939,1.3399 1.02384,1.8853 0.07479,0.0859 0.20573,0.0893 0.28851,0.011 C 3.29716,21.1421 3.3004,21.0118 3.22594,20.9255 2.79677,20.4284 2.48008,19.8433 2.29871,19.2104 2.11734,18.5775 2.07612,17.9135 2.17686,17.2645 2.19434,17.1519 2.12259,17.0431 2.0109,17.0205 Z"
         id="path1191" />
    </mask>
    <mask
       id="path-4-inside-3_849_2598"
       fill="#ffffff">
      <path
         d="m 8.30503,13.6648 c 0.03951,-0.1032 -0.01199,-0.2193 -0.11674,-0.2545 -0.14768,-0.0496 -0.2977,-0.092 -0.4495,-0.127 -0.10767,-0.0248 -0.21231,0.0472 -0.23263,0.1558 -0.02032,0.1086 0.05138,0.2127 0.15896,0.2379 0.12819,0.0301 0.25498,0.0659 0.37996,0.1073 0.10488,0.0348 0.22044,-0.0163 0.25995,-0.1195 z"
         id="path1196" />
    </mask>
    <mask
       id="mask9801"
       maskUnits="userSpaceOnUse"
       x="3"
       y="14"
       width="8"
       height="8">
      <circle
         cx="6.6606398"
         cy="17.9606"
         r="3.5"
         transform="rotate(-6,6.66064,17.9606)"
         fill="#53b4ef"
         id="circle9799" />
    </mask>
    <mask
       id="mask9808"
       fill="#ffffff">
      <path
         d="m 4.10774,18.9475 c -0.10452,0.0358 -0.16092,0.15 -0.11684,0.2513 0.14781,0.3397 0.3693,0.6423 0.64838,0.8859 0.08324,0.0727 0.20915,0.0535 0.27492,-0.0353 C 4.97997,19.9606 4.96056,19.836 4.87844,19.762 4.66322,19.5683 4.49037,19.3321 4.3708,19.0684 4.32517,18.9678 4.21225,18.9116 4.10774,18.9475 Z"
         id="path9806" />
    </mask>
    <mask
       id="mask9813"
       fill="#ffffff">
      <path
         d="M 7.68394,17.8794 C 7.76981,17.9489 7.89652,17.9361 7.95897,17.845 8.13302,17.5909 8.25865,17.3068 8.3295,17.0072 8.35492,16.8996 8.27915,16.7972 8.16993,16.7805 8.06072,16.7638 7.95955,16.8391 7.9325,16.9462 7.87443,17.1761 7.77781,17.3946 7.64678,17.5923 7.58572,17.6844 7.59807,17.8099 7.68394,17.8794 Z"
         id="path9811" />
    </mask>
  </defs>
  <path
     id="circle1184"
     style="display:inline;fill:#ffffff;stroke:currentColor;stroke-width:0.502708;stroke-dashoffset:4"
     transform="rotate(-6.0000001)"
     d="M 11.494761,7.0883999 A 5.7546873,5.7546873 0 0 1 5.7400732,12.843087 5.7546873,5.7546873 0 0 1 -0.01461411,7.0883999 5.7546873,5.7546873 0 0 1 5.7400732,1.3337126 5.7546873,5.7546873 0 0 1 11.494761,7.0883999 Z" />
  <path
     id="circle1201"
     style="fill:#7599ea;stroke-width:1.32292"
     transform="rotate(-6.0000001)"
     d="M 10.635056,7.0885525 A 4.8947997,4.8947916 0 0 1 5.7402563,11.983344 4.8947997,4.8947916 0 0 1 0.8454566,7.0885525 4.8947997,4.8947916 0 0 1 5.7402563,2.1937609 4.8947997,4.8947916 0 0 1 10.635056,7.0885525 Z" />
  <path
     id="circle1203"
     style="display:inline;fill:#8b67e5;stroke:#37383a;stroke-width:0.529167"
     transform="rotate(-6.0000001)"
     d="M 2.6971024,3.7811334 A 1.1244792,1.1244792 0 0 1 1.5726233,4.9056126 1.1244792,1.1244792 0 0 1 0.44814408,3.7811334 1.1244792,1.1244792 0 0 1 1.5726233,2.6566542 1.1244792,1.1244792 0 0 1 2.6971024,3.7811334 Z" />
  <path
     fill-rule="evenodd"
     clip-rule="evenodd"
     d="M 11.05402,5.965644 C 11.321381,8.508952 9.476415,10.787279 6.933227,11.054508 4.390038,11.32187 2.111698,9.47693 1.844389,6.933623 1.577094,4.390448 3.42206,2.11212 5.965248,1.844891 6.9205,1.744482 7.838379,1.941991 8.626362,2.362681 8.737963,2.422341 8.876776,2.402761 8.962488,2.309761 9.076008,2.186465 9.049708,1.990012 8.902388,1.91024 8.018296,1.431477 6.985363,1.205523 5.909937,1.318632 3.076104,1.616421 1.020278,4.155098 1.31812,6.98905 c 0.297855,2.83382 2.836585,4.889632 5.670418,4.591711 2.833833,-0.297788 4.889659,-2.836598 4.59187,-5.670417 -0.07117,-0.677069 -0.270404,-1.30982 -0.570838,-1.87669 -0.08334,-0.15703 -0.295434,-0.177139 -0.415925,-0.0463 -0.0798,0.08652 -0.09327,0.214709 -0.03872,0.319087 0.262374,0.50218 0.43639,1.061509 0.499097,1.659202 z"
     fill="#332d57"
     id="path1205"
     style="mix-blend-mode:normal;fill:#37383a;fill-opacity:1;stroke-width:1.32292" />
  <path
     id="circle1210"
     style="fill:#5380e5;fill-opacity:0.996078;stroke-width:1.1016"
     transform="rotate(-6.0000001)"
     d="M 10.147629,7.1162357 A 4.5731521,4.5731239 0 0 1 5.5744772,11.68936 4.5731521,4.5731239 0 0 1 1.0013251,7.1162357 4.5731521,4.5731239 0 0 1 5.5744772,2.5431118 4.5731521,4.5731239 0 0 1 10.147629,7.1162357 Z" />
  <path
     fill-rule="evenodd"
     clip-rule="evenodd"
     d="M 4.543219,3.261074 C 4.522749,3.06634 4.310769,2.956406 4.149559,3.067531 3.329125,3.632813 2.732728,4.485565 2.491124,5.464524 2.448594,5.636767 2.59484,5.790887 2.771344,5.772366 2.88911,5.759926 2.984082,5.671957 3.013596,5.55726 3.226295,4.730834 3.729996,4.009977 4.41987,3.524202 4.50491,3.464402 4.55408,3.364393 4.543219,3.261074 Z"
     fill="#ffffff"
     id="path1214"
     style="display:inline;mix-blend-mode:normal;stroke-width:1.32292" />
  <path
     d="m 4.10774,18.9475 c -0.10452,0.0358 -0.16092,0.15 -0.11684,0.2513 0.14781,0.3397 0.3693,0.6423 0.64838,0.8859 0.08324,0.0727 0.20915,0.0535 0.27492,-0.0353 C 4.97997,19.9606 4.96056,19.836 4.87844,19.762 4.66322,19.5683 4.49037,19.3321 4.3708,19.0684 4.32517,18.9678 4.21225,18.9116 4.10774,18.9475 Z"
     stroke="#332d57"
     stroke-width="0.8"
     mask="url(#path-11-inside-4_849_2598-2)"
     id="path1219"
     style="display:inline;mix-blend-mode:normal;stroke:#37383a;stroke-opacity:1"
     transform="matrix(1.3229167,0,0,1.3229167,-2.361811,-17.310678)" />
  <path
     d="M 7.68394,17.8794 C 7.76981,17.9489 7.89652,17.9361 7.95897,17.845 8.13302,17.5909 8.25865,17.3068 8.3295,17.0072 8.35492,16.8996 8.27915,16.7972 8.16993,16.7805 8.06072,16.7638 7.95955,16.8391 7.9325,16.9462 7.87443,17.1761 7.77781,17.3946 7.64678,17.5923 7.58572,17.6844 7.59807,17.8099 7.68394,17.8794 Z"
     stroke="#332d57"
     stroke-width="0.8"
     mask="url(#path-12-inside-5_849_2598-1)"
     id="path1224"
     style="mix-blend-mode:normal;stroke:#37383a;stroke-opacity:1"
     transform="matrix(1.3229167,0,0,1.3229167,-2.361811,-17.310678)" />
  <path
     id="circle1226"
     style="fill:#ffffff;stroke-width:1.32292"
     transform="rotate(-6.0000001)"
     d="M 2.1265819,6.6253262 A 0.26458335,0.26458335 0 0 1 1.8619986,6.8899095 0.26458335,0.26458335 0 0 1 1.5974152,6.6253262 0.26458335,0.26458335 0 0 1 1.8619986,6.3607428 0.26458335,0.26458335 0 0 1 2.1265819,6.6253262 Z" />
  <path
     id="circle1228"
     style="fill:#37383a;stroke-width:1.32292"
     transform="rotate(-6.0000001)"
     d="M 2.3669279,7.6176815 A 0.19843751,0.19843751 0 0 1 2.1684904,7.816119 0.19843751,0.19843751 0 0 1 1.9700529,7.6176815 0.19843751,0.19843751 0 0 1 2.1684904,7.419244 0.19843751,0.19843751 0 0 1 2.3669279,7.6176815 Z" />
  <path
     id="circle1230"
     style="fill:#37383a;stroke-width:1.32292"
     transform="rotate(-6.0000001)"
     d="M 6.9302939,7.3529263 A 0.19843751,0.19843751 0 0 1 6.7318563,7.5513638 0.19843751,0.19843751 0 0 1 6.5334188,7.3529263 0.19843751,0.19843751 0 0 1 6.7318563,7.1544887 0.19843751,0.19843751 0 0 1 6.9302939,7.3529263 Z" />
  <path
     id="circle1232"
     style="fill:#37383a;stroke-width:1.32292"
     transform="rotate(-6.0000001)"
     d="M 3.7557694,7.286974 A 0.33072916,0.33072916 0 0 1 3.4250402,7.6177031 0.33072916,0.33072916 0 0 1 3.0943111,7.286974 0.33072916,0.33072916 0 0 1 3.4250402,6.9562448 0.33072916,0.33072916 0 0 1 3.7557694,7.286974 Z" />
  <path
     id="circle1234"
     style="fill:#8b67e5;stroke-width:1.32292"
     transform="rotate(-6.0000001)"
     d="M 10.329019,12.247671 A 0.33072916,0.33072916 0 0 1 9.9982901,12.5784 0.33072916,0.33072916 0 0 1 9.6675609,12.247671 0.33072916,0.33072916 0 0 1 9.9982901,11.916942 0.33072916,0.33072916 0 0 1 10.329019,12.247671 Z" />
  <path
     id="circle1238"
     style="fill:#fbc82b;stroke:#37383a;stroke-width:0.529167"
     transform="rotate(-6.0000001)"
     d="M 9.9072183,3.5828722 A 0.72760421,0.72760421 0 0 1 9.1796141,4.3104764 0.72760421,0.72760421 0 0 1 8.4520099,3.5828722 0.72760421,0.72760421 0 0 1 9.1796141,2.8552679 0.72760421,0.72760421 0 0 1 9.9072183,3.5828722 Z" />
</svg>
