<svg xmlns="http://www.w3.org/2000/svg" xmlns:xlink="http://www.w3.org/1999/xlink" viewBox="0 0 10.21 9.21">
  <g
     transform="translate(205.88836,145.16418)">
    <path
       d="m -198.62741,-137.90391 c -0.34454,0.34452 -0.74568,0.61499 -1.19225,0.80385 -0.46212,0.19553 -0.9532,0.29457 -1.45973,0.29457 -0.50642,0 -0.99761,-0.099 -1.45962,-0.29457 -0.44656,-0.18886 -0.84771,-0.45933 -1.19225,-0.80385 -0.12924,-0.12924 -0.24805,-0.26636 -0.35597,-0.41092 -0.17998,-0.24083 -0.32998,-0.50219 -0.448,-0.78132 -0.0489,-0.11558 -0.0917,-0.23283 -0.12847,-0.35174 -0.009,-0.0298 -0.018,-0.0596 -0.0264,-0.0896 -0.076,-0.26936 -0.12114,-0.54649 -0.13501,-0.82918 -0.003,-0.0628 -0.005,-0.1259 -0.005,-0.18919 0,-0.0289 4.4e-4,-0.0577 9.9e-4,-0.0865 2.2e-4,-0.009 5.6e-4,-0.0182 7.8e-4,-0.0273 5.6e-4,-0.02 10e-4,-0.04 0.002,-0.0598 4.4e-4,-0.0103 0.001,-0.0206 0.002,-0.0309 0.001,-0.0195 0.002,-0.0392 0.004,-0.0586 6.7e-4,-0.01 9.9e-4,-0.019 0.002,-0.0284 0.002,-0.0269 0.004,-0.0536 0.007,-0.0804 4.5e-4,-0.005 8.9e-4,-0.009 10e-4,-0.0138 0.003,-0.0249 0.005,-0.0497 0.008,-0.0745 9.9e-4,-0.0106 0.003,-0.0211 0.004,-0.0316 0.002,-0.0178 0.005,-0.0354 0.007,-0.053 0.002,-0.0117 0.003,-0.0233 0.005,-0.035 0.003,-0.017 0.005,-0.0341 0.008,-0.0511 0.002,-0.0112 0.004,-0.0225 0.006,-0.0337 0.004,-0.0217 0.008,-0.0434 0.0122,-0.0651 0.003,-0.013 0.005,-0.026 0.008,-0.039 0.004,-0.0192 0.008,-0.0383 0.0123,-0.0574 0.003,-0.0123 0.006,-0.0248 0.009,-0.0371 0.004,-0.0151 0.007,-0.0301 0.0109,-0.0452 0.003,-0.0129 0.007,-0.0259 0.01,-0.0387 0.004,-0.0148 0.008,-0.0294 0.0118,-0.0441 0.003,-0.0127 0.007,-0.0253 0.0105,-0.038 0.005,-0.0179 0.0104,-0.0356 0.0158,-0.0534 0.005,-0.018 0.011,-0.036 0.0168,-0.0539 0.0348,-0.10914 0.0744,-0.21706 0.11924,-0.32321 0.18887,-0.44656 0.45934,-0.84771 0.80398,-1.19224 0.0394,-0.0394 0.0796,-0.0778 0.12047,-0.11525 0.0118,-0.0106 0.0235,-0.0212 0.0353,-0.0318 0.01,-0.009 0.019,-0.0171 0.0286,-0.0254 0.0118,-0.0103 0.0237,-0.0205 0.0356,-0.0307 0.01,-0.008 0.0196,-0.0168 0.0295,-0.025 0.0119,-0.01 0.0238,-0.0199 0.0358,-0.0297 0.0102,-0.008 0.0204,-0.0164 0.0306,-0.0245 0.0119,-0.01 0.0239,-0.0191 0.036,-0.0285 0.0105,-0.008 0.0212,-0.0163 0.0319,-0.0244 0.0119,-0.009 0.0238,-0.0181 0.0358,-0.0271 0.0113,-0.008 0.0228,-0.0166 0.0342,-0.0249 0.0115,-0.008 0.023,-0.0169 0.0346,-0.0251 0.0168,-0.0119 0.0339,-0.0235 0.0508,-0.0352 0.0151,-0.0103 0.0303,-0.0204 0.0455,-0.0305 0.014,-0.009 0.028,-0.0185 0.0422,-0.0276 0.0108,-0.007 0.0217,-0.0137 0.0325,-0.0205 0.0133,-0.008 0.0266,-0.0168 0.0401,-0.025 0.0111,-0.007 0.0223,-0.0133 0.0334,-0.02 0.0136,-0.008 0.027,-0.0161 0.0405,-0.024 0.0112,-0.006 0.0224,-0.0128 0.0336,-0.0191 0.0139,-0.008 0.0278,-0.0155 0.0416,-0.0232 0.0111,-0.006 0.0223,-0.0122 0.0334,-0.0182 0.0144,-0.008 0.0289,-0.0152 0.0433,-0.0228 0.0109,-0.006 0.0218,-0.0112 0.0327,-0.0168 0.0153,-0.008 0.0306,-0.0153 0.0461,-0.0229 0.0103,-0.005 0.0205,-0.0101 0.0309,-0.0151 0.0171,-0.008 0.0345,-0.0162 0.0519,-0.0242 0.009,-0.004 0.0174,-0.008 0.026,-0.012 0.0262,-0.0118 0.0524,-0.0233 0.0791,-0.0345 0.46199,-0.19542 0.9532,-0.29457 1.45961,-0.29457 0.50652,0 0.99762,0.0992 1.45973,0.29457 0.0265,0.0112 0.0528,0.0228 0.0789,0.0345 0.009,0.004 0.0173,0.008 0.0261,0.012 0.0172,0.008 0.0346,0.016 0.052,0.0242 0.0104,0.005 0.0205,0.0101 0.031,0.0151 0.0154,0.008 0.0308,0.0151 0.0461,0.0229 0.0109,0.006 0.0218,0.0111 0.0327,0.0168 0.0144,0.008 0.0289,0.0151 0.0432,0.0228 0.0112,0.006 0.0223,0.0121 0.0334,0.0182 0.014,0.008 0.0279,0.0153 0.0418,0.0232 0.0112,0.006 0.0224,0.0127 0.0335,0.0191 0.0136,0.008 0.0271,0.0159 0.0405,0.024 0.0112,0.007 0.0223,0.0132 0.0334,0.02 0.0134,0.008 0.0267,0.0166 0.0401,0.025 0.0109,0.007 0.0219,0.0136 0.0326,0.0205 0.0141,0.009 0.0281,0.0183 0.0421,0.0276 0.0154,0.0102 0.0309,0.0205 0.0462,0.031 0.0169,0.0114 0.0336,0.023 0.0504,0.0348 0.0117,0.008 0.0231,0.0168 0.0346,0.0251 0.0114,0.008 0.0229,0.0165 0.0341,0.0249 0.0121,0.009 0.024,0.0181 0.0359,0.0272 0.0106,0.008 0.0213,0.0161 0.0319,0.0243 0.0121,0.009 0.024,0.0189 0.036,0.0284 0.0102,0.008 0.0204,0.0164 0.0307,0.0247 0.012,0.01 0.0239,0.0196 0.0357,0.0297 0.01,0.008 0.0198,0.0166 0.0297,0.025 0.0119,0.0102 0.0237,0.0204 0.0354,0.0307 0.01,0.008 0.0191,0.0169 0.0288,0.0254 0.0118,0.0105 0.0235,0.0211 0.0352,0.0318 0.041,0.0374 0.0812,0.0758 0.12058,0.11525 0.34453,0.34453 0.615,0.74568 0.80386,1.19224 0.045,0.10626 0.0846,0.21418 0.11936,0.32332 0.006,0.0179 0.0112,0.0356 0.0164,0.0535 0.005,0.0179 0.0108,0.0358 0.0159,0.0536 0.004,0.0127 0.007,0.0253 0.0106,0.038 0.004,0.0147 0.008,0.0293 0.0118,0.0441 0.003,0.0129 0.007,0.0259 0.01,0.0389 0.004,0.015 0.007,0.03 0.0109,0.0451 0.003,0.0123 0.006,0.0248 0.009,0.0371 0.004,0.0191 0.008,0.0382 0.0123,0.0574 0.003,0.013 0.005,0.026 0.008,0.039 0.004,0.0216 0.008,0.0434 0.0122,0.0651 0.002,0.0112 0.004,0.0225 0.006,0.0337 0.003,0.017 0.006,0.0341 0.008,0.0511 0.002,0.0117 0.004,0.0233 0.005,0.035 0.003,0.0175 0.005,0.0352 0.007,0.053 0.001,0.0105 0.003,0.0211 0.004,0.0316 0.003,0.0248 0.006,0.0496 0.008,0.0745 5.6e-4,0.005 0.001,0.009 0.001,0.0138 0.003,0.0268 0.005,0.0535 0.007,0.0804 6.6e-4,0.009 9.9e-4,0.0189 0.002,0.0284 0.001,0.0194 0.003,0.0391 0.004,0.0586 5.6e-4,0.0102 0.001,0.0205 0.002,0.0309 8.9e-4,0.0199 0.002,0.0399 0.002,0.0598 2.2e-4,0.009 5.5e-4,0.0182 7.7e-4,0.0273 6.6e-4,0.0288 9.9e-4,0.0576 9.9e-4,0.0865 0,0.0633 -0.002,0.12635 -0.005,0.18919 -0.0148,0.29834 -0.0645,0.59057 -0.14823,0.87392 -0.0397,0.13435 -0.0866,0.26658 -0.14179,0.3966 -0.10614,0.25115 -0.23827,0.48798 -0.39482,0.70848 -0.1217,0.17143 -0.25826,0.33298 -0.40904,0.48376 z m 1.95015,-2.88422 c -0.002,-0.0385 -0.004,-0.0771 -0.007,-0.11548 -9.9e-4,-0.0192 -0.003,-0.0383 -0.005,-0.0575 -0.0415,-0.47887 -0.157,-0.94442 -0.34475,-1.38843 -0.005,-0.0109 -0.009,-0.0216 -0.014,-0.0325 -1.1e-4,0 -1.1e-4,1.1e-4 -2.2e-4,1.1e-4 -0.23139,-0.53561 -0.55849,-1.01737 -0.97308,-1.43206 -0.002,-0.002 -0.003,-0.003 -0.005,-0.005 0,0 1.1e-4,0 1.1e-4,0 -0.007,-0.007 -0.0137,-0.0132 -0.0203,-0.0198 -0.0194,-0.0192 -0.0389,-0.0383 -0.0586,-0.0571 -0.007,-0.007 -0.0141,-0.0131 -0.0211,-0.0196 -0.02,-0.0189 -0.0401,-0.0378 -0.0605,-0.0562 -0.007,-0.006 -0.014,-0.0124 -0.021,-0.0187 -0.0207,-0.0186 -0.0412,-0.037 -0.0622,-0.0551 -0.007,-0.006 -0.0143,-0.012 -0.0214,-0.0181 -0.021,-0.0179 -0.042,-0.0359 -0.0633,-0.0534 -0.007,-0.006 -0.0145,-0.0115 -0.0216,-0.0173 -0.0214,-0.0175 -0.0429,-0.035 -0.0646,-0.052 -0.007,-0.006 -0.0148,-0.0113 -0.0222,-0.0171 -0.0218,-0.0168 -0.0435,-0.0336 -0.0655,-0.0501 -0.008,-0.006 -0.0159,-0.0114 -0.0237,-0.0172 -0.0219,-0.016 -0.0436,-0.0321 -0.0657,-0.0478 -0.008,-0.006 -0.0167,-0.0114 -0.025,-0.0173 -0.0219,-0.0152 -0.0436,-0.0305 -0.0657,-0.0454 -0.009,-0.006 -0.0183,-0.012 -0.0275,-0.018 -0.0214,-0.0143 -0.043,-0.0285 -0.0646,-0.0424 -0.0101,-0.006 -0.0204,-0.0126 -0.0305,-0.0191 -0.021,-0.0131 -0.042,-0.0264 -0.0632,-0.0392 -0.0111,-0.007 -0.0224,-0.0132 -0.0336,-0.0199 -0.0204,-0.0121 -0.0409,-0.0243 -0.0614,-0.0362 -0.0126,-0.007 -0.0253,-0.014 -0.038,-0.0211 -0.0194,-0.0109 -0.0389,-0.022 -0.0586,-0.0326 -0.0144,-0.008 -0.0292,-0.0153 -0.0437,-0.023 -0.018,-0.01 -0.036,-0.0192 -0.0541,-0.0285 -0.017,-0.009 -0.0343,-0.017 -0.0514,-0.0255 -0.0161,-0.008 -0.0319,-0.0159 -0.0479,-0.0237 -0.0212,-0.0102 -0.0426,-0.02 -0.064,-0.0298 -0.0123,-0.006 -0.0244,-0.0115 -0.0368,-0.0171 -0.0337,-0.0153 -0.0677,-0.0302 -0.10204,-0.0446 -0.56836,-0.24038 -1.17182,-0.36229 -1.7937,-0.36229 -0.62178,0 -1.22534,0.12191 -1.79371,0.36229 -0.0342,0.0144 -0.0682,0.0293 -0.10204,0.0446 -0.0125,0.006 -0.025,0.0117 -0.0374,0.0174 -0.0211,0.01 -0.0423,0.0193 -0.0632,0.0294 -0.0164,0.008 -0.0328,0.0162 -0.0492,0.0243 -0.0165,0.008 -0.0335,0.0164 -0.0502,0.0249 -0.0182,0.009 -0.0364,0.0191 -0.0545,0.0288 -0.0144,0.008 -0.029,0.015 -0.0434,0.0228 -0.0198,0.0108 -0.0394,0.0219 -0.0591,0.0329 -0.0124,0.007 -0.025,0.0138 -0.0374,0.0209 -0.0206,0.0119 -0.0411,0.0242 -0.0616,0.0363 -0.0111,0.007 -0.0224,0.013 -0.0334,0.0198 -0.0212,0.0128 -0.0422,0.0261 -0.0632,0.0392 -0.0101,0.006 -0.0204,0.0126 -0.0305,0.0191 -0.0219,0.0139 -0.0434,0.0283 -0.0651,0.0426 -0.009,0.006 -0.0181,0.0118 -0.0271,0.0178 -0.0221,0.0149 -0.044,0.0302 -0.0658,0.0455 -0.008,0.006 -0.0167,0.0114 -0.025,0.0172 -0.0221,0.0158 -0.0441,0.0319 -0.0659,0.048 -0.008,0.006 -0.0156,0.0112 -0.0233,0.017 -0.022,0.0164 -0.0439,0.0333 -0.0656,0.0502 -0.007,0.006 -0.0148,0.0112 -0.0221,0.017 -0.0219,0.0171 -0.0434,0.0346 -0.065,0.0521 -0.007,0.006 -0.0143,0.0114 -0.0213,0.0172 -0.0214,0.0177 -0.0425,0.0356 -0.0636,0.0537 -0.007,0.006 -0.0142,0.0118 -0.0211,0.0178 -0.0211,0.0182 -0.0418,0.0368 -0.0625,0.0553 -0.007,0.006 -0.0139,0.0122 -0.0208,0.0184 -0.0204,0.0185 -0.0405,0.0375 -0.0607,0.0564 -0.007,0.007 -0.014,0.0129 -0.0209,0.0194 -0.0198,0.0189 -0.0393,0.0381 -0.0587,0.0573 -0.007,0.007 -0.0134,0.0129 -0.0202,0.0196 0,0 0,0 0,0 -0.002,0.002 -0.003,0.003 -0.005,0.005 -0.4146,0.41469 -0.74169,0.89645 -0.97308,1.43206 -1.3e-4,0 -1.3e-4,-1.1e-4 -2.2e-4,-1.1e-4 -0.005,0.0109 -0.009,0.0216 -0.014,0.0325 -0.18787,0.44401 -0.30334,0.90956 -0.34487,1.38843 -0.002,0.0192 -0.003,0.0383 -0.005,0.0575 -0.003,0.0384 -0.005,0.0769 -0.007,0.11548 -0.004,0.0772 -0.006,0.15455 -0.006,0.23227 0,0.0777 0.002,0.15522 0.006,0.23227 0.002,0.0386 0.004,0.0771 0.007,0.11548 0.001,0.0192 0.003,0.0384 0.005,0.0575 0.0415,0.47898 0.157,0.94442 0.34487,1.38843 0.23205,0.54871 0.56425,1.04146 0.98729,1.46448 0.42302,0.42302 0.91577,0.75523 1.46449,0.98739 0.56837,0.24038 1.17193,0.36218 1.79371,0.36218 0.62189,0 1.22534,-0.1218 1.79371,-0.36218 0.54883,-0.23216 1.04148,-0.56437 1.46461,-0.98739 0.42303,-0.42302 0.75512,-0.91577 0.98729,-1.46448 0.18775,-0.44401 0.30322,-0.90945 0.34475,-1.38843 0.002,-0.0191 0.003,-0.0383 0.005,-0.0575 0.003,-0.0384 0.005,-0.0768 0.007,-0.11548 0.004,-0.0771 0.006,-0.15455 0.006,-0.23227 0,-0.0777 -0.002,-0.15511 -0.006,-0.23227"
       style="fill:#c0c7ce;fill-opacity:1;fill-rule:nonzero;stroke:none;stroke-width:0.00111031"
       id="path22" />
  </g>
</svg>
