<svg width="370" height="136" viewBox="0 0 370 136" fill="none" xmlns="http://www.w3.org/2000/svg">
<g opacity="0.4">
<mask id="path-1-outside-1_8312_6446" maskUnits="userSpaceOnUse" x="-1" y="-1" width="372" height="139" fill="black">
<rect fill="white" x="-1" y="-1" width="372" height="139"/>
<path d="M96.43 0.19999L96.43 136L81.88 136L81.88 72.95L14.95 72.95L14.95 136L0.400001 136L0.4 0.199991L14.95 0.199991L14.95 60.34L81.88 60.34L81.88 0.19999L96.43 0.19999ZM154.691 101.08L143.051 136L128.501 136L128.501 130.18L176.031 0.199989L192.521 0.199989L240.051 130.18L240.051 136L225.501 136L213.861 101.08L154.691 101.08ZM209.011 88.47L184.761 17.66L183.791 17.66L159.541 88.47L209.011 88.47ZM335.202 71.98L286.702 71.98L286.702 123.39L335.202 123.39C337.918 123.39 340.44 123.002 342.768 121.838C345.096 120.868 347.036 119.51 348.782 117.764C350.528 116.018 351.886 113.884 353.05 111.556C354.02 109.228 354.602 106.706 354.602 103.99L354.602 91.38C354.602 88.664 354.02 86.142 353.05 83.814C351.886 81.486 350.528 79.546 348.782 77.8C347.036 76.054 345.096 74.696 342.768 73.532C340.44 72.562 337.918 71.98 335.202 71.98ZM345.872 63.25L345.872 64.22C350.14 65.19 354.02 66.742 357.512 69.07C360.616 71.204 363.332 73.92 365.66 77.412C367.988 80.904 369.152 85.56 369.152 91.38L369.152 103.99C369.152 108.646 368.182 112.914 366.63 116.794C365.078 120.674 362.75 124.166 359.84 126.882C356.736 129.792 353.244 132.12 348.976 133.672C344.708 135.224 340.246 136 335.202 136L272.152 136L272.152 0.199989L328.412 0.199988C333.456 0.199988 337.918 1.16999 342.186 2.72199C346.454 4.27399 349.946 6.60199 353.05 9.31799C355.96 12.228 358.288 15.526 359.84 19.406C361.392 23.286 362.362 27.554 362.362 32.21L362.362 39.97C362.362 45.014 361.392 48.894 359.84 51.804C358.094 54.908 356.154 57.236 354.214 58.788C351.692 60.922 348.976 62.474 345.872 63.25ZM328.412 12.81L286.702 12.81L286.702 59.37L328.412 59.37C331.128 59.37 333.65 58.982 335.978 57.818C338.306 56.848 340.246 55.49 341.992 53.744C343.738 51.998 345.096 49.864 346.26 47.536C347.23 45.208 347.812 42.686 347.812 39.97L347.812 32.21C347.812 29.494 347.23 26.972 346.26 24.644C345.096 22.316 343.738 20.376 341.992 18.63C340.246 16.884 338.306 15.526 335.978 14.362C333.65 13.392 331.128 12.81 328.412 12.81Z"/>
</mask>
<path d="M96.43 0.19999L97.5669 0.19999L97.5669 -0.936935L96.43 -0.936935L96.43 0.19999ZM96.43 136L96.43 137.137L97.5669 137.137L97.5669 136L96.43 136ZM81.88 136L80.7431 136L80.7431 137.137L81.88 137.137L81.88 136ZM81.88 72.95L83.0169 72.95L83.0169 71.8131L81.88 71.8131L81.88 72.95ZM14.95 72.95L14.95 71.8131L13.8131 71.8131L13.8131 72.95L14.95 72.95ZM14.95 136L14.95 137.137L16.0869 137.137L16.0869 136L14.95 136ZM0.400001 136L-0.736924 136L-0.736924 137.137L0.400001 137.137L0.400001 136ZM0.4 0.199991L0.4 -0.936935L-0.736925 -0.936935L-0.736925 0.199991L0.4 0.199991ZM14.95 0.199991L16.0869 0.199991L16.0869 -0.936935L14.95 -0.936935L14.95 0.199991ZM14.95 60.34L13.8131 60.34L13.8131 61.4769L14.95 61.4769L14.95 60.34ZM81.88 60.34L81.88 61.4769L83.0169 61.4769L83.0169 60.34L81.88 60.34ZM81.88 0.199991L81.88 -0.936935L80.7431 -0.936935L80.7431 0.199991L81.88 0.199991ZM95.2931 0.19999L95.2931 136L97.5669 136L97.5669 0.19999L95.2931 0.19999ZM96.43 134.863L81.88 134.863L81.88 137.137L96.43 137.137L96.43 134.863ZM83.0169 136L83.0169 72.95L80.7431 72.95L80.7431 136L83.0169 136ZM81.88 71.8131L14.95 71.8131L14.95 74.0869L81.88 74.0869L81.88 71.8131ZM13.8131 72.95L13.8131 136L16.0869 136L16.0869 72.95L13.8131 72.95ZM14.95 134.863L0.400001 134.863L0.400001 137.137L14.95 137.137L14.95 134.863ZM1.53693 136L1.53693 0.199991L-0.736925 0.199991L-0.736924 136L1.53693 136ZM0.4 1.33692L14.95 1.33692L14.95 -0.936935L0.4 -0.936935L0.4 1.33692ZM13.8131 0.199991L13.8131 60.34L16.0869 60.34L16.0869 0.199991L13.8131 0.199991ZM14.95 61.4769L81.88 61.4769L81.88 59.2031L14.95 59.2031L14.95 61.4769ZM83.0169 60.34L83.0169 0.199991L80.7431 0.199991L80.7431 60.34L83.0169 60.34ZM81.88 1.33692L96.43 1.33692L96.43 -0.936935L81.88 -0.936935L81.88 1.33692ZM154.691 101.08L154.691 99.9431L153.871 99.9431L153.612 100.72L154.691 101.08ZM143.051 136L143.051 137.137L143.87 137.137L144.129 136.36L143.051 136ZM128.501 136L127.364 136L127.364 137.137L128.501 137.137L128.501 136ZM128.501 130.18L127.433 129.79L127.364 129.979L127.364 130.18L128.501 130.18ZM176.031 0.19999L176.031 -0.936936L175.236 -0.936936L174.963 -0.190465L176.031 0.19999ZM192.521 0.19999L193.588 -0.190465L193.315 -0.936936L192.521 -0.936936L192.521 0.19999ZM240.051 130.18L241.188 130.18L241.188 129.979L241.118 129.79L240.051 130.18ZM240.051 136L240.051 137.137L241.188 137.137L241.188 136L240.051 136ZM225.501 136L224.422 136.36L224.681 137.137L225.501 137.137L225.501 136ZM213.861 101.08L214.939 100.72L214.68 99.9431L213.861 99.9431L213.861 101.08ZM209.011 88.47L209.011 89.6069L210.602 89.6069L210.086 88.1016L209.011 88.47ZM184.761 17.66L185.836 17.2916L185.573 16.5231L184.761 16.5231L184.761 17.66ZM183.791 17.66L183.791 16.5231L182.978 16.5231L182.715 17.2916L183.791 17.66ZM159.541 88.47L158.465 88.1016L157.95 89.6069L159.541 89.6069L159.541 88.47ZM153.612 100.72L141.972 135.64L144.129 136.36L155.769 101.44L153.612 100.72ZM143.051 134.863L128.501 134.863L128.501 137.137L143.051 137.137L143.051 134.863ZM129.638 136L129.638 130.18L127.364 130.18L127.364 136L129.638 136ZM129.568 130.57L177.098 0.590444L174.963 -0.190465L127.433 129.79L129.568 130.57ZM176.031 1.33691L192.521 1.33691L192.521 -0.936936L176.031 -0.936936L176.031 1.33691ZM191.453 0.590444L238.983 130.57L241.118 129.79L193.588 -0.190465L191.453 0.590444ZM238.914 130.18L238.914 136L241.188 136L241.188 130.18L238.914 130.18ZM240.051 134.863L225.501 134.863L225.501 137.137L240.051 137.137L240.051 134.863ZM226.579 135.64L214.939 100.72L212.782 101.44L224.422 136.36L226.579 135.64ZM213.861 99.9431L154.691 99.9431L154.691 102.217L213.861 102.217L213.861 99.9431ZM210.086 88.1016L185.836 17.2916L183.685 18.0284L207.935 88.8384L210.086 88.1016ZM184.761 16.5231L183.791 16.5231L183.791 18.7969L184.761 18.7969L184.761 16.5231ZM182.715 17.2916L158.465 88.1016L160.616 88.8384L184.866 18.0284L182.715 17.2916ZM159.541 89.6069L209.011 89.6069L209.011 87.3331L159.541 87.3331L159.541 89.6069ZM286.702 71.98L286.702 70.8431L285.565 70.8431L285.565 71.98L286.702 71.98ZM286.702 123.39L285.565 123.39L285.565 124.527L286.702 124.527L286.702 123.39ZM342.768 121.838L342.33 120.789L342.294 120.804L342.259 120.821L342.768 121.838ZM348.782 117.764L349.585 118.568L348.782 117.764ZM353.05 111.556L354.066 112.064L354.084 112.029L354.099 111.993L353.05 111.556ZM353.05 83.814L354.099 83.3767L354.084 83.3406L354.066 83.3055L353.05 83.814ZM348.782 77.8L349.585 76.9961L348.782 77.8ZM342.768 73.532L343.276 72.5151L343.241 72.4976L343.205 72.4825L342.768 73.532ZM345.872 63.25L345.596 62.147L344.735 62.3623L344.735 63.25L345.872 63.25ZM345.872 64.22L344.735 64.22L344.735 65.1275L345.62 65.3286L345.872 64.22ZM357.512 69.07L358.156 68.1331L358.149 68.1285L358.142 68.124L357.512 69.07ZM365.66 77.412L364.714 78.0426L365.66 77.412ZM366.63 116.794L365.574 116.372L366.63 116.794ZM359.84 126.882L359.064 126.051L359.062 126.053L359.84 126.882ZM348.976 133.672L349.364 134.74L348.976 133.672ZM272.152 136L271.015 136L271.015 137.137L272.152 137.137L272.152 136ZM272.152 0.199989L272.152 -0.936936L271.015 -0.936936L271.015 0.199989L272.152 0.199989ZM342.186 2.72199L342.574 1.65352V1.65352L342.186 2.72199ZM353.05 9.31799L353.853 8.51406L353.827 8.48729L353.798 8.46236L353.05 9.31799ZM359.84 19.406L360.895 18.9838L359.84 19.406ZM359.84 51.804L360.83 52.3614L360.837 52.3503L360.843 52.339L359.84 51.804ZM354.214 58.788L353.503 57.9002L353.491 57.91L353.479 57.9201L354.214 58.788ZM286.702 12.81L286.702 11.6731L285.565 11.6731L285.565 12.81L286.702 12.81ZM286.702 59.37L285.565 59.37L285.565 60.5069L286.702 60.5069L286.702 59.37ZM335.978 57.818L335.54 56.7685L335.504 56.7836L335.469 56.8011L335.978 57.818ZM341.992 53.744L341.188 52.9401L341.992 53.744ZM346.26 47.536L347.276 48.0444L347.294 48.0094L347.309 47.9733L346.26 47.536ZM346.26 24.644L347.309 24.2067L347.294 24.1706L347.276 24.1355L346.26 24.644ZM341.992 18.63L341.188 19.4339L341.188 19.4339L341.992 18.63ZM335.978 14.362L336.486 13.3451L336.451 13.3276L336.415 13.3125L335.978 14.362ZM335.202 70.8431L286.702 70.8431L286.702 73.1169L335.202 73.1169L335.202 70.8431ZM285.565 71.98L285.565 123.39L287.838 123.39L287.838 71.98L285.565 71.98ZM286.702 124.527L335.202 124.527L335.202 122.253L286.702 122.253L286.702 124.527ZM335.202 124.527C338.023 124.527 340.737 124.124 343.276 122.855L342.259 120.821C340.142 121.88 337.812 122.253 335.202 122.253L335.202 124.527ZM343.205 122.887C345.683 121.855 347.745 120.409 349.585 118.568L347.978 116.96C346.327 118.611 344.509 119.881 342.33 120.789L343.205 122.887ZM349.585 118.568C351.448 116.705 352.871 114.455 354.066 112.064L352.033 111.048C350.9 113.313 349.607 115.331 347.978 116.96L349.585 118.568ZM354.099 111.993C355.12 109.543 355.738 106.873 355.738 103.99L353.465 103.99C353.465 106.539 352.919 108.913 352 111.119L354.099 111.993ZM355.738 103.99L355.738 91.38L353.465 91.38L353.465 103.99L355.738 103.99ZM355.738 91.38C355.738 88.4973 355.12 85.827 354.099 83.3767L352 84.2513C352.919 86.457 353.465 88.8307 353.465 91.38L355.738 91.38ZM354.066 83.3055C352.854 80.8808 351.427 78.8379 349.585 76.9961L347.978 78.6039C349.628 80.2541 350.917 82.0912 352.033 84.3224L354.066 83.3055ZM349.585 76.9961C347.744 75.1543 345.701 73.7275 343.276 72.5151L342.259 74.5489C344.49 75.6645 346.327 76.9537 347.978 78.6039L349.585 76.9961ZM343.205 72.4825C340.755 71.4616 338.084 70.8431 335.202 70.8431L335.202 73.1169C337.751 73.1169 340.125 73.6624 342.33 74.5815L343.205 72.4825ZM344.735 63.25L344.735 64.22L347.008 64.22L347.008 63.25L344.735 63.25ZM345.62 65.3286C349.775 66.2731 353.522 67.7767 356.881 70.016L358.142 68.124C354.517 65.7073 350.504 64.1069 346.124 63.1113L345.62 65.3286ZM356.867 70.0069C359.85 72.0574 362.464 74.6688 364.714 78.0426L366.606 76.7813C364.199 73.1712 361.381 70.3505 358.156 68.1331L356.867 70.0069ZM364.714 78.0426C366.878 81.2885 368.015 85.7006 368.015 91.38L370.288 91.38C370.288 85.4194 369.098 80.5195 366.606 76.7813L364.714 78.0426ZM368.015 91.38L368.015 103.99L370.288 103.99L370.288 91.38L368.015 91.38ZM368.015 103.99C368.015 108.484 367.079 112.609 365.574 116.372L367.685 117.216C369.284 113.219 370.288 108.808 370.288 103.99L368.015 103.99ZM365.574 116.372C364.079 120.11 361.842 123.458 359.064 126.051L360.615 127.713C363.657 124.874 366.076 121.238 367.685 117.216L365.574 116.372ZM359.062 126.053C356.053 128.874 352.69 131.112 348.587 132.604L349.364 134.74C353.797 133.128 357.418 130.71 360.617 127.711L359.062 126.053ZM348.587 132.604C344.452 134.107 340.122 134.863 335.202 134.863L335.202 137.137C340.369 137.137 344.963 136.341 349.364 134.74L348.587 132.604ZM335.202 134.863L272.152 134.863L272.152 137.137L335.202 137.137L335.202 134.863ZM273.288 136L273.288 0.199989L271.015 0.199989L271.015 136L273.288 136ZM272.152 1.33691L328.412 1.33691L328.412 -0.936937L272.152 -0.936936L272.152 1.33691ZM328.412 1.33691C333.301 1.33691 337.631 2.27563 341.797 3.79047L342.574 1.65352C338.204 0.0643467 333.61 -0.936937 328.412 -0.936937L328.412 1.33691ZM341.797 3.79046C345.902 5.28332 349.275 7.52616 352.301 10.1736L353.798 8.46236C350.616 5.67782 347.005 3.26467 342.574 1.65352L341.797 3.79046ZM352.246 10.1219C355.064 12.9401 357.297 16.112 358.784 19.8282L360.895 18.9838C359.278 14.94 356.855 11.5159 353.853 8.51406L352.246 10.1219ZM358.784 19.8282C360.289 23.5909 361.225 27.7159 361.225 32.21L363.498 32.21C363.498 27.3921 362.494 22.9811 360.895 18.9838L358.784 19.8282ZM361.225 32.21L361.225 39.97L363.498 39.97L363.498 32.21L361.225 32.21ZM361.225 39.97C361.225 44.8706 360.282 48.558 358.836 51.269L360.843 52.339C362.501 49.23 363.498 45.1573 363.498 39.97L361.225 39.97ZM358.849 51.2466C357.157 54.2546 355.305 56.4592 353.503 57.9002L354.924 59.6758C357.003 58.0127 359.03 55.5614 360.83 52.3614L358.849 51.2466ZM353.479 57.9201C351.059 59.9676 348.496 61.422 345.596 62.147L346.147 64.353C349.455 63.526 352.324 61.8764 354.948 59.6559L353.479 57.9201ZM328.412 11.6731L286.702 11.6731L286.702 13.9469L328.412 13.9469L328.412 11.6731ZM285.565 12.81L285.565 59.37L287.838 59.37L287.838 12.81L285.565 12.81ZM286.702 60.5069L328.412 60.5069L328.412 58.2331L286.702 58.2331L286.702 60.5069ZM328.412 60.5069C331.233 60.5069 333.947 60.1044 336.486 58.8349L335.469 56.8011C333.352 57.8596 331.022 58.2331 328.412 58.2331L328.412 60.5069ZM336.415 58.8675C338.893 57.8351 340.955 56.3888 342.796 54.5479L341.188 52.9401C339.536 54.5912 337.719 55.8609 335.54 56.7685L336.415 58.8675ZM342.795 54.5479C344.658 52.6849 346.081 50.4348 347.276 48.0444L345.243 47.0275C344.11 49.2932 342.817 51.3111 341.188 52.9401L342.795 54.5479ZM347.309 47.9733C348.33 45.5229 348.948 42.8527 348.948 39.97L346.675 39.97C346.675 42.5193 346.129 44.893 345.21 47.0987L347.309 47.9733ZM348.948 39.97L348.948 32.21L346.675 32.21L346.675 39.97L348.948 39.97ZM348.948 32.21C348.948 29.3272 348.33 26.657 347.309 24.2067L345.21 25.0813C346.129 27.2869 346.675 29.6607 346.675 32.21L348.948 32.21ZM347.276 24.1355C346.064 21.7108 344.637 19.6679 342.795 17.8261L341.188 19.4339C342.838 21.0841 344.127 22.9212 345.243 25.1524L347.276 24.1355ZM342.796 17.8261C340.954 15.9843 338.911 14.5575 336.486 13.3451L335.469 15.3789C337.7 16.4945 339.537 17.7837 341.188 19.4339L342.796 17.8261ZM336.415 13.3125C333.965 12.2916 331.294 11.6731 328.412 11.6731L328.412 13.9469C330.961 13.9469 333.335 14.4924 335.54 15.4115L336.415 13.3125Z" fill="#A2EAC4" mask="url(#path-1-outside-1_8312_6446)"/>
</g>
</svg>
