<svg width="328" height="335" viewBox="0 0 328 335" fill="none" xmlns="http://www.w3.org/2000/svg">
<path d="M42.3019 221.312C58.3832 217.671 68.4683 201.683 64.8277 185.602C61.187 169.52 45.1991 159.435 29.1178 163.076C13.0365 166.717 2.95136 182.704 6.59204 198.786C10.2327 214.867 26.2206 224.952 42.3019 221.312Z" fill="#A2EAC4"/>
<path d="M50.8228 192.866C50.8228 184.574 44.2643 177.815 36.0548 177.477V177.313H44.0545C43.4433 173.081 39.822 169.824 35.4163 169.824C31.0196 169.824 27.3892 173.081 26.7781 177.313H34.7778V177.477C26.5683 177.815 20.0098 184.574 20.0098 192.866C20.0098 198.311 22.8375 203.091 27.0973 205.827L25.0632 211.857C24.8807 212.413 25.1726 213.006 25.7291 213.198C25.8385 213.234 25.9571 213.252 26.0666 213.252C26.5044 213.252 26.9149 212.979 27.0699 212.532L28.9764 206.858C30.9375 207.761 33.1176 208.272 35.4163 208.272C37.6146 208.272 39.7126 207.807 41.6008 206.977L43.4707 212.532C43.6167 212.97 44.0271 213.252 44.4741 213.252C44.5835 213.252 44.7021 213.234 44.8116 213.198C45.368 213.015 45.6599 212.413 45.4775 211.857L43.4981 205.983C47.8947 203.264 50.8228 198.412 50.8228 192.866ZM35.4254 205.125C28.6662 205.125 23.1659 199.625 23.1659 192.866C23.1659 186.106 28.6662 180.606 35.4254 180.606C42.1846 180.606 47.6849 186.106 47.6849 192.866C47.694 199.625 42.1937 205.125 35.4254 205.125Z" fill="#323838"/>
<path d="M35.4252 191.443C35.4069 191.443 35.3887 191.452 35.3613 191.452L31.2839 184.985C31.0741 184.657 30.6454 184.556 30.3171 184.766C29.9887 184.976 29.8883 185.405 30.0981 185.733L34.1755 192.2C34.0661 192.401 34.0022 192.62 34.0022 192.866C34.0022 193.395 34.2941 193.851 34.7228 194.098V199.488C34.7228 199.881 35.0421 200.191 35.4252 200.191C35.8174 200.191 36.1276 199.872 36.1276 199.488V194.098C36.5563 193.851 36.8482 193.395 36.8482 192.866C36.8573 192.082 36.2188 191.443 35.4252 191.443Z" fill="#323838"/>
<path d="M306.424 213.308C318.083 201.649 318.083 182.746 306.424 171.087C294.765 159.428 275.861 159.428 264.202 171.087C252.543 182.746 252.543 201.649 264.202 213.308C275.862 224.967 294.765 224.967 306.424 213.308Z" fill="#A2EAC4"/>
<path d="M296.641 188.118C297.117 187.56 297.589 186.998 298.067 186.439L297.386 179.272C296.401 179.536 296.004 180.902 296.084 181.798L296.641 188.118ZM297.469 205.604L291.425 207.517L291.9 209.022L297.945 207.11L297.469 205.604ZM299.396 204.995L298.063 205.416L298.541 206.921L299.874 206.499L299.396 204.995ZM297.874 204.82L299.207 204.399L298.731 202.893L297.399 203.314L297.874 204.82ZM291.237 206.921L297.279 205.008L296.804 203.502L290.759 205.415L291.237 206.921ZM274.688 188.118L275.244 181.799C275.323 180.902 274.929 179.536 273.942 179.273L273.26 186.44C273.738 186.997 274.21 187.559 274.688 188.118ZM273.86 205.604L273.382 207.11L279.426 209.022L279.902 207.517L273.86 205.604ZM271.931 204.995L271.456 206.498L272.786 206.921L273.264 205.415L271.931 204.995ZM273.452 204.82L273.928 203.314L272.595 202.893L272.119 204.399L273.452 204.82ZM280.092 206.921L280.567 205.415L274.523 203.502L274.047 205.008L280.092 206.921ZM273.804 195.229L270.844 189.898C270.328 188.966 270.55 187.892 271.025 187.123C271.353 186.592 271.993 185.95 272.67 186.059L273.374 178.651C273.531 176.999 272.38 175.833 271.645 176.122C271.377 176.229 271.151 176.541 271.045 177.11L268.807 189.249C268.608 191.533 270.102 193.927 271.508 196.178C272.958 198.501 274.317 200.682 273.786 202.614L280.012 204.585C281.163 202.419 281.659 200.3 281.301 198.208C280.603 194.11 276.963 191.719 274.417 188.761C274.256 188.573 272.752 186.802 272.752 186.802C272.38 186.367 271.745 187.143 271.555 187.448C271.181 188.055 270.999 188.889 271.388 189.594L274.349 194.928C274.548 195.285 274.003 195.588 273.804 195.229ZM291.808 187.673C291.453 187.673 291.164 187.961 291.164 188.317C291.164 188.671 291.453 188.961 291.808 188.961C292.164 188.961 292.452 188.671 292.452 188.317C292.452 187.961 292.165 187.673 291.808 187.673ZM279.036 187.673C278.679 187.673 278.391 187.961 278.391 188.317C278.391 188.671 278.679 188.961 279.036 188.961C279.392 188.961 279.68 188.671 279.68 188.317C279.68 187.961 279.393 187.673 279.036 187.673ZM279.036 187.046C279.642 187.046 280.163 187.476 280.28 188.069L281.608 188.061L283.107 183.823C283.218 183.51 283.677 183.568 283.712 183.894L284.923 190.602L286.457 185.966C286.559 185.656 287.009 185.693 287.062 186.013L288.067 189.923L289.11 188.151C289.128 188.12 289.174 188.023 289.377 187.997H290.579C290.726 187.439 291.23 187.047 291.808 187.047C292.51 187.047 293.079 187.616 293.079 188.318C293.079 189.017 292.509 189.586 291.808 189.586C291.225 189.586 290.717 189.188 290.577 188.623H289.554L288.221 190.888C288.082 191.125 287.721 191.079 287.652 190.808L286.716 187.169L285.13 191.962C285.029 192.265 284.583 192.236 284.528 191.917L283.303 185.138L282.121 188.475C282.079 188.596 281.964 188.682 281.829 188.682L280.248 188.691C280.084 189.22 279.592 189.585 279.035 189.585C278.335 189.585 277.766 189.016 277.766 188.317C277.767 187.615 278.336 187.046 279.036 187.046ZM285.664 196.389C289.37 194.611 293.358 191.155 294.771 187.197C295.534 185.061 295.459 182.868 293.803 181.273C291.265 178.824 286.421 180.09 285.974 184.087C285.932 184.456 285.39 184.45 285.352 184.084C284.931 180.153 280.1 178.787 277.523 181.273C275.868 182.869 275.794 185.061 276.556 187.197C277.969 191.155 281.956 194.611 285.664 196.389ZM297.523 195.229C297.324 195.588 296.779 195.285 296.979 194.928L299.939 189.594C300.331 188.89 300.147 188.055 299.772 187.448C299.582 187.143 298.947 186.368 298.574 186.802C298.574 186.802 297.073 188.573 296.909 188.761C294.363 191.719 290.723 194.111 290.026 198.208C289.67 200.3 290.163 202.419 291.317 204.585L297.54 202.614C297.009 200.681 298.37 198.5 299.818 196.178C301.227 193.926 302.718 191.533 302.522 189.249L300.281 177.11C300.177 176.541 299.949 176.229 299.681 176.122C298.946 175.833 297.795 177 297.952 178.651L298.655 186.059C299.335 185.95 299.973 186.592 300.3 187.123C300.776 187.892 300.998 188.965 300.482 189.898L297.523 195.229Z" fill="#323838"/>
<path d="M72.313 134.937C78.8689 119.808 71.9195 102.23 56.7913 95.674C41.663 89.1181 24.0845 96.0674 17.5286 111.196C10.9728 126.324 17.9221 143.902 33.0504 150.458C48.1787 157.014 65.7571 150.065 72.313 134.937Z" fill="#A2EAC4"/>
<path d="M56.1651 135.306C62.0737 135.306 66.8635 129.818 66.8635 123.048C66.8635 116.279 62.0737 110.791 56.1651 110.791C50.2566 110.791 45.4668 116.279 45.4668 123.048C45.4668 129.818 50.2566 135.306 56.1651 135.306Z" fill="#323838"/>
<path d="M56.1643 135.695C50.0521 135.695 45.0762 130.022 45.0762 123.048C45.0762 116.073 50.0521 110.4 56.1643 110.4C62.2764 110.4 67.2524 116.073 67.2524 123.048C67.2524 130.022 62.2764 135.695 56.1643 135.695ZM56.1643 111.18C50.4751 111.18 45.8557 116.504 45.8557 123.048C45.8557 129.591 50.4834 134.915 56.1643 134.915C61.8452 134.915 66.4728 129.591 66.4728 123.048C66.4728 116.504 61.8452 111.18 56.1643 111.18Z" fill="#A2EAC4"/>
<path d="M52.669 135.306C58.5776 135.306 63.3674 129.818 63.3674 123.048C63.3674 116.279 58.5776 110.791 52.669 110.791C46.7605 110.791 41.9707 116.279 41.9707 123.048C41.9707 129.818 46.7605 135.306 52.669 135.306Z" fill="#323838"/>
<path d="M52.6682 135.695C46.556 135.695 41.5801 130.022 41.5801 123.048C41.5801 116.073 46.556 110.4 52.6682 110.4C58.7803 110.4 63.7563 116.073 63.7563 123.048C63.7563 130.022 58.7803 135.695 52.6682 135.695ZM52.6682 111.18C46.979 111.18 42.3596 116.504 42.3596 123.048C42.3596 129.591 46.9873 134.915 52.6682 134.915C58.3574 134.915 62.9767 129.591 62.9767 123.048C62.9767 116.504 58.3491 111.18 52.6682 111.18Z" fill="#A2EAC4"/>
<path d="M53.8273 124.41H31.8418V120.91H53.8273C54.7976 120.91 55.5772 121.698 55.5772 122.66C55.5772 123.622 54.7976 124.41 53.8273 124.41Z" fill="#323838"/>
<path d="M53.8264 124.799H31.4512V120.52H53.8264C55.0041 120.52 55.9661 121.482 55.9661 122.659C55.9661 123.837 55.0124 124.799 53.8264 124.799ZM32.2307 124.019H53.8264C54.5811 124.019 55.1865 123.406 55.1865 122.659C55.1865 121.913 54.5728 121.299 53.8264 121.299H32.2307V124.019Z" fill="#A2EAC4"/>
<path d="M37.0987 135.306C43.0072 135.306 47.7971 129.818 47.7971 123.048C47.7971 116.279 43.0072 110.791 37.0987 110.791C31.1902 110.791 26.4004 116.279 26.4004 123.048C26.4004 129.818 31.1902 135.306 37.0987 135.306Z" fill="#323838"/>
<path d="M37.0979 135.695C30.9857 135.695 26.0098 130.022 26.0098 123.048C26.0098 116.073 30.9857 110.4 37.0979 110.4C43.21 110.4 48.186 116.073 48.186 123.048C48.186 130.022 43.21 135.695 37.0979 135.695ZM37.0979 111.18C31.4087 111.18 26.7893 116.504 26.7893 123.048C26.7893 129.591 31.417 134.915 37.0979 134.915C42.7871 134.915 47.4064 129.591 47.4064 123.048C47.4064 116.504 42.7788 111.18 37.0979 111.18Z" fill="#A2EAC4"/>
<path d="M33.5929 135.306C39.5014 135.306 44.2912 129.818 44.2912 123.048C44.2912 116.279 39.5014 110.791 33.5929 110.791C27.6843 110.791 22.8945 116.279 22.8945 123.048C22.8945 129.818 27.6843 135.306 33.5929 135.306Z" fill="#323838"/>
<path d="M33.592 135.695C27.4799 135.695 22.5039 130.022 22.5039 123.048C22.5039 116.073 27.4799 110.4 33.592 110.4C39.7042 110.4 44.6801 116.073 44.6801 123.048C44.6884 130.022 39.7125 135.695 33.592 135.695ZM33.592 111.18C27.9028 111.18 23.2835 116.504 23.2835 123.048C23.2835 129.591 27.9111 134.915 33.592 134.915C39.2812 134.915 43.9006 129.591 43.9006 123.048C43.9089 116.504 39.2812 111.18 33.592 111.18Z" fill="#A2EAC4"/>
<path d="M37.4978 123.047C37.4978 125.518 35.7479 127.525 33.5917 127.525C31.4354 127.525 29.6855 125.518 29.6855 123.047C29.6855 120.575 31.4354 118.568 33.5917 118.568C35.7479 118.568 37.4978 120.575 37.4978 123.047Z" fill="#323838"/>
<path d="M33.5908 127.906C31.219 127.906 29.2949 125.725 29.2949 123.038C29.2949 120.359 31.219 118.17 33.5908 118.17C35.9627 118.17 37.8868 120.351 37.8868 123.038C37.8868 125.725 35.9627 127.906 33.5908 127.906ZM33.5908 118.958C31.6502 118.958 30.0745 120.791 30.0745 123.046C30.0745 125.302 31.6502 127.135 33.5908 127.135C35.5315 127.135 37.1072 125.302 37.1072 123.046C37.1072 120.791 35.5315 118.958 33.5908 118.958Z" fill="#A2EAC4"/>
<path d="M35.949 123.047C35.949 125.518 34.1991 127.525 32.0429 127.525C29.8866 127.525 28.1367 125.518 28.1367 123.047C28.1367 120.575 29.8866 118.568 32.0429 118.568C34.1991 118.568 35.949 120.575 35.949 123.047Z" fill="#323838"/>
<path d="M32.042 127.906C29.6701 127.906 27.7461 125.725 27.7461 123.038C27.7461 120.359 29.6701 118.17 32.042 118.17C34.4139 118.17 36.3379 120.351 36.3379 123.038C36.3379 125.725 34.4056 127.906 32.042 127.906ZM32.042 118.958C30.1014 118.958 28.5257 120.791 28.5257 123.046C28.5257 125.302 30.1014 127.135 32.042 127.135C33.9826 127.135 35.5584 125.302 35.5584 123.046C35.5584 120.791 33.9743 118.958 32.042 118.958Z" fill="#A2EAC4"/>
<path d="M292.777 152.137C308.837 148.401 318.827 132.353 315.091 116.293C311.355 100.233 295.307 90.2426 279.247 93.9789C263.187 97.7153 253.197 113.763 256.933 129.823C260.669 145.883 276.717 155.873 292.777 152.137Z" fill="#A2EAC4"/>
<path d="M285.384 141.012H286.844V141.599C286.844 141.791 286.767 141.975 286.631 142.111C286.494 142.246 286.308 142.323 286.114 142.323C285.921 142.323 285.735 142.246 285.598 142.111C285.461 141.975 285.384 141.791 285.384 141.599V141.012ZM283.686 139.154C283.686 139.353 283.766 139.544 283.908 139.685C284.05 139.826 284.242 139.906 284.443 139.906H287.785C287.986 139.906 288.179 139.826 288.321 139.685C288.463 139.544 288.543 139.353 288.543 139.154V138.403H283.685L283.686 139.154ZM286.114 107.66C286.188 107.66 286.26 107.646 286.328 107.618C286.395 107.59 286.457 107.549 286.509 107.498C286.561 107.447 286.602 107.386 286.63 107.318C286.658 107.251 286.672 107.179 286.672 107.107V104.565C286.672 104.418 286.613 104.278 286.509 104.174C286.404 104.07 286.262 104.012 286.114 104.012C285.966 104.012 285.825 104.07 285.72 104.174C285.615 104.278 285.557 104.418 285.557 104.565V107.107C285.557 107.253 285.615 107.394 285.72 107.498C285.825 107.602 285.966 107.66 286.114 107.66ZM275.671 130.782L273.859 132.579C273.759 132.684 273.705 132.823 273.706 132.968C273.708 133.112 273.767 133.25 273.87 133.352C273.973 133.454 274.112 133.512 274.257 133.514C274.402 133.516 274.543 133.461 274.648 133.362L276.46 131.565C276.564 131.461 276.623 131.32 276.623 131.173C276.623 131.027 276.564 130.886 276.46 130.782C276.355 130.678 276.213 130.62 276.065 130.62C275.917 130.62 275.776 130.678 275.671 130.782ZM275.671 111.627C275.776 111.73 275.918 111.789 276.066 111.789C276.214 111.789 276.355 111.73 276.46 111.627C276.565 111.523 276.623 111.382 276.623 111.235C276.623 111.088 276.565 110.948 276.46 110.844L274.649 109.047C274.543 108.947 274.403 108.893 274.257 108.895C274.112 108.897 273.973 108.955 273.87 109.057C273.768 109.159 273.709 109.297 273.707 109.441C273.705 109.585 273.76 109.725 273.86 109.829L275.671 111.627ZM271.903 120.651H269.341C269.193 120.651 269.051 120.71 268.947 120.814C268.842 120.917 268.783 121.058 268.783 121.205C268.783 121.351 268.842 121.492 268.947 121.596C269.051 121.7 269.193 121.758 269.341 121.758H271.903C272.051 121.758 272.193 121.7 272.297 121.596C272.402 121.492 272.461 121.351 272.461 121.205C272.461 121.058 272.402 120.917 272.297 120.814C272.193 120.71 272.051 120.651 271.903 120.651ZM297.58 109.047L295.769 110.845C295.717 110.896 295.676 110.957 295.648 111.024C295.62 111.091 295.606 111.163 295.606 111.236C295.606 111.309 295.62 111.381 295.648 111.448C295.676 111.515 295.717 111.576 295.769 111.627C295.821 111.679 295.882 111.72 295.95 111.747C296.018 111.775 296.09 111.789 296.164 111.789C296.237 111.789 296.309 111.775 296.377 111.747C296.445 111.72 296.506 111.679 296.558 111.627L298.37 109.83C298.474 109.726 298.533 109.585 298.533 109.439C298.533 109.292 298.474 109.151 298.37 109.047C298.265 108.944 298.123 108.885 297.975 108.885C297.827 108.885 297.685 108.944 297.58 109.047ZM296.558 130.782C296.453 130.678 296.311 130.62 296.163 130.62C296.015 130.62 295.873 130.678 295.769 130.782C295.664 130.886 295.605 131.027 295.605 131.173C295.605 131.32 295.664 131.461 295.769 131.565L297.58 133.362C297.685 133.465 297.827 133.524 297.975 133.524C298.123 133.524 298.264 133.465 298.369 133.362C298.474 133.258 298.532 133.117 298.532 132.97C298.532 132.824 298.474 132.683 298.369 132.579L296.558 130.782ZM302.888 120.651H300.326C300.178 120.651 300.036 120.71 299.931 120.814C299.827 120.917 299.768 121.058 299.768 121.205C299.768 121.351 299.827 121.492 299.931 121.596C300.036 121.7 300.178 121.758 300.326 121.758H302.888C303.036 121.758 303.178 121.7 303.282 121.596C303.387 121.492 303.446 121.351 303.446 121.205C303.446 121.058 303.387 120.917 303.282 120.814C303.178 120.71 303.036 120.651 302.888 120.651ZM282.788 135.868C282.788 136.018 282.848 136.163 282.956 136.269C283.063 136.376 283.209 136.436 283.36 136.436H288.868C289.02 136.436 289.166 136.376 289.273 136.269C289.381 136.163 289.441 136.018 289.441 135.868V134.773H282.788V135.868ZM297.012 121.253C297.006 123.133 296.509 124.98 295.569 126.613C294.629 128.246 293.277 129.609 291.647 130.568C291.077 130.892 290.589 131.338 290.217 131.875C289.845 132.411 289.599 133.023 289.498 133.667H282.73C282.629 133.023 282.383 132.411 282.011 131.874C281.639 131.338 281.151 130.892 280.581 130.568C278.936 129.607 277.575 128.234 276.634 126.587C275.692 124.939 275.203 123.076 275.216 121.182C275.228 119.289 275.742 117.431 276.706 115.797C277.669 114.162 279.049 112.807 280.706 111.868C282.363 110.928 284.24 110.437 286.149 110.443C288.058 110.449 289.932 110.952 291.583 111.903C293.234 112.853 294.604 114.217 295.557 115.858C296.51 117.499 297.011 119.359 297.012 121.253ZM292.431 123.69C292.746 123.2 292.91 122.63 292.901 122.049C292.915 121.637 292.837 121.227 292.674 120.847C292.511 120.468 292.266 120.129 291.956 119.854C291.984 119.262 291.786 118.681 291.402 118.226C291.552 117.728 291.499 117.191 291.253 116.732C291.007 116.272 290.589 115.927 290.088 115.772C289.932 115.466 289.715 115.195 289.451 114.973C289.187 114.752 288.882 114.585 288.552 114.482C288.136 114.341 287.691 114.302 287.256 114.37C286.822 114.438 286.41 114.61 286.058 114.871C285.706 114.61 285.295 114.439 284.861 114.371C284.427 114.303 283.982 114.341 283.566 114.482C283.237 114.585 282.931 114.752 282.667 114.973C282.403 115.195 282.187 115.466 282.03 115.772C281.53 115.927 281.111 116.272 280.865 116.732C280.619 117.191 280.566 117.728 280.716 118.226C280.332 118.681 280.134 119.262 280.162 119.854C279.853 120.129 279.608 120.468 279.444 120.847C279.281 121.227 279.203 121.637 279.217 122.049C279.209 122.63 279.372 123.2 279.687 123.69C279.594 123.982 279.562 124.29 279.591 124.596C279.621 124.901 279.712 125.197 279.86 125.467C280.159 125.999 280.648 126.402 281.23 126.596C281.372 126.995 281.597 127.361 281.891 127.667C282.185 127.974 282.542 128.216 282.937 128.375C283.745 128.713 284.369 128.721 284.903 128.398C285.26 128.211 285.657 128.113 286.061 128.113C286.464 128.113 286.862 128.211 287.219 128.398C287.476 128.556 287.773 128.638 288.076 128.635C288.459 128.622 288.835 128.534 289.184 128.375C289.579 128.216 289.936 127.974 290.23 127.668C290.524 127.361 290.75 126.995 290.891 126.596C291.474 126.402 291.962 125.999 292.261 125.467C292.408 125.197 292.499 124.9 292.528 124.595C292.557 124.29 292.524 123.982 292.431 123.69ZM290.529 124.403C290.559 124.469 290.602 124.529 290.655 124.579C290.709 124.628 290.772 124.667 290.84 124.692C290.909 124.718 290.982 124.73 291.055 124.727C291.128 124.725 291.2 124.708 291.267 124.678C291.311 124.658 291.354 124.637 291.396 124.614C291.374 124.727 291.334 124.837 291.279 124.939C291.177 125.113 291.04 125.262 290.875 125.377C290.71 125.492 290.522 125.571 290.323 125.607C290.219 125.628 290.122 125.68 290.046 125.754C289.97 125.829 289.917 125.923 289.893 126.027C289.826 126.325 289.687 126.602 289.487 126.833C289.287 127.065 289.033 127.244 288.747 127.356C288.09 127.631 287.892 127.511 287.796 127.453C287.263 127.163 286.665 127.011 286.058 127.011C285.45 127.011 284.852 127.163 284.319 127.453C284.224 127.511 284.025 127.631 283.368 127.356C283.082 127.244 282.828 127.065 282.628 126.833C282.428 126.602 282.289 126.325 282.222 126.027C282.199 125.923 282.146 125.828 282.07 125.753C281.993 125.678 281.897 125.627 281.792 125.605C281.594 125.569 281.405 125.491 281.241 125.375C281.076 125.26 280.938 125.111 280.837 124.938C280.78 124.836 280.74 124.726 280.716 124.612C280.758 124.634 280.799 124.656 280.846 124.676C280.98 124.737 281.133 124.742 281.272 124.69C281.41 124.638 281.522 124.535 281.583 124.401C281.644 124.268 281.65 124.116 281.598 123.978C281.546 123.841 281.442 123.73 281.307 123.669C281.002 123.525 280.746 123.294 280.572 123.006C280.398 122.719 280.313 122.387 280.327 122.051C280.327 121.412 280.612 120.805 280.986 120.637C281.103 120.585 281.199 120.494 281.257 120.379C281.314 120.264 281.33 120.133 281.3 120.008C281.237 119.734 281.27 119.448 281.393 119.195C281.517 118.942 281.723 118.739 281.978 118.618C282.092 118.564 282.185 118.474 282.24 118.362C282.296 118.25 282.311 118.122 282.285 118C282.258 117.878 282.19 117.769 282.093 117.69C281.995 117.611 281.873 117.567 281.748 117.565C281.768 117.372 281.853 117.19 281.99 117.051C282.127 116.911 282.307 116.822 282.502 116.796C282.602 116.783 282.696 116.742 282.774 116.68C282.853 116.617 282.913 116.534 282.948 116.441C283.026 116.227 283.153 116.034 283.319 115.877C283.485 115.72 283.684 115.602 283.903 115.534C283.915 115.531 285.097 115.17 285.577 115.994C285.625 116.078 285.696 116.148 285.781 116.196C285.865 116.245 285.962 116.271 286.06 116.271C286.157 116.271 286.254 116.245 286.338 116.196C286.423 116.148 286.494 116.078 286.543 115.994C287.022 115.17 288.204 115.531 288.216 115.534C288.435 115.602 288.635 115.72 288.801 115.877C288.966 116.034 289.093 116.227 289.172 116.441C289.206 116.534 289.266 116.617 289.345 116.68C289.424 116.742 289.518 116.783 289.618 116.796C289.811 116.824 289.989 116.914 290.125 117.053C290.26 117.192 290.345 117.372 290.365 117.565C290.239 117.566 290.117 117.61 290.019 117.689C289.922 117.768 289.854 117.878 289.827 118C289.8 118.122 289.816 118.25 289.872 118.362C289.928 118.474 290.02 118.564 290.134 118.618C290.389 118.739 290.596 118.942 290.719 119.195C290.842 119.448 290.875 119.734 290.812 120.008C290.783 120.133 290.798 120.264 290.856 120.379C290.913 120.493 291.009 120.585 291.127 120.637C291.5 120.805 291.784 121.412 291.785 122.051C291.8 122.387 291.715 122.719 291.541 123.006C291.366 123.294 291.111 123.525 290.805 123.669C290.738 123.699 290.678 123.742 290.628 123.795C290.578 123.848 290.539 123.911 290.513 123.979C290.487 124.047 290.476 124.12 290.478 124.193C290.481 124.265 290.498 124.337 290.529 124.403ZM283.435 122.413C283.438 122.582 283.407 122.75 283.342 122.907C283.278 123.064 283.182 123.206 283.061 123.325C283.009 123.376 282.968 123.437 282.94 123.504C282.912 123.571 282.898 123.643 282.898 123.716C282.898 123.789 282.912 123.861 282.94 123.928C282.968 123.995 283.009 124.056 283.061 124.107C283.113 124.159 283.174 124.199 283.242 124.227C283.31 124.255 283.382 124.269 283.455 124.269C283.529 124.269 283.601 124.255 283.669 124.227C283.737 124.199 283.798 124.159 283.85 124.107C284.163 123.8 284.384 123.411 284.486 122.986C284.589 122.56 284.57 122.115 284.431 121.7C284.821 121.249 285.052 120.686 285.092 120.093C285.097 120.021 285.088 119.948 285.066 119.879C285.043 119.81 285.006 119.746 284.958 119.691C284.911 119.636 284.852 119.591 284.787 119.558C284.722 119.525 284.65 119.506 284.577 119.5C284.504 119.495 284.431 119.504 284.361 119.527C284.292 119.549 284.227 119.585 284.172 119.633C284.116 119.68 284.071 119.738 284.038 119.803C284.005 119.868 283.985 119.938 283.98 120.011C283.968 120.237 283.908 120.459 283.803 120.66C283.697 120.861 283.549 121.037 283.369 121.177C283.119 121.365 282.825 121.486 282.514 121.529C282.431 121.545 282.348 121.563 282.26 121.585C282.186 121.599 282.115 121.629 282.052 121.671C281.99 121.714 281.937 121.768 281.896 121.832C281.855 121.895 281.828 121.966 281.816 122.041C281.804 122.115 281.808 122.191 281.826 122.264C281.845 122.337 281.878 122.405 281.924 122.465C281.971 122.524 282.029 122.574 282.095 122.611C282.161 122.647 282.234 122.67 282.309 122.678C282.385 122.686 282.461 122.678 282.533 122.656C282.597 122.64 282.666 122.626 282.738 122.611C282.977 122.57 283.21 122.504 283.435 122.413ZM285.67 125.662C285.605 125.414 285.478 125.187 285.3 125.002C285.122 124.816 284.901 124.678 284.655 124.6C284.409 124.523 284.148 124.508 283.895 124.557C283.642 124.606 283.405 124.718 283.208 124.882C283.094 124.976 283.023 125.111 283.01 125.257C282.996 125.404 283.042 125.549 283.137 125.662C283.232 125.774 283.368 125.845 283.515 125.858C283.663 125.871 283.809 125.826 283.923 125.732C283.976 125.687 284.04 125.657 284.109 125.643C284.178 125.63 284.249 125.634 284.315 125.655C284.382 125.676 284.442 125.714 284.49 125.764C284.538 125.814 284.573 125.876 284.591 125.943C284.622 126.061 284.692 126.166 284.79 126.24C284.888 126.315 285.007 126.355 285.131 126.355C285.179 126.355 285.227 126.349 285.273 126.336C285.416 126.299 285.538 126.207 285.613 126.081C285.687 125.954 285.708 125.803 285.67 125.662ZM286.723 118.703C286.933 118.578 287.181 118.534 287.421 118.579C287.564 118.611 287.696 118.681 287.801 118.781C287.907 118.882 287.983 119.01 288.02 119.151C288.051 119.269 288.121 119.373 288.219 119.448C288.317 119.522 288.437 119.563 288.56 119.563C288.608 119.563 288.656 119.557 288.703 119.544C288.846 119.507 288.968 119.414 289.042 119.287C289.117 119.16 289.137 119.01 289.099 118.868C289.014 118.549 288.847 118.259 288.615 118.024C288.823 117.816 288.987 117.569 289.097 117.298C289.148 117.163 289.143 117.013 289.084 116.881C289.025 116.749 288.917 116.645 288.782 116.591C288.647 116.538 288.496 116.538 288.361 116.593C288.227 116.648 288.119 116.753 288.062 116.886C287.956 117.147 287.751 117.357 287.491 117.47C287.044 117.421 286.593 117.511 286.2 117.729C286.157 117.754 286.108 117.767 286.058 117.767C286.008 117.767 285.959 117.754 285.916 117.729C285.523 117.511 285.072 117.421 284.624 117.47C284.365 117.357 284.16 117.147 284.054 116.886C283.997 116.753 283.889 116.648 283.755 116.593C283.62 116.538 283.469 116.538 283.334 116.591C283.199 116.645 283.091 116.749 283.032 116.881C282.973 117.013 282.969 117.163 283.019 117.298C283.129 117.568 283.292 117.815 283.498 118.022C283.266 118.257 283.099 118.548 283.014 118.866C282.976 119.008 282.997 119.159 283.071 119.286C283.146 119.413 283.268 119.506 283.411 119.543C283.554 119.581 283.707 119.561 283.835 119.487C283.963 119.413 284.056 119.292 284.094 119.15C284.131 119.009 284.207 118.881 284.312 118.78C284.418 118.68 284.549 118.609 284.693 118.578C284.933 118.533 285.181 118.577 285.391 118.701C285.595 118.812 285.824 118.87 286.057 118.87C286.289 118.87 286.519 118.812 286.723 118.703ZM288.905 124.882C288.708 124.718 288.471 124.606 288.218 124.557C287.965 124.508 287.704 124.523 287.458 124.601C287.213 124.678 286.991 124.816 286.814 125.002C286.636 125.187 286.509 125.414 286.443 125.661C286.425 125.731 286.42 125.805 286.43 125.877C286.44 125.949 286.464 126.018 286.501 126.081C286.538 126.144 286.587 126.199 286.645 126.243C286.704 126.287 286.77 126.319 286.841 126.337C286.912 126.356 286.986 126.36 287.059 126.35C287.131 126.341 287.201 126.317 287.265 126.28C287.328 126.243 287.383 126.195 287.428 126.137C287.472 126.079 287.504 126.013 287.523 125.943C287.541 125.875 287.575 125.814 287.624 125.764C287.672 125.714 287.732 125.676 287.798 125.655C287.865 125.634 287.936 125.63 288.004 125.643C288.073 125.657 288.137 125.687 288.191 125.732C288.305 125.821 288.45 125.863 288.594 125.849C288.739 125.834 288.872 125.764 288.966 125.653C289.059 125.542 289.105 125.399 289.094 125.255C289.083 125.112 289.015 124.978 288.906 124.882L288.905 124.882ZM289.688 121.547L289.599 121.529C289.288 121.487 288.993 121.365 288.743 121.177C288.563 121.038 288.415 120.861 288.31 120.66C288.205 120.459 288.145 120.238 288.133 120.011C288.122 119.865 288.053 119.729 287.941 119.633C287.829 119.537 287.683 119.49 287.536 119.501C287.388 119.512 287.251 119.58 287.154 119.691C287.058 119.803 287.01 119.947 287.021 120.094C287.06 120.686 287.292 121.25 287.682 121.7C287.543 122.115 287.524 122.561 287.626 122.986C287.729 123.412 287.95 123.8 288.263 124.108C288.314 124.163 288.375 124.207 288.444 124.238C288.513 124.268 288.587 124.285 288.662 124.286C288.737 124.288 288.812 124.274 288.882 124.246C288.952 124.219 289.015 124.177 289.068 124.124C289.122 124.071 289.163 124.008 289.191 123.939C289.219 123.869 289.233 123.795 289.231 123.721C289.229 123.646 289.212 123.572 289.181 123.504C289.15 123.436 289.105 123.375 289.05 123.325C288.929 123.206 288.833 123.064 288.769 122.907C288.704 122.751 288.673 122.583 288.676 122.413C288.9 122.505 289.134 122.572 289.372 122.614L289.456 122.631C289.494 122.639 289.532 122.643 289.571 122.643C289.71 122.644 289.843 122.593 289.946 122.501C290.048 122.41 290.113 122.283 290.127 122.147C290.142 122.011 290.104 121.874 290.023 121.763C289.941 121.653 289.821 121.576 289.686 121.548L289.688 121.547Z" fill="#323838"/>
<path d="M97.0196 95.3147C113.079 91.5784 123.07 75.5304 119.333 59.4705C115.597 43.4106 99.549 33.4204 83.4892 37.1567C67.4293 40.893 57.439 56.941 61.1754 73.0009C64.9117 89.0608 80.9597 99.051 97.0196 95.3147Z" fill="#A2EAC4"/>
<path d="M100.812 67.0838C101.39 67.0834 101.964 66.9814 102.508 66.7824V77.5995C102.508 77.8044 102.426 78.0009 102.281 78.1458C102.136 78.2907 101.94 78.3721 101.735 78.3721H75.2255C75.0205 78.3721 74.824 78.2907 74.6791 78.1458C74.5342 78.0009 74.4528 77.8044 74.4528 77.5995V66.7824C74.9961 66.9814 75.5702 67.0834 76.1488 67.0838H80.0622V69.2008C80.0622 69.4057 80.1436 69.6023 80.2885 69.7472C80.4334 69.8921 80.6299 69.9735 80.8349 69.9735C81.0398 69.9735 81.2363 69.8921 81.3812 69.7472C81.5261 69.6023 81.6075 69.4057 81.6075 69.2008V67.0838H95.3529V69.2008C95.3529 69.4057 95.4343 69.6023 95.5792 69.7472C95.7241 69.8921 95.9206 69.9735 96.1255 69.9735C96.3304 69.9735 96.527 69.8921 96.6719 69.7472C96.8167 69.6023 96.8982 69.4057 96.8982 69.2008V67.0838H100.812ZM82.6854 53.4234C82.6854 53.2185 82.7668 53.022 82.9117 52.8771C83.0566 52.7322 83.2531 52.6508 83.458 52.6508H93.5024C93.7073 52.6508 93.9038 52.7322 94.0487 52.8771C94.1936 53.022 94.275 53.2185 94.275 53.4234V54.5824H95.8203V53.4234C95.8203 52.8086 95.5761 52.2191 95.1414 51.7844C94.7067 51.3497 94.1171 51.1055 93.5024 51.1055H83.458C82.8432 51.1055 82.2537 51.3497 81.819 51.7844C81.3843 52.2191 81.1401 52.8086 81.1401 53.4234V54.5824H82.6854V53.4234ZM103.5 56.1277H73.4445C73.2396 56.1277 73.0431 56.2091 72.8982 56.354C72.7533 56.4989 72.6719 56.6954 72.6719 56.9003V62.0616C72.6719 62.9837 73.0382 63.8681 73.6902 64.5201C74.3423 65.1722 75.2266 65.5385 76.1488 65.5385H80.0622V63.8502C80.0622 63.6453 80.1436 63.4488 80.2885 63.3039C80.4334 63.159 80.6299 63.0776 80.8349 63.0776C81.0398 63.0776 81.2363 63.159 81.3812 63.3039C81.5261 63.4488 81.6075 63.6453 81.6075 63.8502V65.5385H95.3529V63.8502C95.3529 63.6453 95.4343 63.4488 95.5792 63.3039C95.7241 63.159 95.9206 63.0776 96.1255 63.0776C96.3304 63.0776 96.527 63.159 96.6719 63.3039C96.8167 63.4488 96.8982 63.6453 96.8982 63.8502V65.5385H100.812C101.734 65.5385 102.618 65.1722 103.27 64.5201C103.922 63.8681 104.288 62.9837 104.288 62.0616V56.9003C104.288 56.6954 104.207 56.4989 104.062 56.354C103.917 56.2091 103.721 56.1277 103.516 56.1277H103.5Z" fill="#323838"/>
<mask id="path-25-outside-1_8377_2514" maskUnits="userSpaceOnUse" x="94.3867" y="68.2617" width="15" height="15" fill="black">
<rect fill="white" x="94.3867" y="68.2617" width="15" height="15"/>
<path fill-rule="evenodd" clip-rule="evenodd" d="M99.1227 75.742C99.0901 75.8044 99.0134 75.8288 98.9507 75.7969C98.888 75.7645 98.8634 75.6881 98.8955 75.6258C99.0505 75.3289 99.0982 75.1119 99.0495 74.9397C99.0013 74.7706 98.8534 74.6294 98.6171 74.4862C98.5569 74.4498 98.5378 74.3715 98.5744 74.3116C98.611 74.2517 98.6898 74.2328 98.75 74.2692C99.3751 74.6489 99.4739 75.07 99.1227 75.742ZM99.8 78.6707C99.7704 78.8353 99.5191 78.7904 99.5487 78.6258C99.6585 78.0196 99.3515 77.7287 98.746 77.618C98.5804 77.5875 98.6271 77.3381 98.7921 77.368C99.5341 77.5037 99.9364 77.9223 99.8 78.6707ZM99.5306 80.0058C99.4664 79.9763 99.4383 79.901 99.4679 79.8371C99.4975 79.7733 99.5732 79.7453 99.6374 79.7748C100.257 80.0592 100.6 79.8661 100.766 79.218C100.806 79.0613 101.051 79.1092 101.014 79.2823C100.958 79.5877 100.925 79.8102 100.975 79.9519C101.02 80.0756 101.15 80.1519 101.43 80.1944C101.597 80.2193 101.558 80.4713 101.392 80.4463C100.957 80.381 100.747 80.2198 100.703 79.91C100.385 80.2487 99.944 80.1954 99.5306 80.0058ZM99.6691 73.1227C99.6144 73.0783 99.6068 72.9984 99.6515 72.9441C99.6961 72.8897 99.7769 72.8822 99.8311 72.9266C100.348 73.3502 101.121 72.8533 100.936 72.2316C100.889 72.0715 101.134 71.9991 101.182 72.1598C101.281 72.496 101.183 72.8223 100.95 73.0528C101.623 73.3646 101.628 74.3814 100.851 74.7112C100.786 74.7386 100.711 74.7087 100.683 74.6438C100.656 74.5795 100.686 74.5046 100.751 74.4772C101.202 74.2861 101.312 73.7667 101.053 73.4464C100.971 73.3446 100.851 73.2673 100.696 73.2344C100.572 73.2962 100.434 73.3332 100.292 73.3377C100.08 73.3451 99.8617 73.2808 99.6691 73.1227ZM104.074 73.5457C103.638 73.6879 103.23 73.2589 103.435 72.8622C103.593 72.5569 104.018 72.4945 104.269 72.7265L104.954 72.3394L105.835 71.5855C105.313 71.2732 104.544 71.2537 104.149 71.7487C104.105 71.8035 104.025 71.813 103.969 71.7691C103.914 71.7257 103.905 71.6454 103.949 71.5905C104.08 71.4259 104.246 71.3051 104.432 71.2258C104.187 70.0533 103.081 70.0334 102.309 70.7289V75.6761L103.598 74.7261C103.623 74.7082 103.651 74.7002 103.679 74.7012L105.492 74.7047C105.583 74.3929 105.953 74.2507 106.245 74.4004C106.644 74.6049 106.594 75.1617 106.166 75.3009C105.887 75.3917 105.57 75.2445 105.49 74.9586L103.716 74.9551L102.308 75.9924V81.7684C103.074 82.4589 104.184 82.4604 104.429 81.279C104.251 81.1966 104.088 81.0759 103.953 80.9128C103.945 80.9038 103.938 80.8938 103.932 80.8828L103.524 80.0421C103.516 80.0252 103.511 80.0067 103.511 79.9868C103.512 79.8695 103.513 79.2199 103.521 79.1875C103.205 79.1142 103.026 78.7814 103.176 78.491C103.379 78.0984 103.984 78.1343 104.137 78.5439C104.242 78.8253 104.062 79.1197 103.769 79.1875C103.78 79.2329 103.761 79.9359 103.767 79.9583L104.156 80.7591C104.36 81.0011 104.644 81.1278 104.944 81.1537C105.45 81.1976 105.978 80.9592 106.272 80.5356C106.466 80.2552 106.562 79.8855 106.485 79.4445L106.439 79.2454C106.173 79.2738 105.884 79.2683 105.573 79.2219C105.406 79.197 105.444 78.9455 105.611 78.97C106.331 79.0777 107.139 78.963 107.637 78.4516C107.796 78.2875 107.905 78.0969 107.951 77.8973L105.818 77.9028C105.782 77.9033 105.746 77.8888 105.72 77.8599L105.138 77.2043C104.864 77.3281 104.526 77.2053 104.421 76.9234C104.262 76.4979 104.745 76.1117 105.162 76.3252C105.437 76.4659 105.521 76.8032 105.338 77.0462L105.873 77.6494L107.975 77.6444C107.954 77.0661 107.427 76.6021 106.608 76.3726C106.484 76.3377 106.484 76.1621 106.609 76.1277C107.367 75.9146 107.784 75.5379 107.923 75.1358C108.059 74.7437 107.926 74.3455 107.637 74.0482C107.138 73.5368 106.331 73.4221 105.611 73.5298C105.444 73.5548 105.406 73.3028 105.573 73.2779C105.884 73.2315 106.173 73.226 106.439 73.2544C106.613 72.6702 106.469 72.1079 106.047 71.7417L105.112 72.5419L104.404 72.9445C104.485 73.2 104.329 73.4624 104.074 73.5457L104.074 73.5457ZM99.9335 81.2774C100.179 82.4589 101.289 82.4574 102.055 81.7669V70.7273C101.283 70.0318 100.178 70.0518 99.9321 71.2242C100.118 71.3035 100.284 71.4248 100.415 71.5889C100.459 71.6438 100.45 71.7236 100.395 71.7675C100.339 71.8114 100.259 71.802 100.215 71.7471C99.5297 70.8894 97.6104 71.5126 97.8783 73.0518L97.9244 73.2508C98.1898 73.2224 98.4793 73.2274 98.7903 73.2743C98.9569 73.2992 98.9187 73.5512 98.7522 73.5262C98.0323 73.4185 97.2246 73.5332 96.7265 74.0446C96.4371 74.342 96.3046 74.7406 96.4401 75.1322C96.579 75.5349 96.9964 75.9111 97.7544 76.1241C97.8793 76.1585 97.8793 76.3346 97.7554 76.3691C96.9969 76.5821 96.5795 76.9588 96.44 77.3614C96.3046 77.7535 96.437 78.1517 96.7265 78.449C97.2246 78.9604 98.0323 79.0752 98.7522 78.9674C98.9187 78.9425 98.9569 79.1944 98.7903 79.2194C98.4793 79.2658 98.1898 79.2713 97.9244 79.2428L97.8783 79.4419C97.7548 80.1518 98.0799 80.7466 98.6824 81.0209C99.1951 81.2539 99.8423 81.2015 100.216 80.7455C100.261 80.6911 100.341 80.6827 100.396 80.7271C100.45 80.7715 100.459 80.8513 100.414 80.9057C100.279 81.0718 100.114 81.1946 99.9335 81.2774ZM100.5 77.5046C100.352 76.8655 100.594 76.4933 101.319 76.4694C101.487 76.4639 101.478 76.2105 101.311 76.2154C100.937 76.2279 100.564 76.3317 100.356 76.631C100.171 76.3282 99.8322 76.2429 99.3395 76.3751C99.2713 76.393 99.2306 76.4629 99.2487 76.5308C99.2668 76.5986 99.337 76.639 99.4052 76.6211C99.8552 76.5003 100.127 76.6161 100.22 76.9683C100.206 77.0466 100.2 77.1314 100.203 77.2228C100.207 77.3275 100.222 77.4403 100.251 77.561C100.289 77.7247 100.537 77.6678 100.5 77.5046Z"/>
</mask>
<path fill-rule="evenodd" clip-rule="evenodd" d="M99.1227 75.742C99.0901 75.8044 99.0134 75.8288 98.9507 75.7969C98.888 75.7645 98.8634 75.6881 98.8955 75.6258C99.0505 75.3289 99.0982 75.1119 99.0495 74.9397C99.0013 74.7706 98.8534 74.6294 98.6171 74.4862C98.5569 74.4498 98.5378 74.3715 98.5744 74.3116C98.611 74.2517 98.6898 74.2328 98.75 74.2692C99.3751 74.6489 99.4739 75.07 99.1227 75.742ZM99.8 78.6707C99.7704 78.8353 99.5191 78.7904 99.5487 78.6258C99.6585 78.0196 99.3515 77.7287 98.746 77.618C98.5804 77.5875 98.6271 77.3381 98.7921 77.368C99.5341 77.5037 99.9364 77.9223 99.8 78.6707ZM99.5306 80.0058C99.4664 79.9763 99.4383 79.901 99.4679 79.8371C99.4975 79.7733 99.5732 79.7453 99.6374 79.7748C100.257 80.0592 100.6 79.8661 100.766 79.218C100.806 79.0613 101.051 79.1092 101.014 79.2823C100.958 79.5877 100.925 79.8102 100.975 79.9519C101.02 80.0756 101.15 80.1519 101.43 80.1944C101.597 80.2193 101.558 80.4713 101.392 80.4463C100.957 80.381 100.747 80.2198 100.703 79.91C100.385 80.2487 99.944 80.1954 99.5306 80.0058ZM99.6691 73.1227C99.6144 73.0783 99.6068 72.9984 99.6515 72.9441C99.6961 72.8897 99.7769 72.8822 99.8311 72.9266C100.348 73.3502 101.121 72.8533 100.936 72.2316C100.889 72.0715 101.134 71.9991 101.182 72.1598C101.281 72.496 101.183 72.8223 100.95 73.0528C101.623 73.3646 101.628 74.3814 100.851 74.7112C100.786 74.7386 100.711 74.7087 100.683 74.6438C100.656 74.5795 100.686 74.5046 100.751 74.4772C101.202 74.2861 101.312 73.7667 101.053 73.4464C100.971 73.3446 100.851 73.2673 100.696 73.2344C100.572 73.2962 100.434 73.3332 100.292 73.3377C100.08 73.3451 99.8617 73.2808 99.6691 73.1227ZM104.074 73.5457C103.638 73.6879 103.23 73.2589 103.435 72.8622C103.593 72.5569 104.018 72.4945 104.269 72.7265L104.954 72.3394L105.835 71.5855C105.313 71.2732 104.544 71.2537 104.149 71.7487C104.105 71.8035 104.025 71.813 103.969 71.7691C103.914 71.7257 103.905 71.6454 103.949 71.5905C104.08 71.4259 104.246 71.3051 104.432 71.2258C104.187 70.0533 103.081 70.0334 102.309 70.7289V75.6761L103.598 74.7261C103.623 74.7082 103.651 74.7002 103.679 74.7012L105.492 74.7047C105.583 74.3929 105.953 74.2507 106.245 74.4004C106.644 74.6049 106.594 75.1617 106.166 75.3009C105.887 75.3917 105.57 75.2445 105.49 74.9586L103.716 74.9551L102.308 75.9924V81.7684C103.074 82.4589 104.184 82.4604 104.429 81.279C104.251 81.1966 104.088 81.0759 103.953 80.9128C103.945 80.9038 103.938 80.8938 103.932 80.8828L103.524 80.0421C103.516 80.0252 103.511 80.0067 103.511 79.9868C103.512 79.8695 103.513 79.2199 103.521 79.1875C103.205 79.1142 103.026 78.7814 103.176 78.491C103.379 78.0984 103.984 78.1343 104.137 78.5439C104.242 78.8253 104.062 79.1197 103.769 79.1875C103.78 79.2329 103.761 79.9359 103.767 79.9583L104.156 80.7591C104.36 81.0011 104.644 81.1278 104.944 81.1537C105.45 81.1976 105.978 80.9592 106.272 80.5356C106.466 80.2552 106.562 79.8855 106.485 79.4445L106.439 79.2454C106.173 79.2738 105.884 79.2683 105.573 79.2219C105.406 79.197 105.444 78.9455 105.611 78.97C106.331 79.0777 107.139 78.963 107.637 78.4516C107.796 78.2875 107.905 78.0969 107.951 77.8973L105.818 77.9028C105.782 77.9033 105.746 77.8888 105.72 77.8599L105.138 77.2043C104.864 77.3281 104.526 77.2053 104.421 76.9234C104.262 76.4979 104.745 76.1117 105.162 76.3252C105.437 76.4659 105.521 76.8032 105.338 77.0462L105.873 77.6494L107.975 77.6444C107.954 77.0661 107.427 76.6021 106.608 76.3726C106.484 76.3377 106.484 76.1621 106.609 76.1277C107.367 75.9146 107.784 75.5379 107.923 75.1358C108.059 74.7437 107.926 74.3455 107.637 74.0482C107.138 73.5368 106.331 73.4221 105.611 73.5298C105.444 73.5548 105.406 73.3028 105.573 73.2779C105.884 73.2315 106.173 73.226 106.439 73.2544C106.613 72.6702 106.469 72.1079 106.047 71.7417L105.112 72.5419L104.404 72.9445C104.485 73.2 104.329 73.4624 104.074 73.5457L104.074 73.5457ZM99.9335 81.2774C100.179 82.4589 101.289 82.4574 102.055 81.7669V70.7273C101.283 70.0318 100.178 70.0518 99.9321 71.2242C100.118 71.3035 100.284 71.4248 100.415 71.5889C100.459 71.6438 100.45 71.7236 100.395 71.7675C100.339 71.8114 100.259 71.802 100.215 71.7471C99.5297 70.8894 97.6104 71.5126 97.8783 73.0518L97.9244 73.2508C98.1898 73.2224 98.4793 73.2274 98.7903 73.2743C98.9569 73.2992 98.9187 73.5512 98.7522 73.5262C98.0323 73.4185 97.2246 73.5332 96.7265 74.0446C96.4371 74.342 96.3046 74.7406 96.4401 75.1322C96.579 75.5349 96.9964 75.9111 97.7544 76.1241C97.8793 76.1585 97.8793 76.3346 97.7554 76.3691C96.9969 76.5821 96.5795 76.9588 96.44 77.3614C96.3046 77.7535 96.437 78.1517 96.7265 78.449C97.2246 78.9604 98.0323 79.0752 98.7522 78.9674C98.9187 78.9425 98.9569 79.1944 98.7903 79.2194C98.4793 79.2658 98.1898 79.2713 97.9244 79.2428L97.8783 79.4419C97.7548 80.1518 98.0799 80.7466 98.6824 81.0209C99.1951 81.2539 99.8423 81.2015 100.216 80.7455C100.261 80.6911 100.341 80.6827 100.396 80.7271C100.45 80.7715 100.459 80.8513 100.414 80.9057C100.279 81.0718 100.114 81.1946 99.9335 81.2774ZM100.5 77.5046C100.352 76.8655 100.594 76.4933 101.319 76.4694C101.487 76.4639 101.478 76.2105 101.311 76.2154C100.937 76.2279 100.564 76.3317 100.356 76.631C100.171 76.3282 99.8322 76.2429 99.3395 76.3751C99.2713 76.393 99.2306 76.4629 99.2487 76.5308C99.2668 76.5986 99.337 76.639 99.4052 76.6211C99.8552 76.5003 100.127 76.6161 100.22 76.9683C100.206 77.0466 100.2 77.1314 100.203 77.2228C100.207 77.3275 100.222 77.4403 100.251 77.561C100.289 77.7247 100.537 77.6678 100.5 77.5046Z" fill="#323838"/>
<path fill-rule="evenodd" clip-rule="evenodd" d="M99.1227 75.742C99.0901 75.8044 99.0134 75.8288 98.9507 75.7969C98.888 75.7645 98.8634 75.6881 98.8955 75.6258C99.0505 75.3289 99.0982 75.1119 99.0495 74.9397C99.0013 74.7706 98.8534 74.6294 98.6171 74.4862C98.5569 74.4498 98.5378 74.3715 98.5744 74.3116C98.611 74.2517 98.6898 74.2328 98.75 74.2692C99.3751 74.6489 99.4739 75.07 99.1227 75.742ZM99.8 78.6707C99.7704 78.8353 99.5191 78.7904 99.5487 78.6258C99.6585 78.0196 99.3515 77.7287 98.746 77.618C98.5804 77.5875 98.6271 77.3381 98.7921 77.368C99.5341 77.5037 99.9364 77.9223 99.8 78.6707ZM99.5306 80.0058C99.4664 79.9763 99.4383 79.901 99.4679 79.8371C99.4975 79.7733 99.5732 79.7453 99.6374 79.7748C100.257 80.0592 100.6 79.8661 100.766 79.218C100.806 79.0613 101.051 79.1092 101.014 79.2823C100.958 79.5877 100.925 79.8102 100.975 79.9519C101.02 80.0756 101.15 80.1519 101.43 80.1944C101.597 80.2193 101.558 80.4713 101.392 80.4463C100.957 80.381 100.747 80.2198 100.703 79.91C100.385 80.2487 99.944 80.1954 99.5306 80.0058ZM99.6691 73.1227C99.6144 73.0783 99.6068 72.9984 99.6515 72.9441C99.6961 72.8897 99.7769 72.8822 99.8311 72.9266C100.348 73.3502 101.121 72.8533 100.936 72.2316C100.889 72.0715 101.134 71.9991 101.182 72.1598C101.281 72.496 101.183 72.8223 100.95 73.0528C101.623 73.3646 101.628 74.3814 100.851 74.7112C100.786 74.7386 100.711 74.7087 100.683 74.6438C100.656 74.5795 100.686 74.5046 100.751 74.4772C101.202 74.2861 101.312 73.7667 101.053 73.4464C100.971 73.3446 100.851 73.2673 100.696 73.2344C100.572 73.2962 100.434 73.3332 100.292 73.3377C100.08 73.3451 99.8617 73.2808 99.6691 73.1227ZM104.074 73.5457C103.638 73.6879 103.23 73.2589 103.435 72.8622C103.593 72.5569 104.018 72.4945 104.269 72.7265L104.954 72.3394L105.835 71.5855C105.313 71.2732 104.544 71.2537 104.149 71.7487C104.105 71.8035 104.025 71.813 103.969 71.7691C103.914 71.7257 103.905 71.6454 103.949 71.5905C104.08 71.4259 104.246 71.3051 104.432 71.2258C104.187 70.0533 103.081 70.0334 102.309 70.7289V75.6761L103.598 74.7261C103.623 74.7082 103.651 74.7002 103.679 74.7012L105.492 74.7047C105.583 74.3929 105.953 74.2507 106.245 74.4004C106.644 74.6049 106.594 75.1617 106.166 75.3009C105.887 75.3917 105.57 75.2445 105.49 74.9586L103.716 74.9551L102.308 75.9924V81.7684C103.074 82.4589 104.184 82.4604 104.429 81.279C104.251 81.1966 104.088 81.0759 103.953 80.9128C103.945 80.9038 103.938 80.8938 103.932 80.8828L103.524 80.0421C103.516 80.0252 103.511 80.0067 103.511 79.9868C103.512 79.8695 103.513 79.2199 103.521 79.1875C103.205 79.1142 103.026 78.7814 103.176 78.491C103.379 78.0984 103.984 78.1343 104.137 78.5439C104.242 78.8253 104.062 79.1197 103.769 79.1875C103.78 79.2329 103.761 79.9359 103.767 79.9583L104.156 80.7591C104.36 81.0011 104.644 81.1278 104.944 81.1537C105.45 81.1976 105.978 80.9592 106.272 80.5356C106.466 80.2552 106.562 79.8855 106.485 79.4445L106.439 79.2454C106.173 79.2738 105.884 79.2683 105.573 79.2219C105.406 79.197 105.444 78.9455 105.611 78.97C106.331 79.0777 107.139 78.963 107.637 78.4516C107.796 78.2875 107.905 78.0969 107.951 77.8973L105.818 77.9028C105.782 77.9033 105.746 77.8888 105.72 77.8599L105.138 77.2043C104.864 77.3281 104.526 77.2053 104.421 76.9234C104.262 76.4979 104.745 76.1117 105.162 76.3252C105.437 76.4659 105.521 76.8032 105.338 77.0462L105.873 77.6494L107.975 77.6444C107.954 77.0661 107.427 76.6021 106.608 76.3726C106.484 76.3377 106.484 76.1621 106.609 76.1277C107.367 75.9146 107.784 75.5379 107.923 75.1358C108.059 74.7437 107.926 74.3455 107.637 74.0482C107.138 73.5368 106.331 73.4221 105.611 73.5298C105.444 73.5548 105.406 73.3028 105.573 73.2779C105.884 73.2315 106.173 73.226 106.439 73.2544C106.613 72.6702 106.469 72.1079 106.047 71.7417L105.112 72.5419L104.404 72.9445C104.485 73.2 104.329 73.4624 104.074 73.5457L104.074 73.5457ZM99.9335 81.2774C100.179 82.4589 101.289 82.4574 102.055 81.7669V70.7273C101.283 70.0318 100.178 70.0518 99.9321 71.2242C100.118 71.3035 100.284 71.4248 100.415 71.5889C100.459 71.6438 100.45 71.7236 100.395 71.7675C100.339 71.8114 100.259 71.802 100.215 71.7471C99.5297 70.8894 97.6104 71.5126 97.8783 73.0518L97.9244 73.2508C98.1898 73.2224 98.4793 73.2274 98.7903 73.2743C98.9569 73.2992 98.9187 73.5512 98.7522 73.5262C98.0323 73.4185 97.2246 73.5332 96.7265 74.0446C96.4371 74.342 96.3046 74.7406 96.4401 75.1322C96.579 75.5349 96.9964 75.9111 97.7544 76.1241C97.8793 76.1585 97.8793 76.3346 97.7554 76.3691C96.9969 76.5821 96.5795 76.9588 96.44 77.3614C96.3046 77.7535 96.437 78.1517 96.7265 78.449C97.2246 78.9604 98.0323 79.0752 98.7522 78.9674C98.9187 78.9425 98.9569 79.1944 98.7903 79.2194C98.4793 79.2658 98.1898 79.2713 97.9244 79.2428L97.8783 79.4419C97.7548 80.1518 98.0799 80.7466 98.6824 81.0209C99.1951 81.2539 99.8423 81.2015 100.216 80.7455C100.261 80.6911 100.341 80.6827 100.396 80.7271C100.45 80.7715 100.459 80.8513 100.414 80.9057C100.279 81.0718 100.114 81.1946 99.9335 81.2774ZM100.5 77.5046C100.352 76.8655 100.594 76.4933 101.319 76.4694C101.487 76.4639 101.478 76.2105 101.311 76.2154C100.937 76.2279 100.564 76.3317 100.356 76.631C100.171 76.3282 99.8322 76.2429 99.3395 76.3751C99.2713 76.393 99.2306 76.4629 99.2487 76.5308C99.2668 76.5986 99.337 76.639 99.4052 76.6211C99.8552 76.5003 100.127 76.6161 100.22 76.9683C100.206 77.0466 100.2 77.1314 100.203 77.2228C100.207 77.3275 100.222 77.4403 100.251 77.561C100.289 77.7247 100.537 77.6678 100.5 77.5046Z" stroke="#A2EAC4" stroke-width="2" mask="url(#path-25-outside-1_8377_2514)"/>
<path d="M267.932 76.7669C273.748 61.3385 265.955 44.117 250.527 38.3014C235.098 32.4859 217.877 40.2787 212.061 55.707C206.246 71.1354 214.038 88.357 229.467 94.1725C244.895 99.988 262.117 92.1953 267.932 76.7669Z" fill="#A2EAC4"/>
<path d="M255.286 67.259C255.286 75.2678 248.737 83.7692 242.461 83.7692C240.929 83.7692 236.924 83.7784 235.501 83.2219C227.73 80.2209 224.729 72.7776 224.729 66.3012C224.729 62.9353 225.732 59.2775 228.395 57.0336C231.926 54.0599 235.82 55.9299 239.916 55.9299C243.483 55.9299 248.481 54.4704 251.2 56.4772C254.62 59.013 255.286 63.2728 255.286 67.259Z" fill="#323838"/>
<path d="M239.498 57.024C239.498 57.024 240.684 53.3389 241.642 51.4325C242.599 49.526 244.232 48.7051 244.232 48.7051L245.865 49.3892C245.865 49.3892 243.959 50.6206 242.727 52.2534C241.496 53.8862 239.863 57.9818 239.863 57.9818" fill="#323838"/>
<path d="M240.552 54.5698C240.552 54.5698 240.689 53.3384 239.594 52.3897C238.5 51.4319 234.276 49.3887 234.276 49.3887C234.276 49.3887 233.866 51.7056 235.234 53.0738C236.593 54.433 240.552 54.5698 240.552 54.5698Z" fill="#323838"/>
<path d="M251.082 61.8802C250.562 62.7741 249.011 62.8379 247.597 62.0352C246.192 61.2234 245.472 59.8369 245.983 58.943C246.502 58.0491 248.053 57.9852 249.467 58.7879C250.881 59.5997 251.601 60.9862 251.082 61.8802Z" fill="white"/>
<path d="M191.228 63.3314C202.887 51.6723 202.887 32.7692 191.228 21.1101C179.569 9.45099 160.666 9.451 149.007 21.1101C137.348 32.7692 137.348 51.6723 149.007 63.3313C160.666 74.9904 179.569 74.9904 191.228 63.3314Z" fill="#A2EAC4"/>
<path fill-rule="evenodd" clip-rule="evenodd" d="M154.153 38.9396L154.288 43.3818C154.323 43.3539 154.359 43.3268 154.396 43.2985C154.638 43.1267 154.91 43.0026 155.199 42.9326C155.488 42.8618 155.789 42.8537 156.081 42.9088L156.1 38.8117C156.112 38.6281 156.065 38.4457 155.967 38.2903C155.868 38.1349 155.724 38.0145 155.554 37.9462C155.287 37.8409 154.99 37.8409 154.723 37.9462C154.551 38.0146 154.405 38.1355 154.306 38.2917C154.207 38.4479 154.159 38.6314 154.17 38.8163C154.17 38.8586 154.164 38.9007 154.152 38.9413L154.153 38.9396ZM185.483 38.2521C185.471 38.2114 185.466 38.1693 185.466 38.127C185.476 37.9421 185.428 37.7585 185.329 37.6023C185.23 37.4461 185.084 37.3251 184.913 37.2565C184.645 37.1518 184.349 37.1518 184.082 37.2565C183.911 37.3251 183.767 37.4457 183.669 37.6012C183.571 37.7568 183.525 37.9393 183.536 38.1229L183.555 42.2204C183.848 42.165 184.148 42.1729 184.438 42.2438C184.726 42.3139 184.999 42.4382 185.241 42.6101C185.277 42.6359 185.314 42.663 185.349 42.6934L185.483 38.2521ZM169.416 42.2217V25.8256C169.427 25.4044 169.302 24.9909 169.06 24.6469C168.817 24.3028 168.47 24.0467 168.071 23.9167C167.433 23.6889 166.737 23.6889 166.099 23.9167C165.701 24.0429 165.355 24.2946 165.112 24.6343C164.869 24.9739 164.741 25.3833 164.749 25.8015C164.749 25.9208 164.702 26.0352 164.617 26.1196C164.533 26.204 164.419 26.2514 164.3 26.2515C164.039 26.2562 163.782 26.3152 163.546 26.4247C163.309 26.5341 163.097 26.6917 162.924 26.8874C162.663 27.17 162.473 27.5114 162.371 27.883C162.888 27.841 163.407 27.9486 163.866 28.193C163.918 28.2207 163.964 28.2584 164.001 28.3039C164.039 28.3494 164.067 28.4018 164.084 28.4582C164.101 28.5145 164.107 28.5737 164.101 28.6324C164.095 28.691 164.078 28.7479 164.051 28.7999C164.023 28.8519 163.985 28.8979 163.94 28.9354C163.895 28.9728 163.842 29.0009 163.786 29.018C163.73 29.0352 163.671 29.0411 163.613 29.0354C163.554 29.0297 163.497 29.0125 163.445 28.9847C163.045 28.7731 162.58 28.7172 162.141 28.8276C162.099 28.8381 162.058 28.8501 162.016 28.8635C161.998 28.8709 161.98 28.8773 161.961 28.8827C161.613 29.0037 161.316 29.2386 161.117 29.5494C161.093 29.5882 161.076 29.6186 161.063 29.6407C160.892 29.9615 160.852 30.3369 160.953 30.6866C161.061 31.0506 161.301 31.3613 161.624 31.5588C161.653 31.5767 161.678 31.5917 161.7 31.6046C161.794 31.6462 161.872 31.719 161.919 31.8109C161.966 31.9028 161.98 32.0082 161.959 32.1094C161.938 32.2105 161.882 32.3013 161.802 32.3663C161.722 32.4314 161.622 32.4669 161.519 32.4668C160.922 32.4625 160.346 32.6878 159.909 33.0965C159.704 33.2874 159.54 33.5184 159.427 33.7753C159.314 34.0322 159.254 34.3096 159.253 34.5904C159.257 34.8699 159.321 35.1453 159.438 35.3988C159.555 35.6524 159.724 35.8785 159.934 36.0626C160.371 36.4595 160.936 36.6871 161.525 36.7044C161.62 36.6846 161.718 36.696 161.806 36.7368C161.893 36.7776 161.965 36.8457 162.011 36.9309C162.057 37.0161 162.074 37.1139 162.06 37.2096C162.046 37.3054 162.001 37.3941 161.933 37.4624C161.92 37.4762 161.906 37.489 161.891 37.5007C161.705 37.6558 161.571 37.8653 161.509 38.1C161.446 38.3347 161.458 38.5832 161.542 38.8109C161.617 38.9986 161.728 39.1695 161.869 39.3134C162.018 39.467 162.193 39.5918 162.387 39.6818C162.668 39.8174 162.983 39.863 163.29 39.8122C163.597 39.7614 163.881 39.6168 164.104 39.398C164.147 39.356 164.197 39.323 164.253 39.3011C164.309 39.2791 164.369 39.2686 164.429 39.2702C164.489 39.2718 164.548 39.2855 164.602 39.3104C164.657 39.3352 164.706 39.3709 164.746 39.4151C164.787 39.4594 164.818 39.5114 164.839 39.568C164.859 39.6246 164.867 39.6847 164.864 39.7448C164.861 39.8048 164.845 39.8636 164.819 39.9175C164.792 39.9715 164.755 40.0196 164.71 40.0589C164.406 40.3483 164.035 40.5565 163.63 40.6644C163.601 41.0053 163.645 41.3484 163.758 41.671C163.872 41.9936 164.052 42.2884 164.288 42.5359C164.652 42.9185 165.103 43.208 165.602 43.3801C166.118 43.565 166.669 43.6315 167.215 43.5748C167.661 43.5339 168.092 43.3905 168.474 43.1557C168.856 42.9209 169.179 42.601 169.417 42.2208L169.416 42.2217ZM165.462 30.7566C165.567 30.7002 165.69 30.6878 165.804 30.7221C165.917 30.7565 166.013 30.8348 166.069 30.9398C166.125 31.0448 166.138 31.1679 166.104 31.282C166.069 31.3961 165.991 31.492 165.887 31.5484C165.169 31.9384 164.451 32.3285 164.13 32.7685C163.994 32.9632 163.908 33.1878 163.877 33.4232C163.842 33.7083 163.828 33.9957 163.836 34.2829C163.836 34.4022 163.788 34.5167 163.704 34.6011C163.62 34.6855 163.506 34.7329 163.387 34.7329C163.268 34.7329 163.154 34.6855 163.07 34.6011C162.985 34.5167 162.938 34.4022 162.938 34.2829C162.93 33.9485 162.948 33.6141 162.993 33.2827C163.045 32.9058 163.187 32.5472 163.408 32.238C163.849 31.6351 164.655 31.1963 165.463 30.7579L165.462 30.7566ZM171.373 26.537C171.345 26.4236 171.362 26.3036 171.42 26.2026C171.479 26.1016 171.575 26.0274 171.687 25.9958C171.799 25.9643 171.919 25.9778 172.021 26.0336C172.124 26.0893 172.201 26.1829 172.235 26.2944C172.302 26.6836 172.46 27.0513 172.696 27.3666C172.804 27.446 172.929 27.4967 173.062 27.5142C173.273 27.5475 173.486 27.5664 173.699 27.5708C173.758 27.573 173.816 27.5869 173.87 27.6116C173.923 27.6363 173.971 27.6714 174.011 27.7149C174.051 27.7584 174.082 27.8093 174.103 27.8649C174.123 27.9204 174.132 27.9794 174.13 28.0385C174.127 28.0976 174.113 28.1556 174.088 28.2092C174.063 28.2628 174.028 28.3109 173.984 28.3508C173.941 28.3907 173.89 28.4215 173.834 28.4416C173.779 28.4616 173.72 28.4705 173.661 28.4676C173.405 28.4619 173.15 28.4381 172.897 28.3963C172.61 28.3518 172.34 28.2317 172.114 28.0484C171.726 27.6274 171.469 27.1022 171.373 26.537ZM167.401 34.8229C167.431 34.7108 167.504 34.6148 167.603 34.555C167.702 34.4952 167.821 34.4763 167.934 34.5022C168.046 34.5281 168.145 34.5969 168.208 34.6941C168.272 34.7912 168.295 34.9092 168.274 35.0234C168.238 35.196 168.19 35.366 168.132 35.5322C168.061 35.7362 167.941 35.9193 167.781 36.0643C167.455 36.2961 167.068 36.4258 166.669 36.4369C166.649 36.4393 166.63 36.4406 166.611 36.4406C166.493 36.4414 166.38 36.3958 166.296 36.3137C166.211 36.2316 166.162 36.1195 166.159 36.0016C166.156 35.8837 166.2 35.7693 166.28 35.6832C166.36 35.597 166.471 35.5459 166.589 35.5409C166.8 35.534 167.008 35.4804 167.196 35.3838C167.241 35.3355 167.274 35.2775 167.294 35.2142C167.337 35.0856 167.373 34.9544 167.401 34.8212L167.401 34.8229ZM168.191 40.9203C168.237 40.9569 168.276 41.0024 168.305 41.0543C168.334 41.1061 168.353 41.1632 168.36 41.2223C168.367 41.2813 168.362 41.3412 168.345 41.3983C168.329 41.4554 168.301 41.5087 168.264 41.5551C168.227 41.6014 168.181 41.6399 168.129 41.6683C168.077 41.6967 168.02 41.7144 167.961 41.7205C167.902 41.7265 167.842 41.7207 167.785 41.7035C167.729 41.6862 167.676 41.6578 167.63 41.6199C167.179 41.2545 166.728 40.889 166.627 40.3119C166.53 39.761 166.802 39.1838 167.072 38.6067C167.098 38.5534 167.133 38.5055 167.176 38.4659C167.22 38.4262 167.271 38.3955 167.326 38.3756C167.381 38.3557 167.44 38.3469 167.499 38.3497C167.558 38.3525 167.615 38.3669 167.668 38.3921C167.722 38.4172 167.769 38.4526 167.809 38.4963C167.848 38.5399 167.879 38.5909 167.899 38.6464C167.919 38.7019 167.927 38.7608 167.925 38.8197C167.922 38.8786 167.907 38.9363 167.882 38.9896C167.666 39.3427 167.537 39.743 167.508 40.1564C167.55 40.4036 167.87 40.6615 168.189 40.9199L168.191 40.9203ZM170.314 42.2217C170.553 42.6018 170.876 42.9217 171.258 43.1565C171.64 43.3913 172.07 43.5347 172.517 43.5756C173.062 43.6323 173.614 43.5658 174.13 43.381C174.629 43.2087 175.08 42.9193 175.444 42.5367C175.679 42.2893 175.86 41.9945 175.973 41.6719C176.087 41.3492 176.131 41.0061 176.102 40.6653C175.697 40.5574 175.326 40.3492 175.022 40.0598C174.977 40.0201 174.941 39.972 174.915 39.9182C174.89 39.8645 174.875 39.8061 174.872 39.7465C174.869 39.687 174.878 39.6274 174.898 39.5713C174.918 39.5153 174.95 39.4638 174.99 39.4199C175.03 39.376 175.079 39.3406 175.133 39.3158C175.187 39.2909 175.245 39.2771 175.305 39.2752C175.364 39.2732 175.423 39.2831 175.479 39.3044C175.534 39.3256 175.585 39.3577 175.628 39.3989C175.851 39.6176 176.135 39.7622 176.442 39.813C176.749 39.8638 177.064 39.8183 177.345 39.6826C177.538 39.5927 177.714 39.4678 177.863 39.3143C178.004 39.1703 178.115 38.9994 178.189 38.8117C178.274 38.584 178.285 38.3356 178.223 38.1008C178.16 37.8661 178.027 37.6567 177.84 37.5016C177.825 37.4898 177.811 37.477 177.799 37.4632C177.73 37.3949 177.686 37.3062 177.672 37.2105C177.657 37.1147 177.675 37.0169 177.72 36.9317C177.766 36.8465 177.838 36.7784 177.926 36.7376C178.013 36.6968 178.112 36.6854 178.206 36.7052C178.796 36.6879 179.36 36.4604 179.798 36.0635C180.007 35.8793 180.176 35.6532 180.294 35.3997C180.411 35.1461 180.474 34.8707 180.479 34.5912C180.477 34.3104 180.418 34.033 180.305 33.7761C180.192 33.5191 180.028 33.2881 179.823 33.0973C179.386 32.6885 178.809 32.4631 178.212 32.4676C178.109 32.4678 178.009 32.4323 177.929 32.3672C177.848 32.3021 177.793 32.2113 177.772 32.1102C177.751 32.009 177.765 31.9037 177.812 31.8117C177.859 31.7198 177.936 31.647 178.031 31.6055C178.053 31.5925 178.078 31.5775 178.107 31.5596C178.43 31.3621 178.67 31.0514 178.778 30.6874C178.879 30.3377 178.839 29.9623 178.667 29.6415C178.656 29.6195 178.638 29.5891 178.614 29.5502C178.415 29.2394 178.118 29.0046 177.77 28.8835C177.75 28.8774 177.731 28.8702 177.713 28.8618C177.671 28.8485 177.63 28.8364 177.588 28.826C177.149 28.7155 176.684 28.7714 176.283 28.9831C176.231 29.0108 176.175 29.028 176.116 29.0337C176.058 29.0394 175.999 29.0335 175.942 29.0164C175.886 28.9992 175.834 28.9711 175.789 28.9337C175.743 28.8963 175.706 28.8503 175.678 28.7983C175.65 28.7463 175.633 28.6893 175.627 28.6307C175.622 28.5721 175.628 28.5129 175.645 28.4565C175.679 28.3427 175.758 28.2473 175.862 28.1913C176.322 27.9465 176.842 27.8389 177.361 27.8813C177.258 27.5098 177.068 27.1684 176.807 26.8858C176.634 26.6901 176.422 26.5325 176.185 26.4231C175.949 26.3136 175.692 26.2546 175.431 26.2499C175.312 26.2499 175.198 26.2024 175.114 26.118C175.029 26.0336 174.982 25.9192 174.982 25.7998C174.99 25.3815 174.862 24.972 174.619 24.6324C174.375 24.2927 174.029 24.0411 173.631 23.915C172.993 23.6872 172.297 23.6872 171.659 23.915C171.259 24.045 170.912 24.3012 170.67 24.6453C170.427 24.9893 170.302 25.4028 170.313 25.824V42.2217H170.314ZM172.878 25.6489C172.759 25.6489 172.644 25.6015 172.56 25.5171C172.476 25.4327 172.429 25.3183 172.429 25.1989C172.429 25.0795 172.476 24.9651 172.56 24.8807C172.644 24.7963 172.759 24.7488 172.878 24.7488H173.188C173.307 24.7488 173.421 24.7963 173.505 24.8807C173.589 24.9651 173.637 25.0795 173.637 25.1989C173.637 25.3183 173.589 25.4327 173.505 25.5171C173.421 25.6015 173.307 25.6489 173.188 25.6489H172.878ZM172.722 40.8378C172.603 40.8378 172.489 40.7904 172.405 40.706C172.321 40.6216 172.273 40.5071 172.273 40.3877C172.273 40.2684 172.321 40.1539 172.405 40.0695C172.489 39.9851 172.603 39.9377 172.722 39.9377H173.032C173.151 39.9377 173.265 39.9851 173.35 40.0695C173.434 40.1539 173.481 40.2684 173.481 40.3877C173.481 40.5071 173.434 40.6216 173.35 40.706C173.265 40.7904 173.151 40.8378 173.032 40.8378H172.722ZM178.505 34.6925C178.385 34.6925 178.271 34.6451 178.187 34.5607C178.103 34.4763 178.056 34.3618 178.056 34.2424C178.056 34.1231 178.103 34.0086 178.187 33.9242C178.271 33.8398 178.385 33.7924 178.505 33.7924H178.815C178.934 33.7924 179.048 33.8398 179.132 33.9242C179.216 34.0086 179.264 34.1231 179.264 34.2424C179.264 34.3618 179.216 34.4763 179.132 34.5607C179.048 34.6451 178.934 34.6925 178.815 34.6925H178.505ZM167.772 31.5346C167.653 31.5346 167.539 31.4872 167.454 31.4028C167.37 31.3184 167.323 31.2039 167.323 31.0846C167.323 30.9652 167.37 30.8507 167.454 30.7663C167.539 30.6819 167.653 30.6345 167.772 30.6345H168.082C168.201 30.6345 168.315 30.6819 168.4 30.7663C168.484 30.8507 168.531 30.9652 168.531 31.0846C168.531 31.2039 168.484 31.3184 168.4 31.4028C168.315 31.4872 168.201 31.5346 168.082 31.5346H167.772ZM173.42 35.0313C173.523 34.972 173.646 34.9563 173.76 34.9876C173.875 35.0189 173.973 35.0947 174.032 35.1982C174.091 35.3017 174.106 35.4245 174.075 35.5395C174.044 35.6546 173.969 35.7525 173.865 35.8118C173.856 35.8172 173.847 35.8222 173.837 35.8268C173.126 36.2135 172.417 36.6006 172.098 37.0373C171.847 37.4996 171.744 38.0286 171.805 38.5517C171.805 38.671 171.757 38.7855 171.673 38.8699C171.589 38.9543 171.475 39.0017 171.356 39.0017C171.237 39.0017 171.123 38.9543 171.039 38.8699C170.955 38.7855 170.907 38.671 170.907 38.5517C170.907 37.8499 170.907 37.1478 171.376 36.5064C171.813 35.908 172.61 35.4717 173.412 35.0371L173.422 35.0313H173.42ZM175.661 34.2345C175.609 34.2622 175.553 34.2794 175.494 34.2852C175.436 34.2909 175.377 34.285 175.32 34.2678C175.264 34.2507 175.212 34.2226 175.167 34.1851C175.121 34.1477 175.084 34.1017 175.056 34.0497C175.028 33.9977 175.011 33.9408 175.005 33.8821C175 33.8235 175.006 33.7643 175.023 33.708C175.04 33.6516 175.068 33.5992 175.105 33.5537C175.143 33.5082 175.188 33.4705 175.24 33.4428C175.268 33.4278 175.303 33.4069 175.346 33.3803C175.67 33.1829 175.909 32.8721 176.017 32.5081C176.118 32.1583 176.078 31.7829 175.907 31.4621C175.895 31.44 175.877 31.41 175.853 31.3713C175.618 31.0056 175.25 30.746 174.828 30.6474C174.389 30.5369 173.924 30.593 173.523 30.805C173.419 30.8609 173.296 30.8729 173.183 30.8383C173.069 30.8036 172.974 30.7251 172.918 30.6201C172.862 30.5151 172.85 30.3922 172.885 30.2784C172.92 30.1646 172.998 30.0692 173.102 30.0132C173.698 29.6969 174.388 29.6122 175.042 29.7753C175.691 29.9297 176.255 30.3318 176.614 30.8962C176.638 30.935 176.665 30.9829 176.697 31.04C176.979 31.5651 177.045 32.1805 176.881 32.7539C176.711 33.3327 176.333 33.8277 175.82 34.1428C175.779 34.1695 175.725 34.1999 175.662 34.2333L175.661 34.2345ZM165.977 28.7485C165.961 28.8053 165.934 28.8584 165.898 28.9048C165.861 28.9511 165.816 28.9899 165.765 29.0188C165.714 29.0476 165.657 29.0661 165.599 29.0731C165.54 29.0801 165.481 29.0755 165.424 29.0595C165.368 29.0436 165.315 29.0166 165.269 28.9801C165.222 28.9437 165.184 28.8984 165.155 28.847C165.126 28.7955 165.108 28.7389 165.101 28.6803C165.094 28.6217 165.098 28.5623 165.114 28.5055C165.184 28.238 165.269 27.9748 165.369 27.7171C165.472 27.4409 165.639 27.1932 165.856 26.9945C166.081 26.8111 166.352 26.691 166.639 26.6466C166.891 26.6048 167.146 26.581 167.402 26.5753C167.461 26.5728 167.519 26.5818 167.575 26.602C167.63 26.6222 167.68 26.6531 167.724 26.6929C167.767 26.7328 167.802 26.7808 167.827 26.8342C167.852 26.8876 167.866 26.9454 167.868 27.0043C167.871 27.0632 167.862 27.122 167.842 27.1774C167.822 27.2328 167.791 27.2836 167.751 27.327C167.711 27.3705 167.664 27.4056 167.61 27.4305C167.557 27.4554 167.499 27.4695 167.441 27.4721C167.227 27.4765 167.014 27.4954 166.803 27.5287C166.671 27.5464 166.545 27.5971 166.438 27.6763C166.33 27.7852 166.247 27.9169 166.197 28.0617C166.111 28.2864 166.037 28.5157 165.977 28.7485ZM171.944 33.499C171.933 33.5584 171.91 33.615 171.877 33.6652C171.843 33.7155 171.8 33.7585 171.75 33.7916C171.699 33.8247 171.643 33.8473 171.583 33.8579C171.524 33.8686 171.463 33.8671 171.404 33.8536C171.345 33.8401 171.29 33.8149 171.241 33.7794C171.192 33.7439 171.151 33.6989 171.12 33.647C171.089 33.5952 171.069 33.5376 171.061 33.4778C171.052 33.4179 171.056 33.3569 171.072 33.2986C171.118 32.9066 171.291 32.5407 171.564 32.2568C171.89 32.0248 172.277 31.8952 172.677 31.8842C172.696 31.8818 172.715 31.8805 172.735 31.8805C172.852 31.8797 172.966 31.9253 173.05 32.0074C173.134 32.0895 173.183 32.2016 173.186 32.3195C173.189 32.4374 173.146 32.5518 173.065 32.6379C172.985 32.7241 172.874 32.7752 172.757 32.7802C172.545 32.7868 172.338 32.8405 172.15 32.9373C172.039 33.1062 171.968 33.2989 171.945 33.4998L171.944 33.499ZM176.625 60.2204V57.0563C176.625 57.0239 176.622 56.9917 176.615 56.96C176.443 55.7289 176.512 54.4761 176.817 53.2713C177.168 51.9808 177.801 50.7851 178.671 49.7709C178.681 49.7585 178.691 49.7456 178.7 49.7321L182.98 43.6348C183.109 43.4284 183.299 43.2679 183.524 43.176C183.749 43.0841 183.997 43.0654 184.233 43.1226C184.59 43.2112 184.901 43.4308 185.105 43.7381C185.239 43.9419 185.305 44.1826 185.294 44.4261C185.283 44.6695 185.197 44.9035 185.046 45.0949L181.369 50.3355C181.304 50.433 181.28 50.5522 181.301 50.6675C181.323 50.7829 181.388 50.8852 181.484 50.9527C181.58 51.0202 181.698 51.0475 181.813 51.0287C181.929 51.0099 182.033 50.9466 182.102 50.8523L185.78 45.6137C186.063 45.2307 186.209 44.7634 186.195 44.2869L186.439 36.2135C186.435 36.0245 186.488 35.8388 186.592 35.6812C186.696 35.5236 186.845 35.4015 187.02 35.3313C187.155 35.2782 187.298 35.2518 187.442 35.2534C187.583 35.2545 187.723 35.2836 187.853 35.3392C188.017 35.4127 188.154 35.5346 188.247 35.6887C188.339 35.8427 188.383 36.0215 188.371 36.201C188.371 37.0873 188.408 38.0316 188.446 38.9746C188.594 42.6897 188.74 46.3822 186.413 49.2725C186.405 49.2825 186.398 49.2925 186.391 49.3029L181.401 55.9583C181.337 55.9989 181.285 56.0551 181.248 56.1217C181.212 56.1882 181.193 56.2629 181.193 56.3387V60.2308L176.627 60.2204H176.625ZM163.011 57.7439V60.1896L158.445 60.1792V57.0263C158.445 56.9194 158.407 56.816 158.338 56.7346L153.233 49.9705C153.227 49.9626 153.221 49.9547 153.214 49.9472C150.897 47.0589 151.044 43.3718 151.191 39.6618C151.229 38.7192 151.266 37.7749 151.266 36.8886C151.255 36.709 151.298 36.5301 151.391 36.3759C151.484 36.2218 151.621 36.0998 151.785 36.0264C151.915 35.9714 152.055 35.9431 152.196 35.943C152.34 35.9411 152.484 35.9674 152.618 36.0206C152.792 36.091 152.941 36.2129 153.044 36.37C153.148 36.5272 153.201 36.7123 153.198 36.9007L153.441 44.972C153.427 45.4486 153.574 45.9161 153.857 46.2992L157.534 51.5394C157.568 51.5892 157.61 51.6318 157.66 51.6648C157.71 51.6977 157.766 51.7203 157.825 51.7313C157.883 51.7423 157.944 51.7414 158.002 51.7286C158.06 51.7159 158.116 51.6916 158.164 51.6571C158.213 51.6227 158.255 51.5788 158.286 51.528C158.318 51.4773 158.339 51.4207 158.349 51.3616C158.358 51.3024 158.356 51.242 158.342 51.1838C158.328 51.1256 158.302 51.0708 158.267 51.0227L154.59 45.7804C154.439 45.589 154.353 45.355 154.342 45.1116C154.331 44.8681 154.397 44.6274 154.531 44.4236C154.735 44.1165 155.046 43.8971 155.403 43.8085C155.64 43.7512 155.888 43.7699 156.113 43.862C156.338 43.9542 156.529 44.1151 156.658 44.3219L160.937 50.4193C160.946 50.4327 160.956 50.4457 160.966 50.458C161.836 51.4722 162.469 52.6679 162.821 53.9584C163.125 55.1633 163.194 56.4161 163.022 57.6472C163.015 57.6789 163.012 57.7113 163.011 57.7439Z" fill="#323838"/>
<path d="M151 335C195.183 335 231 331.194 231 326.5C231 321.806 195.183 318 151 318C106.817 318 71 321.806 71 326.5C71 331.194 106.817 335 151 335Z" fill="#1B1E1E"/>
<path d="M137.873 196.588C137.873 196.588 136.076 203.73 134.772 214.411C133.458 225.093 135.629 241.813 135.629 241.813C135.629 241.813 120.086 233.859 111.694 234.908C103.293 235.957 69.278 248.007 64.7993 247.587C64.7993 247.587 61.4516 253.525 64.6989 253.443C69.1594 253.334 116.601 254.319 124.263 255.222C132.108 256.143 143.209 258.506 147.104 254.966C149.749 252.567 159.428 222.457 159.573 212.596C159.719 202.736 160.732 196.004 160.732 196.004" fill="white"/>
<path d="M137.873 196.588C137.873 196.588 136.076 203.73 134.772 214.411C133.458 225.093 135.629 241.813 135.629 241.813C135.629 241.813 120.086 233.859 111.694 234.908C103.293 235.957 69.278 248.007 64.7993 247.587C64.7993 247.587 61.4516 253.525 64.6989 253.443C69.1594 253.334 116.601 254.319 124.263 255.222C132.108 256.143 143.209 258.506 147.104 254.966C149.749 252.567 159.428 222.457 159.573 212.596C159.719 202.736 160.732 196.004 160.732 196.004" stroke="#323838" stroke-miterlimit="10" stroke-linecap="round" stroke-linejoin="round"/>
<path d="M134.766 214.41C133.453 225.092 135.624 241.812 135.624 241.812C135.624 241.812 120.081 233.858 111.689 234.907C109.819 235.144 106.663 235.928 102.85 236.995C100.734 241.109 98.8453 247.412 101.792 254.199C112.081 254.509 121.248 254.874 124.267 255.23C132.112 256.151 143.213 258.513 147.108 254.974C149.753 252.575 159.431 222.465 159.577 212.604C159.723 202.744 160.736 196.012 160.736 196.012L137.877 196.586C137.877 196.586 136.08 203.729 134.766 214.41Z" fill="#323838" stroke="#323838" stroke-miterlimit="10" stroke-linecap="round" stroke-linejoin="round"/>
<path d="M149.551 201.02L144.47 203.583C144.47 203.583 142.773 203.401 145.993 198.949" fill="white"/>
<path d="M149.551 201.02L144.47 203.583C144.47 203.583 142.773 203.401 145.993 198.949" stroke="#323838" stroke-miterlimit="10" stroke-linecap="round" stroke-linejoin="round"/>
<path d="M166.571 95.0178C166.571 95.0178 161.472 91.4877 152.833 91.0955C144.195 90.7033 138.312 102.479 139.488 109.932C140.665 117.384 140.273 125.238 130.066 124.061C119.858 122.885 107.307 124.061 104.552 135.053C101.807 146.044 113.975 159.782 127.712 154.674C141.449 149.575 138.138 139.495 144.587 137.406C151.045 135.317 157.54 135.445 158.325 127.591C159.109 119.738 154.01 112.677 157.54 105.617C161.07 98.557 166.571 95.0178 166.571 95.0178Z" fill="#323838" stroke="#323838" stroke-miterlimit="10" stroke-linecap="round" stroke-linejoin="round"/>
<path d="M160.99 96.6224C160.99 96.6224 150.281 94.5427 146.714 103.464C143.148 112.385 151.175 120.12 148.502 129.05C145.82 137.971 135.713 144.812 127.385 141.839C119.057 138.865 111.021 135.891 110.428 140.653C109.835 145.414 116.084 146.6 117.57 145.706C119.057 144.812 116.978 143.024 116.978 143.024" stroke="white" stroke-miterlimit="10" stroke-linecap="round" stroke-linejoin="round"/>
<path d="M126.702 131.469C125.479 131.149 124.22 130.921 122.916 130.83" stroke="white" stroke-miterlimit="10" stroke-linecap="round" stroke-linejoin="round"/>
<path d="M152.658 95.4355C152.658 95.4355 142.543 97.2234 142.543 107.932C142.543 118.641 147.596 125.19 143.135 132.032C140.043 136.775 135.811 134.659 130.529 132.716" stroke="white" stroke-miterlimit="10" stroke-linecap="round" stroke-linejoin="round"/>
<path d="M172.427 105.6C172.427 105.6 172.783 111.337 171.479 114.694C170.183 118.042 164.546 123.478 164.884 126.361C165.221 129.243 173.476 135.172 176.112 134.178C178.749 133.184 180.938 118.206 180.938 118.206C180.938 118.206 176.331 107.588 172.427 105.6Z" fill="white" stroke="#323838" stroke-miterlimit="10" stroke-linecap="round" stroke-linejoin="round"/>
<path d="M177.039 116.02C178.736 119.185 180.186 121.83 183.953 122.523C189.135 123.481 191.032 116.777 191.734 110.018C191.908 110.091 192.09 110.154 192.272 110.173C193.559 110.31 194.899 110.009 195.866 109.023C196.277 108.604 195.647 107.783 194.808 106.898C192.336 104.289 192.136 102.264 192.163 98.7159C192.172 97.1105 192.181 95.4868 191.762 93.9361C191.67 93.5895 191.552 93.2611 191.424 92.9328C187.657 83.7199 168.802 83.3824 167.781 94.7115C167.452 98.3875 167.927 102.602 169.167 106.624" fill="white"/>
<mask id="mask0_8377_2514" style="mask-type:luminance" maskUnits="userSpaceOnUse" x="167" y="86" width="29" height="37">
<path d="M177.039 116.016C178.736 119.181 180.186 121.826 183.953 122.52C189.135 123.477 191.032 116.773 191.734 110.014C191.908 110.087 192.09 110.151 192.272 110.169C193.559 110.306 194.899 110.005 195.866 109.019C196.277 108.6 195.647 107.779 194.808 106.894C192.336 104.285 192.136 102.26 192.163 98.712C192.172 97.1066 192.181 95.4829 191.762 93.9322C191.67 93.5856 191.552 93.2572 191.424 92.9289C187.657 83.716 168.802 83.3785 167.781 94.7076C167.452 98.3836 167.927 102.598 169.167 106.62" fill="white"/>
</mask>
<g mask="url(#mask0_8377_2514)">
<path d="M192.163 98.7139C192.172 97.1085 192.181 95.4849 191.762 93.9342C191.671 93.5876 191.552 93.2592 191.424 92.9308C187.657 83.7179 168.803 83.3804 167.781 94.7095C167.453 98.3764 167.927 102.563 169.149 106.577C178.38 103.475 187.228 101.861 192.209 101.122C192.163 100.401 192.154 99.6079 192.163 98.7139Z" fill="#00B197"/>
</g>
<mask id="mask1_8377_2514" style="mask-type:luminance" maskUnits="userSpaceOnUse" x="167" y="86" width="29" height="37">
<path d="M177.039 116.016C178.736 119.181 180.186 121.826 183.953 122.52C189.135 123.477 191.032 116.773 191.734 110.014C191.908 110.087 192.09 110.151 192.272 110.169C193.559 110.306 194.899 110.005 195.866 109.019C196.277 108.6 195.647 107.779 194.808 106.894C192.336 104.285 192.136 102.26 192.163 98.712C192.172 97.1066 192.181 95.4829 191.762 93.9322C191.67 93.5856 191.552 93.2572 191.424 92.9289C187.657 83.716 168.802 83.3785 167.781 94.7076C167.452 98.3836 167.927 102.598 169.167 106.62" fill="white"/>
</mask>
<g mask="url(#mask1_8377_2514)">
<path opacity="0.5" d="M192.163 98.7139C192.172 97.1085 192.181 95.4849 191.762 93.9342C191.671 93.5876 191.552 93.2592 191.424 92.9308C187.657 83.7179 168.803 83.3804 167.781 94.7095C167.453 98.3764 167.927 102.563 169.149 106.577C178.38 103.475 187.228 101.861 192.209 101.122C192.163 100.401 192.154 99.6079 192.163 98.7139Z" fill="white"/>
</g>
<path d="M177.039 116.02C178.736 119.185 180.186 121.83 183.953 122.523C189.135 123.481 191.032 116.777 191.734 110.018C191.908 110.091 192.09 110.154 192.272 110.173C193.559 110.31 194.899 110.009 195.866 109.023C196.277 108.604 195.647 107.783 194.808 106.898C192.336 104.289 192.136 102.264 192.163 98.7159C192.172 97.1105 192.181 95.4868 191.762 93.9361C191.67 93.5895 191.552 93.2611 191.424 92.9328C187.657 83.7199 168.802 83.3824 167.781 94.7115C167.452 98.3875 167.927 102.602 169.167 106.624" stroke="#323838" stroke-miterlimit="10" stroke-linecap="round" stroke-linejoin="round"/>
<path d="M189.559 102.895C189.595 103.588 189.367 104.163 189.039 104.181C188.71 104.199 188.419 103.652 188.373 102.958C188.336 102.265 188.565 101.691 188.893 101.672C189.221 101.654 189.522 102.201 189.559 102.895Z" fill="#323838"/>
<path d="M189.432 112.772C189.432 112.772 186.632 112.955 186.066 110.902" stroke="#323838" stroke-miterlimit="10" stroke-linecap="round" stroke-linejoin="round"/>
<path d="M190.379 91.0943C185.024 83.7422 167.684 89.1149 166.735 99.6413C166.252 104.968 166.051 112.111 171.159 112.932C172.737 107.979 177.836 107.842 177.672 105.297C177.435 101.52 184.933 101.666 183.966 95.9379C183.145 90.9849 187.077 93.9859 190.379 91.0943Z" fill="#323838" stroke="#323838" stroke-miterlimit="10" stroke-linecap="round" stroke-linejoin="round"/>
<path d="M166.881 103.866L193.161 95.0175C193.161 95.0175 189.722 85.8959 185.271 83.5516C180.819 81.2073 170.247 83.5516 166.635 88.1854C163.014 92.8192 165.176 96.176 166.881 103.866Z" fill="#00B197"/>
<mask id="mask2_8377_2514" style="mask-type:luminance" maskUnits="userSpaceOnUse" x="164" y="82" width="30" height="22">
<path d="M166.883 103.862L193.163 95.0136C193.163 95.0136 189.724 85.8919 185.273 83.5477C180.821 81.2034 170.249 83.5477 166.637 88.1815C163.016 92.8153 165.177 96.1721 166.883 103.862Z" fill="white"/>
</mask>
<g mask="url(#mask2_8377_2514)">
<path opacity="0.2" d="M171.407 90.8102C171.699 86.45 176.251 83.5949 177.491 82.8926C173.231 83.5585 168.734 85.474 166.627 88.1831C163.015 92.8169 165.168 96.1737 166.873 103.863L174.973 101.136C173.478 98.1714 171.197 93.9663 171.407 90.8102Z" fill="#323838"/>
</g>
<path d="M166.881 103.866L193.161 95.0175C193.161 95.0175 189.722 85.8959 185.271 83.5516C180.819 81.2073 170.247 83.5516 166.635 88.1854C163.014 92.8192 165.176 96.176 166.881 103.866Z" stroke="#323838" stroke-miterlimit="10" stroke-linecap="round" stroke-linejoin="round"/>
<path d="M184.377 98.1737C184.377 98.1737 195.688 97.7815 201.261 98.3653C206.835 98.949 203.377 96.0848 193.161 95.0176C193.152 95.0085 186.329 97.4349 184.377 98.1737Z" fill="white" stroke="#323838" stroke-miterlimit="10" stroke-linecap="round" stroke-linejoin="round"/>
<path d="M167.812 119.809C167.812 119.809 178.411 127.562 180.692 134.559C183.538 143.306 182.343 150.367 179.616 158.321C176.888 166.275 173.322 166.594 171.187 175.004C168.834 184.29 168.359 202.424 163.799 210.697C155.315 226.067 131.608 212.357 131.207 197.608C130.769 181.672 145.519 172.158 147.224 164.149C149.076 155.475 147.024 143.443 151.037 135.307C155.06 127.17 162.731 119.481 167.812 119.809Z" fill="#323838" stroke="#323838" stroke-miterlimit="10" stroke-linecap="round" stroke-linejoin="round"/>
<path d="M164.695 127.402C162.56 128.013 159.915 129.263 157.753 131.845C153.329 137.117 147.975 157.869 146.889 161.052C145.293 165.741 142.511 182.616 143.633 182.99C144.755 183.364 151.742 183.09 163.828 184.258C175.914 185.416 198.536 179.058 198.536 179.058C198.536 179.058 202.267 181.567 205.514 180.573C205.934 180.445 206.308 180.326 206.654 180.199C207.658 179.852 208.515 179.159 209.062 178.247C209.29 177.873 209.482 177.471 209.555 177.134C209.71 176.605 209.783 176.003 209.628 175.318C209.509 174.215 209.445 172.837 208.679 171.524C207.913 170.201 207.411 170.94 206.335 170.365C205.268 169.791 202.905 169.572 202.03 169.937C201.163 170.311 197.925 174.689 197.925 174.689C197.925 174.689 184.68 176.158 172.986 172.427C162.451 169.061 159.942 169.079 159.942 169.079C159.942 169.079 170.104 145.737 173.588 139.206" fill="#00B197"/>
<path d="M164.695 127.402C162.56 128.013 159.915 129.263 157.753 131.845C153.329 137.117 147.975 157.869 146.889 161.052C145.293 165.741 142.511 182.616 143.633 182.99C144.755 183.364 151.742 183.09 163.828 184.258C175.914 185.416 198.536 179.058 198.536 179.058C198.536 179.058 202.267 181.567 205.514 180.573C205.934 180.445 206.308 180.326 206.654 180.199C207.658 179.852 208.515 179.159 209.062 178.247C209.29 177.873 209.482 177.471 209.555 177.134C209.71 176.605 209.783 176.003 209.628 175.318C209.509 174.215 209.445 172.837 208.679 171.524C207.913 170.201 207.411 170.94 206.335 170.365C205.268 169.791 202.905 169.572 202.03 169.937C201.163 170.311 197.925 174.689 197.925 174.689C197.925 174.689 184.68 176.158 172.986 172.427C162.451 169.061 159.942 169.079 159.942 169.079C159.942 169.079 170.104 145.737 173.588 139.206" stroke="#323838" stroke-miterlimit="10" stroke-linecap="round" stroke-linejoin="round"/>
<path d="M205.514 180.579C205.815 180.488 206.089 180.396 206.344 180.314C207.612 179.886 208.716 179.019 209.3 177.815C209.409 177.587 209.501 177.359 209.546 177.149C209.701 176.62 209.774 176.018 209.619 175.334C209.501 174.23 209.437 172.853 208.67 171.539C207.904 170.217 207.403 170.956 206.326 170.381C205.259 169.806 202.896 169.587 202.021 169.952C201.154 170.326 197.916 174.705 197.916 174.705C197.916 174.705 194.076 175.133 188.703 174.942L188.822 181.445C194.441 180.214 198.527 179.065 198.527 179.065C198.527 179.065 202.267 181.564 205.514 180.579Z" fill="white" stroke="#323838" stroke-miterlimit="10" stroke-linecap="round" stroke-linejoin="round"/>
<path d="M206.336 170.365C206.336 170.365 207.458 173.467 206.765 175.09C206.062 176.723 203.736 172.764 203.736 172.764" stroke="#323838" stroke-miterlimit="10" stroke-linecap="round" stroke-linejoin="round"/>
<path d="M205.368 177.888L204.903 174.859C204.903 174.859 201.182 178.818 199.549 177.185" stroke="#323838" stroke-miterlimit="10" stroke-linecap="round" stroke-linejoin="round"/>
<path d="M184.975 148.66C184.528 146.598 183.953 144.555 183.315 142.521C182.476 139.848 181.545 137.194 180.688 134.558C180.496 133.974 180.25 133.39 179.958 132.806C179.958 132.323 179.958 131.849 179.958 131.456C179.958 129.997 181.664 127.324 181.664 127.324C181.664 127.324 180.688 126.111 177.532 123.439C174.375 120.766 168.784 117.117 168.784 117.117L166.157 119.981C161.176 121.103 154.645 128.018 151.051 135.315C147.038 143.451 149.09 155.483 147.239 164.158C146.272 168.7 141.109 173.726 136.895 180.139C142.067 183.185 153.25 188.677 168.738 190.309C169.523 184.572 170.189 178.98 171.192 175.012C172.241 170.889 174.394 167.04 177.276 163.92C181.472 159.378 186.498 155.702 184.975 148.66Z" fill="#00B197"/>
<mask id="mask3_8377_2514" style="mask-type:luminance" maskUnits="userSpaceOnUse" x="136" y="117" width="50" height="74">
<path d="M184.975 148.656C184.528 146.595 183.953 144.551 183.315 142.517C182.476 139.844 181.545 137.19 180.688 134.554C180.496 133.97 180.25 133.386 179.958 132.803C179.958 132.319 179.958 131.845 179.958 131.453C179.958 129.993 181.664 127.32 181.664 127.32C181.664 127.32 180.688 126.107 177.532 123.435C174.375 120.762 168.784 117.113 168.784 117.113L166.157 119.977C161.176 121.099 154.645 128.014 151.051 135.311C147.038 143.448 149.09 155.479 147.239 164.154C146.272 168.696 141.109 173.722 136.895 180.135C142.067 183.182 153.25 188.673 168.738 190.306C169.523 184.568 170.189 178.976 171.192 175.009C172.241 170.886 174.394 167.036 177.276 163.917C181.472 159.374 186.498 155.698 184.975 148.656Z" fill="white"/>
</mask>
<g mask="url(#mask3_8377_2514)">
<path opacity="0.2" d="M151.499 184.259C151.499 182.909 160.949 172.455 162.965 169.755C164.99 167.055 154.527 169.08 152.84 169.08C151.152 169.08 157.565 161.318 161.952 153.227C166.34 145.127 165.327 143.102 165.327 143.102L153.862 138.039C153.862 138.039 151.992 138.906 149.365 140.192C147.65 147.79 148.726 157.076 147.221 164.145C146.254 168.688 141.091 173.714 136.877 180.126C139.823 181.86 144.712 184.386 151.234 186.539C151.417 185.508 151.499 184.642 151.499 184.259Z" fill="#323838"/>
</g>
<path d="M184.975 148.66C184.528 146.598 183.953 144.555 183.315 142.521C182.476 139.848 181.545 137.194 180.688 134.558C180.496 133.974 180.25 133.39 179.958 132.806C179.958 132.323 179.958 131.849 179.958 131.456C179.958 129.997 181.664 127.324 181.664 127.324C181.664 127.324 180.688 126.111 177.532 123.439C174.375 120.766 168.784 117.117 168.784 117.117L166.157 119.981C161.176 121.103 154.645 128.018 151.051 135.315C147.038 143.451 149.09 155.483 147.239 164.158C146.272 168.7 141.109 173.726 136.895 180.139C142.067 183.185 153.25 188.677 168.738 190.309C169.523 184.572 170.189 178.98 171.192 175.012C172.241 170.889 174.394 167.04 177.276 163.92C181.472 159.378 186.498 155.702 184.975 148.66Z" stroke="#323838" stroke-miterlimit="10" stroke-linecap="round" stroke-linejoin="round"/>
<path d="M168.707 126.416C166.618 125.687 163.726 125.185 160.47 126.052C153.811 127.812 137.492 141.695 134.765 143.684C130.76 146.603 118.775 158.798 119.477 159.747C120.179 160.705 126.044 164.499 135.257 172.408C144.47 180.316 163.571 187.477 163.571 187.477C163.571 187.477 168.241 192.339 171.461 193.397C172.428 193.716 173.213 193.926 173.86 194.072C174.043 194.136 174.234 194.19 174.417 194.245C176.177 194.756 177.372 194.218 178.166 193.506C178.594 193.169 179.005 192.713 179.279 192.065C179.817 191.098 180.556 189.94 180.683 188.416C180.811 186.893 178.549 186.61 178.002 185.525C177.454 184.439 175.657 182.898 174.727 182.697C173.796 182.496 168.634 184.22 168.634 184.22C168.634 184.22 156.958 177.799 149.542 168.011C142.865 159.2 140.803 157.768 140.803 157.768C140.803 157.768 162.549 144.532 169.163 141.193" fill="#00B197"/>
<mask id="mask4_8377_2514" style="mask-type:luminance" maskUnits="userSpaceOnUse" x="119" y="125" width="62" height="70">
<path d="M168.705 126.414C166.616 125.685 163.724 125.183 160.468 126.05C153.809 127.81 137.49 141.693 134.763 143.682C130.758 146.601 118.773 158.796 119.475 159.745C120.177 160.703 126.043 164.497 135.255 172.406C144.468 180.314 163.569 187.475 163.569 187.475C163.569 187.475 168.239 192.337 171.459 193.395C172.426 193.714 173.211 193.924 173.858 194.07C174.041 194.134 174.232 194.188 174.415 194.243C176.175 194.754 177.37 194.216 178.164 193.504C178.592 193.167 179.003 192.711 179.277 192.063C179.815 191.096 180.554 189.938 180.681 188.414C180.809 186.891 178.547 186.608 178 185.523C177.452 184.437 175.655 182.896 174.725 182.695C173.794 182.494 168.632 184.218 168.632 184.218C168.632 184.218 156.956 177.797 149.54 168.009C142.863 159.198 140.801 157.766 140.801 157.766C140.801 157.766 162.547 144.53 169.161 141.192" fill="white"/>
</mask>
<g mask="url(#mask4_8377_2514)">
<path opacity="0.2" d="M177.141 193.041C169.716 191.016 160.95 184.265 154.537 180.225C148.125 176.175 130.584 161.334 128.221 160.659C125.859 159.984 128.896 158.971 132.609 156.271C136.321 153.571 127.884 156.271 125.859 156.271C123.834 156.271 155.212 136.03 159.6 130.968C162.911 127.146 158.533 127.556 156.188 127.985C148.499 132.336 137.024 142.05 134.771 143.683C130.766 146.602 118.78 158.798 119.483 159.746C120.185 160.704 126.05 164.499 135.263 172.407C144.476 180.316 163.577 187.476 163.577 187.476C163.577 187.476 168.247 192.338 171.467 193.396C172.434 193.716 173.219 193.925 173.866 194.071C174.049 194.135 174.24 194.19 174.423 194.245C176.183 194.755 177.378 194.217 178.172 193.506C178.226 193.46 178.272 193.415 178.327 193.369C177.934 193.259 177.542 193.15 177.141 193.041Z" fill="#323838"/>
</g>
<path d="M168.707 126.416C166.618 125.687 163.726 125.185 160.47 126.052C153.811 127.812 137.492 141.695 134.765 143.684C130.76 146.603 118.775 158.798 119.477 159.747C120.179 160.705 126.044 164.499 135.257 172.408C144.47 180.316 163.571 187.477 163.571 187.477C163.571 187.477 168.241 192.339 171.461 193.397C172.428 193.716 173.213 193.926 173.86 194.072C174.043 194.136 174.234 194.19 174.417 194.245C176.177 194.756 177.372 194.218 178.166 193.506C178.594 193.169 179.005 192.713 179.279 192.065C179.817 191.098 180.556 189.94 180.683 188.416C180.811 186.893 178.549 186.61 178.002 185.525C177.454 184.439 175.657 182.898 174.727 182.697C173.796 182.496 168.634 184.22 168.634 184.22C168.634 184.22 156.958 177.799 149.542 168.011C142.865 159.2 140.803 157.768 140.803 157.768C140.803 157.768 162.549 144.532 169.163 141.193" stroke="#323838" stroke-miterlimit="10" stroke-linecap="round" stroke-linejoin="round"/>
<path d="M178.017 185.52C177.47 184.435 175.673 182.893 174.743 182.692C173.812 182.492 168.649 184.216 168.649 184.216C168.649 184.216 166.369 182.957 163.186 180.713L158.98 185.62C161.753 186.788 163.569 187.472 163.569 187.472C163.569 187.472 168.239 192.334 171.459 193.392C172.426 193.711 173.21 193.921 173.858 194.067C174.04 194.131 174.232 194.186 174.414 194.24C176.175 194.751 177.37 194.213 178.163 193.501C178.592 193.164 179.003 192.708 179.276 192.06C179.814 191.093 180.553 189.935 180.681 188.412C180.827 186.888 178.565 186.605 178.017 185.52Z" fill="white" stroke="#323838" stroke-miterlimit="10" stroke-linecap="round" stroke-linejoin="round"/>
<path d="M176.479 107.225C176.479 107.225 173.633 102.043 171.389 103.868C169.136 105.692 171.817 109.14 174.809 110.143C177.792 111.138 176.561 109.195 176.561 109.195" fill="white"/>
<path d="M176.479 107.225C176.479 107.225 173.633 102.043 171.389 103.868C169.136 105.692 171.817 109.14 174.809 110.143C177.792 111.138 176.561 109.195 176.561 109.195" stroke="#323838" stroke-miterlimit="10" stroke-linecap="round" stroke-linejoin="round"/>
<path d="M143.971 210.778C143.971 210.778 148.951 216.206 157.152 223.165C165.352 230.134 180.311 236.492 180.311 236.492C180.311 236.492 172.175 255.493 172.476 263.948C172.777 272.404 181.744 307.368 180.932 311.782C180.932 311.782 185.867 315.531 186.76 312.403C188.193 307.349 190.902 266.274 191.978 258.448C193.036 250.768 195.846 236.966 195.837 233.391C195.827 226.549 177.438 207.002 169.283 201.456C161.129 195.91 156.066 191.367 156.066 191.367" fill="white"/>
<path d="M143.971 210.778C143.971 210.778 148.951 216.206 157.152 223.165C165.352 230.134 180.311 236.492 180.311 236.492C180.311 236.492 172.175 255.493 172.476 263.948C172.777 272.404 181.744 307.367 180.932 311.782C180.932 311.782 185.867 315.531 186.76 312.403C188.193 307.349 190.902 266.274 191.978 258.448C193.036 250.768 195.846 236.966 195.837 233.391C195.827 226.549 177.438 207.002 169.283 201.456C161.129 195.91 156.066 191.367 156.066 191.367" stroke="#323838" stroke-miterlimit="10" stroke-linecap="round" stroke-linejoin="round"/>
<path d="M169.27 201.466C161.116 195.92 156.053 191.377 156.053 191.377L143.967 210.788C143.967 210.788 148.947 216.215 157.148 223.175C165.348 230.144 180.308 236.502 180.308 236.502C180.308 236.502 172.171 255.502 172.472 263.958C172.554 266.211 173.247 270.343 174.205 275.269C178.62 276.19 184.157 276.683 190.378 275.835C191.026 267.963 191.6 261.194 191.974 258.467C193.032 250.786 195.842 236.985 195.833 233.41C195.823 226.559 177.434 207.011 169.27 201.466Z" fill="#323838" stroke="#323838" stroke-miterlimit="10" stroke-linecap="round" stroke-linejoin="round"/>
<path d="M142.051 213.115C146.183 216.454 152.641 221.334 157.147 223.176" stroke="white" stroke-miterlimit="10" stroke-linecap="round" stroke-linejoin="round"/>
<path d="M138.047 209.77C138.047 209.77 138.74 210.381 139.899 211.348" stroke="white" stroke-miterlimit="10" stroke-linecap="round" stroke-linejoin="round"/>
<path d="M151.156 189.945L165.231 197.936" stroke="white" stroke-miterlimit="10" stroke-linecap="round" stroke-linejoin="round"/>
<path d="M142.209 185.148C142.209 185.148 136.134 188.35 136.454 191.223C136.773 194.097 143.806 189.308 143.167 192.501C142.529 195.702 139.062 196.286 142.529 197.618C145.995 198.95 161.392 211.364 170.988 217.758C180.584 224.153 190.49 232.791 189.533 235.345C188.575 237.899 179.617 260.922 181.542 275.955" stroke="white" stroke-miterlimit="10" stroke-linecap="round" stroke-linejoin="round"/>
<path d="M100.959 248.145C100.959 248.145 123.982 251.666 133.569 252.624C143.156 253.582 144.123 251.666 142.517 249.751C140.921 247.835 144.114 250.389 144.752 247.516C145.391 244.642 146.668 226.737 146.987 222.258" stroke="white" stroke-miterlimit="10" stroke-linecap="round" stroke-linejoin="round"/>
<path d="M65.6679 248.05C65.6679 248.05 59.7479 239.768 57.805 240.735C55.8712 241.702 51.2465 244.949 48.7472 246.29C46.2478 247.631 41.7782 253.04 41.8147 254.791C41.8512 256.543 46.5853 253.706 49.714 253.076C52.8428 252.438 64.6918 253.459 64.6918 253.459C64.6918 253.459 64.0624 248.917 65.6679 248.05Z" fill="#A2EAC4" stroke="#323838" stroke-miterlimit="10" stroke-linecap="round" stroke-linejoin="round"/>
<path d="M59.6932 241.347C58.9361 240.79 58.2611 240.507 57.805 240.735C55.8712 241.702 51.2465 244.95 48.7472 246.291C46.2478 247.631 41.7782 253.041 41.8147 254.792C41.8329 255.44 42.4806 255.458 43.4657 255.193C45.3721 251.408 49.486 249.438 53.3718 246.108C56.3181 243.581 58.48 242.104 59.6932 241.347Z" fill="white" stroke="#323838" stroke-miterlimit="10" stroke-linecap="round" stroke-linejoin="round"/>
<path d="M180.921 311.783C180.921 311.783 176.662 321.033 178.468 322.237C180.274 323.441 185.382 325.84 187.781 327.345C190.189 328.85 197.094 330.045 198.599 329.151C200.104 328.248 195.297 325.548 193.19 323.14C191.083 320.732 186.75 312.403 186.75 312.403C186.75 312.403 182.472 312.75 180.921 311.783Z" fill="#A2EAC4" stroke="#323838" stroke-miterlimit="10" stroke-linecap="round" stroke-linejoin="round"/>
<path d="M198.609 329.15C199.256 328.758 198.727 328.028 197.733 327.134C196.42 327.271 194.951 327.353 193.628 327.217C190.983 326.952 181.916 322.136 178.103 320.047C177.948 321.105 178.012 321.935 178.468 322.236C180.274 323.44 185.382 325.839 187.781 327.344C190.19 328.849 197.104 330.053 198.609 329.15Z" fill="white" stroke="#323838" stroke-miterlimit="10" stroke-linecap="round" stroke-linejoin="round"/>
</svg>
