<?xml version="1.0" encoding="UTF-8" standalone="no"?>
<svg
   data-name="Слой 1"
   viewBox="0 0 1000 1000"
   version="1.1"
   id="svg4"
   sodipodi:docname="icon-sq-dark.svg"
   inkscape:version="1.1.2 (0a00cf5339, 2022-02-04)"
   xmlns:inkscape="http://www.inkscape.org/namespaces/inkscape"
   xmlns:sodipodi="http://sodipodi.sourceforge.net/DTD/sodipodi-0.dtd"
   xmlns:xlink="http://www.w3.org/1999/xlink"
   xmlns="http://www.w3.org/2000/svg"
   xmlns:svg="http://www.w3.org/2000/svg">
  <defs
     id="defs8">
    <linearGradient
       inkscape:collect="always"
       id="linearGradient16953">
      <stop
         style="stop-color:#2f3232;stop-opacity:1;"
         offset="0"
         id="stop16949" />
      <stop
         style="stop-color:#171717;stop-opacity:1"
         offset="1"
         id="stop16951" />
    </linearGradient>
    <radialGradient
       inkscape:collect="always"
       xlink:href="#linearGradient16953"
       id="radialGradient16957"
       cx="500.37552"
       cy="502.71341"
       fx="500.37552"
       fy="502.71341"
       r="505.42886"
       gradientTransform="matrix(0.72123902,0.65198785,-0.66738784,0.73827473,474.98998,-194.66595)"
       gradientUnits="userSpaceOnUse" />
  </defs>
  <sodipodi:namedview
     id="namedview6"
     pagecolor="#aab5b5"
     bordercolor="#666666"
     borderopacity="1.0"
     inkscape:pageshadow="2"
     inkscape:pageopacity="0.09411765"
     inkscape:pagecheckerboard="0"
     showgrid="false"
     inkscape:zoom="0.719"
     inkscape:cx="499.30459"
     inkscape:cy="500"
     inkscape:window-width="1920"
     inkscape:window-height="1172"
     inkscape:window-x="0"
     inkscape:window-y="0"
     inkscape:window-maximized="1"
     inkscape:current-layer="svg4" />
  <rect
     style="opacity:0.812943;fill:url(#radialGradient16957);fill-opacity:1;stroke:#a9bdb6;stroke-width:3"
     id="rect847"
     width="1007.8577"
     height="1003.0224"
     x="-3.5533454"
     y="1.2021973" />
  <path
     d="M671 497a42 42 0 0 1-18-72 171 171 0 0 0-322 51 42 42 0 0 1 6 74 171 171 0 0 0 334-50v-3Zm-171 91a88 88 0 1 1 0-176 88 88 0 0 1 0 176Zm171-91a42 42 0 0 1-18-72 171 171 0 0 0-322 51 42 42 0 0 1 6 74 171 171 0 0 0 334-50v-3Zm-171 91a88 88 0 1 1 0-176 88 88 0 0 1 0 176Zm0-357-21 1a42 42 0 0 1-74 16 270 270 0 0 0-46 481 42 42 0 0 1 69 30 268 268 0 0 0 254-60 42 42 0 0 1 48-58 270 270 0 0 0-230-410Zm201 262v7a202 202 0 0 1-395 56 42 42 0 0 1-6-81 202 202 0 0 1 382-60 42 42 0 0 1 19 78Zm-62-36c0-13 6-24 14-32a171 171 0 0 0-322 51 42 42 0 0 1 6 74 171 171 0 0 0 334-50v-3c-19-4-32-21-32-40ZM500 588a88 88 0 1 1 0-176 88 88 0 0 1 0 176Zm171-91a42 42 0 0 1-18-72 171 171 0 0 0-322 51 42 42 0 0 1 6 74 171 171 0 0 0 334-50v-3Zm-171 91a88 88 0 1 1 0-176 88 88 0 0 1 0 176Zm171-91a42 42 0 0 1-18-72 171 171 0 0 0-322 51 42 42 0 0 1 6 74 171 171 0 0 0 334-50v-3Zm-171 91a88 88 0 1 1 0-176 88 88 0 0 1 0 176Zm0-357-21 1a42 42 0 0 1-74 16 270 270 0 0 0-46 481 42 42 0 0 1 69 30 268 268 0 0 0 254-60 42 42 0 0 1 48-58 270 270 0 0 0-230-410Zm201 262v7a202 202 0 0 1-395 56 42 42 0 0 1-6-81 202 202 0 0 1 382-60 42 42 0 0 1 19 78Zm-62-36c0-13 6-24 14-32a171 171 0 0 0-322 51 42 42 0 0 1 6 74 171 171 0 0 0 334-50v-3c-19-4-32-21-32-40ZM500 588a88 88 0 1 1 0-176 88 88 0 0 1 0 176Zm171-91a42 42 0 0 1-18-72 171 171 0 0 0-322 51 42 42 0 0 1 6 74 171 171 0 0 0 334-50v-3Zm-171 91a88 88 0 1 1 0-176 88 88 0 0 1 0 176Zm171-91a42 42 0 0 1-18-72 171 171 0 0 0-322 51 42 42 0 0 1 6 74 171 171 0 0 0 334-50v-3Zm-171 91a88 88 0 1 1 0-176 88 88 0 0 1 0 176Zm0-357-21 1a42 42 0 0 1-74 16 270 270 0 0 0-46 481 42 42 0 0 1 69 30 268 268 0 0 0 254-60 42 42 0 0 1 48-58 270 270 0 0 0-230-410Zm201 262v7a202 202 0 0 1-395 56 42 42 0 0 1-6-81 202 202 0 0 1 382-60 42 42 0 0 1 19 78Zm-62-36c0-13 6-24 14-32a171 171 0 0 0-322 51 42 42 0 0 1 6 74 171 171 0 0 0 334-50v-3c-19-4-32-21-32-40ZM500 588a88 88 0 1 1 0-176 88 88 0 0 1 0 176Zm171-91a42 42 0 0 1-18-72 171 171 0 0 0-322 51 42 42 0 0 1 6 74 171 171 0 0 0 334-50v-3Zm-171 91a88 88 0 1 1 0-176 88 88 0 0 1 0 176Zm171-91a42 42 0 0 1-18-72 171 171 0 0 0-322 51 42 42 0 0 1 6 74 171 171 0 0 0 334-50v-3Zm-171 91a88 88 0 1 1 0-176 88 88 0 0 1 0 176Zm0-357-21 1a42 42 0 0 1-74 16 270 270 0 0 0-46 481 42 42 0 0 1 69 30 268 268 0 0 0 254-60 42 42 0 0 1 48-58 270 270 0 0 0-230-410Zm201 262v7a202 202 0 0 1-395 56 42 42 0 0 1-6-81 202 202 0 0 1 382-60 42 42 0 0 1 19 78Zm-62-36c0-13 6-24 14-32a171 171 0 0 0-322 51 42 42 0 0 1 6 74 171 171 0 0 0 334-50v-3c-19-4-32-21-32-40ZM500 588a88 88 0 1 1 0-176 88 88 0 0 1 0 176Zm171-91a42 42 0 0 1-18-72 171 171 0 0 0-322 51 42 42 0 0 1 6 74 171 171 0 0 0 334-50v-3Zm-171 91a88 88 0 1 1 0-176 88 88 0 0 1 0 176Zm171-91a42 42 0 0 1-18-72 171 171 0 0 0-322 51 42 42 0 0 1 6 74 171 171 0 0 0 334-50v-3Zm-171 91a88 88 0 1 1 0-176 88 88 0 0 1 0 176Zm0-357-21 1a42 42 0 0 1-74 16 270 270 0 0 0-46 481 42 42 0 0 1 69 30 268 268 0 0 0 254-60 42 42 0 0 1 48-58 270 270 0 0 0-230-410Zm201 262v7a202 202 0 0 1-395 56 42 42 0 0 1-6-81 202 202 0 0 1 382-60 42 42 0 0 1 19 78Zm-62-36c0-13 6-24 14-32a171 171 0 0 0-322 51 42 42 0 0 1 6 74 171 171 0 0 0 334-50v-3c-19-4-32-21-32-40ZM500 588a88 88 0 1 1 0-176 88 88 0 0 1 0 176Zm0-357-21 1a42 42 0 0 1-74 16 270 270 0 0 0-46 481 42 42 0 0 1 69 30 268 268 0 0 0 254-60 42 42 0 0 1 48-58 270 270 0 0 0-230-410Zm201 262v7a202 202 0 0 1-395 56 42 42 0 0 1-6-81 202 202 0 0 1 382-60 42 42 0 0 1 19 78Zm-62-36c0-13 6-24 14-32a171 171 0 0 0-322 51 42 42 0 0 1 6 74 171 171 0 0 0 334-50v-3c-19-4-32-21-32-40ZM500 588a88 88 0 1 1 0-176 88 88 0 0 1 0 176Zm0-514a426 426 0 1 0 0 852 426 426 0 0 0 0-852Zm261 607a42 42 0 0 1-57 39 299 299 0 0 1-287 68c-7 9-18 15-31 15a42 42 0 0 1-42-47 300 300 0 0 1 53-538 42 42 0 0 1 77-17 300 300 0 0 1 281 457c4 7 6 15 6 23ZM500 231l-21 1a42 42 0 0 1-74 16 270 270 0 0 0-46 481 42 42 0 0 1 69 30 268 268 0 0 0 254-60 42 42 0 0 1 48-58 270 270 0 0 0-230-410Zm201 262v7a202 202 0 0 1-395 56 42 42 0 0 1-6-81 202 202 0 0 1 382-60 42 42 0 0 1 19 78Zm-62-36c0-13 6-24 14-32a171 171 0 0 0-322 51 42 42 0 0 1 6 74 171 171 0 0 0 334-50v-3c-19-4-32-21-32-40ZM500 588a88 88 0 1 1 0-176 88 88 0 0 1 0 176Zm171-91a42 42 0 0 1-18-72 171 171 0 0 0-322 51 42 42 0 0 1 6 74 171 171 0 0 0 334-50v-3Zm-171 91a88 88 0 1 1 0-176 88 88 0 0 1 0 176Zm171-91a42 42 0 0 1-18-72 171 171 0 0 0-322 51 42 42 0 0 1 6 74 171 171 0 0 0 334-50v-3Zm-171 91a88 88 0 1 1 0-176 88 88 0 0 1 0 176Zm0-357-21 1a42 42 0 0 1-74 16 270 270 0 0 0-46 481 42 42 0 0 1 69 30 268 268 0 0 0 254-60 42 42 0 0 1 48-58 270 270 0 0 0-230-410Zm201 262v7a202 202 0 0 1-395 56 42 42 0 0 1-6-81 202 202 0 0 1 382-60 42 42 0 0 1 19 78Zm-62-36c0-13 6-24 14-32a171 171 0 0 0-322 51 42 42 0 0 1 6 74 171 171 0 0 0 334-50v-3c-19-4-32-21-32-40ZM500 588a88 88 0 1 1 0-176 88 88 0 0 1 0 176Zm171-91a42 42 0 0 1-18-72 171 171 0 0 0-322 51 42 42 0 0 1 6 74 171 171 0 0 0 334-50v-3Zm-171 91a88 88 0 1 1 0-176 88 88 0 0 1 0 176Zm171-91a42 42 0 0 1-18-72 171 171 0 0 0-322 51 42 42 0 0 1 6 74 171 171 0 0 0 334-50v-3Zm-171 91a88 88 0 1 1 0-176 88 88 0 0 1 0 176Zm0-357-21 1a42 42 0 0 1-74 16 270 270 0 0 0-46 481 42 42 0 0 1 69 30 268 268 0 0 0 254-60 42 42 0 0 1 48-58 270 270 0 0 0-230-410Zm201 262v7a202 202 0 0 1-395 56 42 42 0 0 1-6-81 202 202 0 0 1 382-60 42 42 0 0 1 19 78Zm-62-36c0-13 6-24 14-32a171 171 0 0 0-322 51 42 42 0 0 1 6 74 171 171 0 0 0 334-50v-3c-19-4-32-21-32-40ZM500 588a88 88 0 1 1 0-176 88 88 0 0 1 0 176Zm171-91a42 42 0 0 1-18-72 171 171 0 0 0-322 51 42 42 0 0 1 6 74 171 171 0 0 0 334-50v-3Zm-171 91a88 88 0 1 1 0-176 88 88 0 0 1 0 176Zm171-91a42 42 0 0 1-18-72 171 171 0 0 0-322 51 42 42 0 0 1 6 74 171 171 0 0 0 334-50v-3Zm-171 91a88 88 0 1 1 0-176 88 88 0 0 1 0 176Zm0-357-21 1a42 42 0 0 1-74 16 270 270 0 0 0-46 481 42 42 0 0 1 69 30 268 268 0 0 0 254-60 42 42 0 0 1 48-58 270 270 0 0 0-230-410Zm201 262v7a202 202 0 0 1-395 56 42 42 0 0 1-6-81 202 202 0 0 1 382-60 42 42 0 0 1 19 78Zm-62-36c0-13 6-24 14-32a171 171 0 0 0-322 51 42 42 0 0 1 6 74 171 171 0 0 0 334-50v-3c-19-4-32-21-32-40ZM500 588a88 88 0 1 1 0-176 88 88 0 0 1 0 176Zm171-91a42 42 0 0 1-18-72 171 171 0 0 0-322 51 42 42 0 0 1 6 74 171 171 0 0 0 334-50v-3Zm-171 91a88 88 0 1 1 0-176 88 88 0 0 1 0 176Zm171-91a42 42 0 0 1-18-72 171 171 0 0 0-322 51 42 42 0 0 1 6 74 171 171 0 0 0 334-50v-3Zm-171 91a88 88 0 1 1 0-176 88 88 0 0 1 0 176Zm0-357-21 1a42 42 0 0 1-74 16 270 270 0 0 0-46 481 42 42 0 0 1 69 30 268 268 0 0 0 254-60 42 42 0 0 1 48-58 270 270 0 0 0-230-410Zm201 262v7a202 202 0 0 1-395 56 42 42 0 0 1-6-81 202 202 0 0 1 382-60 42 42 0 0 1 19 78Zm-62-36c0-13 6-24 14-32a171 171 0 0 0-322 51 42 42 0 0 1 6 74 171 171 0 0 0 334-50v-3c-19-4-32-21-32-40ZM500 588a88 88 0 1 1 0-176 88 88 0 0 1 0 176Zm171-91a42 42 0 0 1-18-72 171 171 0 0 0-322 51 42 42 0 0 1 6 74 171 171 0 0 0 334-50v-3Zm-171 91a88 88 0 1 1 0-176 88 88 0 0 1 0 176Zm171-91a42 42 0 0 1-18-72 171 171 0 0 0-322 51 42 42 0 0 1 6 74 171 171 0 0 0 334-50v-3Zm-171 91a88 88 0 1 1 0-176 88 88 0 0 1 0 176Zm0-357-21 1a42 42 0 0 1-74 16 270 270 0 0 0-46 481 42 42 0 0 1 69 30 268 268 0 0 0 254-60 42 42 0 0 1 48-58 270 270 0 0 0-230-410Zm201 262v7a202 202 0 0 1-395 56 42 42 0 0 1-6-81 202 202 0 0 1 382-60 42 42 0 0 1 19 78Zm-62-36c0-13 6-24 14-32a171 171 0 0 0-322 51 42 42 0 0 1 6 74 171 171 0 0 0 334-50v-3c-19-4-32-21-32-40ZM500 588a88 88 0 1 1 0-176 88 88 0 0 1 0 176Z"
     style="fill:#12d39d;stroke-width:0"
     id="path2" />
</svg>
