<svg xmlns="http://www.w3.org/2000/svg" data-name="Слой 1" viewBox="0 0 1000 1000">
  <path d="M671 497a42 42 0 0 1-18-72 171 171 0 0 0-322 51 42 42 0 0 1 6 74 171 171 0 0 0 334-50v-3Zm-171 91a88 88 0 1 1 0-176 88 88 0 0 1 0 176Zm171-91a42 42 0 0 1-18-72 171 171 0 0 0-322 51 42 42 0 0 1 6 74 171 171 0 0 0 334-50v-3Zm-171 91a88 88 0 1 1 0-176 88 88 0 0 1 0 176Zm0-357-21 1a42 42 0 0 1-74 16 270 270 0 0 0-46 481 42 42 0 0 1 69 30 268 268 0 0 0 254-60 42 42 0 0 1 48-58 270 270 0 0 0-230-410Zm201 262v7a202 202 0 0 1-395 56 42 42 0 0 1-6-81 202 202 0 0 1 382-60 42 42 0 0 1 19 78Zm-62-36c0-13 6-24 14-32a171 171 0 0 0-322 51 42 42 0 0 1 6 74 171 171 0 0 0 334-50v-3c-19-4-32-21-32-40ZM500 588a88 88 0 1 1 0-176 88 88 0 0 1 0 176Zm171-91a42 42 0 0 1-18-72 171 171 0 0 0-322 51 42 42 0 0 1 6 74 171 171 0 0 0 334-50v-3Zm-171 91a88 88 0 1 1 0-176 88 88 0 0 1 0 176Zm171-91a42 42 0 0 1-18-72 171 171 0 0 0-322 51 42 42 0 0 1 6 74 171 171 0 0 0 334-50v-3Zm-171 91a88 88 0 1 1 0-176 88 88 0 0 1 0 176Zm0-357-21 1a42 42 0 0 1-74 16 270 270 0 0 0-46 481 42 42 0 0 1 69 30 268 268 0 0 0 254-60 42 42 0 0 1 48-58 270 270 0 0 0-230-410Zm201 262v7a202 202 0 0 1-395 56 42 42 0 0 1-6-81 202 202 0 0 1 382-60 42 42 0 0 1 19 78Zm-62-36c0-13 6-24 14-32a171 171 0 0 0-322 51 42 42 0 0 1 6 74 171 171 0 0 0 334-50v-3c-19-4-32-21-32-40ZM500 588a88 88 0 1 1 0-176 88 88 0 0 1 0 176Zm171-91a42 42 0 0 1-18-72 171 171 0 0 0-322 51 42 42 0 0 1 6 74 171 171 0 0 0 334-50v-3Zm-171 91a88 88 0 1 1 0-176 88 88 0 0 1 0 176Zm171-91a42 42 0 0 1-18-72 171 171 0 0 0-322 51 42 42 0 0 1 6 74 171 171 0 0 0 334-50v-3Zm-171 91a88 88 0 1 1 0-176 88 88 0 0 1 0 176Zm0-357-21 1a42 42 0 0 1-74 16 270 270 0 0 0-46 481 42 42 0 0 1 69 30 268 268 0 0 0 254-60 42 42 0 0 1 48-58 270 270 0 0 0-230-410Zm201 262v7a202 202 0 0 1-395 56 42 42 0 0 1-6-81 202 202 0 0 1 382-60 42 42 0 0 1 19 78Zm-62-36c0-13 6-24 14-32a171 171 0 0 0-322 51 42 42 0 0 1 6 74 171 171 0 0 0 334-50v-3c-19-4-32-21-32-40ZM500 588a88 88 0 1 1 0-176 88 88 0 0 1 0 176Zm171-91a42 42 0 0 1-18-72 171 171 0 0 0-322 51 42 42 0 0 1 6 74 171 171 0 0 0 334-50v-3Zm-171 91a88 88 0 1 1 0-176 88 88 0 0 1 0 176Zm171-91a42 42 0 0 1-18-72 171 171 0 0 0-322 51 42 42 0 0 1 6 74 171 171 0 0 0 334-50v-3Zm-171 91a88 88 0 1 1 0-176 88 88 0 0 1 0 176Zm0-357-21 1a42 42 0 0 1-74 16 270 270 0 0 0-46 481 42 42 0 0 1 69 30 268 268 0 0 0 254-60 42 42 0 0 1 48-58 270 270 0 0 0-230-410Zm201 262v7a202 202 0 0 1-395 56 42 42 0 0 1-6-81 202 202 0 0 1 382-60 42 42 0 0 1 19 78Zm-62-36c0-13 6-24 14-32a171 171 0 0 0-322 51 42 42 0 0 1 6 74 171 171 0 0 0 334-50v-3c-19-4-32-21-32-40ZM500 588a88 88 0 1 1 0-176 88 88 0 0 1 0 176Zm171-91a42 42 0 0 1-18-72 171 171 0 0 0-322 51 42 42 0 0 1 6 74 171 171 0 0 0 334-50v-3Zm-171 91a88 88 0 1 1 0-176 88 88 0 0 1 0 176Zm171-91a42 42 0 0 1-18-72 171 171 0 0 0-322 51 42 42 0 0 1 6 74 171 171 0 0 0 334-50v-3Zm-171 91a88 88 0 1 1 0-176 88 88 0 0 1 0 176Zm0-357-21 1a42 42 0 0 1-74 16 270 270 0 0 0-46 481 42 42 0 0 1 69 30 268 268 0 0 0 254-60 42 42 0 0 1 48-58 270 270 0 0 0-230-410Zm201 262v7a202 202 0 0 1-395 56 42 42 0 0 1-6-81 202 202 0 0 1 382-60 42 42 0 0 1 19 78Zm-62-36c0-13 6-24 14-32a171 171 0 0 0-322 51 42 42 0 0 1 6 74 171 171 0 0 0 334-50v-3c-19-4-32-21-32-40ZM500 588a88 88 0 1 1 0-176 88 88 0 0 1 0 176Zm0-357-21 1a42 42 0 0 1-74 16 270 270 0 0 0-46 481 42 42 0 0 1 69 30 268 268 0 0 0 254-60 42 42 0 0 1 48-58 270 270 0 0 0-230-410Zm201 262v7a202 202 0 0 1-395 56 42 42 0 0 1-6-81 202 202 0 0 1 382-60 42 42 0 0 1 19 78Zm-62-36c0-13 6-24 14-32a171 171 0 0 0-322 51 42 42 0 0 1 6 74 171 171 0 0 0 334-50v-3c-19-4-32-21-32-40ZM500 588a88 88 0 1 1 0-176 88 88 0 0 1 0 176Zm0-514a426 426 0 1 0 0 852 426 426 0 0 0 0-852Zm261 607a42 42 0 0 1-57 39 299 299 0 0 1-287 68c-7 9-18 15-31 15a42 42 0 0 1-42-47 300 300 0 0 1 53-538 42 42 0 0 1 77-17 300 300 0 0 1 281 457c4 7 6 15 6 23ZM500 231l-21 1a42 42 0 0 1-74 16 270 270 0 0 0-46 481 42 42 0 0 1 69 30 268 268 0 0 0 254-60 42 42 0 0 1 48-58 270 270 0 0 0-230-410Zm201 262v7a202 202 0 0 1-395 56 42 42 0 0 1-6-81 202 202 0 0 1 382-60 42 42 0 0 1 19 78Zm-62-36c0-13 6-24 14-32a171 171 0 0 0-322 51 42 42 0 0 1 6 74 171 171 0 0 0 334-50v-3c-19-4-32-21-32-40ZM500 588a88 88 0 1 1 0-176 88 88 0 0 1 0 176Zm171-91a42 42 0 0 1-18-72 171 171 0 0 0-322 51 42 42 0 0 1 6 74 171 171 0 0 0 334-50v-3Zm-171 91a88 88 0 1 1 0-176 88 88 0 0 1 0 176Zm171-91a42 42 0 0 1-18-72 171 171 0 0 0-322 51 42 42 0 0 1 6 74 171 171 0 0 0 334-50v-3Zm-171 91a88 88 0 1 1 0-176 88 88 0 0 1 0 176Zm0-357-21 1a42 42 0 0 1-74 16 270 270 0 0 0-46 481 42 42 0 0 1 69 30 268 268 0 0 0 254-60 42 42 0 0 1 48-58 270 270 0 0 0-230-410Zm201 262v7a202 202 0 0 1-395 56 42 42 0 0 1-6-81 202 202 0 0 1 382-60 42 42 0 0 1 19 78Zm-62-36c0-13 6-24 14-32a171 171 0 0 0-322 51 42 42 0 0 1 6 74 171 171 0 0 0 334-50v-3c-19-4-32-21-32-40ZM500 588a88 88 0 1 1 0-176 88 88 0 0 1 0 176Zm171-91a42 42 0 0 1-18-72 171 171 0 0 0-322 51 42 42 0 0 1 6 74 171 171 0 0 0 334-50v-3Zm-171 91a88 88 0 1 1 0-176 88 88 0 0 1 0 176Zm171-91a42 42 0 0 1-18-72 171 171 0 0 0-322 51 42 42 0 0 1 6 74 171 171 0 0 0 334-50v-3Zm-171 91a88 88 0 1 1 0-176 88 88 0 0 1 0 176Zm0-357-21 1a42 42 0 0 1-74 16 270 270 0 0 0-46 481 42 42 0 0 1 69 30 268 268 0 0 0 254-60 42 42 0 0 1 48-58 270 270 0 0 0-230-410Zm201 262v7a202 202 0 0 1-395 56 42 42 0 0 1-6-81 202 202 0 0 1 382-60 42 42 0 0 1 19 78Zm-62-36c0-13 6-24 14-32a171 171 0 0 0-322 51 42 42 0 0 1 6 74 171 171 0 0 0 334-50v-3c-19-4-32-21-32-40ZM500 588a88 88 0 1 1 0-176 88 88 0 0 1 0 176Zm171-91a42 42 0 0 1-18-72 171 171 0 0 0-322 51 42 42 0 0 1 6 74 171 171 0 0 0 334-50v-3Zm-171 91a88 88 0 1 1 0-176 88 88 0 0 1 0 176Zm171-91a42 42 0 0 1-18-72 171 171 0 0 0-322 51 42 42 0 0 1 6 74 171 171 0 0 0 334-50v-3Zm-171 91a88 88 0 1 1 0-176 88 88 0 0 1 0 176Zm0-357-21 1a42 42 0 0 1-74 16 270 270 0 0 0-46 481 42 42 0 0 1 69 30 268 268 0 0 0 254-60 42 42 0 0 1 48-58 270 270 0 0 0-230-410Zm201 262v7a202 202 0 0 1-395 56 42 42 0 0 1-6-81 202 202 0 0 1 382-60 42 42 0 0 1 19 78Zm-62-36c0-13 6-24 14-32a171 171 0 0 0-322 51 42 42 0 0 1 6 74 171 171 0 0 0 334-50v-3c-19-4-32-21-32-40ZM500 588a88 88 0 1 1 0-176 88 88 0 0 1 0 176Zm171-91a42 42 0 0 1-18-72 171 171 0 0 0-322 51 42 42 0 0 1 6 74 171 171 0 0 0 334-50v-3Zm-171 91a88 88 0 1 1 0-176 88 88 0 0 1 0 176Zm171-91a42 42 0 0 1-18-72 171 171 0 0 0-322 51 42 42 0 0 1 6 74 171 171 0 0 0 334-50v-3Zm-171 91a88 88 0 1 1 0-176 88 88 0 0 1 0 176Zm0-357-21 1a42 42 0 0 1-74 16 270 270 0 0 0-46 481 42 42 0 0 1 69 30 268 268 0 0 0 254-60 42 42 0 0 1 48-58 270 270 0 0 0-230-410Zm201 262v7a202 202 0 0 1-395 56 42 42 0 0 1-6-81 202 202 0 0 1 382-60 42 42 0 0 1 19 78Zm-62-36c0-13 6-24 14-32a171 171 0 0 0-322 51 42 42 0 0 1 6 74 171 171 0 0 0 334-50v-3c-19-4-32-21-32-40ZM500 588a88 88 0 1 1 0-176 88 88 0 0 1 0 176Zm171-91a42 42 0 0 1-18-72 171 171 0 0 0-322 51 42 42 0 0 1 6 74 171 171 0 0 0 334-50v-3Zm-171 91a88 88 0 1 1 0-176 88 88 0 0 1 0 176Zm171-91a42 42 0 0 1-18-72 171 171 0 0 0-322 51 42 42 0 0 1 6 74 171 171 0 0 0 334-50v-3Zm-171 91a88 88 0 1 1 0-176 88 88 0 0 1 0 176Zm0-357-21 1a42 42 0 0 1-74 16 270 270 0 0 0-46 481 42 42 0 0 1 69 30 268 268 0 0 0 254-60 42 42 0 0 1 48-58 270 270 0 0 0-230-410Zm201 262v7a202 202 0 0 1-395 56 42 42 0 0 1-6-81 202 202 0 0 1 382-60 42 42 0 0 1 19 78Zm-62-36c0-13 6-24 14-32a171 171 0 0 0-322 51 42 42 0 0 1 6 74 171 171 0 0 0 334-50v-3c-19-4-32-21-32-40ZM500 588a88 88 0 1 1 0-176 88 88 0 0 1 0 176Z" style="fill:#12d39d;stroke-width:0"/>
</svg>
