<?xml version="1.0" encoding="UTF-8" standalone="no"?>
<!-- Created with Inkscape (http://www.inkscape.org/) -->

<svg
   width="220"
   height="220"
   viewBox="0 0 58.305271 58.593803"
   version="1.1"
   id="svg7261"
   inkscape:version="1.1.2 (0a00cf5339, 2022-02-04)"
   sodipodi:docname="line-corner-vector.svg"
   xmlns:inkscape="http://www.inkscape.org/namespaces/inkscape"
   xmlns:sodipodi="http://sodipodi.sourceforge.net/DTD/sodipodi-0.dtd"
   xmlns="http://www.w3.org/2000/svg"
   xmlns:svg="http://www.w3.org/2000/svg">
  <sodipodi:namedview
     id="namedview7263"
     borderopacity="1.0"
     inkscape:pageshadow="2"
     inkscape:pageopacity="0"
     inkscape:pagecheckerboard="true"
     inkscape:document-units="mm"
     showgrid="false"
     inkscape:zoom="5.1241862"
     inkscape:cx="95.722517"
     inkscape:cy="28.785059"
     inkscape:window-width="1920"
     inkscape:window-height="1172"
     inkscape:window-x="0"
     inkscape:window-y="0"
     inkscape:window-maximized="1"
     inkscape:current-layer="layer1"
     units="px"
     width="220.36638px" />
  <defs
     id="defs7258" />
  <g
     inkscape:label="Layer 1"
     inkscape:groupmode="layer"
     id="layer1"
     transform="translate(-45.170937,-63.644675)">
    <path
       id="path2514"
       style="fill:#fefefe;fill-opacity:0.75;fill-rule:evenodd;stroke-width:0.25; stroke: #d0f3fe;"
       d="m 78.195801,70.385689 c 3.978325,1.735026 7.956649,3.470052 11.934974,5.205079 0,-0.911459 0,-1.822917 0,-2.734376 3.878831,0.01972 7.763836,-0.03935 11.638835,0.0293 0.99034,0.22593 0.63547,1.380365 0.69364,2.100782 0,7.976171 0,15.952343 0,23.928515 -17.610375,0.01607 -35.197616,-0.02629 -52.804964,0.0072 -2.009703,0.04431 -4.365852,1.353641 -4.433221,3.529941 0.02302,6.49507 -0.04008,12.99265 0.03601,19.48621 -0.142524,0.52412 0.367412,0.56904 0.737128,0.46105 0.249635,-1.11491 0.02231,-2.29916 0.09885,-3.43984 0.01711,-5.62312 -0.04141,-11.24976 0.02239,-16.87071 0.308003,-1.90233 2.448118,-2.886353 4.250878,-2.738276 17.653823,0 35.307647,0 52.961459,0 -0.005,-8.5904 0.0106,-17.181558 -0.008,-25.771484 -0.24547,-1.136135 -1.66225,-1.24256 -2.6247,-1.164063 -3.811632,0 -7.623271,0 -11.43491,0 0,0.744141 0,1.488281 0,2.232422 -3.258104,-1.420751 -6.517037,-2.839669 -9.774554,-4.261719 3.257525,-1.422031 6.516444,-2.840979 9.774554,-4.261718 0,0.74414 0,1.488281 0,2.232421 5.166688,0.02195 10.335289,0.01009 15.50077,0.06064 1.44756,0.07214 3.32033,0.287111 3.95095,1.792874 0.37666,1.246043 0.0442,2.574986 0.10686,3.853935 -0.18383,8.428331 -0.42793,16.855975 -0.57392,25.284737 0.7747,0.183583 1.02233,-0.151943 0.86655,-0.884766 0.0729,-9.443736 0.20629,-18.889206 0.24171,-28.331867 -0.0453,-1.329408 -1.46489,-1.919634 -2.62473,-2.033367 -2.8747,-0.295993 -5.7742,-0.07625 -8.659143,-0.156999 -2.647498,-0.0096 -5.294997,-0.01898 -7.942495,-0.02855 0,-0.910807 0,-1.821614 0,-2.732422 -3.978324,1.735026 -7.956648,3.470052 -11.934973,5.205078 z" />
  </g>
</svg>
