
        <svg xmlns="http://www.w3.org/2000/svg" xmlns:xlink="http://www.w3.org/1999/xlink" version="1.1" width="2203.7143685228925" 
        height="3127.75155759553" viewBox="0 0 2203.7143685228925 3127.75155759553">
			
			<g transform="scale(6.3875778797765) translate(10, 10)">
				<defs id="SvgjsDefs5716"></defs><g id="SvgjsG5717" featureKey="symbolFeature-0" transform="matrix(1.345366358757019,0,0,1.345366358757019,16.49027723627733,-54.47657314411054)" fill="#d0f3fe"><path xmlns="http://www.w3.org/2000/svg" d="M155.962,51.08c15.815-4.428,31.665-7.072,45.834-7.647l0.015-1.744c-2.136-0.121-4.376-0.183-6.658-0.183  c-16.175,0-34.766,2.963-53.764,8.57c-22.295,6.58-42.312,16.012-56.364,26.558c-14.283,10.72-20.743,21.387-18.189,30.037  c0.708,2.397,2.095,4.564,4.139,6.473c-3.362-0.804-5.94-2.212-7.533-4.119c-0.216-0.308-0.366-0.574-0.456-0.816  c-6.075-16.256,24.159-43.93,67.395-61.689c3.799-1.56,7.664-3.028,11.486-4.364l-0.525-1.664  c-8.054,2.271-16.249,5.111-24.357,8.443c-21.503,8.831-40.448,20.266-53.345,32.197c-13.108,12.127-18.44,23.4-15.013,31.743  c3.173,7.728,13.641,12.008,29.495,12.068c-12.156,6.23-24.269,9.762-33.66,9.762c-7.426,0-12.835-2.157-15.643-6.24  c-3.871-5.63-2.562-14.398,3.686-24.69c6.375-10.5,17.09-21.236,30.172-30.231c2.835-1.95,5.817-3.829,8.862-5.583l-0.792-1.555  c-5.86,2.611-11.614,5.85-17.102,9.623C26.038,95.013,12.043,122.769,22.448,137.9c4.336,6.306,12.163,9.64,22.635,9.64  c14.06,0,30.938-6.06,46.305-16.625c12.091-8.315,22.014-18.605,28.145-29.147c4.504,17.291-18.135,48.595-52.971,72.651  c-13.972,9.647-28.642,17.318-42.424,22.183l-8.15,2.877l8.561-1.188c18.482-2.566,41.489-12.604,63.12-27.541  c19.137-13.216,35.025-28.709,44.738-43.627c9.857-15.142,12.196-27.956,6.586-36.082c-4.565-6.611-14.154-9.455-27.265-8.069  c2.007-0.983,4.042-1.898,6.086-2.738c11.044-4.536,22.573-7.034,32.461-7.034c12.161,0,20.821,3.691,23.76,10.127l1.107,2.426  l-0.146,3.716c-0.674,17.234-12.593,40.086-31.884,61.128l-1.874,2.044l2.707-0.602c11.8-2.622,22.372-10.217,29.004-20.835  c8.078-12.937,9.469-28.654,3.722-42.046l-1.323-3.082l0.347-3.012c0.306-2.649-0.006-5.127-0.925-7.363  c-3.037-7.392-12.353-11.632-25.559-11.632c-10.116,0-21.886,2.546-33.14,7.168c-13.889,5.705-25.69,13.972-32.753,22.769  C90.896,78.711,120.209,61.09,155.962,51.08z M171.469,130.276c-5.858,9.381-14.902,16.308-25.117,19.334  c17.035-19.185,27.992-39.708,30.063-56.167C180.288,105.466,178.53,118.97,171.469,130.276z M79.82,99.197l-0.627,4.391  l2.245-3.825c6.01-10.241,19.206-20.302,35.298-26.912c11.049-4.538,22.583-7.037,32.477-7.037c12.463,0,21.19,3.846,23.944,10.55  c0.46,1.118,0.746,2.309,0.856,3.562c-4.156-5.423-12.583-8.474-23.737-8.474c-10.111,0-21.875,2.545-33.125,7.165  c-3.648,1.498-7.268,3.235-10.757,5.161l-4.559,2.518l5.13-0.893c3.948-0.687,7.664-1.035,11.044-1.035  c9.325,0,16.084,2.65,19.546,7.664c10.865,15.736-11.959,50.404-50.879,77.279c-17.801,12.293-36.514,21.229-52.789,25.349  c11.148-4.779,22.627-11.182,33.667-18.804c37.361-25.801,60.146-58.719,52.999-76.57l-0.693-1.73l-0.886,1.64  c-5.894,10.907-16.042,21.661-28.576,30.28c-15.083,10.37-31.6,16.318-45.315,16.318c-9.871,0-17.201-3.072-21.197-8.884  c-9.647-14.029,3.353-39.864,29.039-58.244c-9.298,7.585-16.907,15.958-21.912,24.202c-6.626,10.914-7.917,20.355-3.632,26.586  c3.148,4.577,9.054,6.996,17.081,6.996c10.652,0,24.036-4.146,37.688-11.673l3.196-1.762l-3.647,0.125  c-1.1,0.037-2.178,0.056-3.236,0.056c-15.289,0-25.311-3.901-28.22-10.986c-3.129-7.619,2.05-18.201,14.584-29.798  c11.898-11.008,29.034-21.6,48.598-30.081c-35.581,17.939-57.759,41.276-52.074,56.488c0.143,0.383,0.36,0.779,0.708,1.268  c2.46,2.95,6.522,4.755,12.075,5.363l3.587,0.393l-3.01-1.989c-3.241-2.142-5.326-4.725-6.198-7.677  c-2.332-7.9,3.905-17.896,17.562-28.146c13.889-10.424,33.709-19.757,55.81-26.28c12.584-3.714,24.982-6.258,36.599-7.538  c-7.543,1.285-15.273,3.025-22.992,5.187C114.113,60.983,82.289,81.927,79.82,99.197z"></path></g>
			</g>
		</svg>
	
