<svg xmlns="http://www.w3.org/2000/svg" xml:space="preserve" id="Слой_1" width="1723.2" height="453.4" x="0" y="0" version="1.1">
  <style id="style2" type="text/css">
    .st0{fill:#12d39d}
  </style>
  <g id="g44" transform="translate(-98 -313)">
    <path id="path4" d="M416 539a22 22 0 0 1-9-39 91 91 0 0 0-172 27c8 4 14 12 14 21 0 8-4 15-11 19a91 91 0 0 0 178-27v-2zm-91 48a47 47 0 1 1 0-94 47 47 0 0 1 0 94zm91-48a22 22 0 0 1-9-39 91 91 0 0 0-172 27c8 4 14 12 14 21 0 8-4 15-11 19a91 91 0 0 0 178-27v-2zm-91 48a47 47 0 1 1 0-94 47 47 0 0 1 0 94zm0-190h-11a22 22 0 0 1-39 9 143 143 0 0 0-25 256 22 22 0 0 1 37 16 143 143 0 0 0 135-32c-2-3-2-6-2-10a22 22 0 0 1 27-21 143 143 0 0 0-122-218Zm107 139v4a107 107 0 0 1-210 30 22 22 0 0 1-3-43 107 107 0 0 1 203-32 22 22 0 0 1 10 41zm-33-19c0-7 3-13 8-17a91 91 0 0 0-172 27c8 4 14 12 14 21 0 8-4 15-11 19a91 91 0 0 0 178-27v-2c-10-2-17-11-17-21Zm-74 70a47 47 0 1 1 0-94 47 47 0 0 1 0 94zm91-48a22 22 0 0 1-9-39 91 91 0 0 0-172 27c8 4 14 12 14 21 0 8-4 15-11 19a91 91 0 0 0 178-27v-2zm-91 48a47 47 0 1 1 0-94 47 47 0 0 1 0 94zm91-48a22 22 0 0 1-9-39 91 91 0 0 0-172 27c8 4 14 12 14 21 0 8-4 15-11 19a91 91 0 0 0 178-27v-2zm-91 48a47 47 0 1 1 0-94 47 47 0 0 1 0 94zm0-190h-11a22 22 0 0 1-39 9 143 143 0 0 0-25 256 22 22 0 0 1 37 16 143 143 0 0 0 135-32c-2-3-2-6-2-10a22 22 0 0 1 27-21 143 143 0 0 0-122-218Zm107 139v4a107 107 0 0 1-210 30 22 22 0 0 1-3-43 107 107 0 0 1 203-32 22 22 0 0 1 10 41zm-33-19c0-7 3-13 8-17a91 91 0 0 0-172 27c8 4 14 12 14 21 0 8-4 15-11 19a91 91 0 0 0 178-27v-2c-10-2-17-11-17-21Zm-74 70a47 47 0 1 1 0-94 47 47 0 0 1 0 94zm91-48a22 22 0 0 1-9-39 91 91 0 0 0-172 27c8 4 14 12 14 21 0 8-4 15-11 19a91 91 0 0 0 178-27v-2zm-91 48a47 47 0 1 1 0-94 47 47 0 0 1 0 94zm91-48a22 22 0 0 1-9-39 91 91 0 0 0-172 27c8 4 14 12 14 21 0 8-4 15-11 19a91 91 0 0 0 178-27v-2zm-91 48a47 47 0 1 1 0-94 47 47 0 0 1 0 94zm0-190h-11a22 22 0 0 1-39 9 143 143 0 0 0-25 256 22 22 0 0 1 37 16 143 143 0 0 0 135-32c-2-3-2-6-2-10a22 22 0 0 1 27-21 143 143 0 0 0-122-218Zm107 139v4a107 107 0 0 1-210 30 22 22 0 0 1-3-43 107 107 0 0 1 203-32 22 22 0 0 1 10 41zm-33-19c0-7 3-13 8-17a91 91 0 0 0-172 27c8 4 14 12 14 21 0 8-4 15-11 19a91 91 0 0 0 178-27v-2c-10-2-17-11-17-21Zm-74 70a47 47 0 1 1 0-94 47 47 0 0 1 0 94zm91-48a22 22 0 0 1-9-39 91 91 0 0 0-172 27c8 4 14 12 14 21 0 8-4 15-11 19a91 91 0 0 0 178-27v-2zm-91 48a47 47 0 1 1 0-94 47 47 0 0 1 0 94zm91-48a22 22 0 0 1-9-39 91 91 0 0 0-172 27c8 4 14 12 14 21 0 8-4 15-11 19a91 91 0 0 0 178-27v-2zm-91 48a47 47 0 1 1 0-94 47 47 0 0 1 0 94zm0-190h-11a22 22 0 0 1-39 9 143 143 0 0 0-25 256 22 22 0 0 1 37 16 143 143 0 0 0 135-32c-2-3-2-6-2-10a22 22 0 0 1 27-21 143 143 0 0 0-122-218Zm107 139v4a107 107 0 0 1-210 30 22 22 0 0 1-3-43 107 107 0 0 1 203-32 22 22 0 0 1 10 41zm-33-19c0-7 3-13 8-17a91 91 0 0 0-172 27c8 4 14 12 14 21 0 8-4 15-11 19a91 91 0 0 0 178-27v-2c-10-2-17-11-17-21Zm-74 70a47 47 0 1 1 0-94 47 47 0 0 1 0 94zm91-48a22 22 0 0 1-9-39 91 91 0 0 0-172 27c8 4 14 12 14 21 0 8-4 15-11 19a91 91 0 0 0 178-27v-2zm-91 48a47 47 0 1 1 0-94 47 47 0 0 1 0 94zm91-48a22 22 0 0 1-9-39 91 91 0 0 0-172 27c8 4 14 12 14 21 0 8-4 15-11 19a91 91 0 0 0 178-27v-2zm-91 48a47 47 0 1 1 0-94 47 47 0 0 1 0 94zm0-190h-11a22 22 0 0 1-39 9 143 143 0 0 0-25 256 22 22 0 0 1 37 16 143 143 0 0 0 135-32c-2-3-2-6-2-10a22 22 0 0 1 27-21 143 143 0 0 0-122-218Zm107 139v4a107 107 0 0 1-210 30 22 22 0 0 1-3-43 107 107 0 0 1 203-32 22 22 0 0 1 10 41zm-33-19c0-7 3-13 8-17a91 91 0 0 0-172 27c8 4 14 12 14 21 0 8-4 15-11 19a91 91 0 0 0 178-27v-2c-10-2-17-11-17-21Zm-74 70a47 47 0 1 1 0-94 47 47 0 0 1 0 94zm0-190h-11a22 22 0 0 1-39 9 143 143 0 0 0-25 256 22 22 0 0 1 37 16 143 143 0 0 0 135-32c-2-3-2-6-2-10a22 22 0 0 1 27-21 143 143 0 0 0-122-218Zm107 139v4a107 107 0 0 1-210 30 22 22 0 0 1-3-43 107 107 0 0 1 203-32 22 22 0 0 1 10 41zm-33-19c0-7 3-13 8-17a91 91 0 0 0-172 27c8 4 14 12 14 21 0 8-4 15-11 19a91 91 0 0 0 178-27v-2c-10-2-17-11-17-21Zm-74 70a47 47 0 1 1 0-94 47 47 0 0 1 0 94zm0-274a227 227 0 1 0 0 454 227 227 0 0 0 0-454zm139 323a22 22 0 0 1-31 21 159 159 0 0 1-152 37c-4 4-10 7-17 7-12 0-22-10-22-22v-3a160 160 0 0 1 28-286 22 22 0 0 1 41-9l14-1a160 160 0 0 1 136 244l3 12zM325 397h-11a22 22 0 0 1-39 9 143 143 0 0 0-25 256 22 22 0 0 1 37 16 143 143 0 0 0 135-32c-2-3-2-6-2-10a22 22 0 0 1 27-21 143 143 0 0 0-122-218Zm107 139v4a107 107 0 0 1-210 30 22 22 0 0 1-3-43 107 107 0 0 1 203-32 22 22 0 0 1 10 41zm-33-19c0-7 3-13 8-17a91 91 0 0 0-172 27c8 4 14 12 14 21 0 8-4 15-11 19a91 91 0 0 0 178-27v-2c-10-2-17-11-17-21Zm-74 70a47 47 0 1 1 0-94 47 47 0 0 1 0 94zm91-48a22 22 0 0 1-9-39 91 91 0 0 0-172 27c8 4 14 12 14 21 0 8-4 15-11 19a91 91 0 0 0 178-27v-2zm-91 48a47 47 0 1 1 0-94 47 47 0 0 1 0 94zm91-48a22 22 0 0 1-9-39 91 91 0 0 0-172 27c8 4 14 12 14 21 0 8-4 15-11 19a91 91 0 0 0 178-27v-2zm-91 48a47 47 0 1 1 0-94 47 47 0 0 1 0 94zm0-190h-11a22 22 0 0 1-39 9 143 143 0 0 0-25 256 22 22 0 0 1 37 16 143 143 0 0 0 135-32c-2-3-2-6-2-10a22 22 0 0 1 27-21 143 143 0 0 0-122-218Zm107 139v4a107 107 0 0 1-210 30 22 22 0 0 1-3-43 107 107 0 0 1 203-32 22 22 0 0 1 10 41zm-33-19c0-7 3-13 8-17a91 91 0 0 0-172 27c8 4 14 12 14 21 0 8-4 15-11 19a91 91 0 0 0 178-27v-2c-10-2-17-11-17-21Zm-74 70a47 47 0 1 1 0-94 47 47 0 0 1 0 94zm91-48a22 22 0 0 1-9-39 91 91 0 0 0-172 27c8 4 14 12 14 21 0 8-4 15-11 19a91 91 0 0 0 178-27v-2zm-91 48a47 47 0 1 1 0-94 47 47 0 0 1 0 94zm91-48a22 22 0 0 1-9-39 91 91 0 0 0-172 27c8 4 14 12 14 21 0 8-4 15-11 19a91 91 0 0 0 178-27v-2zm-91 48a47 47 0 1 1 0-94 47 47 0 0 1 0 94zm0-190h-11a22 22 0 0 1-39 9 143 143 0 0 0-25 256 22 22 0 0 1 37 16 143 143 0 0 0 135-32c-2-3-2-6-2-10a22 22 0 0 1 27-21 143 143 0 0 0-122-218Zm107 139v4a107 107 0 0 1-210 30 22 22 0 0 1-3-43 107 107 0 0 1 203-32 22 22 0 0 1 10 41zm-33-19c0-7 3-13 8-17a91 91 0 0 0-172 27c8 4 14 12 14 21 0 8-4 15-11 19a91 91 0 0 0 178-27v-2c-10-2-17-11-17-21Zm-74 70a47 47 0 1 1 0-94 47 47 0 0 1 0 94zm91-48a22 22 0 0 1-9-39 91 91 0 0 0-172 27c8 4 14 12 14 21 0 8-4 15-11 19a91 91 0 0 0 178-27v-2zm-91 48a47 47 0 1 1 0-94 47 47 0 0 1 0 94zm91-48a22 22 0 0 1-9-39 91 91 0 0 0-172 27c8 4 14 12 14 21 0 8-4 15-11 19a91 91 0 0 0 178-27v-2zm-91 48a47 47 0 1 1 0-94 47 47 0 0 1 0 94zm0-190h-11a22 22 0 0 1-39 9 143 143 0 0 0-25 256 22 22 0 0 1 37 16 143 143 0 0 0 135-32c-2-3-2-6-2-10a22 22 0 0 1 27-21 143 143 0 0 0-122-218Zm107 139v4a107 107 0 0 1-210 30 22 22 0 0 1-3-43 107 107 0 0 1 203-32 22 22 0 0 1 10 41zm-33-19c0-7 3-13 8-17a91 91 0 0 0-172 27c8 4 14 12 14 21 0 8-4 15-11 19a91 91 0 0 0 178-27v-2c-10-2-17-11-17-21Zm-74 70a47 47 0 1 1 0-94 47 47 0 0 1 0 94zm91-48a22 22 0 0 1-9-39 91 91 0 0 0-172 27c8 4 14 12 14 21 0 8-4 15-11 19a91 91 0 0 0 178-27v-2zm-91 48a47 47 0 1 1 0-94 47 47 0 0 1 0 94zm91-48a22 22 0 0 1-9-39 91 91 0 0 0-172 27c8 4 14 12 14 21 0 8-4 15-11 19a91 91 0 0 0 178-27v-2zm-91 48a47 47 0 1 1 0-94 47 47 0 0 1 0 94zm0-190h-11a22 22 0 0 1-39 9 143 143 0 0 0-25 256 22 22 0 0 1 37 16 143 143 0 0 0 135-32c-2-3-2-6-2-10a22 22 0 0 1 27-21 143 143 0 0 0-122-218Zm107 139v4a107 107 0 0 1-210 30 22 22 0 0 1-3-43 107 107 0 0 1 203-32 22 22 0 0 1 10 41zm-33-19c0-7 3-13 8-17a91 91 0 0 0-172 27c8 4 14 12 14 21 0 8-4 15-11 19a91 91 0 0 0 178-27v-2c-10-2-17-11-17-21Zm-74 70a47 47 0 1 1 0-94 47 47 0 0 1 0 94zm91-48a22 22 0 0 1-9-39 91 91 0 0 0-172 27c8 4 14 12 14 21 0 8-4 15-11 19a91 91 0 0 0 178-27v-2zm-91 48a47 47 0 1 1 0-94 47 47 0 0 1 0 94zm91-48a22 22 0 0 1-9-39 91 91 0 0 0-172 27c8 4 14 12 14 21 0 8-4 15-11 19a91 91 0 0 0 178-27v-2zm-91 48a47 47 0 1 1 0-94 47 47 0 0 1 0 94zm0-190h-11a22 22 0 0 1-39 9 143 143 0 0 0-25 256 22 22 0 0 1 37 16 143 143 0 0 0 135-32c-2-3-2-6-2-10a22 22 0 0 1 27-21 143 143 0 0 0-122-218Zm107 139v4a107 107 0 0 1-210 30 22 22 0 0 1-3-43 107 107 0 0 1 203-32 22 22 0 0 1 10 41zm-33-19c0-7 3-13 8-17a91 91 0 0 0-172 27c8 4 14 12 14 21 0 8-4 15-11 19a91 91 0 0 0 178-27v-2c-10-2-17-11-17-21Zm-74 70a47 47 0 1 1 0-94 47 47 0 0 1 0 94z" class="st0"/>
    <g id="g42">
      <g id="g22">
        <g id="g20">
          <path id="path6" d="M760 443c26 0 47 9 65 28 17 18 26 42 26 70 0 29-9 53-26 71a86 86 0 0 1-65 28c-23 0-42-7-57-21v78h-59V448h59v15c15-13 34-20 57-20zm-12 146c13 0 24-4 32-13 9-9 13-20 13-35 0-14-4-25-13-34-8-9-19-14-32-14a47 47 0 0 0-45 48c0 14 4 26 13 35s20 13 32 13z" class="st0"/>
          <path id="path8" d="M936 634h-59V368h59z" class="st0"/>
          <path id="path10" d="M1169 448v186h-59v-15a83 83 0 0 1-58 21c-25 0-46-9-64-28a98 98 0 0 1-26-71c0-28 8-52 26-70 18-19 39-28 64-28 24 0 43 7 58 20v-15zm-104 141c12 0 23-4 32-13s13-21 13-35-4-25-13-34-20-14-32-14c-14 0-24 5-33 14-8 9-12 20-12 34 0 15 4 26 12 35 9 9 19 13 33 13z" class="st0"/>
          <path id="path12" d="M1321 443c22 0 40 7 53 21s20 33 20 56v114h-59V533c0-11-3-20-9-27s-14-10-23-10c-12 0-22 4-28 13-7 8-11 21-11 39v86h-59V448h59v18c15-15 34-23 57-23z" class="st0"/>
          <path id="path14" d="M1434 370c6-7 15-10 24-10 10 0 19 3 25 10 7 7 10 14 10 24 0 9-4 17-10 23s-15 9-25 9c-9 0-18-3-24-9s-10-14-10-23c0-10 4-18 10-24zm54 264h-59V448h59z" class="st0"/>
          <path id="path16" d="m1650 579 13 47c-17 9-34 14-50 14-24 0-42-7-55-19-13-13-19-31-19-55v-71h-34v-47h33v-54h60v54h55v47h-55v65c0 18 8 27 25 27 9 0 18-3 27-8z" class="st0"/>
          <path id="path18" d="m1808 579 14 47c-17 9-34 14-51 14-23 0-42-7-55-19-13-13-19-31-19-55v-71h-34v-47h34v-54h59v54h55v47h-55v65c0 18 8 27 25 27 9 0 18-3 27-8z" class="st0"/>
        </g>
      </g>
      <g id="g40">
        <path id="path24" d="M874 692c3 3 5 7 5 12s-2 9-5 12c-4 3-9 5-15 5h-14v16h-4v-50h18c6 0 11 2 15 5zm-3 22c3-2 4-6 4-10 1-4-1-8-4-10-3-3-7-4-12-4h-14v27h14c5 0 9-1 12-3z" class="st0"/>
        <path id="path26" d="M976 734v3h-35v-50h34v3h-30v20h27v3h-27v21z" class="st0"/>
        <path id="path28" d="m1074 737-12-17-5 1h-14v16h-4v-50h18c6 0 11 2 15 5 3 3 5 7 5 12 0 4-1 7-3 10s-5 5-8 6l12 17h-4zm-17-19c5 0 9-2 12-4s4-6 4-10-1-8-4-10-7-3-12-3h-14v27h14z" class="st0"/>
        <path id="path30" d="m1143 736-8-5 2-3 7 4c3 2 6 2 9 2 5 0 9-1 11-3 3-1 4-4 4-7l-2-5-5-3-8-2-8-3-6-4-2-7c0-3 0-5 2-7l6-5 9-1a27 27 0 0 1 16 4l-2 3-7-3-7-1c-4 0-8 1-10 3-2 1-4 4-4 7l2 5 5 3 8 2 9 3 5 4c2 2 3 4 3 7l-2 7-6 4c-3 2-6 2-10 2s-8 0-11-2z" class="st0"/>
        <path id="path32" d="M1242 734c-4-2-7-5-10-9-2-4-3-8-3-13a24 24 0 0 1 13-22c4-2 8-3 13-3s9 1 13 3a25 25 0 0 1 13 22 25 25 0 0 1-26 26l-13-4zm24-3c4-2 6-4 8-8 2-3 3-7 3-11s-1-8-3-11-4-6-8-8a23 23 0 0 0-23 0c-3 2-6 5-7 8-2 3-3 7-3 11s1 8 3 11c1 4 4 6 8 8 3 2 7 3 11 3s8-1 11-3z" class="st0"/>
        <path id="path34" d="M1384 687v50h-3l-34-43v43h-4v-50h4l34 44v-44z" class="st0"/>
        <path id="path36" d="M1482 723h-29l-6 14h-4l23-50h4l23 50h-4zm-1-3-13-29-13 29z" class="st0"/>
        <path id="path38" d="M1552 687h3v47h29v3h-32v-50z" class="st0"/>
      </g>
    </g>
  </g>
</svg>
