<svg width="197" height="24" viewBox="0 0 197 24" fill="none" xmlns="http://www.w3.org/2000/svg">
<path d="M21.0913 1.59839C23.4743 0.929995 25.8625 0.530924 27.9977 0.444037L28 0.180801C27.6781 0.162533 27.3406 0.153165 26.9967 0.153165C24.5593 0.153165 21.7582 0.600481 18.8954 1.44687C15.5361 2.44009 12.5197 3.86401 10.4024 5.45608C8.25019 7.07438 7.27683 8.68448 7.66159 9.99036C7.76818 10.3522 7.97716 10.6794 8.28525 10.9674C7.7787 10.8461 7.3902 10.6335 7.15013 10.3456C7.11764 10.299 7.09496 10.259 7.08141 10.2224C6.16602 7.76854 10.7217 3.59094 17.2365 0.910089C17.8089 0.674487 18.3912 0.452937 18.9672 0.251294L18.8882 0C17.6745 0.342864 16.4398 0.771445 15.218 1.2745C11.9779 2.60755 9.12327 4.33381 7.18005 6.13478C5.20505 7.96549 4.40139 9.66717 4.91799 10.9267C5.39602 12.0932 6.97341 12.7394 9.3624 12.7485C7.53068 13.689 5.70552 14.2223 4.29059 14.2223C3.1716 14.2223 2.3565 13.8968 1.9334 13.2804C1.35018 12.4305 1.54746 11.1068 2.4888 9.55335C3.4493 7.96831 5.06386 6.34767 7.03512 4.98979C7.46219 4.69541 7.91171 4.4118 8.37034 4.14692L8.25089 3.91225C7.36799 4.30641 6.50099 4.79541 5.67396 5.36498C1.51451 8.23037 -0.594441 12.4204 0.97336 14.7045C1.62671 15.6565 2.80601 16.1598 4.38409 16.1598C6.50263 16.1598 9.04589 15.245 11.3612 13.6501C13.1831 12.3949 14.6782 10.8417 15.602 9.2503C16.2806 11.8604 12.8694 16.586 7.62045 20.2175C5.51524 21.6735 3.30484 22.8316 1.22815 23.5658L0 24L1.28987 23.8206C4.07484 23.4332 7.54144 21.918 10.8009 19.6631C13.6845 17.668 16.0784 15.3293 17.542 13.0773C19.0273 10.7915 19.3798 8.85708 18.5343 7.63059C17.8463 6.63268 16.4015 6.2034 14.426 6.41254C14.7285 6.26406 15.035 6.12612 15.343 5.99918C17.0072 5.31439 18.7444 4.93733 20.2344 4.93733C22.0668 4.93733 23.3716 5.49449 23.8146 6.46617L23.9815 6.83245L23.9595 7.39335C23.8581 9.99504 22.0619 13.4445 19.1551 16.6209L18.8728 16.9296L19.2807 16.8387C21.0586 16.4429 22.6517 15.2963 23.651 13.6935C24.8681 11.7405 25.0778 9.36786 24.2118 7.34628L24.0124 6.88093L24.0647 6.42636C24.1108 6.02658 24.0638 5.65234 23.9254 5.31486C23.4677 4.19891 22.064 3.55885 20.0743 3.55885C18.5499 3.55885 16.7764 3.94317 15.0808 4.64084C12.988 5.50198 11.2098 6.75002 10.1455 8.07791C11.2871 5.76943 15.7042 3.10943 21.0913 1.59839ZM23.428 13.5537C22.5453 14.9698 21.1825 16.0155 19.6432 16.4722C22.2101 13.5761 23.8611 10.478 24.1732 7.99336C24.7569 9.80839 24.492 11.8468 23.428 13.5537ZM9.61836 8.862L9.52392 9.52478L9.86217 8.94748C10.7677 7.40155 12.7561 5.88278 15.1808 4.88487C16.8456 4.19985 18.5836 3.82256 20.0745 3.82256C21.9525 3.82256 23.2674 4.40313 23.6823 5.41509C23.7517 5.58395 23.7947 5.76358 23.8113 5.95281C23.1851 5.13406 21.9153 4.67363 20.2346 4.67363C18.711 4.67363 16.9384 5.05771 15.2432 5.75515C14.6934 5.98138 14.1481 6.24345 13.6224 6.53432L12.9354 6.91442L13.7084 6.77952C14.3033 6.67577 14.8631 6.62331 15.3725 6.62331C16.7776 6.62331 17.7961 7.02332 18.3176 7.78025C19.9548 10.1557 16.5156 15.3891 10.6511 19.446C7.96874 21.3018 5.14918 22.6508 2.69684 23.2726C4.37662 22.5513 6.10641 21.5845 7.76982 20.4341C13.3994 16.5392 16.8325 11.57 15.7556 8.87535L15.6511 8.61422L15.5177 8.86176C14.6296 10.5082 13.1004 12.1316 11.2119 13.4328C8.93953 14.9982 6.45073 15.8961 4.38409 15.8961C2.8967 15.8961 1.79221 15.4324 1.19005 14.5551C-0.263677 12.4372 1.6952 8.5374 5.56573 5.76288C4.1646 6.90786 3.01826 8.17182 2.26393 9.41634C1.26556 11.0637 1.07107 12.489 1.7167 13.4295C2.191 14.1204 3.0809 14.4855 4.29059 14.4855C5.89556 14.4855 7.91241 13.8598 9.96946 12.7234L10.451 12.4574L9.90144 12.4764C9.73571 12.482 9.57325 12.4848 9.41382 12.4848C7.11016 12.4848 5.59986 11.896 5.16157 10.8264C4.69008 9.6763 5.47059 8.07885 7.35911 6.32823C9.15202 4.6666 11.7339 3.06751 14.682 1.78739C9.32056 4.4954 5.97878 8.01819 6.8355 10.3145C6.857 10.3723 6.88973 10.4321 6.94209 10.5058C7.31283 10.951 7.9248 11.2236 8.76164 11.3154L9.30209 11.3747L8.8486 11.0745C8.36029 10.751 8.04612 10.3611 7.91475 9.91565C7.56341 8.72312 8.50311 7.21419 10.5611 5.66686C12.6539 4.09329 15.6404 2.68436 18.9705 1.6998C20.8667 1.13913 22.7349 0.755051 24.4852 0.561839C23.3487 0.755754 22.1839 1.01852 21.0207 1.34476C14.7855 3.09327 9.99027 6.25492 9.61836 8.862Z" fill="#00FEB6"/>
<path d="M40.2434 0.00027684H41.4477V11H40.2434V5.89287H34.7043V11H33.5V0.00027684H34.7043V4.8715H40.2434V0.00027684ZM45.8246 8.17152L44.8613 11H43.657V10.5284L47.5906 0H48.9554L52.889 10.5284V11H51.6847L50.7214 8.17152H45.8246ZM50.3202 7.15015L48.3131 1.41465H48.2329L46.2258 7.15015H50.3202ZM60.3167 5.81432H56.3029V9.97863H60.3167C61.1997 9.97863 61.9223 9.27144 61.9223 8.40716V7.38579C61.9223 6.52151 61.1997 5.81432 60.3167 5.81432ZM61.1997 5.10741V5.18596C61.1997 5.18596 63.1265 5.50014 63.1265 7.38579V8.40716C63.1265 9.90008 62.0028 11 60.3167 11H55.0986V0.00027684H59.7547C61.4405 0.00027684 62.5645 1.10019 62.5645 2.59312V3.22176C62.5645 4.79295 61.1997 5.10741 61.1997 5.10741ZM59.755 1.02165H56.3029V4.79295H59.7547C60.6377 4.79295 61.3602 4.08576 61.3602 3.22148V2.59284C61.3605 1.72884 60.638 1.02165 59.755 1.02165ZM67.1022 11H65.8979V0.00027684H67.1022V11ZM73.968 1.02165V11H72.7637V1.02165H69.2313V0.00027684H77.5V0.707465L77.179 1.02165H73.968Z" fill="#00B197"/>
<path d="M32.8017 24H32V23.5874L37.2769 13H38.0785V13.4126L32.8017 24ZM40.9861 23.3125H39.984V13.6875H46.0625V14.3064L45.7954 14.5813H40.9861V18.4315H44.7266V19.3253H40.9861V23.3125ZM48.8364 23.3125H47.8343V13.6875H51.9757C53.3783 13.6875 54.3137 14.65 54.3137 15.9564V17.2627C54.3137 19.1877 52.5102 19.4626 52.5102 19.4626L54.5811 22.9002V23.3128H53.579L51.5082 19.5316H48.8364V23.3125ZM51.9757 14.581H48.8364V18.6372H51.9757C52.7103 18.6372 53.3116 18.0183 53.3116 17.2621V15.9557C53.3116 15.1999 52.7106 14.581 51.9757 14.581ZM57.555 20.8373L56.7533 23.3125H55.7513V22.8999L59.0243 13.6872H60.1598L63.4328 22.8999V23.3125H62.4308L61.6291 20.8373H57.555ZM61.2956 19.9435L59.6256 14.9246H59.5589L57.8888 19.9435H61.2956ZM71.2167 22.4187V23.3125H67.3424C65.9398 23.3125 65.0045 22.35 65.0045 21.0436V15.9561C65.0045 14.6497 65.9395 13.6872 67.3424 13.6872H71.2167V14.3061L70.9496 14.581H67.3424C66.6078 14.581 66.0065 15.1999 66.0065 15.9561V21.0436C66.0065 21.7998 66.6078 22.4187 67.3424 22.4187H71.2167ZM76.0611 14.581V23.3125H75.059V14.581H72.1198V13.6872H79V14.3061L78.7329 14.581H76.0611Z" fill="#00B197"/>
</svg>
