<svg xmlns="http://www.w3.org/2000/svg" width="68" height="70" fill="none" viewBox="-6 -6 80 82"><g clip-path="url(#a)"><mask id="b" width="69" height="68" x="0" y="2" maskUnits="userSpaceOnUse" style="mask-type:luminance"><path fill="#fff" d="M34 69.7c18.8 0 34-15 34-33.5A33.8 33.8 0 0 0 34 2.7c-18.8 0-34 15-34 33.5a33.8 33.8 0 0 0 34 33.5Z"/></mask><g mask="url(#b)"><path fill="url(#c)" fill-opacity=".9" d="M34 69.7c18.8 0 34-15 34-33.5A33.8 33.8 0 0 0 34 2.7c-18.8 0-34 15-34 33.5a33.8 33.8 0 0 0 34 33.5Z"/><path fill="#FF484B" fill-opacity=".2" d="M34.4 15.7c3.3 3.8 8.3 6.3 10.6 10.8 2 4 2 9.3 6 11.6 2.3 1.5 5.5 1 7.9-.4a15 15 0 0 0 5.3-6.4 30.1 30.1 0 0 0-2.3-30C56.7-6 44.9-12.5 35.8-8 27-3.6 29 9.5 34.4 15.7Z"/><path fill="#39148E" d="M24.3 18.2c-.5-.1-.9-.4-1.2-.8-.2-.3-.3-.8-.4-1.3-.2.8 0 1.6.3 2 .3.4.6.6 1 .8H25l.7-.8h-.2c-.4.3-.9.3-1.3.1Z"/><path fill="#FF484B" fill-opacity=".2" d="M26.1 17c0-1-1.3-2.5-2.4-2-.6.1-.9.6-1 1.2 0 .4.2.9.4 1.2.3.4.7.7 1.2.8.4.2 1 .2 1.3 0h.2V18l.3-.9Z"/><path fill="#2F217E" d="M8.8 34.3c-2.1 1.5-3.3 4.4-2 6.7.5 1 1.7 2 1.4 3.3 0 .4-.4.8-.6 1.2-1.6 2.9-.1 6.5 1.5 9.4 1 1.6 2 3.2 3.4 4.3 1.4 1.1 3.5 1.7 5.2.8.7-.4 1.3-1 2-1.3 2.6-1.4 5.5.6 7.9 2.3 2.3 1.7 4.9 3.3 7.7 3.3 2.9 0 5.9-2.4 5.5-5.2-.1-.4-.2-.7-.5-1-.3-.2-.8-.2-1.3-.2-3 0-6-2-7.1-4.9 2-1.4 4-3 4.6-5.4.3-1.4 0-3-1.1-3.9-3.2-2.6-8.3 2.4-11-.2-1-.8-1-1.9-1-3a3 3 0 0 0-4.2-2.8c1-.6-2.4-4.6-3.2-4.9-2-.9-5.6.3-7.2 1.5Z"/><path fill="#39148E" d="m39.5 30.4-.4-.3.7 1c.6.4 1.3.6 2 .5.7 0 1.3-.3 1.7-.7l.1-.3-1.4.4c-1 0-2-.1-2.7-.6Z"/><path fill="#FF484B" fill-opacity=".2" d="M43.3 27.8c-1.3-1.4-4.2-.8-4.3 1.4l.1.9.5.3a4.4 4.4 0 0 0 4 .2c.6-.9.4-2-.3-2.8Z"/><path fill="#FF91ED" fill-opacity=".9" d="M45.5 15.4c.5 0 1 0 1.3-.4.4-.2.6-.7.7-1.1.2-1.2-.1-2.4-.9-3.3-1.4-1.6-5.2-2.4-6 .2-1 2.8 2.6 4.7 5 4.6ZM54.1 26l.4.6.8.1c.7 0 1.3-.4 1.6-1 .7-1 .5-3.1-1-3.2-1.7 0-2.2 2.2-1.8 3.4ZM60.4 32.8c0 .2 0 .4.2.5l.6.2c.5 0 1-.2 1.4-.6.6-.8.6-2.5-.6-2.7-1.3-.2-1.9 1.6-1.6 2.6ZM56.8 18.4h.4l.3-.2a1 1 0 0 0 0-1c-.2-.5-1.1-1-1.6-.5-.5.7.3 1.5 1 1.7ZM50 16.8c0 .4.2.7.6.8h.5l.6.1.2-.1.4-.7c0-.3 0-.6-.2-.8-.2-.2-.4-.3-.7-.3-.7-.2-1.4.2-1.4 1ZM34.6 11.1c.6.2 1.2 0 1.5-.5.5-.6.3-1.8-.1-2.4-.5-.6-1.5-.7-2.3-.6-1.3 0-2.8 1.1-1.9 2.5.4.6.8.5 1.4.5.6 0 1 .4 1.4.5ZM40.5 7.9c0 .2-.3.2-.4.3l-.6.2c-.8 0-1-1.1-.4-1.4.5-.2 2 .1 1.4 1v-.1ZM50 11.9c0 .3 0 .8.4 1l.6.2c.8.2 1.4.7 2.1 1l.6.3c.3 0 .6-.4.6-.8 0-.3-.2-.6-.4-.9-.7-1-4-3.8-4-.8ZM48 22.1c.1.5.3.8.6 1.2l.4.5c.3.2.6.2 1 .2h.3l.7-.5.8-.7c.2-.3.4-.7.3-1-.2-2.4-4.8-2.3-4.1.3Z"/><path fill="#3B1C7F" d="M52.5 43.1a6 6 0 0 0-3.3 3.6l-.5 2a5 5 0 0 1-4 3.4c-1.3.1-2.8-.1-3.5.9-.6.8-.2 2 .2 2.8l2 3.3c.3.3.5.6.9.7.9.3 1.5-1 2.5-1 .8-.1 1.3.7 2 1.2s1.8.6 2.6 0c.9-.4 1.3-1.4 1.1-2.4-.2-1-1-1.8-1.5-2.8-.4-1 0-2.5 1-2.5.4 1 .9 2 1.6 2.8a3 3 0 0 0 1.9-2.7c1.2 0 2.3.9 2.8 2 0 .2.2.4.3.5.4.3 1 0 1.3-.2 2.2-1.6 3.3-4.2 4.2-6.8.3-.7.6-1.5.5-2.4 0-.8-.7-1.6-1.5-1.7-.7 0-1.3.5-2 1-.5.3-1.4.6-1.9 0-.4-.3-.4-1-.5-1.6-.3-2.1-5-.6-6.2 0Z"/><path fill="#2F217E" d="M14.4 21.4c-.2.5-.2 1.3.3 1.6.5.4 1.2.3 1.6.8.3.4.1 1 0 1.4-.3 1-.2 2.4.8 2.8.6.2 1.2 0 1.8-.2 1 0 2 .5 2.6 1.3.4.8.5 1.7.8 2.5.4.8 1.3 1.5 2 1.1.4-.2.6-.5.8-.8l1.4-2.6c.3-.6.6-1.2.5-1.8-.1-.9-.8-1.6-1.6-2l-2.4-1c-.3 0-.6-.2-.7-.4v-.7c0-4.3-6.3-6.5-7.9-2Z"/><path fill="#2D205F" d="M57.6 57.3c-16 8.1-35.7 1.8-44-14a31.9 31.9 0 0 1 4-35.3A32 32 0 0 0 4.9 50.6a32.9 32.9 0 0 0 54.3 6l-1.5.7Z" opacity=".5"/></g></g><defs><radialGradient id="c" cx="0" cy="0" r="1" gradientTransform="matrix(66 0 0 66 51.3 13.4)" gradientUnits="userSpaceOnUse"><stop offset=".1" stop-color="#DD5CA5"/><stop offset=".5" stop-color="#9858C1"/><stop offset=".6" stop-color="#634EB1"/><stop offset=".8" stop-color="#381786"/></radialGradient><clipPath id="a"><path fill="#fff" d="M0 0h68v70H0z"/></clipPath></defs></svg>
