<svg xmlns="http://www.w3.org/2000/svg" width="80" height="82" fill="none" style="filter: hue-rotate(390deg)" viewBox="-6 -6 80 82"><g clip-path="url(#a)"><mask id="b" width="69" height="68" x="0" y="2" maskUnits="userSpaceOnUse"><path fill="#fff" d="M34 70c19 0 34-15 34-34S53 3 34 3 0 18 0 36s15 34 34 34z"/></mask><g mask="url(#b)"><path fill="url(#c)" d="M34 70c19 0 34-15 34-34S53 3 34 3 0 18 0 36s15 34 34 34z"/><path fill="#9469ad" d="M34 16c4 3 9 6 11 10s2 10 6 12c2 2 6 1 8 0l5-7c5-9 4-21-2-30-5-7-17-13-26-9s-7 17-2 24z"/><path fill="#775ea9" d="M24 18a2 2 0 0 1-1-1v-1 2l1 1h1l1-1h-2z"/><path fill="#986eb0" d="m26 17-2-2-1 1v1l1 1h2v-1z"/><path fill="#7159a6" d="M9 34c-2 2-3 5-2 7l1 3v2c-2 2 0 6 1 9l3 4c1 1 4 2 6 1l2-1c2-2 5 0 8 2 2 2 4 3 7 3s6-2 6-5l-1-1h-1c-3 0-6-2-7-5l5-5-2-4c-3-3-8 2-11-1l-1-3c1-2-2-3-4-2 1-1-2-5-3-5-2-1-6 0-7 1z"/><path fill="#775ea9" d="M40 30h-1l1 1 2 1 1-1h1-2l-2-1z"/><path fill="#9469ad" d="M43 28c-1-2-4-1-4 1v1a3 3 0 0 0 1 0 4 4 0 0 0 4 1l-1-3z"/><path fill="#ab84bc" d="M46 15h1v-4c-2-2-6-3-6 0-1 3 2 5 5 4zm8 11 1 1 2-1c1-1 0-3-1-3-2-1-2 2-2 3zm6 7h1a2 2 0 0 0 2 0l-1-3-2 3zm-3-15a1 1 0 0 0 1-1h-2l1 1zm-7-1 1 1h1a1 1 0 0 0 0-1v-1h-1l-1 1zm-15-6a1 1 0 0 0 1 0V8h-2c-2 0-3 1-2 2l1 1h2zm6-3h-2V7l2 1zM50 12v1h1l2 1h1v-1c-1-1-4-4-4-1zm-2 10 1 1v1h2l1-1v-1c0-3-5-2-4 0z"/><path fill="#8369ae" d="m52 43-3 4v2l-4 3-4 1v3a27 27 0 0 0 2 3l1 1 3-1 2 1h2l2-2-2-3 1-3 2 3 1-3c2 0 3 1 3 2l1 1h1l4-7 1-2-2-2-2 1h-2v-2c-1-2-5 0-7 0z"/><path fill="#7159a6" d="m14 21 1 2 1 1v1l1 3h2l3 1v3l2 1 1-1 2-3v-1l-2-2-2-1-1-1v-1c0-4-6-6-8-2z"/><path fill="#6d55a4" d="M58 57c-16 8-36 2-44-14-6-12-4-25 4-35C3 16-3 35 5 51a33 33 0 0 0 54 6h-1z" opacity=".5"/></g></g><defs><radialGradient id="c" cx="0" cy="0" r="1" gradientTransform="matrix(66 0 0 66 51 13)" gradientUnits="userSpaceOnUse"><stop stop-color="#8b5fa8"/><stop offset=".3" stop-color="#8660a8"/><stop offset=".6" stop-color="#7a63ab"/><stop offset=".8" stop-color="#6b67af"/></radialGradient><clipPath id="a"><path fill="#fff" d="M0 0h68v70H0z"/></clipPath></defs></svg>
