<svg id="svg2089" xmlns="http://www.w3.org/2000/svg" viewBox="0 0 113.51 113.51">
  <defs>
    <radialGradient id="gradient" cx="0" cy="0" r="1" gradientTransform="matrix(66 0 0 66 51 13)" gradientUnits="userSpaceOnUse">
      <stop stop-color="#8b5fa8"/>
      <stop offset=".3" stop-color="#8660a8"/>
      <stop offset=".6" stop-color="#7a63ab"/>
      <stop offset=".8" stop-color="#39148E"/>
    </radialGradient>
  </defs>
  <path id="circle1201" d="M102.75,51.92a46.25,46.25,0,1,1-92,9.67h0A46.25,46.25,0,0,1,51.92,10.76h0A46.25,46.25,0,0,1,102.75,51.92Z" fill="url(#gradient)"/>
  <path id="circle1203" d="M24.89,28.68a10.62,10.62,0,1,1-11.67-9.45h0a10.61,10.61,0,0,1,11.67,9.45Z" fill="#9858C1" stroke="#37383a" stroke-miterlimit="37.8" stroke-width="5"/>
  <path id="path1205" d="M100.26,52.18a43.73,43.73,0,1,1-22.94-34,2.64,2.64,0,0,0,3.18-.5,2.42,2.42,0,0,0-.57-3.78A48.67,48.67,0,1,0,99.84,33.93a2.41,2.41,0,0,0-3.93-.44,2.63,2.63,0,0,0-.36,3,43.76,43.76,0,0,1,4.71,15.68Z" fill="#37383a" fill-rule="evenodd"/>
  <path id="circle1210" d="M98.2,52.66a43.21,43.21,0,0,1-85.95,9h0A43.21,43.21,0,0,1,50.71,14.21h0A43.2,43.2,0,0,1,98.2,52.66Z" fill="#775ea9"/>
  <path id="path1214" d="M38.74,26.63A2.4,2.4,0,0,0,35,24.8,38.87,38.87,0,0,0,19.35,47.45,2.4,2.4,0,0,0,22,50.36a2.7,2.7,0,0,0,2.29-2A33.86,33.86,0,0,1,37.58,29.11,2.71,2.71,0,0,0,38.74,26.63Z" fill="#fff" fill-rule="evenodd"/><path id="circle1226" d="M22.34,56a2.5,2.5,0,1,1-2.75-2.22h0A2.49,2.49,0,0,1,22.34,56Z" fill="#fff"/><path id="circle1228" d="M25.58,65.06a1.87,1.87,0,0,1-1.67,2.06h0a1.87,1.87,0,0,1-2.06-1.67h0a1.87,1.87,0,0,1,1.67-2.06h0a1.87,1.87,0,0,1,2.06,1.67Z" fill="#37383a"/>
  <path id="circle1230" d="M68.2,58.06a1.88,1.88,0,0,1-1.67,2.07h0a1.88,1.88,0,0,1-2.06-1.67h0a1.87,1.87,0,0,1,1.67-2.06h0a1.87,1.87,0,0,1,2.06,1.66Z" fill="#37383a"/>
  <path id="circle1232" d="M38.3,60.58a3.12,3.12,0,1,1-3.43-2.78A3.12,3.12,0,0,1,38.3,60.58Z" fill="#37383a"/>
  <path id="circle1234" d="M105,100.7a3.12,3.12,0,1,1-3.43-2.78h0A3.13,3.13,0,0,1,105,100.7Z" fill="#9469ad"/>
  <path id="circle1238" d="M92.45,19.7a6.87,6.87,0,1,1-7.55-6.12A6.87,6.87,0,0,1,92.45,19.7Z" fill="#FF91ED" stroke="#37383a" stroke-miterlimit="37.8" stroke-width="5"/>
</svg>