<svg xmlns="http://www.w3.org/2000/svg" width="146" height="121" fill="none" viewBox="0 -6 145 145"><mask id="a" width="93" height="93" x="26" y="14" maskUnits="userSpaceOnUse" style="mask-type:luminance"><path fill="#fff" d="M114.62 77.59a46 46 0 1 0-85.06-35.06 46 46 0 0 0 85.06 35.06Z"/></mask><g mask="url(#a)"><path fill="url(#b)" d="M114.62 77.59a46 46 0 1 0-85.06-35.06 46 46 0 0 0 85.06 35.06Z"/><g style="mix-blend-mode:overlay"><path fill="#450002" d="M97.84 44.46a5.5 5.5 0 0 1 1.71-5.4c.32-.26.64-.45.97-.58a3.37 3.37 0 0 0-3.73.47 5.52 5.52 0 0 0-1.71 5.4 7.5 7.5 0 0 0 3.52 4.62c.88.53 1.92.9 2.92.7.21-.03.41-.11.61-.2a7.47 7.47 0 0 1-4.29-5.01Z"/><path fill="#FFBAB8" fill-opacity=".71" d="M104.63 45.25a8.05 8.05 0 0 0-1.5-4.44 6.54 6.54 0 0 0-2.61-2.33c-.33.13-.65.32-.97.58a5.52 5.52 0 0 0-1.71 5.4 7.46 7.46 0 0 0 4.29 5c.13-.05.26-.11.38-.18a4.74 4.74 0 0 0 2.12-4.03Z"/></g><path fill="#FFBAB8" fill-opacity=".71" d="M95.44 79.19a7.4 7.4 0 0 0-3.84 7.84c.65 3.06 3.71 5.46 6.83 5.2 3-.23 5.4-2.6 7.1-5.08 1.28-1.88 2.35-4.03 2.28-6.3-.08-2.41-1.84-5.17-4.46-4.58-1.24.28-2.46 1.15-3.7 1.54-1.41.45-2.88.7-4.21 1.38Z" opacity=".59"/><path fill="#FFB39B" fill-opacity=".45" d="M67.1 42.05c1.37 4.73.91 9.98 3.13 14.38a19.75 19.75 0 0 0 4.69 5.69C81.66 68.1 90.5 72.2 94.86 80.09c.79 1.43 1.42 3 1.46 4.64.05 2.3-1.09 4.5-2.58 6.26-5.1 6.04-13.81 7.63-21.7 7.23a35.52 35.52 0 0 1-10.44-1.9c-7.36-2.7-13.13-8.77-16.82-15.68-3.69-6.92-6.98-14.5-8.31-22.23-.99-5.77-.23-11.98 1.53-17.56 1.77-5.61 8.35-12.71 14.8-12.16 6.55.56 12.58 7.43 14.3 13.37v-.01Z" style="mix-blend-mode:overlay"/><path fill="#864764" fill-opacity=".92" d="M43.21 76.03c12.74 2.86 25.86-1.34 38.45-4.81 12.59-3.47 26.52-6.12 38.31-.52 1.31.62 2.69 2.42 1.5 3.25-25.05-9.04-52.63 9.27-78.85 4.59-3.26-.58-23.8-7.25-20.74-11.42 1.96-2.67 17.63 8.07 21.33 8.9Z" style="mix-blend-mode:overlay"/><path fill="#002160" d="M58.93 88.4c4.66-.25 9.24-1.27 13.9-1.51 9.89-.51 19.57 2.49 29.26 4.57 4.97 1.07 10.82 1.68 14.51-1.82 2.88-2.73 3.41-7.06 3.68-11.02.07-.98.12-2-.29-2.9-.48-1.02-1.5-1.68-2.5-2.23a33.55 33.55 0 0 0-26.72-2.28c-2.01.69-3.96 1.58-6 2.19-2.21.66-4.5.97-6.78 1.29l-17.5 2.4c-5.15.72-10.42 1.43-15.53.43-6.6-1.28-12.29-5.62-18.87-6.78-5.24-.93-4.06 2.18-1.49 5.39 7.52 9.38 22.9 12.94 34.35 12.29l-.02-.01Z" style="mix-blend-mode:overlay"/><path stroke="#002160" stroke-miterlimit="10" stroke-width="3" d="M22.13 48.59c5.52 7.53 13.72 13.97 23.06 14.06 9.67.1 17.96-6.42 25.8-12.08 7.4-5.35 15.29-10.28 24.05-12.85 8.77-2.57 18.58-2.58 26.7 1.6" style="mix-blend-mode:overlay"/><path fill="#864764" fill-opacity=".92" d="M33.95 65.74c4.81 3.24 10.5 5.47 16.3 5.2 10.13-.47 18.24-8.14 27.35-12.58a45.07 45.07 0 0 1 24.7-4.24c5.3.6 10.65 2.15 15.89 1.13.83-.16 1.73-.44 2.19-1.15.37-.56.39-1.28.4-1.96.04-3.73.03-7.7-1.97-10.84-2.42-3.81-7.2-5.46-11.7-5.67-9.15-.42-17.81 3.99-25.41 9.1-7.59 5.12-14.71 11.13-23.17 14.65-8.45 3.52-18.87 4.1-26.21-1.37-1.99-1.5-7.91-8.13-7.95-2.18-.03 3.97 6.71 7.99 9.57 9.92l.01-.01Z" style="mix-blend-mode:overlay"/><g style="mix-blend-mode:overlay"><path fill="#450002" d="M71.48 24.09a7.24 7.24 0 0 1 3.49-4.42 5.44 5.44 0 0 1 5.07.04 3.4 3.4 0 0 0-1.17-1.43 5.35 5.35 0 0 0-5.49-.3 7.24 7.24 0 0 0-3.49 4.42c-.28.95-.39 2.02.04 2.9.15.32.36.6.61.84.27.26.57.48.89.65a4.23 4.23 0 0 1 .04-2.7h.01Z"/><path fill="#FFBAB8" fill-opacity=".71" d="M78.65 24.68c1.25-1.4 2.06-3.36 1.38-4.96a5.44 5.44 0 0 0-5.07-.04 7.24 7.24 0 0 0-3.49 4.42 4.23 4.23 0 0 0-.04 2.7c1.02.54 2.27.65 3.4.37a7.85 7.85 0 0 0 3.81-2.48l.01-.01Z"/></g><g style="mix-blend-mode:overlay"><path fill="#450002" d="M103.84 62.97c-.15-.3-.16-.66.02-.97.17-.28.51-.5.89-.56a.96.96 0 0 0-.4-.06c-.42.02-.82.26-1 .57-.18.3-.17.67-.02.97.08.16.2.3.4.38.07.02.14.04.22.04l.24-.01a.76.76 0 0 1-.35-.36Z"/><path fill="#FFBAB8" fill-opacity=".71" d="M105.18 62.25c.03-.32-.09-.67-.42-.81-.38.05-.72.28-.89.56-.18.3-.17.67-.02.97.07.15.18.29.35.36.25-.04.48-.17.65-.33.21-.22.31-.5.34-.75h-.01Z"/></g><path fill="#AF0038" d="M57.06 35.7c-2.01 1.74-4.11 3.52-6.67 4.22-2.56.69-5.71-.04-6.98-2.38a5.15 5.15 0 0 1-.59-2.4c-.52 1.8-.72 3.66.14 5.26 1.26 2.33 4.42 3.07 6.98 2.38 2.56-.7 4.66-2.47 6.67-4.21 2.13-1.84 4.29-3.71 5.83-6.07a8.75 8.75 0 0 0 1.59-4.7c0-.13 0-.25-.02-.38-.28.78-.68 1.52-1.13 2.22-1.53 2.36-3.69 4.23-5.83 6.07h.01Z" style="mix-blend-mode:multiply"/><path fill="#864764" fill-opacity=".92" d="M53.23 23.68a12.04 12.04 0 0 0-6.92 3.93c-1.28 1.57-2.03 3.5-2.75 5.4a33.6 33.6 0 0 0-.74 2.14c.01.83.18 1.64.59 2.39 1.26 2.33 4.42 3.07 6.98 2.38 2.56-.7 4.66-2.48 6.67-4.21 2.13-1.84 4.29-3.71 5.83-6.07.45-.7.85-1.44 1.13-2.22-.34-5.24-6.99-4.55-10.78-3.75h-.01Zm15.22 17.95a5.7 5.7 0 0 0 2.23.73c.97.1 1.99-.07 2.78-.64.42-.31.76-.71 1.1-1.12.12-.15.25-.31.36-.48-.08-.9-.37-1.77-.65-2.63a4.09 4.09 0 0 0-.98-1.82c-.64-.57-1.59-.68-2.42-.47-.83.2-1.56.7-2.24 1.22a4.6 4.6 0 0 0-1.39 1.46 3.15 3.15 0 0 0-.11 2.9c.38-.07 1 .66 1.34.85h-.02Z" style="mix-blend-mode:overlay"/><path fill="#AF0038" d="M71.11 43.7a3.3 3.3 0 0 0 2.52-.33c.89-.6 1.31-1.71 1.31-2.77 0-.16 0-.32-.02-.48a4.3 4.3 0 0 1-.36.48c-.33.4-.67.8-1.1 1.12-.79.57-1.81.74-2.78.64a5.49 5.49 0 0 1-2.23-.73c-.33-.2-.96-.92-1.34-.85.69 1.48 2.43 2.58 4 2.94v-.01Z" style="mix-blend-mode:multiply"/><path fill="#864764" fill-opacity=".92" d="M90.05 61.48a4.26 4.26 0 0 0-.45 1.7c-.03.74.14 1.5.6 2.08.25.3.57.54.89.78.12.09.24.18.38.25.67-.1 1.32-.35 1.95-.61.49-.2 1-.41 1.33-.82.4-.51.45-1.23.25-1.85a4.73 4.73 0 0 0-1.01-1.64 3.45 3.45 0 0 0-1.16-1 2.37 2.37 0 0 0-2.19.05c.07.28-.45.78-.58 1.04l-.01.02Z" style="mix-blend-mode:overlay"/><path fill="#AF0038" d="M88.6 63.57c-.11.65-.03 1.36.36 1.88.48.65 1.34.9 2.15.87.12 0 .24-.02.36-.04a4.41 4.41 0 0 1-1.27-1.03 3.1 3.1 0 0 1-.6-2.07c.03-.6.19-1.18.45-1.71.13-.26.65-.77.58-1.04-1.09.58-1.84 1.94-2.04 3.14h.01Z" style="mix-blend-mode:multiply"/><path fill="#FFBAB8" fill-opacity=".71" d="M89.35 26.59c-.13.58.03 1.19.24 1.75.37.99.98 2 1.98 2.33.65.2 1.35.08 2.02.19.46.07.92.26 1.39.2.95-.12 1.52-1.26 1.31-2.2-.21-.94-.96-1.66-1.77-2.2-1.21-.78-4.61-2.51-5.17-.07Zm-7.15 2.7a1.6 1.6 0 0 0-.92-.11c-.55.06-1.15.23-1.45.7-.19.3-.22.68-.36 1-.1.23-.25.44-.28.68-.07.5.44.94.95.96.51.02.97-.27 1.35-.61.56-.51 1.89-2.02.72-2.63h-.01Z"/></g><path fill="#FFB254" d="M113.31 109.86c-8.04.42-15.2-5.92-17.71-12.76a23.18 23.18 0 0 1-.48-14.1c-11.98.72-23.13 4.59-31.43 8.39-5.1 2.33-12.08 5.53-17.55 2.27a10.15 10.15 0 0 1-3.72-4.01 232.36 232.36 0 0 0-4.37 1.95c-6.37 2.9-14.75 6.05-23.2 4.43C7.27 94.57-.55 87.77.03 79.32c.2-2.91 1.38-5.92 3.5-8.93 4.89-6.94 15.38-11.51 22.59-12.28l-.03 1.09C19 59.96 8.9 64.52 4.35 70.97c-2.02 2.86-3.13 5.7-3.32 8.43-.55 7.9 6.85 14.28 14.01 15.65 8.17 1.56 16.36-1.51 22.59-4.36l2.78-1.24 1.57-.7a16.46 16.46 0 0 1-1.28-6.5c.04-5.02 2.57-11.16 8.01-12.76 2.54-.75 5.53.75 7.11 3.55 1.44 2.54 1.72 6.4-1.79 9.65-3.09 2.86-6.89 4.8-10.72 6.54a9 9 0 0 0 3.32 3.56c5.02 2.99 11.46.05 16.62-2.32 11.12-5.1 21.99-7.94 32.15-8.5a22.42 22.42 0 0 1 2.56-5.3c4.13-6.26 10.92-9.95 17.48-13.52 1.39-.75 2.77-1.5 4.12-2.28a100.48 100.48 0 0 0 20.78-15.78c2.12-2.1 4.12-4.41 4.46-7.14.28-2.24-.62-4.78-2.51-7.17-4.02-5.05-15.64-11.37-36.92-2.44l-.92-.9a55.18 55.18 0 0 1 20.5-4.4c8.12-.04 14.38 2.42 18.12 7.1 2.07 2.6 3.03 5.42 2.72 7.92-.38 3.04-2.5 5.5-4.75 7.73a101.54 101.54 0 0 1-20.99 15.94c-1.36.78-2.74 1.53-4.14 2.29-6.45 3.5-13.13 7.14-17.12 13.2a21.05 21.05 0 0 0-2.32 4.7c5.63-.21 11.03.29 16.13 1.5 6.06 1.46 10.04 3.86 12.16 7.36 1.89 3.1 1.97 7.05.22 10.82-2 4.32-5.89 7.42-10.16 8.1-.51.08-1.02.13-1.53.16h.02ZM96.17 82.94a22.18 22.18 0 0 0 .37 13.8c2.52 6.9 9.99 13.25 18.14 11.97 3.94-.63 7.55-3.51 9.41-7.53 1.6-3.46 1.54-7.06-.17-9.88-1.98-3.26-5.75-5.51-11.54-6.9a58.36 58.36 0 0 0-16.22-1.46h.01ZM49.88 70.3c-.29.02-.58.06-.87.15-4.96 1.46-7.26 7.14-7.3 11.8-.02 1.92.33 4.12 1.18 6.09 3.77-1.71 7.48-3.62 10.48-6.38 2.62-2.42 3.22-5.56 1.6-8.42-1.18-2.08-3.21-3.33-5.1-3.23l.01-.01Z"/><defs><radialGradient id="b" cx="0" cy="0" r="1" gradientTransform="matrix(153 -8 8 153 46.82 113.43)" gradientUnits="userSpaceOnUse"><stop offset=".18" stop-color="#EA237D" stop-opacity=".88"/><stop offset=".38" stop-color="#FF6D60"/><stop offset=".54" stop-color="#FA8B29"/><stop offset=".79" stop-color="#F2D6FF"/><stop offset="1" stop-color="#FFBE46"/></radialGradient></defs></svg>
