<svg xmlns="http://www.w3.org/2000/svg" width="146" height="121" fill="none" viewBox="0 -6 145 145">
  <g clip-path="url(#a)" transform="translate(1, 14)">
    <mask id="b" width="93" height="93" x="25" y="-1" maskUnits="userSpaceOnUse">
      <path fill="#fff" d="M114 63c10-23-2-50-25-60S39 5 29 28s2 50 25 60 50-2 60-25z"/>
    </mask>
    <g mask="url(#b)">
      <path fill="url(#c)" d="M114 63c10-23-2-50-25-60S39 5 29 28s2 50 25 60 50-2 60-25z"/>
      <g style="mix-blend-mode:overlay">
        <path fill="#450002" d="M97 30c0-2 0-4 2-5l1-1-4 1c-1 1-2 3-1 5 0 2 1 4 3 5h4a8 8 0 0 1-1 0l-4-5z"/>
        <path fill="#FFBAB8" fill-opacity=".71" d="m104 31-1-4-3-3-1 1c-2 1-2 3-2 5s2 4 4 5h1l2-4z"/>
      </g>
      <path fill="#FFBAB8" fill-opacity=".71" d="M95 65c-3 1-5 4-4 7s4 6 7 6c3-1 5-3 7-6l2-6c0-2-2-5-4-4l-4 1-4 2z" opacity=".6"/>
      <path fill="#FFB39B" fill-opacity=".45" d="M67 28c1 4 1 10 3 14l4 6c7 6 16 10 20 17l2 5c0 2-1 5-3 6-5 6-14 8-21 7l-11-1c-7-3-13-9-16-16-4-7-7-14-9-22-1-6 0-12 2-17 2-6 8-13 14-13 7 1 13 8 15 14z" style="mix-blend-mode:overlay"/>
      <path fill="#864764" fill-opacity=".92" d="M43 61c13 3 26-1 38-4s27-6 38-1c2 1 3 3 2 3-25-9-53 10-79 5-3-1-23-7-20-11 2-3 17 8 21 8z" style="mix-blend-mode:overlay"/>
      <path fill="#002160" d="m59 74 13-2c10 0 20 3 29 5 5 1 11 1 15-2 3-3 3-7 4-11l-1-3-2-2c-8-4-18-5-27-2l-6 2-6 1-18 2c-5 1-10 2-15 1-7-1-13-6-19-7-5-1-4 2-2 6 8 9 23 12 35 12z" style="mix-blend-mode:overlay"/>
      <path stroke="#002160" stroke-miterlimit="10" stroke-width="3" d="M22 34c5 8 14 14 23 14 10 0 18-6 26-12 7-5 15-10 23-13 9-2 19-2 27 2" style="mix-blend-mode:overlay"/>
      <path fill="#864764" fill-opacity=".92" d="M34 51c5 3 10 6 16 5 10 0 18-8 27-12a45 45 0 0 1 25-4c5 0 10 2 15 1l3-1v-2c0-4 0-8-2-11-2-4-7-5-12-6-9 0-17 4-25 9-7 5-14 11-23 15-8 3-19 4-26-1-2-2-8-8-8-3 0 4 7 8 10 10z" style="mix-blend-mode:overlay"/>
      <g style="mix-blend-mode:overlay">
        <path fill="#450002" d="M71 10c1-2 2-4 4-4h5l-2-2h-5l-4 4 1 3v1l1 1v-3z"/>
        <path fill="#FFBAB8" fill-opacity=".71" d="m78 11 2-5h-5c-2 0-3 2-4 4v3h3l4-2z"/>
      </g>
      <g style="mix-blend-mode:overlay">
        <path fill="#450002" d="m103 48 1-1h-1v2h1a1 1 0 0 1-1-1z"/>
        <path fill="#FFBAB8" fill-opacity=".71" d="m105 48-1-1-1 1a1 1 0 0 0 1 1l1-1z"/>
      </g>
      <path fill="#AF0038" d="m57 21-7 5c-2 0-6 0-7-3v-2 5c1 2 4 3 7 2l6-4c2-2 5-3 6-6l2-4v-1l-1 2-6 6z" style="mix-blend-mode:multiply"/>
      <path fill="#864764" fill-opacity=".92" d="M53 10c-3 0-5 1-7 3l-3 6v4c1 3 5 3 7 3s5-3 7-5l6-6 1-2c-1-5-7-4-11-3zM68 27a6 6 0 0 0 2 1l3-1 1-1v-3l-1-2h-3l-2 1-1 2v2l1 1z" style="mix-blend-mode:overlay"/>
      <path fill="#AF0038" d="M71 29h2l1-3-1 1-3 1a5 5 0 0 1-2-1l-1-1c0 2 2 3 4 3z" style="mix-blend-mode:multiply"/>
      <path fill="#864764" fill-opacity=".92" d="m90 47-1 2 1 2 1 1 2-1 1-1v-1l-1-2-1-1h-2v1z" style="mix-blend-mode:overlay"/>
      <path fill="#AF0038" d="M88 49v2l3 1-1-1-1-2 1-2v-1l-2 3z" style="mix-blend-mode:multiply"/>
      <path fill="#FFBAB8" fill-opacity=".71" d="M89 12v2l2 2 2 1h1l2-2-2-3c-1 0-5-2-5 0zm-7 3h-1l-2 1v1l1 1h1c1-1 2-2 1-3z"/>
    </g>
    <path fill="#FFB254" d="M113 95c-8 0-15-6-18-13-2-4-2-9 0-14-12 1-23 5-32 9-5 2-12 5-17 2l-4-4-1 1-3 1c-7 3-15 6-23 4-8-1-16-8-15-16 0-3 1-6 4-9 4-7 15-12 22-12v1c-7 1-17 5-22 11l-3 9c-1 8 7 14 14 15 8 2 16-1 22-4l3-1 2-1-2-6c0-5 3-11 8-13 3-1 6 1 7 3 2 3 2 7-1 10l-11 7 3 3c5 3 12 0 17-2 11-5 22-8 32-9a22 22 0 0 1 2-5c4-6 11-10 18-13l4-3a100 100 0 0 0 20-15c3-2 5-5 5-7 0-3-1-5-3-7-4-5-15-12-36-3l-1-1c7-3 14-4 20-4 8 0 14 2 18 7 2 3 3 5 3 8s-3 5-5 7a101 101 0 0 1-25 19c-6 3-13 7-17 13a21 21 0 0 0-2 4l16 2c6 1 10 4 12 7s2 7 0 11a14 14 0 0 1-11 8zM96 68c-2 5-2 10 0 14 2 7 10 13 18 12 4-1 7-4 9-8 2-3 2-7 0-9-2-4-6-6-11-7-6-2-11-2-16-2zM50 56h-1c-5 1-8 7-8 12l2 6 10-7c3-2 3-5 2-8l-5-3z"/>
  </g>
  <defs>
    <radialGradient id="c" cx="0" cy="0" r="1" gradientTransform="matrix(153 -8 8 153 46.82 113.43)" gradientUnits="userSpaceOnUse">
      <stop offset=".18" stop-color="#EA237D" stop-opacity=".88"/>
      <stop offset=".38" stop-color="#FF6D60"/>
      <stop offset=".54" stop-color="#FA8B29"/>
      <stop offset=".79" stop-color="#F2D6FF"/>
      <stop offset="1" stop-color="#FFBE46"/>
    </radialGradient>
    <clipPath id="a">
      <path fill="#fff" d="M0 0h145v145H0z"/>
    </clipPath>
  </defs>
</svg>
