<svg xmlns="http://www.w3.org/2000/svg" width="145" height="95" fill="none" xmlns:v="https://vecta.io/nano"><g clip-path="url(#C)"><mask id="A" maskUnits="userSpaceOnUse" x="25" y="-1" width="93" height="93"><path d="M113.932 62.982c9.622-23.29-1.503-49.951-24.849-59.551S39.009 4.93 29.387 28.22s1.503 49.951 24.849 59.551 50.073-1.499 59.696-24.789z" fill="#fff"/></mask><g mask="url(#A)"><path d="M113.932 62.982c9.622-23.29-1.503-49.951-24.849-59.551S39.009 4.93 29.387 28.22s1.503 49.951 24.849 59.551 50.073-1.499 59.696-24.789z" fill="url(#B)"/><g style="mix-blend-mode:overlay"><path d="M97.25 30.133c-.437-1.924.169-4.105 1.7-5.354.318-.258.636-.446.964-.575-1.173-.535-2.485-.526-3.707.466-1.531 1.249-2.127 3.431-1.7 5.354.437 1.924 1.799 3.56 3.499 4.581.875.526 1.908.902 2.902.704.209-.04.408-.119.607-.208a7.87 7.87 0 0 1-.766-.387c-1.699-1.011-3.061-2.657-3.498-4.581z" fill="#f15b60"/><path d="M103.999 30.916c.01-1.577-.617-3.094-1.491-4.402-.656-.982-1.581-1.854-2.594-2.31-.328.129-.646.317-.964.575-1.531 1.249-2.127 3.431-1.7 5.354s1.799 3.56 3.498 4.581c.249.149.507.278.766.387l.377-.188c1.352-.803 2.098-2.429 2.108-3.996z" fill="#f8a283"/></g><path opacity=".59" d="M94.864 64.57c-2.763 1.418-4.463 4.74-3.817 7.774s3.688 5.414 6.789 5.166c2.982-.238 5.367-2.578 7.057-5.047 1.272-1.864 2.336-3.996 2.266-6.247-.079-2.39-1.829-5.126-4.433-4.541-1.232.278-2.445 1.14-3.677 1.527-1.401.446-2.863.694-4.185 1.368z" fill="#f8a283"/><g style="mix-blend-mode:overlay"><path d="M66.695 27.743c1.362 4.69.904 9.896 3.111 14.258 1.113 2.191 2.823 4.016 4.662 5.642 6.699 5.939 15.486 9.995 19.82 17.818.785 1.418 1.412 2.975 1.451 4.601.05 2.29-1.083 4.462-2.564 6.207-5.069 5.989-13.727 7.566-21.569 7.169-3.529-.178-7.067-.674-10.377-1.884-7.316-2.677-13.051-8.696-16.719-15.547-3.668-6.861-6.938-14.377-8.26-22.042-.984-5.721-.229-11.879 1.521-17.411 1.759-5.563 8.3-12.603 14.711-12.057 6.511.555 12.504 7.367 14.214 13.257v-.01z" fill="#f8a283"/></g><g style="mix-blend-mode:overlay"><path d="M42.949 61.436c12.663 2.836 25.704-1.329 38.218-4.769s26.36-6.068 38.079-.516c1.302.615 2.674 2.4 1.491 3.223-24.899-8.964-52.312 9.192-78.374 4.551-3.24-.575-23.656-7.189-20.615-11.323 1.948-2.647 17.524 8.002 21.201 8.825v.01z" fill="#ee3372"/></g><g style="mix-blend-mode:overlay"><path d="M58.574 73.712c4.632-.258 9.184-1.269 13.816-1.507 9.83-.506 19.452 2.469 29.083 4.531 4.94 1.061 10.755 1.666 14.423-1.805 2.862-2.707 3.389-7 3.657-10.927.07-.972.12-1.983-.288-2.866-.477-1.021-1.491-1.676-2.485-2.221-8.021-4.393-17.911-5.235-26.559-2.261-1.998.684-3.936 1.567-5.964 2.172-2.197.654-4.473.962-6.739 1.279l-17.394 2.39c-5.119.704-10.357 1.408-15.436.416-6.56-1.269-12.216-5.573-18.756-6.723-5.208-.922-4.036 2.162-1.481 5.344 7.475 9.301 22.762 12.831 34.143 12.186l-.02-.01z" fill="#ef4683"/></g><g style="mix-blend-mode:overlay"><path d="M21.996 34.228c5.487 7.466 13.637 13.852 22.921 13.941 9.612.099 17.852-6.366 25.644-11.978 7.355-5.305 15.198-10.193 23.905-12.741 8.718-2.548 18.468-2.558 26.539 1.596" stroke="#ef4683" stroke-width="3" stroke-miterlimit="10"/></g><g style="mix-blend-mode:overlay"><path d="M33.745 51.233c4.781 3.213 10.437 5.424 16.202 5.156 10.069-.466 18.13-8.071 27.185-12.474a44.9 44.9 0 0 1 24.551-4.204c5.268.595 10.585 2.132 15.794 1.12.825-.159 1.719-.436 2.177-1.14.367-.555.387-1.269.397-1.944.04-3.698.03-7.635-1.958-10.748-2.405-3.778-7.157-5.414-11.629-5.622-9.095-.416-17.703 3.956-25.257 9.023-7.544 5.077-14.621 11.036-23.03 14.526-8.399 3.49-18.756 4.065-26.052-1.358-1.978-1.477-7.862-8.061-7.902-2.162-.03 3.937 6.669 7.922 9.512 9.836l.01-.01z" fill="#ee3372"/></g><g style="mix-blend-mode:overlay"><path d="M71.049 9.935c.547-1.834 1.759-3.51 3.469-4.383 1.56-.793 3.528-.823 5.039.04-.219-.526-.596-1.001-1.163-1.418-1.541-1.13-3.747-1.17-5.457-.297s-2.922 2.548-3.469 4.383c-.278.942-.388 2.003.04 2.885.149.307.358.585.606.823.268.258.566.476.885.644-.328-.843-.219-1.805.04-2.677h.01z" fill="#f15b60"/><path d="M78.175 10.52c1.242-1.378 2.047-3.332 1.372-4.918-1.511-.863-3.479-.833-5.039-.04-1.71.873-2.922 2.548-3.469 4.383-.258.873-.368 1.844-.04 2.677 1.014.535 2.256.644 3.379.367 1.481-.367 2.763-1.329 3.787-2.459l.01-.01z" fill="#f8a283"/></g><g style="mix-blend-mode:overlay"><path d="M103.214 48.487a1 1 0 0 1 .019-.962c.169-.278.507-.496.885-.555a.96.96 0 0 0-.398-.059c-.417.02-.815.258-.994.565s-.168.664-.019.962c.079.159.198.307.397.377.07.02.139.04.219.04l.238-.01a.75.75 0 0 1-.347-.357z" fill="#f15b60"/><path d="M104.545 47.773c.03-.317-.089-.664-.417-.803-.378.05-.716.278-.885.555-.179.307-.169.664-.02.962a.68.68 0 0 0 .348.357c.249-.04.477-.169.646-.327.209-.218.309-.486.338-.744h-.01z" fill="#f8a283"/></g><g style="mix-blend-mode:multiply"><path d="M56.716 21.457c-1.998 1.715-4.085 3.48-6.63 4.174-2.544.684-5.675-.04-6.938-2.36-.407-.744-.566-1.547-.586-2.37-.517 1.785-.716 3.619.139 5.206 1.252 2.31 4.393 3.044 6.938 2.36s4.632-2.449 6.63-4.174c2.117-1.825 4.264-3.679 5.795-6.019.905-1.398 1.59-2.995 1.581-4.66 0-.129 0-.248-.02-.377-.278.773-.676 1.507-1.123 2.201-1.521 2.34-3.668 4.194-5.795 6.019h.01z" fill="#dc4a9a"/></g><g style="mix-blend-mode:overlay"><path d="M52.909 9.529c-2.634.545-5.178 1.824-6.878 3.897-1.272 1.557-2.018 3.47-2.733 5.354l-.736 2.122c.01.823.179 1.626.587 2.37 1.252 2.31 4.393 3.044 6.938 2.36s4.632-2.459 6.63-4.174c2.117-1.824 4.264-3.679 5.795-6.019.447-.684.845-1.428 1.123-2.201-.338-5.196-6.948-4.512-10.715-3.718l-.01.01z" fill="#ee3372"/></g><g style="mix-blend-mode:overlay"><path d="M68.037 27.327a5.67 5.67 0 0 0 2.217.724c.964.099 1.978-.069 2.763-.635.417-.307.755-.704 1.093-1.11l.358-.476c-.08-.892-.368-1.755-.646-2.608-.219-.655-.457-1.339-.974-1.805-.636-.565-1.58-.674-2.405-.466s-1.551.694-2.227 1.21c-.537.406-1.074.853-1.382 1.448-.547 1.041-.507 2.023-.109 2.875.378-.069.994.654 1.332.843h-.02z" fill="#ee3372"/></g><g style="mix-blend-mode:multiply"><path d="M70.681 29.389c.845.188 1.779.139 2.505-.337.885-.585 1.302-1.695 1.302-2.746l-.02-.476a4.27 4.27 0 0 1-.358.476c-.328.397-.666.803-1.093 1.11-.785.565-1.799.734-2.763.635a5.46 5.46 0 0 1-2.216-.724c-.328-.188-.954-.912-1.332-.843.686 1.467 2.415 2.558 3.976 2.915v-.01z" fill="#dc4a9a"/></g><g style="mix-blend-mode:overlay"><path d="M89.507 47.009c-.268.526-.418 1.111-.447 1.696-.03.724.139 1.487.596 2.052.249.307.567.536.885.773.119.089.239.178.378.248.666-.099 1.312-.347 1.938-.605.487-.198.994-.407 1.322-.813.398-.506.447-1.22.249-1.834-.189-.615-.586-1.14-1.004-1.626-.328-.387-.686-.773-1.153-.982-.815-.367-1.551-.297-2.177.04.07.278-.447.773-.576 1.031l-.01.02z" fill="#ee3372"/></g><g style="mix-blend-mode:multiply"><path d="M88.065 49.082c-.109.645-.03 1.349.358 1.864.477.645 1.332.902 2.137.863.119 0 .239-.02.358-.04-.129-.069-.258-.159-.378-.248-.318-.228-.636-.466-.885-.773-.457-.565-.626-1.329-.596-2.053.03-.595.189-1.17.447-1.696.129-.258.646-.764.577-1.031-1.083.575-1.829 1.924-2.028 3.113h.01z" fill="#dc4a9a"/></g><path d="M88.811 12.414c-.129.575.03 1.18.239 1.735.368.982.974 1.993 1.968 2.31.646.198 1.342.079 2.008.188.457.069.914.258 1.382.198.944-.119 1.511-1.249 1.302-2.181s-.954-1.646-1.759-2.171c-1.203-.783-4.582-2.499-5.139-.079zm-7.107 2.677c-.278-.149-.606-.139-.914-.109-.547.059-1.143.228-1.441.694-.189.298-.219.674-.358.992-.099.228-.249.436-.278.674-.07.496.437.932.944.952s.964-.268 1.342-.605c.557-.506 1.879-2.003.716-2.608l-.01.01z" fill="#f8a283"/></g><path d="M112.626 94.98c-7.991.416-15.108-5.87-17.603-12.652-1.63-4.452-1.759-9.41-.477-13.981-11.908.714-22.99 4.551-31.24 8.319-5.069 2.31-12.007 5.483-17.444 2.251-1.64-.972-2.843-2.39-3.698-3.976l-1.59.704-2.753 1.23c-6.332 2.885-14.661 5.999-23.06 4.393C7.226 79.819-.547 73.077.03 64.698c.199-2.885 1.372-5.87 3.479-8.855 4.861-6.881 15.287-11.413 22.454-12.176l-.03 1.081c-7.047.754-17.086 5.275-21.609 11.671-2.008 2.836-3.111 5.652-3.3 8.359-.547 7.833 6.809 14.159 13.926 15.518 8.121 1.547 16.261-1.497 22.454-4.323l2.763-1.23 1.561-.694c-.915-2.102-1.282-4.422-1.272-6.445.04-4.978 2.554-11.066 7.962-12.652 2.525-.744 5.497.744 7.067 3.52 1.431 2.519 1.71 6.346-1.779 9.569-3.071 2.836-6.849 4.759-10.655 6.485.765 1.418 1.849 2.677 3.3 3.53 4.99 2.965 11.391.049 16.52-2.3 11.053-5.047 21.857-7.873 31.956-8.418a22.21 22.21 0 0 1 2.545-5.265c4.105-6.207 10.854-9.866 17.375-13.406l4.095-2.261a99.84 99.84 0 0 0 20.654-15.647c2.108-2.072 4.095-4.373 4.433-7.08.279-2.221-.616-4.74-2.494-7.109-3.996-5.007-15.546-11.274-36.698-2.419l-.914-.882c6.739-2.826 13.965-4.333 20.376-4.373 8.071-.04 14.293 2.4 18.011 7.05 2.057 2.578 3.012 5.364 2.703 7.843-.377 3.014-2.484 5.463-4.721 7.665-6.232 6.148-13.249 11.462-20.863 15.805-1.352.773-2.724 1.517-4.115 2.271-6.411 3.48-13.051 7.08-17.017 13.088a20.85 20.85 0 0 0-2.306 4.67c5.596-.218 10.963.278 16.033 1.487 6.023 1.438 9.979 3.817 12.086 7.288 1.879 3.084 1.958 6.99.219 10.729-1.988 4.283-5.854 7.357-10.099 8.031-.507.079-1.014.129-1.52.159h.019zM95.59 68.288c-1.322 4.452-1.233 9.331.368 13.693 2.505 6.832 9.929 13.128 18.03 11.859 3.916-.625 7.505-3.48 9.353-7.466 1.591-3.431 1.531-7-.169-9.796-1.968-3.233-5.715-5.463-11.47-6.842-5.407-1.289-10.844-1.686-16.122-1.448h.01zM49.579 55.755c-.288.02-.577.059-.865.149-4.93 1.448-7.216 7.08-7.256 11.71-.02 1.894.328 4.075 1.173 6.029 3.747-1.696 7.435-3.589 10.417-6.326 2.604-2.4 3.2-5.513 1.59-8.349-1.173-2.062-3.191-3.302-5.069-3.203l.01-.01z" fill="#ffd981"/></g><defs><radialGradient id="B" cx="0" cy="0" r="1" gradientUnits="userSpaceOnUse" gradientTransform="translate(46.5367 98.5207) rotate(-2.9528) scale(152.076 151.707)"><stop offset=".31" stop-color="#ef4e87"/><stop offset=".52" stop-color="#f3735d"/><stop offset=".72" stop-color="#f7923d"/><stop offset=".89" stop-color="#faa429"/><stop offset="1" stop-color="#fbab22"/></radialGradient><clipPath id="C"><path fill="#fff" d="M0 0h145v95H0z"/></clipPath></defs></svg>