            <svg
             style="transform: translateY(4px) scale(0.96)"
               width="42.99712mm"
               height="42.99712mm"
               viewBox="0 0 12.899136 12.899136"
               version="1.1"
               id="svg2089"
               inkscape:version="1.1.2 (0a00cf5339, 2022-02-04)"
               sodipodi:docname="sub-astro-incomplete.svg"
               xmlns:inkscape="http://www.inkscape.org/namespaces/inkscape"
               xmlns:sodipodi="http://sodipodi.sourceforge.net/DTD/sodipodi-0.dtd"
               xmlns="http://www.w3.org/2000/svg"
               xmlns:svg="http://www.w3.org/2000/svg">
              <sodipodi:namedview
                 id="namedview2091"
                 pagecolor="#ffffff"
                 bordercolor="#666666"
                 borderopacity="1.0"
                 inkscape:pageshadow="2"
                 inkscape:pageopacity="0.0"
                 inkscape:pagecheckerboard="0"
                 inkscape:document-units="mm"
                 showgrid="false"
                 fit-margin-top="0"
                 fit-margin-left="0"
                 fit-margin-right="0"
                 fit-margin-bottom="0"
                 inkscape:zoom="3.623347"
                 inkscape:cx="86.660207"
                 inkscape:cy="80.174491"
                 inkscape:window-width="1572"
                 inkscape:window-height="992"
                 inkscape:window-x="416"
                 inkscape:window-y="144"
                 inkscape:window-maximized="0"
                 inkscape:current-layer="g1242" />
              <defs
                 id="defs2086">
                <mask
                   id="mask0_849_2598"
                   maskUnits="userSpaceOnUse"
                   x="3"
                   y="14"
                   width="8"
                   height="8">
                  <circle
                     cx="6.6606398"
                     cy="17.9606"
                     r="3.5"
                     transform="rotate(-6,6.66064,17.9606)"
                     fill="#53b4ef"
                     id="circle1207" />
                </mask>
                <mask
                   id="path-11-inside-4_849_2598"
                   fill="#ffffff">
                  <path
                     d="m 4.10774,18.9475 c -0.10452,0.0358 -0.16092,0.15 -0.11684,0.2513 0.14781,0.3397 0.3693,0.6423 0.64838,0.8859 0.08324,0.0727 0.20915,0.0535 0.27492,-0.0353 C 4.97997,19.9606 4.96056,19.836 4.87844,19.762 4.66322,19.5683 4.49037,19.3321 4.3708,19.0684 4.32517,18.9678 4.21225,18.9116 4.10774,18.9475 Z"
                     id="path1216" />
                </mask>
                <mask
                   id="path-12-inside-5_849_2598"
                   fill="#ffffff">
                  <path
                     d="M 7.68394,17.8794 C 7.76981,17.9489 7.89652,17.9361 7.95897,17.845 8.13302,17.5909 8.25865,17.3068 8.3295,17.0072 8.35492,16.8996 8.27915,16.7972 8.16993,16.7805 8.06072,16.7638 7.95955,16.8391 7.9325,16.9462 7.87443,17.1761 7.77781,17.3946 7.64678,17.5923 7.58572,17.6844 7.59807,17.8099 7.68394,17.8794 Z"
                     id="path1221" />
                </mask>
                <mask
                   id="mask0_849_2598-5"
                   maskUnits="userSpaceOnUse"
                   x="3"
                   y="14"
                   width="8"
                   height="8">
                  <circle
                     cx="6.6606398"
                     cy="17.9606"
                     r="3.5"
                     transform="rotate(-6,6.66064,17.9606)"
                     fill="#53b4ef"
                     id="circle1207-6" />
                </mask>
                <mask
                   id="path-11-inside-4_849_2598-2"
                   fill="#ffffff">
                  <path
                     d="m 4.10774,18.9475 c -0.10452,0.0358 -0.16092,0.15 -0.11684,0.2513 0.14781,0.3397 0.3693,0.6423 0.64838,0.8859 0.08324,0.0727 0.20915,0.0535 0.27492,-0.0353 C 4.97997,19.9606 4.96056,19.836 4.87844,19.762 4.66322,19.5683 4.49037,19.3321 4.3708,19.0684 4.32517,18.9678 4.21225,18.9116 4.10774,18.9475 Z"
                     id="path1216-9" />
                </mask>
                <mask
                   id="path-12-inside-5_849_2598-1"
                   fill="#ffffff">
                  <path
                     d="M 7.68394,17.8794 C 7.76981,17.9489 7.89652,17.9361 7.95897,17.845 8.13302,17.5909 8.25865,17.3068 8.3295,17.0072 8.35492,16.8996 8.27915,16.7972 8.16993,16.7805 8.06072,16.7638 7.95955,16.8391 7.9325,16.9462 7.87443,17.1761 7.77781,17.3946 7.64678,17.5923 7.58572,17.6844 7.59807,17.8099 7.68394,17.8794 Z"
                     id="path1221-2" />
                </mask>
                <mask
                   id="mask1_849_2598"
                   maskUnits="userSpaceOnUse"
                   x="18"
                   y="8"
                   width="15"
                   height="15">
                  <circle
                     cx="25.742201"
                     cy="15.9551"
                     r="7"
                     transform="rotate(-6,25.7422,15.9551)"
                     fill="#b341ff"
                     id="circle1248" />
                </mask>
              </defs>
              <g
                 inkscape:label="Layer 1"
                 inkscape:groupmode="layer"
                 id="layer1"
                 transform="translate(-50.756738,-29.715796)">
                <g
                   style="mix-blend-mode:luminosity"
                   id="g1242"
                   transform="matrix(1.3229167,0,0,1.3229167,48.394927,12.405118)">
                  <mask
                     id="path-2-inside-1_849_2598"
                     fill="#ffffff">
                    <path
                       d="m 7.07563,13.3794 c 0.00998,-0.11 -0.07118,-0.2077 -0.18154,-0.2131 -1.13343,-0.0554 -2.25018,0.2929 -3.15128,0.9826 -0.08775,0.0672 -0.09896,0.1937 -0.02821,0.2786 0.07076,0.0848 0.19667,0.0959 0.28467,0.029 0.81924,-0.6221 1.83099,-0.9376 2.85867,-0.8913 0.11038,0.0049 0.20771,-0.0757 0.21769,-0.1858 z"
                       id="path1186" />
                  </mask>
                  <mask
                     id="path-3-inside-2_849_2598"
                     fill="#ffffff">
                    <path
                       d="m 2.0109,17.0205 c -0.11169,-0.0225 -0.22098,0.0497 -0.23889,0.1622 -0.11359,0.7139 -0.06957,1.4449 0.13002,2.1414 0.19959,0.6965 0.54939,1.3399 1.02384,1.8853 0.07479,0.0859 0.20573,0.0893 0.28851,0.011 C 3.29716,21.1421 3.3004,21.0118 3.22594,20.9255 2.79677,20.4284 2.48008,19.8433 2.29871,19.2104 2.11734,18.5775 2.07612,17.9135 2.17686,17.2645 2.19434,17.1519 2.12259,17.0431 2.0109,17.0205 Z"
                       id="path1191" />
                  </mask>
                  <mask
                     id="path-4-inside-3_849_2598"
                     fill="#ffffff">
                    <path
                       d="m 8.30503,13.6648 c 0.03951,-0.1032 -0.01199,-0.2193 -0.11674,-0.2545 -0.14768,-0.0496 -0.2977,-0.092 -0.4495,-0.127 -0.10767,-0.0248 -0.21231,0.0472 -0.23263,0.1558 -0.02032,0.1086 0.05138,0.2127 0.15896,0.2379 0.12819,0.0301 0.25498,0.0659 0.37996,0.1073 0.10488,0.0348 0.22044,-0.0163 0.25995,-0.1195 z"
                       id="path1196" />
                  </mask>
                  <mask
                     id="mask9801"
                     maskUnits="userSpaceOnUse"
                     x="3"
                     y="14"
                     width="8"
                     height="8">
                    <circle
                       cx="6.6606398"
                       cy="17.9606"
                       r="3.5"
                       transform="rotate(-6,6.66064,17.9606)"
                       fill="#53b4ef"
                       id="circle9799" />
                  </mask>
                  <mask
                     id="mask9808"
                     fill="#ffffff">
                    <path
                       d="m 4.10774,18.9475 c -0.10452,0.0358 -0.16092,0.15 -0.11684,0.2513 0.14781,0.3397 0.3693,0.6423 0.64838,0.8859 0.08324,0.0727 0.20915,0.0535 0.27492,-0.0353 C 4.97997,19.9606 4.96056,19.836 4.87844,19.762 4.66322,19.5683 4.49037,19.3321 4.3708,19.0684 4.32517,18.9678 4.21225,18.9116 4.10774,18.9475 Z"
                       id="path9806" />
                  </mask>
                  <mask
                     id="mask9813"
                     fill="#ffffff">
                    <path
                       d="M 7.68394,17.8794 C 7.76981,17.9489 7.89652,17.9361 7.95897,17.845 8.13302,17.5909 8.25865,17.3068 8.3295,17.0072 8.35492,16.8996 8.27915,16.7972 8.16993,16.7805 8.06072,16.7638 7.95955,16.8391 7.9325,16.9462 7.87443,17.1761 7.77781,17.3946 7.64678,17.5923 7.58572,17.6844 7.59807,17.8099 7.68394,17.8794 Z"
                       id="path9811" />
                  </mask>
<ellipse cx="4.8449736" cy="18.587675" transform="matrix(0.99397307,-0.10962456,0.09966435,0.99502111,0,0)" fill="#B341FF" fill-opacity="0.3" id="circle1244" style="opacity:1;stroke:currentColor;stroke-width:0.425;stroke-miterlimit:4;stroke-dasharray:none;stroke-opacity:1;fill: #fff;fill-opacity: 1;" ry="4.3251279" rx="4.1398452"></ellipse>
                  <ellipse
                     cx="4.8484263"
                     cy="18.582369"
                     transform="matrix(0.99395469,-0.10979104,0.09951291,0.99503627,0,0)"
                     fill="#8C12DC"
                     stroke="#332D57"
                     stroke-width="0.38319"
                     id="circle1246"
                     style="fill:#997ae8;fill-opacity:1;stroke:#37383a;stroke-opacity:1"
                     rx="3.4594166"
                     ry="3.6317039" />
                  <g
                     mask="url(#mask1_849_2598)"
                     id="g1253"
                     transform="matrix(0.46722211,0,0,0.49102468,-5.3589317,10.123532)">
                    <circle
                       cx="24.1509"
                       cy="16.122299"
                       transform="rotate(-6,24.1509,16.1223)"
                       fill="#b341ff"
                       id="circle1251"
                       style="fill:#8b67e5;fill-opacity:1"
                       r="7" />
                  </g>
                  <path
                     fill-rule="evenodd"
                     clip-rule="evenodd"
                     d="m 5.3042927,15.592853 c -0.014465,-0.144497 -0.1642325,-0.226094 -0.2780915,-0.143611 -0.5793089,0.419625 -1.000416,1.052564 -1.1710928,1.779034 -0.030052,0.127892 0.073248,0.242264 0.1979616,0.228457 0.083165,-0.0089 0.1502625,-0.0745 0.1710994,-0.159644 0.1502107,-0.613378 0.5059057,-1.148406 0.9929872,-1.508916 0.060105,-0.04429 0.094802,-0.118668 0.087138,-0.195377 z m 1.6668147,5.392683 -0.00229,2.46e-4 0.00458,-4.97e-4 z"
                     fill="#ffffff"
                     id="path1255"
                     style="stroke-width:0" />
                  <ellipse
                     cx="2.0901165"
                     cy="18.238899"
                     transform="matrix(0.99395469,-0.10979104,0.09951291,0.99503627,0,0)"
                     fill="#ffffff"
                     id="circle1257"
                     style="stroke-width:0"
                     rx="0.18699549"
                     ry="0.19630833" />
                  <path
                     fill-rule="evenodd"
                     clip-rule="evenodd"
                     d="M 9.7271568,14.796384 C 9.6903851,14.498003 9.5891375,14.307055 9.4546698,14.192679 9.3202462,14.07831 9.1214432,14.013774 8.8361156,14.038053 c -0.2879488,0.02437 -0.6401446,0.138741 -1.0365794,0.351695 -0.1033009,0.05538 -0.2085203,0.1171 -0.3151878,0.184597 -0.039135,0.02437 -0.085777,0.03249 -0.1304956,0.0229 -0.1586201,-0.03618 -0.2139841,-0.262644 -0.075218,-0.350955 0.9886883,-0.629327 1.8907077,-0.801682 2.411286,-0.358708 0.9165042,0.779994 0.3035508,3.172022 -1.3690535,5.342739 -1.672609,2.170725 -3.7715109,3.298169 -4.6880138,2.518173 -0.4791393,-0.407811 -0.5402927,-1.256137 -0.2504757,-2.283166 0.046519,-0.164811 0.2714532,-0.163187 0.3427519,-0.0081 0.019641,0.04283 0.023702,0.09112 0.011069,0.136454 -0.01011,0.03618 -0.019715,0.07236 -0.028798,0.107505 -0.1157784,0.451818 -0.1488584,0.837642 -0.1118062,1.138733 0.036772,0.298309 0.1380636,0.48933 0.2725314,0.603707 0.1344161,0.114442 0.3332265,0.178905 0.6185542,0.154607 0.2879487,-0.02437 0.6401372,-0.138741 1.0365786,-0.351694 0.7918484,-0.425309 1.6958296,-1.210082 2.5071605,-2.262985 0.8113314,-1.052955 1.3537299,-2.145383 1.5850045,-3.047892 0.1157784,-0.451744 0.1488585,-0.83759 0.1117619,-1.138666 z"
                     fill="#332D57"
                     id="path1259"
                     style="fill:#37383a;fill-opacity:1;stroke:#bbc3cf;stroke-width:0;stroke-miterlimit:4;stroke-dasharray:none;stroke-opacity:1" />
                  <path
                     fill-rule="evenodd"
                     clip-rule="evenodd"
                     d="m 5.6137337,20.025825 c -0.033966,0.07236 -0.1071772,0.115476 -0.1835713,0.106989 -2.036387,-0.225283 -3.5425245,-1.066704 -3.5596249,-2.097906 -0.011069,-0.661815 0.5936558,-1.268067 1.5643527,-1.696687 0.1488141,-0.06572 0.2901935,0.111195 0.2266478,0.267223 -0.018458,0.04503 -0.052869,0.08195 -0.096063,0.101233 -0.052721,0.02363 -0.1042823,0.04725 -0.1544633,0.07236 -0.4037279,0.197225 -0.706208,0.418593 -0.9018784,0.641955 -0.1938487,0.221368 -0.2679016,0.425605 -0.2649185,0.607469 0.00305,0.181784 0.083866,0.383223 0.2849583,0.597357 0.2029162,0.216126 0.5125881,0.426195 0.9226233,0.608429 0.5426334,0.241232 1.2319249,0.420734 2.0102239,0.507494 0.1304956,0.01476 0.2097389,0.160826 0.1517089,0.284502 z m 0.4724568,-0.118741 c 0.032858,-0.07015 0.1018084,-0.113114 0.1760974,-0.111122 0.1480614,0.0039 0.2984116,0.0046 0.4506375,0.0018 1.2890191,-0.02363 2.4339472,-0.289153 3.2404194,-0.683082 0.4037282,-0.197224 0.7062082,-0.418518 0.9018782,-0.641954 0.193849,-0.22137 0.267903,-0.425607 0.264868,-0.607471 -0.003,-0.181783 -0.08382,-0.383297 -0.284915,-0.59743 -0.202916,-0.216051 -0.512588,-0.426196 -0.9226234,-0.60843 -0.045707,-0.02068 -0.092556,-0.03987 -0.1403532,-0.05982 -0.07561,-0.03102 -0.1370821,-0.0909 -0.173055,-0.167319 -0.063428,-0.134682 0.055009,-0.296683 0.189507,-0.245587 1.0334956,0.392674 1.6938676,0.99079 1.7051746,1.671597 0.0206,1.23925 -2.1169841,2.283314 -4.7743569,2.33207 -0.1598821,0.003 -0.3179936,0.0022 -0.4739484,-0.002 -0.135309,-0.0037 -0.2191754,-0.153867 -0.1593212,-0.281379 z"
                     fill="#332D57"
                     id="path1261"
                     style="fill:#37383a;fill-opacity:1;stroke:#bbc3cf;stroke-width:0;stroke-miterlimit:4;stroke-dasharray:none;stroke-opacity:1" />
                  <ellipse
                     cx="1.3888848"
                     cy="14.803396"
                     transform="matrix(0.99395469,-0.10979104,0.09951291,0.99503627,0,0)"
                     fill="#F7931B"
                     id="circle1263"
                     style="fill:#fbc82b;fill-opacity:1;stroke-width:0"
                     rx="0.32724211"
                     ry="0.34353954" />
                  <ellipse
                     cx="2.0902059"
                     cy="14.459881"
                     transform="matrix(0.99395469,-0.10979104,0.09951291,0.99503627,0,0)"
                     fill="#FECD64"
                     id="circle1265"
                     style="fill:#f7931b;fill-opacity:1;stroke-width:0"
                     rx="0.14024661"
                     ry="0.14723125" />
                  <ellipse
                     cx="7.8402772"
                     cy="22.410379"
                     transform="matrix(0.99395469,-0.10979104,0.09951291,0.99503627,0,0)"
                     fill="#f7931b"
                     id="circle1267"
                     style="stroke-width:0"
                     rx="0.23374435"
                     ry="0.24538539" />
                  <ellipse
                     cx="-19.31855"
                     cy="4.6614351"
                     transform="matrix(-0.0995129,-0.99503627,0.99395469,-0.10979103,0,0)"
                     fill="#332D57"
                     id="circle1273"
                     style="fill:#37383a;fill-opacity:1;stroke-width:0"
                     rx="0.19630833"
                     ry="0.18699549" />
                  <ellipse
                     cx="-18.82769"
                     cy="4.1937432"
                     transform="matrix(-0.0995129,-0.99503627,0.99395469,-0.10979103,0,0)"
                     fill="#332D57"
                     id="circle1275"
                     style="fill:#37383a;fill-opacity:1;stroke-width:0"
                     rx="0.24538539"
                     ry="0.23374435" />
                  <ellipse
                     cx="-19.51483"
                     cy="4.0536375"
                     transform="matrix(-0.0995129,-0.99503627,0.99395469,-0.10979103,0,0)"
                     fill="#332D57"
                     id="circle1277"
                     style="fill:#37383a;fill-opacity:1;stroke-width:0"
                     rx="0.098154165"
                     ry="0.093497746" />
                </g>
              </g>
            </svg>