<svg xmlns="http://www.w3.org/2000/svg" id="svg4396" width="157" height="157" fill="none" version="1.1"><style id="style4231">.B{fill:#f26536}.C{fill:#ef4423}.D{fill:#ee3026}</style><g id="g4343" clip-path="url(#g)" transform="rotate(-90 81.5 81.5)"><path id="path4233" fill="url(#E)" d="m136 35-1 1v1l1 1h1v-1z" style="fill:url(#E)"/><path id="path4235" fill="url(#H)" d="m145 31-1 1v1l1 1h1l1-1z" style="fill:url(#H)"/><path id="path4237" fill="url(#I)" d="m148 104-1 1v1l1 1h1l1-1z" style="fill:url(#I)"/><path id="path4239" fill="url(#J)" d="M153 35a1 1 0 0 0 0 1v1a2 2 0 0 0 1 0l1-1h1v-1a2 2 0 0 0-1-1z" style="fill:url(#J)"/><path id="path4241" fill="url(#A)" d="M115 4a3 3 0 0 0 0 3l1 1 2 1 3-2 1-1V5l-2-2c-1-1-4-1-5 1z" style="fill:url(#A)"/><path id="path4243" fill="url(#B)" d="m37 142 3 3h2l2-1 1-4v-2a4 4 0 0 0-4-1c-2 0-4 3-4 5z" style="fill:url(#B)"/><path id="path4245" fill="url(#c)" d="m97 16 6-1c3-1 5-3 5-6l-1-3c-2-4-7-7-12-6-4 1-5 6-4 10 1 3 3 5 6 6z" style="fill:url(#c)"/><path id="path4247" fill="url(#e)" d="M47 148v5c1 2 4 4 6 4l2-1c3-2 6-7 5-10-1-4-6-5-9-3-2 0-4 2-4 5z" style="fill:url(#e)"/><path id="path4249" fill="url(#f)" d="M84 141a61.5 61.5 0 1 0 0-123 61.5 61.5 0 0 0 0 123Z" style="fill:url(#f)"/><path id="path4251" d="M70 119c0 4 3 7 7 9 3 1 7 1 9-2 1-3-1-6-3-8-3-3-6-5-9-4-2 1-3 3-3 5" class="B"/><path id="path4253" d="M82 120v-1c-2-2-5-4-7-2l-2 3a4 4 0 0 0 0 1v-1c2-3 6-2 9 0z" class="D"/><path id="path4255" d="M78 127c2 0 5 0 6-2s-1-4-2-5c-3-2-7-3-9 0v1c0 3 2 5 5 5z" class="C"/><path id="path4257" d="M51 90c-1-2-4-2-7-1-2 1-4 2-3 4 0 2 3 3 4 3 3 0 5 0 6-2v-4" class="B"/><path id="path4259" d="m45 95 5-1-1-3a2 2 0 0 0 0-1v1c0 2-2 3-4 4z" class="D"/><path id="path4261" d="M44 90c-1 0-2 1-2 3l3 2c2-1 4-2 4-4v-1zm77-22c7-3 13 3 12 9 3-7-3-16-12-12-2 1-4 4-4 7z" class="C"/><path id="path4263" d="m122 77 5 5c1 1 4 0 5-2a10 10 0 0 0 1-3c1-6-5-12-12-9l-4 4v1z" class="B"/><path id="path4265" d="M128 99c0 4-4 5-7 4 3 2 8 1 8-3l-2-3a4 4 0 0 1 1 2z" class="C"/><path id="path4267" d="m124 98-3 1v4c3 1 7 0 7-4l-1-2a2 2 0 0 0-1 0z" class="B"/><path id="path4269" d="M91 88c1-1 4 0 4 2 0-2-2-4-4-2-1 0-2 1-1 2z" class="C"/><path id="path4271" d="m91 91 2 1 1-1a3 3 0 0 0 1-1c0-2-3-3-4-2a3 3 0 0 0-1 2z" class="B"/><path id="path4273" d="M52 76c-1-2 2-3 3-3-1-1-5 0-4 3l1 2z" class="C"/><path id="path4275" d="m54 77 2-1v-2a3 3 0 0 0-1-1c-1 0-4 1-3 3a3 3 0 0 0 0 2 1 1 0 0 0 1 0z" class="B"/><path id="path4277" d="M117 107c2 0 2 2 1 4 2-1 2-4 0-4h-2a2 2 0 0 1 1 0z" class="C"/><path id="path4279" d="M116 109v1l1 1a2 2 0 0 0 1 0c1-2 1-4-1-4h-1z" class="B"/><path id="path4281" d="M101 65c-1-3 3-5 5-5-3-2-7 1-6 5l3 2z" class="C"/><path id="path4283" d="m105 65 3-2-1-2a4 4 0 0 0-1-1c-2 0-6 2-5 5l2 2a2 2 0 0 0 1 0z" class="B"/><path id="path4285" d="M127 45c1-2 5 0 6 2-1-3-5-6-6-3v4z" class="C"/><path id="path4287" d="m129 49 3 1 1-1v-2c-1-2-5-4-6-2v3zM92 36l7 2c3 3 3 8 5 11s7 4 11 2c3-3 4-7 3-11s-5-7-8-8l-12-4c-2 0-8-1-10 2s1 5 4 6z" class="B"/><path id="path4289" d="m98 31 12 4c4 2 6 4 8 8v2-5c-2-4-5-7-8-8l-12-4c-2 0-8-1-10 2v3c2-3 8-2 10-2z" class="C"/><path id="path4291" d="m92 36 7 2c3 3 3 8 5 11s7 4 11 2l3-6v-2c-2-4-5-7-8-8l-12-4c-2 0-8-1-10 2z" class="B"/><path id="path4293" d="M46 54c4 1 6 7 4 10l-6 6-4 5c-2 1-5-1-6-4-3-4-2-9-1-13 3-6 8-6 13-4z" class="C"/><path id="path4295" d="M34 61c3-6 8-6 14-4l3 3c-1-3-2-5-5-6-5-2-10-2-13 4-1 4-1 9 1 13z" class="D"/><path id="path4297" d="m40 75 4-5 6-6 1-4-3-3c-6-2-11-2-14 4v10c1 3 4 5 6 4z" class="C"/><path id="path4299" d="m39 113 5 6 4 1 4-2c2-2 4-5 4-8s-1-6-4-8l-6-2c-8 0-10 6-7 13z" class="B"/><path id="path4301" d="M41 112c1 2 2 4 4 4l3 1 2-1 3-6-2-6-5-1c-6 0-7 4-5 9z" class="C"/><path id="path4303" d="m47 106 5 1 1 1-2-4-5-1c-5 0-6 3-5 7 0-2 2-4 6-4z" class="D"/><path id="path4305" d="M45 117h3l2-1 3-6v-2a6 6 0 0 0-1-1l-5-1c-4 0-6 2-6 4v2l4 5v-1z" class="C"/><path id="path4307" fill="#f15f32" d="M100 126a59 59 0 0 1-45-96 59 59 0 1 0 75 87c-8 6-19 9-30 9z" opacity=".2" style="mix-blend-mode:multiply"/><path id="path4309" d="m106 106 3 5c3 3 5 7 5 11-1 5-5 8-10 10h-4l-2-2-2-7v-5c-2-4-10-2-7-9 3-6 12-6 17-3z" class="B"/><path id="path4311" d="M100 111c3-1 7 2 10 4-3-3-7-7-11-7s-4 2-3 5z" class="D"/><g id="g4317" class="C"><path id="path4313" d="M99 124v-2 5h1z"/><path id="path4315" d="m106 129 3-2c3-3 3-8 1-11v-1c-3-2-7-5-10-4l-4 2 2 6 1 3v2l1 3c1 2 4 2 6 2z"/></g><path id="path4319" d="m62 103 3 1c2 1 4 0 6-1h8c4-1 5-5 5-8s-3-6-5-8c-6-5-15-7-22-2-6 6 0 14 5 18z" class="B"/><path id="path4321" d="m81 94-2-3c-2-3-6-4-9-5l-3 2-6 7 1 2 3 4c1 1 3 0 5-1a9 9 0 0 1 7 0h3l1-1z" class="C"/><path id="path4323" d="m67 88 3-2h-6c-6 1-5 5-3 9z" class="D"/><path id="path4325" d="M107 92h-1l-2 1-2 2-1 3 4 2c2 1 6 0 7-3s-2-5-5-5z" class="B"/><path id="path4327" d="m103 98 1 1h4v-1l1-4h-1l-1-1-2 1a4 4 0 0 1-2 2h-1v1l1 1h-1z" class="C"/><path id="path4329" d="M108 98v1l2-1c1-2 0-3-1-4z" class="D"/><path id="path4331" fill="#f47b53" d="M52 38c-1 3-1 6 1 8l2 1 5 1 3 1c3 0 6-2 8-4l2-1c1-2 0-5-1-7-5-7-17-8-20 1z"/><path id="path4333" d="M69 38c-4-2-8-2-12-1l-2 1v5c1 2 3 2 5 2 1 1 3 3 5 2l3-1c2-2 2-6 1-8z" class="B"/><path id="path4335" fill="#f04e2b" d="M69 38c-2-3-7-6-11-4l-3 4 2-1c4-1 8-1 12 1z"/><path id="path4337" fill="#f5eb00" d="M98 58c7 7 16 12 26 12l6-1c3-2 3-6 3-9 0-6 0-11-3-16-2-5-7-9-11-12-9-7-21-14-33-13-13 2-6 16-1 23 4 6 8 12 13 16z" opacity=".3" style="mix-blend-mode:overlay"/><path id="path4339" fill="#faa21b" d="M71 33c-1 6 2 12 4 18 8 15 20 27 35 35 4 3 8 5 13 5s9 0 13-3c3-3 5-8 5-13 0-8-2-15-6-21l-8-10C117 34 74 2 71 33Z" opacity=".3" style="mix-blend-mode:overlay"/><path id="path4341" d="M35 58c-4 13-4 27 0 39 3 7 6 13 12 17 6 3 13 4 19 6l15 7c5 2 10 2 15 2s12-3 13-9c1-5-3-9-7-13L82 94c-6-5-11-12-13-19s-1-15 2-21c2-5 4-11 3-16-1-11-13-13-20-7-9 7-16 17-19 27Z" class="B" opacity=".4" style="mix-blend-mode:multiply"/></g><defs id="defs4394"><radialGradient id="A" cx="108.7" cy="2.5" r="7" fx="108.7" fy="2.5" gradientUnits="userSpaceOnUse" href="#h"><stop id="stop4345" offset=".2" stop-color="#f78f2f"/><stop id="stop4347" offset=".7" stop-color="#fbab22"/></radialGradient><radialGradient id="B" cx="37.4" cy="135.4" r="8.1" fx="37.4" fy="135.4" gradientUnits="userSpaceOnUse" href="#h"><stop id="stop4350" offset=".2" stop-color="#f78f2f"/><stop id="stop4352" offset=".7" stop-color="#fbab22"/></radialGradient><radialGradient id="E" cx="165.3" cy="28.6" r="2.4" fx="165.3" fy="28.6" gradientUnits="userSpaceOnUse" href="#h"><stop id="stop4355" offset=".2" stop-color="#f78f2f"/><stop id="stop4357" offset=".7" stop-color="#fbab22"/></radialGradient><radialGradient id="H" cx="144" cy="31" r="3" fx="144" fy="31" gradientUnits="userSpaceOnUse" href="#h"><stop id="stop4360" offset=".2" stop-color="#f78f2f"/><stop id="stop4362" offset=".7" stop-color="#fbab22"/></radialGradient><radialGradient id="I" cx="147" cy="104" r="3" fx="147" fy="104" gradientUnits="userSpaceOnUse" href="#h"><stop id="stop4365" offset=".2" stop-color="#f78f2f"/><stop id="stop4367" offset=".7" stop-color="#fbab22"/></radialGradient><radialGradient id="J" cx="151.1" cy="34.4" r="3.1" fx="151.1" fy="34.4" gradientUnits="userSpaceOnUse" href="#h"><stop id="stop4370" offset=".2" stop-color="#f78f2f"/><stop id="stop4372" offset=".7" stop-color="#fbab22"/></radialGradient><radialGradient id="c" cx="87.5" cy="-.2" r="16.8" fx="87.5" fy="-.2" gradientUnits="userSpaceOnUse" href="#h"><stop id="stop4375" offset=".2" stop-color="#f78f2f"/><stop id="stop4377" offset=".7" stop-color="#fbab22"/></radialGradient><radialGradient id="e" cx="50.1" cy="133.2" r="14.1" fx="50.1" fy="133.2" gradientUnits="userSpaceOnUse" href="#h"><stop id="stop4380" offset=".2" stop-color="#f78f2f"/><stop id="stop4382" offset=".7" stop-color="#fbab22"/></radialGradient><radialGradient id="f" cx="22.5" cy="18" r="123" fx="22.5" fy="18" gradientUnits="userSpaceOnUse" href="#h"><stop id="stop4385" offset=".2" stop-color="#f78f2f"/><stop id="stop4387" offset=".7" stop-color="#fbab22"/></radialGradient><linearGradient id="h" gradientUnits="userSpaceOnUse"/><clipPath id="g"><path id="path4391" fill="#fff" d="M0 0h169v158H0Z"/></clipPath></defs></svg>