<svg xmlns="http://www.w3.org/2000/svg" width="168" height="158" fill="none"><g clip-path="url(#a)"><path fill="url(#b)" d="M114 4v3l1 1 2 1 3-2 1-1V5l-2-2c-1-1-4-1-5 1Z"/><path fill="url(#c)" d="m36 142 3 3h2l2-1 1-4v-2l-4-1c-2 0-4 3-4 5Z"/><path fill="url(#d)" d="m115 16 1 3 1 1 2 1 3-1 1-1v-1c0-2-1-3-2-3-2-1-5-1-6 1Z"/><path fill="url(#e)" d="M106 143v3l1 1 2 1 3-1 1-1v-1l-1-3c-2-1-5-1-6 1Z"/><path fill="url(#f)" d="m135 35-1 1v1l1 1h1v-1l-1-2Z"/><path fill="url(#g)" d="m158 87-1 1v2h1v1l1-1v-1l-1-2Z"/><path fill="url(#h)" d="m155 75-1 1-1 1h1l1 1h1v-1l-1-2Z"/><path fill="url(#i)" d="m144 31-1 1v1l1 1h1l1-1-2-2Z"/><path fill="url(#j)" d="m147 104-1 1v1l1 1h1l1-1-2-2Z"/><path fill="url(#k)" d="M152 35v2h1l1-1h1v-1l-1-1-2 1Z"/><path fill="url(#l)" d="m7 69-2 1v2l2 2h1l2-2c0-2-2-4-3-3Z"/><path fill="url(#m)" d="m19 117-2 1v2l2 2h2l1-2c0-2-1-4-3-3Z"/><path fill="url(#n)" d="m19 63-2 1v2l2 2h2l1-2c0-2-2-4-3-3Z"/><path fill="url(#o)" d="m142 122-1 1-1 1h1l1 1 1 1v-1l1-1-2-2Z"/><path fill="url(#p)" d="m147 42-2 1v2l2 2h1l2-2c0-2-2-4-3-3Z"/><path fill="url(#q)" d="m150 87-2 1v2l2 2h2l1-2c0-2-1-4-3-3Z"/><path fill="url(#r)" d="M162 66h-3v2h1l2-2Z"/><path fill="url(#s)" d="m154 54-1-1h-1l-1 2 1 1h1c1 0 2-1 1-2Z"/><path fill="url(#t)" d="M151 64h-3v2l2 1 1-3Z"/><path fill="url(#u)" d="m161 59-2-2h-1l-1 1-1 2v2h2c2 0 3-2 3-3Z"/><path fill="url(#v)" d="M11 107h2v-1s1 0 0 0v-1h-1c-1 0-2 1-1 2Z"/><path fill="url(#w)" d="M7 113v1h1l1-1v-1l-1-1c-1 0-2 1-1 2Z"/><path fill="url(#x)" d="m19 107 1 1a2 2 0 0 0 1-1v-1c1 0 1 0 0 0h-1l-1 1Z"/><path fill="url(#y)" d="m7 94 1-1v-1l-1-1H6l-1 1 2 2Z"/><path fill="url(#z)" d="m17 94 2 1h2l1-2v-1h-2c-2 0-3 1-3 2Z"/><path fill="url(#A)" d="m10 128-1 2-1 1 1 1 2 2h1v-1l1-2c0-1-1-3-3-3Z"/><path fill="url(#B)" d="M5 57H4v1l1 1h1v-1l-1-1Z"/><path fill="url(#C)" d="M30 128h-1v1l1 1 1-1-1-1Z"/><path fill="url(#D)" d="m96 16 6-1c3-1 5-3 5-6l-1-3c-2-4-7-7-12-6-4 1-5 6-4 10 1 3 3 5 6 6Z"/><path fill="url(#E)" d="M131 138c-2 0-3 0-5 2-1 1-2 3-1 5l1 2c2 2 7 3 10 2 3-2 2-6 1-9-2-1-4-3-6-2Z"/><path fill="url(#F)" d="M46 148v5c1 2 4 4 6 4l2-1c3-2 6-7 5-10-1-4-6-5-9-3-2 0-4 2-4 5Z"/><path fill="url(#G)" d="M83 141a61 61 0 1 0 0-123 61 61 0 0 0 0 123Z"/><path fill="#F26536" d="M69 119c0 4 3 7 7 9 3 1 7 1 9-2 1-3-1-6-3-8-3-3-6-5-9-4-2 1-3 3-3 5"/><path fill="#BD1A12" d="M81 120v-1c-2-2-5-4-7-2l-2 3v1-1c2-3 6-2 9 0Z"/><path fill="#CE2C2C" d="M77 127c2 0 5 0 6-2s-1-4-2-5c-3-2-7-3-9 0v1c0 3 2 5 5 6Z"/><path fill="#F26536" d="M50 90c-1-2-4-2-7-1-2 1-4 2-3 4 0 2 3 3 4 3 3 0 5 0 6-2v-4"/><path fill="#BD1A12" d="m44 95 5-1-1-3v-1 1c0 2-2 3-4 4Z"/><path fill="#CE2C2C" d="M43 90c-1 0-2 1-2 3l3 2c2-1 4-2 4-4v-1h-5Zm77-22c7-3 13 3 12 9 3-7-3-16-12-12-2 1-4 4-4 7l4-4Z"/><path fill="#F26536" d="m121 77 5 5c1 1 4 0 5-2l1-3c1-6-5-12-12-9l-4 4v1l5 4Z"/><path fill="#CE2C2C" d="M127 99c0 4-4 5-7 4 3 2 8 1 8-3l-2-3 1 2Z"/><path fill="#F26536" d="m123 98-3 1v4c3 1 7 0 7-4l-1-2h-1l-2 1Z"/><path fill="#CE2C2C" d="M90 88c1-1 4 0 4 2 0-2-2-4-4-2-1 0-2 1-1 2l1-2Z"/><path fill="#F26536" d="m90 91 2 1 2-1v-1c0-2-3-3-4-2l-1 2 1 1Z"/><path fill="#CE2C2C" d="M51 76c-1-2 2-3 3-3-1-1-5 0-4 3l1 2v-2Z"/><path fill="#F26536" d="m53 77 2-1v-2l-1-1c-1 0-4 1-3 3v2h1l1-1Z"/><path fill="#CE2C2C" d="M116 107c2 0 2 2 1 4 2-1 2-4 0-4h-2 1Z"/><path fill="#F26536" d="M115 109v1l1 1h1c1-2 1-4-1-4h-1v2Z"/><path fill="#CE2C2C" d="M100 65c-1-3 3-5 5-5-3-2-7 1-6 5l3 2-2-2Z"/><path fill="#F26536" d="m104 65 3-2-1-2-1-1c-2 0-6 2-5 5l2 2h1l1-2Z"/><path fill="#CE2C2C" d="M126 45c1-2 5 0 6 2-1-3-5-6-6-3v4-3Z"/><path fill="#F26536" d="m128 49 3 1 1-1v-2c-1-2-5-4-6-2v3l2 1ZM91 36l7 2c3 3 3 8 5 11s7 4 11 2c3-3 4-7 3-11-2-4-5-7-8-8l-12-4c-2 0-8-1-10 2s1 5 4 6Z"/><path fill="#CE2C2C" d="m97 31 12 4c3 2 6 4 8 8v2-5c-2-4-5-7-8-8l-12-4c-2 0-8-1-10 2v3c2-3 8-2 10-2Z"/><path fill="#F26536" d="m91 36 7 2c3 3 3 8 5 11s7 4 11 2l3-6v-2c-2-4-5-7-8-8l-12-4c-2 0-8-1-10 2l4 3Z"/><path fill="#CE2C2C" d="M45 54c4 1 6 7 4 10l-6 6-4 5c-2 1-5-1-6-4-3-4-2-9-1-13 3-6 8-6 13-4Z"/><path fill="#BD1A12" d="M33 61c3-6 8-6 14-4l3 3c-1-3-2-5-5-6-5-2-10-2-13 4-1 4-1 9 1 13V61Z"/><path fill="#CE2C2C" d="m39 75 4-5 6-6 1-4-3-3c-6-2-11-2-14 4v10c1 3 4 5 6 4Z"/><path fill="#F26536" d="m38 113 5 6 4 1 4-2c2-2 4-5 4-8s-1-6-4-8l-6-2c-8 0-10 6-7 13Z"/><path fill="#CE2C2C" d="m40 112 4 5h3l2-1 3-6-2-6-5-1c-6 0-7 4-5 9Z"/><path fill="#BD1A12" d="m46 106 5 1 1 1-2-4-5-1c-5 0-6 3-5 7 0-2 2-4 6-4Z"/><path fill="#CE2C2C" d="M44 117h3l2-1 3-6v-2l-1-1-5-1c-4 0-6 2-6 4v2l4 5Z"/><path fill="#B90000" fill-opacity=".9" d="M99 126a59 59 0 0 1-45-96 59 59 0 1 0 75 87c-8 6-19 9-30 9Z" opacity=".2" style="mix-blend-mode:multiply"/><path fill="#F26536" d="m105 106 3 5c3 3 5 7 5 11-1 5-5 8-10 10h-4l-2-2-2-7v-5c-2-4-10-2-7-9 3-6 12-6 17-3Z"/><path fill="#BD1A12" d="M99 111c3-1 7 2 10 4-3-3-7-7-11-7s-4 2-3 5l4-2Z"/><path fill="#CE2C2C" d="M98 124v-2 5h1l-1-3Z"/><path fill="#CE2C2C" d="m105 129 3-2c3-3 3-8 1-11v-1c-3-2-7-5-10-4l-4 2 2 6 1 3v2l1 3c1 2 4 2 6 2Z"/><path fill="#F26536" d="m61 103 3 1c2 1 4 0 6-1h8c4-1 5-5 5-8s-3-6-5-8c-6-5-15-7-22-2-6 6 0 14 5 18Z"/><path fill="#CE2C2C" d="m80 94-2-3c-2-3-6-4-9-5l-3 2-6 7 1 2 3 4c1 1 3 0 5-1h10l1-1v-5Z"/><path fill="#BD1A12" d="m66 88 3-2h-6c-6 1-5 5-3 9l6-7Z"/><path fill="#F26536" d="M106 92h-1l-2 1-2 2-1 3 4 2c2 1 6 0 7-3s-2-5-5-5Z"/><path fill="#CE2C2C" d="m102 98 1 1h4v-1l1-4h-1l-1-1-2 1-2 2h-1v1l1 1Z"/><path fill="#BD1A12" d="M107 98v1l2-1c1-2 0-3-1-4l-1 4Z"/><path fill="#EA5A1D" d="M51 38c-1 3-1 6 1 8l2 1 5 1 3 1c3 0 6-2 8-4l2-1c1-2 0-5-1-7-5-7-17-8-20 1Z"/><path fill="#F26536" d="M68 38c-4-2-8-2-12 0h-2v5c1 2 3 2 5 2 1 1 3 3 5 2l3-1c2-2 2-6 1-8Z"/><path fill="#98270F" d="M68 38c-2-3-7-6-11-4l-3 4h2c4-2 8-2 12 0Z"/><path fill="#FFF3C1" d="M97 58c7 7 16 12 26 12l6-1c3-2 3-6 3-9 0-6 0-11-3-16-2-5-7-9-11-12-9-7-21-14-33-13-13 2-6 16-1 23 4 6 8 12 13 16Z" opacity=".3" style="mix-blend-mode:overlay"/><path fill="#FAA21B" d="M70 33c-1 6 2 12 4 18 8 15 20 27 35 35 4 3 8 5 13 5 4 1 9 0 13-3 3-3 5-8 5-13 0-8-2-15-6-21l-8-10C116 34 73 2 70 33Z" opacity=".3" style="mix-blend-mode:overlay"/><path fill="#F26536" d="M34 58c-4 13-4 27 0 39 3 7 6 13 12 17 6 3 13 4 19 6l15 7c5 2 10 2 15 2s12-3 13-9c1-5-3-9-7-13L81 94c-6-5-11-12-13-19s-1-15 2-21c2-5 4-11 3-16-1-11-13-13-20-7-9 7-16 17-19 27Z" opacity=".4" style="mix-blend-mode:multiply"/></g><defs><radialGradient id="b" cx="0" cy="0" r="1" gradientTransform="matrix(20 0 0 20 125 2)" gradientUnits="userSpaceOnUse"><stop offset=".2" stop-color="#F78F2F"/><stop offset=".7" stop-color="#FBAB22"/></radialGradient><radialGradient id="c" cx="0" cy="0" r="1" gradientTransform="matrix(18 -17 17 18 44 131)" gradientUnits="userSpaceOnUse"><stop offset=".2" stop-color="#F78F2F"/><stop offset=".7" stop-color="#FBAB22"/></radialGradient><radialGradient id="d" cx="0" cy="0" r="1" gradientTransform="matrix(22 0 0 22 127 14)" gradientUnits="userSpaceOnUse"><stop offset=".2" stop-color="#DA490A"/><stop offset=".7" stop-color="#FFC549"/></radialGradient><radialGradient id="e" cx="0" cy="0" r="1" gradientTransform="matrix(22 0 0 22 117 141)" gradientUnits="userSpaceOnUse"><stop offset=".2" stop-color="#DA490A"/><stop offset=".7" stop-color="#FFC549"/></radialGradient><radialGradient id="f" cx="0" cy="0" r="1" gradientTransform="matrix(4 8 -8 4 138 39)" gradientUnits="userSpaceOnUse"><stop offset=".2" stop-color="#F78F2F"/><stop offset=".7" stop-color="#FBAB22"/></radialGradient><radialGradient id="g" cx="0" cy="0" r="1" gradientTransform="matrix(4 8 -8 4 161 91)" gradientUnits="userSpaceOnUse"><stop offset=".2" stop-color="#F78F2F"/><stop offset=".7" stop-color="#FBAB22"/></radialGradient><radialGradient id="h" cx="0" cy="0" r="1" gradientTransform="matrix(4 8 -8 4 158 79)" gradientUnits="userSpaceOnUse"><stop offset=".2" stop-color="#F78F2F"/><stop offset=".7" stop-color="#FBAB22"/></radialGradient><radialGradient id="i" cx="0" cy="0" r="1" gradientTransform="matrix(4 8 -8 4 147 35)" gradientUnits="userSpaceOnUse"><stop offset=".2" stop-color="#F78F2F"/><stop offset=".7" stop-color="#FBAB22"/></radialGradient><radialGradient id="j" cx="0" cy="0" r="1" gradientTransform="matrix(4 8 -8 4 150 108)" gradientUnits="userSpaceOnUse"><stop offset=".2" stop-color="#F78F2F"/><stop offset=".7" stop-color="#FBAB22"/></radialGradient><radialGradient id="k" cx="0" cy="0" r="1" gradientTransform="matrix(9 -1 1 9 156 34)" gradientUnits="userSpaceOnUse"><stop offset=".2" stop-color="#F78F2F"/><stop offset=".7" stop-color="#FBAB22"/></radialGradient><radialGradient id="l" cx="0" cy="0" r="1" gradientTransform="matrix(8 13 -13 8 12 75)" gradientUnits="userSpaceOnUse"><stop offset=".2" stop-color="#F78F2F"/><stop offset=".7" stop-color="#FBAB22"/></radialGradient><radialGradient id="m" cx="0" cy="0" r="1" gradientTransform="matrix(8 13 -13 8 25 123)" gradientUnits="userSpaceOnUse"><stop offset=".2" stop-color="#F78F2F"/><stop offset=".7" stop-color="#FBAB22"/></radialGradient><radialGradient id="n" cx="0" cy="0" r="1" gradientTransform="matrix(8 13 -13 8 24 69)" gradientUnits="userSpaceOnUse"><stop offset=".2" stop-color="#F78F2F"/><stop offset=".7" stop-color="#FBAB22"/></radialGradient><radialGradient id="o" cx="0" cy="0" r="1" gradientTransform="matrix(5 9 -9 5 146 126)" gradientUnits="userSpaceOnUse"><stop offset=".2" stop-color="#F78F2F"/><stop offset=".7" stop-color="#FBAB22"/></radialGradient><radialGradient id="p" cx="0" cy="0" r="1" gradientTransform="matrix(8 13 -13 8 152 48)" gradientUnits="userSpaceOnUse"><stop offset=".2" stop-color="#F78F2F"/><stop offset=".7" stop-color="#FBAB22"/></radialGradient><radialGradient id="q" cx="0" cy="0" r="1" gradientTransform="matrix(8 13 -13 8 156 93)" gradientUnits="userSpaceOnUse"><stop offset=".2" stop-color="#F78F2F"/><stop offset=".7" stop-color="#FBAB22"/></radialGradient><radialGradient id="r" cx="0" cy="0" r="1" gradientTransform="matrix(-6 6 -6 -6 159 70)" gradientUnits="userSpaceOnUse"><stop offset=".2" stop-color="#F78F2F"/><stop offset=".7" stop-color="#FBAB22"/></radialGradient><radialGradient id="s" cx="0" cy="0" r="1" gradientTransform="matrix(-6 6 -6 -6 152 58)" gradientUnits="userSpaceOnUse"><stop offset=".2" stop-color="#F78F2F"/><stop offset=".7" stop-color="#FBAB22"/></radialGradient><radialGradient id="t" cx="0" cy="0" r="1" gradientTransform="matrix(-7 7 -7 -7 148 69)" gradientUnits="userSpaceOnUse"><stop offset=".2" stop-color="#F78F2F"/><stop offset=".7" stop-color="#FBAB22"/></radialGradient><radialGradient id="u" cx="0" cy="0" r="1" gradientTransform="matrix(-11 11 -11 -11 156 66)" gradientUnits="userSpaceOnUse"><stop offset=".2" stop-color="#F78F2F"/><stop offset=".7" stop-color="#FBAB22"/></radialGradient><radialGradient id="v" cx="0" cy="0" r="1" gradientTransform="matrix(6 -5 5 6 -16 125)" gradientUnits="userSpaceOnUse"><stop offset=".2" stop-color="#F78F2F"/><stop offset=".7" stop-color="#FBAB22"/></radialGradient><radialGradient id="w" cx="0" cy="0" r="1" gradientTransform="matrix(6 -5 5 6 -21 131)" gradientUnits="userSpaceOnUse"><stop offset=".2" stop-color="#F78F2F"/><stop offset=".7" stop-color="#FBAB22"/></radialGradient><radialGradient id="x" cx="0" cy="0" r="1" gradientTransform="matrix(6 -4 4 5 -9 126)" gradientUnits="userSpaceOnUse"><stop offset=".2" stop-color="#F78F2F"/><stop offset=".7" stop-color="#FBAB22"/></radialGradient><radialGradient id="y" cx="0" cy="0" r="1" gradientTransform="matrix(-3 -7 8 -3 -40 -35)" gradientUnits="userSpaceOnUse"><stop offset=".2" stop-color="#F78F2F"/><stop offset=".7" stop-color="#FBAB22"/></radialGradient><radialGradient id="z" cx="0" cy="0" r="1" gradientTransform="matrix(11 -9 8 11 -6 109)" gradientUnits="userSpaceOnUse"><stop offset=".2" stop-color="#F78F2F"/><stop offset=".7" stop-color="#FBAB22"/></radialGradient><radialGradient id="A" cx="0" cy="0" r="1" gradientTransform="matrix(8 13 -13 8 16 135)" gradientUnits="userSpaceOnUse"><stop offset=".2" stop-color="#F78F2F"/><stop offset=".7" stop-color="#FBAB22"/></radialGradient><radialGradient id="B" cx="0" cy="0" r="1" gradientTransform="matrix(3 6 -6 3 7 59)" gradientUnits="userSpaceOnUse"><stop offset=".2" stop-color="#F78F2F"/><stop offset=".7" stop-color="#FBAB22"/></radialGradient><radialGradient id="C" cx="0" cy="0" r="1" gradientTransform="matrix(3 6 -6 3 32 130)" gradientUnits="userSpaceOnUse"><stop offset=".2" stop-color="#F78F2F"/><stop offset=".7" stop-color="#FBAB22"/></radialGradient><radialGradient id="D" cx="0" cy="0" r="1" gradientTransform="matrix(27 0 0 27 109 9)" gradientUnits="userSpaceOnUse"><stop offset=".2" stop-color="#F78F2F"/><stop offset=".7" stop-color="#FBAB22"/></radialGradient><radialGradient id="E" cx="0" cy="0" r="1" gradientTransform="rotate(160 49 83) scale(21)" gradientUnits="userSpaceOnUse"><stop offset=".2" stop-color="#F78F2F"/><stop offset=".7" stop-color="#FBAB22"/></radialGradient><radialGradient id="F" cx="0" cy="0" r="1" gradientTransform="matrix(2 23 -23 2 52 159)" gradientUnits="userSpaceOnUse"><stop offset=".2" stop-color="#FF993B"/><stop offset=".7" stop-color="#FBAB22"/></radialGradient><radialGradient id="G" cx="0" cy="0" r="1" gradientTransform="matrix(117 0 0 117 54 122)" gradientUnits="userSpaceOnUse"><stop offset=".2" stop-color="#F78F2F"/><stop offset=".7" stop-color="#FBAB22"/></radialGradient><clipPath id="a"><path fill="#fff" d="M-1 0h169v158H-1z"/></clipPath></defs></svg>