<svg xmlns="http://www.w3.org/2000/svg" width="169" height="158" fill="none" xmlns:v="https://vecta.io/nano"><style><![CDATA[.B{fill:#f26536}.C{fill:#ef4423}.D{fill:#ee3026}]]></style><g clip-path="url(#g)"><path d="M114.9 4.22a3.04 3.04 0 0 0 .29 2.76c.28.42.67.77 1.09 1.06.48.32 1.01.58 1.59.62 1.14.08 2.16-.67 3.05-1.39.32-.26.66-.53.82-.91.13-.3.13-.65.09-.98-.14-1.02-.74-1.96-1.61-2.51-1.71-1.07-4.51-.66-5.32 1.35z" fill="url(#A)"/><path d="M37.47 142.36c.42 1.09 1.39 1.94 2.52 2.22.6.15 1.23.14 1.84.04.69-.1 1.38-.32 1.92-.75 1.08-.86 1.37-2.37 1.57-3.74.07-.49.15-1.01-.02-1.48-.13-.38-.41-.69-.72-.94a4.31 4.31 0 0 0-3.49-.91c-2.4.45-4.56 3.11-3.62 5.56z" fill="url(#B)"/><path d="M116.39 16.32c-.38.96-.26 2.1.31 2.95.3.45.72.82 1.17 1.13.51.35 1.09.62 1.7.66 1.22.09 2.31-.72 3.26-1.49.34-.28.7-.57.88-.98.14-.33.14-.69.1-1.04-.15-1.09-.8-2.1-1.73-2.68-1.83-1.15-4.83-.71-5.69 1.45z" fill="url(#C)"/><path d="M106.89 143.32c-.38.96-.26 2.1.31 2.95.3.45.72.82 1.17 1.13.51.35 1.09.62 1.7.66 1.22.09 2.31-.72 3.26-1.49.34-.28.7-.57.88-.98.14-.33.14-.69.1-1.04-.15-1.09-.8-2.1-1.73-2.68-1.83-1.15-4.83-.71-5.69 1.45z" fill="url(#D)"/><path d="M135.74 35.21c-.42.06-.8.34-.99.72-.1.2-.15.43-.16.65-.02.25 0 .51.12.74.22.45.73.67 1.21.85.17.07.35.13.53.11.14-.02.28-.09.39-.18.36-.28.58-.72.6-1.17.03-.89-.74-1.87-1.69-1.73l-.01.01z" fill="url(#E)"/><path d="M158.74 87.48c-.42.06-.8.34-.99.72-.1.2-.15.43-.16.65-.02.25 0 .51.12.74.22.45.73.67 1.21.85.17.07.35.13.53.11.14-.02.28-.09.39-.18.36-.28.58-.72.6-1.17.03-.89-.74-1.87-1.69-1.73l-.01.01z" fill="url(#F)"/><path d="M155.64 75.15c-.42.06-.8.34-.99.72-.1.2-.15.43-.16.65-.02.25 0 .51.12.74.22.45.73.67 1.21.85.17.07.35.13.53.11.14-.02.28-.09.39-.18.36-.28.58-.72.6-1.17.03-.89-.74-1.87-1.69-1.73l-.01.01z" fill="url(#G)"/><path d="M144.82 31.16c-.42.06-.8.34-.99.72-.1.2-.15.43-.16.65-.02.25 0 .51.12.74.22.45.73.67 1.21.85.17.07.35.13.53.11.14-.02.28-.09.39-.18.36-.28.58-.72.6-1.17.03-.89-.74-1.87-1.69-1.73l-.01.01z" fill="url(#H)"/><path d="M147.83 104.38c-.42.06-.8.34-.99.72-.1.2-.15.43-.16.65-.02.25 0 .51.12.74.22.45.73.67 1.21.85.17.07.35.13.53.11.14-.02.28-.09.39-.18.36-.28.58-.72.6-1.17.03-.89-.74-1.87-1.69-1.73l-.01.01z" fill="url(#I)"/><path d="M152.53 35.13a1.35 1.35 0 0 0 .21 1.21c.14.18.32.32.51.43a1.53 1.53 0 0 0 .72.23c.5 0 .93-.36 1.3-.7.13-.12.27-.25.33-.43.05-.14.04-.29.01-.43a1.55 1.55 0 0 0-.78-1.05c-.78-.42-2-.16-2.3.75v-.01z" fill="url(#J)"/><path d="M7.57 68.61a2.36 2.36 0 0 0-1.74 1.27c-.17.35-.25.75-.28 1.14-.03.44 0 .9.2 1.3.39.8 1.29 1.18 2.12 1.5.3.12.61.23.93.19.25-.03.49-.16.69-.32.63-.49 1.02-1.26 1.05-2.05.05-1.56-1.31-3.28-2.97-3.03z" fill="url(#K)"/><path d="M20.03 116.67a2.36 2.36 0 0 0-1.74 1.27c-.17.35-.25.75-.28 1.14-.03.44 0 .9.2 1.3.39.8 1.29 1.18 2.12 1.5.3.12.61.23.93.19.25-.03.49-.16.69-.32.63-.49 1.02-1.26 1.05-2.05.05-1.56-1.31-3.28-2.97-3.03z" fill="url(#L)"/><path d="M19.65 62.67a2.36 2.36 0 0 0-1.74 1.27c-.17.35-.25.75-.28 1.14-.03.44 0 .9.2 1.3.39.8 1.29 1.18 2.12 1.5.3.12.61.23.93.19.25-.03.49-.16.69-.32.63-.49 1.02-1.26 1.05-2.05.05-1.56-1.31-3.28-2.97-3.03z" fill="url(#M)"/><path d="M142.79 122.03c-.48.07-.92.39-1.13.83-.11.23-.17.49-.18.74-.02.29 0 .59.13.85.25.52.84.77 1.38.98.19.08.4.15.61.13.17-.02.32-.11.45-.21a1.81 1.81 0 0 0 .69-1.34c.03-1.02-.85-2.14-1.94-1.98h-.01z" fill="url(#N)"/><path d="M147.57 41.61a2.36 2.36 0 0 0-1.74 1.27c-.17.35-.25.75-.28 1.14-.03.44 0 .9.2 1.3.39.8 1.29 1.18 2.12 1.5.3.12.61.23.93.19.25-.03.49-.16.69-.32.63-.49 1.02-1.26 1.05-2.05.05-1.56-1.31-3.28-2.97-3.03z" fill="url(#O)"/><path d="M151.15 86.67a2.36 2.36 0 0 0-1.74 1.27c-.17.35-.25.75-.28 1.14-.03.44 0 .9.2 1.3.39.8 1.29 1.18 2.12 1.5.3.12.61.23.93.19.25-.03.49-.16.69-.32.63-.49 1.02-1.26 1.05-2.05.05-1.56-1.31-3.28-2.97-3.03z" fill="url(#P)"/><path d="M162.6 66.33a1.34 1.34 0 0 0-.94-.79 1.68 1.68 0 0 0-.67 0 1.42 1.42 0 0 0-.69.29c-.39.32-.48.87-.54 1.38-.02.18-.04.37.02.54.05.14.16.25.27.34.35.28.84.39 1.28.3.87-.19 1.63-1.17 1.27-2.06z" fill="url(#Q)"/><path d="M155.24 53.78a1.34 1.34 0 0 0-.94-.79 1.68 1.68 0 0 0-.67 0 1.42 1.42 0 0 0-.69.29c-.39.32-.48.87-.54 1.38-.02.18-.04.37.02.54.05.14.16.25.27.34.35.28.84.39 1.28.3.87-.18 1.63-1.17 1.27-2.06z" fill="url(#R)"/><path d="M151.97 64.44a1.52 1.52 0 0 0-1.07-.9c-.25-.05-.51-.04-.77 0-.29.05-.57.15-.79.33-.44.37-.55 1-.62 1.58-.03.21-.05.42.02.62.06.16.18.28.31.39a1.8 1.8 0 0 0 1.47.34c1-.21 1.87-1.34 1.46-2.36h-.01z" fill="url(#S)"/><path d="M161.56 58.76a2.35 2.35 0 0 0-1.65-1.38 3.07 3.07 0 0 0-1.17 0c-.44.08-.88.22-1.22.51-.68.57-.84 1.54-.95 2.42-.04.32-.08.65.04.95.09.24.27.43.47.59.62.49 1.47.69 2.25.53 1.53-.33 2.87-2.06 2.23-3.61v-.01z" fill="url(#T)"/><path d="M11.6 106.73c.16.31.52.56.93.63a2.15 2.15 0 0 0 .67 0c.25-.03.5-.1.7-.23.39-.25.48-.69.55-1.09.02-.14.05-.29-.02-.43-.05-.11-.15-.2-.27-.27-.35-.22-.83-.32-1.28-.25-.87.14-1.64.92-1.29 1.62l.01.02z" fill="url(#U)"/><path d="M7.54 112.97c.16.31.52.56.93.63a2.15 2.15 0 0 0 .67 0c.25-.03.5-.1.7-.23.39-.25.48-.69.55-1.09.02-.14.05-.29-.02-.43-.05-.11-.15-.2-.27-.27-.35-.23-.83-.32-1.28-.25-.87.14-1.64.92-1.29 1.62l.01.02z" fill="url(#V)"/><path d="M19.98 106.98c.14.27.45.49.82.55.19.03.39.03.59 0 .22-.03.44-.09.61-.2.34-.22.43-.61.48-.96.02-.13.04-.26-.01-.38-.04-.1-.14-.17-.23-.24-.31-.2-.73-.28-1.12-.22-.77.12-1.44.81-1.13 1.43l-.01.02z" fill="url(#W)"/><path d="M7.62 93.79c.42.03.86-.12 1.12-.38.14-.14.24-.3.3-.47.07-.19.11-.4.05-.59-.11-.39-.57-.65-.98-.87-.15-.08-.31-.16-.49-.18-.14-.01-.29.02-.42.07-.41.15-.73.45-.84.8-.23.68.31 1.58 1.26 1.63v-.01z" fill="url(#X)"/><path d="M18.33 94.38c.28.55.91.98 1.63 1.11.38.07.79.06 1.18 0 .44-.06.88-.17 1.22-.4.69-.45.85-1.21.97-1.91.04-.25.08-.52-.03-.75-.09-.19-.27-.35-.47-.47-.62-.4-1.46-.56-2.24-.43-1.53.25-2.89 1.61-2.26 2.85z" fill="url(#Y)"/><path d="M11.36 128.34a2.36 2.36 0 0 0-1.74 1.27c-.17.35-.25.75-.28 1.14-.03.44 0 .9.2 1.3.39.8 1.29 1.18 2.12 1.5.3.12.61.23.93.19.25-.03.49-.16.69-.32.63-.49 1.02-1.26 1.05-2.05.05-1.56-1.31-3.28-2.97-3.03z" fill="url(#Z)"/><path d="M5.83 56.88c-.3.04-.58.25-.71.52a1.55 1.55 0 0 0-.12.47c-.01.18 0 .37.08.54.16.33.53.48.87.62.12.05.25.1.38.08.1-.01.2-.07.28-.13.26-.2.42-.52.43-.84.02-.64-.54-1.35-1.22-1.25l.01-.01z" fill="url(#a)"/><path d="M30.71 127.74c-.3.04-.58.25-.71.52a1.55 1.55 0 0 0-.12.47c-.01.18 0 .37.08.54.16.33.53.49.87.62.12.05.25.1.38.08.1-.01.2-.07.28-.13.26-.2.42-.52.43-.84.02-.64-.54-1.35-1.22-1.25l.01-.01z" fill="url(#b)"/><path d="M96.64 15.68c2.15.65 4.52.46 6.59-.41 2.63-1.11 4.89-3.7 4.57-6.54-.1-.9-.45-1.76-.89-2.56C104.8 2.35 99.87-.62 95.42.12c-4.51.75-5.53 5.87-4.5 9.7.75 2.82 2.93 5.02 5.72 5.87v-.01z" fill="url(#c)"/><path d="M132 137.54c-1.74.07-3.44.81-4.73 1.98-1.64 1.48-2.65 3.96-1.69 5.96.3.64.78 1.18 1.3 1.65 2.52 2.27 6.89 3.19 9.97 1.52 3.12-1.69 2.57-5.71.84-8.26a6.56 6.56 0 0 0-5.69-2.85z" fill="url(#d)"/><path d="M46.56 147.75c-.41 1.87-.1 3.87.78 5.56 1.12 2.15 3.46 3.9 5.84 3.45.76-.14 1.47-.5 2.11-.92 3.1-2.04 5.29-6.42 4.38-10.14-.93-3.78-5.34-4.31-8.52-3.18-2.34.82-4.07 2.82-4.6 5.24l.01-.01z" fill="url(#e)"/><path d="M84.03 141.15c33.894 0 61.37-27.476 61.37-61.37s-27.476-61.37-61.37-61.37-61.37 27.476-61.37 61.37 27.476 61.37 61.37 61.37z" fill="url(#f)"/><path d="M70.47 119.25c-.9 3.85 2.9 7.24 6.64 8.53 2.99 1.03 7.08.94 8.41-1.93 1.27-2.73-.94-5.73-3.01-7.91-2.35-2.47-5.81-5.11-8.82-3.5-1.74.93-2.53 2.97-3.18 4.84" class="B"/><path d="M82.01 119.65l-.42-.45c-1.75-1.83-4.31-3.79-6.54-2.6-1.29.69-1.87 2.2-2.35 3.59l-.03-.02a3.7 3.7 0 0 0-.08 1.14c.16-.51.38-.99.73-1.42 1.97-2.43 5.8-1.48 8.7-.24h-.01z" class="D"/><path d="M77.59 126.5c2.22.77 5.25.69 6.24-1.43.85-1.84-.42-3.85-1.82-5.42-2.9-1.24-6.73-2.19-8.7.24-.34.43-.57.91-.73 1.42.18 2.37 2.61 4.36 5.01 5.19z" class="C"/><path d="M50.82 90.42c-1.08-2.24-4.27-2.4-6.61-1.56-1.87.67-3.84 2.33-3.36 4.26.46 1.83 2.72 2.44 4.59 2.69 2.13.28 4.86.21 5.7-1.76.49-1.14.07-2.45-.35-3.62" class="B"/><path d="M45.01 94.78l.38.06c1.58.21 3.6.16 4.23-1.31.36-.85.05-1.82-.26-2.68h.02a2.3 2.3 0 0 0-.41-.59c.12.31.2.64.2.98 0 1.97-2.26 3.01-4.16 3.55v-.01z" class="D"/><g class="C"><path d="M44.48 89.68c-1.39.5-2.84 1.73-2.49 3.16.31 1.24 1.72 1.72 3.02 1.93 1.91-.53 4.16-1.58 4.16-3.55 0-.34-.08-.67-.2-.98-1.02-1.09-3-1.11-4.5-.57l.01.01zm76.3-21.54c7.04-3.47 13.02 2.9 12.67 9.3 2.89-7.15-3.84-16.32-12-12.31-2.41 1.19-4.8 3.9-4.54 6.7.85-1.6 2.35-2.95 3.87-3.69z"/></g><path d="M121.79 76.66c1.71 1.4 2.9 3.96 4.72 5.05 1.77 1.06 4.08-.13 5.41-1.71a9.5 9.5 0 0 0 1.53-2.55c.36-6.41-5.62-12.77-12.67-9.3-1.52.75-3.02 2.1-3.87 3.69.04.45.15.91.34 1.36.85 1.99 3.03 2.23 4.54 3.46z" class="B"/><path d="M127.62 99.11c.09 3.55-3.65 4.8-6.21 3.44 2.39 2.54 7.42 1.51 7.32-2.6-.03-1.21-.69-2.71-1.89-3.13a4.05 4.05 0 0 1 .78 2.29z" class="C"/><path d="M123.93 97.92c-.9.43-2.17.44-2.96.98-.77.53-.72 1.7-.32 2.54.2.43.46.79.76 1.11 2.56 1.36 6.3.1 6.21-3.44-.02-.76-.29-1.64-.78-2.29a2.07 2.07 0 0 0-.62-.12c-.98-.03-1.49.82-2.28 1.21l-.01.01z" class="B"/><path d="M90.51 88.45c1.85-1.45 3.99.04 4.29 1.94.4-2.27-2.14-4.54-4.28-2.86-.63.5-1.16 1.44-.91 2.24.15-.52.51-1.01.9-1.32z" class="C"/><path d="M91.33 90.88c.59.3 1.09.98 1.69 1.19.58.2 1.19-.29 1.48-.84a2.8 2.8 0 0 0 .29-.84c-.29-1.9-2.44-3.39-4.29-1.94a2.68 2.68 0 0 0-.9 1.32c.04.13.1.26.18.38.37.53 1.03.46 1.54.73h.01z" class="B"/><path d="M51.7 76.12c-.43-2.31 1.88-3.52 3.7-2.9-1.83-1.41-5.01-.21-4.51 2.47.15.79.74 1.7 1.56 1.85-.39-.37-.66-.92-.75-1.41v-.01z" class="C"/><path d="M54.23 76.52c.54-.38 1.38-.52 1.83-.95s.29-1.19-.06-1.7a2.92 2.92 0 0 0-.61-.65c-1.82-.62-4.13.59-3.7 2.9a2.67 2.67 0 0 0 .75 1.41 1.46 1.46 0 0 0 .42.01c.64-.09.89-.69 1.36-1.03l.01.01z" class="B"/><path d="M117.25 106.98c1.76.45 1.85 2.47.82 3.54 1.58-.82 1.78-3.44-.25-3.96-.6-.16-1.43-.04-1.8.49a2.08 2.08 0 0 1 1.23-.06v-.01z" class="C"/><path d="M116.14 108.62c.09.5-.09 1.13.07 1.59.15.45.74.59 1.21.52a1.92 1.92 0 0 0 .65-.22c1.03-1.07.94-3.08-.82-3.54-.38-.1-.85-.09-1.23.06-.06.09-.11.18-.14.29-.15.48.2.85.27 1.29l-.01.01z" class="B"/><path d="M101.48 65.24c-1.13-3.36 2.08-5.66 4.93-5.11-3.03-1.72-7.54.74-6.23 4.63.39 1.15 1.45 2.38 2.72 2.43-.66-.48-1.18-1.23-1.42-1.95z" class="C"/><path d="M105.35 65.3c.73-.68 1.95-1.06 2.54-1.81.58-.73.19-1.84-.44-2.53a4.13 4.13 0 0 0-1.05-.84c-2.85-.55-6.06 1.75-4.93 5.11.24.72.76 1.48 1.42 1.95a2.34 2.34 0 0 0 .63-.07c.94-.26 1.18-1.22 1.82-1.82l.01.01z" class="B"/><path d="M127.1 45.47c1.37-2.48 4.47-.85 5.7 1.78-.63-3.31-4.53-5.95-6.13-3.08-.47.85-.62 2.3.04 3.38-.08-.77.09-1.55.38-2.08h.01z" class="C"/><g class="B"><path d="M129.17 48.73c.8.3 1.69 1.14 2.45 1.3.75.15 1.19-.68 1.25-1.52.03-.42 0-.85-.07-1.26-1.23-2.62-4.33-4.25-5.7-1.78-.3.53-.46 1.31-.38 2.08a2.93 2.93 0 0 0 .38.49c.67.67 1.36.43 2.07.69zM92.13 35.92c2.38.66 5.01.91 6.88 2.53 2.92 2.53 2.66 7.2 4.86 10.37 2.34 3.38 7.59 4.26 10.9 1.82 3.16-2.32 4.08-6.92 2.79-10.62s-4.42-6.54-7.92-8.31c-3.5-1.78-7.38-2.63-11.21-3.46-2.91-.63-8.54-1.69-10.36 1.76-1.65 3.14 1.21 5.11 4.06 5.9v.01z"/></g><path d="M98.43 31.26c3.83.83 7.71 1.68 11.21 3.46s6.62 4.61 7.92 8.31c.21.6.34 1.24.43 1.87.24-1.63.11-3.33-.43-4.88-1.29-3.7-4.42-6.54-7.92-8.31-3.5-1.78-7.38-2.63-11.21-3.46-2.91-.63-8.54-1.69-10.36 1.76-.66 1.26-.59 2.33-.09 3.21l.09-.21c1.82-3.46 7.45-2.39 10.36-1.76v.01z" class="C"/><path d="M92.13 35.92c2.38.66 5.01.91 6.88 2.53 2.92 2.53 2.66 7.2 4.86 10.37 2.34 3.38 7.59 4.26 10.9 1.82 1.84-1.35 2.9-3.48 3.23-5.75-.09-.64-.22-1.27-.43-1.87-1.29-3.7-4.42-6.54-7.92-8.31-3.5-1.78-7.38-2.63-11.21-3.46-2.91-.63-8.54-1.69-10.36 1.76-.04.07-.06.14-.09.21.74 1.32 2.44 2.22 4.15 2.69l-.01.01z" class="B"/><path d="M46.39 53.82c4.01 1.52 5.7 7.19 3.19 10.66-1.55 2.13-4.2 3.27-5.7 5.44-1.15 1.65-1.66 3.91-3.43 4.87-2.48 1.34-5.46-.9-6.78-3.39-2.18-4.11-2.16-9.23-.33-13.51 2.67-6.23 7.53-6.17 13.05-4.08v.01z" class="C"/><path d="M34.45 61.01c2.67-6.23 7.53-6.17 13.05-4.08 1.35.51 2.43 1.5 3.18 2.71-.34-2.52-1.9-4.91-4.29-5.82-5.53-2.09-10.39-2.16-13.05 4.08-1.78 4.16-1.83 9.1.17 13.15-.76-3.31-.4-6.9.94-10.04z" class="D"/><path d="M40.45 74.79c1.77-.96 2.28-3.22 3.43-4.87 1.5-2.16 4.16-3.3 5.7-5.44 1.01-1.39 1.33-3.14 1.11-4.84-.75-1.21-1.83-2.2-3.18-2.71-5.53-2.09-10.39-2.16-13.05 4.08-1.34 3.14-1.7 6.73-.94 10.04.06.12.1.24.16.35 1.32 2.49 4.3 4.73 6.78 3.39h-.01z" class="C"/><path d="M39.07 112.82c1.06 2.62 2.91 4.99 5.41 6.29 1.11.58 2.37.95 3.61.81 1.45-.15 2.76-.97 3.86-1.94 2.29-2.03 3.89-4.92 4.04-7.98.16-3.06-1.26-6.23-3.83-7.89-1.82-1.18-4.05-1.55-6.21-1.64-8.31-.35-9.59 5.66-6.89 12.35h.01z" class="B"/><path d="M41.37 112.05c.75 1.85 2.06 3.52 3.83 4.45.79.41 1.67.67 2.56.58 1.03-.11 1.95-.69 2.73-1.37 1.62-1.44 2.75-3.48 2.86-5.64s-.89-4.41-2.71-5.58c-1.29-.83-2.86-1.09-4.39-1.16-5.88-.24-6.78 4-4.87 8.73l-.01-.01z" class="C"/><path d="M47.02 105.81c1.65.07 3.35.35 4.74 1.25.56.36 1.05.83 1.46 1.36-.32-1.59-1.22-3.06-2.58-3.94-1.29-.83-2.86-1.09-4.39-1.16-5.19-.22-6.5 3.07-5.42 7.1.16-2.83 1.99-4.79 6.2-4.62l-.01.01z" class="D"/><path d="M45.19 116.5c.79.41 1.67.67 2.56.58 1.03-.11 1.95-.69 2.73-1.37 1.62-1.44 2.75-3.48 2.86-5.64.03-.55-.02-1.1-.13-1.65a5.91 5.91 0 0 0-1.46-1.36c-1.39-.9-3.08-1.18-4.74-1.25-4.2-.18-6.04 1.79-6.2 4.62.14.53.32 1.08.55 1.63.75 1.85 2.06 3.52 3.83 4.45v-.01z" class="C"/><g style="mix-blend-mode:multiply" opacity=".19"><path d="M100.44 125.59c-32.4 0-58.67-26.27-58.67-58.67 0-14.08 4.96-26.99 13.23-37.1-17.26 10.21-28.84 29.01-28.84 50.51 0 32.4 26.27 58.67 58.67 58.67 18.32 0 34.68-8.4 45.44-21.57-8.74 5.17-18.94 8.15-29.83 8.15v.01z" fill="#f15f32"/></g><path d="M105.61 106.34c1.54 1.26 2.72 2.9 3.88 4.52 2.42 3.37 4.95 7.16 4.51 11.28-.51 4.78-5 8.28-9.64 9.51-1.42.37-3 .58-4.32-.07-.75-.37-1.35-.98-1.85-1.65-1.46-1.93-2.17-4.41-1.96-6.82.14-1.66.69-3.42 0-4.93-2.07-4.48-10.56-2.19-7.21-9.26 2.87-6.06 11.94-6.38 16.59-2.57v-.01z" class="B"/><path d="M99.89 110.59c3.37-.26 6.88 1.93 9.65 4.66-2.13-3.37-6.54-7.7-10.7-7.38-3.57.28-3.66 2.48-2.85 4.94.42-1.2 1.56-2.03 3.9-2.21v-.01z" class="D"/><g class="C"><path d="M99.41 124.32c-.14-.62-.44-1.37-.81-2.2-.1 1.86-.23 3.7.85 5.14.05.07.12.12.17.18.03-1.07.01-2.12-.21-3.13v.01z"/><path d="M105.69 128.63c1.34-.4 2.63-1.07 3.61-2.06 2.72-2.75 2.51-7.42.58-10.77-.1-.18-.22-.37-.34-.55-2.78-2.72-6.28-4.92-9.65-4.66-2.33.18-3.48 1.02-3.9 2.21.72 2.19 2.14 4.59 2.47 6.05.24 1.05.2 2.16.14 3.27.37.83.67 1.58.81 2.2.23 1 .25 2.06.21 3.13 1.4 1.63 3.98 1.8 6.07 1.18z"/></g><path d="M61.82 102.6c.87.72 1.77 1.46 2.86 1.75 1.96.51 3.94-.56 5.93-.87 2.91-.45 5.99.71 8.78-.23 3.19-1.08 4.96-4.82 4.55-8.17s-2.58-6.26-5.18-8.41c-5.69-4.69-15.18-6.26-21.33-1.33-6.54 5.24-.22 13.43 4.39 17.26z" class="B"/><path d="M81.35 94.17c-.25-1.35-1.07-2.52-2.01-3.51-2.53-2.68-5.85-4.09-9.35-4.5-1.15.32-2.21 1.02-3.15 1.78-2.09 1.71-3.75 5.49-5.94 6.79.42.87.89 1.75 1.33 2.59.71 1.35 1.04 3.07 2.37 3.82 1.76 1 3.84-.38 5.72-1.12a9.29 9.29 0 0 1 6.22-.2c1.11.36 2.44.89 3.32.13.33-.29.52-.71.68-1.12.59-1.48 1.11-3.08.82-4.65l-.01-.01z" class="C"/><path d="M66.85 87.94c.94-.77 1.99-1.46 3.15-1.78-2.02-.24-4.1-.15-6.13.22-5.65 1.05-4.74 4.69-2.96 8.36 2.2-1.3 3.85-5.08 5.94-6.79v-.01z" class="D"/><path d="M107.43 91.93c-.42-.08-.85-.16-1.26-.06-.74.18-1.2.89-1.8 1.36-.88.67-2.1.84-2.85 1.66-.86.93-.77 2.48-.03 3.51s1.98 1.6 3.22 1.84c2.72.52 6.13-.67 7.27-3.4 1.21-2.9-2.35-4.47-4.56-4.9l.01-.01z" class="B"/><path d="M102.5 98.23c.32.4.81.64 1.3.79 1.32.43 2.66.3 3.89-.2.32-.31.55-.73.72-1.16.38-.94.25-2.49.74-3.31l-.91-.61c-.48-.32-.9-.82-1.47-.83-.76-.01-1.2.82-1.68 1.4a3.51 3.51 0 0 1-2.01 1.19c-.43.08-.96.15-1.12.55-.06.16-.04.33-.02.49.07.6.19 1.22.57 1.68l-.01.01z" class="C"/><path d="M108.41 97.67c-.17.42-.39.84-.72 1.16.71-.28 1.38-.69 1.98-1.18 1.67-1.36.72-2.4-.53-3.29-.49.82-.35 2.37-.74 3.31h.01z" class="D"/><path d="M51.84 37.85c-.95 2.74-.37 5.96 1.48 8.2.45.55.99 1.05 1.64 1.33 1.54.68 3.35.04 5.01.32 1.21.21 2.3.9 3.51 1.12 2.81.52 5.4-1.51 7.54-3.41.56-.49 1.12-1 1.53-1.62 1.35-2.04.72-4.84-.59-6.9-4.49-7.08-17.02-8-20.12.95v.01z" fill="#f47b53"/><path d="M68.63 37.87c-3.72-1.44-7.94-1.55-11.75-.37-.56.17-1.1.4-1.56.56-.82 1.8-1.08 3.85-.21 5.38 1.05 1.84 2.85 1.09 4.65 1.8 1.71.67 3.01 2.26 4.99 2.21 1.04-.02 2.03-.56 2.79-1.27 2.68-2.48 2.59-5.74 1.08-8.31h.01z" class="B"/><path d="M68.63 37.87c-1.96-3.32-6.29-5.51-10.16-3.46-1.24.66-2.42 2.06-3.15 3.65.46-.16 1-.38 1.56-.56 3.81-1.18 8.02-1.07 11.75.37z" fill="#f04e2b"/><g style="mix-blend-mode:overlay" opacity=".34"><path d="M98.31 58.43c7.02 6.39 15.86 11.11 25.32 11.87 2.25.18 4.69.09 6.53-1.22 2.77-1.98 3.18-5.89 3.16-9.3-.03-5.55-.56-11.27-3.08-16.22-2.5-4.9-6.77-8.65-11.18-11.94-8.83-6.6-21.45-13.92-32.99-12.27-13.48 1.93-5.74 15.49-1.31 22.43 3.86 6.04 8.23 11.81 13.55 16.65z" fill="#f5eb00"/></g><g style="mix-blend-mode:overlay" opacity=".34"><path d="M71.05 32.9c-.66 6.16 1.55 12.28 4.36 17.81 7.62 14.98 19.94 27.43 34.53 35.77 4.02 2.3 8.31 4.33 12.91 4.93s9.58-.39 13-3.51c3.6-3.28 4.99-8.39 5.21-13.26.32-7.29-1.68-14.67-5.64-20.8-2.36-3.66-5.38-6.86-8.49-9.92-9.66-9.49-52.59-41.45-55.87-11.03l-.01.01z" fill="#faa21b"/></g><g style="mix-blend-mode:multiply" opacity=".41" class="B"><path d="M34.77 58.48c-4.14 12.46-3.96 26.3.49 38.66 2.38 6.62 6.2 13.07 12.22 16.72 5.67 3.44 12.59 4.02 18.82 6.31 5.08 1.87 9.69 4.88 14.77 6.74 4.63 1.7 9.62 2.41 14.54 2.08 5.76-.38 12.36-3.23 13.29-8.92.82-5.02-3.21-9.45-7.2-12.6-6.25-4.92-13.24-8.86-19.43-13.85-6.19-5-11.72-11.36-13.61-19.08-1.68-6.84-.33-14.11 2.14-20.7 1.96-5.24 4.68-10.64 3.68-16.15-1.87-10.23-13.66-12.28-20.73-6.57-8.74 7.06-15.43 16.7-18.97 27.37l-.01-.01z"/></g></g><defs><radialGradient id="A" cx="0" cy="0" r="1" gradientTransform="translate(125.72 1.79999) scale(20.16 20.16)" href="#h"><stop offset=".17" stop-color="#f78f2f"/><stop offset=".67" stop-color="#fbab22"/></radialGradient><radialGradient id="B" cx="0" cy="0" r="1" gradientTransform="translate(45.1193 131.33) rotate(-42.65) scale(24.38 24.38)" href="#h"><stop offset=".17" stop-color="#f78f2f"/><stop offset=".67" stop-color="#fbab22"/></radialGradient><radialGradient id="C" cx="0" cy="0" r="1" gradientTransform="translate(127.97 13.73) scale(21.56)" href="#h"><stop offset=".17" stop-color="#f78f2f"/><stop offset=".67" stop-color="#fbab22"/></radialGradient><radialGradient id="D" cx="0" cy="0" r="1" gradientTransform="translate(118.47 140.73) scale(21.56 21.56)" href="#h"><stop offset=".17" stop-color="#f78f2f"/><stop offset=".67" stop-color="#fbab22"/></radialGradient><radialGradient id="E" cx="0" cy="0" r="1" gradientTransform="translate(139.077 38.7914) rotate(59.8699) scale(8.88 8.88001)" href="#h"><stop offset=".17" stop-color="#f78f2f"/><stop offset=".67" stop-color="#fbab22"/></radialGradient><radialGradient id="F" cx="0" cy="0" r="1" gradientTransform="translate(162.08 91.0563) rotate(59.87) scale(8.88001 8.88001)" href="#h"><stop offset=".17" stop-color="#f78f2f"/><stop offset=".67" stop-color="#fbab22"/></radialGradient><radialGradient id="G" cx="0" cy="0" r="1" gradientTransform="translate(158.982 78.7255) rotate(59.8701) scale(8.88 8.87998)" href="#h"><stop offset=".17" stop-color="#f78f2f"/><stop offset=".67" stop-color="#fbab22"/></radialGradient><radialGradient id="H" cx="0" cy="0" r="1" gradientTransform="translate(148.158 34.7351) rotate(59.8699) scale(8.88 8.88001)" href="#h"><stop offset=".17" stop-color="#f78f2f"/><stop offset=".67" stop-color="#fbab22"/></radialGradient><radialGradient id="I" cx="0" cy="0" r="1" gradientTransform="translate(151.169 107.957) rotate(59.8699) scale(8.87999 8.88001)" href="#h"><stop offset=".17" stop-color="#f78f2f"/><stop offset=".67" stop-color="#fbab22"/></radialGradient><radialGradient id="J" cx="0" cy="0" r="1" gradientTransform="translate(157.214 33.7473) rotate(-3.84) scale(8.88001 8.88)" href="#h"><stop offset=".17" stop-color="#f78f2f"/><stop offset=".67" stop-color="#fbab22"/></radialGradient><radialGradient id="K" cx="0" cy="0" r="1" gradientTransform="translate(13.4127 74.8987) rotate(59.87) scale(15.59 15.59)" href="#h"><stop offset=".17" stop-color="#f78f2f"/><stop offset=".67" stop-color="#fbab22"/></radialGradient><radialGradient id="L" cx="0" cy="0" r="1" gradientTransform="translate(25.8791 122.954) rotate(59.87) scale(15.59 15.59)" href="#h"><stop offset=".17" stop-color="#f78f2f"/><stop offset=".67" stop-color="#fbab22"/></radialGradient><radialGradient id="M" cx="0" cy="0" r="1" gradientTransform="translate(25.4901 68.953) rotate(59.87) scale(15.59)" href="#h"><stop offset=".17" stop-color="#f78f2f"/><stop offset=".67" stop-color="#fbab22"/></radialGradient><radialGradient id="N" cx="0" cy="0" r="1" gradientTransform="translate(146.615 126.128) rotate(59.8699) scale(10.18 10.18)" href="#h"><stop offset=".17" stop-color="#f78f2f"/><stop offset=".67" stop-color="#fbab22"/></radialGradient><radialGradient id="O" cx="0" cy="0" r="1" gradientTransform="translate(153.418 47.9035) rotate(59.87) scale(15.59 15.59)" href="#h"><stop offset=".17" stop-color="#f78f2f"/><stop offset=".67" stop-color="#fbab22"/></radialGradient><radialGradient id="P" cx="0" cy="0" r="1" gradientTransform="translate(156.996 92.9547) rotate(59.8701) scale(15.59 15.59)" href="#h"><stop offset=".17" stop-color="#f78f2f"/><stop offset=".67" stop-color="#fbab22"/></radialGradient><radialGradient id="Q" cx="0" cy="0" r="1" gradientTransform="translate(159.937 70.378) rotate(135.95) scale(8.88001 8.88001)" href="#h"><stop offset=".17" stop-color="#f78f2f"/><stop offset=".67" stop-color="#fbab22"/></radialGradient><radialGradient id="R" cx="0" cy="0" r="1" gradientTransform="translate(152.578 57.8233) rotate(135.95) scale(8.88001 8.88001)" href="#h"><stop offset=".17" stop-color="#f78f2f"/><stop offset=".67" stop-color="#fbab22"/></radialGradient><radialGradient id="S" cx="0" cy="0" r="1" gradientTransform="translate(148.912 69.0919) rotate(135.95) scale(10.18)" href="#h"><stop offset=".17" stop-color="#f78f2f"/><stop offset=".67" stop-color="#fbab22"/></radialGradient><radialGradient id="T" cx="0" cy="0" r="1" gradientTransform="translate(156.871 65.9) rotate(135.95) scale(15.6)" href="#h"><stop offset=".17" stop-color="#f78f2f"/><stop offset=".67" stop-color="#fbab22"/></radialGradient><radialGradient id="U" cx="0" cy="0" r="1" gradientTransform="translate(-15.1772 124.793) rotate(-37.0101) scale(8.08081 7.72561)" href="#h"><stop offset=".17" stop-color="#f78f2f"/><stop offset=".67" stop-color="#fbab22"/></radialGradient><radialGradient id="V" cx="0" cy="0" r="1" gradientTransform="translate(-19.7282 131.394) rotate(-37.01) scale(8.0808 7.72559)" href="#h"><stop offset=".17" stop-color="#f78f2f"/><stop offset=".67" stop-color="#fbab22"/></radialGradient><radialGradient id="W" cx="0" cy="0" r="1" gradientTransform="translate(-8.13014 126.16) rotate(-37.01) scale(7.098 6.786)" href="#h"><stop offset=".17" stop-color="#f78f2f"/><stop offset=".67" stop-color="#fbab22"/></radialGradient><radialGradient id="X" cx="0" cy="0" r="1" gradientTransform="translate(-38.7198 -35.3608) rotate(-111.39) scale(7.1928 8.7024)" href="#h"><stop offset=".17" stop-color="#f78f2f"/><stop offset=".67" stop-color="#fbab22"/></radialGradient><radialGradient id="Y" cx="0" cy="0" r="1" gradientTransform="translate(-5.11968 109.095) rotate(-37.01) scale(14.1869 13.5633)" href="#h"><stop offset=".17" stop-color="#f78f2f"/><stop offset=".67" stop-color="#fbab22"/></radialGradient><radialGradient id="Z" cx="0" cy="0" r="1" gradientTransform="translate(17.2104 134.633) rotate(59.87) scale(15.59 15.59)" href="#h"><stop offset=".17" stop-color="#f78f2f"/><stop offset=".67" stop-color="#fbab22"/></radialGradient><radialGradient id="a" cx="0" cy="0" r="1" gradientTransform="translate(8.25195 59.4523) rotate(59.87) scale(6.4)" href="#h"><stop offset=".17" stop-color="#f78f2f"/><stop offset=".67" stop-color="#fbab22"/></radialGradient><radialGradient id="b" cx="0" cy="0" r="1" gradientTransform="translate(33.1215 130.313) rotate(59.87) scale(6.40001 6.4)" href="#h"><stop offset=".17" stop-color="#f78f2f"/><stop offset=".67" stop-color="#fbab22"/></radialGradient><radialGradient id="c" cx="0" cy="0" r="1" gradientTransform="translate(109.86 9.37) scale(26.83 26.83)" href="#h"><stop offset=".17" stop-color="#f78f2f"/><stop offset=".67" stop-color="#fbab22"/></radialGradient><radialGradient id="d" cx="0" cy="0" r="1" gradientTransform="translate(123.883 145.471) rotate(160.9) scale(20.84 20.84)" href="#h"><stop offset=".17" stop-color="#f78f2f"/><stop offset=".67" stop-color="#fbab22"/></radialGradient><radialGradient id="e" cx="0" cy="0" r="1" gradientTransform="translate(52.7343 158.586) rotate(85.58) scale(22.82 22.82)" href="#h"><stop offset=".17" stop-color="#f78f2f"/><stop offset=".67" stop-color="#fbab22"/></radialGradient><radialGradient id="f" cx="0" cy="0" r="1" gradientTransform="translate(55.35 122.47) scale(117.06)" href="#h"><stop offset=".17" stop-color="#f78f2f"/><stop offset=".67" stop-color="#fbab22"/></radialGradient><clipPath id="g"><path fill="#fff" d="M0 0h169v158H0z"/></clipPath><linearGradient id="h" gradientUnits="userSpaceOnUse"/></defs></svg>