<svg id="svg2089" xmlns="http://www.w3.org/2000/svg" viewBox="0 -5 126.64 118.72" transform="scale(1) translate(2, -4)">
  <defs>
    <radialGradient id="gradient" cx="0" cy="0" r="1" gradientTransform="matrix(117 0 0 117 54 122)" gradientUnits="userSpaceOnUse">
      <stop offset=".2" stop-color="#F78F2F"/>
      <stop offset=".7" stop-color="#FBAB22"/>
    </radialGradient>
  </defs>
  <circle id="circle1281" cx="60.91" cy="60.1" r="45.09" fill="url(#gradient)" stroke="#37383a" stroke-miterlimit="19.5" stroke-width="4.87"/>
  <path id="path1299" d="M43.35,30.73a2.34,2.34,0,0,0-3.63-1.79A37.86,37.86,0,0,0,24.45,51,2.33,2.33,0,0,0,27,53.86a2.64,2.64,0,0,0,2.23-2,33,33,0,0,1,13-18.73A2.65,2.65,0,0,0,43.35,30.73Z" fill="#F26536" fill-rule="evenodd"/>
  <circle id="circle1301" cx="24.93" cy="59.59" r="2.44" fill="#F26536"/>
  <path id="path1303" d="M17.81,55.53A2.37,2.37,0,0,0,18.7,54c.3-2.08-2-3.74-3.71-2.45C4,60-1.79,69.4.49,77.35c4.24,14.78,34.69,19,68,9.47s56.9-29.28,52.66-44.07a14.94,14.94,0,0,0-6.15-8,2.26,2.26,0,0,0-3.31.95l-.88,1.77a.36.36,0,0,0,.14.47c3.22,1.89,4.89,4,5.51,6.2s.35,4.87-1.39,8.17-4.84,7-9.29,10.74c-8.9,7.44-22.47,14.49-38.63,19.13S35.75,88,24.26,86.38a37.51,37.51,0,0,1-13.57-4.17c-3.22-1.89-4.89-4-5.51-6.2s-.35-4.87,1.38-8.18a37.57,37.57,0,0,1,9.3-10.74q.95-.78,1.95-1.56Zm89.35-21.72a2.58,2.58,0,0,1-3,1.3,50.06,50.06,0,0,0-6.75-1.39c-.75-.1-1.51-.19-2.29-.27a2.38,2.38,0,0,1-1.56-.84c-1.36-1.61-.24-4.24,1.85-4a57.69,57.69,0,0,1,10.39,1.94A2.33,2.33,0,0,1,107.16,33.81Z" fill="#37383a" fill-rule="evenodd"/>
  <circle id="circle1295" cx="76.96" cy="101.65" r="6.09" fill="#CE2C2C" stroke="#37383a" stroke-miterlimit="19.5" stroke-width="3.66"/>
  <circle id="circle1314" cx="91.02" cy="8.53" r="6.09" fill="#CE2C2C" stroke="#37383a" stroke-miterlimit="19.5" stroke-width="4.87"/>
  <circle id="circle1318" cx="62.6" cy="70.33" r="2.44" fill="#37383a"/>
  <circle id="circle1320" cx="33.89" cy="77.03" r="4.27" fill="#F26536" stroke="#37383a" stroke-miterlimit="19.5" stroke-width="3.66"/>
  <path id="path1324" d="M53.58,48.61a6.71,6.71,0,1,1-7.37-6,6.61,6.61,0,0,1,4.06.87,2.46,2.46,0,0,0,2.09.26,1.65,1.65,0,0,0,.57-2.89,10.35,10.35,0,1,0,4.28,7.34,1.41,1.41,0,0,0-2-1.09l-1.05.4A1,1,0,0,0,53.58,48.61Z" fill="#37383a" fill-rule="evenodd"/>
</svg>