<svg width="51" height="53" viewBox="0 0 51 53" fill="none" xmlns="http://www.w3.org/2000/svg">
<path d="M24.6605 0.713783C25.0546 0.104846 25.9455 0.104846 26.3396 0.713783L30.9171 7.78728C31.1743 8.18468 31.6748 8.34733 32.1165 8.17699L39.9775 5.145C40.6542 4.88399 41.375 5.40768 41.3359 6.13194L40.8815 14.5451C40.8559 15.0178 41.1653 15.4436 41.6227 15.5654L49.7646 17.733C50.4655 17.9196 50.7408 18.767 50.2834 19.3299L44.9707 25.8692C44.6722 26.2366 44.6722 26.763 44.9707 27.1304L50.2834 33.6697C50.7408 34.2326 50.4655 35.08 49.7646 35.2666L41.6227 37.4342C41.1653 37.556 40.8559 37.9818 40.8815 38.4545L41.3359 46.8677C41.375 47.5919 40.6542 48.1156 39.9775 47.8546L32.1165 44.8226C31.6748 44.6523 31.1743 44.8149 30.9171 45.2123L26.3396 52.2858C25.9455 52.8948 25.0546 52.8948 24.6605 52.2858L20.083 45.2123C19.8258 44.8149 19.3252 44.6523 18.8836 44.8226L11.0226 47.8546C10.3459 48.1156 9.62507 47.5919 9.66419 46.8677L10.1186 38.4545C10.1441 37.9818 9.83476 37.556 9.37733 37.4342L1.23551 35.2666C0.534602 35.08 0.259282 34.2326 0.716644 33.6697L6.02941 27.1304C6.32789 26.763 6.32789 26.2366 6.02941 25.8692L0.716644 19.3299C0.259283 18.767 0.534601 17.9196 1.23551 17.733L9.37733 15.5654C9.83476 15.4436 10.1441 15.0178 10.1186 14.5451L9.66419 6.13194C9.62507 5.40768 10.3459 4.88399 11.0226 5.145L18.8836 8.17699C19.3252 8.34733 19.8258 8.18468 20.083 7.78728L24.6605 0.713783Z" fill="#02B197" fill-opacity="0.2"/>
</svg>
