<svg width="52" height="52" viewBox="0 0 52 52" fill="none" xmlns="http://www.w3.org/2000/svg">
<circle cx="26" cy="26" r="26" fill="#213230"/>
<path d="M15.2375 18.0637C15.1465 18.1949 15.0931 18.3485 15.0831 18.5078C15.0731 18.6671 15.1069 18.8261 15.1808 18.9676C15.2547 19.1091 15.3659 19.2277 15.5024 19.3105C15.6388 19.3933 15.7954 19.4372 15.955 19.4375C16.0961 19.4373 16.235 19.4029 16.3599 19.3374C16.4848 19.2719 16.5921 19.1772 16.6725 19.0612C17.9546 17.2055 19.7657 15.7786 21.87 14.9662C21.9852 14.9312 22.0919 14.8728 22.1834 14.7947C22.275 14.7166 22.3495 14.6204 22.4022 14.5122C22.4549 14.4039 22.4847 14.286 22.4897 14.1657C22.4948 14.0455 22.475 13.9255 22.4315 13.8132C22.388 13.7009 22.3219 13.5989 22.2372 13.5133C22.1525 13.4278 22.051 13.3607 21.9392 13.3162C21.8274 13.2716 21.7075 13.2506 21.5872 13.2545C21.4669 13.2584 21.3487 13.2871 21.24 13.3387C18.8098 14.2748 16.7181 15.9214 15.2375 18.0637Z" fill="#02B197"/>
<path d="M36.7625 18.0638C35.2632 15.9044 33.1466 14.2483 30.69 13.3125C30.5812 13.2608 30.463 13.2322 30.3427 13.2283C30.2224 13.2244 30.1026 13.2454 29.9908 13.2899C29.8789 13.3344 29.7775 13.4016 29.6928 13.4871C29.6081 13.5726 29.5419 13.6747 29.4985 13.787C29.455 13.8992 29.4352 14.0192 29.4402 14.1395C29.4453 14.2598 29.4751 14.3777 29.5278 14.4859C29.5805 14.5942 29.6549 14.6903 29.7465 14.7685C29.8381 14.8466 29.9448 14.905 30.06 14.94C32.1827 15.7579 34.0114 17.1934 35.31 19.0613C35.4422 19.2539 35.6456 19.386 35.8754 19.4287C36.1051 19.4714 36.3424 19.421 36.535 19.2888C36.7276 19.1565 36.8598 18.9531 36.9024 18.7234C36.9451 18.4936 36.8947 18.2564 36.7625 18.0638Z" fill="#02B197"/>
<path d="M26 15.0625C23.8388 15.0633 21.7305 15.731 19.9628 16.9744C18.1952 18.2178 16.8542 19.9763 16.123 22.0101C15.3919 24.0438 15.306 26.2536 15.8773 28.3379C16.4485 30.4222 17.6491 32.2795 19.315 33.6562C19.2509 33.7057 19.1948 33.7647 19.1487 33.8313L17.3987 36.4563C17.2721 36.6492 17.2268 36.8843 17.2726 37.1104C17.3185 37.3366 17.4519 37.5355 17.6437 37.6637C17.7846 37.7624 17.9529 37.8145 18.125 37.8125C18.2691 37.8118 18.4108 37.7754 18.5375 37.7067C18.6642 37.638 18.7719 37.5391 18.8512 37.4187L20.6012 34.7937C20.64 34.7355 20.6668 34.67 20.68 34.6012C22.1762 35.4915 23.872 35.9916 25.6118 36.0559C27.3516 36.1201 29.0797 35.7463 30.6375 34.9688L32.2737 37.4187C32.353 37.5391 32.4607 37.638 32.5874 37.7067C32.7141 37.7754 32.8558 37.8118 33 37.8125C33.172 37.8145 33.3403 37.7624 33.4812 37.6637C33.6612 37.5363 33.7864 37.3457 33.8318 37.1299C33.8772 36.9141 33.8395 36.6892 33.7262 36.5L32.125 34.0675C33.92 32.7679 35.2579 30.9337 35.947 28.8274C36.6361 26.7212 36.6411 24.4509 35.9613 22.3416C35.2815 20.2323 33.9518 18.3922 32.1625 17.0847C30.3732 15.7772 28.2161 15.0693 26 15.0625ZM30.1212 29.6837C30.0399 29.7658 29.9431 29.8309 29.8365 29.8753C29.7298 29.9197 29.6155 29.9426 29.5 29.9426C29.3844 29.9426 29.2701 29.9197 29.1635 29.8753C29.0568 29.8309 28.9601 29.7658 28.8787 29.6837L25.3787 26.1837C25.2976 26.102 25.2335 26.005 25.1899 25.8984C25.1464 25.7918 25.1243 25.6777 25.125 25.5625V18.5625C25.125 18.3304 25.2171 18.1079 25.3812 17.9438C25.5453 17.7797 25.7679 17.6875 26 17.6875C26.232 17.6875 26.4546 17.7797 26.6187 17.9438C26.7828 18.1079 26.875 18.3304 26.875 18.5625V25.2038L30.1212 28.4413C30.2032 28.5226 30.2683 28.6194 30.3127 28.726C30.3572 28.8326 30.38 28.947 30.38 29.0625C30.38 29.178 30.3572 29.2924 30.3127 29.399C30.2683 29.5056 30.2032 29.6024 30.1212 29.6837Z" fill="#02B197"/>
</svg>
