<svg width="52" height="52" viewBox="0 0 52 52" fill="none" xmlns="http://www.w3.org/2000/svg">
<circle cx="26" cy="26" r="26" fill="#213230"/>
<path d="M37.6666 21.3333C37.6666 20.8181 37.4576 20.3515 37.1202 20.0136L31.9868 14.8803C31.6485 14.5424 31.1818 14.3333 30.6666 14.3333C29.7314 14.3333 28.9633 15.0235 28.828 15.9214L28.7202 15.8136C28.3818 15.4757 27.9152 15.2667 27.4 15.2667C26.3691 15.2667 25.5333 16.1025 25.5333 17.1333C25.5333 17.6485 25.7424 18.1152 26.0798 18.4531L28.6581 21.0314L21.0318 28.6586L18.4535 26.0803C18.1152 25.7424 17.6485 25.5333 17.1333 25.5333C16.1024 25.5333 15.2666 26.3691 15.2666 27.4C15.2666 27.9152 15.4757 28.3819 15.8131 28.7197L15.9214 28.828C15.0235 28.9633 14.3333 29.731 14.3333 30.6667C14.3333 31.1819 14.5424 31.6485 14.8798 31.9864L20.0131 37.1197C20.3514 37.4576 20.8181 37.6667 21.3333 37.6667C22.2685 37.6667 23.0366 36.9765 23.172 36.0786L23.2798 36.1864C23.6181 36.5243 24.0848 36.7333 24.6 36.7333C25.6308 36.7333 26.4666 35.8975 26.4666 34.8667C26.4666 34.3515 26.2576 33.8848 25.9202 33.5469L23.3418 30.9686L30.9686 23.3419L33.5469 25.9202C33.8848 26.2576 34.3514 26.4667 34.8666 26.4667C35.8975 26.4667 36.7333 25.6309 36.7333 24.6C36.7333 24.0848 36.5242 23.6181 36.1868 23.2803L36.0786 23.172C36.9764 23.0367 37.6666 22.269 37.6666 21.3333Z" fill="#02B197"/>
</svg>
