<svg width="52" height="52" viewBox="0 0 52 52" fill="none" xmlns="http://www.w3.org/2000/svg">
<circle cx="26" cy="26" r="26" fill="#213230"/>
<g clip-path="url(#clip0_243_3787)">
<path d="M17.2196 22.9308H12.8076C12.3616 22.9308 12 23.2924 12 23.7385V28.0461C12 28.4922 12.3616 28.8538 12.8076 28.8538H23.1426L17.2196 22.9308Z" fill="#02B197"/>
<path d="M37.6846 16.2001C37.6846 15.9449 37.7537 15.8586 37.9384 15.6277C38.1805 15.3251 38.5462 14.868 38.5462 14.0462C38.5462 13.6001 38.1845 13.2385 37.7385 13.2385C37.2925 13.2385 36.9308 13.6002 36.9308 14.0462C36.9308 14.3014 36.8618 14.3877 36.677 14.6186C36.435 14.9211 36.0693 15.3783 36.0693 16.2001C36.0693 17.0219 36.435 17.4791 36.677 17.7816C36.8617 18.0125 36.9308 18.0989 36.9308 18.354C36.9308 18.6091 36.8618 18.6954 36.677 18.9263C36.435 19.2288 36.0693 19.6859 36.0693 20.5077C36.0693 20.9538 36.4309 21.3154 36.877 21.3154C37.323 21.3154 37.6846 20.9537 37.6846 20.5077C37.6846 20.2526 37.7537 20.1663 37.9384 19.9354C38.1804 19.6329 38.5462 19.1758 38.5462 18.354C38.5462 17.5322 38.1804 17.075 37.9384 16.7725C37.7537 16.5416 37.6846 16.4553 37.6846 16.2001Z" fill="#02B197"/>
<path d="M34.4539 16.2001C34.4539 15.9449 34.5229 15.8586 34.7077 15.6277C34.9497 15.3251 35.3154 14.868 35.3154 14.0462C35.3154 13.6001 34.9538 13.2385 34.5077 13.2385C34.0617 13.2385 33.7 13.6001 33.7 14.0461C33.7 14.3013 33.6309 14.3877 33.4462 14.6185C33.2041 14.9211 32.8384 15.3783 32.8384 16.2001C32.8384 17.0218 33.2042 17.479 33.4462 17.7816C33.6309 18.0125 33.7 18.0988 33.7 18.354C33.7 18.609 33.6309 18.6954 33.4462 18.9262C33.2042 19.2288 32.8384 19.6859 32.8384 20.5076C32.8384 20.9537 33.2001 21.3153 33.6461 21.3153C34.0922 21.3153 34.4538 20.9537 34.4538 20.5076C34.4538 20.2526 34.5229 20.1662 34.7076 19.9354C34.9496 19.6328 35.3153 19.1757 35.3153 18.354C35.3153 17.5322 34.9496 17.0749 34.7076 16.7725C34.5229 16.5416 34.4539 16.4553 34.4539 16.2001Z" fill="#02B197"/>
<path d="M39.344 35.9174L32.2806 28.8539H33.8077V22.9308H26.3575L16.0826 12.6559C15.9311 12.5044 15.7257 12.4193 15.5115 12.4193C15.2972 12.4193 15.0918 12.5044 14.9404 12.6559L12.6559 14.9404C12.3405 15.2558 12.3405 15.7672 12.6559 16.0826L19.504 22.9308L25.4271 28.8539L35.9174 39.3442C36.0689 39.4957 36.2743 39.5808 36.4885 39.5808C36.7027 39.5808 36.9082 39.4956 37.0596 39.3442L39.3441 37.0597C39.6595 36.7442 39.6595 36.2328 39.344 35.9174Z" fill="#02B197"/>
<path d="M39.1923 22.9308H35.4231V28.8539H39.1923C39.6384 28.8539 40 28.4922 40 28.0462V23.7385C40 23.2924 39.6383 22.9308 39.1923 22.9308Z" fill="#02B197"/>
</g>
<defs>
<clipPath id="clip0_243_3787">
<rect width="28" height="28" fill="white" transform="translate(12 12)"/>
</clipPath>
</defs>
</svg>
